<?xml version="1.0" encoding="utf-8"?>
<!-- Generator: Adobe Illustrator 19.1.0, SVG Export Plug-In . SVG Version: 6.00 Build 0)  -->
<svg version="1.1" id="Layer_1" xmlns="http://www.w3.org/2000/svg" xmlns:xlink="http://www.w3.org/1999/xlink" x="0px" y="0px"
	 viewBox="0 0 399 36" style="enable-background:new 0 0 399 36;" xml:space="preserve">
<style type="text/css">
	.st0{fill:#D8D8D8;}
	.st1{fill:#EF4438;}
	.st2{fill:#80C342;}
	.st3{fill:#F9ED28;}
	.st4{fill:#FFFFFF;}
	.st5{fill:none;stroke:#EF4438;stroke-width:0.7157;stroke-miterlimit:10;}
</style>
<g>
	<polyline class="st0" points="399,36 399,0 0,0 0,36 	"/>
</g>
<circle class="st1" cx="392.1" cy="6.5" r="2.4"/>
<circle class="st2" cx="377" cy="6.5" r="2.4"/>
<circle class="st3" cx="384.8" cy="6.5" r="2.4"/>
<path class="st4" d="M367.1,22.2H40.6c-0.8,0-1.4-0.6-1.4-1.4v-4.9c0-0.8,0.6-1.4,1.4-1.4h326.5c0.8,0,1.4,0.6,1.4,1.4v4.9
	C368.5,21.6,367.9,22.2,367.1,22.2z"/>
<g>
	<g>
		<polygon class="st1" points="31.8,17.4 29.4,17.4 31.8,15 34.3,17.4 		"/>
		<rect x="29.9" y="17.4" class="st1" width="3.9" height="3.4"/>
		<rect x="31.2" y="18.8" class="st0" width="1.2" height="2.7"/>
		<rect x="33" y="15.1" class="st1" width="0.3" height="0.8"/>
	</g>
	<circle class="st5" cx="23.6" cy="18.1" r="2.8"/>
	<rect x="24.7" y="16.9" class="st0" width="3.5" height="2.5"/>
	<polygon class="st5" points="26.4,16.2 26.5,17.3 25.4,17.2 	"/>
	<rect x="12.2" y="17.9" class="st1" width="4.3" height="1"/>
	<path class="st1" d="M16.3,17.7l-0.9-1.3l3,1.9c0.1,0,0.1,0.1,0,0.2l-2.7,1.8l0.7-1.4"/>
	<rect x="6" y="17.9" class="st1" width="3.8" height="1"/>
	<path class="st1" d="M6.1,19.1L7,20.4l-3-1.9c-0.1,0-0.1-0.1,0-0.2l2.7-1.8L6,17.9"/>
</g>
</svg>
