<?xml version="1.0" encoding="utf-8"?>
<!-- Generator: Adobe Illustrator 19.1.0, SVG Export Plug-In . SVG Version: 6.00 Build 0)  -->
<svg version="1.1" xmlns="http://www.w3.org/2000/svg" xmlns:xlink="http://www.w3.org/1999/xlink" x="0px" y="0px"
	 viewBox="0 0 410 487.5" style="enable-background:new 0 0 410 487.5;" xml:space="preserve">
<style type="text/css">
	.st0{fill:#D8D8D8;}
	.st1{opacity:0.26;}
	.st2{fill:#2B2A2A;}
	.st3{fill:#3195AB;}
	.st4{fill:#EF4438;}
	.st5{fill:#80C342;}
	.st6{fill:#F9ED28;}
	.st7{fill:#FFFFFF;}
	.st8{fill:none;stroke:#EF4438;stroke-width:0.7222;stroke-miterlimit:10;}
	.st9{fill:#EAEAEA;}
	.st10{fill:#8E8E8E;}
	.st11{fill:#8E8E8E;stroke:#454545;stroke-width:5;stroke-miterlimit:10;}
	.st12{fill:#707071;stroke:#1E1E1E;stroke-miterlimit:10;}
	.st13{opacity:0.17;}
	.st14{fill:#353535;}
	.st15{fill:none;stroke:#D8D8D8;stroke-width:0.9717;stroke-miterlimit:10;}
	.st16{fill:#515251;}
	.st17{fill:#BE384B;}
</style>
<g id="Layer_1">
	<g>
		<rect x="7.4" class="st0" width="402.6" height="36.3"/>
	</g>
	<g>
		<g class="st1">
			<line class="st2" x1="18.5" y1="47.4" x2="421.1" y2="47.4"/>
		</g>
		<g>
			<line class="st3" x1="7.4" y1="36.3" x2="410" y2="36.3"/>
		</g>
	</g>
	<circle class="st4" cx="403.1" cy="6.6" r="2.4"/>
	<circle class="st5" cx="387.8" cy="6.6" r="2.4"/>
	<circle class="st6" cx="395.6" cy="6.6" r="2.4"/>
	<path class="st7" d="M377.8,22.4H48.4c-0.8,0-1.4-0.6-1.4-1.4v-5c0-0.8,0.6-1.4,1.4-1.4h329.5c0.8,0,1.4,0.6,1.4,1.4v5
		C379.2,21.8,378.6,22.4,377.8,22.4z"/>
	<g>
		<g>
			<polygon class="st4" points="39.5,17.6 37,17.6 39.5,15.1 42,17.6 			"/>
			<rect x="37.5" y="17.6" class="st4" width="4" height="3.5"/>
			<rect x="38.9" y="19" class="st0" width="1.2" height="2.7"/>
			<rect x="40.6" y="15.3" class="st4" width="0.3" height="0.8"/>
		</g>
		<circle class="st8" cx="31.2" cy="18.3" r="2.8"/>
		<rect x="32.3" y="17" class="st0" width="3.5" height="2.5"/>
		<polygon class="st8" points="34,16.3 34.1,17.5 33,17.4 		"/>
		<rect x="19.7" y="18.1" class="st4" width="4.3" height="1"/>
		<path class="st4" d="M23.9,17.9L23,16.6l3,1.9c0.1,0,0.1,0.1,0,0.2l-2.7,1.8l0.7-1.5"/>
		<rect x="13.5" y="18.1" class="st4" width="3.8" height="1"/>
		<path class="st4" d="M13.6,19.3l0.9,1.3l-3-1.9c-0.1,0-0.1-0.1,0-0.2l2.7-1.8l-0.7,1.5"/>
	</g>
	<line class="st9" x1="7.4" y1="36.3" x2="410" y2="36.3"/>
	<polygon class="st10" points="7.4,480.1 7.4,0 0,9 0,480.1 0,487.5 7.4,487.5 400.6,487.5 410,480.1 	"/>
	<path class="st11" d="M7.4,480.1"/>
	<path class="st12" d="M-46.3,478.8"/>
</g>
<g id="objects">
	<g>
		<g class="st13">
			<path d="M79.8,73.5c1,1,2.6,1.8,4.5,1.8c0.8,0,1.6-0.3,1.6-0.8s-0.6-0.8-2-1.1c-2.3-0.4-5.8-1-5.8-4.5c0-2.4,2-4.5,5.8-4.5
				c2.3,0,4.3,0.7,5.9,2l-2.3,3c-1.2-0.9-2.8-1.4-3.9-1.4c-1,0-1.3,0.4-1.3,0.7c0,0.5,0.6,0.7,2.1,1c2.3,0.4,5.7,1.1,5.7,4.3
				c0,3.1-2.3,4.9-6,4.9c-3,0-5-0.9-6.5-2.2L79.8,73.5z"/>
			<path d="M90.8,73.6c0-2.8,2.1-5.3,5.7-5.3c3.6,0,5.7,2.5,5.7,5.3s-2.1,5.3-5.7,5.3C92.9,78.9,90.8,76.4,90.8,73.6z M98.3,73.6
				c0-1.1-0.7-2-1.8-2c-1.2,0-1.8,0.9-1.8,2c0,1.1,0.7,2,1.8,2C97.6,75.6,98.3,74.7,98.3,73.6z"/>
			<path d="M108.6,68.3c2.3,0,3.7,1,4.3,1.9l-2.4,2.3c-0.3-0.5-0.9-0.9-1.7-0.9c-1.1,0-2,0.7-2,2s0.9,2,2,2c0.8,0,1.4-0.4,1.7-0.9
				l2.4,2.3c-0.6,0.8-2,1.9-4.3,1.9c-3.2,0-5.7-2.1-5.7-5.3C102.9,70.4,105.4,68.3,108.6,68.3z"/>
			<path d="M113.9,65.4c0-1.2,0.9-2.1,2.1-2.1s2.1,0.9,2.1,2.1s-0.9,2.1-2.1,2.1S113.9,66.5,113.9,65.4z M114.1,68.5h3.8v10.1h-3.8
				V68.5z"/>
			<path d="M125.9,77.7c-0.6,0.7-1.8,1.2-3.1,1.2c-1.5,0-3.5-1-3.5-3.3c0-2.5,2-3.1,3.5-3.1c1.3,0,2.5,0.4,3.1,1.1v-1.2
				c0-0.7-0.7-1.3-1.9-1.3c-0.9,0-2,0.4-2.8,1l-1.3-2.3c1.4-1.1,3.3-1.5,4.8-1.5c2.5,0,5,0.9,5,4.3v6.1h-3.8V77.7z M125.9,75.3
				c-0.3-0.4-0.9-0.5-1.5-0.5c-0.6,0-1.3,0.2-1.3,0.8s0.7,0.8,1.3,0.8c0.6,0,1.2-0.2,1.5-0.5V75.3z"/>
			<path d="M131.8,64.7h3.8v14h-3.8V64.7z"/>
			<path d="M155.5,69.8l-3.1,8.8h-1.9l-3.1-8.8v8.8h-4.2v-14h5.9l2.5,7.1l2.5-7.1h5.9v14h-4.2V69.8z"/>
			<path d="M166.7,68.3c3,0,5.3,2.1,5.3,5.7v0.8h-6.9c0.2,0.7,0.9,1.3,2.2,1.3c0.9,0,1.8-0.3,2.3-0.7l1.6,2.3
				c-1,0.9-2.8,1.3-4.3,1.3c-3.2,0-5.6-2-5.6-5.3C161.2,70.6,163.4,68.3,166.7,68.3z M165.1,72.4h3.3c-0.1-0.4-0.5-1.2-1.7-1.2
				C165.6,71.2,165.2,71.9,165.1,72.4z"/>
			<path d="M179.9,77.6c-0.9,1-1.8,1.3-2.9,1.3c-2.5,0-4.5-1.8-4.5-5.3c0-3.4,2-5.3,4.5-5.3c1,0,2.1,0.4,2.9,1.3v-4.9h3.8v14h-3.8
				V77.6z M179.9,72.3c-0.4-0.4-1.1-0.7-1.6-0.7c-1,0-1.9,0.7-1.9,2s0.9,2,1.9,2c0.5,0,1.2-0.3,1.6-0.7V72.3z"/>
			<path d="M185.6,65.4c0-1.2,0.9-2.1,2.1-2.1s2.1,0.9,2.1,2.1s-0.9,2.1-2.1,2.1S185.6,66.5,185.6,65.4z M185.8,68.5h3.8v10.1h-3.8
				V68.5z"/>
			<path d="M197.5,77.7c-0.6,0.7-1.8,1.2-3.1,1.2c-1.5,0-3.5-1-3.5-3.3c0-2.5,2-3.1,3.5-3.1c1.3,0,2.5,0.4,3.1,1.1v-1.2
				c0-0.7-0.7-1.3-1.9-1.3c-0.9,0-2,0.4-2.8,1l-1.3-2.3c1.4-1.1,3.3-1.5,4.8-1.5c2.5,0,5,0.9,5,4.3v6.1h-3.8V77.7z M197.5,75.3
				c-0.3-0.4-0.9-0.5-1.5-0.5c-0.6,0-1.3,0.2-1.3,0.8s0.7,0.8,1.3,0.8c0.6,0,1.2-0.2,1.5-0.5V75.3z"/>
			<path d="M221.7,76.4l0.8,0.9l-2.9,2.4l-1-1.2c-0.8,0.3-1.8,0.4-2.8,0.4c-4.3,0-7.7-2.9-7.7-7.2s3.3-7.2,7.7-7.2
				c4.3,0,7.7,2.9,7.7,7.2C223.4,73.6,222.8,75.2,221.7,76.4z M215.9,75.2l-1.2-1.4l2.9-2.4l1.2,1.6c0.1-0.4,0.2-0.8,0.2-1.3
				c0-2-1.3-3.5-3.4-3.5c-2,0-3.4,1.6-3.4,3.5s1.3,3.5,3.4,3.5H215.9z"/>
			<path d="M231.7,77.5c-0.6,0.7-1.7,1.4-3.5,1.4c-2.4,0-3.4-1.4-3.4-3.1v-7.2h3.8v5.6c0,1,0.5,1.4,1.5,1.4c0.8,0,1.3-0.4,1.6-0.8
				v-6.3h3.8v10.1h-3.8V77.5z"/>
			<path d="M242.4,68.3c3,0,5.3,2.1,5.3,5.7v0.8h-6.9c0.2,0.7,0.9,1.3,2.2,1.3c0.9,0,1.8-0.3,2.3-0.7l1.6,2.3
				c-1,0.9-2.8,1.3-4.3,1.3c-3.2,0-5.6-2-5.6-5.3C236.9,70.6,239.1,68.3,242.4,68.3z M240.8,72.4h3.3c-0.1-0.4-0.5-1.2-1.7-1.2
				C241.3,71.2,240.9,71.9,240.8,72.4z"/>
			<path d="M249.6,74.8c0.8,0.6,2.5,1.3,3.7,1.3c0.8,0,1-0.2,1-0.5c0-0.3-0.5-0.5-1.4-0.6c-1.7-0.2-4.3-0.5-4.3-3.3
				c0-1.8,1.6-3.5,4.5-3.5c1.7,0,3.2,0.5,4.4,1.3l-1.4,2.5c-0.6-0.5-1.8-1-3-1c-0.5,0-0.9,0.1-0.9,0.4s0.3,0.4,1.3,0.6
				c1.7,0.3,4.5,0.6,4.5,3.4c0,2-1.8,3.5-4.8,3.5c-1.9,0-3.9-0.7-5-1.6L249.6,74.8z"/>
			<path d="M260.1,75.7v-3.9h-1.7v-3.3h1.7v-2.8h3.8v2.8h2.1v3.3h-2.1v2.8c0,0.5,0.3,0.9,0.8,0.9c0.3,0,0.7-0.1,0.8-0.2l0.7,2.9
				c-0.4,0.4-1.3,0.7-2.6,0.7C261.3,78.9,260.1,77.8,260.1,75.7z"/>
			<path d="M267.1,65.4c0-1.2,0.9-2.1,2.1-2.1s2.1,0.9,2.1,2.1s-0.9,2.1-2.1,2.1S267.1,66.5,267.1,65.4z M267.3,68.5h3.8v10.1h-3.8
				V68.5z"/>
			<path d="M272.5,73.6c0-2.8,2.1-5.3,5.7-5.3c3.6,0,5.7,2.5,5.7,5.3s-2.1,5.3-5.7,5.3C274.6,78.9,272.5,76.4,272.5,73.6z M280,73.6
				c0-1.1-0.7-2-1.8-2c-1.2,0-1.8,0.9-1.8,2c0,1.1,0.7,2,1.8,2C279.4,75.6,280,74.7,280,73.6z"/>
			<path d="M292.2,73.1c0-1-0.6-1.4-1.5-1.4c-0.9,0-1.3,0.4-1.6,0.8v6.3h-3.8V68.5h3.8v1.2c0.6-0.7,1.7-1.4,3.5-1.4
				c2.4,0,3.4,1.4,3.4,3.2v7.2h-3.8V73.1z"/>
			<path d="M304.9,73.1c0-1-0.6-1.4-1.5-1.4c-0.9,0-1.3,0.4-1.6,0.8v6.3H298V68.5h3.8v1.2c0.6-0.7,1.7-1.4,3.5-1.4
				c2.4,0,3.4,1.4,3.4,3.2v7.2h-3.8V73.1z"/>
			<path d="M316.7,77.7c-0.6,0.7-1.8,1.2-3.1,1.2c-1.5,0-3.5-1-3.5-3.3c0-2.5,2-3.1,3.5-3.1c1.3,0,2.5,0.4,3.1,1.1v-1.2
				c0-0.7-0.7-1.3-1.9-1.3c-0.9,0-2,0.4-2.8,1l-1.3-2.3c1.4-1.1,3.3-1.5,4.8-1.5c2.5,0,5,0.9,5,4.3v6.1h-3.8V77.7z M316.7,75.3
				c-0.3-0.4-0.9-0.5-1.5-0.5c-0.6,0-1.3,0.2-1.3,0.8s0.7,0.8,1.3,0.8c0.6,0,1.2-0.2,1.5-0.5V75.3z"/>
			<path d="M322.3,65.4c0-1.2,0.9-2.1,2.1-2.1s2.1,0.9,2.1,2.1s-0.9,2.1-2.1,2.1S322.3,66.5,322.3,65.4z M322.5,68.5h3.8v10.1h-3.8
				V68.5z"/>
			<path d="M328.4,68.5h3.8v1.2c0.6-0.7,2-1.4,3.1-1.4v3.6c-0.2-0.1-0.5-0.1-0.9-0.1c-0.8,0-1.8,0.2-2.2,0.7v6.2h-3.8V68.5z"/>
			<path d="M341.4,68.3c3,0,5.3,2.1,5.3,5.7v0.8h-6.9c0.2,0.7,0.9,1.3,2.2,1.3c0.9,0,1.8-0.3,2.3-0.7l1.6,2.3
				c-1,0.9-2.8,1.3-4.3,1.3c-3.2,0-5.6-2-5.6-5.3C335.9,70.6,338.2,68.3,341.4,68.3z M339.8,72.4h3.3c-0.1-0.4-0.5-1.2-1.7-1.2
				C340.3,71.2,339.9,71.9,339.8,72.4z"/>
		</g>
		<g>
			<g>
				<path class="st14" d="M79.8,70.5c1,1,2.6,1.8,4.5,1.8c0.8,0,1.6-0.3,1.6-0.8s-0.6-0.8-2-1.1c-2.3-0.4-5.8-1-5.8-4.5
					c0-2.4,2-4.5,5.8-4.5c2.3,0,4.3,0.7,5.9,2l-2.3,3c-1.2-0.9-2.8-1.4-3.9-1.4c-1,0-1.3,0.4-1.3,0.7c0,0.5,0.6,0.7,2.1,1
					c2.3,0.4,5.7,1.1,5.7,4.3c0,3.1-2.3,4.9-6,4.9c-3,0-5-0.9-6.5-2.2L79.8,70.5z"/>
				<path class="st14" d="M90.8,70.6c0-2.8,2.1-5.3,5.7-5.3c3.6,0,5.7,2.5,5.7,5.3s-2.1,5.3-5.7,5.3C92.9,75.9,90.8,73.4,90.8,70.6z
					 M98.3,70.6c0-1.1-0.7-2-1.8-2c-1.2,0-1.8,0.9-1.8,2c0,1.1,0.7,2,1.8,2C97.6,72.6,98.3,71.7,98.3,70.6z"/>
				<path class="st14" d="M108.6,65.3c2.3,0,3.7,1,4.3,1.9l-2.4,2.3c-0.3-0.5-0.9-0.9-1.7-0.9c-1.1,0-2,0.7-2,2s0.9,2,2,2
					c0.8,0,1.4-0.4,1.7-0.9l2.4,2.3c-0.6,0.8-2,1.9-4.3,1.9c-3.2,0-5.7-2.1-5.7-5.3C102.9,67.4,105.4,65.3,108.6,65.3z"/>
				<path class="st14" d="M113.9,62.4c0-1.2,0.9-2.1,2.1-2.1s2.1,0.9,2.1,2.1s-0.9,2.1-2.1,2.1S113.9,63.5,113.9,62.4z M114.1,65.5
					h3.8v10.1h-3.8V65.5z"/>
				<path class="st14" d="M125.9,74.7c-0.6,0.7-1.8,1.2-3.1,1.2c-1.5,0-3.5-1-3.5-3.3c0-2.5,2-3.1,3.5-3.1c1.3,0,2.5,0.4,3.1,1.1
					v-1.2c0-0.7-0.7-1.3-1.9-1.3c-0.9,0-2,0.4-2.8,1l-1.3-2.3c1.4-1.1,3.3-1.5,4.8-1.5c2.5,0,5,0.9,5,4.3v6.1h-3.8V74.7z
					 M125.9,72.3c-0.3-0.4-0.9-0.5-1.5-0.5c-0.6,0-1.3,0.2-1.3,0.8s0.7,0.8,1.3,0.8c0.6,0,1.2-0.2,1.5-0.5V72.3z"/>
				<path class="st14" d="M131.8,61.7h3.8v14h-3.8V61.7z"/>
				<path class="st14" d="M155.5,66.8l-3.1,8.8h-1.9l-3.1-8.8v8.8h-4.2v-14h5.9l2.5,7.1l2.5-7.1h5.9v14h-4.2V66.8z"/>
				<path class="st14" d="M166.7,65.3c3,0,5.3,2.1,5.3,5.7v0.8h-6.9c0.2,0.7,0.9,1.3,2.2,1.3c0.9,0,1.8-0.3,2.3-0.7l1.6,2.3
					c-1,0.9-2.8,1.3-4.3,1.3c-3.2,0-5.6-2-5.6-5.3C161.2,67.6,163.4,65.3,166.7,65.3z M165.1,69.4h3.3c-0.1-0.4-0.5-1.2-1.7-1.2
					C165.6,68.2,165.2,68.9,165.1,69.4z"/>
				<path class="st14" d="M179.9,74.6c-0.9,1-1.8,1.3-2.9,1.3c-2.5,0-4.5-1.8-4.5-5.3c0-3.4,2-5.3,4.5-5.3c1,0,2.1,0.4,2.9,1.3v-4.9
					h3.8v14h-3.8V74.6z M179.9,69.3c-0.4-0.4-1.1-0.7-1.6-0.7c-1,0-1.9,0.7-1.9,2s0.9,2,1.9,2c0.5,0,1.2-0.3,1.6-0.7V69.3z"/>
				<path class="st14" d="M185.6,62.4c0-1.2,0.9-2.1,2.1-2.1s2.1,0.9,2.1,2.1s-0.9,2.1-2.1,2.1S185.6,63.5,185.6,62.4z M185.8,65.5
					h3.8v10.1h-3.8V65.5z"/>
				<path class="st14" d="M197.5,74.7c-0.6,0.7-1.8,1.2-3.1,1.2c-1.5,0-3.5-1-3.5-3.3c0-2.5,2-3.1,3.5-3.1c1.3,0,2.5,0.4,3.1,1.1
					v-1.2c0-0.7-0.7-1.3-1.9-1.3c-0.9,0-2,0.4-2.8,1l-1.3-2.3c1.4-1.1,3.3-1.5,4.8-1.5c2.5,0,5,0.9,5,4.3v6.1h-3.8V74.7z
					 M197.5,72.3c-0.3-0.4-0.9-0.5-1.5-0.5c-0.6,0-1.3,0.2-1.3,0.8s0.7,0.8,1.3,0.8c0.6,0,1.2-0.2,1.5-0.5V72.3z"/>
				<path class="st14" d="M221.7,73.4l0.8,0.9l-2.9,2.4l-1-1.2c-0.8,0.3-1.8,0.4-2.8,0.4c-4.3,0-7.7-2.9-7.7-7.2s3.3-7.2,7.7-7.2
					c4.3,0,7.7,2.9,7.7,7.2C223.4,70.6,222.8,72.2,221.7,73.4z M215.9,72.2l-1.2-1.4l2.9-2.4l1.2,1.6c0.1-0.4,0.2-0.8,0.2-1.3
					c0-2-1.3-3.5-3.4-3.5c-2,0-3.4,1.6-3.4,3.5s1.3,3.5,3.4,3.5H215.9z"/>
				<path class="st14" d="M231.7,74.5c-0.6,0.7-1.7,1.4-3.5,1.4c-2.4,0-3.4-1.4-3.4-3.1v-7.2h3.8v5.6c0,1,0.5,1.4,1.5,1.4
					c0.8,0,1.3-0.4,1.6-0.8v-6.3h3.8v10.1h-3.8V74.5z"/>
				<path class="st14" d="M242.4,65.3c3,0,5.3,2.1,5.3,5.7v0.8h-6.9c0.2,0.7,0.9,1.3,2.2,1.3c0.9,0,1.8-0.3,2.3-0.7l1.6,2.3
					c-1,0.9-2.8,1.3-4.3,1.3c-3.2,0-5.6-2-5.6-5.3C236.9,67.6,239.1,65.3,242.4,65.3z M240.8,69.4h3.3c-0.1-0.4-0.5-1.2-1.7-1.2
					C241.3,68.2,240.9,68.9,240.8,69.4z"/>
				<path class="st14" d="M249.6,71.8c0.8,0.6,2.5,1.3,3.7,1.3c0.8,0,1-0.2,1-0.5c0-0.3-0.5-0.5-1.4-0.6c-1.7-0.2-4.3-0.5-4.3-3.3
					c0-1.8,1.6-3.5,4.5-3.5c1.7,0,3.2,0.5,4.4,1.3l-1.4,2.5c-0.6-0.5-1.8-1-3-1c-0.5,0-0.9,0.1-0.9,0.4s0.3,0.4,1.3,0.6
					c1.7,0.3,4.5,0.6,4.5,3.4c0,2-1.8,3.5-4.8,3.5c-1.9,0-3.9-0.7-5-1.6L249.6,71.8z"/>
				<path class="st14" d="M260.1,72.7v-3.9h-1.7v-3.3h1.7v-2.8h3.8v2.8h2.1v3.3h-2.1v2.8c0,0.5,0.3,0.9,0.8,0.9
					c0.3,0,0.7-0.1,0.8-0.2l0.7,2.9c-0.4,0.4-1.3,0.7-2.6,0.7C261.3,75.9,260.1,74.8,260.1,72.7z"/>
				<path class="st14" d="M267.1,62.4c0-1.2,0.9-2.1,2.1-2.1s2.1,0.9,2.1,2.1s-0.9,2.1-2.1,2.1S267.1,63.5,267.1,62.4z M267.3,65.5
					h3.8v10.1h-3.8V65.5z"/>
				<path class="st14" d="M272.5,70.6c0-2.8,2.1-5.3,5.7-5.3c3.6,0,5.7,2.5,5.7,5.3s-2.1,5.3-5.7,5.3
					C274.6,75.9,272.5,73.4,272.5,70.6z M280,70.6c0-1.1-0.7-2-1.8-2c-1.2,0-1.8,0.9-1.8,2c0,1.1,0.7,2,1.8,2
					C279.4,72.6,280,71.7,280,70.6z"/>
				<path class="st14" d="M292.2,70.1c0-1-0.6-1.4-1.5-1.4c-0.9,0-1.3,0.4-1.6,0.8v6.3h-3.8V65.5h3.8v1.2c0.6-0.7,1.7-1.4,3.5-1.4
					c2.4,0,3.4,1.4,3.4,3.2v7.2h-3.8V70.1z"/>
				<path class="st14" d="M304.9,70.1c0-1-0.6-1.4-1.5-1.4c-0.9,0-1.3,0.4-1.6,0.8v6.3H298V65.5h3.8v1.2c0.6-0.7,1.7-1.4,3.5-1.4
					c2.4,0,3.4,1.4,3.4,3.2v7.2h-3.8V70.1z"/>
				<path class="st14" d="M316.7,74.7c-0.6,0.7-1.8,1.2-3.1,1.2c-1.5,0-3.5-1-3.5-3.3c0-2.5,2-3.1,3.5-3.1c1.3,0,2.5,0.4,3.1,1.1
					v-1.2c0-0.7-0.7-1.3-1.9-1.3c-0.9,0-2,0.4-2.8,1l-1.3-2.3c1.4-1.1,3.3-1.5,4.8-1.5c2.5,0,5,0.9,5,4.3v6.1h-3.8V74.7z
					 M316.7,72.3c-0.3-0.4-0.9-0.5-1.5-0.5c-0.6,0-1.3,0.2-1.3,0.8s0.7,0.8,1.3,0.8c0.6,0,1.2-0.2,1.5-0.5V72.3z"/>
				<path class="st14" d="M322.3,62.4c0-1.2,0.9-2.1,2.1-2.1s2.1,0.9,2.1,2.1s-0.9,2.1-2.1,2.1S322.3,63.5,322.3,62.4z M322.5,65.5
					h3.8v10.1h-3.8V65.5z"/>
				<path class="st14" d="M328.4,65.5h3.8v1.2c0.6-0.7,2-1.4,3.1-1.4v3.6c-0.2-0.1-0.5-0.1-0.9-0.1c-0.8,0-1.8,0.2-2.2,0.7v6.2h-3.8
					V65.5z"/>
				<path class="st14" d="M341.4,65.3c3,0,5.3,2.1,5.3,5.7v0.8h-6.9c0.2,0.7,0.9,1.3,2.2,1.3c0.9,0,1.8-0.3,2.3-0.7l1.6,2.3
					c-1,0.9-2.8,1.3-4.3,1.3c-3.2,0-5.6-2-5.6-5.3C335.9,67.6,338.2,65.3,341.4,65.3z M339.8,69.4h3.3c-0.1-0.4-0.5-1.2-1.7-1.2
					C340.3,68.2,339.9,68.9,339.8,69.4z"/>
			</g>
		</g>
	</g>
	<rect x="45.8" y="98.7" class="st15" width="333.4" height="357.7"/>
	<g>
		<g>
			<path class="st16" d="M65.8,117.2l0.4,0.5l-1.5,1.2l-0.5-0.6c-0.4,0.2-0.9,0.2-1.4,0.2c-2.3,0-4-1.5-4-3.8s1.7-3.8,4-3.8
				c2.3,0,4,1.5,4,3.8C66.7,115.7,66.4,116.5,65.8,117.2z M62.8,116.5l-0.6-0.8l1.5-1.2l0.6,0.8c0.1-0.2,0.1-0.4,0.1-0.7
				c0-1-0.7-1.8-1.8-1.8c-1.1,0-1.8,0.8-1.8,1.8C61,115.7,61.6,116.5,62.8,116.5L62.8,116.5z"/>
			<path class="st16" d="M71.1,117.7c-0.3,0.3-0.9,0.7-1.8,0.7c-1.2,0-1.8-0.7-1.8-1.6V113h2v2.9c0,0.5,0.3,0.7,0.8,0.7
				c0.4,0,0.7-0.2,0.8-0.4V113h2v5.3h-2V117.7z"/>
			<path class="st16" d="M76.7,112.9c1.6,0,2.8,1.1,2.8,3v0.4h-3.6c0.1,0.3,0.5,0.7,1.2,0.7c0.5,0,0.9-0.2,1.2-0.4l0.8,1.2
				c-0.5,0.5-1.5,0.7-2.3,0.7c-1.7,0-3-1-3-2.8C73.8,114.1,75,112.9,76.7,112.9z M75.8,115h1.7c-0.1-0.2-0.2-0.6-0.9-0.6
				C76.1,114.4,75.9,114.8,75.8,115z"/>
			<path class="st16" d="M80.5,116.3c0.4,0.3,1.3,0.7,1.9,0.7c0.4,0,0.5-0.1,0.5-0.3c0-0.2-0.2-0.2-0.7-0.3
				c-0.9-0.1-2.3-0.3-2.3-1.7c0-1,0.8-1.8,2.4-1.8c0.9,0,1.7,0.3,2.3,0.7l-0.7,1.3c-0.3-0.3-0.9-0.5-1.6-0.5c-0.3,0-0.5,0.1-0.5,0.2
				c0,0.2,0.2,0.2,0.7,0.3c0.9,0.1,2.3,0.3,2.3,1.8c0,1.1-0.9,1.8-2.5,1.8c-1,0-2-0.3-2.6-0.8L80.5,116.3z"/>
			<path class="st16" d="M85.9,116.8v-2.1H85V113h0.9v-1.5h2v1.5H89v1.7h-1.1v1.5c0,0.3,0.2,0.5,0.4,0.5c0.2,0,0.4-0.1,0.4-0.1
				l0.4,1.5c-0.2,0.2-0.7,0.4-1.3,0.4C86.6,118.5,85.9,117.9,85.9,116.8z"/>
			<path class="st16" d="M89.6,111.4c0-0.6,0.5-1.1,1.1-1.1c0.6,0,1.1,0.5,1.1,1.1s-0.5,1.1-1.1,1.1C90.1,112.5,89.6,112,89.6,111.4
				z M89.7,113h2v5.3h-2V113z"/>
			<path class="st16" d="M92.4,115.7c0-1.5,1.1-2.8,3-2.8c1.9,0,3,1.3,3,2.8c0,1.5-1.1,2.8-3,2.8C93.5,118.5,92.4,117.2,92.4,115.7z
				 M96.4,115.7c0-0.6-0.3-1-1-1c-0.6,0-0.9,0.5-0.9,1c0,0.6,0.3,1,0.9,1C96,116.7,96.4,116.3,96.4,115.7z"/>
			<path class="st16" d="M102.7,115.4c0-0.5-0.3-0.8-0.8-0.8c-0.5,0-0.7,0.2-0.8,0.4v3.3h-2V113h2v0.6c0.3-0.4,0.9-0.7,1.8-0.7
				c1.2,0,1.8,0.7,1.8,1.7v3.8h-2V115.4z"/>
		</g>
		<path class="st0" d="M356.8,149H69.5c-6.1,0-11-4.9-11-11v0c0-6.1,4.9-11,11-11h287.3c6.1,0,11,4.9,11,11v0
			C367.8,144.1,362.9,149,356.8,149z"/>
		<g>
			<path class="st16" d="M74.1,139.9h-3.4l-0.6,1.5h-0.9l2.7-6.7h1l2.7,6.7h-0.9L74.1,139.9z M71,139.1h2.9l-1.4-3.7L71,139.1z"/>
			<path class="st16" d="M79.8,138.2c0-0.8-0.4-1.1-1.1-1.1c-0.6,0-1.1,0.4-1.4,0.8v3.5h-0.7v-4.8h0.7v0.7c0.3-0.4,1-0.8,1.7-0.8
				c1,0,1.5,0.5,1.5,1.6v3.4h-0.7V138.2z"/>
			<path class="st16" d="M82,140.2c0.3,0.4,0.9,0.7,1.6,0.7c0.7,0,1.1-0.3,1.1-0.8c0-0.5-0.6-0.7-1.2-0.9c-0.8-0.2-1.7-0.4-1.7-1.4
				c0-0.7,0.6-1.4,1.8-1.4c0.8,0,1.4,0.3,1.8,0.7l-0.4,0.5c-0.3-0.3-0.8-0.6-1.4-0.6c-0.7,0-1.1,0.3-1.1,0.7c0,0.5,0.5,0.6,1.2,0.8
				c0.8,0.2,1.8,0.4,1.8,1.5c0,0.8-0.6,1.5-1.9,1.5c-0.8,0-1.5-0.2-1.9-0.8L82,140.2z"/>
			<path class="st16" d="M89.6,137.5l-1.3,3.9h-0.7l-1.5-4.8h0.8l1.2,3.8l1.3-3.8h0.6l1.3,3.8l1.2-3.8h0.8l-1.5,4.8h-0.7L89.6,137.5
				z"/>
			<path class="st16" d="M96.1,136.4c1.5,0,2.3,1.1,2.3,2.6v0.2h-3.9c0.1,0.9,0.7,1.7,1.7,1.7c0.5,0,1.1-0.2,1.5-0.6l0.4,0.5
				c-0.5,0.5-1.1,0.7-1.9,0.7c-1.4,0-2.5-1-2.5-2.5C93.7,137.5,94.7,136.4,96.1,136.4z M94.5,138.6h3.2c0-0.7-0.5-1.6-1.6-1.6
				C95.1,137,94.5,137.9,94.5,138.6z"/>
			<path class="st16" d="M99.6,136.5h0.7v0.8c0.4-0.5,0.9-0.9,1.6-0.9v0.8c-0.1,0-0.2,0-0.3,0c-0.5,0-1.1,0.4-1.3,0.8v3.4h-0.7
				V136.5z"/>
		</g>
	</g>
	<g>
		<g>
			<path class="st16" d="M65.8,172l0.4,0.5l-1.5,1.2l-0.5-0.6c-0.4,0.2-0.9,0.2-1.4,0.2c-2.3,0-4-1.5-4-3.8s1.7-3.8,4-3.8
				c2.3,0,4,1.5,4,3.8C66.7,170.5,66.4,171.4,65.8,172z M62.8,171.4l-0.6-0.8l1.5-1.2l0.6,0.8c0.1-0.2,0.1-0.4,0.1-0.7
				c0-1-0.7-1.8-1.8-1.8c-1.1,0-1.8,0.8-1.8,1.8C61,170.6,61.6,171.4,62.8,171.4L62.8,171.4z"/>
			<path class="st16" d="M71.1,172.6c-0.3,0.3-0.9,0.7-1.8,0.7c-1.2,0-1.8-0.7-1.8-1.6v-3.8h2v2.9c0,0.5,0.3,0.7,0.8,0.7
				c0.4,0,0.7-0.2,0.8-0.4v-3.3h2v5.3h-2V172.6z"/>
			<path class="st16" d="M76.7,167.8c1.6,0,2.8,1.1,2.8,3v0.4h-3.6c0.1,0.3,0.5,0.7,1.2,0.7c0.5,0,0.9-0.2,1.2-0.4l0.8,1.2
				c-0.5,0.5-1.5,0.7-2.3,0.7c-1.7,0-3-1-3-2.8C73.8,169,75,167.8,76.7,167.8z M75.8,169.9h1.7c-0.1-0.2-0.2-0.6-0.9-0.6
				C76.1,169.3,75.9,169.7,75.8,169.9z"/>
			<path class="st16" d="M80.5,171.2c0.4,0.3,1.3,0.7,1.9,0.7c0.4,0,0.5-0.1,0.5-0.3c0-0.2-0.2-0.2-0.7-0.3
				c-0.9-0.1-2.3-0.3-2.3-1.7c0-1,0.8-1.8,2.4-1.8c0.9,0,1.7,0.3,2.3,0.7l-0.7,1.3c-0.3-0.3-0.9-0.5-1.6-0.5c-0.3,0-0.5,0.1-0.5,0.2
				c0,0.2,0.2,0.2,0.7,0.3c0.9,0.1,2.3,0.3,2.3,1.8c0,1.1-0.9,1.8-2.5,1.8c-1,0-2-0.3-2.6-0.8L80.5,171.2z"/>
			<path class="st16" d="M85.9,171.7v-2.1H85v-1.7h0.9v-1.5h2v1.5H89v1.7h-1.1v1.5c0,0.3,0.2,0.5,0.4,0.5c0.2,0,0.4-0.1,0.4-0.1
				l0.4,1.5c-0.2,0.2-0.7,0.4-1.3,0.4C86.6,173.3,85.9,172.8,85.9,171.7z"/>
			<path class="st16" d="M89.6,166.2c0-0.6,0.5-1.1,1.1-1.1c0.6,0,1.1,0.5,1.1,1.1s-0.5,1.1-1.1,1.1
				C90.1,167.4,89.6,166.9,89.6,166.2z M89.7,167.9h2v5.3h-2V167.9z"/>
			<path class="st16" d="M92.4,170.6c0-1.5,1.1-2.8,3-2.8c1.9,0,3,1.3,3,2.8c0,1.5-1.1,2.8-3,2.8C93.5,173.3,92.4,172,92.4,170.6z
				 M96.4,170.6c0-0.6-0.3-1-1-1c-0.6,0-0.9,0.5-0.9,1c0,0.6,0.3,1,0.9,1C96,171.6,96.4,171.1,96.4,170.6z"/>
			<path class="st16" d="M102.7,170.3c0-0.5-0.3-0.8-0.8-0.8c-0.5,0-0.7,0.2-0.8,0.4v3.3h-2v-5.3h2v0.6c0.3-0.4,0.9-0.7,1.8-0.7
				c1.2,0,1.8,0.7,1.8,1.7v3.8h-2V170.3z"/>
		</g>
		<path class="st0" d="M356.8,203.9H69.5c-6.1,0-11-4.9-11-11v0c0-6.1,4.9-11,11-11h287.3c6.1,0,11,4.9,11,11v0
			C367.8,199,362.9,203.9,356.8,203.9z"/>
		<g>
			<path class="st16" d="M74.1,194.7h-3.4l-0.6,1.5h-0.9l2.7-6.7h1l2.7,6.7h-0.9L74.1,194.7z M71,194h2.9l-1.4-3.7L71,194z"/>
			<path class="st16" d="M79.8,193.1c0-0.8-0.4-1.1-1.1-1.1c-0.6,0-1.1,0.4-1.4,0.8v3.5h-0.7v-4.8h0.7v0.7c0.3-0.4,1-0.8,1.7-0.8
				c1,0,1.5,0.5,1.5,1.6v3.4h-0.7V193.1z"/>
			<path class="st16" d="M82,195c0.3,0.4,0.9,0.7,1.6,0.7c0.7,0,1.1-0.3,1.1-0.8c0-0.5-0.6-0.7-1.2-0.9c-0.8-0.2-1.7-0.4-1.7-1.4
				c0-0.7,0.6-1.4,1.8-1.4c0.8,0,1.4,0.3,1.8,0.7l-0.4,0.5c-0.3-0.3-0.8-0.6-1.4-0.6c-0.7,0-1.1,0.3-1.1,0.7c0,0.5,0.5,0.6,1.2,0.8
				c0.8,0.2,1.8,0.4,1.8,1.5c0,0.8-0.6,1.5-1.9,1.5c-0.8,0-1.5-0.2-1.9-0.8L82,195z"/>
			<path class="st16" d="M89.6,192.3l-1.3,3.9h-0.7l-1.5-4.8h0.8l1.2,3.8l1.3-3.8h0.6l1.3,3.8l1.2-3.8h0.8l-1.5,4.8h-0.7L89.6,192.3
				z"/>
			<path class="st16" d="M96.1,191.3c1.5,0,2.3,1.1,2.3,2.6v0.2h-3.9c0.1,0.9,0.7,1.7,1.7,1.7c0.5,0,1.1-0.2,1.5-0.6l0.4,0.5
				c-0.5,0.5-1.1,0.7-1.9,0.7c-1.4,0-2.5-1-2.5-2.5C93.7,192.4,94.7,191.3,96.1,191.3z M94.5,193.5h3.2c0-0.7-0.5-1.6-1.6-1.6
				C95.1,191.9,94.5,192.8,94.5,193.5z"/>
			<path class="st16" d="M99.6,191.4h0.7v0.8c0.4-0.5,0.9-0.9,1.6-0.9v0.8c-0.1,0-0.2,0-0.3,0c-0.5,0-1.1,0.4-1.3,0.8v3.4h-0.7
				V191.4z"/>
		</g>
	</g>
	<g>
		<g>
			<path class="st16" d="M65.8,231l0.4,0.5l-1.5,1.2l-0.5-0.6c-0.4,0.2-0.9,0.2-1.4,0.2c-2.3,0-4-1.5-4-3.8s1.7-3.8,4-3.8
				c2.3,0,4,1.5,4,3.8C66.7,229.5,66.4,230.4,65.8,231z M62.8,230.4l-0.6-0.8l1.5-1.2l0.6,0.8c0.1-0.2,0.1-0.4,0.1-0.7
				c0-1-0.7-1.8-1.8-1.8c-1.1,0-1.8,0.8-1.8,1.8C61,229.6,61.6,230.4,62.8,230.4L62.8,230.4z"/>
			<path class="st16" d="M71.1,231.6c-0.3,0.3-0.9,0.7-1.8,0.7c-1.2,0-1.8-0.7-1.8-1.6v-3.8h2v2.9c0,0.5,0.3,0.7,0.8,0.7
				c0.4,0,0.7-0.2,0.8-0.4v-3.3h2v5.3h-2V231.6z"/>
			<path class="st16" d="M76.7,226.8c1.6,0,2.8,1.1,2.8,3v0.4h-3.6c0.1,0.3,0.5,0.7,1.2,0.7c0.5,0,0.9-0.2,1.2-0.4l0.8,1.2
				c-0.5,0.5-1.5,0.7-2.3,0.7c-1.7,0-3-1-3-2.8C73.8,228,75,226.8,76.7,226.8z M75.8,228.9h1.7c-0.1-0.2-0.2-0.6-0.9-0.6
				C76.1,228.3,75.9,228.7,75.8,228.9z"/>
			<path class="st16" d="M80.5,230.2c0.4,0.3,1.3,0.7,1.9,0.7c0.4,0,0.5-0.1,0.5-0.3c0-0.2-0.2-0.2-0.7-0.3
				c-0.9-0.1-2.3-0.3-2.3-1.7c0-1,0.8-1.8,2.4-1.8c0.9,0,1.7,0.3,2.3,0.7l-0.7,1.3c-0.3-0.3-0.9-0.5-1.6-0.5c-0.3,0-0.5,0.1-0.5,0.2
				c0,0.2,0.2,0.2,0.7,0.3c0.9,0.1,2.3,0.3,2.3,1.8c0,1.1-0.9,1.8-2.5,1.8c-1,0-2-0.3-2.6-0.8L80.5,230.2z"/>
			<path class="st16" d="M85.9,230.7v-2.1H85v-1.7h0.9v-1.5h2v1.5H89v1.7h-1.1v1.5c0,0.3,0.2,0.5,0.4,0.5c0.2,0,0.4-0.1,0.4-0.1
				l0.4,1.5c-0.2,0.2-0.7,0.4-1.3,0.4C86.6,232.3,85.9,231.8,85.9,230.7z"/>
			<path class="st16" d="M89.6,225.2c0-0.6,0.5-1.1,1.1-1.1c0.6,0,1.1,0.5,1.1,1.1s-0.5,1.1-1.1,1.1
				C90.1,226.4,89.6,225.9,89.6,225.2z M89.7,226.9h2v5.3h-2V226.9z"/>
			<path class="st16" d="M92.4,229.6c0-1.5,1.1-2.8,3-2.8c1.9,0,3,1.3,3,2.8c0,1.5-1.1,2.8-3,2.8C93.5,232.3,92.4,231,92.4,229.6z
				 M96.4,229.6c0-0.6-0.3-1-1-1c-0.6,0-0.9,0.5-0.9,1c0,0.6,0.3,1,0.9,1C96,230.6,96.4,230.1,96.4,229.6z"/>
			<path class="st16" d="M102.7,229.3c0-0.5-0.3-0.8-0.8-0.8c-0.5,0-0.7,0.2-0.8,0.4v3.3h-2v-5.3h2v0.6c0.3-0.4,0.9-0.7,1.8-0.7
				c1.2,0,1.8,0.7,1.8,1.7v3.8h-2V229.3z"/>
		</g>
		<path class="st0" d="M356.8,262.9H69.5c-6.1,0-11-4.9-11-11v0c0-6.1,4.9-11,11-11h287.3c6.1,0,11,4.9,11,11v0
			C367.8,258,362.9,262.9,356.8,262.9z"/>
		<g>
			<path class="st16" d="M74.1,253.7h-3.4l-0.6,1.5h-0.9l2.7-6.7h1l2.7,6.7h-0.9L74.1,253.7z M71,253h2.9l-1.4-3.7L71,253z"/>
			<path class="st16" d="M79.8,252.1c0-0.8-0.4-1.1-1.1-1.1c-0.6,0-1.1,0.4-1.4,0.8v3.5h-0.7v-4.8h0.7v0.7c0.3-0.4,1-0.8,1.7-0.8
				c1,0,1.5,0.5,1.5,1.6v3.4h-0.7V252.1z"/>
			<path class="st16" d="M82,254c0.3,0.4,0.9,0.7,1.6,0.7c0.7,0,1.1-0.3,1.1-0.8c0-0.5-0.6-0.7-1.2-0.9c-0.8-0.2-1.7-0.4-1.7-1.4
				c0-0.7,0.6-1.4,1.8-1.4c0.8,0,1.4,0.3,1.8,0.7l-0.4,0.5c-0.3-0.3-0.8-0.6-1.4-0.6c-0.7,0-1.1,0.3-1.1,0.7c0,0.5,0.5,0.6,1.2,0.8
				c0.8,0.2,1.8,0.4,1.8,1.5c0,0.8-0.6,1.5-1.9,1.5c-0.8,0-1.5-0.2-1.9-0.8L82,254z"/>
			<path class="st16" d="M89.6,251.3l-1.3,3.9h-0.7l-1.5-4.8h0.8l1.2,3.8l1.3-3.8h0.6l1.3,3.8l1.2-3.8h0.8l-1.5,4.8h-0.7L89.6,251.3
				z"/>
			<path class="st16" d="M96.1,250.3c1.5,0,2.3,1.1,2.3,2.6v0.2h-3.9c0.1,0.9,0.7,1.7,1.7,1.7c0.5,0,1.1-0.2,1.5-0.6l0.4,0.5
				c-0.5,0.5-1.1,0.7-1.9,0.7c-1.4,0-2.5-1-2.5-2.5C93.7,251.4,94.7,250.3,96.1,250.3z M94.5,252.5h3.2c0-0.7-0.5-1.6-1.6-1.6
				C95.1,250.9,94.5,251.8,94.5,252.5z"/>
			<path class="st16" d="M99.6,250.4h0.7v0.8c0.4-0.5,0.9-0.9,1.6-0.9v0.8c-0.1,0-0.2,0-0.3,0c-0.5,0-1.1,0.4-1.3,0.8v3.4h-0.7
				V250.4z"/>
		</g>
	</g>
	<g>
		<g>
			<path class="st16" d="M65.8,295l0.4,0.5l-1.5,1.2l-0.5-0.6c-0.4,0.2-0.9,0.2-1.4,0.2c-2.3,0-4-1.5-4-3.8s1.7-3.8,4-3.8
				c2.3,0,4,1.5,4,3.8C66.7,293.5,66.4,294.4,65.8,295z M62.8,294.3l-0.6-0.8l1.5-1.2l0.6,0.8c0.1-0.2,0.1-0.4,0.1-0.7
				c0-1-0.7-1.8-1.8-1.8c-1.1,0-1.8,0.8-1.8,1.8C61,293.5,61.6,294.3,62.8,294.3L62.8,294.3z"/>
			<path class="st16" d="M71.1,295.6c-0.3,0.3-0.9,0.7-1.8,0.7c-1.2,0-1.8-0.7-1.8-1.6v-3.8h2v2.9c0,0.5,0.3,0.7,0.8,0.7
				c0.4,0,0.7-0.2,0.8-0.4v-3.3h2v5.3h-2V295.6z"/>
			<path class="st16" d="M76.7,290.7c1.6,0,2.8,1.1,2.8,3v0.4h-3.6c0.1,0.3,0.5,0.7,1.2,0.7c0.5,0,0.9-0.2,1.2-0.4l0.8,1.2
				c-0.5,0.5-1.5,0.7-2.3,0.7c-1.7,0-3-1-3-2.8C73.8,292,75,290.7,76.7,290.7z M75.8,292.9h1.7c-0.1-0.2-0.2-0.6-0.9-0.6
				C76.1,292.2,75.9,292.6,75.8,292.9z"/>
			<path class="st16" d="M80.5,294.2c0.4,0.3,1.3,0.7,1.9,0.7c0.4,0,0.5-0.1,0.5-0.3c0-0.2-0.2-0.2-0.7-0.3
				c-0.9-0.1-2.3-0.3-2.3-1.7c0-1,0.8-1.8,2.4-1.8c0.9,0,1.7,0.3,2.3,0.7l-0.7,1.3c-0.3-0.3-0.9-0.5-1.6-0.5c-0.3,0-0.5,0.1-0.5,0.2
				c0,0.2,0.2,0.2,0.7,0.3c0.9,0.1,2.3,0.3,2.3,1.8c0,1.1-0.9,1.8-2.5,1.8c-1,0-2-0.3-2.6-0.8L80.5,294.2z"/>
			<path class="st16" d="M85.9,294.6v-2.1H85v-1.7h0.9v-1.5h2v1.5H89v1.7h-1.1v1.5c0,0.3,0.2,0.5,0.4,0.5c0.2,0,0.4-0.1,0.4-0.1
				l0.4,1.5c-0.2,0.2-0.7,0.4-1.3,0.4C86.6,296.3,85.9,295.7,85.9,294.6z"/>
			<path class="st16" d="M89.6,289.2c0-0.6,0.5-1.1,1.1-1.1c0.6,0,1.1,0.5,1.1,1.1s-0.5,1.1-1.1,1.1
				C90.1,290.3,89.6,289.8,89.6,289.2z M89.7,290.9h2v5.3h-2V290.9z"/>
			<path class="st16" d="M92.4,293.5c0-1.5,1.1-2.8,3-2.8c1.9,0,3,1.3,3,2.8c0,1.5-1.1,2.8-3,2.8C93.5,296.3,92.4,295,92.4,293.5z
				 M96.4,293.5c0-0.6-0.3-1-1-1c-0.6,0-0.9,0.5-0.9,1c0,0.6,0.3,1,0.9,1C96,294.6,96.4,294.1,96.4,293.5z"/>
			<path class="st16" d="M102.7,293.2c0-0.5-0.3-0.8-0.8-0.8c-0.5,0-0.7,0.2-0.8,0.4v3.3h-2v-5.3h2v0.6c0.3-0.4,0.9-0.7,1.8-0.7
				c1.2,0,1.8,0.7,1.8,1.7v3.8h-2V293.2z"/>
		</g>
		<path class="st0" d="M356.8,389.7H69.5c-6.1,0-11-4.9-11-11v-62.8c0-6.1,4.9-11,11-11h287.3c6.1,0,11,4.9,11,11v62.8
			C367.8,384.7,362.9,389.7,356.8,389.7z"/>
		<g>
			<path class="st16" d="M74.1,317.7h-3.4l-0.6,1.5h-0.9l2.7-6.7h1l2.7,6.7h-0.9L74.1,317.7z M71,317h2.9l-1.4-3.7L71,317z"/>
			<path class="st16" d="M79.8,316c0-0.8-0.4-1.1-1.1-1.1c-0.6,0-1.1,0.4-1.4,0.8v3.5h-0.7v-4.8h0.7v0.7c0.3-0.4,1-0.8,1.7-0.8
				c1,0,1.5,0.5,1.5,1.6v3.4h-0.7V316z"/>
			<path class="st16" d="M82,318c0.3,0.4,0.9,0.7,1.6,0.7c0.7,0,1.1-0.3,1.1-0.8c0-0.5-0.6-0.7-1.2-0.9c-0.8-0.2-1.7-0.4-1.7-1.4
				c0-0.7,0.6-1.4,1.8-1.4c0.8,0,1.4,0.3,1.8,0.7l-0.4,0.5c-0.3-0.3-0.8-0.6-1.4-0.6c-0.7,0-1.1,0.3-1.1,0.7c0,0.5,0.5,0.6,1.2,0.8
				c0.8,0.2,1.8,0.4,1.8,1.5c0,0.8-0.6,1.5-1.9,1.5c-0.8,0-1.5-0.2-1.9-0.8L82,318z"/>
			<path class="st16" d="M89.6,315.3l-1.3,3.9h-0.7l-1.5-4.8h0.8l1.2,3.8l1.3-3.8h0.6l1.3,3.8l1.2-3.8h0.8l-1.5,4.8h-0.7L89.6,315.3
				z"/>
			<path class="st16" d="M96.1,314.2c1.5,0,2.3,1.1,2.3,2.6v0.2h-3.9c0.1,0.9,0.7,1.7,1.7,1.7c0.5,0,1.1-0.2,1.5-0.6l0.4,0.5
				c-0.5,0.5-1.1,0.7-1.9,0.7c-1.4,0-2.5-1-2.5-2.5C93.7,315.4,94.7,314.2,96.1,314.2z M94.5,316.5h3.2c0-0.7-0.5-1.6-1.6-1.6
				C95.1,314.8,94.5,315.7,94.5,316.5z"/>
			<path class="st16" d="M99.6,314.3h0.7v0.8c0.4-0.5,0.9-0.9,1.6-0.9v0.8c-0.1,0-0.2,0-0.3,0c-0.5,0-1.1,0.4-1.3,0.8v3.4h-0.7
				V314.3z"/>
		</g>
	</g>
	<path class="st17" d="M251.8,435.9h-84c-6.1,0-11-4.9-11-11l0,0c0-6.1,4.9-11,11-11h84c6.1,0,11,4.9,11,11l0,0
		C262.8,431,257.9,435.9,251.8,435.9z"/>
	<g>
		<path class="st7" d="M187.3,425.9c0.7,0.7,1.8,1.2,3,1.2c0.5,0,1-0.2,1-0.5s-0.4-0.5-1.3-0.7c-1.5-0.3-3.9-0.6-3.9-3
			c0-1.6,1.3-3,3.9-3c1.5,0,2.9,0.4,4,1.3l-1.5,2c-0.8-0.6-1.9-0.9-2.6-0.9c-0.7,0-0.9,0.3-0.9,0.5c0,0.4,0.4,0.5,1.4,0.7
			c1.5,0.3,3.8,0.7,3.8,2.9c0,2.1-1.5,3.3-4,3.3c-2,0-3.3-0.6-4.3-1.5L187.3,425.9z"/>
		<path class="st7" d="M199.7,428.6c-0.4,0.4-1.1,0.9-2.3,0.9c-1.6,0-2.2-0.9-2.2-2.1v-4.8h2.5v3.8c0,0.7,0.4,1,1,1
			c0.6,0,0.9-0.3,1.1-0.5v-4.2h2.5v6.8h-2.5V428.6z"/>
		<path class="st7" d="M203.6,420h2.5v3.3c0.5-0.6,1.2-0.9,1.9-0.9c1.7,0,3,1.3,3,3.5c0,2.3-1.3,3.6-3,3.6c-0.7,0-1.3-0.2-1.9-0.9
			v0.7h-2.5V420z M207.2,427.3c0.7,0,1.3-0.5,1.3-1.3c0-0.8-0.6-1.3-1.3-1.3c-0.3,0-0.8,0.2-1.1,0.5v1.7
			C206.4,427.1,206.8,427.3,207.2,427.3z"/>
		<path class="st7" d="M220.6,425.4c0-0.4-0.2-0.8-0.8-0.8c-0.6,0-0.9,0.3-1,0.5v4.2h-2.5v-4c0-0.4-0.2-0.8-0.8-0.8
			c-0.5,0-0.9,0.3-1,0.5v4.2h-2.5v-6.8h2.5v0.8c0.3-0.4,1.1-0.9,2.2-0.9c1,0,1.6,0.3,1.9,1.2c0.4-0.6,1.3-1.2,2.4-1.2
			c1.2,0,2.1,0.6,2.1,2v4.9h-2.5V425.4z"/>
		<path class="st7" d="M224.3,420.5c0-0.8,0.6-1.4,1.4-1.4s1.4,0.6,1.4,1.4s-0.6,1.4-1.4,1.4S224.3,421.2,224.3,420.5z M224.5,422.6
			h2.5v6.8h-2.5V422.6z"/>
		<path class="st7" d="M228.9,427.4v-2.6h-1.1v-2.2h1.1v-1.8h2.5v1.8h1.4v2.2h-1.4v1.9c0,0.4,0.2,0.6,0.6,0.6c0.2,0,0.4-0.1,0.5-0.1
			l0.4,1.9c-0.3,0.2-0.9,0.4-1.7,0.4C229.8,429.5,228.9,428.8,228.9,427.4z"/>
	</g>
</g>
</svg>
