<?xml version="1.0" encoding="utf-8"?>
<!-- Generator: Adobe Illustrator 19.1.0, SVG Export Plug-In . SVG Version: 6.00 Build 0)  -->
<svg version="1.1" xmlns="http://www.w3.org/2000/svg" xmlns:xlink="http://www.w3.org/1999/xlink" x="0px" y="0px"
	 viewBox="0 0 417.9 501.7" style="enable-background:new 0 0 417.9 501.7;" xml:space="preserve">
<style type="text/css">
	.st0{fill:#E5E5E5;}
	.st1{fill:#CCCCCC;}
	.st2{fill:#353535;}
	.st3{opacity:0.41;}
	.st4{fill:#C4C4C3;stroke:#C4C4C3;stroke-width:3.7126;stroke-miterlimit:10;}
	.st5{fill:#3195AB;stroke:#3195AB;stroke-width:3.7126;stroke-miterlimit:10;}
	.st6{filter:url(#Adobe_OpacityMaskFilter);}
	.st7{opacity:0.14;mask:url(#SVGID_1_);}
	.st8{opacity:0.51;}
	.st9{fill:#C4C4C3;}
	.st10{fill:#3195AB;}
	.st11{fill:#BE3A4C;}
	.st12{opacity:0.63;}
	.st13{fill:#2D2D2D;}
	.st14{fill:#FFFFFF;}
	.st15{fill:none;stroke:#353535;stroke-width:6.4487;stroke-miterlimit:10;}
	.st16{fill:none;stroke:#353535;stroke-width:6.3335;stroke-miterlimit:10;}
	.st17{fill:none;stroke:#353535;stroke-width:6.3309;stroke-miterlimit:10;}
	.st18{fill:#439945;}
</style>
<g id="Layer_1">
	<path class="st0" d="M399.4,487c4,0,7.3,3.3,7.3,7.3v0c0,4-3.3,7.3-7.3,7.3"/>
	<ellipse class="st1" cx="243.4" cy="494.8" rx="142.8" ry="5.9"/>
	<g>
		<path class="st2" d="M343.5,251c-15.3-4.1-74.6-21-118.8,28.3c-57.3,64-120.4,5.5-123.7-4.3c-5.1-15.1,55.6,9.7,123.7-4.3
			C316.6,251.9,432.4,274.7,343.5,251z"/>
		<g>
			<g class="st3">
				<rect x="115.2" y="206.6" class="st4" width="6.1" height="78.9"/>
				<rect x="196.6" y="206.6" class="st4" width="6.6" height="78.9"/>
				<line class="st4" x1="118.4" y1="224.4" x2="197.3" y2="224.4"/>
				<line class="st4" x1="119.3" y1="275.8" x2="198.2" y2="275.8"/>
				<line class="st4" x1="130.6" y1="276.2" x2="130.6" y2="207.1"/>
				<line class="st4" x1="187.1" y1="275.8" x2="187.1" y2="206.6"/>
				<line class="st4" x1="140" y1="275.3" x2="140" y2="209.8"/>
				<line class="st4" x1="178.2" y1="275.5" x2="178.2" y2="210"/>
				<line class="st4" x1="149.4" y1="275.9" x2="149.4" y2="213.4"/>
				<line class="st4" x1="168.5" y1="276.8" x2="168.5" y2="213.6"/>
				<line class="st4" x1="158.8" y1="275.4" x2="158.8" y2="216"/>
			</g>
			<g>
				<g>
					<rect x="116.7" y="200.5" class="st5" width="6.1" height="78.9"/>
					<rect x="198.2" y="200.5" class="st5" width="6.6" height="78.9"/>
					<line class="st5" x1="119.9" y1="218.3" x2="198.8" y2="218.3"/>
					<line class="st5" x1="120.9" y1="269.7" x2="199.7" y2="269.7"/>
					<line class="st5" x1="132.1" y1="270.1" x2="132.1" y2="201"/>
					<line class="st5" x1="188.6" y1="269.7" x2="188.6" y2="200.5"/>
					<line class="st5" x1="141.5" y1="269.2" x2="141.5" y2="203.6"/>
					<line class="st5" x1="179.7" y1="269.4" x2="179.7" y2="203.8"/>
					<line class="st5" x1="150.9" y1="269.8" x2="150.9" y2="207.3"/>
					<line class="st5" x1="170" y1="270.7" x2="170" y2="207.5"/>
					<line class="st5" x1="160.3" y1="269.3" x2="160.3" y2="209.9"/>
				</g>
			</g>
		</g>
		<g>
			
				<image style="overflow:visible;opacity:0.41;" width="723" height="266" xlink:href="7749A9E2.png"  transform="matrix(0.24 0 0 0.24 217.0004 191.4038)">
			</image>
			<g>
				<g>
					<path class="st2" d="M219.9,202.9c6-2.4,12.1-4.5,18.2-6.3c0,1.9,0,3.8,0.1,5.7c-3.3,1-6.5,2.1-9.8,3.3c0.1,1,0.2,2.1,0.2,3.1
						c3.1-1.1,6.2-2.2,9.3-3.2c0.1,1.9,0.1,3.8,0.2,5.7c-3.1,1-6.1,2.1-9.1,3.2c0.3,3,0.6,6,0.9,9c-2.4,1-4.9,2-7.3,3
						C221.5,218.6,220.6,210.8,219.9,202.9z"/>
					<path class="st2" d="M250.2,199.2c5.3-1.3,9.2,0.5,10.1,4.6c0.3,1.3,0.2,2.9,0.1,3.7c-4,0.9-7.9,1.8-11.9,2.9
						c0,0.1,0,0.2,0.1,0.3c0.1,0.4,1.4,1.7,4.2,1c1.4-0.4,2.7-1.1,3.5-1.8c1,1,2,2,2.9,3c-1.6,1.5-4,2.8-6.2,3.4
						c-5.5,1.4-9.8,0.1-11.1-4.2C240.3,207.4,243.2,201,250.2,199.2z M253.8,204.7c-0.2-0.8-1.2-1.5-3-1.1c-1.9,0.5-2.6,2.1-2.6,3
						c1.9-0.5,3.7-1,5.6-1.4C253.9,205,253.9,204.9,253.8,204.7z"/>
					<path class="st2" d="M276.1,201.4c0-0.2,0.1-0.7,0-0.9c-0.1-0.8-1-1.1-1.9-0.9c-1.4,0.2-2.2,1.1-2.8,1.9
						c-0.4,3.5-0.7,7.1-1,10.6c-2.3,0.4-4.6,0.8-6.8,1.3c0.3-5.7,0.8-11.3,1.3-17c2.4-0.5,4.9-0.9,7.3-1.2c-0.1,0.7-0.2,1.3-0.3,2
						c1.2-1.3,3-2.8,5.8-3.1c3.6-0.5,5.8,0.9,6,3c0,0.2,0,0.9-0.1,1.1c-0.7,4.1-1.3,8.2-1.9,12.3c-2.3,0.3-4.6,0.6-6.8,0.9
						C275.2,208,275.6,204.7,276.1,201.4z"/>
					<path class="st2" d="M297.7,192.4c3.7-0.1,6.5,1,7.8,2.4c-1.5,1.2-2.9,2.5-4.3,3.8c-0.6-0.7-1.7-1.2-3-1.1
						c-2.6,0.1-4.4,2.3-4.2,4.7c0.1,1.7,1.6,2.5,3.5,2.4c1.1,0,2.1-0.5,2.8-1.2c0.8,1.4,1.7,2.7,2.5,4.1c-1.2,1-3.4,2-6.3,2.2
						c-5.5,0.3-9.3-2.2-9.7-6.4C286.2,197.8,290.7,192.7,297.7,192.4z"/>
					<path class="st2" d="M318.1,192.5c5.4,0.3,8.6,3.2,8.2,7.3c-0.1,1.3-0.7,2.9-1,3.5c-4-0.3-8.1-0.6-12.1-0.7c0,0.1,0,0.2,0,0.3
						c0,0.4,0.8,2,3.7,2.2c1.4,0.1,2.9-0.2,3.9-0.7c0.6,1.2,1.3,2.5,1.9,3.7c-1.9,1-4.6,1.5-6.9,1.4c-5.6-0.2-9.3-2.8-9.3-7.2
						C306.4,197.3,310.9,192.2,318.1,192.5z M319.9,198.8c0-0.8-0.7-1.8-2.5-1.9c-1.9-0.1-3.1,1.2-3.3,2.1c1.9,0.1,3.8,0.2,5.7,0.3
						C319.9,199.1,319.9,198.9,319.9,198.8z"/>
					<path class="st2" d="M238.6,223.5c6.7-2.3,10.5,0.9,12.1,4.2c-2.1,1.2-4.2,2.3-6.2,3.6c-0.8-1.8-2.4-2.9-4.4-2.2
						c-3.4,1.2-3.8,7-2.6,9.9c0.8,2.1,2.6,3,4.6,2.2c1.4-0.5,2.5-2,2.8-3.8c2.1,0.2,4.1,0.5,6.2,0.8c-1.2,4.5-4,7.2-7.4,8.4
						c-5.6,2-10.8,0.4-13-4.8C228,235.8,229.9,226.5,238.6,223.5z"/>
					<path class="st2" d="M260,223.7c5.7-1.3,9.2,1.2,9.9,5.2c0.9,4.8-1.8,10.5-7.4,11.9c-5.1,1.3-8.5-0.8-9.7-4.8
						C251.3,231.4,253.7,225.3,260,223.7z M260.8,228.7c-2.1,0.5-2.4,3.9-2,5.5c0.4,1.4,1.3,1.9,2.7,1.6c2-0.5,2.4-3.8,2.1-5.6
						C263.2,228.9,262.3,228.4,260.8,228.7z"/>
					<path class="st2" d="M293.7,225.8c0-0.2,0.1-0.7,0.1-0.9c-0.1-0.7-0.7-1.1-1.6-1.1c-1.1,0.1-1.8,0.9-2.3,1.6
						c-0.5,3.5-1,7-1.5,10.5c-2,0.2-4,0.4-6,0.7c0.3-3.3,0.7-6.6,1.1-9.9c0-0.2,0.1-0.7,0-0.9c-0.1-0.7-0.7-1.1-1.7-1
						c-1,0.1-1.8,1.1-2.1,1.7c-0.4,3.5-0.7,7-0.9,10.6c-2,0.3-4,0.7-6,1c0.3-5.6,0.6-11.2,1.1-16.8c2.2-0.4,4.3-0.7,6.5-1
						c-0.1,0.7-0.2,1.3-0.3,2c0.9-1.2,2.6-2.7,4.9-2.9c3.2-0.3,4.9,1.5,5,2.3c0,0,0,0.1,0,0.1c1.1-1.6,3-3.2,5.5-3.3
						c2.7-0.2,4.9,1.1,5,3.4c0,0.4-0.1,1-0.1,1.1c-0.9,4-1.6,8.1-2.4,12.1c-2,0.1-4,0.2-6,0.4C292.6,232.3,293.1,229,293.7,225.8z"
						/>
					<path class="st2" d="M306.9,241.1c-1.9,0-3.9,0-5.8,0.1c1.4-7.6,3.1-15.1,5-22.6c2.2,0,4.4,0,6.6,0.1c-0.2,0.6-0.4,1.2-0.5,1.7
						c1.5-1.5,3-2.1,4.6-2c3.6,0.2,5.6,2.4,5.3,6.5c-0.4,4.5-3.5,10.6-8.9,10.5c-1.9-0.1-3.5-0.7-4.3-2.3
						C308.1,235.8,307.5,238.5,306.9,241.1z M313.2,223.3c-0.8,0-1.6,0.4-2.2,1.1c-0.4,1.6-0.9,3.2-1.3,4.8c0.4,0.7,1.2,1.2,2.1,1.2
						c2.1,0.1,3.4-2.8,3.5-4.7C315.5,224.2,314.6,223.4,313.2,223.3z"/>
					<path class="st2" d="M338.4,221c2.2,0.3,4.3,0.7,6.5,1.1c-2.4,5.1-4.6,10.2-6.8,15.3c-2-0.3-4-0.6-6-0.9
						c0.2-0.6,0.4-1.1,0.7-1.7c-1.5,1.4-2.9,1.8-4.5,1.6c-3.3-0.4-5.1-2.6-4.7-6.7c0.3-4.5,3.7-10.7,9.8-9.9
						c2.1,0.3,3.7,1.2,4.4,2.8C337.9,222.2,338.2,221.6,338.4,221z M332,231.9c0.8,0.1,1.6-0.2,2.3-0.8c0.6-1.5,1.2-3.1,1.9-4.6
						c-0.3-0.8-1.1-1.3-2.1-1.4c-2.2-0.3-3.8,2.5-4,4.4C329.9,230.8,330.7,231.7,332,231.9z"/>
					<path class="st2" d="M356.7,231.6c0.1-0.2,0.3-0.6,0.4-0.8c0.2-0.8-0.4-1.3-1.2-1.5c-1.2-0.3-2.2,0.2-3,0.7
						c-1.6,3.1-3.2,6.2-4.7,9.4c-2-0.4-4-0.9-6-1.2c2.3-5.1,4.7-10.1,7.2-15.1c2.2,0.5,4.3,1,6.4,1.5c-0.3,0.6-0.7,1.1-1,1.7
						c1.4-0.8,3.5-1.5,5.9-0.8c3.1,0.9,4.4,2.9,3.8,4.9c-0.1,0.2-0.3,0.8-0.5,1c-2.1,3.5-4.1,7.1-6.1,10.6c-2-0.6-3.9-1.1-5.9-1.6
						C353.6,237.4,355.1,234.5,356.7,231.6z"/>
					<path class="st2" d="M363.4,245.1c0.7,0.2,1.2,0.1,1.7-0.2c0.2-0.2,0.5-0.4,0.7-0.6c1.1-5.4,2.1-10.7,3-16.1
						c2.2,0.7,4.3,1.4,6.5,2.2c-0.9,3-1.8,6-2.7,9c2.7-2.4,5.5-4.7,8.3-6.9c2.2,0.9,4.5,1.8,6.7,2.8c-6.1,4-12,8.2-17.5,12.7
						c-3.2,2.6-5.2,2.9-8.1,2c-1.2-0.4-2.3-0.9-3-1.4c1.1-1.3,2.1-2.7,3.2-4C362.4,244.8,362.9,245,363.4,245.1z"/>
				</g>
			</g>
		</g>
	</g>
	<g>
		<g>
			<g>
				<polygon class="st2" points="213.3,120.7 156.8,153 100.6,120.3 100.8,55.2 157.3,22.9 213.5,55.6 				"/>
			</g>
			<defs>
				<filter id="Adobe_OpacityMaskFilter" filterUnits="userSpaceOnUse" x="100.6" y="22.9" width="113" height="130.2">
					
						<feColorMatrix  type="matrix" values="-1 0 0 0 1  0 -1 0 0 1  0 0 -1 0 1  0 0 0 1 0" color-interpolation-filters="sRGB" result="source"/>
				</filter>
			</defs>
			<mask maskUnits="userSpaceOnUse" x="100.6" y="22.9" width="113" height="130.2" id="SVGID_1_">
				<g class="st6">
					
						<image style="overflow:visible;" width="488" height="560" xlink:href="7749A9E6.jpg"  transform="matrix(0.24 0 0 0.24 98.5781 20.8607)">
					</image>
				</g>
			</mask>
			<g class="st7">
				<polygon points="213.3,120.7 156.8,153 100.6,120.3 100.8,55.2 157.3,22.9 213.5,55.6 				"/>
			</g>
		</g>
		<g>
			<g class="st8">
				<path class="st9" d="M118.9,90.6v17.5h-6.8V68.3h6.8v16.7h18.8v5.5H118.9z M121,74v-5.7h18.2V74H121z"/>
				<path class="st9" d="M151.1,94.8c0.4,4.9,2.6,7.9,7.3,8.4v5.2c-11.3-0.7-14.2-8.1-14.2-16.2c0-8.1,2.9-15.5,14.2-16.2v5.1
					c-5.3,0.4-6.9,4.1-7.2,8.5h16.4c0,0,0.1,0,0-0.1c0,0,0.1-0.1,0-0.1c0.1-4.1-1.7-8-7-8.4v-5.2c11.4,0.2,14.7,9,13.9,19H151.1z
					 M160.5,108.4v-5.1c4.9-0.2,6.4-2.5,7-5h7C173.9,103.7,170.3,108.4,160.5,108.4z"/>
				<path class="st9" d="M188.4,90.4v17.7h-6.7V76.4h2.4h1.2l1.5,4.4c0.9-1.9,3.5-4.1,8.6-4.7v5.3C189.7,81.8,188.4,85,188.4,90.4z
					 M205.3,108.1h-1V90.4c0-5.3-0.9-8.7-6.8-9v-5.5c0.3,0,0.6,0,0.9,0c10.4,0,12.5,6.1,12.5,15.1v17.2H205.3z"/>
				<path class="st9" d="M217.6,92.3c0-8.2,3.2-15.9,14.6-16.3v5.4c-6,0.4-7.8,5-7.8,10.8c0,5.7,1.7,10.3,7.8,10.7v5.7
					C220.6,108.1,217.6,100.4,217.6,92.3z M240.8,89c-0.4-4.5-2.1-7.2-6.5-7.6V76c9,0.4,13.3,5.4,13.3,13.1H240.8z M234.3,108.6
					v-5.8c4.4-0.3,6.1-2.9,6.5-7.2h6.8C247.6,103.3,243.4,108.3,234.3,108.6z"/>
				<path class="st9" d="M260.6,94.8c0.4,4.9,2.6,7.9,7.3,8.4v5.2c-11.3-0.7-14.2-8.1-14.2-16.2c0-8.1,2.9-15.5,14.2-16.2v5.1
					c-5.3,0.4-6.9,4.1-7.2,8.5H277c0,0,0.1,0,0-0.1c0,0,0.1-0.1,0-0.1c0.1-4.1-1.7-8-7-8.4v-5.2c11.4,0.2,14.7,9,13.9,19H260.6z
					 M269.9,108.4v-5.1c4.8-0.2,6.4-2.5,7-5h7C283.4,103.7,279.8,108.4,269.9,108.4z"/>
				<path class="st9" d="M290.8,88.2c0-10.6,3.4-19.8,17.2-20.3v5.7c-8.4,0.6-10.2,6.9-10.2,14.7s1.8,14.2,10.2,14.7v5.7
					C294.1,108.1,290.8,98.8,290.8,88.2z M320.1,83.5c-0.4-5.3-3-9.6-10-9.9v-5.7c12.4,0.3,17,7.5,17,15.6H320.1z M310,108.6v-5.7
					c7.1-0.3,9.6-4.4,10-10.1h7C327.1,101.3,322.5,108.3,310,108.6z"/>
				<path class="st9" d="M333.4,92.2c0-8.1,3.1-15.8,14.7-16.2v5.4c-6.5,0.5-8,5.2-8,10.8c0,5.7,1.5,10.4,8,10.9v5.4
					C336.4,108.1,333.4,100.4,333.4,92.2z M350.2,108.5v-5.4c6.5-0.5,8-5,8-10.9c0-5.6-1.3-10.3-8-10.8V76
					c11.5,0.4,14.8,8.1,14.8,16.2C365,100.5,361.8,108.1,350.2,108.5z"/>
				<path class="st9" d="M375.3,108.6c-2.9,0-4.9-0.8-4.9-4c0-3.3,1.9-4,4.9-4c2.8,0,4.7,0.7,4.7,4
					C380.1,107.8,378.1,108.6,375.3,108.6z"/>
			</g>
			<g>
				<g>
					<path class="st10" d="M117,90.6v17.5h-6.8V68.3h6.8v16.7h18.8v5.5H117z M119.1,74v-5.7h18.2V74H119.1z"/>
					<path class="st10" d="M149.1,94.8c0.4,4.9,2.6,7.9,7.3,8.4v5.2c-11.3-0.7-14.2-8.1-14.2-16.2c0-8.1,2.9-15.5,14.2-16.2v5.1
						c-5.3,0.4-6.9,4.1-7.2,8.5h16.4c0,0,0.1,0,0-0.1c0,0,0.1-0.1,0-0.1c0.1-4.1-1.7-8-7-8.4v-5.2c11.4,0.2,14.7,9,13.9,19H149.1z
						 M158.5,108.4v-5.1c4.9-0.2,6.4-2.5,7-5h7C171.9,103.7,168.3,108.4,158.5,108.4z"/>
					<path class="st10" d="M186.4,90.4v17.7h-6.7V76.4h2.4h1.2l1.5,4.4c0.9-1.9,3.5-4.1,8.6-4.7v5.3C187.7,81.8,186.4,85,186.4,90.4
						z M203.4,108.1h-1V90.4c0-5.3-0.9-8.7-6.8-9v-5.5c0.3,0,0.6,0,0.9,0c10.4,0,12.5,6.1,12.5,15.1v17.2H203.4z"/>
					<path class="st10" d="M215.6,92.3c0-8.2,3.2-15.9,14.6-16.3v5.4c-6,0.4-7.8,5-7.8,10.8c0,5.7,1.7,10.3,7.8,10.7v5.7
						C218.7,108.1,215.6,100.4,215.6,92.3z M238.9,89c-0.4-4.5-2.1-7.2-6.5-7.6V76c9,0.4,13.3,5.4,13.3,13.1H238.9z M232.4,108.6
						v-5.8c4.4-0.3,6.1-2.9,6.5-7.2h6.8C245.7,103.3,241.5,108.3,232.4,108.6z"/>
					<path class="st10" d="M258.6,94.8c0.4,4.9,2.6,7.9,7.3,8.4v5.2c-11.3-0.7-14.2-8.1-14.2-16.2c0-8.1,2.9-15.5,14.2-16.2v5.1
						c-5.3,0.4-6.9,4.1-7.2,8.5H275c0,0,0.1,0,0-0.1c0,0,0.1-0.1,0-0.1c0.1-4.1-1.7-8-7-8.4v-5.2c11.4,0.2,14.7,9,13.9,19H258.6z
						 M268,108.4v-5.1c4.8-0.2,6.4-2.5,7-5h7C281.4,103.7,277.8,108.4,268,108.4z"/>
					<path class="st11" d="M288.8,88.2c0-10.6,3.4-19.8,17.2-20.3v5.7c-8.4,0.6-10.2,6.9-10.2,14.7s1.8,14.2,10.2,14.7v5.7
						C292.2,108.1,288.8,98.8,288.8,88.2z M318.1,83.5c-0.4-5.3-3-9.6-10-9.9v-5.7c12.4,0.3,17,7.5,17,15.6H318.1z M308.1,108.6
						v-5.7c7.1-0.3,9.6-4.4,10-10.1h7C325.1,101.3,320.5,108.3,308.1,108.6z"/>
					<path class="st11" d="M331.4,92.2c0-8.1,3.1-15.8,14.7-16.2v5.4c-6.5,0.5-8,5.2-8,10.8c0,5.7,1.5,10.4,8,10.9v5.4
						C334.5,108.1,331.4,100.4,331.4,92.2z M348.2,108.5v-5.4c6.5-0.5,8-5,8-10.9c0-5.6-1.3-10.3-8-10.8V76
						c11.5,0.4,14.8,8.1,14.8,16.2C363,100.5,359.8,108.1,348.2,108.5z"/>
					<path class="st11" d="M373.4,108.6c-2.9,0-4.9-0.8-4.9-4c0-3.3,1.9-4,4.9-4c2.8,0,4.7,0.7,4.7,4
						C378.1,107.8,376.2,108.6,373.4,108.6z"/>
				</g>
			</g>
		</g>
	</g>
	<g>
		<g id="Layer_1_1_">
			<g>
				<g>
					<g>
						<g>
							<g>
								<path class="st11" d="M162.7,335.5C162.7,335.5,161.9,334.1,162.7,335.5L162.7,335.5c-20.4,10.3-48.8,35.1-62.1,35.7
									l0.6,80.1c0,0.1-0.1,0.3-0.2,0.3c-1.1,0.3,0.5,1.5,0.9,1.8l10,5.8c0.3,0.2,0.7,0,0.7-0.4v-48.2h-0.2v-1.2h6.7v1.2h-0.1v1.2
									c0,0.3,0.2,0.5,0.5,0.5h85c0.3,0,0.5-0.2,0.5-0.5v-1.1h-0.1v-1.2h6.6v1.2h-0.1l0.1,47c0,0.4,0.4,0.6,0.7,0.4l10.1-5.9
									c0.1-0.1,0.2-0.2,0.2-0.4v-69.7c1.5,3.1,88.2,1.5,101.4-10.9l0,0C273.7,391.7,191.1,347.1,162.7,335.5z"/>
							</g>
						</g>
					</g>
				</g>
			</g>
		</g>
		<g>
			<g class="st12">
				<path class="st13" d="M232,391h13.6v6.2H240v5.8h5v5.9h-5v13h-8V391z"/>
				<path class="st13" d="M265.9,409.6h-10v5.5c0,1.1,0.1,1.9,0.2,2.2c0.2,0.3,0.5,0.5,1,0.5c0.6,0,1-0.2,1.2-0.7
					c0.2-0.4,0.3-1.3,0.3-2.5v-3.3h7.3v1.9c0,1.6-0.1,2.8-0.3,3.6c-0.2,0.8-0.7,1.7-1.4,2.7s-1.6,1.7-2.8,2.1
					c-1.1,0.5-2.5,0.7-4.2,0.7c-1.6,0-3.1-0.2-4.3-0.7s-2.2-1.1-2.9-1.9s-1.2-1.7-1.4-2.7s-0.4-2.4-0.4-4.3v-7.4
					c0-2.2,0.3-4,0.9-5.2c0.6-1.3,1.6-2.3,2.9-2.9c1.4-0.7,2.9-1,4.7-1c2.2,0,3.9,0.4,5.3,1.2c1.4,0.8,2.4,1.9,3,3.3
					c0.6,1.4,0.8,3.3,0.8,5.7V409.6z M258.2,405.5v-1.8c0-1.3-0.1-2.2-0.2-2.5s-0.4-0.6-0.9-0.6c-0.5,0-0.9,0.2-1,0.5
					c-0.1,0.3-0.2,1.2-0.2,2.6v1.8H258.2z"/>
				<path class="st13" d="M277.5,396.5l-0.1,2.3c0.6-0.9,1.2-1.6,2-2.1c0.8-0.5,1.7-0.7,2.8-0.7c1.3,0,2.4,0.3,3.2,0.9
					c0.8,0.6,1.4,1.4,1.6,2.4c0.2,0.9,0.4,2.5,0.4,4.7v17.7h-7.7v-17.5c0-1.7-0.1-2.8-0.2-3.2s-0.4-0.6-1-0.6c-0.5,0-0.9,0.2-1,0.7
					c-0.1,0.4-0.2,1.6-0.2,3.5v17.1h-7.7v-25.3H277.5z"/>
				<path class="st13" d="M308.3,406.1H301v-2.9c0-1-0.1-1.7-0.2-2.1c-0.2-0.4-0.5-0.5-0.9-0.5c-0.4,0-0.7,0.2-0.9,0.5
					c-0.2,0.3-0.2,1-0.2,2.1v11.9c0,0.9,0.1,1.6,0.3,2c0.2,0.5,0.6,0.7,1,0.7c0.5,0,0.9-0.2,1.1-0.7c0.2-0.5,0.3-1.4,0.3-2.7v-3h6.9
					c0,2-0.1,3.5-0.2,4.5c-0.1,1-0.6,2-1.3,3.1s-1.7,1.9-2.8,2.4c-1.2,0.5-2.6,0.8-4.3,0.8c-2.2,0-3.9-0.4-5.2-1.1
					c-1.3-0.7-2.2-1.8-2.7-3.1s-0.8-3.2-0.8-5.7v-7.2c0-2.1,0.2-3.8,0.6-4.9c0.4-1.1,1.4-2.1,2.8-2.9c1.4-0.9,3.1-1.3,5.1-1.3
					c2,0,3.7,0.4,5.1,1.3c1.4,0.9,2.4,1.9,2.8,3.2C308,401.9,308.3,403.7,308.3,406.1z"/>
				<path class="st13" d="M329.2,409.6h-10v5.5c0,1.1,0.1,1.9,0.2,2.2c0.2,0.3,0.5,0.5,1,0.5c0.6,0,1-0.2,1.2-0.7
					c0.2-0.4,0.3-1.3,0.3-2.5v-3.3h7.3v1.9c0,1.6-0.1,2.8-0.3,3.6c-0.2,0.8-0.7,1.7-1.4,2.7s-1.6,1.7-2.8,2.1
					c-1.1,0.5-2.5,0.7-4.2,0.7c-1.6,0-3.1-0.2-4.3-0.7s-2.2-1.1-2.9-1.9s-1.2-1.7-1.4-2.7s-0.4-2.4-0.4-4.3v-7.4
					c0-2.2,0.3-4,0.9-5.2c0.6-1.3,1.6-2.3,2.9-2.9c1.4-0.7,2.9-1,4.7-1c2.2,0,3.9,0.4,5.3,1.2c1.4,0.8,2.4,1.9,3,3.3
					c0.6,1.4,0.8,3.3,0.8,5.7V409.6z M321.5,405.5v-1.8c0-1.3-0.1-2.2-0.2-2.5s-0.4-0.6-0.9-0.6c-0.5,0-0.9,0.2-1,0.5
					c-0.1,0.3-0.2,1.2-0.2,2.6v1.8H321.5z"/>
				<path class="st13" d="M250.7,439.1h-8v-5.4c0-1.6-0.1-2.5-0.3-2.9s-0.5-0.6-1.1-0.6c-0.7,0-1.1,0.2-1.3,0.7
					c-0.2,0.5-0.3,1.5-0.3,3v14.3c0,1.5,0.1,2.5,0.3,2.9c0.2,0.5,0.6,0.7,1.2,0.7c0.6,0,1-0.2,1.2-0.7c0.2-0.5,0.3-1.5,0.3-3.2v-3.9
					h8v1.2c0,3.2-0.2,5.5-0.7,6.8c-0.5,1.3-1.4,2.5-3,3.5s-3.4,1.5-5.7,1.5c-2.3,0-4.3-0.4-5.8-1.3c-1.5-0.9-2.5-2-3-3.5
					c-0.5-1.5-0.7-3.8-0.7-6.8v-9c0-2.2,0.1-3.9,0.2-5c0.2-1.1,0.6-2.2,1.4-3.2c0.8-1,1.8-1.8,3.1-2.4s2.9-0.9,4.6-0.9
					c2.4,0,4.3,0.5,5.8,1.4c1.5,0.9,2.5,2.1,3,3.4s0.7,3.5,0.7,6.4V439.1z"/>
				<path class="st13" d="M272,440.1v6.2c0,2.3-0.1,3.9-0.3,5c-0.2,1.1-0.7,2.1-1.5,3c-0.8,0.9-1.7,1.6-2.9,2s-2.5,0.7-4,0.7
					c-1.7,0-3.1-0.2-4.3-0.6c-1.2-0.4-2.1-0.9-2.8-1.7c-0.7-0.8-1.1-1.7-1.4-2.7c-0.3-1.1-0.4-2.7-0.4-4.8v-6.5
					c0-2.3,0.3-4.2,0.8-5.5c0.5-1.3,1.4-2.4,2.7-3.2c1.3-0.8,3-1.2,5.1-1.2c1.7,0,3.2,0.3,4.4,0.8c1.2,0.5,2.2,1.2,2.9,2
					c0.7,0.8,1.1,1.7,1.4,2.6C271.9,437,272,438.3,272,440.1z M264.3,438.2c0-1.3-0.1-2.1-0.2-2.4c-0.1-0.3-0.4-0.5-0.9-0.5
					c-0.5,0-0.8,0.2-0.9,0.5c-0.2,0.3-0.2,1.2-0.2,2.4v11.4c0,1.2,0.1,2,0.2,2.3c0.2,0.4,0.5,0.5,0.9,0.5c0.5,0,0.8-0.2,0.9-0.5
					c0.1-0.3,0.2-1,0.2-2.1V438.2z"/>
				<path class="st13" d="M283.3,431.2l-0.1,2.4c0.6-1,1.3-1.7,2.1-2.1c0.8-0.5,1.8-0.7,2.8-0.7c2.1,0,3.7,1,4.9,2.9
					c0.6-1,1.4-1.7,2.2-2.1c0.8-0.5,1.7-0.7,2.7-0.7c1.3,0,2.4,0.3,3.2,1c0.9,0.6,1.4,1.4,1.6,2.3c0.2,0.9,0.4,2.4,0.4,4.5v18h-7.5
					V440c0-2.2-0.1-3.5-0.2-4c-0.1-0.5-0.5-0.8-1-0.8c-0.5,0-0.9,0.3-1.1,0.8c-0.2,0.5-0.2,1.8-0.2,4v16.5h-7.5v-16.1
					c0-2.5-0.1-4-0.2-4.5c-0.1-0.5-0.5-0.7-1-0.7c-0.3,0-0.6,0.1-0.9,0.4c-0.2,0.3-0.4,0.6-0.4,1c0,0.4,0,1.2,0,2.4v17.5h-7.5v-25.3
					H283.3z"/>
				<path class="st13" d="M314.8,431.2l-0.1,2.2c0.7-0.9,1.4-1.6,2.3-2c0.8-0.4,1.7-0.7,2.7-0.7c1.2,0,2.2,0.3,3.1,1
					c0.9,0.6,1.4,1.4,1.6,2.2c0.2,0.8,0.3,2.3,0.3,4.3v10.6c0,2.3-0.1,3.9-0.4,4.9c-0.3,1-0.8,1.7-1.7,2.3c-0.8,0.6-1.9,0.9-3.1,0.9
					c-1,0-1.8-0.2-2.6-0.7c-0.8-0.4-1.6-1.1-2.2-2v5.8H307v-28.9H314.8z M317,438.6c0-1.6-0.1-2.5-0.2-2.8s-0.4-0.5-1-0.5
					c-0.5,0-0.8,0.2-1,0.6c-0.1,0.4-0.2,1.3-0.2,2.8V449c0,1.5,0.1,2.5,0.2,2.9c0.2,0.4,0.5,0.6,1,0.6c0.5,0,0.8-0.2,0.9-0.5
					c0.1-0.3,0.2-1.2,0.2-2.5V438.6z"/>
				<path class="st13" d="M335.3,441h-7.2v-1.7c0-2,0.2-3.5,0.7-4.5c0.5-1.1,1.4-2,2.7-2.8c1.4-0.8,3.1-1.2,5.3-1.2
					c2.6,0,4.6,0.5,5.9,1.4c1.3,0.9,2.1,2.1,2.4,3.4s0.4,4.1,0.4,8.3v12.7H338v-2.3c-0.5,0.9-1.1,1.6-1.8,2
					c-0.7,0.5-1.6,0.7-2.7,0.7c-1.3,0-2.6-0.4-3.7-1.1c-1.1-0.8-1.7-2.4-1.7-5v-2.1c0-1.9,0.3-3.2,0.9-3.9s2.1-1.5,4.4-2.4
					c2.5-1,3.9-1.7,4.1-2c0.2-0.3,0.3-1,0.3-2.1c0-1.3-0.1-2.2-0.3-2.6c-0.2-0.4-0.5-0.6-1-0.6c-0.5,0-0.8,0.2-1,0.5
					c-0.1,0.3-0.2,1.2-0.2,2.6V441z M337.8,444.5c-1.2,0.9-1.9,1.7-2.1,2.3c-0.2,0.6-0.3,1.5-0.3,2.6c0,1.3,0.1,2.2,0.3,2.5
					c0.2,0.4,0.5,0.6,1,0.6c0.5,0,0.8-0.1,0.9-0.4c0.1-0.3,0.2-1.1,0.2-2.4V444.5z"/>
				<path class="st13" d="M357.2,431.2l-0.1,2.3c0.6-0.9,1.2-1.6,2-2.1c0.8-0.5,1.7-0.7,2.8-0.7c1.3,0,2.4,0.3,3.2,0.9
					c0.8,0.6,1.4,1.4,1.6,2.4c0.2,0.9,0.4,2.5,0.4,4.7v17.7h-7.7V439c0-1.7-0.1-2.8-0.2-3.2s-0.4-0.6-1-0.6c-0.5,0-0.9,0.2-1,0.7
					c-0.1,0.4-0.2,1.6-0.2,3.5v17.1h-7.7v-25.3H357.2z"/>
				<path class="st13" d="M387.1,431.2l-2.2,18.3c-0.3,2.9-0.6,4.9-0.9,5.9c-0.2,1.1-0.6,1.9-1.2,2.6s-1.3,1.2-2.3,1.5
					s-2.5,0.5-4.7,0.5h-4.7v-4c1.2,0,2-0.1,2.3-0.2c0.3-0.1,0.5-0.4,0.5-0.8c0-0.2-0.2-1.1-0.5-2.6l-4.2-21.1h7l2.5,17.1l1.2-17.1
					H387.1z"/>
			</g>
			<g>
				<g>
					<path class="st2" d="M232,389.9h13.6v6.2H240v5.8h5v5.9h-5v13h-8V389.9z"/>
					<path class="st2" d="M265.9,408.5h-10v5.5c0,1.1,0.1,1.9,0.2,2.2c0.2,0.3,0.5,0.5,1,0.5c0.6,0,1-0.2,1.2-0.7
						c0.2-0.4,0.3-1.3,0.3-2.5v-3.3h7.3v1.9c0,1.6-0.1,2.8-0.3,3.6c-0.2,0.8-0.7,1.7-1.4,2.7s-1.6,1.7-2.8,2.1
						c-1.1,0.5-2.5,0.7-4.2,0.7c-1.6,0-3.1-0.2-4.3-0.7s-2.2-1.1-2.9-1.9s-1.2-1.7-1.4-2.7s-0.4-2.4-0.4-4.3v-7.4
						c0-2.2,0.3-4,0.9-5.2c0.6-1.3,1.6-2.3,2.9-2.9c1.4-0.7,2.9-1,4.7-1c2.2,0,3.9,0.4,5.3,1.2c1.4,0.8,2.4,1.9,3,3.3
						c0.6,1.4,0.8,3.3,0.8,5.7V408.5z M258.2,404.4v-1.8c0-1.3-0.1-2.2-0.2-2.5s-0.4-0.6-0.9-0.6c-0.5,0-0.9,0.2-1,0.5
						c-0.1,0.3-0.2,1.2-0.2,2.6v1.8H258.2z"/>
					<path class="st2" d="M277.5,395.4l-0.1,2.3c0.6-0.9,1.2-1.6,2-2.1c0.8-0.5,1.7-0.7,2.8-0.7c1.3,0,2.4,0.3,3.2,0.9
						c0.8,0.6,1.4,1.4,1.6,2.4c0.2,0.9,0.4,2.5,0.4,4.7v17.7h-7.7v-17.5c0-1.7-0.1-2.8-0.2-3.2s-0.4-0.6-1-0.6c-0.5,0-0.9,0.2-1,0.7
						c-0.1,0.4-0.2,1.6-0.2,3.5v17.1h-7.7v-25.3H277.5z"/>
					<path class="st2" d="M308.3,405H301v-2.9c0-1-0.1-1.7-0.2-2.1c-0.2-0.4-0.5-0.5-0.9-0.5c-0.4,0-0.7,0.2-0.9,0.5
						c-0.2,0.3-0.2,1-0.2,2.1V414c0,0.9,0.1,1.6,0.3,2c0.2,0.5,0.6,0.7,1,0.7c0.5,0,0.9-0.2,1.1-0.7c0.2-0.5,0.3-1.4,0.3-2.7v-3h6.9
						c0,2-0.1,3.5-0.2,4.5c-0.1,1-0.6,2-1.3,3.1s-1.7,1.9-2.8,2.4c-1.2,0.5-2.6,0.8-4.3,0.8c-2.2,0-3.9-0.4-5.2-1.1
						c-1.3-0.7-2.2-1.8-2.7-3.1s-0.8-3.2-0.8-5.7v-7.2c0-2.1,0.2-3.8,0.6-4.9c0.4-1.1,1.4-2.1,2.8-2.9c1.4-0.9,3.1-1.3,5.1-1.3
						c2,0,3.7,0.4,5.1,1.3c1.4,0.9,2.4,1.9,2.8,3.2C308,400.8,308.3,402.6,308.3,405z"/>
					<path class="st2" d="M329.2,408.5h-10v5.5c0,1.1,0.1,1.9,0.2,2.2c0.2,0.3,0.5,0.5,1,0.5c0.6,0,1-0.2,1.2-0.7
						c0.2-0.4,0.3-1.3,0.3-2.5v-3.3h7.3v1.9c0,1.6-0.1,2.8-0.3,3.6c-0.2,0.8-0.7,1.7-1.4,2.7s-1.6,1.7-2.8,2.1
						c-1.1,0.5-2.5,0.7-4.2,0.7c-1.6,0-3.1-0.2-4.3-0.7s-2.2-1.1-2.9-1.9s-1.2-1.7-1.4-2.7s-0.4-2.4-0.4-4.3v-7.4
						c0-2.2,0.3-4,0.9-5.2c0.6-1.3,1.6-2.3,2.9-2.9c1.4-0.7,2.9-1,4.7-1c2.2,0,3.9,0.4,5.3,1.2c1.4,0.8,2.4,1.9,3,3.3
						c0.6,1.4,0.8,3.3,0.8,5.7V408.5z M321.5,404.4v-1.8c0-1.3-0.1-2.2-0.2-2.5s-0.4-0.6-0.9-0.6c-0.5,0-0.9,0.2-1,0.5
						c-0.1,0.3-0.2,1.2-0.2,2.6v1.8H321.5z"/>
					<path class="st2" d="M250.7,438h-8v-5.4c0-1.6-0.1-2.5-0.3-2.9s-0.5-0.6-1.1-0.6c-0.7,0-1.1,0.2-1.3,0.7
						c-0.2,0.5-0.3,1.5-0.3,3v14.3c0,1.5,0.1,2.5,0.3,2.9c0.2,0.5,0.6,0.7,1.2,0.7c0.6,0,1-0.2,1.2-0.7c0.2-0.5,0.3-1.5,0.3-3.2V443
						h8v1.2c0,3.2-0.2,5.5-0.7,6.8c-0.5,1.3-1.4,2.5-3,3.5s-3.4,1.5-5.7,1.5c-2.3,0-4.3-0.4-5.8-1.3c-1.5-0.9-2.5-2-3-3.5
						c-0.5-1.5-0.7-3.8-0.7-6.8v-9c0-2.2,0.1-3.9,0.2-5c0.2-1.1,0.6-2.2,1.4-3.2c0.8-1,1.8-1.8,3.1-2.4s2.9-0.9,4.6-0.9
						c2.4,0,4.3,0.5,5.8,1.4c1.5,0.9,2.5,2.1,3,3.4s0.7,3.5,0.7,6.4V438z"/>
					<path class="st2" d="M272,439v6.2c0,2.3-0.1,3.9-0.3,5c-0.2,1.1-0.7,2.1-1.5,3c-0.8,0.9-1.7,1.6-2.9,2s-2.5,0.7-4,0.7
						c-1.7,0-3.1-0.2-4.3-0.6c-1.2-0.4-2.1-0.9-2.8-1.7c-0.7-0.8-1.1-1.7-1.4-2.7c-0.3-1.1-0.4-2.7-0.4-4.8v-6.5
						c0-2.3,0.3-4.2,0.8-5.5c0.5-1.3,1.4-2.4,2.7-3.2c1.3-0.8,3-1.2,5.1-1.2c1.7,0,3.2,0.3,4.4,0.8c1.2,0.5,2.2,1.2,2.9,2
						c0.7,0.8,1.1,1.7,1.4,2.6C271.9,435.9,272,437.2,272,439z M264.3,437.1c0-1.3-0.1-2.1-0.2-2.4c-0.1-0.3-0.4-0.5-0.9-0.5
						c-0.5,0-0.8,0.2-0.9,0.5c-0.2,0.3-0.2,1.2-0.2,2.4v11.4c0,1.2,0.1,2,0.2,2.3c0.2,0.4,0.5,0.5,0.9,0.5c0.5,0,0.8-0.2,0.9-0.5
						c0.1-0.3,0.2-1,0.2-2.1V437.1z"/>
					<path class="st2" d="M283.3,430.1l-0.1,2.4c0.6-1,1.3-1.7,2.1-2.1c0.8-0.5,1.8-0.7,2.8-0.7c2.1,0,3.7,1,4.9,2.9
						c0.6-1,1.4-1.7,2.2-2.1c0.8-0.5,1.7-0.7,2.7-0.7c1.3,0,2.4,0.3,3.2,1c0.9,0.6,1.4,1.4,1.6,2.3c0.2,0.9,0.4,2.4,0.4,4.5v18h-7.5
						v-16.5c0-2.2-0.1-3.5-0.2-4c-0.1-0.5-0.5-0.8-1-0.8c-0.5,0-0.9,0.3-1.1,0.8c-0.2,0.5-0.2,1.8-0.2,4v16.5h-7.5v-16.1
						c0-2.5-0.1-4-0.2-4.5c-0.1-0.5-0.5-0.7-1-0.7c-0.3,0-0.6,0.1-0.9,0.4c-0.2,0.3-0.4,0.6-0.4,1c0,0.4,0,1.2,0,2.4v17.5h-7.5
						v-25.3H283.3z"/>
					<path class="st2" d="M314.8,430.1l-0.1,2.2c0.7-0.9,1.4-1.6,2.3-2c0.8-0.4,1.7-0.7,2.7-0.7c1.2,0,2.2,0.3,3.1,1
						c0.9,0.6,1.4,1.4,1.6,2.2c0.2,0.8,0.3,2.3,0.3,4.3v10.6c0,2.3-0.1,3.9-0.4,4.9c-0.3,1-0.8,1.7-1.7,2.3
						c-0.8,0.6-1.9,0.9-3.1,0.9c-1,0-1.8-0.2-2.6-0.7c-0.8-0.4-1.6-1.1-2.2-2v5.8H307v-28.9H314.8z M317,437.5
						c0-1.6-0.1-2.5-0.2-2.8s-0.4-0.5-1-0.5c-0.5,0-0.8,0.2-1,0.6c-0.1,0.4-0.2,1.3-0.2,2.8V448c0,1.5,0.1,2.5,0.2,2.9
						c0.2,0.4,0.5,0.6,1,0.6c0.5,0,0.8-0.2,0.9-0.5c0.1-0.3,0.2-1.2,0.2-2.5V437.5z"/>
					<path class="st2" d="M335.3,439.9h-7.2v-1.7c0-2,0.2-3.5,0.7-4.5c0.5-1.1,1.4-2,2.7-2.8c1.4-0.8,3.1-1.2,5.3-1.2
						c2.6,0,4.6,0.5,5.9,1.4c1.3,0.9,2.1,2.1,2.4,3.4s0.4,4.1,0.4,8.3v12.7H338v-2.3c-0.5,0.9-1.1,1.6-1.8,2
						c-0.7,0.5-1.6,0.7-2.7,0.7c-1.3,0-2.6-0.4-3.7-1.1c-1.1-0.8-1.7-2.4-1.7-5v-2.1c0-1.9,0.3-3.2,0.9-3.9s2.1-1.5,4.4-2.4
						c2.5-1,3.9-1.7,4.1-2c0.2-0.3,0.3-1,0.3-2.1c0-1.3-0.1-2.2-0.3-2.6c-0.2-0.4-0.5-0.6-1-0.6c-0.5,0-0.8,0.2-1,0.5
						c-0.1,0.3-0.2,1.2-0.2,2.6V439.9z M337.8,443.4c-1.2,0.9-1.9,1.7-2.1,2.3c-0.2,0.6-0.3,1.5-0.3,2.6c0,1.3,0.1,2.2,0.3,2.5
						c0.2,0.4,0.5,0.6,1,0.6c0.5,0,0.8-0.1,0.9-0.4c0.1-0.3,0.2-1.1,0.2-2.4V443.4z"/>
					<path class="st2" d="M357.2,430.1l-0.1,2.3c0.6-0.9,1.2-1.6,2-2.1c0.8-0.5,1.7-0.7,2.8-0.7c1.3,0,2.4,0.3,3.2,0.9
						c0.8,0.6,1.4,1.4,1.6,2.4c0.2,0.9,0.4,2.5,0.4,4.7v17.7h-7.7v-17.5c0-1.7-0.1-2.8-0.2-3.2s-0.4-0.6-1-0.6c-0.5,0-0.9,0.2-1,0.7
						c-0.1,0.4-0.2,1.6-0.2,3.5v17.1h-7.7v-25.3H357.2z"/>
					<path class="st2" d="M387.1,430.1l-2.2,18.3c-0.3,2.9-0.6,4.9-0.9,5.9c-0.2,1.1-0.6,1.9-1.2,2.6s-1.3,1.2-2.3,1.5
						s-2.5,0.5-4.7,0.5h-4.7v-4c1.2,0,2-0.1,2.3-0.2c0.3-0.1,0.5-0.4,0.5-0.8c0-0.2-0.2-1.1-0.5-2.6l-4.2-21.1h7l2.5,17.1l1.2-17.1
						H387.1z"/>
				</g>
			</g>
		</g>
		<g>
			<rect x="111" y="382.2" class="st14" width="7.9" height="78.5"/>
			<rect x="203.6" y="382.2" class="st14" width="7.9" height="78.5"/>
			<rect x="117.4" y="385.3" class="st14" width="87.8" height="7"/>
			<circle class="st14" cx="161.4" cy="419.3" r="14.5"/>
			<polygon class="st14" points="161.6,424.9 161.6,424.9 158.4,387.1 164.1,387.1 			"/>
			<polygon class="st14" points="165.6,418.8 165.6,418.8 142.8,388.4 147.7,385.3 			"/>
			<polygon class="st14" points="167.7,416.5 167.7,416.5 123.3,391.2 126.4,386.5 			"/>
			<polygon class="st14" points="162.8,413.3 162.8,413.3 113,401.7 114.7,396.2 			"/>
			<polygon class="st14" points="161.5,425.8 161.5,425.8 164.7,387.9 159,387.9 			"/>
			<polygon class="st14" points="157.5,419.7 157.5,419.7 180.3,389.2 175.5,386.2 			"/>
			<polygon class="st14" points="155.4,417.4 155.4,417.4 199.8,392.1 196.7,387.3 			"/>
			<polygon class="st14" points="160.3,414.2 160.3,414.2 210.1,402.5 208.4,397 			"/>
		</g>
	</g>
	<ellipse class="st1" cx="50.7" cy="495.8" rx="30.3" ry="1.1"/>
	<path class="st15" d="M65.7,114.1H36.3c-7,0-12.7-5.7-12.7-12.7V72c0-7,5.7-12.7,12.7-12.7h29.4c7,0,12.7,5.7,12.7,12.7v29.4
		C78.4,108.4,72.7,114.1,65.7,114.1z"/>
	<path class="st16" d="M65.7,271.2H36.3c-7,0-12.7-5.7-12.7-12.7V231c0-7,5.7-12.7,12.7-12.7h29.4c7,0,12.7,5.7,12.7,12.7v27.5
		C78.4,265.5,72.7,271.2,65.7,271.2z"/>
	<path class="st17" d="M64.7,432.3H36.3c-7,0-12.7-5.7-12.7-12.7v-28.4c0-7,5.7-12.7,12.7-12.7h28.4c7,0,12.7,5.7,12.7,12.7v28.4
		C77.4,426.6,71.7,432.3,64.7,432.3z"/>
	<g>
		<path class="st11" d="M69.4,103.2l-1.7,1.7c-1.9,1.9-4.9,1.9-6.8,0L32.6,76.6c-1.9-1.9-1.9-4.9,0-6.8l1.7-1.7
			c1.9-1.9,4.9-1.9,6.8,0l28.3,28.3C71.3,98.3,71.3,101.3,69.4,103.2z"/>
		<path class="st11" d="M34.3,105.6l-1.7-1.7c-1.9-1.9-1.9-4.9,0-6.8l28.3-28.3c1.9-1.9,4.9-1.9,6.8,0l1.7,1.7
			c1.9,1.9,1.9,4.9,0,6.8l-28.3,28.3C39.2,107.5,36.2,107.5,34.3,105.6z"/>
	</g>
	<g>
		<path class="st11" d="M68.5,422.4l-1.5,1.5c-1.9,1.9-4.9,1.9-6.8,0l-27.7-27.7c-1.9-1.9-1.9-4.9,0-6.8l1.5-1.5
			c1.9-1.9,4.9-1.9,6.8,0l27.7,27.7C70.4,417.5,70.4,420.5,68.5,422.4z"/>
		<path class="st11" d="M34,424.6l-1.5-1.5c-1.9-1.9-1.9-4.9,0-6.8l27.7-27.7c1.9-1.9,4.9-1.9,6.8,0l1.5,1.5c1.9,1.9,1.9,4.9,0,6.8
			l-27.7,27.7C39,426.5,35.9,426.5,34,424.6z"/>
	</g>
	<g>
		<path class="st18" d="M50.9,259.1l-1.7,1.6c-1.9,1.8-4.9,1.8-6.8,0l-9.7-9.4c-1.9-1.8-1.9-4.8,0-6.6l1.7-1.6
			c1.9-1.8,4.9-1.8,6.8,0l9.7,9.4C52.8,254.3,52.8,257.3,50.9,259.1z"/>
		<path class="st18" d="M42.5,260.7l-1.7-1.6c-1.9-1.8-1.9-4.8,0-6.6l22-21.2c1.9-1.8,4.9-1.8,6.8,0l1.7,1.6c1.9,1.8,1.9,4.8,0,6.6
			l-22,21.2C47.4,262.5,44.4,262.5,42.5,260.7z"/>
	</g>
</g>
<g id="objects">
</g>
</svg>
