<?xml version="1.0" encoding="utf-8"?>
<!-- Generator: Adobe Illustrator 19.1.0, SVG Export Plug-In . SVG Version: 6.00 Build 0)  -->
<svg version="1.1" xmlns="http://www.w3.org/2000/svg" xmlns:xlink="http://www.w3.org/1999/xlink" x="0px" y="0px"
	 viewBox="0 0 410 487.5" style="enable-background:new 0 0 410 487.5;" xml:space="preserve">
<style type="text/css">
	.st0{fill:#D8D8D8;}
	.st1{opacity:0.26;}
	.st2{fill:#2B2A2A;}
	.st3{fill:#3195AB;}
	.st4{fill:#EF4438;}
	.st5{fill:#80C342;}
	.st6{fill:#F9ED28;}
	.st7{fill:#FFFFFF;}
	.st8{fill:none;stroke:#EF4438;stroke-width:0.7222;stroke-miterlimit:10;}
	.st9{fill:#EAEAEA;}
	.st10{fill:#8E8E8E;}
	.st11{fill:#8E8E8E;stroke:#454545;stroke-width:5;stroke-miterlimit:10;}
	.st12{fill:#707071;stroke:#1E1E1E;stroke-miterlimit:10;}
	.st13{fill:#231F20;}
</style>
<g id="Layer_1">
	<g>
		<rect x="7.4" class="st0" width="402.6" height="36.3"/>
	</g>
	<g>
		<g class="st1">
			<line class="st2" x1="18.5" y1="47.4" x2="421.1" y2="47.4"/>
		</g>
		<g>
			<line class="st3" x1="7.4" y1="36.3" x2="410" y2="36.3"/>
		</g>
	</g>
	<circle class="st4" cx="403.1" cy="6.6" r="2.4"/>
	<circle class="st5" cx="387.8" cy="6.6" r="2.4"/>
	<circle class="st6" cx="395.6" cy="6.6" r="2.4"/>
	<path class="st7" d="M377.8,22.4H48.4c-0.8,0-1.4-0.6-1.4-1.4v-5c0-0.8,0.6-1.4,1.4-1.4h329.5c0.8,0,1.4,0.6,1.4,1.4v5
		C379.2,21.8,378.6,22.4,377.8,22.4z"/>
	<g>
		<g>
			<polygon class="st4" points="39.5,17.6 37,17.6 39.5,15.1 42,17.6 			"/>
			<rect x="37.5" y="17.6" class="st4" width="4" height="3.5"/>
			<rect x="38.9" y="19" class="st0" width="1.2" height="2.7"/>
			<rect x="40.6" y="15.3" class="st4" width="0.3" height="0.8"/>
		</g>
		<circle class="st8" cx="31.2" cy="18.3" r="2.8"/>
		<rect x="32.3" y="17" class="st0" width="3.5" height="2.5"/>
		<polygon class="st8" points="34,16.3 34.1,17.5 33,17.4 		"/>
		<rect x="19.7" y="18.1" class="st4" width="4.3" height="1"/>
		<path class="st4" d="M23.9,17.9L23,16.6l3,1.9c0.1,0,0.1,0.1,0,0.2l-2.7,1.8l0.7-1.5"/>
		<rect x="13.5" y="18.1" class="st4" width="3.8" height="1"/>
		<path class="st4" d="M13.6,19.3l0.9,1.3l-3-1.9c-0.1,0-0.1-0.1,0-0.2l2.7-1.8l-0.7,1.5"/>
	</g>
	<line class="st9" x1="7.4" y1="36.3" x2="410" y2="36.3"/>
	<polygon class="st10" points="7.4,480.1 7.4,0 0,9 0,480.1 0,487.5 7.4,487.5 400.6,487.5 410,480.1 	"/>
	<path class="st11" d="M7.4,480.1"/>
	<path class="st12" d="M-46.3,478.8"/>
</g>
<g id="objects">
	<g>
		<path class="st13" d="M57.7,153.7h4.4v14.7h-4.4V153.7z"/>
		<path class="st13" d="M71.6,162.5c0-1.1-0.6-1.5-1.5-1.5c-0.9,0-1.4,0.5-1.7,0.8v6.6h-4v-10.6h4v1.2c0.6-0.7,1.8-1.5,3.7-1.5
			c2.5,0,3.5,1.5,3.5,3.3v7.5h-4V162.5z"/>
		<path class="st13" d="M78.6,165.3v-4.1h-1.8v-3.4h1.8v-2.9h4v2.9h2.2v3.4h-2.2v3c0,0.6,0.4,1,0.9,1c0.4,0,0.7-0.1,0.8-0.2l0.7,3
			c-0.4,0.4-1.3,0.7-2.7,0.7C79.9,168.6,78.6,167.5,78.6,165.3z"/>
		<path class="st13" d="M91.2,157.5c3.1,0,5.5,2.2,5.5,6v0.8h-7.2c0.2,0.7,1,1.3,2.3,1.3c0.9,0,1.9-0.3,2.4-0.7l1.6,2.4
			c-1.1,0.9-2.9,1.3-4.5,1.3c-3.3,0-5.9-2.1-5.9-5.6C85.5,159.9,87.8,157.5,91.2,157.5z M89.5,161.8H93c-0.1-0.5-0.5-1.3-1.8-1.3
			C90,160.5,89.6,161.3,89.5,161.8z"/>
		<path class="st13" d="M98.1,157.7h4v1.2c0.7-0.8,2-1.5,3.3-1.5v3.8c-0.2-0.1-0.5-0.1-0.9-0.1c-0.8,0-1.9,0.2-2.4,0.7v6.5h-4V157.7
			z"/>
		<path class="st13" d="M113.9,162.5c0-1.1-0.6-1.5-1.5-1.5c-0.9,0-1.4,0.5-1.7,0.8v6.6h-4v-10.6h4v1.2c0.6-0.7,1.8-1.5,3.7-1.5
			c2.5,0,3.5,1.5,3.5,3.3v7.5h-4V162.5z"/>
		<path class="st13" d="M126.2,167.3c-0.6,0.7-1.9,1.3-3.2,1.3c-1.6,0-3.7-1.1-3.7-3.5c0-2.6,2.1-3.3,3.7-3.3c1.4,0,2.6,0.4,3.2,1.2
			v-1.2c0-0.7-0.7-1.3-2-1.3c-1,0-2.1,0.4-2.9,1l-1.3-2.4c1.4-1.1,3.4-1.6,5-1.6c2.6,0,5.2,0.9,5.2,4.5v6.4h-4V167.3z M126.2,164.9
			c-0.3-0.4-0.9-0.6-1.6-0.6c-0.7,0-1.4,0.2-1.4,0.9s0.7,0.9,1.4,0.9c0.6,0,1.3-0.2,1.6-0.6V164.9z"/>
		<path class="st13" d="M132.4,153.7h4v14.7h-4V153.7z"/>
		<path class="st13" d="M145.4,163c1.1,1.1,2.8,1.9,4.7,1.9c0.8,0,1.6-0.3,1.6-0.9c0-0.6-0.6-0.9-2.1-1.1c-2.4-0.4-6.1-1-6.1-4.7
			c0-2.5,2.1-4.8,6.1-4.8c2.4,0,4.6,0.7,6.2,2l-2.4,3.1c-1.3-1-2.9-1.5-4.1-1.5c-1.1,0-1.3,0.4-1.3,0.8c0,0.6,0.6,0.8,2.2,1
			c2.4,0.4,6,1.1,6,4.5c0,3.2-2.4,5.1-6.3,5.1c-3.1,0-5.3-0.9-6.8-2.3L145.4,163z"/>
		<path class="st13" d="M162.7,157.5c3.1,0,5.5,2.2,5.5,6v0.8H161c0.2,0.7,1,1.3,2.3,1.3c0.9,0,1.9-0.3,2.4-0.7l1.6,2.4
			c-1.1,0.9-2.9,1.3-4.5,1.3c-3.3,0-5.9-2.1-5.9-5.6C156.9,159.9,159.2,157.5,162.7,157.5z M160.9,161.8h3.5
			c-0.1-0.5-0.5-1.3-1.8-1.3C161.5,160.5,161.1,161.3,160.9,161.8z"/>
		<path class="st13" d="M169.6,157.7h4v1.2c0.7-0.8,2-1.5,3.3-1.5v3.8c-0.2-0.1-0.5-0.1-0.9-0.1c-0.8,0-1.9,0.2-2.4,0.7v6.5h-4
			V157.7z"/>
		<path class="st13" d="M176.7,157.7h4.2l2,6.1l2-6.1h4.2l-4.1,10.6h-4.2L176.7,157.7z"/>
		<path class="st13" d="M195,157.5c3.1,0,5.5,2.2,5.5,6v0.8h-7.2c0.2,0.7,1,1.3,2.3,1.3c0.9,0,1.9-0.3,2.4-0.7l1.6,2.4
			c-1.1,0.9-2.9,1.3-4.5,1.3c-3.3,0-5.9-2.1-5.9-5.6C189.2,159.9,191.5,157.5,195,157.5z M193.2,161.8h3.5c-0.1-0.5-0.5-1.3-1.8-1.3
			C193.8,160.5,193.4,161.3,193.2,161.8z"/>
		<path class="st13" d="M201.9,157.7h4v1.2c0.7-0.8,2-1.5,3.3-1.5v3.8c-0.2-0.1-0.5-0.1-0.9-0.1c-0.8,0-1.9,0.2-2.4,0.7v6.5h-4
			V157.7z"/>
		<path class="st13" d="M216.1,153.7h11.1v3.7h-6.7v1.7h6.5v3.7h-6.5v1.9h6.7v3.7h-11.1V153.7z"/>
		<path class="st13" d="M229.2,157.7h4v1.2c0.7-0.8,2-1.5,3.3-1.5v3.8c-0.2-0.1-0.5-0.1-0.9-0.1c-0.8,0-1.9,0.2-2.4,0.7v6.5h-4
			V157.7z"/>
		<path class="st13" d="M237.7,157.7h4v1.2c0.7-0.8,2-1.5,3.3-1.5v3.8c-0.2-0.1-0.5-0.1-0.9-0.1c-0.8,0-1.9,0.2-2.4,0.7v6.5h-4
			V157.7z"/>
		<path class="st13" d="M245.6,163c0-3,2.2-5.6,6-5.6c3.8,0,6,2.6,6,5.6c0,3-2.2,5.6-6,5.6C247.8,168.6,245.6,166,245.6,163z
			 M253.5,163c0-1.2-0.7-2.1-1.9-2.1c-1.2,0-1.9,0.9-1.9,2.1c0,1.2,0.7,2.1,1.9,2.1C252.8,165.1,253.5,164.2,253.5,163z"/>
		<path class="st13" d="M259,157.7h4v1.2c0.7-0.8,2-1.5,3.3-1.5v3.8c-0.2-0.1-0.5-0.1-0.9-0.1c-0.8,0-1.9,0.2-2.4,0.7v6.5h-4V157.7z
			"/>
	</g>
	<g>
		<path class="st13" d="M59,186.9h-2.2v-0.5h4.9v0.5h-2.2v6.1H59V186.9z"/>
		<path class="st13" d="M66.2,189.7c0-0.9-0.5-1.2-1.2-1.2c-0.6,0-1.3,0.4-1.6,0.8v3.6h-0.5v-6.7h0.5v2.6c0.4-0.4,1-0.8,1.7-0.8
			c1,0,1.5,0.5,1.5,1.5v3.4h-0.5V189.7z"/>
		<path class="st13" d="M70.4,188.1c1.5,0,2.3,1.2,2.3,2.6v0.1h-4c0,1,0.7,1.9,1.9,1.9c0.6,0,1.2-0.2,1.6-0.7l0.3,0.3
			c-0.5,0.5-1.1,0.8-1.9,0.8c-1.4,0-2.4-1-2.4-2.5C68.1,189.2,69.1,188.1,70.4,188.1z M68.6,190.4h3.5c0-0.8-0.5-1.8-1.8-1.8
			C69.2,188.5,68.7,189.5,68.6,190.4z"/>
		<path class="st13" d="M76.5,192c0.3,0.4,0.9,0.7,1.6,0.7c0.8,0,1.3-0.4,1.3-1c0-0.6-0.7-0.8-1.3-1c-0.8-0.2-1.7-0.4-1.7-1.3
			c0-0.7,0.6-1.3,1.7-1.3c0.8,0,1.4,0.3,1.7,0.7l-0.3,0.4c-0.3-0.4-0.8-0.6-1.4-0.6c-0.7,0-1.2,0.4-1.2,0.9c0,0.5,0.6,0.7,1.3,0.9
			c0.8,0.2,1.8,0.4,1.8,1.5c0,0.8-0.6,1.4-1.8,1.4c-0.8,0-1.4-0.2-1.9-0.8L76.5,192z"/>
		<path class="st13" d="M83.2,188.1c1.5,0,2.3,1.2,2.3,2.6v0.1h-4c0,1,0.7,1.9,1.9,1.9c0.6,0,1.2-0.2,1.6-0.7l0.3,0.3
			c-0.5,0.5-1.1,0.8-1.9,0.8c-1.4,0-2.4-1-2.4-2.5C80.9,189.2,81.9,188.1,83.2,188.1z M81.5,190.4H85c0-0.8-0.5-1.8-1.8-1.8
			C82.1,188.5,81.5,189.5,81.5,190.4z"/>
		<path class="st13" d="M86.9,188.2h0.5v0.8c0.4-0.5,1-0.9,1.6-0.9v0.6c-0.1,0-0.2,0-0.3,0c-0.5,0-1.1,0.4-1.4,0.9v3.5h-0.5V188.2z"
			/>
		<path class="st13" d="M89.3,188.2h0.6l1.8,4.2l1.7-4.2H94l-2,4.8h-0.6L89.3,188.2z"/>
		<path class="st13" d="M96.9,188.1c1.5,0,2.3,1.2,2.3,2.6v0.1h-4c0,1,0.7,1.9,1.9,1.9c0.6,0,1.2-0.2,1.6-0.7l0.3,0.3
			c-0.5,0.5-1.1,0.8-1.9,0.8c-1.4,0-2.4-1-2.4-2.5C94.6,189.2,95.6,188.1,96.9,188.1z M95.1,190.4h3.5c0-0.8-0.5-1.8-1.8-1.8
			C95.7,188.5,95.2,189.5,95.1,190.4z"/>
		<path class="st13" d="M100.5,188.2h0.5v0.8c0.4-0.5,1-0.9,1.6-0.9v0.6c-0.1,0-0.2,0-0.3,0c-0.5,0-1.1,0.4-1.4,0.9v3.5h-0.5V188.2z
			"/>
		<path class="st13" d="M108.3,188.1c1.5,0,2.3,1.2,2.3,2.6v0.1h-4c0,1,0.7,1.9,1.9,1.9c0.6,0,1.2-0.2,1.6-0.7l0.3,0.3
			c-0.5,0.5-1.1,0.8-1.9,0.8c-1.4,0-2.4-1-2.4-2.5C106,189.2,107,188.1,108.3,188.1z M106.6,190.4h3.5c0-0.8-0.5-1.8-1.8-1.8
			C107.2,188.5,106.6,189.5,106.6,190.4z"/>
		<path class="st13" d="M115.2,189.8c0-0.9-0.5-1.2-1.2-1.2c-0.6,0-1.3,0.4-1.6,0.8v3.6h-0.5v-4.8h0.5v0.7c0.4-0.4,1-0.8,1.7-0.8
			c1,0,1.5,0.5,1.5,1.6v3.4h-0.5V189.8z"/>
		<path class="st13" d="M119.4,188.1c0.8,0,1.3,0.3,1.7,0.8l-0.4,0.3c-0.3-0.5-0.8-0.7-1.3-0.7c-1.1,0-1.8,0.9-1.8,2.1
			c0,1.2,0.7,2.1,1.8,2.1c0.5,0,1-0.2,1.3-0.7l0.4,0.3c-0.4,0.5-0.9,0.8-1.7,0.8c-1.4,0-2.3-1.1-2.3-2.5
			C117.1,189.2,118,188.1,119.4,188.1z"/>
		<path class="st13" d="M122,190.6c0-1.4,0.9-2.5,2.3-2.5c1.4,0,2.3,1.1,2.3,2.5c0,1.4-0.9,2.5-2.3,2.5
			C122.9,193.1,122,192,122,190.6z M126.1,190.6c0-1.1-0.6-2.1-1.8-2.1c-1.1,0-1.8,1-1.8,2.1c0,1.1,0.6,2.1,1.8,2.1
			C125.5,192.7,126.1,191.7,126.1,190.6z"/>
		<path class="st13" d="M131.3,192.3c-0.4,0.4-1,0.8-1.7,0.8c-1,0-1.5-0.5-1.5-1.5v-3.4h0.5v3.3c0,0.9,0.5,1.2,1.2,1.2
			c0.6,0,1.2-0.4,1.6-0.8v-3.7h0.5v4.8h-0.5V192.3z"/>
		<path class="st13" d="M136.7,189.8c0-0.9-0.5-1.2-1.2-1.2c-0.6,0-1.3,0.4-1.6,0.8v3.6h-0.5v-4.8h0.5v0.7c0.4-0.4,1-0.8,1.7-0.8
			c1,0,1.5,0.5,1.5,1.6v3.4h-0.5V189.8z"/>
		<path class="st13" d="M138.9,192.1v-3.4h-0.8v-0.5h0.8v-1.3h0.5v1.3h1v0.5h-1v3.4c0,0.4,0.2,0.7,0.5,0.7c0.2,0,0.4-0.1,0.5-0.2
			l0.2,0.4c-0.2,0.2-0.4,0.3-0.8,0.3C139.2,193.1,138.9,192.8,138.9,192.1z"/>
		<path class="st13" d="M143.6,188.1c1.5,0,2.3,1.2,2.3,2.6v0.1h-4c0,1,0.7,1.9,1.9,1.9c0.6,0,1.2-0.2,1.6-0.7l0.3,0.3
			c-0.5,0.5-1.1,0.8-1.9,0.8c-1.4,0-2.4-1-2.4-2.5C141.3,189.2,142.3,188.1,143.6,188.1z M141.8,190.4h3.5c0-0.8-0.5-1.8-1.8-1.8
			C142.4,188.5,141.9,189.5,141.8,190.4z"/>
		<path class="st13" d="M147.2,188.2h0.5v0.8c0.4-0.5,1-0.9,1.6-0.9v0.6c-0.1,0-0.2,0-0.3,0c-0.5,0-1.1,0.4-1.4,0.9v3.5h-0.5V188.2z
			"/>
		<path class="st13" d="M152.4,188.1c1.5,0,2.3,1.2,2.3,2.6v0.1h-4c0,1,0.7,1.9,1.9,1.9c0.6,0,1.2-0.2,1.6-0.7l0.3,0.3
			c-0.5,0.5-1.1,0.8-1.9,0.8c-1.4,0-2.4-1-2.4-2.5C150.1,189.2,151.1,188.1,152.4,188.1z M150.7,190.4h3.5c0-0.8-0.5-1.8-1.8-1.8
			C151.3,188.5,150.7,189.5,150.7,190.4z"/>
		<path class="st13" d="M159.6,192.3c-0.3,0.5-1,0.9-1.7,0.9c-1.3,0-2.2-1-2.2-2.5c0-1.5,0.9-2.5,2.2-2.5c0.7,0,1.3,0.3,1.7,0.9
			v-2.6h0.5v6.7h-0.5V192.3z M159.6,189.4c-0.3-0.5-0.9-0.9-1.6-0.9c-1.1,0-1.7,0.9-1.7,2.1s0.6,2.1,1.7,2.1c0.7,0,1.3-0.4,1.6-0.9
			V189.4z"/>
		<path class="st13" d="M167.4,192.5c-0.4,0.5-1,0.7-1.6,0.7c-0.8,0-1.7-0.6-1.7-1.6c0-1,0.8-1.6,1.7-1.6c0.7,0,1.2,0.2,1.6,0.7v-1
			c0-0.7-0.6-1.1-1.3-1.1c-0.6,0-1.1,0.2-1.5,0.7l-0.3-0.4c0.5-0.5,1.1-0.8,1.9-0.8c1,0,1.8,0.5,1.8,1.5v3.4h-0.5V192.5z M167.4,191
			c-0.3-0.4-0.9-0.7-1.5-0.7c-0.8,0-1.3,0.5-1.3,1.2c0,0.7,0.5,1.2,1.3,1.2c0.6,0,1.1-0.2,1.5-0.7V191z"/>
		<path class="st13" d="M172.8,189.8c0-0.9-0.5-1.2-1.2-1.2c-0.6,0-1.3,0.4-1.6,0.8v3.6h-0.5v-4.8h0.5v0.7c0.4-0.4,1-0.8,1.7-0.8
			c1,0,1.5,0.5,1.5,1.6v3.4h-0.5V189.8z"/>
		<path class="st13" d="M177.4,187c0-0.2,0.2-0.4,0.4-0.4c0.2,0,0.4,0.2,0.4,0.4c0,0.2-0.2,0.4-0.4,0.4
			C177.6,187.4,177.4,187.2,177.4,187z M177.6,188.2h0.5v4.8h-0.5V188.2z"/>
		<path class="st13" d="M183,189.8c0-0.9-0.5-1.2-1.2-1.2c-0.6,0-1.3,0.4-1.6,0.8v3.6h-0.5v-4.8h0.5v0.7c0.4-0.4,1-0.8,1.7-0.8
			c1,0,1.5,0.5,1.5,1.6v3.4H183V189.8z"/>
		<path class="st13" d="M185.2,192.1v-3.4h-0.8v-0.5h0.8v-1.3h0.5v1.3h1v0.5h-1v3.4c0,0.4,0.2,0.7,0.5,0.7c0.2,0,0.4-0.1,0.5-0.2
			l0.2,0.4c-0.2,0.2-0.4,0.3-0.8,0.3C185.5,193.1,185.2,192.8,185.2,192.1z"/>
		<path class="st13" d="M189.9,188.1c1.5,0,2.3,1.2,2.3,2.6v0.1h-4c0,1,0.7,1.9,1.9,1.9c0.6,0,1.2-0.2,1.6-0.7l0.3,0.3
			c-0.5,0.5-1.1,0.8-1.9,0.8c-1.4,0-2.4-1-2.4-2.5C187.6,189.2,188.6,188.1,189.9,188.1z M188.1,190.4h3.5c0-0.8-0.5-1.8-1.8-1.8
			C188.7,188.5,188.2,189.5,188.1,190.4z"/>
		<path class="st13" d="M193.5,188.2h0.5v0.8c0.4-0.5,1-0.9,1.6-0.9v0.6c-0.1,0-0.2,0-0.3,0c-0.5,0-1.1,0.4-1.4,0.9v3.5h-0.5V188.2z
			"/>
		<path class="st13" d="M199.9,189.8c0-0.9-0.5-1.2-1.2-1.2c-0.6,0-1.3,0.4-1.6,0.8v3.6h-0.5v-4.8h0.5v0.7c0.4-0.4,1-0.8,1.7-0.8
			c1,0,1.5,0.5,1.5,1.6v3.4h-0.5V189.8z"/>
		<path class="st13" d="M205.2,192.5c-0.4,0.5-1,0.7-1.6,0.7c-0.8,0-1.7-0.6-1.7-1.6c0-1,0.8-1.6,1.7-1.6c0.7,0,1.2,0.2,1.6,0.7v-1
			c0-0.7-0.6-1.1-1.3-1.1c-0.6,0-1.1,0.2-1.5,0.7l-0.3-0.4c0.5-0.5,1.1-0.8,1.9-0.8c1,0,1.8,0.5,1.8,1.5v3.4h-0.5V192.5z M205.2,191
			c-0.3-0.4-0.9-0.7-1.5-0.7c-0.8,0-1.3,0.5-1.3,1.2c0,0.7,0.5,1.2,1.3,1.2c0.6,0,1.1-0.2,1.5-0.7V191z"/>
		<path class="st13" d="M207.3,186.4h0.5v6.7h-0.5V186.4z"/>
		<path class="st13" d="M214.1,188.1c1.5,0,2.3,1.2,2.3,2.6v0.1h-4c0,1,0.7,1.9,1.9,1.9c0.6,0,1.2-0.2,1.6-0.7l0.3,0.3
			c-0.5,0.5-1.1,0.8-1.9,0.8c-1.4,0-2.4-1-2.4-2.5C211.7,189.2,212.7,188.1,214.1,188.1z M212.3,190.4h3.5c0-0.8-0.5-1.8-1.8-1.8
			C212.9,188.5,212.4,189.5,212.3,190.4z"/>
		<path class="st13" d="M217.7,188.2h0.5v0.8c0.4-0.5,1-0.9,1.6-0.9v0.6c-0.1,0-0.2,0-0.3,0c-0.5,0-1.1,0.4-1.4,0.9v3.5h-0.5V188.2z
			"/>
		<path class="st13" d="M220.9,188.2h0.5v0.8c0.4-0.5,1-0.9,1.6-0.9v0.6c-0.1,0-0.2,0-0.3,0c-0.5,0-1.1,0.4-1.4,0.9v3.5h-0.5V188.2z
			"/>
		<path class="st13" d="M223.8,190.6c0-1.4,0.9-2.5,2.3-2.5c1.4,0,2.3,1.1,2.3,2.5c0,1.4-0.9,2.5-2.3,2.5
			C224.7,193.1,223.8,192,223.8,190.6z M227.8,190.6c0-1.1-0.6-2.1-1.8-2.1c-1.1,0-1.8,1-1.8,2.1c0,1.1,0.6,2.1,1.8,2.1
			C227.2,192.7,227.8,191.7,227.8,190.6z"/>
		<path class="st13" d="M229.7,188.2h0.5v0.8c0.4-0.5,1-0.9,1.6-0.9v0.6c-0.1,0-0.2,0-0.3,0c-0.5,0-1.1,0.4-1.4,0.9v3.5h-0.5V188.2z
			"/>
		<path class="st13" d="M235.2,190.6c0-1.4,0.9-2.5,2.3-2.5c1.4,0,2.3,1.1,2.3,2.5c0,1.4-0.9,2.5-2.3,2.5
			C236.1,193.1,235.2,192,235.2,190.6z M239.3,190.6c0-1.1-0.6-2.1-1.8-2.1c-1.1,0-1.8,1-1.8,2.1c0,1.1,0.6,2.1,1.8,2.1
			C238.7,192.7,239.3,191.7,239.3,190.6z"/>
		<path class="st13" d="M241.2,188.2h0.5v0.8c0.4-0.5,1-0.9,1.6-0.9v0.6c-0.1,0-0.2,0-0.3,0c-0.5,0-1.1,0.4-1.4,0.9v3.5h-0.5V188.2z
			"/>
		<path class="st13" d="M252.7,189.6c0-0.7-0.3-1.1-1-1.1c-0.5,0-1.1,0.4-1.4,0.8v3.7h-0.5v-3.4c0-0.7-0.3-1.1-1-1.1
			c-0.5,0-1.1,0.4-1.4,0.8v3.6H247v-4.8h0.5v0.7c0.2-0.3,0.9-0.8,1.6-0.8c0.7,0,1.1,0.4,1.3,0.9c0.3-0.4,0.9-0.9,1.6-0.9
			c0.9,0,1.3,0.5,1.3,1.5v3.5h-0.5V189.6z"/>
		<path class="st13" d="M254.7,187c0-0.2,0.2-0.4,0.4-0.4c0.2,0,0.4,0.2,0.4,0.4c0,0.2-0.2,0.4-0.4,0.4
			C254.9,187.4,254.7,187.2,254.7,187z M254.9,188.2h0.5v4.8h-0.5V188.2z"/>
		<path class="st13" d="M256.9,192c0.3,0.4,0.9,0.7,1.6,0.7c0.8,0,1.3-0.4,1.3-1c0-0.6-0.7-0.8-1.3-1c-0.8-0.2-1.7-0.4-1.7-1.3
			c0-0.7,0.6-1.3,1.7-1.3c0.8,0,1.4,0.3,1.7,0.7l-0.3,0.4c-0.3-0.4-0.8-0.6-1.4-0.6c-0.8,0-1.2,0.4-1.2,0.9c0,0.5,0.6,0.7,1.3,0.9
			c0.8,0.2,1.8,0.4,1.8,1.5c0,0.8-0.6,1.4-1.8,1.4c-0.8,0-1.4-0.2-1.9-0.8L256.9,192z"/>
		<path class="st13" d="M263.7,188.1c0.8,0,1.3,0.3,1.7,0.8l-0.4,0.3c-0.3-0.5-0.8-0.7-1.3-0.7c-1.1,0-1.8,0.9-1.8,2.1
			c0,1.2,0.7,2.1,1.8,2.1c0.5,0,1-0.2,1.3-0.7l0.4,0.3c-0.4,0.5-0.9,0.8-1.7,0.8c-1.4,0-2.3-1.1-2.3-2.5
			C261.3,189.2,262.2,188.1,263.7,188.1z"/>
		<path class="st13" d="M266.3,190.6c0-1.4,0.9-2.5,2.3-2.5c1.4,0,2.3,1.1,2.3,2.5c0,1.4-0.9,2.5-2.3,2.5
			C267.2,193.1,266.3,192,266.3,190.6z M270.3,190.6c0-1.1-0.6-2.1-1.8-2.1c-1.1,0-1.8,1-1.8,2.1c0,1.1,0.6,2.1,1.8,2.1
			C269.7,192.7,270.3,191.7,270.3,190.6z"/>
		<path class="st13" d="M275.5,189.8c0-0.9-0.5-1.2-1.2-1.2c-0.6,0-1.3,0.4-1.6,0.8v3.6h-0.5v-4.8h0.5v0.7c0.3-0.4,1-0.8,1.7-0.8
			c1,0,1.5,0.5,1.5,1.6v3.4h-0.5V189.8z"/>
		<path class="st13" d="M277.8,188.7H277v-0.5h0.8v-0.4c0-0.9,0.5-1.5,1.3-1.5c0.2,0,0.5,0,0.6,0.1l-0.2,0.4
			c-0.1-0.1-0.3-0.1-0.4-0.1c-0.5,0-0.8,0.4-0.8,1v0.4h1v0.5h-1v4.4h-0.5V188.7z M280.2,187c0-0.2,0.2-0.4,0.4-0.4
			c0.2,0,0.4,0.2,0.4,0.4c0,0.2-0.2,0.4-0.4,0.4C280.3,187.4,280.2,187.2,280.2,187z M280.3,188.2h0.5v4.8h-0.5V188.2z"/>
		<path class="st13" d="M282.7,193.9c0.4,0.5,0.9,0.7,1.6,0.7c0.9,0,1.6-0.4,1.6-1.5v-0.8c-0.3,0.5-1,0.9-1.7,0.9
			c-1.3,0-2.2-1-2.2-2.5c0-1.5,0.9-2.5,2.2-2.5c0.7,0,1.3,0.3,1.7,0.9v-0.8h0.5v4.8c0,1.5-1,2-2.2,2c-0.8,0-1.3-0.1-1.9-0.7
			L282.7,193.9z M286,189.4c-0.3-0.5-0.9-0.9-1.6-0.9c-1.1,0-1.7,0.9-1.7,2.1c0,1.2,0.6,2,1.7,2c0.7,0,1.3-0.4,1.6-0.9V189.4z"/>
		<path class="st13" d="M291.4,192.3c-0.4,0.4-1,0.8-1.7,0.8c-1,0-1.5-0.5-1.5-1.5v-3.4h0.5v3.3c0,0.9,0.5,1.2,1.2,1.2
			c0.6,0,1.2-0.4,1.6-0.8v-3.7h0.5v4.8h-0.5V192.3z"/>
		<path class="st13" d="M293.5,188.2h0.5v0.8c0.4-0.5,1-0.9,1.6-0.9v0.6c-0.1,0-0.2,0-0.3,0c-0.5,0-1.1,0.4-1.4,0.9v3.5h-0.5V188.2z
			"/>
		<path class="st13" d="M299.8,192.5c-0.4,0.5-1,0.7-1.6,0.7c-0.8,0-1.7-0.6-1.7-1.6c0-1,0.8-1.6,1.7-1.6c0.7,0,1.2,0.2,1.6,0.7v-1
			c0-0.7-0.6-1.1-1.3-1.1c-0.6,0-1.1,0.2-1.5,0.7l-0.3-0.4c0.5-0.5,1.1-0.8,1.9-0.8c1,0,1.8,0.5,1.8,1.5v3.4h-0.5V192.5z M299.8,191
			c-0.3-0.4-0.9-0.7-1.5-0.7c-0.8,0-1.3,0.5-1.3,1.2c0,0.7,0.5,1.2,1.3,1.2c0.6,0,1.1-0.2,1.5-0.7V191z"/>
		<path class="st13" d="M302,192.1v-3.4h-0.8v-0.5h0.8v-1.3h0.5v1.3h1v0.5h-1v3.4c0,0.4,0.2,0.7,0.5,0.7c0.2,0,0.4-0.1,0.5-0.2
			l0.2,0.4c-0.2,0.2-0.4,0.3-0.8,0.3C302.3,193.1,302,192.8,302,192.1z"/>
		<path class="st13" d="M304.5,187c0-0.2,0.2-0.4,0.4-0.4c0.2,0,0.4,0.2,0.4,0.4c0,0.2-0.2,0.4-0.4,0.4
			C304.7,187.4,304.5,187.2,304.5,187z M304.7,188.2h0.5v4.8h-0.5V188.2z"/>
		<path class="st13" d="M306.5,190.6c0-1.4,0.9-2.5,2.3-2.5c1.4,0,2.3,1.1,2.3,2.5c0,1.4-0.9,2.5-2.3,2.5
			C307.4,193.1,306.5,192,306.5,190.6z M310.6,190.6c0-1.1-0.6-2.1-1.8-2.1c-1.1,0-1.8,1-1.8,2.1c0,1.1,0.6,2.1,1.8,2.1
			C310,192.7,310.6,191.7,310.6,190.6z"/>
		<path class="st13" d="M315.8,189.8c0-0.9-0.5-1.2-1.2-1.2c-0.6,0-1.3,0.4-1.6,0.8v3.6h-0.5v-4.8h0.5v0.7c0.3-0.4,1-0.8,1.7-0.8
			c1,0,1.5,0.5,1.5,1.6v3.4h-0.5V189.8z"/>
		<path class="st13" d="M323.6,192.5c-0.4,0.5-1,0.7-1.6,0.7c-0.8,0-1.7-0.6-1.7-1.6c0-1,0.8-1.6,1.7-1.6c0.7,0,1.2,0.2,1.6,0.7v-1
			c0-0.7-0.6-1.1-1.3-1.1c-0.6,0-1.1,0.2-1.5,0.7l-0.3-0.4c0.5-0.5,1.1-0.8,1.9-0.8c1,0,1.8,0.5,1.8,1.5v3.4h-0.5V192.5z M323.6,191
			c-0.3-0.4-0.9-0.7-1.5-0.7c-0.8,0-1.3,0.5-1.3,1.2c0,0.7,0.5,1.2,1.3,1.2c0.6,0,1.1-0.2,1.5-0.7V191z"/>
		<path class="st13" d="M329,189.8c0-0.9-0.5-1.2-1.2-1.2c-0.6,0-1.3,0.4-1.6,0.8v3.6h-0.5v-4.8h0.5v0.7c0.3-0.4,1-0.8,1.7-0.8
			c1,0,1.5,0.5,1.5,1.6v3.4H329V189.8z"/>
		<path class="st13" d="M334.7,192.3c-0.3,0.5-1,0.9-1.7,0.9c-1.3,0-2.2-1-2.2-2.5c0-1.5,0.9-2.5,2.2-2.5c0.7,0,1.3,0.3,1.7,0.9
			v-2.6h0.5v6.7h-0.5V192.3z M334.7,189.4c-0.3-0.5-0.9-0.9-1.6-0.9c-1.1,0-1.7,0.9-1.7,2.1s0.6,2.1,1.7,2.1c0.7,0,1.3-0.4,1.6-0.9
			V189.4z"/>
		<path class="st13" d="M342.2,188.9l-1.4,4.1h-0.5l-1.6-4.8h0.6l1.3,4.1l1.4-4.1h0.5l1.4,4.1l1.3-4.1h0.6L344,193h-0.5L342.2,188.9
			z"/>
		<path class="st13" d="M349.7,192.5c-0.4,0.5-1,0.7-1.6,0.7c-0.8,0-1.7-0.6-1.7-1.6c0-1,0.8-1.6,1.7-1.6c0.7,0,1.2,0.2,1.6,0.7v-1
			c0-0.7-0.6-1.1-1.3-1.1c-0.6,0-1.1,0.2-1.5,0.7l-0.3-0.4c0.5-0.5,1.1-0.8,1.9-0.8c1,0,1.8,0.5,1.8,1.5v3.4h-0.5V192.5z M349.7,191
			c-0.3-0.4-0.9-0.7-1.5-0.7c-0.8,0-1.3,0.5-1.3,1.2c0,0.7,0.5,1.2,1.3,1.2c0.6,0,1.1-0.2,1.5-0.7V191z"/>
		<path class="st13" d="M351.7,192c0.3,0.4,0.9,0.7,1.6,0.7c0.8,0,1.3-0.4,1.3-1c0-0.6-0.7-0.8-1.3-1c-0.8-0.2-1.7-0.4-1.7-1.3
			c0-0.7,0.6-1.3,1.7-1.3c0.8,0,1.4,0.3,1.7,0.7l-0.3,0.4c-0.3-0.4-0.8-0.6-1.4-0.6c-0.8,0-1.2,0.4-1.2,0.9c0,0.5,0.6,0.7,1.3,0.9
			c0.8,0.2,1.8,0.4,1.8,1.5c0,0.8-0.6,1.4-1.8,1.4c-0.8,0-1.4-0.2-1.9-0.8L351.7,192z"/>
		<path class="st13" d="M60.6,204.3c-0.4,0.4-1,0.8-1.7,0.8c-1,0-1.5-0.5-1.5-1.5v-3.4h0.5v3.3c0,0.9,0.5,1.2,1.2,1.2
			c0.6,0,1.2-0.4,1.6-0.8v-3.7h0.5v4.8h-0.5V204.3z"/>
		<path class="st13" d="M66,201.8c0-0.9-0.5-1.2-1.2-1.2c-0.6,0-1.3,0.4-1.6,0.8v3.6h-0.5v-4.8h0.5v0.7c0.4-0.4,1-0.8,1.7-0.8
			c1,0,1.5,0.5,1.5,1.6v3.4H66V201.8z"/>
		<path class="st13" d="M71.2,204.5c-0.4,0.5-1,0.7-1.6,0.7c-0.8,0-1.7-0.6-1.7-1.6c0-1,0.8-1.6,1.7-1.6c0.7,0,1.2,0.2,1.6,0.7v-1
			c0-0.7-0.6-1.1-1.3-1.1c-0.6,0-1.1,0.2-1.5,0.7l-0.3-0.4c0.5-0.5,1.1-0.8,1.9-0.8c1,0,1.8,0.5,1.8,1.5v3.4h-0.5V204.5z M71.2,203
			c-0.3-0.4-0.9-0.7-1.5-0.7c-0.8,0-1.3,0.5-1.3,1.2c0,0.7,0.5,1.2,1.3,1.2c0.6,0,1.1-0.2,1.5-0.7V203z"/>
		<path class="st13" d="M73.3,198.4h0.5v2.6c0.4-0.5,1-0.9,1.7-0.9c1.3,0,2.2,1,2.2,2.5c0,1.5-0.9,2.5-2.2,2.5
			c-0.7,0-1.3-0.4-1.7-0.9v0.8h-0.5V198.4z M75.4,204.7c1.1,0,1.7-0.9,1.7-2.1s-0.6-2.1-1.7-2.1c-0.7,0-1.3,0.4-1.6,0.9v2.4
			C74.1,204.3,74.8,204.7,75.4,204.7z"/>
		<path class="st13" d="M79,198.4h0.5v6.7H79V198.4z"/>
		<path class="st13" d="M83.2,200.1c1.5,0,2.3,1.2,2.3,2.6v0.1h-4c0,1,0.7,1.9,1.9,1.9c0.6,0,1.2-0.2,1.6-0.7l0.3,0.3
			c-0.5,0.5-1.1,0.8-1.9,0.8c-1.4,0-2.4-1-2.4-2.5C80.9,201.2,81.9,200.1,83.2,200.1z M81.5,202.4H85c0-0.8-0.5-1.8-1.8-1.8
			C82.1,200.5,81.5,201.5,81.5,202.4z"/>
		<path class="st13" d="M89.5,204.1v-3.4h-0.8v-0.5h0.8v-1.3h0.5v1.3h1v0.5h-1v3.4c0,0.4,0.2,0.7,0.5,0.7c0.2,0,0.4-0.1,0.5-0.2
			l0.2,0.4c-0.2,0.2-0.4,0.3-0.8,0.3C89.8,205.1,89.5,204.8,89.5,204.1z"/>
		<path class="st13" d="M91.9,202.6c0-1.4,0.9-2.5,2.3-2.5c1.4,0,2.3,1.1,2.3,2.5c0,1.4-0.9,2.5-2.3,2.5
			C92.8,205.1,91.9,204,91.9,202.6z M96,202.6c0-1.1-0.6-2.1-1.8-2.1c-1.1,0-1.8,1-1.8,2.1c0,1.1,0.6,2.1,1.8,2.1
			C95.4,204.7,96,203.7,96,202.6z"/>
		<path class="st13" d="M102.5,200.1c0.8,0,1.3,0.3,1.7,0.8l-0.4,0.3c-0.3-0.5-0.8-0.7-1.3-0.7c-1.1,0-1.8,0.9-1.8,2.1
			c0,1.2,0.7,2.1,1.8,2.1c0.5,0,1-0.2,1.3-0.7l0.4,0.3c-0.4,0.5-0.9,0.8-1.7,0.8c-1.4,0-2.3-1.1-2.3-2.5
			C100.2,201.2,101.1,200.1,102.5,200.1z"/>
		<path class="st13" d="M105.1,202.6c0-1.4,0.9-2.5,2.3-2.5c1.4,0,2.3,1.1,2.3,2.5c0,1.4-0.9,2.5-2.3,2.5
			C106,205.1,105.1,204,105.1,202.6z M109.2,202.6c0-1.1-0.6-2.1-1.8-2.1c-1.1,0-1.8,1-1.8,2.1c0,1.1,0.6,2.1,1.8,2.1
			C108.6,204.7,109.2,203.7,109.2,202.6z"/>
		<path class="st13" d="M116.9,201.6c0-0.7-0.3-1.1-1-1.1c-0.5,0-1.1,0.4-1.4,0.8v3.7H114v-3.4c0-0.7-0.3-1.1-1-1.1
			c-0.5,0-1.1,0.4-1.4,0.8v3.6h-0.5v-4.8h0.5v0.7c0.2-0.3,0.9-0.8,1.6-0.8c0.8,0,1.1,0.4,1.3,0.9c0.3-0.4,0.9-0.9,1.6-0.9
			c0.9,0,1.3,0.5,1.3,1.5v3.5h-0.5V201.6z"/>
		<path class="st13" d="M119,206.9v-6.7h0.5v0.8c0.3-0.5,1-0.9,1.7-0.9c1.3,0,2.2,1,2.2,2.5c0,1.5-0.9,2.5-2.2,2.5
			c-0.7,0-1.3-0.4-1.7-0.9v2.6H119z M121.1,200.5c-0.7,0-1.3,0.4-1.6,0.9v2.4c0.3,0.5,0.9,0.9,1.6,0.9c1.1,0,1.7-0.9,1.7-2.1
			C122.8,201.4,122.2,200.5,121.1,200.5z"/>
		<path class="st13" d="M124.7,198.4h0.5v6.7h-0.5V198.4z"/>
		<path class="st13" d="M128.9,200.1c1.5,0,2.3,1.2,2.3,2.6v0.1h-4c0,1,0.7,1.9,1.9,1.9c0.6,0,1.2-0.2,1.6-0.7l0.3,0.3
			c-0.5,0.5-1.1,0.8-1.9,0.8c-1.4,0-2.4-1-2.4-2.5C126.6,201.2,127.6,200.1,128.9,200.1z M127.1,202.4h3.5c0-0.8-0.5-1.8-1.8-1.8
			C127.8,200.5,127.2,201.5,127.1,202.4z"/>
		<path class="st13" d="M132.6,204.1v-3.4h-0.8v-0.5h0.8v-1.3h0.5v1.3h1v0.5h-1v3.4c0,0.4,0.2,0.7,0.5,0.7c0.2,0,0.4-0.1,0.5-0.2
			l0.2,0.4c-0.2,0.2-0.4,0.3-0.8,0.3C132.9,205.1,132.6,204.8,132.6,204.1z"/>
		<path class="st13" d="M137.3,200.1c1.5,0,2.3,1.2,2.3,2.6v0.1h-4c0,1,0.7,1.9,1.9,1.9c0.6,0,1.2-0.2,1.6-0.7l0.3,0.3
			c-0.5,0.5-1.1,0.8-1.9,0.8c-1.4,0-2.4-1-2.4-2.5C135,201.2,136,200.1,137.3,200.1z M135.6,202.4h3.5c0-0.8-0.5-1.8-1.8-1.8
			C136.2,200.5,135.6,201.5,135.6,202.4z"/>
		<path class="st13" d="M143.7,206.5c0.3,0,0.5-0.1,0.7-0.6l0.4-0.9l-2-4.9h0.6l1.8,4.2l1.7-4.2h0.6l-2.5,5.9
			c-0.3,0.6-0.7,0.9-1.2,0.9c-0.2,0-0.4,0-0.5-0.1l0.1-0.5C143.4,206.5,143.6,206.5,143.7,206.5z"/>
		<path class="st13" d="M148.1,202.6c0-1.4,0.9-2.5,2.3-2.5c1.4,0,2.3,1.1,2.3,2.5c0,1.4-0.9,2.5-2.3,2.5
			C149,205.1,148.1,204,148.1,202.6z M152.2,202.6c0-1.1-0.6-2.1-1.8-2.1c-1.1,0-1.8,1-1.8,2.1c0,1.1,0.6,2.1,1.8,2.1
			C151.5,204.7,152.2,203.7,152.2,202.6z"/>
		<path class="st13" d="M157.3,204.3c-0.4,0.4-1,0.8-1.7,0.8c-1,0-1.5-0.5-1.5-1.5v-3.4h0.5v3.3c0,0.9,0.5,1.2,1.2,1.2
			c0.6,0,1.2-0.4,1.6-0.8v-3.7h0.5v4.8h-0.5V204.3z"/>
		<path class="st13" d="M159.5,200.2h0.5v0.8c0.4-0.5,1-0.9,1.6-0.9v0.6c-0.1,0-0.2,0-0.3,0c-0.5,0-1.1,0.4-1.4,0.9v3.5h-0.5V200.2z
			"/>
		<path class="st13" d="M165.2,200.2h0.5v0.8c0.4-0.5,1-0.9,1.6-0.9v0.6c-0.1,0-0.2,0-0.3,0c-0.5,0-1.1,0.4-1.4,0.9v3.5h-0.5V200.2z
			"/>
		<path class="st13" d="M170.4,200.1c1.5,0,2.3,1.2,2.3,2.6v0.1h-4c0,1,0.7,1.9,1.9,1.9c0.6,0,1.2-0.2,1.6-0.7l0.3,0.3
			c-0.5,0.5-1.1,0.8-1.9,0.8c-1.4,0-2.4-1-2.4-2.5C168.1,201.2,169.1,200.1,170.4,200.1z M168.7,202.4h3.5c0-0.8-0.5-1.8-1.8-1.8
			C169.3,200.5,168.7,201.5,168.7,202.4z"/>
		<path class="st13" d="M177.6,206.9v-2.6c-0.4,0.5-1,0.9-1.7,0.9c-1.3,0-2.2-1-2.2-2.5c0-1.5,0.9-2.5,2.2-2.5
			c0.7,0,1.3,0.4,1.7,0.9v-0.8h0.5v6.7H177.6z M177.6,201.4c-0.3-0.5-0.9-0.9-1.6-0.9c-1.1,0-1.7,0.9-1.7,2.1c0,1.2,0.6,2.1,1.7,2.1
			c0.7,0,1.3-0.4,1.6-0.9V201.4z"/>
		<path class="st13" d="M183,204.3c-0.4,0.4-1,0.8-1.7,0.8c-1,0-1.5-0.5-1.5-1.5v-3.4h0.5v3.3c0,0.9,0.5,1.2,1.2,1.2
			c0.6,0,1.2-0.4,1.6-0.8v-3.7h0.5v4.8H183V204.3z"/>
		<path class="st13" d="M187.2,200.1c1.5,0,2.3,1.2,2.3,2.6v0.1h-4c0,1,0.7,1.9,1.9,1.9c0.6,0,1.2-0.2,1.6-0.7l0.3,0.3
			c-0.5,0.5-1.1,0.8-1.9,0.8c-1.4,0-2.4-1-2.4-2.5C184.9,201.2,185.9,200.1,187.2,200.1z M185.4,202.4h3.5c0-0.8-0.5-1.8-1.8-1.8
			C186.1,200.5,185.5,201.5,185.4,202.4z"/>
		<path class="st13" d="M190.7,204c0.3,0.4,0.9,0.7,1.6,0.7c0.8,0,1.3-0.4,1.3-1c0-0.6-0.7-0.8-1.3-1c-0.8-0.2-1.7-0.4-1.7-1.3
			c0-0.7,0.6-1.3,1.7-1.3c0.8,0,1.4,0.3,1.7,0.7l-0.3,0.4c-0.3-0.4-0.8-0.6-1.4-0.6c-0.7,0-1.2,0.4-1.2,0.9c0,0.5,0.6,0.7,1.3,0.9
			c0.8,0.2,1.8,0.4,1.8,1.5c0,0.8-0.6,1.4-1.8,1.4c-0.8,0-1.4-0.2-1.9-0.8L190.7,204z"/>
		<path class="st13" d="M195.5,204.1v-3.4h-0.8v-0.5h0.8v-1.3h0.5v1.3h1v0.5h-1v3.4c0,0.4,0.2,0.7,0.5,0.7c0.2,0,0.4-0.1,0.5-0.2
			l0.2,0.4c-0.2,0.2-0.4,0.3-0.8,0.3C195.8,205.1,195.5,204.8,195.5,204.1z"/>
		<path class="st13" d="M198.4,204.2c0.2,0,0.4,0.2,0.4,0.4c0,0.2-0.2,0.4-0.4,0.4s-0.4-0.2-0.4-0.4
			C198,204.4,198.2,204.2,198.4,204.2z"/>
		<path class="st13" d="M57.3,222.4h2.5c1.3,0,2,0.9,2,1.9s-0.7,1.9-2,1.9h-1.9v2.8h-0.6V222.4z M59.8,222.9h-1.9v2.9h1.9
			c0.9,0,1.5-0.6,1.5-1.4C61.2,223.5,60.6,222.9,59.8,222.9z"/>
		<path class="st13" d="M63,222.4h0.5v6.7H63V222.4z"/>
		<path class="st13" d="M67.2,224.1c1.5,0,2.3,1.2,2.3,2.6v0.1h-4c0,1,0.7,1.9,1.9,1.9c0.6,0,1.2-0.2,1.6-0.7l0.3,0.3
			c-0.5,0.5-1.1,0.8-1.9,0.8c-1.4,0-2.4-1-2.4-2.5C64.9,225.2,65.9,224.1,67.2,224.1z M65.4,226.4H69c0-0.8-0.5-1.8-1.8-1.8
			C66.1,224.5,65.5,225.5,65.4,226.4z"/>
		<path class="st13" d="M73.9,228.5c-0.4,0.5-1,0.7-1.6,0.7c-0.8,0-1.7-0.6-1.7-1.6c0-1,0.8-1.6,1.7-1.6c0.7,0,1.2,0.2,1.6,0.7v-1
			c0-0.7-0.6-1.1-1.3-1.1c-0.6,0-1.1,0.2-1.5,0.7l-0.3-0.4c0.5-0.5,1.1-0.8,1.9-0.8c1,0,1.8,0.5,1.8,1.5v3.4h-0.5V228.5z M73.9,227
			c-0.3-0.4-0.9-0.7-1.5-0.7c-0.8,0-1.3,0.5-1.3,1.2c0,0.7,0.5,1.2,1.3,1.2c0.6,0,1.1-0.2,1.5-0.7V227z"/>
		<path class="st13" d="M75.9,228c0.3,0.4,0.9,0.7,1.6,0.7c0.8,0,1.3-0.4,1.3-1c0-0.6-0.7-0.8-1.3-1c-0.8-0.2-1.7-0.4-1.7-1.3
			c0-0.7,0.6-1.3,1.7-1.3c0.8,0,1.4,0.3,1.7,0.7l-0.3,0.4c-0.3-0.4-0.8-0.6-1.4-0.6c-0.7,0-1.2,0.4-1.2,0.9c0,0.5,0.6,0.7,1.3,0.9
			c0.8,0.2,1.8,0.4,1.8,1.5c0,0.8-0.6,1.4-1.8,1.4c-0.8,0-1.4-0.2-1.9-0.8L75.9,228z"/>
		<path class="st13" d="M82.7,224.1c1.5,0,2.3,1.2,2.3,2.6v0.1h-4c0,1,0.7,1.9,1.9,1.9c0.6,0,1.2-0.2,1.6-0.7l0.3,0.3
			c-0.5,0.5-1.1,0.8-1.9,0.8c-1.4,0-2.4-1-2.4-2.5C80.3,225.2,81.3,224.1,82.7,224.1z M80.9,226.4h3.5c0-0.8-0.5-1.8-1.8-1.8
			C81.5,224.5,81,225.5,80.9,226.4z"/>
		<path class="st13" d="M91,224.1c0.8,0,1.3,0.3,1.7,0.8l-0.4,0.3c-0.3-0.5-0.8-0.7-1.3-0.7c-1.1,0-1.8,0.9-1.8,2.1
			c0,1.2,0.7,2.1,1.8,2.1c0.5,0,1-0.2,1.3-0.7l0.4,0.3c-0.4,0.5-0.9,0.8-1.7,0.8c-1.4,0-2.3-1.1-2.3-2.5
			C88.6,225.2,89.5,224.1,91,224.1z"/>
		<path class="st13" d="M93.5,226.6c0-1.4,0.9-2.5,2.3-2.5c1.4,0,2.3,1.1,2.3,2.5c0,1.4-0.9,2.5-2.3,2.5
			C94.5,229.1,93.5,228,93.5,226.6z M97.6,226.6c0-1.1-0.6-2.1-1.8-2.1c-1.1,0-1.8,1-1.8,2.1c0,1.1,0.6,2.1,1.8,2.1
			C97,228.7,97.6,227.7,97.6,226.6z"/>
		<path class="st13" d="M102.8,225.8c0-0.9-0.5-1.2-1.2-1.2c-0.6,0-1.3,0.4-1.6,0.8v3.6h-0.5v-4.8h0.5v0.7c0.4-0.4,1-0.8,1.7-0.8
			c1,0,1.5,0.5,1.5,1.6v3.4h-0.5V225.8z"/>
		<path class="st13" d="M105,228.1v-3.4h-0.8v-0.5h0.8v-1.3h0.5v1.3h1v0.5h-1v3.4c0,0.4,0.2,0.7,0.5,0.7c0.2,0,0.4-0.1,0.5-0.2
			l0.2,0.4c-0.2,0.2-0.4,0.3-0.8,0.3C105.3,229.1,105,228.8,105,228.1z"/>
		<path class="st13" d="M110.8,228.5c-0.4,0.5-1,0.7-1.6,0.7c-0.8,0-1.7-0.6-1.7-1.6c0-1,0.8-1.6,1.7-1.6c0.7,0,1.2,0.2,1.6,0.7v-1
			c0-0.7-0.6-1.1-1.3-1.1c-0.6,0-1.1,0.2-1.5,0.7l-0.3-0.4c0.5-0.5,1.1-0.8,1.9-0.8c1,0,1.8,0.5,1.8,1.5v3.4h-0.5V228.5z M110.8,227
			c-0.3-0.4-0.9-0.7-1.5-0.7c-0.8,0-1.3,0.5-1.3,1.2c0,0.7,0.5,1.2,1.3,1.2c0.6,0,1.1-0.2,1.5-0.7V227z"/>
		<path class="st13" d="M115,224.1c0.8,0,1.3,0.3,1.7,0.8l-0.4,0.3c-0.3-0.5-0.8-0.7-1.3-0.7c-1.1,0-1.8,0.9-1.8,2.1
			c0,1.2,0.7,2.1,1.8,2.1c0.5,0,1-0.2,1.3-0.7l0.4,0.3c-0.4,0.5-0.9,0.8-1.7,0.8c-1.4,0-2.3-1.1-2.3-2.5
			C112.6,225.2,113.5,224.1,115,224.1z"/>
		<path class="st13" d="M117.9,228.1v-3.4h-0.8v-0.5h0.8v-1.3h0.5v1.3h1v0.5h-1v3.4c0,0.4,0.2,0.7,0.5,0.7c0.2,0,0.4-0.1,0.5-0.2
			l0.2,0.4c-0.2,0.2-0.4,0.3-0.8,0.3C118.2,229.1,117.9,228.8,117.9,228.1z"/>
		<path class="st13" d="M123.3,228.1v-3.4h-0.8v-0.5h0.8v-1.3h0.5v1.3h1v0.5h-1v3.4c0,0.4,0.2,0.7,0.5,0.7c0.2,0,0.4-0.1,0.5-0.2
			l0.2,0.4c-0.2,0.2-0.4,0.3-0.8,0.3C123.6,229.1,123.3,228.8,123.3,228.1z"/>
		<path class="st13" d="M129.2,225.7c0-0.9-0.5-1.2-1.2-1.2c-0.6,0-1.3,0.4-1.6,0.8v3.6h-0.5v-6.7h0.5v2.6c0.4-0.4,1-0.8,1.7-0.8
			c1,0,1.5,0.5,1.5,1.5v3.4h-0.5V225.7z"/>
		<path class="st13" d="M133.4,224.1c1.5,0,2.3,1.2,2.3,2.6v0.1h-4c0,1,0.7,1.9,1.9,1.9c0.6,0,1.2-0.2,1.6-0.7l0.3,0.3
			c-0.5,0.5-1.1,0.8-1.9,0.8c-1.4,0-2.4-1-2.4-2.5C131,225.2,132,224.1,133.4,224.1z M131.6,226.4h3.5c0-0.8-0.5-1.8-1.8-1.8
			C132.2,224.5,131.7,225.5,131.6,226.4z"/>
		<path class="st13" d="M139.5,228c0.3,0.4,0.9,0.7,1.6,0.7c0.8,0,1.3-0.4,1.3-1c0-0.6-0.7-0.8-1.3-1c-0.8-0.2-1.7-0.4-1.7-1.3
			c0-0.7,0.6-1.3,1.7-1.3c0.8,0,1.4,0.3,1.7,0.7l-0.3,0.4c-0.3-0.4-0.8-0.6-1.4-0.6c-0.7,0-1.2,0.4-1.2,0.9c0,0.5,0.6,0.7,1.3,0.9
			c0.8,0.2,1.8,0.4,1.8,1.5c0,0.8-0.6,1.4-1.8,1.4c-0.8,0-1.4-0.2-1.9-0.8L139.5,228z"/>
		<path class="st13" d="M146.2,224.1c1.5,0,2.3,1.2,2.3,2.6v0.1h-4c0,1,0.7,1.9,1.9,1.9c0.6,0,1.2-0.2,1.6-0.7l0.3,0.3
			c-0.5,0.5-1.1,0.8-1.9,0.8c-1.4,0-2.4-1-2.4-2.5C143.9,225.2,144.9,224.1,146.2,224.1z M144.5,226.4h3.5c0-0.8-0.5-1.8-1.8-1.8
			C145.1,224.5,144.5,225.5,144.5,226.4z"/>
		<path class="st13" d="M149.8,224.2h0.5v0.8c0.4-0.5,1-0.9,1.6-0.9v0.6c-0.1,0-0.2,0-0.3,0c-0.5,0-1.1,0.4-1.4,0.9v3.5h-0.5V224.2z
			"/>
		<path class="st13" d="M152.3,224.2h0.6l1.8,4.2l1.7-4.2h0.6l-2,4.8h-0.6L152.3,224.2z"/>
		<path class="st13" d="M159.9,224.1c1.5,0,2.3,1.2,2.3,2.6v0.1h-4c0,1,0.7,1.9,1.9,1.9c0.6,0,1.2-0.2,1.6-0.7l0.3,0.3
			c-0.5,0.5-1.1,0.8-1.9,0.8c-1.4,0-2.4-1-2.4-2.5C157.5,225.2,158.5,224.1,159.9,224.1z M158.1,226.4h3.5c0-0.8-0.5-1.8-1.8-1.8
			C158.7,224.5,158.2,225.5,158.1,226.4z"/>
		<path class="st13" d="M163.5,224.2h0.5v0.8c0.4-0.5,1-0.9,1.6-0.9v0.6c-0.1,0-0.2,0-0.3,0c-0.5,0-1.1,0.4-1.4,0.9v3.5h-0.5V224.2z
			"/>
		<path class="st13" d="M172.3,228.5c-0.4,0.5-1,0.7-1.6,0.7c-0.8,0-1.7-0.6-1.7-1.6c0-1,0.8-1.6,1.7-1.6c0.7,0,1.2,0.2,1.6,0.7v-1
			c0-0.7-0.6-1.1-1.3-1.1c-0.6,0-1.1,0.2-1.5,0.7l-0.3-0.4c0.5-0.5,1.1-0.8,1.9-0.8c1,0,1.8,0.5,1.8,1.5v3.4h-0.5V228.5z M172.3,227
			c-0.3-0.4-0.9-0.7-1.5-0.7c-0.8,0-1.3,0.5-1.3,1.2c0,0.7,0.5,1.2,1.3,1.2c0.6,0,1.1-0.2,1.5-0.7V227z"/>
		<path class="st13" d="M178,228.3c-0.3,0.5-1,0.9-1.7,0.9c-1.3,0-2.2-1-2.2-2.5c0-1.5,0.9-2.5,2.2-2.5c0.7,0,1.3,0.3,1.7,0.9v-2.6
			h0.5v6.7H178V228.3z M178,225.4c-0.3-0.5-0.9-0.9-1.6-0.9c-1.1,0-1.7,0.9-1.7,2.1s0.6,2.1,1.7,2.1c0.7,0,1.3-0.4,1.6-0.9V225.4z"
			/>
		<path class="st13" d="M185.9,225.6c0-0.7-0.3-1.1-1-1.1c-0.5,0-1.1,0.4-1.4,0.8v3.7H183v-3.4c0-0.7-0.3-1.1-1-1.1
			c-0.5,0-1.1,0.4-1.4,0.8v3.6h-0.5v-4.8h0.5v0.7c0.2-0.3,0.9-0.8,1.6-0.8c0.8,0,1.1,0.4,1.3,0.9c0.3-0.4,0.9-0.9,1.6-0.9
			c0.9,0,1.3,0.5,1.3,1.5v3.5h-0.5V225.6z"/>
		<path class="st13" d="M187.9,223c0-0.2,0.2-0.4,0.4-0.4c0.2,0,0.4,0.2,0.4,0.4c0,0.2-0.2,0.4-0.4,0.4
			C188.1,223.4,187.9,223.2,187.9,223z M188.1,224.2h0.5v4.8h-0.5V224.2z"/>
		<path class="st13" d="M193.5,225.8c0-0.9-0.5-1.2-1.2-1.2c-0.6,0-1.3,0.4-1.6,0.8v3.6h-0.5v-4.8h0.5v0.7c0.4-0.4,1-0.8,1.7-0.8
			c1,0,1.5,0.5,1.5,1.6v3.4h-0.5V225.8z"/>
		<path class="st13" d="M195.5,223c0-0.2,0.2-0.4,0.4-0.4c0.2,0,0.4,0.2,0.4,0.4c0,0.2-0.2,0.4-0.4,0.4
			C195.7,223.4,195.5,223.2,195.5,223z M195.6,224.2h0.5v4.8h-0.5V224.2z"/>
		<path class="st13" d="M197.6,228c0.3,0.4,0.9,0.7,1.6,0.7c0.8,0,1.3-0.4,1.3-1c0-0.6-0.7-0.8-1.3-1c-0.8-0.2-1.7-0.4-1.7-1.3
			c0-0.7,0.6-1.3,1.7-1.3c0.8,0,1.4,0.3,1.7,0.7l-0.3,0.4c-0.3-0.4-0.8-0.6-1.4-0.6c-0.7,0-1.2,0.4-1.2,0.9c0,0.5,0.6,0.7,1.3,0.9
			c0.8,0.2,1.8,0.4,1.8,1.5c0,0.8-0.6,1.4-1.8,1.4c-0.8,0-1.4-0.2-1.9-0.8L197.6,228z"/>
		<path class="st13" d="M202.4,228.1v-3.4h-0.8v-0.5h0.8v-1.3h0.5v1.3h1v0.5h-1v3.4c0,0.4,0.2,0.7,0.5,0.7c0.2,0,0.4-0.1,0.5-0.2
			l0.2,0.4c-0.2,0.2-0.4,0.3-0.8,0.3C202.7,229.1,202.4,228.8,202.4,228.1z"/>
		<path class="st13" d="M205.1,224.2h0.5v0.8c0.4-0.5,1-0.9,1.6-0.9v0.6c-0.1,0-0.2,0-0.3,0c-0.5,0-1.1,0.4-1.4,0.9v3.5h-0.5V224.2z
			"/>
		<path class="st13" d="M211.3,228.5c-0.4,0.5-1,0.7-1.6,0.7c-0.8,0-1.7-0.6-1.7-1.6c0-1,0.8-1.6,1.7-1.6c0.7,0,1.2,0.2,1.6,0.7v-1
			c0-0.7-0.6-1.1-1.3-1.1c-0.6,0-1.1,0.2-1.5,0.7l-0.3-0.4c0.5-0.5,1.1-0.8,1.9-0.8c1,0,1.8,0.5,1.8,1.5v3.4h-0.5V228.5z M211.3,227
			c-0.3-0.4-0.9-0.7-1.5-0.7c-0.8,0-1.3,0.5-1.3,1.2c0,0.7,0.5,1.2,1.3,1.2c0.6,0,1.1-0.2,1.5-0.7V227z"/>
		<path class="st13" d="M213.6,228.1v-3.4h-0.8v-0.5h0.8v-1.3h0.5v1.3h1v0.5h-1v3.4c0,0.4,0.2,0.7,0.5,0.7c0.2,0,0.4-0.1,0.5-0.2
			l0.2,0.4c-0.2,0.2-0.4,0.3-0.8,0.3C213.9,229.1,213.6,228.8,213.6,228.1z"/>
		<path class="st13" d="M215.9,226.6c0-1.4,0.9-2.5,2.3-2.5c1.4,0,2.3,1.1,2.3,2.5c0,1.4-0.9,2.5-2.3,2.5
			C216.8,229.1,215.9,228,215.9,226.6z M220,226.6c0-1.1-0.6-2.1-1.8-2.1c-1.1,0-1.8,1-1.8,2.1c0,1.1,0.6,2.1,1.8,2.1
			C219.4,228.7,220,227.7,220,226.6z"/>
		<path class="st13" d="M221.9,224.2h0.5v0.8c0.4-0.5,1-0.9,1.6-0.9v0.6c-0.1,0-0.2,0-0.3,0c-0.5,0-1.1,0.4-1.4,0.9v3.5h-0.5V224.2z
			"/>
		<path class="st13" d="M230.8,228.5c-0.4,0.5-1,0.7-1.6,0.7c-0.8,0-1.7-0.6-1.7-1.6c0-1,0.8-1.6,1.7-1.6c0.7,0,1.2,0.2,1.6,0.7v-1
			c0-0.7-0.6-1.1-1.3-1.1c-0.6,0-1.1,0.2-1.5,0.7l-0.3-0.4c0.5-0.5,1.1-0.8,1.9-0.8c1,0,1.8,0.5,1.8,1.5v3.4h-0.5V228.5z M230.8,227
			c-0.3-0.4-0.9-0.7-1.5-0.7c-0.8,0-1.3,0.5-1.3,1.2c0,0.7,0.5,1.2,1.3,1.2c0.6,0,1.1-0.2,1.5-0.7V227z"/>
		<path class="st13" d="M236.2,225.8c0-0.9-0.5-1.2-1.2-1.2c-0.6,0-1.3,0.4-1.6,0.8v3.6h-0.5v-4.8h0.5v0.7c0.3-0.4,1-0.8,1.7-0.8
			c1,0,1.5,0.5,1.5,1.6v3.4h-0.5V225.8z"/>
		<path class="st13" d="M241.9,228.3c-0.3,0.5-1,0.9-1.7,0.9c-1.3,0-2.2-1-2.2-2.5c0-1.5,0.9-2.5,2.2-2.5c0.7,0,1.3,0.3,1.7,0.9
			v-2.6h0.5v6.7h-0.5V228.3z M241.9,225.4c-0.3-0.5-0.9-0.9-1.6-0.9c-1.1,0-1.7,0.9-1.7,2.1s0.6,2.1,1.7,2.1c0.7,0,1.3-0.4,1.6-0.9
			V225.4z"/>
		<path class="st13" d="M246.5,223c0-0.2,0.2-0.4,0.4-0.4c0.2,0,0.4,0.2,0.4,0.4c0,0.2-0.2,0.4-0.4,0.4
			C246.6,223.4,246.5,223.2,246.5,223z M246.6,224.2h0.5v4.8h-0.5V224.2z"/>
		<path class="st13" d="M252,225.8c0-0.9-0.5-1.2-1.2-1.2c-0.6,0-1.3,0.4-1.6,0.8v3.6h-0.5v-4.8h0.5v0.7c0.3-0.4,1-0.8,1.7-0.8
			c1,0,1.5,0.5,1.5,1.6v3.4H252V225.8z"/>
		<path class="st13" d="M254.3,224.7h-0.8v-0.5h0.8v-0.4c0-0.9,0.5-1.5,1.3-1.5c0.2,0,0.5,0,0.6,0.1l-0.2,0.4
			c-0.1-0.1-0.3-0.1-0.4-0.1c-0.5,0-0.8,0.4-0.8,1v0.4h1v0.5h-1v4.4h-0.5V224.7z"/>
		<path class="st13" d="M256.5,226.6c0-1.4,0.9-2.5,2.3-2.5c1.4,0,2.3,1.1,2.3,2.5c0,1.4-0.9,2.5-2.3,2.5
			C257.4,229.1,256.5,228,256.5,226.6z M260.6,226.6c0-1.1-0.6-2.1-1.8-2.1c-1.1,0-1.8,1-1.8,2.1c0,1.1,0.6,2.1,1.8,2.1
			C260,228.7,260.6,227.7,260.6,226.6z"/>
		<path class="st13" d="M262.5,224.2h0.5v0.8c0.4-0.5,1-0.9,1.6-0.9v0.6c-0.1,0-0.2,0-0.3,0c-0.5,0-1.1,0.4-1.4,0.9v3.5h-0.5V224.2z
			"/>
		<path class="st13" d="M271.4,225.6c0-0.7-0.3-1.1-1-1.1c-0.5,0-1.1,0.4-1.4,0.8v3.7h-0.5v-3.4c0-0.7-0.3-1.1-1-1.1
			c-0.5,0-1.1,0.4-1.4,0.8v3.6h-0.5v-4.8h0.5v0.7c0.2-0.3,0.9-0.8,1.6-0.8c0.7,0,1.1,0.4,1.3,0.9c0.3-0.4,0.9-0.9,1.6-0.9
			c0.9,0,1.3,0.5,1.3,1.5v3.5h-0.5V225.6z"/>
		<path class="st13" d="M276.2,228.1v-3.4h-0.8v-0.5h0.8v-1.3h0.5v1.3h1v0.5h-1v3.4c0,0.4,0.2,0.7,0.5,0.7c0.2,0,0.4-0.1,0.5-0.2
			l0.2,0.4c-0.2,0.2-0.4,0.3-0.8,0.3C276.6,229.1,276.2,228.8,276.2,228.1z"/>
		<path class="st13" d="M282.2,225.7c0-0.9-0.5-1.2-1.2-1.2c-0.6,0-1.3,0.4-1.6,0.8v3.6h-0.5v-6.7h0.5v2.6c0.3-0.4,1-0.8,1.7-0.8
			c1,0,1.5,0.5,1.5,1.5v3.4h-0.5V225.7z"/>
		<path class="st13" d="M286.3,224.1c1.5,0,2.3,1.2,2.3,2.6v0.1h-4c0,1,0.7,1.9,1.9,1.9c0.6,0,1.2-0.2,1.6-0.7l0.3,0.3
			c-0.5,0.5-1.1,0.8-1.9,0.8c-1.4,0-2.4-1-2.4-2.5C284,225.2,285,224.1,286.3,224.1z M284.6,226.4h3.5c0-0.8-0.5-1.8-1.8-1.8
			C285.2,224.5,284.6,225.5,284.6,226.4z"/>
		<path class="st13" d="M295.7,225.6c0-0.7-0.3-1.1-1-1.1c-0.5,0-1.1,0.4-1.4,0.8v3.7h-0.5v-3.4c0-0.7-0.3-1.1-1-1.1
			c-0.5,0-1.1,0.4-1.4,0.8v3.6H290v-4.8h0.5v0.7c0.2-0.3,0.9-0.8,1.6-0.8c0.7,0,1.1,0.4,1.3,0.9c0.3-0.4,0.9-0.9,1.6-0.9
			c0.9,0,1.3,0.5,1.3,1.5v3.5h-0.5V225.6z"/>
		<path class="st13" d="M300.2,226.6c0-1.4,0.9-2.5,2.3-2.5c1.4,0,2.3,1.1,2.3,2.5c0,1.4-0.9,2.5-2.3,2.5
			C301.1,229.1,300.2,228,300.2,226.6z M304.3,226.6c0-1.1-0.6-2.1-1.8-2.1c-1.1,0-1.8,1-1.8,2.1c0,1.1,0.6,2.1,1.8,2.1
			C303.6,228.7,304.3,227.7,304.3,226.6z"/>
		<path class="st13" d="M306.3,224.7h-0.8v-0.5h0.8v-0.4c0-0.9,0.5-1.5,1.3-1.5c0.2,0,0.5,0,0.6,0.1l-0.2,0.4
			c-0.1-0.1-0.3-0.1-0.4-0.1c-0.5,0-0.8,0.4-0.8,1v0.4h1v0.5h-1v4.4h-0.5V224.7z"/>
		<path class="st13" d="M311.5,228.1v-3.4h-0.8v-0.5h0.8v-1.3h0.5v1.3h1v0.5h-1v3.4c0,0.4,0.2,0.7,0.5,0.7c0.2,0,0.4-0.1,0.5-0.2
			l0.2,0.4c-0.2,0.2-0.4,0.3-0.8,0.3C311.8,229.1,311.5,228.8,311.5,228.1z"/>
		<path class="st13" d="M317.4,225.7c0-0.9-0.5-1.2-1.2-1.2c-0.6,0-1.3,0.4-1.6,0.8v3.6h-0.5v-6.7h0.5v2.6c0.3-0.4,1-0.8,1.7-0.8
			c1,0,1.5,0.5,1.5,1.5v3.4h-0.5V225.7z"/>
		<path class="st13" d="M321.6,224.1c1.5,0,2.3,1.2,2.3,2.6v0.1h-4c0,1,0.7,1.9,1.9,1.9c0.6,0,1.2-0.2,1.6-0.7l0.3,0.3
			c-0.5,0.5-1.1,0.8-1.9,0.8c-1.4,0-2.4-1-2.4-2.5C319.3,225.2,320.3,224.1,321.6,224.1z M319.8,226.4h3.5c0-0.8-0.5-1.8-1.8-1.8
			C320.4,224.5,319.9,225.5,319.8,226.4z"/>
		<path class="st13" d="M327.9,228.1v-3.4h-0.8v-0.5h0.8v-1.3h0.5v1.3h1v0.5h-1v3.4c0,0.4,0.2,0.7,0.5,0.7c0.2,0,0.4-0.1,0.5-0.2
			l0.2,0.4c-0.2,0.2-0.4,0.3-0.8,0.3C328.2,229.1,327.9,228.8,327.9,228.1z"/>
		<path class="st13" d="M330.4,223c0-0.2,0.2-0.4,0.4-0.4c0.2,0,0.4,0.2,0.4,0.4c0,0.2-0.2,0.4-0.4,0.4
			C330.6,223.4,330.4,223.2,330.4,223z M330.6,224.2h0.5v4.8h-0.5V224.2z"/>
		<path class="st13" d="M338.4,225.6c0-0.7-0.3-1.1-1-1.1c-0.5,0-1.1,0.4-1.4,0.8v3.7h-0.5v-3.4c0-0.7-0.3-1.1-1-1.1
			c-0.5,0-1.1,0.4-1.4,0.8v3.6h-0.5v-4.8h0.5v0.7c0.2-0.3,0.9-0.8,1.6-0.8c0.7,0,1.1,0.4,1.3,0.9c0.3-0.4,0.9-0.9,1.6-0.9
			c0.9,0,1.3,0.5,1.3,1.5v3.5h-0.5V225.6z"/>
		<path class="st13" d="M342.6,224.1c1.5,0,2.3,1.2,2.3,2.6v0.1h-4c0,1,0.7,1.9,1.9,1.9c0.6,0,1.2-0.2,1.6-0.7l0.3,0.3
			c-0.5,0.5-1.1,0.8-1.9,0.8c-1.4,0-2.4-1-2.4-2.5C340.3,225.2,341.3,224.1,342.6,224.1z M340.9,226.4h3.5c0-0.8-0.5-1.8-1.8-1.8
			C341.5,224.5,340.9,225.5,340.9,226.4z"/>
		<path class="st13" d="M57.4,240.1v-3.4h-0.8v-0.5h0.8v-1.3h0.5v1.3h1v0.5h-1v3.4c0,0.4,0.2,0.7,0.5,0.7c0.2,0,0.4-0.1,0.5-0.2
			l0.2,0.4c-0.2,0.2-0.4,0.3-0.8,0.3C57.7,241.1,57.4,240.8,57.4,240.1z"/>
		<path class="st13" d="M63.3,237.7c0-0.9-0.5-1.2-1.2-1.2c-0.6,0-1.3,0.4-1.6,0.8v3.6h-0.5v-6.7h0.5v2.6c0.4-0.4,1-0.8,1.7-0.8
			c1,0,1.5,0.5,1.5,1.5v3.4h-0.5V237.7z"/>
		<path class="st13" d="M67.5,236.1c1.5,0,2.3,1.2,2.3,2.6v0.1h-4c0,1,0.7,1.9,1.9,1.9c0.6,0,1.2-0.2,1.6-0.7l0.3,0.3
			c-0.5,0.5-1.1,0.8-1.9,0.8c-1.4,0-2.4-1-2.4-2.5C65.2,237.2,66.2,236.1,67.5,236.1z M65.7,238.4h3.5c0-0.8-0.5-1.8-1.8-1.8
			C66.4,236.5,65.8,237.5,65.7,238.4z"/>
		<path class="st13" d="M75.8,236.1c1.5,0,2.3,1.2,2.3,2.6v0.1h-4c0,1,0.7,1.9,1.9,1.9c0.6,0,1.2-0.2,1.6-0.7l0.3,0.3
			c-0.5,0.5-1.1,0.8-1.9,0.8c-1.4,0-2.4-1-2.4-2.5C73.4,237.2,74.4,236.1,75.8,236.1z M74,238.4h3.5c0-0.8-0.5-1.8-1.8-1.8
			C74.6,236.5,74,237.5,74,238.4z"/>
		<path class="st13" d="M79.4,236.2h0.5v0.8c0.4-0.5,1-0.9,1.6-0.9v0.6c-0.1,0-0.2,0-0.3,0c-0.5,0-1.1,0.4-1.4,0.9v3.5h-0.5V236.2z"
			/>
		<path class="st13" d="M82.6,236.2h0.5v0.8c0.4-0.5,1-0.9,1.6-0.9v0.6c-0.1,0-0.2,0-0.3,0c-0.5,0-1.1,0.4-1.4,0.9v3.5h-0.5V236.2z"
			/>
		<path class="st13" d="M85.4,238.6c0-1.4,0.9-2.5,2.3-2.5c1.4,0,2.3,1.1,2.3,2.5c0,1.4-0.9,2.5-2.3,2.5
			C86.4,241.1,85.4,240,85.4,238.6z M89.5,238.6c0-1.1-0.6-2.1-1.8-2.1c-1.1,0-1.8,1-1.8,2.1c0,1.1,0.6,2.1,1.8,2.1
			C88.9,240.7,89.5,239.7,89.5,238.6z"/>
		<path class="st13" d="M91.4,236.2H92v0.8c0.4-0.5,1-0.9,1.6-0.9v0.6c-0.1,0-0.2,0-0.3,0c-0.5,0-1.1,0.4-1.4,0.9v3.5h-0.5V236.2z"
			/>
		<path class="st13" d="M96.9,238.6c0-1.4,0.9-2.5,2.3-2.5c1.4,0,2.3,1.1,2.3,2.5c0,1.4-0.9,2.5-2.3,2.5
			C97.8,241.1,96.9,240,96.9,238.6z M101,238.6c0-1.1-0.6-2.1-1.8-2.1c-1.1,0-1.8,1-1.8,2.1c0,1.1,0.6,2.1,1.8,2.1
			C100.4,240.7,101,239.7,101,238.6z"/>
		<path class="st13" d="M105,236.1c0.8,0,1.3,0.3,1.7,0.8l-0.4,0.3c-0.3-0.5-0.8-0.7-1.3-0.7c-1.1,0-1.8,0.9-1.8,2.1
			c0,1.2,0.7,2.1,1.8,2.1c0.5,0,1-0.2,1.3-0.7l0.4,0.3c-0.4,0.5-0.9,0.8-1.7,0.8c-1.4,0-2.3-1.1-2.3-2.5
			C102.6,237.2,103.6,236.1,105,236.1z"/>
		<path class="st13" d="M109.9,236.1c0.8,0,1.3,0.3,1.7,0.8l-0.4,0.3c-0.3-0.5-0.8-0.7-1.3-0.7c-1.1,0-1.8,0.9-1.8,2.1
			c0,1.2,0.7,2.1,1.8,2.1c0.5,0,1-0.2,1.3-0.7l0.4,0.3c-0.4,0.5-0.9,0.8-1.7,0.8c-1.4,0-2.3-1.1-2.3-2.5
			C107.6,237.2,108.5,236.1,109.9,236.1z"/>
		<path class="st13" d="M116,240.3c-0.4,0.4-1,0.8-1.7,0.8c-1,0-1.5-0.5-1.5-1.5v-3.4h0.5v3.3c0,0.9,0.5,1.2,1.2,1.2
			c0.6,0,1.2-0.4,1.6-0.8v-3.7h0.5v4.8H116V240.3z"/>
		<path class="st13" d="M118.2,236.2h0.5v0.8c0.4-0.5,1-0.9,1.6-0.9v0.6c-0.1,0-0.2,0-0.3,0c-0.5,0-1.1,0.4-1.4,0.9v3.5h-0.5V236.2z
			"/>
		<path class="st13" d="M121.4,236.2h0.5v0.8c0.4-0.5,1-0.9,1.6-0.9v0.6c-0.1,0-0.2,0-0.3,0c-0.5,0-1.1,0.4-1.4,0.9v3.5h-0.5V236.2z
			"/>
		<path class="st13" d="M126.6,236.1c1.5,0,2.3,1.2,2.3,2.6v0.1h-4c0,1,0.7,1.9,1.9,1.9c0.6,0,1.2-0.2,1.6-0.7l0.3,0.3
			c-0.5,0.5-1.1,0.8-1.9,0.8c-1.4,0-2.4-1-2.4-2.5C124.2,237.2,125.2,236.1,126.6,236.1z M124.8,238.4h3.5c0-0.8-0.5-1.8-1.8-1.8
			C125.4,236.5,124.9,237.5,124.8,238.4z"/>
		<path class="st13" d="M133.8,240.3c-0.3,0.5-1,0.9-1.7,0.9c-1.3,0-2.2-1-2.2-2.5c0-1.5,0.9-2.5,2.2-2.5c0.7,0,1.3,0.3,1.7,0.9
			v-2.6h0.5v6.7h-0.5V240.3z M133.8,237.4c-0.3-0.5-0.9-0.9-1.6-0.9c-1.1,0-1.7,0.9-1.7,2.1c0,1.2,0.6,2.1,1.7,2.1
			c0.7,0,1.3-0.4,1.6-0.9V237.4z"/>
		<path class="st13" d="M135.7,242c0.3-0.2,0.6-0.6,0.6-0.9l-0.1,0c-0.2,0-0.4-0.2-0.4-0.4c0-0.2,0.2-0.4,0.4-0.4
			c0.3,0,0.5,0.2,0.5,0.6c0,0.6-0.3,1.1-0.7,1.4L135.7,242z"/>
		<path class="st13" d="M143.8,240.5c-0.4,0.5-1,0.7-1.6,0.7c-0.8,0-1.7-0.6-1.7-1.6c0-1,0.8-1.6,1.7-1.6c0.7,0,1.2,0.2,1.6,0.7v-1
			c0-0.7-0.6-1.1-1.3-1.1c-0.6,0-1.1,0.2-1.5,0.7l-0.3-0.4c0.5-0.5,1.1-0.8,1.9-0.8c1,0,1.8,0.5,1.8,1.5v3.4h-0.5V240.5z M143.8,239
			c-0.3-0.4-0.9-0.7-1.5-0.7c-0.8,0-1.3,0.5-1.3,1.2c0,0.7,0.5,1.2,1.3,1.2c0.6,0,1.1-0.2,1.5-0.7V239z"/>
		<path class="st13" d="M149.2,237.8c0-0.9-0.5-1.2-1.2-1.2c-0.6,0-1.3,0.4-1.6,0.8v3.6h-0.5v-4.8h0.5v0.7c0.4-0.4,1-0.8,1.7-0.8
			c1,0,1.5,0.5,1.5,1.6v3.4h-0.5V237.8z"/>
		<path class="st13" d="M154.9,240.3c-0.3,0.5-1,0.9-1.7,0.9c-1.3,0-2.2-1-2.2-2.5c0-1.5,0.9-2.5,2.2-2.5c0.7,0,1.3,0.3,1.7,0.9
			v-2.6h0.5v6.7h-0.5V240.3z M154.9,237.4c-0.3-0.5-0.9-0.9-1.6-0.9c-1.1,0-1.7,0.9-1.7,2.1c0,1.2,0.6,2.1,1.7,2.1
			c0.7,0,1.3-0.4,1.6-0.9V237.4z"/>
		<path class="st13" d="M162.7,240.5c-0.4,0.5-1,0.7-1.6,0.7c-0.8,0-1.7-0.6-1.7-1.6c0-1,0.8-1.6,1.7-1.6c0.7,0,1.2,0.2,1.6,0.7v-1
			c0-0.7-0.6-1.1-1.3-1.1c-0.6,0-1.1,0.2-1.5,0.7l-0.3-0.4c0.5-0.5,1.1-0.8,1.9-0.8c1,0,1.8,0.5,1.8,1.5v3.4h-0.5V240.5z M162.7,239
			c-0.3-0.4-0.9-0.7-1.5-0.7c-0.8,0-1.3,0.5-1.3,1.2c0,0.7,0.5,1.2,1.3,1.2c0.6,0,1.1-0.2,1.5-0.7V239z"/>
		<path class="st13" d="M168.1,237.8c0-0.9-0.5-1.2-1.2-1.2c-0.6,0-1.3,0.4-1.6,0.8v3.6h-0.5v-4.8h0.5v0.7c0.4-0.4,1-0.8,1.7-0.8
			c1,0,1.5,0.5,1.5,1.6v3.4h-0.5V237.8z"/>
		<path class="st13" d="M170.4,242.5c0.3,0,0.5-0.1,0.7-0.6l0.4-0.9l-2-4.9h0.6l1.8,4.2l1.7-4.2h0.6l-2.5,5.9
			c-0.3,0.6-0.7,0.9-1.2,0.9c-0.2,0-0.4,0-0.5-0.1l0.1-0.5C170.1,242.5,170.3,242.5,170.4,242.5z"/>
		<path class="st13" d="M175.1,240.1v-3.4h-0.8v-0.5h0.8v-1.3h0.5v1.3h1v0.5h-1v3.4c0,0.4,0.2,0.7,0.5,0.7c0.2,0,0.4-0.1,0.5-0.2
			l0.2,0.4c-0.2,0.2-0.4,0.3-0.8,0.3C175.4,241.1,175.1,240.8,175.1,240.1z"/>
		<path class="st13" d="M181,237.7c0-0.9-0.5-1.2-1.2-1.2c-0.6,0-1.3,0.4-1.6,0.8v3.6h-0.5v-6.7h0.5v2.6c0.4-0.4,1-0.8,1.7-0.8
			c1,0,1.5,0.5,1.5,1.5v3.4H181V237.7z"/>
		<path class="st13" d="M183,235c0-0.2,0.2-0.4,0.4-0.4c0.2,0,0.4,0.2,0.4,0.4c0,0.2-0.2,0.4-0.4,0.4C183.2,235.4,183,235.2,183,235
			z M183.2,236.2h0.5v4.8h-0.5V236.2z"/>
		<path class="st13" d="M188.6,237.8c0-0.9-0.5-1.2-1.2-1.2c-0.6,0-1.3,0.4-1.6,0.8v3.6h-0.5v-4.8h0.5v0.7c0.4-0.4,1-0.8,1.7-0.8
			c1,0,1.5,0.5,1.5,1.6v3.4h-0.5V237.8z"/>
		<path class="st13" d="M191,241.9c0.4,0.5,0.9,0.7,1.6,0.7c0.9,0,1.6-0.4,1.6-1.5v-0.8c-0.3,0.5-1,0.9-1.7,0.9
			c-1.3,0-2.2-1-2.2-2.5c0-1.5,0.9-2.5,2.2-2.5c0.7,0,1.3,0.3,1.7,0.9v-0.8h0.5v4.8c0,1.5-1,2-2.2,2c-0.8,0-1.3-0.1-1.9-0.7
			L191,241.9z M194.3,237.4c-0.3-0.5-0.9-0.9-1.6-0.9c-1.1,0-1.7,0.9-1.7,2.1c0,1.2,0.6,2,1.7,2c0.7,0,1.3-0.4,1.6-0.9V237.4z"/>
		<path class="st13" d="M199.2,242.5c0.3,0,0.5-0.1,0.7-0.6l0.4-0.9l-2-4.9h0.6l1.8,4.2l1.7-4.2h0.6l-2.5,5.9
			c-0.3,0.6-0.7,0.9-1.2,0.9c-0.2,0-0.4,0-0.5-0.1l0.1-0.5C198.9,242.5,199.1,242.5,199.2,242.5z"/>
		<path class="st13" d="M203.5,238.6c0-1.4,0.9-2.5,2.3-2.5c1.4,0,2.3,1.1,2.3,2.5c0,1.4-0.9,2.5-2.3,2.5
			C204.4,241.1,203.5,240,203.5,238.6z M207.6,238.6c0-1.1-0.6-2.1-1.8-2.1c-1.1,0-1.8,1-1.8,2.1c0,1.1,0.6,2.1,1.8,2.1
			C207,240.7,207.6,239.7,207.6,238.6z"/>
		<path class="st13" d="M212.8,240.3c-0.4,0.4-1,0.8-1.7,0.8c-1,0-1.5-0.5-1.5-1.5v-3.4h0.5v3.3c0,0.9,0.5,1.2,1.2,1.2
			c0.6,0,1.2-0.4,1.6-0.8v-3.7h0.5v4.8h-0.5V240.3z"/>
		<path class="st13" d="M223.3,237.6c0-0.7-0.3-1.1-1-1.1c-0.5,0-1.1,0.4-1.4,0.8v3.7h-0.5v-3.4c0-0.7-0.3-1.1-1-1.1
			c-0.5,0-1.1,0.4-1.4,0.8v3.6h-0.5v-4.8h0.5v0.7c0.2-0.3,0.9-0.8,1.6-0.8c0.7,0,1.1,0.4,1.3,0.9c0.3-0.5,0.9-0.9,1.6-0.9
			c0.9,0,1.3,0.5,1.3,1.5v3.5h-0.5V237.6z"/>
		<path class="st13" d="M225.3,235c0-0.2,0.2-0.4,0.4-0.4c0.2,0,0.4,0.2,0.4,0.4c0,0.2-0.2,0.4-0.4,0.4
			C225.4,235.4,225.3,235.2,225.3,235z M225.4,236.2h0.5v4.8h-0.5V236.2z"/>
		<path class="st13" d="M227.8,241.9c0.4,0.5,0.9,0.7,1.6,0.7c0.9,0,1.6-0.4,1.6-1.5v-0.8c-0.3,0.5-1,0.9-1.7,0.9
			c-1.3,0-2.2-1-2.2-2.5c0-1.5,0.9-2.5,2.2-2.5c0.7,0,1.3,0.3,1.7,0.9v-0.8h0.5v4.8c0,1.5-1,2-2.2,2c-0.8,0-1.3-0.1-1.9-0.7
			L227.8,241.9z M231.1,237.4c-0.3-0.5-0.9-0.9-1.6-0.9c-1.1,0-1.7,0.9-1.7,2.1c0,1.2,0.6,2,1.7,2c0.7,0,1.3-0.4,1.6-0.9V237.4z"/>
		<path class="st13" d="M236.5,237.7c0-0.9-0.5-1.2-1.2-1.2c-0.6,0-1.3,0.4-1.6,0.8v3.6h-0.5v-6.7h0.5v2.6c0.3-0.4,1-0.8,1.7-0.8
			c1,0,1.5,0.5,1.5,1.5v3.4h-0.5V237.7z"/>
		<path class="st13" d="M238.7,240.1v-3.4h-0.8v-0.5h0.8v-1.3h0.5v1.3h1v0.5h-1v3.4c0,0.4,0.2,0.7,0.5,0.7c0.2,0,0.4-0.1,0.5-0.2
			l0.2,0.4c-0.2,0.2-0.4,0.3-0.8,0.3C239,241.1,238.7,240.8,238.7,240.1z"/>
		<path class="st13" d="M247.2,237.7c0-0.9-0.5-1.2-1.2-1.2c-0.6,0-1.3,0.4-1.6,0.8v3.6H244v-6.7h0.5v2.6c0.3-0.4,1-0.8,1.7-0.8
			c1,0,1.5,0.5,1.5,1.5v3.4h-0.5V237.7z"/>
		<path class="st13" d="M252.4,240.5c-0.4,0.5-1,0.7-1.6,0.7c-0.8,0-1.7-0.6-1.7-1.6c0-1,0.8-1.6,1.7-1.6c0.7,0,1.2,0.2,1.6,0.7v-1
			c0-0.7-0.6-1.1-1.3-1.1c-0.6,0-1.1,0.2-1.5,0.7l-0.3-0.4c0.5-0.5,1.1-0.8,1.9-0.8c1,0,1.8,0.5,1.8,1.5v3.4h-0.5V240.5z M252.4,239
			c-0.3-0.4-0.9-0.7-1.5-0.7c-0.8,0-1.3,0.5-1.3,1.2c0,0.7,0.5,1.2,1.3,1.2c0.6,0,1.1-0.2,1.5-0.7V239z"/>
		<path class="st13" d="M253.8,236.2h0.6l1.8,4.2l1.7-4.2h0.6l-2,4.8h-0.6L253.8,236.2z"/>
		<path class="st13" d="M261.4,236.1c1.5,0,2.3,1.2,2.3,2.6v0.1h-4c0,1,0.7,1.9,1.9,1.9c0.6,0,1.2-0.2,1.6-0.7l0.3,0.3
			c-0.5,0.5-1.1,0.8-1.9,0.8c-1.4,0-2.4-1-2.4-2.5C259.1,237.2,260.1,236.1,261.4,236.1z M259.7,238.4h3.5c0-0.8-0.5-1.8-1.8-1.8
			C260.3,236.5,259.7,237.5,259.7,238.4z"/>
		<path class="st13" d="M271.2,240.3c-0.3,0.5-1,0.9-1.7,0.9c-1.3,0-2.2-1-2.2-2.5c0-1.5,0.9-2.5,2.2-2.5c0.7,0,1.3,0.3,1.7,0.9
			v-2.6h0.5v6.7h-0.5V240.3z M271.2,237.4c-0.3-0.5-0.9-0.9-1.6-0.9c-1.1,0-1.7,0.9-1.7,2.1c0,1.2,0.6,2.1,1.7,2.1
			c0.7,0,1.3-0.4,1.6-0.9V237.4z"/>
		<path class="st13" d="M273.1,238.6c0-1.4,0.9-2.5,2.3-2.5c1.4,0,2.3,1.1,2.3,2.5c0,1.4-0.9,2.5-2.3,2.5
			C274,241.1,273.1,240,273.1,238.6z M277.2,238.6c0-1.1-0.6-2.1-1.8-2.1c-1.1,0-1.8,1-1.8,2.1c0,1.1,0.6,2.1,1.8,2.1
			C276.5,240.7,277.2,239.7,277.2,238.6z"/>
		<path class="st13" d="M282.3,237.8c0-0.9-0.5-1.2-1.2-1.2c-0.6,0-1.3,0.4-1.6,0.8v3.6h-0.5v-4.8h0.5v0.7c0.3-0.4,1-0.8,1.7-0.8
			c1,0,1.5,0.5,1.5,1.6v3.4h-0.5V237.8z"/>
		<path class="st13" d="M286.5,236.1c1.5,0,2.3,1.2,2.3,2.6v0.1h-4c0,1,0.7,1.9,1.9,1.9c0.6,0,1.2-0.2,1.6-0.7l0.3,0.3
			c-0.5,0.5-1.1,0.8-1.9,0.8c-1.4,0-2.4-1-2.4-2.5C284.2,237.2,285.2,236.1,286.5,236.1z M284.8,238.4h3.5c0-0.8-0.5-1.8-1.8-1.8
			C285.4,236.5,284.8,237.5,284.8,238.4z"/>
		<path class="st13" d="M292.8,240.1v-3.4H292v-0.5h0.8v-1.3h0.5v1.3h1v0.5h-1v3.4c0,0.4,0.2,0.7,0.5,0.7c0.2,0,0.4-0.1,0.5-0.2
			l0.2,0.4c-0.2,0.2-0.4,0.3-0.8,0.3C293.1,241.1,292.8,240.8,292.8,240.1z"/>
		<path class="st13" d="M298.7,237.7c0-0.9-0.5-1.2-1.2-1.2c-0.6,0-1.3,0.4-1.6,0.8v3.6h-0.5v-6.7h0.5v2.6c0.3-0.4,1-0.8,1.7-0.8
			c1,0,1.5,0.5,1.5,1.5v3.4h-0.5V237.7z"/>
		<path class="st13" d="M304,240.5c-0.4,0.5-1,0.7-1.6,0.7c-0.8,0-1.7-0.6-1.7-1.6c0-1,0.8-1.6,1.7-1.6c0.7,0,1.2,0.2,1.6,0.7v-1
			c0-0.7-0.6-1.1-1.3-1.1c-0.6,0-1.1,0.2-1.5,0.7l-0.3-0.4c0.5-0.5,1.1-0.8,1.9-0.8c1,0,1.8,0.5,1.8,1.5v3.4H304V240.5z M304,239
			c-0.3-0.4-0.9-0.7-1.5-0.7c-0.8,0-1.3,0.5-1.3,1.2c0,0.7,0.5,1.2,1.3,1.2c0.6,0,1.1-0.2,1.5-0.7V239z"/>
		<path class="st13" d="M306.2,240.1v-3.4h-0.8v-0.5h0.8v-1.3h0.5v1.3h1v0.5h-1v3.4c0,0.4,0.2,0.7,0.5,0.7c0.2,0,0.4-0.1,0.5-0.2
			l0.2,0.4c-0.2,0.2-0.4,0.3-0.8,0.3C306.5,241.1,306.2,240.8,306.2,240.1z"/>
		<path class="st13" d="M317.2,237.6c0-0.7-0.3-1.1-1-1.1c-0.5,0-1.1,0.4-1.4,0.8v3.7h-0.5v-3.4c0-0.7-0.3-1.1-1-1.1
			c-0.5,0-1.1,0.4-1.4,0.8v3.6h-0.5v-4.8h0.5v0.7c0.2-0.3,0.9-0.8,1.6-0.8c0.7,0,1.1,0.4,1.3,0.9c0.3-0.5,0.9-0.9,1.6-0.9
			c0.9,0,1.3,0.5,1.3,1.5v3.5h-0.5V237.6z"/>
		<path class="st13" d="M322.4,240.5c-0.4,0.5-1,0.7-1.6,0.7c-0.8,0-1.7-0.6-1.7-1.6c0-1,0.8-1.6,1.7-1.6c0.7,0,1.2,0.2,1.6,0.7v-1
			c0-0.7-0.6-1.1-1.3-1.1c-0.6,0-1.1,0.2-1.5,0.7l-0.3-0.4c0.5-0.5,1.1-0.8,1.9-0.8c1,0,1.8,0.5,1.8,1.5v3.4h-0.5V240.5z M322.4,239
			c-0.3-0.4-0.9-0.7-1.5-0.7c-0.8,0-1.3,0.5-1.3,1.2c0,0.7,0.5,1.2,1.3,1.2c0.6,0,1.1-0.2,1.5-0.7V239z"/>
		<path class="st13" d="M324.7,242.5c0.3,0,0.5-0.1,0.7-0.6l0.4-0.9l-2-4.9h0.6l1.8,4.2l1.7-4.2h0.6l-2.5,5.9
			c-0.3,0.6-0.7,0.9-1.2,0.9c-0.2,0-0.4,0-0.5-0.1l0.1-0.5C324.4,242.5,324.6,242.5,324.7,242.5z"/>
		<path class="st13" d="M60.6,249.7c0-0.9-0.5-1.2-1.2-1.2c-0.6,0-1.3,0.4-1.6,0.8v3.6h-0.5v-6.7h0.5v2.6c0.4-0.4,1-0.8,1.7-0.8
			c1,0,1.5,0.5,1.5,1.5v3.4h-0.5V249.7z"/>
		<path class="st13" d="M65.8,252.5c-0.4,0.5-1,0.7-1.6,0.7c-0.8,0-1.7-0.6-1.7-1.6c0-1,0.8-1.6,1.7-1.6c0.7,0,1.2,0.2,1.6,0.7v-1
			c0-0.7-0.6-1.1-1.3-1.1c-0.6,0-1.1,0.2-1.5,0.7l-0.3-0.4c0.5-0.5,1.1-0.8,1.9-0.8c1,0,1.8,0.5,1.8,1.5v3.4h-0.5V252.5z M65.8,251
			c-0.3-0.4-0.9-0.7-1.5-0.7c-0.8,0-1.3,0.5-1.3,1.2c0,0.7,0.5,1.2,1.3,1.2c0.6,0,1.1-0.2,1.5-0.7V251z"/>
		<path class="st13" d="M67.2,248.2h0.6l1.8,4.2l1.7-4.2h0.6l-2,4.8h-0.6L67.2,248.2z"/>
		<path class="st13" d="M74.8,248.1c1.5,0,2.3,1.2,2.3,2.6v0.1h-4c0,1,0.7,1.9,1.9,1.9c0.6,0,1.2-0.2,1.6-0.7l0.3,0.3
			c-0.5,0.5-1.1,0.8-1.9,0.8c-1.4,0-2.4-1-2.4-2.5C72.4,249.2,73.4,248.1,74.8,248.1z M73,250.4h3.5c0-0.8-0.5-1.8-1.8-1.8
			C73.6,248.5,73.1,249.5,73,250.4z"/>
		<path class="st13" d="M83.1,248.1c0.8,0,1.3,0.3,1.7,0.8l-0.4,0.3c-0.3-0.5-0.8-0.7-1.3-0.7c-1.1,0-1.8,0.9-1.8,2.1
			c0,1.2,0.7,2.1,1.8,2.1c0.5,0,1-0.2,1.3-0.7l0.4,0.3c-0.4,0.5-0.9,0.8-1.7,0.8c-1.4,0-2.3-1.1-2.3-2.5
			C80.7,249.2,81.6,248.1,83.1,248.1z"/>
		<path class="st13" d="M89,252.5c-0.4,0.5-1,0.7-1.6,0.7c-0.8,0-1.7-0.6-1.7-1.6c0-1,0.8-1.6,1.7-1.6c0.7,0,1.2,0.2,1.6,0.7v-1
			c0-0.7-0.6-1.1-1.3-1.1c-0.6,0-1.1,0.2-1.5,0.7l-0.3-0.4c0.5-0.5,1.1-0.8,1.9-0.8c1,0,1.8,0.5,1.8,1.5v3.4H89V252.5z M89,251
			c-0.3-0.4-0.9-0.7-1.5-0.7c-0.8,0-1.3,0.5-1.3,1.2c0,0.7,0.5,1.2,1.3,1.2c0.6,0,1.1-0.2,1.5-0.7V251z"/>
		<path class="st13" d="M94.4,252.3c-0.4,0.4-1,0.8-1.7,0.8c-1,0-1.5-0.5-1.5-1.5v-3.4h0.5v3.3c0,0.9,0.5,1.2,1.2,1.2
			c0.6,0,1.2-0.4,1.6-0.8v-3.7h0.5v4.8h-0.5V252.3z"/>
		<path class="st13" d="M96.4,252c0.3,0.4,0.9,0.7,1.6,0.7c0.8,0,1.3-0.4,1.3-1c0-0.6-0.7-0.8-1.3-1c-0.8-0.2-1.7-0.4-1.7-1.3
			c0-0.7,0.6-1.3,1.7-1.3c0.8,0,1.4,0.3,1.7,0.7l-0.3,0.4c-0.3-0.4-0.8-0.6-1.4-0.6c-0.7,0-1.2,0.4-1.2,0.9c0,0.5,0.6,0.7,1.3,0.9
			c0.8,0.2,1.8,0.4,1.8,1.5c0,0.8-0.6,1.4-1.8,1.4c-0.8,0-1.4-0.2-1.9-0.8L96.4,252z"/>
		<path class="st13" d="M103.2,248.1c1.5,0,2.3,1.2,2.3,2.6v0.1h-4c0,1,0.7,1.9,1.9,1.9c0.6,0,1.2-0.2,1.6-0.7l0.3,0.3
			c-0.5,0.5-1.1,0.8-1.9,0.8c-1.4,0-2.4-1-2.4-2.5C100.8,249.2,101.8,248.1,103.2,248.1z M101.4,250.4h3.5c0-0.8-0.5-1.8-1.8-1.8
			C102,248.5,101.5,249.5,101.4,250.4z"/>
		<path class="st13" d="M110.4,252.3c-0.3,0.5-1,0.9-1.7,0.9c-1.3,0-2.2-1-2.2-2.5c0-1.5,0.9-2.5,2.2-2.5c0.7,0,1.3,0.3,1.7,0.9
			v-2.6h0.5v6.7h-0.5V252.3z M110.4,249.4c-0.3-0.5-0.9-0.9-1.6-0.9c-1.1,0-1.7,0.9-1.7,2.1c0,1.2,0.6,2.1,1.7,2.1
			c0.7,0,1.3-0.4,1.6-0.9V249.4z"/>
		<path class="st13" d="M115.2,252.1v-3.4h-0.8v-0.5h0.8v-1.3h0.5v1.3h1v0.5h-1v3.4c0,0.4,0.2,0.7,0.5,0.7c0.2,0,0.4-0.1,0.5-0.2
			l0.2,0.4c-0.2,0.2-0.4,0.3-0.8,0.3C115.5,253.1,115.2,252.8,115.2,252.1z"/>
		<path class="st13" d="M121.1,249.7c0-0.9-0.5-1.2-1.2-1.2c-0.6,0-1.3,0.4-1.6,0.8v3.6h-0.5v-6.7h0.5v2.6c0.4-0.4,1-0.8,1.7-0.8
			c1,0,1.5,0.5,1.5,1.5v3.4h-0.5V249.7z"/>
		<path class="st13" d="M125.3,248.1c1.5,0,2.3,1.2,2.3,2.6v0.1h-4c0,1,0.7,1.9,1.9,1.9c0.6,0,1.2-0.2,1.6-0.7l0.3,0.3
			c-0.5,0.5-1.1,0.8-1.9,0.8c-1.4,0-2.4-1-2.4-2.5C123,249.2,124,248.1,125.3,248.1z M123.5,250.4h3.5c0-0.8-0.5-1.8-1.8-1.8
			C124.1,248.5,123.6,249.5,123.5,250.4z"/>
		<path class="st13" d="M133.6,248.1c1.5,0,2.3,1.2,2.3,2.6v0.1h-4c0,1,0.7,1.9,1.9,1.9c0.6,0,1.2-0.2,1.6-0.7l0.3,0.3
			c-0.5,0.5-1.1,0.8-1.9,0.8c-1.4,0-2.4-1-2.4-2.5C131.2,249.2,132.2,248.1,133.6,248.1z M131.8,250.4h3.5c0-0.8-0.5-1.8-1.8-1.8
			C132.4,248.5,131.8,249.5,131.8,250.4z"/>
		<path class="st13" d="M137.2,248.2h0.5v0.8c0.4-0.5,1-0.9,1.6-0.9v0.6c-0.1,0-0.2,0-0.3,0c-0.5,0-1.1,0.4-1.4,0.9v3.5h-0.5V248.2z
			"/>
		<path class="st13" d="M140.3,248.2h0.5v0.8c0.4-0.5,1-0.9,1.6-0.9v0.6c-0.1,0-0.2,0-0.3,0c-0.5,0-1.1,0.4-1.4,0.9v3.5h-0.5V248.2z
			"/>
		<path class="st13" d="M143.2,250.6c0-1.4,0.9-2.5,2.3-2.5c1.4,0,2.3,1.1,2.3,2.5c0,1.4-0.9,2.5-2.3,2.5
			C144.1,253.1,143.2,252,143.2,250.6z M147.3,250.6c0-1.1-0.6-2.1-1.8-2.1c-1.1,0-1.8,1-1.8,2.1c0,1.1,0.6,2.1,1.8,2.1
			C146.7,252.7,147.3,251.7,147.3,250.6z"/>
		<path class="st13" d="M149.2,248.2h0.5v0.8c0.4-0.5,1-0.9,1.6-0.9v0.6c-0.1,0-0.2,0-0.3,0c-0.5,0-1.1,0.4-1.4,0.9v3.5h-0.5V248.2z
			"/>
		<path class="st13" d="M151.9,252.2c0.2,0,0.4,0.2,0.4,0.4c0,0.2-0.2,0.5-0.4,0.5s-0.4-0.2-0.4-0.5
			C151.4,252.4,151.6,252.2,151.9,252.2z"/>
		<path class="st13" d="M63,271.1l-2.4,5.9h-0.2l-2.4-5.9v5.9h-0.6v-6.7h0.8l2.3,5.5l2.3-5.5h0.9v6.7H63V271.1z"/>
		<path class="st13" d="M64.9,274.6c0-1.4,0.9-2.5,2.3-2.5c1.4,0,2.3,1.1,2.3,2.5s-0.9,2.5-2.3,2.5C65.8,277.1,64.9,276,64.9,274.6z
			 M69,274.6c0-1.1-0.6-2.1-1.8-2.1c-1.1,0-1.8,1-1.8,2.1c0,1.1,0.6,2.1,1.8,2.1C68.4,276.7,69,275.7,69,274.6z"/>
		<path class="st13" d="M70.9,272.2h0.5v0.8c0.4-0.5,1-0.9,1.6-0.9v0.6c-0.1,0-0.2,0-0.3,0c-0.5,0-1.1,0.4-1.4,0.9v3.5h-0.5V272.2z"
			/>
		<path class="st13" d="M76.1,272.1c1.5,0,2.3,1.2,2.3,2.6v0.1h-4c0,1,0.7,1.9,1.9,1.9c0.6,0,1.2-0.2,1.6-0.7l0.3,0.3
			c-0.5,0.5-1.1,0.8-1.9,0.8c-1.4,0-2.4-1-2.4-2.5C73.8,273.2,74.8,272.1,76.1,272.1z M74.4,274.4h3.5c0-0.8-0.5-1.8-1.8-1.8
			C75,272.5,74.4,273.5,74.4,274.4z"/>
		<path class="st13" d="M82.2,271c0-0.2,0.2-0.4,0.4-0.4c0.2,0,0.4,0.2,0.4,0.4s-0.2,0.4-0.4,0.4C82.4,271.4,82.2,271.2,82.2,271z
			 M82.3,272.2h0.5v4.8h-0.5V272.2z"/>
		<path class="st13" d="M87.7,273.8c0-0.9-0.5-1.2-1.2-1.2c-0.6,0-1.3,0.4-1.6,0.8v3.6h-0.5v-4.8H85v0.7c0.4-0.4,1-0.8,1.7-0.8
			c1,0,1.5,0.5,1.5,1.6v3.4h-0.5V273.8z"/>
		<path class="st13" d="M90.1,272.7h-0.8v-0.5h0.8v-0.4c0-0.9,0.5-1.5,1.3-1.5c0.2,0,0.5,0,0.6,0.2l-0.2,0.4
			c-0.1-0.1-0.3-0.1-0.4-0.1c-0.5,0-0.8,0.4-0.8,1v0.4h1v0.5h-1v4.4h-0.5V272.7z"/>
		<path class="st13" d="M92.3,274.6c0-1.4,0.9-2.5,2.3-2.5c1.4,0,2.3,1.1,2.3,2.5s-0.9,2.5-2.3,2.5C93.2,277.1,92.3,276,92.3,274.6z
			 M96.3,274.6c0-1.1-0.6-2.1-1.8-2.1c-1.1,0-1.8,1-1.8,2.1c0,1.1,0.6,2.1,1.8,2.1C95.7,276.7,96.3,275.7,96.3,274.6z"/>
		<path class="st13" d="M98.2,272.2h0.5v0.8c0.4-0.5,1-0.9,1.6-0.9v0.6c-0.1,0-0.2,0-0.3,0c-0.5,0-1.1,0.4-1.4,0.9v3.5h-0.5V272.2z"
			/>
		<path class="st13" d="M107.2,273.6c0-0.7-0.3-1.1-1-1.1c-0.5,0-1.1,0.4-1.4,0.8v3.7h-0.5v-3.4c0-0.7-0.3-1.1-1-1.1
			c-0.5,0-1.1,0.4-1.4,0.8v3.6h-0.5v-4.8h0.5v0.7c0.2-0.3,0.9-0.8,1.6-0.8c0.8,0,1.1,0.4,1.3,0.9c0.3-0.4,0.9-0.9,1.6-0.9
			c0.9,0,1.3,0.5,1.3,1.5v3.5h-0.5V273.6z"/>
		<path class="st13" d="M112.4,276.5c-0.4,0.5-1,0.7-1.6,0.7c-0.8,0-1.7-0.6-1.7-1.6c0-1,0.8-1.6,1.7-1.6c0.7,0,1.2,0.2,1.6,0.7v-1
			c0-0.7-0.6-1.1-1.3-1.1c-0.6,0-1.1,0.2-1.5,0.7l-0.3-0.4c0.5-0.5,1.1-0.8,1.9-0.8c1,0,1.8,0.5,1.8,1.5v3.4h-0.5V276.5z M112.4,275
			c-0.3-0.4-0.9-0.7-1.5-0.7c-0.8,0-1.3,0.5-1.3,1.2c0,0.7,0.5,1.2,1.3,1.2c0.6,0,1.1-0.2,1.5-0.7V275z"/>
		<path class="st13" d="M114.6,276.1v-3.4h-0.8v-0.5h0.8v-1.3h0.5v1.3h1v0.5h-1v3.4c0,0.4,0.2,0.7,0.5,0.7c0.2,0,0.4-0.1,0.5-0.2
			l0.2,0.4c-0.2,0.2-0.4,0.3-0.8,0.3C114.9,277.1,114.6,276.8,114.6,276.1z"/>
		<path class="st13" d="M117.1,271c0-0.2,0.2-0.4,0.4-0.4c0.2,0,0.4,0.2,0.4,0.4s-0.2,0.4-0.4,0.4
			C117.3,271.4,117.1,271.2,117.1,271z M117.3,272.2h0.5v4.8h-0.5V272.2z"/>
		<path class="st13" d="M119.1,274.6c0-1.4,0.9-2.5,2.3-2.5c1.4,0,2.3,1.1,2.3,2.5s-0.9,2.5-2.3,2.5
			C120,277.1,119.1,276,119.1,274.6z M123.2,274.6c0-1.1-0.6-2.1-1.8-2.1c-1.1,0-1.8,1-1.8,2.1c0,1.1,0.6,2.1,1.8,2.1
			C122.6,276.7,123.2,275.7,123.2,274.6z"/>
		<path class="st13" d="M128.4,273.8c0-0.9-0.5-1.2-1.2-1.2c-0.6,0-1.3,0.4-1.6,0.8v3.6h-0.5v-4.8h0.5v0.7c0.4-0.4,1-0.8,1.7-0.8
			c1,0,1.5,0.5,1.5,1.6v3.4h-0.5V273.8z"/>
		<path class="st13" d="M136.2,276.5c-0.4,0.5-1,0.7-1.6,0.7c-0.8,0-1.7-0.6-1.7-1.6c0-1,0.8-1.6,1.7-1.6c0.7,0,1.2,0.2,1.6,0.7v-1
			c0-0.7-0.6-1.1-1.3-1.1c-0.6,0-1.1,0.2-1.5,0.7l-0.3-0.4c0.5-0.5,1.1-0.8,1.9-0.8c1,0,1.8,0.5,1.8,1.5v3.4h-0.5V276.5z M136.2,275
			c-0.3-0.4-0.9-0.7-1.5-0.7c-0.8,0-1.3,0.5-1.3,1.2c0,0.7,0.5,1.2,1.3,1.2c0.6,0,1.1-0.2,1.5-0.7V275z"/>
		<path class="st13" d="M138.3,270.4h0.5v2.6c0.4-0.5,1-0.9,1.7-0.9c1.3,0,2.2,1,2.2,2.5c0,1.5-0.9,2.5-2.2,2.5
			c-0.7,0-1.3-0.4-1.7-0.9v0.8h-0.5V270.4z M140.4,276.7c1.1,0,1.7-0.9,1.7-2.1c0-1.2-0.6-2.1-1.7-2.1c-0.7,0-1.3,0.4-1.6,0.9v2.4
			C139.1,276.3,139.8,276.7,140.4,276.7z"/>
		<path class="st13" d="M143.7,274.6c0-1.4,0.9-2.5,2.3-2.5c1.4,0,2.3,1.1,2.3,2.5s-0.9,2.5-2.3,2.5
			C144.7,277.1,143.7,276,143.7,274.6z M147.8,274.6c0-1.1-0.6-2.1-1.8-2.1c-1.1,0-1.8,1-1.8,2.1c0,1.1,0.6,2.1,1.8,2.1
			C147.2,276.7,147.8,275.7,147.8,274.6z"/>
		<path class="st13" d="M153,276.3c-0.4,0.4-1,0.8-1.7,0.8c-1,0-1.5-0.5-1.5-1.5v-3.4h0.5v3.3c0,0.9,0.5,1.2,1.2,1.2
			c0.6,0,1.2-0.4,1.6-0.8v-3.7h0.5v4.8H153V276.3z"/>
		<path class="st13" d="M155.2,276.1v-3.4h-0.8v-0.5h0.8v-1.3h0.5v1.3h1v0.5h-1v3.4c0,0.4,0.2,0.7,0.5,0.7c0.2,0,0.4-0.1,0.5-0.2
			l0.2,0.4c-0.2,0.2-0.4,0.3-0.8,0.3C155.5,277.1,155.2,276.8,155.2,276.1z"/>
		<path class="st13" d="M160.6,276.1v-3.4h-0.8v-0.5h0.8v-1.3h0.5v1.3h1v0.5h-1v3.4c0,0.4,0.2,0.7,0.5,0.7c0.2,0,0.4-0.1,0.5-0.2
			l0.2,0.4c-0.2,0.2-0.4,0.3-0.8,0.3C160.9,277.1,160.6,276.8,160.6,276.1z"/>
		<path class="st13" d="M166.5,273.7c0-0.9-0.5-1.2-1.2-1.2c-0.6,0-1.3,0.4-1.6,0.8v3.6h-0.5v-6.7h0.5v2.6c0.4-0.4,1-0.8,1.7-0.8
			c1,0,1.5,0.5,1.5,1.5v3.4h-0.5V273.7z"/>
		<path class="st13" d="M168.5,271c0-0.2,0.2-0.4,0.4-0.4c0.2,0,0.4,0.2,0.4,0.4s-0.2,0.4-0.4,0.4
			C168.7,271.4,168.5,271.2,168.5,271z M168.6,272.2h0.5v4.8h-0.5V272.2z"/>
		<path class="st13" d="M170.7,276c0.3,0.4,0.9,0.7,1.6,0.7c0.8,0,1.3-0.4,1.3-1c0-0.6-0.7-0.8-1.3-1c-0.8-0.2-1.7-0.4-1.7-1.3
			c0-0.7,0.6-1.3,1.7-1.3c0.8,0,1.4,0.3,1.7,0.7l-0.3,0.4c-0.3-0.4-0.8-0.6-1.4-0.6c-0.7,0-1.2,0.4-1.2,0.9c0,0.5,0.6,0.7,1.3,0.9
			c0.8,0.2,1.8,0.4,1.8,1.5c0,0.8-0.6,1.4-1.8,1.4c-0.8,0-1.4-0.2-1.9-0.8L170.7,276z"/>
		<path class="st13" d="M180,272.1c1.5,0,2.3,1.2,2.3,2.6v0.1h-4c0,1,0.7,1.9,1.9,1.9c0.6,0,1.2-0.2,1.6-0.7l0.3,0.3
			c-0.5,0.5-1.1,0.8-1.9,0.8c-1.4,0-2.4-1-2.4-2.5C177.7,273.2,178.7,272.1,180,272.1z M178.2,274.4h3.5c0-0.8-0.5-1.8-1.8-1.8
			C178.8,272.5,178.3,273.5,178.2,274.4z"/>
		<path class="st13" d="M183.6,272.2h0.5v0.8c0.4-0.5,1-0.9,1.6-0.9v0.6c-0.1,0-0.2,0-0.3,0c-0.5,0-1.1,0.4-1.4,0.9v3.5h-0.5V272.2z
			"/>
		<path class="st13" d="M186.8,272.2h0.5v0.8c0.4-0.5,1-0.9,1.6-0.9v0.6c-0.1,0-0.2,0-0.3,0c-0.5,0-1.1,0.4-1.4,0.9v3.5h-0.5V272.2z
			"/>
		<path class="st13" d="M189.7,274.6c0-1.4,0.9-2.5,2.3-2.5c1.4,0,2.3,1.1,2.3,2.5s-0.9,2.5-2.3,2.5
			C190.6,277.1,189.7,276,189.7,274.6z M193.8,274.6c0-1.1-0.6-2.1-1.8-2.1c-1.1,0-1.8,1-1.8,2.1c0,1.1,0.6,2.1,1.8,2.1
			C193.1,276.7,193.8,275.7,193.8,274.6z"/>
		<path class="st13" d="M195.7,272.2h0.5v0.8c0.4-0.5,1-0.9,1.6-0.9v0.6c-0.1,0-0.2,0-0.3,0c-0.5,0-1.1,0.4-1.4,0.9v3.5h-0.5V272.2z
			"/>
		<path class="st13" d="M207.2,273.6c0-0.7-0.3-1.1-1-1.1c-0.5,0-1.1,0.4-1.4,0.8v3.7h-0.5v-3.4c0-0.7-0.3-1.1-1-1.1
			c-0.5,0-1.1,0.4-1.4,0.8v3.6h-0.5v-4.8h0.5v0.7c0.2-0.3,0.9-0.8,1.6-0.8c0.7,0,1.1,0.4,1.3,0.9c0.3-0.4,0.9-0.9,1.6-0.9
			c0.9,0,1.3,0.5,1.3,1.5v3.5h-0.5V273.6z"/>
		<path class="st13" d="M212.4,276.5c-0.4,0.5-1,0.7-1.6,0.7c-0.8,0-1.7-0.6-1.7-1.6c0-1,0.8-1.6,1.7-1.6c0.7,0,1.2,0.2,1.6,0.7v-1
			c0-0.7-0.6-1.1-1.3-1.1c-0.6,0-1.1,0.2-1.5,0.7l-0.3-0.4c0.5-0.5,1.1-0.8,1.9-0.8c1,0,1.8,0.5,1.8,1.5v3.4h-0.5V276.5z M212.4,275
			c-0.3-0.4-0.9-0.7-1.5-0.7c-0.8,0-1.3,0.5-1.3,1.2c0,0.7,0.5,1.2,1.3,1.2c0.6,0,1.1-0.2,1.5-0.7V275z"/>
		<path class="st13" d="M214.7,278.5c0.3,0,0.5-0.1,0.7-0.6l0.4-0.9l-2-4.9h0.6l1.8,4.2l1.7-4.2h0.6l-2.5,5.9
			c-0.3,0.6-0.7,0.9-1.2,0.9c-0.2,0-0.4,0-0.5-0.1l0.1-0.5C214.4,278.5,214.6,278.5,214.7,278.5z"/>
		<path class="st13" d="M221.9,270.4h0.5v2.6c0.4-0.5,1-0.9,1.7-0.9c1.3,0,2.2,1,2.2,2.5c0,1.5-0.9,2.5-2.2,2.5
			c-0.7,0-1.3-0.4-1.7-0.9v0.8h-0.5V270.4z M224,276.7c1.1,0,1.7-0.9,1.7-2.1c0-1.2-0.6-2.1-1.7-2.1c-0.7,0-1.3,0.4-1.6,0.9v2.4
			C222.7,276.3,223.4,276.7,224,276.7z"/>
		<path class="st13" d="M229.7,272.1c1.5,0,2.3,1.2,2.3,2.6v0.1h-4c0,1,0.7,1.9,1.9,1.9c0.6,0,1.2-0.2,1.6-0.7l0.3,0.3
			c-0.5,0.5-1.1,0.8-1.9,0.8c-1.4,0-2.4-1-2.4-2.5C227.4,273.2,228.3,272.1,229.7,272.1z M227.9,274.4h3.5c0-0.8-0.5-1.8-1.8-1.8
			C228.5,272.5,228,273.5,227.9,274.4z"/>
		<path class="st13" d="M239,276.5c-0.4,0.5-1,0.7-1.6,0.7c-0.8,0-1.7-0.6-1.7-1.6c0-1,0.8-1.6,1.7-1.6c0.7,0,1.2,0.2,1.6,0.7v-1
			c0-0.7-0.6-1.1-1.3-1.1c-0.6,0-1.1,0.2-1.5,0.7l-0.3-0.4c0.5-0.5,1.1-0.8,1.9-0.8c1,0,1.8,0.5,1.8,1.5v3.4H239V276.5z M239,275
			c-0.3-0.4-0.9-0.7-1.5-0.7c-0.8,0-1.3,0.5-1.3,1.2c0,0.7,0.5,1.2,1.3,1.2c0.6,0,1.1-0.2,1.5-0.7V275z"/>
		<path class="st13" d="M241.1,270.4h0.5v2.6c0.4-0.5,1-0.9,1.7-0.9c1.3,0,2.2,1,2.2,2.5c0,1.5-0.9,2.5-2.2,2.5
			c-0.7,0-1.3-0.4-1.7-0.9v0.8h-0.5V270.4z M243.2,276.7c1.1,0,1.7-0.9,1.7-2.1c0-1.2-0.6-2.1-1.7-2.1c-0.7,0-1.3,0.4-1.6,0.9v2.4
			C241.9,276.3,242.5,276.7,243.2,276.7z"/>
		<path class="st13" d="M249.9,276.5c-0.4,0.5-1,0.7-1.6,0.7c-0.8,0-1.7-0.6-1.7-1.6c0-1,0.8-1.6,1.7-1.6c0.7,0,1.2,0.2,1.6,0.7v-1
			c0-0.7-0.6-1.1-1.3-1.1c-0.6,0-1.1,0.2-1.5,0.7l-0.3-0.4c0.5-0.5,1.1-0.8,1.9-0.8c1,0,1.8,0.5,1.8,1.5v3.4h-0.5V276.5z M249.9,275
			c-0.3-0.4-0.9-0.7-1.5-0.7c-0.8,0-1.3,0.5-1.3,1.2c0,0.7,0.5,1.2,1.3,1.2c0.6,0,1.1-0.2,1.5-0.7V275z"/>
		<path class="st13" d="M251.9,271c0-0.2,0.2-0.4,0.4-0.4c0.2,0,0.4,0.2,0.4,0.4s-0.2,0.4-0.4,0.4
			C252.1,271.4,251.9,271.2,251.9,271z M252,272.2h0.5v4.8H252V272.2z"/>
		<path class="st13" d="M254.2,270.4h0.5v6.7h-0.5V270.4z"/>
		<path class="st13" d="M259.4,276.5c-0.4,0.5-1,0.7-1.6,0.7c-0.8,0-1.7-0.6-1.7-1.6c0-1,0.8-1.6,1.7-1.6c0.7,0,1.2,0.2,1.6,0.7v-1
			c0-0.7-0.6-1.1-1.3-1.1c-0.6,0-1.1,0.2-1.5,0.7l-0.3-0.4c0.5-0.5,1.1-0.8,1.9-0.8c1,0,1.8,0.5,1.8,1.5v3.4h-0.5V276.5z M259.4,275
			c-0.3-0.4-0.9-0.7-1.5-0.7c-0.8,0-1.3,0.5-1.3,1.2c0,0.7,0.5,1.2,1.3,1.2c0.6,0,1.1-0.2,1.5-0.7V275z"/>
		<path class="st13" d="M261.5,270.4h0.5v2.6c0.4-0.5,1-0.9,1.7-0.9c1.3,0,2.2,1,2.2,2.5c0,1.5-0.9,2.5-2.2,2.5
			c-0.7,0-1.3-0.4-1.7-0.9v0.8h-0.5V270.4z M263.6,276.7c1.1,0,1.7-0.9,1.7-2.1c0-1.2-0.6-2.1-1.7-2.1c-0.7,0-1.3,0.4-1.6,0.9v2.4
			C262.3,276.3,263,276.7,263.6,276.7z"/>
		<path class="st13" d="M267.2,270.4h0.5v6.7h-0.5V270.4z"/>
		<path class="st13" d="M271.4,272.1c1.5,0,2.3,1.2,2.3,2.6v0.1h-4c0,1,0.7,1.9,1.9,1.9c0.6,0,1.2-0.2,1.6-0.7l0.3,0.3
			c-0.5,0.5-1.1,0.8-1.9,0.8c-1.4,0-2.4-1-2.4-2.5C269.1,273.2,270.1,272.1,271.4,272.1z M269.7,274.4h3.5c0-0.8-0.5-1.8-1.8-1.8
			C270.3,272.5,269.7,273.5,269.7,274.4z"/>
		<path class="st13" d="M277.5,271c0-0.2,0.2-0.4,0.4-0.4c0.2,0,0.4,0.2,0.4,0.4s-0.2,0.4-0.4,0.4
			C277.7,271.4,277.5,271.2,277.5,271z M277.6,272.2h0.5v4.8h-0.5V272.2z"/>
		<path class="st13" d="M283,273.8c0-0.9-0.5-1.2-1.2-1.2c-0.6,0-1.3,0.4-1.6,0.8v3.6h-0.5v-4.8h0.5v0.7c0.3-0.4,1-0.8,1.7-0.8
			c1,0,1.5,0.5,1.5,1.6v3.4H283V273.8z"/>
		<path class="st13" d="M287.9,276.1v-3.4h-0.8v-0.5h0.8v-1.3h0.5v1.3h1v0.5h-1v3.4c0,0.4,0.2,0.7,0.5,0.7c0.2,0,0.4-0.1,0.5-0.2
			l0.2,0.4c-0.2,0.2-0.4,0.3-0.8,0.3C288.2,277.1,287.9,276.8,287.9,276.1z"/>
		<path class="st13" d="M293.8,273.7c0-0.9-0.5-1.2-1.2-1.2c-0.6,0-1.3,0.4-1.6,0.8v3.6h-0.5v-6.7h0.5v2.6c0.3-0.4,1-0.8,1.7-0.8
			c1,0,1.5,0.5,1.5,1.5v3.4h-0.5V273.7z"/>
		<path class="st13" d="M298,272.1c1.5,0,2.3,1.2,2.3,2.6v0.1h-4c0,1,0.7,1.9,1.9,1.9c0.6,0,1.2-0.2,1.6-0.7l0.3,0.3
			c-0.5,0.5-1.1,0.8-1.9,0.8c-1.4,0-2.4-1-2.4-2.5C295.6,273.2,296.6,272.1,298,272.1z M296.2,274.4h3.5c0-0.8-0.5-1.8-1.8-1.8
			C296.8,272.5,296.2,273.5,296.2,274.4z"/>
		<path class="st13" d="M304.1,276c0.3,0.4,0.9,0.7,1.6,0.7c0.8,0,1.3-0.4,1.3-1c0-0.6-0.7-0.8-1.3-1c-0.8-0.2-1.7-0.4-1.7-1.3
			c0-0.7,0.6-1.3,1.7-1.3c0.8,0,1.4,0.3,1.7,0.7l-0.3,0.4c-0.3-0.4-0.8-0.6-1.4-0.6c-0.8,0-1.2,0.4-1.2,0.9c0,0.5,0.6,0.7,1.3,0.9
			c0.8,0.2,1.8,0.4,1.8,1.5c0,0.8-0.6,1.4-1.8,1.4c-0.8,0-1.4-0.2-1.9-0.8L304.1,276z"/>
		<path class="st13" d="M310.8,272.1c1.5,0,2.3,1.2,2.3,2.6v0.1h-4c0,1,0.7,1.9,1.9,1.9c0.6,0,1.2-0.2,1.6-0.7l0.3,0.3
			c-0.5,0.5-1.1,0.8-1.9,0.8c-1.4,0-2.4-1-2.4-2.5C308.5,273.2,309.5,272.1,310.8,272.1z M309,274.4h3.5c0-0.8-0.5-1.8-1.8-1.8
			C309.7,272.5,309.1,273.5,309,274.4z"/>
		<path class="st13" d="M314.4,272.2h0.5v0.8c0.4-0.5,1-0.9,1.6-0.9v0.6c-0.1,0-0.2,0-0.3,0c-0.5,0-1.1,0.4-1.4,0.9v3.5h-0.5V272.2z
			"/>
		<path class="st13" d="M316.9,272.2h0.6l1.8,4.2l1.7-4.2h0.6l-2,4.8h-0.6L316.9,272.2z"/>
		<path class="st13" d="M324.5,272.1c1.5,0,2.3,1.2,2.3,2.6v0.1h-4c0,1,0.7,1.9,1.9,1.9c0.6,0,1.2-0.2,1.6-0.7l0.3,0.3
			c-0.5,0.5-1.1,0.8-1.9,0.8c-1.4,0-2.4-1-2.4-2.5C322.1,273.2,323.1,272.1,324.5,272.1z M322.7,274.4h3.5c0-0.8-0.5-1.8-1.8-1.8
			C323.3,272.5,322.7,273.5,322.7,274.4z"/>
		<path class="st13" d="M328.1,272.2h0.5v0.8c0.4-0.5,1-0.9,1.6-0.9v0.6c-0.1,0-0.2,0-0.3,0c-0.5,0-1.1,0.4-1.4,0.9v3.5h-0.5V272.2z
			"/>
		<path class="st13" d="M335.9,272.1c1.5,0,2.3,1.2,2.3,2.6v0.1h-4c0,1,0.7,1.9,1.9,1.9c0.6,0,1.2-0.2,1.6-0.7l0.3,0.3
			c-0.5,0.5-1.1,0.8-1.9,0.8c-1.4,0-2.4-1-2.4-2.5C333.6,273.2,334.5,272.1,335.9,272.1z M334.1,274.4h3.5c0-0.8-0.5-1.8-1.8-1.8
			C334.7,272.5,334.2,273.5,334.1,274.4z"/>
		<path class="st13" d="M339.5,272.2h0.5v0.8c0.4-0.5,1-0.9,1.6-0.9v0.6c-0.1,0-0.2,0-0.3,0c-0.5,0-1.1,0.4-1.4,0.9v3.5h-0.5V272.2z
			"/>
		<path class="st13" d="M342.7,272.2h0.5v0.8c0.4-0.5,1-0.9,1.6-0.9v0.6c-0.1,0-0.2,0-0.3,0c-0.5,0-1.1,0.4-1.4,0.9v3.5h-0.5V272.2z
			"/>
		<path class="st13" d="M345.6,274.6c0-1.4,0.9-2.5,2.3-2.5c1.4,0,2.3,1.1,2.3,2.5s-0.9,2.5-2.3,2.5
			C346.5,277.1,345.6,276,345.6,274.6z M349.6,274.6c0-1.1-0.6-2.1-1.8-2.1c-1.1,0-1.8,1-1.8,2.1c0,1.1,0.6,2.1,1.8,2.1
			C349,276.7,349.6,275.7,349.6,274.6z"/>
		<path class="st13" d="M351.6,272.2h0.5v0.8c0.4-0.5,1-0.9,1.6-0.9v0.6c-0.1,0-0.2,0-0.3,0c-0.5,0-1.1,0.4-1.4,0.9v3.5h-0.5V272.2z
			"/>
		<path class="st13" d="M57.3,282.4h0.5v6.7h-0.5V282.4z"/>
		<path class="st13" d="M59.2,286.6c0-1.4,0.9-2.5,2.3-2.5c1.4,0,2.3,1.1,2.3,2.5s-0.9,2.5-2.3,2.5C60.1,289.1,59.2,288,59.2,286.6z
			 M63.3,286.6c0-1.1-0.6-2.1-1.8-2.1c-1.1,0-1.8,1-1.8,2.1c0,1.1,0.6,2.1,1.8,2.1C62.6,288.7,63.3,287.7,63.3,286.6z"/>
		<path class="st13" d="M65.5,289.8c0.4,0.5,0.9,0.7,1.6,0.7c0.9,0,1.6-0.4,1.6-1.5v-0.8c-0.3,0.5-1,0.9-1.7,0.9
			c-1.3,0-2.2-1-2.2-2.5c0-1.5,0.9-2.5,2.2-2.5c0.7,0,1.3,0.3,1.7,0.9v-0.8h0.5v4.8c0,1.5-1,2-2.2,2c-0.8,0-1.3-0.2-1.9-0.7
			L65.5,289.8z M68.7,285.4c-0.3-0.5-0.9-0.9-1.6-0.9c-1.1,0-1.7,0.9-1.7,2.1c0,1.2,0.6,2,1.7,2c0.7,0,1.3-0.4,1.6-0.9V285.4z"/>
		<path class="st13" d="M71.1,288.2c0.2,0,0.4,0.2,0.4,0.4c0,0.2-0.2,0.4-0.4,0.4s-0.4-0.2-0.4-0.4
			C70.7,288.4,70.9,288.2,71.1,288.2z"/>
		<path class="st13" d="M61.5,311.4H58l-0.7,1.6h-0.6l2.7-6.7h0.7l2.7,6.7h-0.6L61.5,311.4z M58.1,310.9h3.2l-1.6-3.9L58.1,310.9z"
			/>
		<path class="st13" d="M67.3,312.3c-0.3,0.5-1,0.9-1.7,0.9c-1.3,0-2.2-1-2.2-2.5c0-1.5,0.9-2.5,2.2-2.5c0.7,0,1.3,0.3,1.7,0.9v-2.6
			h0.5v6.7h-0.5V312.3z M67.3,309.4c-0.3-0.5-0.9-0.9-1.6-0.9c-1.1,0-1.7,0.9-1.7,2.1c0,1.2,0.6,2.1,1.7,2.1c0.7,0,1.3-0.4,1.6-0.9
			V309.4z"/>
		<path class="st13" d="M73,312.3c-0.3,0.5-1,0.9-1.7,0.9c-1.3,0-2.2-1-2.2-2.5c0-1.5,0.9-2.5,2.2-2.5c0.7,0,1.3,0.3,1.7,0.9v-2.6
			h0.5v6.7H73V312.3z M73,309.4c-0.3-0.5-0.9-0.9-1.6-0.9c-1.1,0-1.7,0.9-1.7,2.1c0,1.2,0.6,2.1,1.7,2.1c0.7,0,1.3-0.4,1.6-0.9
			V309.4z"/>
		<path class="st13" d="M75.1,307c0-0.2,0.2-0.4,0.4-0.4c0.2,0,0.4,0.2,0.4,0.4s-0.2,0.4-0.4,0.4C75.2,307.4,75.1,307.2,75.1,307z
			 M75.2,308.2h0.5v4.8h-0.5V308.2z"/>
		<path class="st13" d="M77.4,312.1v-3.4h-0.8v-0.5h0.8v-1.3H78v1.3h1v0.5h-1v3.4c0,0.4,0.2,0.7,0.5,0.7c0.2,0,0.4-0.1,0.5-0.2
			l0.2,0.4c-0.2,0.2-0.4,0.3-0.8,0.3C77.7,313.1,77.4,312.8,77.4,312.1z"/>
		<path class="st13" d="M79.9,307c0-0.2,0.2-0.4,0.4-0.4c0.2,0,0.4,0.2,0.4,0.4s-0.2,0.4-0.4,0.4C80.1,307.4,79.9,307.2,79.9,307z
			 M80.1,308.2h0.5v4.8h-0.5V308.2z"/>
		<path class="st13" d="M81.9,310.6c0-1.4,0.9-2.5,2.3-2.5c1.4,0,2.3,1.1,2.3,2.5s-0.9,2.5-2.3,2.5C82.9,313.1,81.9,312,81.9,310.6z
			 M86,310.6c0-1.1-0.6-2.1-1.8-2.1c-1.1,0-1.8,1-1.8,2.1c0,1.1,0.6,2.1,1.8,2.1C85.4,312.7,86,311.7,86,310.6z"/>
		<path class="st13" d="M91.2,309.8c0-0.9-0.5-1.2-1.2-1.2c-0.6,0-1.3,0.4-1.6,0.8v3.6h-0.5v-4.8h0.5v0.7c0.4-0.4,1-0.8,1.7-0.8
			c1,0,1.5,0.5,1.5,1.6v3.4h-0.5V309.8z"/>
		<path class="st13" d="M96.4,312.5c-0.4,0.5-1,0.7-1.6,0.7c-0.8,0-1.7-0.6-1.7-1.6c0-1,0.8-1.6,1.7-1.6c0.7,0,1.2,0.2,1.6,0.7v-1
			c0-0.7-0.6-1.1-1.3-1.1c-0.6,0-1.1,0.2-1.5,0.7l-0.3-0.4c0.5-0.5,1.1-0.8,1.9-0.8c1,0,1.8,0.5,1.8,1.5v3.4h-0.5V312.5z M96.4,311
			c-0.3-0.4-0.9-0.7-1.5-0.7c-0.8,0-1.3,0.5-1.3,1.2c0,0.7,0.5,1.2,1.3,1.2c0.6,0,1.1-0.2,1.5-0.7V311z"/>
		<path class="st13" d="M98.5,306.4h0.5v6.7h-0.5V306.4z"/>
		<path class="st13" d="M100.7,306.4h0.5v6.7h-0.5V306.4z"/>
		<path class="st13" d="M103,314.5c0.3,0,0.5-0.1,0.7-0.6l0.4-0.9l-2-4.9h0.6l1.8,4.2l1.7-4.2h0.6l-2.5,5.9
			c-0.3,0.6-0.7,0.9-1.2,0.9c-0.2,0-0.4,0-0.5-0.1l0.1-0.5C102.7,314.5,102.9,314.5,103,314.5z"/>
		<path class="st13" d="M106.8,314c0.3-0.2,0.6-0.6,0.6-0.9l-0.1,0c-0.2,0-0.4-0.2-0.4-0.4c0-0.2,0.2-0.4,0.4-0.4
			c0.3,0,0.5,0.2,0.5,0.6c0,0.6-0.3,1.1-0.7,1.4L106.8,314z"/>
		<path class="st13" d="M114.9,312.5c-0.4,0.5-1,0.7-1.6,0.7c-0.8,0-1.7-0.6-1.7-1.6c0-1,0.8-1.6,1.7-1.6c0.7,0,1.2,0.2,1.6,0.7v-1
			c0-0.7-0.6-1.1-1.3-1.1c-0.6,0-1.1,0.2-1.5,0.7l-0.3-0.4c0.5-0.5,1.1-0.8,1.9-0.8c1,0,1.8,0.5,1.8,1.5v3.4h-0.5V312.5z M114.9,311
			c-0.3-0.4-0.9-0.7-1.5-0.7c-0.8,0-1.3,0.5-1.3,1.2c0,0.7,0.5,1.2,1.3,1.2c0.6,0,1.1-0.2,1.5-0.7V311z"/>
		<path class="st13" d="M119.9,311.7c0.4,0.6,1,1,1.9,1c1,0,1.7-0.7,1.7-1.6c0-1-0.7-1.6-1.7-1.6c-0.6,0-1.1,0.2-1.6,0.6l-0.4-0.2
			v-3.5h3.8v0.5h-3.3v2.6c0.3-0.3,0.9-0.6,1.6-0.6c1.1,0,2.1,0.7,2.1,2.1c0,1.3-1,2.1-2.2,2.1c-1.1,0-1.8-0.4-2.2-1.1L119.9,311.7z"
			/>
		<path class="st13" d="M127.7,306.3c1.8,0,2.5,1.8,2.5,3.4c0,1.6-0.7,3.4-2.5,3.4c-1.8,0-2.5-1.9-2.5-3.4
			C125.2,308.1,125.9,306.3,127.7,306.3z M127.7,306.8c-1.4,0-1.9,1.5-1.9,2.9c0,1.4,0.5,2.9,1.9,2.9c1.4,0,1.8-1.6,1.8-2.9
			C129.5,308.3,129.1,306.8,127.7,306.8z"/>
		<path class="st13" d="M133.8,306.3c1.8,0,2.5,1.8,2.5,3.4c0,1.6-0.7,3.4-2.5,3.4c-1.8,0-2.5-1.9-2.5-3.4
			C131.3,308.1,132,306.3,133.8,306.3z M133.8,306.8c-1.4,0-1.9,1.5-1.9,2.9c0,1.4,0.5,2.9,1.9,2.9c1.4,0,1.8-1.6,1.8-2.9
			C135.6,308.3,135.2,306.8,133.8,306.8z"/>
		<path class="st13" d="M140.2,306.4h0.6v6.7h-0.6V306.4z"/>
		<path class="st13" d="M145.7,309.8c0-0.9-0.5-1.2-1.2-1.2c-0.6,0-1.3,0.4-1.6,0.8v3.6h-0.5v-4.8h0.5v0.7c0.4-0.4,1-0.8,1.7-0.8
			c1,0,1.5,0.5,1.5,1.6v3.4h-0.5V309.8z"/>
		<path class="st13" d="M147.9,312.1v-3.4h-0.8v-0.5h0.8v-1.3h0.5v1.3h1v0.5h-1v3.4c0,0.4,0.2,0.7,0.5,0.7c0.2,0,0.4-0.1,0.5-0.2
			l0.2,0.4c-0.2,0.2-0.4,0.3-0.8,0.3C148.2,313.1,147.9,312.8,147.9,312.1z"/>
		<path class="st13" d="M152.6,308.1c1.5,0,2.3,1.2,2.3,2.6v0.1h-4c0,1,0.7,1.9,1.9,1.9c0.6,0,1.2-0.2,1.6-0.7l0.3,0.3
			c-0.5,0.5-1.1,0.8-1.9,0.8c-1.4,0-2.4-1-2.4-2.5C150.3,309.2,151.3,308.1,152.6,308.1z M150.9,310.4h3.5c0-0.8-0.5-1.8-1.8-1.8
			C151.5,308.5,150.9,309.5,150.9,310.4z"/>
		<path class="st13" d="M156.2,308.2h0.5v0.8c0.4-0.5,1-0.9,1.6-0.9v0.6c-0.1,0-0.2,0-0.3,0c-0.5,0-1.1,0.4-1.4,0.9v3.5h-0.5V308.2z
			"/>
		<path class="st13" d="M162.7,309.8c0-0.9-0.5-1.2-1.2-1.2c-0.6,0-1.3,0.4-1.6,0.8v3.6h-0.5v-4.8h0.5v0.7c0.4-0.4,1-0.8,1.7-0.8
			c1,0,1.5,0.5,1.5,1.6v3.4h-0.5V309.8z"/>
		<path class="st13" d="M167.9,312.5c-0.4,0.5-1,0.7-1.6,0.7c-0.8,0-1.7-0.6-1.7-1.6c0-1,0.8-1.6,1.7-1.6c0.7,0,1.2,0.2,1.6,0.7v-1
			c0-0.7-0.6-1.1-1.3-1.1c-0.6,0-1.1,0.2-1.5,0.7l-0.3-0.4c0.5-0.5,1.1-0.8,1.9-0.8c1,0,1.8,0.5,1.8,1.5v3.4h-0.5V312.5z M167.9,311
			c-0.3-0.4-0.9-0.7-1.5-0.7c-0.8,0-1.3,0.5-1.3,1.2c0,0.7,0.5,1.2,1.3,1.2c0.6,0,1.1-0.2,1.5-0.7V311z"/>
		<path class="st13" d="M170,306.4h0.5v6.7H170V306.4z"/>
		<path class="st13" d="M174.8,311.7c0.4,0.5,1.1,1,2.1,1c1.4,0,1.8-0.8,1.8-1.3c0-0.9-0.9-1.2-1.8-1.4c-1-0.3-2.2-0.6-2.2-1.8
			c0-1.1,1-1.8,2.2-1.8c1,0,1.7,0.3,2.3,0.9l-0.4,0.4c-0.5-0.6-1.2-0.8-1.9-0.8c-0.9,0-1.6,0.5-1.6,1.2c0,0.8,0.8,1,1.7,1.3
			c1.1,0.3,2.3,0.6,2.3,2c0,0.9-0.6,1.9-2.4,1.9c-1.1,0-1.9-0.4-2.4-1.1L174.8,311.7z"/>
		<path class="st13" d="M182.6,308.1c1.5,0,2.3,1.2,2.3,2.6v0.1h-4c0,1,0.7,1.9,1.9,1.9c0.6,0,1.2-0.2,1.6-0.7l0.3,0.3
			c-0.5,0.5-1.1,0.8-1.9,0.8c-1.4,0-2.4-1-2.4-2.5C180.3,309.2,181.3,308.1,182.6,308.1z M180.9,310.4h3.5c0-0.8-0.5-1.8-1.8-1.8
			C181.5,308.5,180.9,309.5,180.9,310.4z"/>
		<path class="st13" d="M186.2,308.2h0.5v0.8c0.4-0.5,1-0.9,1.6-0.9v0.6c-0.1,0-0.2,0-0.3,0c-0.5,0-1.1,0.4-1.4,0.9v3.5h-0.5V308.2z
			"/>
		<path class="st13" d="M188.7,308.2h0.6l1.8,4.2l1.7-4.2h0.6l-2,4.8h-0.6L188.7,308.2z"/>
		<path class="st13" d="M196.3,308.1c1.5,0,2.3,1.2,2.3,2.6v0.1h-4c0,1,0.7,1.9,1.9,1.9c0.6,0,1.2-0.2,1.6-0.7l0.3,0.3
			c-0.5,0.5-1.1,0.8-1.9,0.8c-1.4,0-2.4-1-2.4-2.5C193.9,309.2,194.9,308.1,196.3,308.1z M194.5,310.4h3.5c0-0.8-0.5-1.8-1.8-1.8
			C195.1,308.5,194.5,309.5,194.5,310.4z"/>
		<path class="st13" d="M199.9,308.2h0.5v0.8c0.4-0.5,1-0.9,1.6-0.9v0.6c-0.1,0-0.2,0-0.3,0c-0.5,0-1.1,0.4-1.4,0.9v3.5h-0.5V308.2z
			"/>
		<path class="st13" d="M205.7,306.4h4.2v0.5h-3.7v2.5h3.6v0.5h-3.6v2.6h3.7v0.5h-4.2V306.4z"/>
		<path class="st13" d="M211.3,308.2h0.5v0.8c0.4-0.5,1-0.9,1.6-0.9v0.6c-0.1,0-0.2,0-0.3,0c-0.5,0-1.1,0.4-1.4,0.9v3.5h-0.5V308.2z
			"/>
		<path class="st13" d="M214.5,308.2h0.5v0.8c0.4-0.5,1-0.9,1.6-0.9v0.6c-0.1,0-0.2,0-0.3,0c-0.5,0-1.1,0.4-1.4,0.9v3.5h-0.5V308.2z
			"/>
		<path class="st13" d="M217.3,310.6c0-1.4,0.9-2.5,2.3-2.5c1.4,0,2.3,1.1,2.3,2.5s-0.9,2.5-2.3,2.5
			C218.3,313.1,217.3,312,217.3,310.6z M221.4,310.6c0-1.1-0.6-2.1-1.8-2.1c-1.1,0-1.8,1-1.8,2.1c0,1.1,0.6,2.1,1.8,2.1
			C220.8,312.7,221.4,311.7,221.4,310.6z"/>
		<path class="st13" d="M223.3,308.2h0.5v0.8c0.4-0.5,1-0.9,1.6-0.9v0.6c-0.1,0-0.2,0-0.3,0c-0.5,0-1.1,0.4-1.4,0.9v3.5h-0.5V308.2z
			"/>
		<path class="st13" d="M231.1,308.1c1.5,0,2.3,1.2,2.3,2.6v0.1h-4c0,1,0.7,1.9,1.9,1.9c0.6,0,1.2-0.2,1.6-0.7l0.3,0.3
			c-0.5,0.5-1.1,0.8-1.9,0.8c-1.4,0-2.4-1-2.4-2.5C228.8,309.2,229.8,308.1,231.1,308.1z M229.4,310.4h3.5c0-0.8-0.5-1.8-1.8-1.8
			C230,308.5,229.4,309.5,229.4,310.4z"/>
		<path class="st13" d="M234.8,308.2h0.5v0.8c0.4-0.5,1-0.9,1.6-0.9v0.6c-0.1,0-0.2,0-0.3,0c-0.5,0-1.1,0.4-1.4,0.9v3.5h-0.5V308.2z
			"/>
		<path class="st13" d="M237.9,308.2h0.5v0.8c0.4-0.5,1-0.9,1.6-0.9v0.6c-0.1,0-0.2,0-0.3,0c-0.5,0-1.1,0.4-1.4,0.9v3.5h-0.5V308.2z
			"/>
		<path class="st13" d="M240.8,310.6c0-1.4,0.9-2.5,2.3-2.5c1.4,0,2.3,1.1,2.3,2.5s-0.9,2.5-2.3,2.5
			C241.7,313.1,240.8,312,240.8,310.6z M244.9,310.6c0-1.1-0.6-2.1-1.8-2.1c-1.1,0-1.8,1-1.8,2.1c0,1.1,0.6,2.1,1.8,2.1
			C244.3,312.7,244.9,311.7,244.9,310.6z"/>
		<path class="st13" d="M246.8,308.2h0.5v0.8c0.4-0.5,1-0.9,1.6-0.9v0.6c-0.1,0-0.2,0-0.3,0c-0.5,0-1.1,0.4-1.4,0.9v3.5h-0.5V308.2z
			"/>
		<path class="st13" d="M255.4,308.9L254,313h-0.5l-1.6-4.8h0.6l1.3,4.1l1.4-4.1h0.5l1.4,4.1l1.3-4.1h0.6l-1.6,4.8h-0.5L255.4,308.9
			z"/>
		<path class="st13" d="M262.8,312.5c-0.4,0.5-1,0.7-1.6,0.7c-0.8,0-1.7-0.6-1.7-1.6c0-1,0.8-1.6,1.7-1.6c0.7,0,1.2,0.2,1.6,0.7v-1
			c0-0.7-0.6-1.1-1.3-1.1c-0.6,0-1.1,0.2-1.5,0.7l-0.3-0.4c0.5-0.5,1.1-0.8,1.9-0.8c1,0,1.8,0.5,1.8,1.5v3.4h-0.5V312.5z M262.8,311
			c-0.3-0.4-0.9-0.7-1.5-0.7c-0.8,0-1.3,0.5-1.3,1.2c0,0.7,0.5,1.2,1.3,1.2c0.6,0,1.1-0.2,1.5-0.7V311z"/>
		<path class="st13" d="M264.9,312c0.3,0.4,0.9,0.7,1.6,0.7c0.8,0,1.3-0.4,1.3-1c0-0.6-0.7-0.8-1.3-1c-0.8-0.2-1.7-0.4-1.7-1.3
			c0-0.7,0.6-1.3,1.7-1.3c0.8,0,1.4,0.3,1.7,0.7l-0.3,0.4c-0.3-0.4-0.8-0.6-1.4-0.6c-0.8,0-1.2,0.4-1.2,0.9c0,0.5,0.6,0.7,1.3,0.9
			c0.8,0.2,1.8,0.4,1.8,1.5c0,0.8-0.6,1.4-1.8,1.4c-0.8,0-1.4-0.2-1.9-0.8L264.9,312z"/>
		<path class="st13" d="M274.2,308.1c1.5,0,2.3,1.2,2.3,2.6v0.1h-4c0,1,0.7,1.9,1.9,1.9c0.6,0,1.2-0.2,1.6-0.7l0.3,0.3
			c-0.5,0.5-1.1,0.8-1.9,0.8c-1.4,0-2.4-1-2.4-2.5C271.9,309.2,272.9,308.1,274.2,308.1z M272.4,310.4h3.5c0-0.8-0.5-1.8-1.8-1.8
			C273.1,308.5,272.5,309.5,272.4,310.4z"/>
		<path class="st13" d="M281.1,309.8c0-0.9-0.5-1.2-1.2-1.2c-0.6,0-1.3,0.4-1.6,0.8v3.6h-0.5v-4.8h0.5v0.7c0.3-0.4,1-0.8,1.7-0.8
			c1,0,1.5,0.5,1.5,1.6v3.4h-0.5V309.8z"/>
		<path class="st13" d="M285.3,308.1c0.8,0,1.3,0.3,1.7,0.8l-0.4,0.3c-0.3-0.5-0.8-0.7-1.3-0.7c-1.1,0-1.8,0.9-1.8,2.1
			s0.7,2.1,1.8,2.1c0.5,0,1-0.2,1.3-0.7l0.4,0.3c-0.4,0.5-0.9,0.8-1.7,0.8c-1.4,0-2.3-1.1-2.3-2.5S283.9,308.1,285.3,308.1z"/>
		<path class="st13" d="M287.9,310.6c0-1.4,0.9-2.5,2.3-2.5c1.4,0,2.3,1.1,2.3,2.5s-0.9,2.5-2.3,2.5
			C288.8,313.1,287.9,312,287.9,310.6z M292,310.6c0-1.1-0.6-2.1-1.8-2.1c-1.1,0-1.8,1-1.8,2.1c0,1.1,0.6,2.1,1.8,2.1
			C291.3,312.7,292,311.7,292,310.6z"/>
		<path class="st13" d="M297.1,312.3c-0.4,0.4-1,0.8-1.7,0.8c-1,0-1.5-0.5-1.5-1.5v-3.4h0.5v3.3c0,0.9,0.5,1.2,1.2,1.2
			c0.6,0,1.2-0.4,1.6-0.8v-3.7h0.5v4.8h-0.5V312.3z"/>
		<path class="st13" d="M302.5,309.8c0-0.9-0.5-1.2-1.2-1.2c-0.6,0-1.3,0.4-1.6,0.8v3.6h-0.5v-4.8h0.5v0.7c0.3-0.4,1-0.8,1.7-0.8
			c1,0,1.5,0.5,1.5,1.6v3.4h-0.5V309.8z"/>
		<path class="st13" d="M304.8,312.1v-3.4H304v-0.5h0.8v-1.3h0.5v1.3h1v0.5h-1v3.4c0,0.4,0.2,0.7,0.5,0.7c0.2,0,0.4-0.1,0.5-0.2
			l0.2,0.4c-0.2,0.2-0.4,0.3-0.8,0.3C305.1,313.1,304.8,312.8,304.8,312.1z"/>
		<path class="st13" d="M309.5,308.1c1.5,0,2.3,1.2,2.3,2.6v0.1h-4c0,1,0.7,1.9,1.9,1.9c0.6,0,1.2-0.2,1.6-0.7l0.3,0.3
			c-0.5,0.5-1.1,0.8-1.9,0.8c-1.4,0-2.4-1-2.4-2.5C307.1,309.2,308.1,308.1,309.5,308.1z M307.7,310.4h3.5c0-0.8-0.5-1.8-1.8-1.8
			C308.3,308.5,307.8,309.5,307.7,310.4z"/>
		<path class="st13" d="M313.1,308.2h0.5v0.8c0.4-0.5,1-0.9,1.6-0.9v0.6c-0.1,0-0.2,0-0.3,0c-0.5,0-1.1,0.4-1.4,0.9v3.5h-0.5V308.2z
			"/>
		<path class="st13" d="M318.3,308.1c1.5,0,2.3,1.2,2.3,2.6v0.1h-4c0,1,0.7,1.9,1.9,1.9c0.6,0,1.2-0.2,1.6-0.7l0.3,0.3
			c-0.5,0.5-1.1,0.8-1.9,0.8c-1.4,0-2.4-1-2.4-2.5C316,309.2,317,308.1,318.3,308.1z M316.6,310.4h3.5c0-0.8-0.5-1.8-1.8-1.8
			C317.2,308.5,316.6,309.5,316.6,310.4z"/>
		<path class="st13" d="M325.5,312.3c-0.3,0.5-1,0.9-1.7,0.9c-1.3,0-2.2-1-2.2-2.5c0-1.5,0.9-2.5,2.2-2.5c0.7,0,1.3,0.3,1.7,0.9
			v-2.6h0.5v6.7h-0.5V312.3z M325.5,309.4c-0.3-0.5-0.9-0.9-1.6-0.9c-1.1,0-1.7,0.9-1.7,2.1c0,1.2,0.6,2.1,1.7,2.1
			c0.7,0,1.3-0.4,1.6-0.9V309.4z"/>
		<path class="st13" d="M333,308.9l-1.4,4.1h-0.5l-1.6-4.8h0.6l1.3,4.1l1.4-4.1h0.5l1.4,4.1l1.3-4.1h0.6l-1.6,4.8h-0.5L333,308.9z"
			/>
		<path class="st13" d="M340.7,309.7c0-0.9-0.5-1.2-1.2-1.2c-0.6,0-1.3,0.4-1.6,0.8v3.6h-0.5v-6.7h0.5v2.6c0.3-0.4,1-0.8,1.7-0.8
			c1,0,1.5,0.5,1.5,1.5v3.4h-0.5V309.7z"/>
		<path class="st13" d="M342.7,307c0-0.2,0.2-0.4,0.4-0.4c0.2,0,0.4,0.2,0.4,0.4s-0.2,0.4-0.4,0.4
			C342.9,307.4,342.7,307.2,342.7,307z M342.8,308.2h0.5v4.8h-0.5V308.2z"/>
		<path class="st13" d="M345,306.4h0.5v6.7H345V306.4z"/>
		<path class="st13" d="M349.2,308.1c1.5,0,2.3,1.2,2.3,2.6v0.1h-4c0,1,0.7,1.9,1.9,1.9c0.6,0,1.2-0.2,1.6-0.7l0.3,0.3
			c-0.5,0.5-1.1,0.8-1.9,0.8c-1.4,0-2.4-1-2.4-2.5C346.8,309.2,347.8,308.1,349.2,308.1z M347.4,310.4h3.5c0-0.8-0.5-1.8-1.8-1.8
			C348,308.5,347.4,309.5,347.4,310.4z"/>
		<path class="st13" d="M57.4,324.1v-3.4h-0.8v-0.5h0.8v-1.3h0.5v1.3h1v0.5h-1v3.4c0,0.4,0.2,0.7,0.5,0.7c0.2,0,0.4-0.1,0.5-0.2
			l0.2,0.4c-0.2,0.2-0.4,0.3-0.8,0.3C57.7,325.1,57.4,324.8,57.4,324.1z"/>
		<path class="st13" d="M60.1,320.2h0.5v0.8c0.4-0.5,1-0.9,1.6-0.9v0.6c-0.1,0-0.2,0-0.3,0c-0.5,0-1.1,0.4-1.4,0.9v3.5h-0.5V320.2z"
			/>
		<path class="st13" d="M63.4,326.5c0.3,0,0.5-0.1,0.7-0.6l0.4-0.9l-2-4.9h0.6l1.8,4.2l1.7-4.2h0.6l-2.5,5.9
			c-0.3,0.6-0.7,0.9-1.2,0.9c-0.2,0-0.4,0-0.5-0.1l0.1-0.5C63.1,326.5,63.3,326.5,63.4,326.5z"/>
		<path class="st13" d="M67.9,319c0-0.2,0.2-0.4,0.4-0.4c0.2,0,0.4,0.2,0.4,0.4s-0.2,0.4-0.4,0.4C68.1,319.4,67.9,319.2,67.9,319z
			 M68,320.2h0.5v4.8H68V320.2z"/>
		<path class="st13" d="M73.4,321.8c0-0.9-0.5-1.2-1.2-1.2c-0.6,0-1.3,0.4-1.6,0.8v3.6h-0.5v-4.8h0.5v0.7c0.4-0.4,1-0.8,1.7-0.8
			c1,0,1.5,0.5,1.5,1.6v3.4h-0.5V321.8z"/>
		<path class="st13" d="M75.9,325.8c0.4,0.5,0.9,0.7,1.6,0.7c0.9,0,1.6-0.4,1.6-1.5v-0.8c-0.3,0.5-1,0.9-1.7,0.9
			c-1.3,0-2.2-1-2.2-2.5c0-1.5,0.9-2.5,2.2-2.5c0.7,0,1.3,0.3,1.7,0.9v-0.8h0.5v4.8c0,1.5-1,2-2.2,2c-0.8,0-1.3-0.2-1.9-0.7
			L75.9,325.8z M79.1,321.4c-0.3-0.5-0.9-0.9-1.6-0.9c-1.1,0-1.7,0.9-1.7,2.1c0,1.2,0.6,2,1.7,2c0.7,0,1.3-0.4,1.6-0.9V321.4z"/>
		<path class="st13" d="M84,324.1v-3.4h-0.8v-0.5H84v-1.3h0.5v1.3h1v0.5h-1v3.4c0,0.4,0.2,0.7,0.5,0.7c0.2,0,0.4-0.1,0.5-0.2
			l0.2,0.4c-0.2,0.2-0.4,0.3-0.8,0.3C84.3,325.1,84,324.8,84,324.1z"/>
		<path class="st13" d="M86.3,322.6c0-1.4,0.9-2.5,2.3-2.5c1.4,0,2.3,1.1,2.3,2.5s-0.9,2.5-2.3,2.5C87.2,325.1,86.3,324,86.3,322.6z
			 M90.4,322.6c0-1.1-0.6-2.1-1.8-2.1c-1.1,0-1.8,1-1.8,2.1c0,1.1,0.6,2.1,1.8,2.1C89.8,324.7,90.4,323.7,90.4,322.6z"/>
		<path class="st13" d="M98.2,324.3c-0.4,0.4-1,0.8-1.7,0.8c-1,0-1.5-0.5-1.5-1.5v-3.4h0.5v3.3c0,0.9,0.5,1.2,1.2,1.2
			c0.6,0,1.2-0.4,1.6-0.8v-3.7h0.5v4.8h-0.5V324.3z"/>
		<path class="st13" d="M100.2,324c0.3,0.4,0.9,0.7,1.6,0.7c0.8,0,1.3-0.4,1.3-1c0-0.6-0.7-0.8-1.3-1c-0.8-0.2-1.7-0.4-1.7-1.3
			c0-0.7,0.6-1.3,1.7-1.3c0.8,0,1.4,0.3,1.7,0.7l-0.3,0.4c-0.3-0.4-0.8-0.6-1.4-0.6c-0.7,0-1.2,0.4-1.2,0.9c0,0.5,0.6,0.7,1.3,0.9
			c0.8,0.2,1.8,0.4,1.8,1.5c0,0.8-0.6,1.4-1.8,1.4c-0.8,0-1.4-0.2-1.9-0.8L100.2,324z"/>
		<path class="st13" d="M107,320.1c1.5,0,2.3,1.2,2.3,2.6v0.1h-4c0,1,0.7,1.9,1.9,1.9c0.6,0,1.2-0.2,1.6-0.7l0.3,0.3
			c-0.5,0.5-1.1,0.8-1.9,0.8c-1.4,0-2.4-1-2.4-2.5C104.6,321.2,105.6,320.1,107,320.1z M105.2,322.4h3.5c0-0.8-0.5-1.8-1.8-1.8
			C105.8,320.5,105.2,321.5,105.2,322.4z"/>
		<path class="st13" d="M116.2,324.5c-0.4,0.5-1,0.7-1.6,0.7c-0.8,0-1.7-0.6-1.7-1.6c0-1,0.8-1.6,1.7-1.6c0.7,0,1.2,0.2,1.6,0.7v-1
			c0-0.7-0.6-1.1-1.3-1.1c-0.6,0-1.1,0.2-1.5,0.7l-0.3-0.4c0.5-0.5,1.1-0.8,1.9-0.8c1,0,1.8,0.5,1.8,1.5v3.4h-0.5V324.5z M116.2,323
			c-0.3-0.4-0.9-0.7-1.5-0.7c-0.8,0-1.3,0.5-1.3,1.2c0,0.7,0.5,1.2,1.3,1.2c0.6,0,1.1-0.2,1.5-0.7V323z"/>
		<path class="st13" d="M121.6,321.8c0-0.9-0.5-1.2-1.2-1.2c-0.6,0-1.3,0.4-1.6,0.8v3.6h-0.5v-4.8h0.5v0.7c0.4-0.4,1-0.8,1.7-0.8
			c1,0,1.5,0.5,1.5,1.6v3.4h-0.5V321.8z"/>
		<path class="st13" d="M126.4,318.4h4.2v0.5H127v2.5h3.6v0.5H127v2.6h3.7v0.5h-4.2V318.4z"/>
		<path class="st13" d="M132,320.2h0.5v0.8c0.4-0.5,1-0.9,1.6-0.9v0.6c-0.1,0-0.2,0-0.3,0c-0.5,0-1.1,0.4-1.4,0.9v3.5H132V320.2z"/>
		<path class="st13" d="M135.2,320.2h0.5v0.8c0.4-0.5,1-0.9,1.6-0.9v0.6c-0.1,0-0.2,0-0.3,0c-0.5,0-1.1,0.4-1.4,0.9v3.5h-0.5V320.2z
			"/>
		<path class="st13" d="M138.1,322.6c0-1.4,0.9-2.5,2.3-2.5c1.4,0,2.3,1.1,2.3,2.5s-0.9,2.5-2.3,2.5
			C139,325.1,138.1,324,138.1,322.6z M142.2,322.6c0-1.1-0.6-2.1-1.8-2.1c-1.1,0-1.8,1-1.8,2.1c0,1.1,0.6,2.1,1.8,2.1
			C141.5,324.7,142.2,323.7,142.2,322.6z"/>
		<path class="st13" d="M144.1,320.2h0.5v0.8c0.4-0.5,1-0.9,1.6-0.9v0.6c-0.1,0-0.2,0-0.3,0c-0.5,0-1.1,0.4-1.4,0.9v3.5h-0.5V320.2z
			"/>
		<path class="st13" d="M147.2,318.4h2.1c2.1,0,3.4,1.5,3.4,3.3c0,1.8-1.3,3.3-3.4,3.3h-2.1V318.4z M149.4,324.5
			c1.8,0,2.8-1.2,2.8-2.8s-1-2.8-2.8-2.8h-1.6v5.6H149.4z"/>
		<path class="st13" d="M153.9,322.6c0-1.4,0.9-2.5,2.3-2.5c1.4,0,2.3,1.1,2.3,2.5s-0.9,2.5-2.3,2.5
			C154.8,325.1,153.9,324,153.9,322.6z M158,322.6c0-1.1-0.6-2.1-1.8-2.1c-1.1,0-1.8,1-1.8,2.1c0,1.1,0.6,2.1,1.8,2.1
			C157.3,324.7,158,323.7,158,322.6z"/>
		<path class="st13" d="M161.9,320.1c0.8,0,1.3,0.3,1.7,0.8l-0.4,0.3c-0.3-0.5-0.8-0.7-1.3-0.7c-1.1,0-1.8,0.9-1.8,2.1
			s0.7,2.1,1.8,2.1c0.5,0,1-0.2,1.3-0.7l0.4,0.3c-0.4,0.5-0.9,0.8-1.7,0.8c-1.4,0-2.3-1.1-2.3-2.5S160.5,320.1,161.9,320.1z"/>
		<path class="st13" d="M168.1,324.3c-0.4,0.4-1,0.8-1.7,0.8c-1,0-1.5-0.5-1.5-1.5v-3.4h0.5v3.3c0,0.9,0.5,1.2,1.2,1.2
			c0.6,0,1.2-0.4,1.6-0.8v-3.7h0.5v4.8h-0.5V324.3z"/>
		<path class="st13" d="M175.9,321.6c0-0.7-0.3-1.1-1-1.1c-0.5,0-1.1,0.4-1.4,0.8v3.7h-0.5v-3.4c0-0.7-0.3-1.1-1-1.1
			c-0.5,0-1.1,0.4-1.4,0.8v3.6h-0.5v-4.8h0.5v0.7c0.2-0.3,0.9-0.8,1.6-0.8c0.8,0,1.1,0.4,1.3,0.9c0.3-0.4,0.9-0.9,1.6-0.9
			c0.9,0,1.3,0.5,1.3,1.5v3.5h-0.5V321.6z"/>
		<path class="st13" d="M180.1,320.1c1.5,0,2.3,1.2,2.3,2.6v0.1h-4c0,1,0.7,1.9,1.9,1.9c0.6,0,1.2-0.2,1.6-0.7l0.3,0.3
			c-0.5,0.5-1.1,0.8-1.9,0.8c-1.4,0-2.4-1-2.4-2.5C177.8,321.2,178.8,320.1,180.1,320.1z M178.4,322.4h3.5c0-0.8-0.5-1.8-1.8-1.8
			C179,320.5,178.4,321.5,178.4,322.4z"/>
		<path class="st13" d="M187,321.8c0-0.9-0.5-1.2-1.2-1.2c-0.6,0-1.3,0.4-1.6,0.8v3.6h-0.5v-4.8h0.5v0.7c0.4-0.4,1-0.8,1.7-0.8
			c1,0,1.5,0.5,1.5,1.6v3.4H187V321.8z"/>
		<path class="st13" d="M189.3,324.1v-3.4h-0.8v-0.5h0.8v-1.3h0.5v1.3h1v0.5h-1v3.4c0,0.4,0.2,0.7,0.5,0.7c0.2,0,0.4-0.1,0.5-0.2
			l0.2,0.4c-0.2,0.2-0.4,0.3-0.8,0.3C189.6,325.1,189.3,324.8,189.3,324.1z"/>
		<path class="st13" d="M194.6,324.1v-3.4h-0.8v-0.5h0.8v-1.3h0.5v1.3h1v0.5h-1v3.4c0,0.4,0.2,0.7,0.5,0.7c0.2,0,0.4-0.1,0.5-0.2
			l0.2,0.4c-0.2,0.2-0.4,0.3-0.8,0.3C194.9,325.1,194.6,324.8,194.6,324.1z"/>
		<path class="st13" d="M197,322.6c0-1.4,0.9-2.5,2.3-2.5c1.4,0,2.3,1.1,2.3,2.5s-0.9,2.5-2.3,2.5C197.9,325.1,197,324,197,322.6z
			 M201.1,322.6c0-1.1-0.6-2.1-1.8-2.1c-1.1,0-1.8,1-1.8,2.1c0,1.1,0.6,2.1,1.8,2.1C200.4,324.7,201.1,323.7,201.1,322.6z"/>
		<path class="st13" d="M208.8,321.7c0-0.9-0.5-1.2-1.2-1.2c-0.6,0-1.3,0.4-1.6,0.8v3.6h-0.5v-6.7h0.5v2.6c0.3-0.4,1-0.8,1.7-0.8
			c1,0,1.5,0.5,1.5,1.5v3.4h-0.5V321.7z"/>
		<path class="st13" d="M214,324.5c-0.4,0.5-1,0.7-1.6,0.7c-0.8,0-1.7-0.6-1.7-1.6c0-1,0.8-1.6,1.7-1.6c0.7,0,1.2,0.2,1.6,0.7v-1
			c0-0.7-0.6-1.1-1.3-1.1c-0.6,0-1.1,0.2-1.5,0.7l-0.3-0.4c0.5-0.5,1.1-0.8,1.9-0.8c1,0,1.8,0.5,1.8,1.5v3.4H214V324.5z M214,323
			c-0.3-0.4-0.9-0.7-1.5-0.7c-0.8,0-1.3,0.5-1.3,1.2c0,0.7,0.5,1.2,1.3,1.2c0.6,0,1.1-0.2,1.5-0.7V323z"/>
		<path class="st13" d="M219.4,321.8c0-0.9-0.5-1.2-1.2-1.2c-0.6,0-1.3,0.4-1.6,0.8v3.6h-0.5v-4.8h0.5v0.7c0.3-0.4,1-0.8,1.7-0.8
			c1,0,1.5,0.5,1.5,1.6v3.4h-0.5V321.8z"/>
		<path class="st13" d="M225.1,324.3c-0.3,0.5-1,0.9-1.7,0.9c-1.3,0-2.2-1-2.2-2.5c0-1.5,0.9-2.5,2.2-2.5c0.7,0,1.3,0.3,1.7,0.9
			v-2.6h0.5v6.7h-0.5V324.3z M225.1,321.4c-0.3-0.5-0.9-0.9-1.6-0.9c-1.1,0-1.7,0.9-1.7,2.1c0,1.2,0.6,2.1,1.7,2.1
			c0.7,0,1.3-0.4,1.6-0.9V321.4z"/>
		<path class="st13" d="M227.3,318.4h0.5v6.7h-0.5V318.4z"/>
		<path class="st13" d="M231.5,320.1c1.5,0,2.3,1.2,2.3,2.6v0.1h-4c0,1,0.7,1.9,1.9,1.9c0.6,0,1.2-0.2,1.6-0.7l0.3,0.3
			c-0.5,0.5-1.1,0.8-1.9,0.8c-1.4,0-2.4-1-2.4-2.5C229.1,321.2,230.1,320.1,231.5,320.1z M229.7,322.4h3.5c0-0.8-0.5-1.8-1.8-1.8
			C230.3,320.5,229.7,321.5,229.7,322.4z"/>
		<path class="st13" d="M237.8,324.1v-3.4H237v-0.5h0.8v-1.3h0.5v1.3h1v0.5h-1v3.4c0,0.4,0.2,0.7,0.5,0.7c0.2,0,0.4-0.1,0.5-0.2
			l0.2,0.4c-0.2,0.2-0.4,0.3-0.8,0.3C238.1,325.1,237.8,324.8,237.8,324.1z"/>
		<path class="st13" d="M243.7,321.7c0-0.9-0.5-1.2-1.2-1.2c-0.6,0-1.3,0.4-1.6,0.8v3.6h-0.5v-6.7h0.5v2.6c0.3-0.4,1-0.8,1.7-0.8
			c1,0,1.5,0.5,1.5,1.5v3.4h-0.5V321.7z"/>
		<path class="st13" d="M247.9,320.1c1.5,0,2.3,1.2,2.3,2.6v0.1h-4c0,1,0.7,1.9,1.9,1.9c0.6,0,1.2-0.2,1.6-0.7l0.3,0.3
			c-0.5,0.5-1.1,0.8-1.9,0.8c-1.4,0-2.4-1-2.4-2.5C245.5,321.2,246.5,320.1,247.9,320.1z M246.1,322.4h3.5c0-0.8-0.5-1.8-1.8-1.8
			C246.7,320.5,246.1,321.5,246.1,322.4z"/>
		<path class="st13" d="M254.1,320.2h0.5v0.8c0.4-0.5,1-0.9,1.6-0.9v0.6c-0.1,0-0.2,0-0.3,0c-0.5,0-1.1,0.4-1.4,0.9v3.5h-0.5V320.2z
			"/>
		<path class="st13" d="M259.3,320.1c1.5,0,2.3,1.2,2.3,2.6v0.1h-4c0,1,0.7,1.9,1.9,1.9c0.6,0,1.2-0.2,1.6-0.7l0.3,0.3
			c-0.5,0.5-1.1,0.8-1.9,0.8c-1.4,0-2.4-1-2.4-2.5C257,321.2,258,320.1,259.3,320.1z M257.5,322.4h3.5c0-0.8-0.5-1.8-1.8-1.8
			C258.1,320.5,257.6,321.5,257.5,322.4z"/>
		<path class="st13" d="M266.5,326.9v-2.6c-0.4,0.5-1,0.9-1.7,0.9c-1.3,0-2.2-1-2.2-2.5c0-1.5,0.9-2.5,2.2-2.5
			c0.7,0,1.3,0.4,1.7,0.9v-0.8h0.5v6.7H266.5z M266.5,321.4c-0.3-0.5-0.9-0.9-1.6-0.9c-1.1,0-1.7,0.9-1.7,2.1c0,1.2,0.6,2.1,1.7,2.1
			c0.7,0,1.3-0.4,1.6-0.9V321.4z"/>
		<path class="st13" d="M271.9,324.3c-0.4,0.4-1,0.8-1.7,0.8c-1,0-1.5-0.5-1.5-1.5v-3.4h0.5v3.3c0,0.9,0.5,1.2,1.2,1.2
			c0.6,0,1.2-0.4,1.6-0.8v-3.7h0.5v4.8h-0.5V324.3z"/>
		<path class="st13" d="M276.1,320.1c1.5,0,2.3,1.2,2.3,2.6v0.1h-4c0,1,0.7,1.9,1.9,1.9c0.6,0,1.2-0.2,1.6-0.7l0.3,0.3
			c-0.5,0.5-1.1,0.8-1.9,0.8c-1.4,0-2.4-1-2.4-2.5C273.7,321.2,274.7,320.1,276.1,320.1z M274.3,322.4h3.5c0-0.8-0.5-1.8-1.8-1.8
			C274.9,320.5,274.3,321.5,274.3,322.4z"/>
		<path class="st13" d="M279.6,324c0.3,0.4,0.9,0.7,1.6,0.7c0.8,0,1.3-0.4,1.3-1c0-0.6-0.7-0.8-1.3-1c-0.8-0.2-1.7-0.4-1.7-1.3
			c0-0.7,0.6-1.3,1.7-1.3c0.8,0,1.4,0.3,1.7,0.7l-0.3,0.4c-0.3-0.4-0.8-0.6-1.4-0.6c-0.8,0-1.2,0.4-1.2,0.9c0,0.5,0.6,0.7,1.3,0.9
			c0.8,0.2,1.8,0.4,1.8,1.5c0,0.8-0.6,1.4-1.8,1.4c-0.8,0-1.4-0.2-1.9-0.8L279.6,324z"/>
		<path class="st13" d="M284.4,324.1v-3.4h-0.8v-0.5h0.8v-1.3h0.5v1.3h1v0.5h-1v3.4c0,0.4,0.2,0.7,0.5,0.7c0.2,0,0.4-0.1,0.5-0.2
			l0.2,0.4c-0.2,0.2-0.4,0.3-0.8,0.3C284.7,325.1,284.4,324.8,284.4,324.1z"/>
		<path class="st13" d="M287.3,324.2c0.2,0,0.4,0.2,0.4,0.4c0,0.2-0.2,0.4-0.4,0.4c-0.2,0-0.4-0.2-0.4-0.4
			C286.9,324.4,287.1,324.2,287.3,324.2z"/>
	</g>
</g>
</svg>
