<?xml version="1.0" encoding="utf-8"?>
<!-- Generator: Adobe Illustrator 19.1.0, SVG Export Plug-In . SVG Version: 6.00 Build 0)  -->
<svg version="1.1" xmlns="http://www.w3.org/2000/svg" xmlns:xlink="http://www.w3.org/1999/xlink" x="0px" y="0px"
	 viewBox="0 0 417.9 501.7" style="enable-background:new 0 0 417.9 501.7;" xml:space="preserve">
<style type="text/css">
	.st0{fill:#D8D8D8;}
	.st1{opacity:0.26;}
	.st2{fill:#2B2A2A;}
	.st3{fill:#3195AB;}
	.st4{fill:#EF4438;}
	.st5{fill:#80C342;}
	.st6{fill:#F9ED28;}
	.st7{fill:#FFFFFF;}
	.st8{fill:none;stroke:#EF4438;stroke-width:0.7222;stroke-miterlimit:10;}
	.st9{fill:#EAEAEA;}
	.st10{fill:#8E8E8E;}
	.st11{fill:#8E8E8E;stroke:#454545;stroke-width:5;stroke-miterlimit:10;}
	.st12{fill:#707071;stroke:#1E1E1E;stroke-miterlimit:10;}
	.st13{fill:none;stroke:#8E8E8E;stroke-miterlimit:10;}
	.st14{fill:none;stroke:#606161;stroke-miterlimit:10;}
	.st15{fill:none;stroke:#BF5F28;stroke-miterlimit:10;}
	.st16{fill:#262626;}
	.st17{fill:#353535;}
	.st18{fill:#231F20;}
	.st19{fill:#BE384B;}
	.st20{fill:#E8E8E8;}
</style>
<g id="Layer_1">
	<g>
		<rect x="15.3" class="st0" width="402.2" height="36.3"/>
	</g>
	<g>
		<g class="st1">
			<line class="st2" x1="26.4" y1="47.4" x2="429" y2="47.4"/>
		</g>
		<g>
			<line class="st3" x1="15.3" y1="36.3" x2="417.9" y2="36.3"/>
		</g>
	</g>
	<circle class="st4" cx="411" cy="6.6" r="2.4"/>
	<circle class="st5" cx="395.7" cy="6.6" r="2.4"/>
	<circle class="st6" cx="403.5" cy="6.6" r="2.4"/>
	<path class="st7" d="M385.7,22.4H56.3c-0.8,0-1.4-0.6-1.4-1.4v-5c0-0.8,0.6-1.4,1.4-1.4h329.5c0.8,0,1.4,0.6,1.4,1.4v5
		C387.1,21.8,386.5,22.4,385.7,22.4z"/>
	<g>
		<g>
			<polygon class="st4" points="47.4,17.6 44.9,17.6 47.4,15.1 49.9,17.6 			"/>
			<rect x="45.4" y="17.6" class="st4" width="4" height="3.5"/>
			<rect x="46.8" y="19" class="st0" width="1.2" height="2.7"/>
			<rect x="48.5" y="15.3" class="st4" width="0.3" height="0.8"/>
		</g>
		<circle class="st8" cx="39.1" cy="18.3" r="2.8"/>
		<rect x="40.2" y="17" class="st0" width="3.5" height="2.5"/>
		<polygon class="st8" points="41.9,16.3 42,17.5 40.9,17.4 		"/>
		<rect x="27.6" y="18.1" class="st4" width="4.3" height="1"/>
		<path class="st4" d="M31.8,17.9l-0.9-1.3l3,1.9c0.1,0,0.1,0.1,0,0.2l-2.7,1.8l0.7-1.5"/>
		<rect x="21.4" y="18.1" class="st4" width="3.8" height="1"/>
		<path class="st4" d="M21.5,19.3l0.9,1.3l-3-1.9c-0.1,0-0.1-0.1,0-0.2l2.7-1.8l-0.7,1.5"/>
	</g>
	<line class="st9" x1="15.3" y1="36.3" x2="417.9" y2="36.3"/>
	<polygon class="st10" points="15.3,489.6 15.3,0 0,26.4 0.4,488.9 0.4,496.4 0,501.7 400.7,501.7 417.5,488.3 	"/>
	<path class="st11" d="M15.3,480.1"/>
	<path class="st12" d="M-38.4,478.8"/>
	<line class="st13" x1="416.9" y1="0" x2="416.9" y2="488.3"/>
	<rect x="-106.3" y="167" class="st14" width="2" height="0"/>
	<path class="st15" d="M16.8,54"/>
	<path class="st15" d="M-0.7,83.5"/>
	<polygon class="st16" points="0,96.5 15.3,67.8 15.2,36.7 0,60.5 	"/>
</g>
<g id="objects">
	<rect x="15.3" y="36.3" class="st17" width="402.3" height="31.5"/>
	<line class="st17" x1="417.7" y1="61.2" x2="15.1" y2="61.2"/>
	<g>
		<path class="st7" d="M144.9,53.2c0-2.3,1.7-3.8,4-3.8c2,0,2.9,1.1,3.4,2.1l-1.9,0.9c-0.2-0.6-0.8-1.1-1.5-1.1
			c-1,0-1.7,0.8-1.7,1.8c0,1,0.7,1.8,1.7,1.8c0.7,0,1.3-0.5,1.5-1.1l1.9,0.9c-0.4,1-1.4,2.1-3.4,2.1C146.6,57,144.9,55.4,144.9,53.2
			z"/>
		<path class="st7" d="M156,56.3c-0.3,0.4-0.9,0.6-1.6,0.6c-0.8,0-1.8-0.5-1.8-1.7c0-1.3,1-1.6,1.8-1.6c0.7,0,1.3,0.2,1.6,0.6v-0.6
			c0-0.4-0.3-0.7-1-0.7c-0.5,0-1.1,0.2-1.5,0.5l-0.7-1.2c0.7-0.6,1.7-0.8,2.5-0.8c1.3,0,2.6,0.5,2.6,2.2v3.2h-2V56.3z M156,55.1
			c-0.1-0.2-0.5-0.3-0.8-0.3c-0.3,0-0.7,0.1-0.7,0.4c0,0.3,0.4,0.4,0.7,0.4c0.3,0,0.6-0.1,0.8-0.3V55.1z"/>
		<path class="st7" d="M159.1,49.5h2v7.3h-2V49.5z"/>
		<path class="st7" d="M162.1,49.5h2v7.3h-2V49.5z"/>
		<path class="st7" d="M168.9,54.7c0.4,0.3,0.8,0.4,1.4,0.4c0.8,0,1.6-0.5,1.6-1.4v0c-0.4,0.5-1,0.7-1.7,0.7c-1.3,0-2.6-0.8-2.6-2.4
			c0-1.6,1.3-2.6,3-2.6c2.4,0,3.5,1.6,3.5,3.8c0,2.5-1.6,3.8-3.9,3.8c-0.8,0-1.7-0.2-2.3-0.6L168.9,54.7z M170.7,51.2
			c-0.6,0-0.9,0.3-0.9,0.7c0,0.5,0.5,0.7,1,0.7c0.4,0,0.7-0.1,1-0.3C171.9,51.8,171.6,51.2,170.7,51.2z"/>
		<path class="st7" d="M175.9,54.5c0.5,0.4,1.3,0.6,1.9,0.6c0.7,0,1-0.3,1-0.7c0-0.4-0.3-0.7-1-0.7c-0.6,0-1,0.2-1.4,0.5l-1.5-0.4
			v-4.4h5.6v1.8H177v1.2c0.5-0.3,1-0.6,1.6-0.6c1.3,0,2.4,0.9,2.4,2.4c0,1.6-1.2,2.6-3.3,2.6c-1.3,0-2.4-0.4-3.1-1L175.9,54.5z"/>
		<path class="st7" d="M185,55.7h-3.5v-1.7l2.7-4.5h3.1v4.2h0.8v1.9h-0.8v1.2H185V55.7z M183.6,53.7h1.4v-2.3L183.6,53.7z"/>
		<path class="st7" d="M188.6,53.3h2.6V55h-2.6V53.3z"/>
		<path class="st7" d="M193,54.5c0.5,0.4,1.3,0.6,1.9,0.6c0.7,0,1-0.3,1-0.7c0-0.4-0.3-0.7-1-0.7c-0.6,0-1,0.2-1.4,0.5l-1.5-0.4
			v-4.4h5.6v1.8h-3.5v1.2c0.5-0.3,1-0.6,1.6-0.6c1.3,0,2.4,0.9,2.4,2.4c0,1.6-1.2,2.6-3.3,2.6c-1.3,0-2.4-0.4-3.1-1L193,54.5z"/>
		<path class="st7" d="M199.9,54.5c0.5,0.4,1.3,0.6,1.9,0.6c0.7,0,1-0.3,1-0.7c0-0.4-0.3-0.7-1-0.7c-0.6,0-1,0.2-1.4,0.5l-1.5-0.4
			v-4.4h5.6v1.8h-3.5v1.2c0.5-0.3,1-0.6,1.6-0.6c1.3,0,2.4,0.9,2.4,2.4c0,1.6-1.2,2.6-3.3,2.6c-1.3,0-2.4-0.4-3.1-1L199.9,54.5z"/>
		<path class="st7" d="M206.8,54.5c0.5,0.4,1.3,0.6,1.9,0.6c0.7,0,1-0.3,1-0.7c0-0.4-0.3-0.7-1-0.7c-0.6,0-1,0.2-1.4,0.5l-1.5-0.4
			v-4.4h5.6v1.8H208v1.2c0.5-0.3,1-0.6,1.6-0.6c1.3,0,2.4,0.9,2.4,2.4c0,1.6-1.2,2.6-3.3,2.6c-1.3,0-2.4-0.4-3.1-1L206.8,54.5z"/>
		<path class="st7" d="M212.5,53.3h2.6V55h-2.6V53.3z"/>
		<path class="st7" d="M217,54.5c0.5,0.4,1.3,0.6,1.9,0.6c0.7,0,1-0.3,1-0.7c0-0.4-0.3-0.7-1-0.7c-0.6,0-1,0.2-1.4,0.5l-1.5-0.4
			v-4.4h5.6v1.8h-3.5v1.2c0.5-0.3,1-0.6,1.6-0.6c1.3,0,2.4,0.9,2.4,2.4c0,1.6-1.2,2.6-3.3,2.6c-1.3,0-2.4-0.4-3.1-1L217,54.5z"/>
		<path class="st7" d="M223.9,54.5c0.5,0.4,1.3,0.6,1.9,0.6c0.7,0,1-0.3,1-0.7c0-0.4-0.3-0.7-1-0.7c-0.6,0-1,0.2-1.4,0.5l-1.5-0.4
			v-4.4h5.6v1.8h-3.5v1.2c0.5-0.3,1-0.6,1.6-0.6c1.3,0,2.4,0.9,2.4,2.4c0,1.6-1.2,2.6-3.3,2.6c-1.3,0-2.4-0.4-3.1-1L223.9,54.5z"/>
		<path class="st7" d="M230.8,54.5c0.5,0.4,1.3,0.6,1.9,0.6c0.7,0,1-0.3,1-0.7c0-0.4-0.3-0.7-1-0.7c-0.6,0-1,0.2-1.4,0.5l-1.5-0.4
			v-4.4h5.6v1.8h-3.5v1.2c0.5-0.3,1-0.6,1.6-0.6c1.3,0,2.4,0.9,2.4,2.4c0,1.6-1.2,2.6-3.3,2.6c-1.3,0-2.4-0.4-3.1-1L230.8,54.5z"/>
		<path class="st7" d="M237.7,54.5c0.5,0.4,1.3,0.6,1.9,0.6c0.7,0,1-0.3,1-0.7c0-0.4-0.3-0.7-1-0.7c-0.6,0-1,0.2-1.4,0.5l-1.5-0.4
			v-4.4h5.6v1.8h-3.5v1.2c0.5-0.3,1-0.6,1.6-0.6c1.3,0,2.4,0.9,2.4,2.4c0,1.6-1.2,2.6-3.3,2.6c-1.3,0-2.4-0.4-3.1-1L237.7,54.5z"/>
		<path class="st7" d="M248,51.4h-2v-1.9h6.1v1.9h-2v5.4H248V51.4z"/>
		<path class="st7" d="M251.7,54.2c0-1.5,1.1-2.8,3-2.8c1.9,0,3,1.3,3,2.8c0,1.5-1.1,2.8-3,2.8C252.8,57,251.7,55.7,251.7,54.2z
			 M255.6,54.2c0-0.6-0.3-1-1-1c-0.6,0-0.9,0.5-0.9,1c0,0.6,0.3,1,0.9,1C255.3,55.2,255.6,54.8,255.6,54.2z"/>
		<path class="st7" d="M261.9,56.3c-0.5,0.5-1,0.7-1.5,0.7c-1.3,0-2.3-1-2.3-2.8c0-1.8,1-2.8,2.3-2.8c0.5,0,1.1,0.2,1.5,0.7v-2.6h2
			v7.3h-2V56.3z M261.9,53.5c-0.2-0.2-0.6-0.4-0.8-0.4c-0.5,0-1,0.4-1,1c0,0.7,0.5,1,1,1c0.3,0,0.6-0.1,0.8-0.4V53.5z"/>
		<path class="st7" d="M268,56.3c-0.3,0.4-0.9,0.6-1.6,0.6c-0.8,0-1.8-0.5-1.8-1.7c0-1.3,1-1.6,1.8-1.6c0.7,0,1.3,0.2,1.6,0.6v-0.6
			c0-0.4-0.3-0.7-1-0.7c-0.5,0-1.1,0.2-1.5,0.5l-0.7-1.2c0.7-0.6,1.7-0.8,2.5-0.8c1.3,0,2.6,0.5,2.6,2.2v3.2h-2V56.3z M268,55.1
			c-0.1-0.2-0.5-0.3-0.8-0.3c-0.3,0-0.7,0.1-0.7,0.4c0,0.3,0.4,0.4,0.7,0.4c0.3,0,0.6-0.1,0.8-0.3V55.1z"/>
		<path class="st7" d="M271.7,57.2c0.4,0,0.6-0.1,0.7-0.2l0-0.1l-2.1-5.4h2.1l1,3l1-3h2.1l-2.3,6c-0.5,1.2-1.4,1.5-2.5,1.5
			c-0.1,0-0.6,0-0.8-0.1l0.3-1.8C271.4,57.2,271.6,57.2,271.7,57.2z"/>
		<path class="st7" d="M276.8,49.5h2.4l-0.3,4.6h-1.8L276.8,49.5z M278,54.6c0.6,0,1.2,0.5,1.2,1.2c0,0.6-0.5,1.2-1.2,1.2
			c-0.6,0-1.2-0.5-1.2-1.2C276.8,55.1,277.3,54.6,278,54.6z"/>
	</g>
	<ellipse class="st3" cx="67.4" cy="86.2" rx="13.8" ry="14.3"/>
	<g>
		<path class="st7" d="M59,87.9l-2.8-4.4h2.5l1.4,2.5l1.3-2.5h2.5l-2.7,4.4v2.9H59V87.9z"/>
		<path class="st7" d="M62.6,88.2c0-1.5,1.1-2.8,3-2.8c1.9,0,3,1.3,3,2.8c0,1.5-1.1,2.8-3,2.8C63.7,91,62.6,89.7,62.6,88.2z
			 M66.5,88.2c0-0.6-0.3-1-1-1c-0.6,0-0.9,0.5-0.9,1c0,0.6,0.3,1,0.9,1C66.2,89.2,66.5,88.8,66.5,88.2z"/>
		<path class="st7" d="M72.9,90.2C72.6,90.6,72,91,71.1,91c-1.2,0-1.8-0.7-1.8-1.6v-3.8h2v2.9c0,0.5,0.3,0.7,0.8,0.7
			c0.4,0,0.7-0.2,0.8-0.4v-3.3h2v5.3h-2V90.2z"/>
		<path class="st7" d="M76,85.5h2v0.6c0.3-0.4,1-0.7,1.6-0.7v1.9c-0.1,0-0.3-0.1-0.5-0.1c-0.4,0-1,0.1-1.2,0.4v3.2h-2V85.5z"/>
		<path class="st18" d="M83.1,83.5h5.6v1.8h-3.3v0.9h3.3V88h-3.3v2.8h-2.2V83.5z"/>
		<path class="st18" d="M92.1,85.4c1.6,0,2.8,1.1,2.8,3v0.4h-3.6c0.1,0.3,0.5,0.7,1.2,0.7c0.5,0,0.9-0.2,1.2-0.4l0.8,1.2
			C93.9,90.8,93,91,92.2,91c-1.7,0-3-1-3-2.8C89.2,86.6,90.4,85.4,92.1,85.4z M91.2,87.5H93c-0.1-0.2-0.2-0.6-0.9-0.6
			C91.5,86.9,91.3,87.3,91.2,87.5z"/>
		<path class="st18" d="M99.1,87.9c0-0.5-0.3-0.8-0.8-0.8c-0.5,0-0.7,0.2-0.8,0.4v3.3h-2v-5.3h2v0.6c0.3-0.4,0.9-0.7,1.8-0.7
			c1.2,0,1.8,0.7,1.8,1.7v3.8h-2V87.9z"/>
		<path class="st18" d="M104.8,85.4c1.2,0,2,0.6,2.3,1l-1.3,1.2c-0.2-0.3-0.5-0.5-0.9-0.5c-0.6,0-1,0.4-1,1s0.5,1,1,1
			c0.4,0,0.7-0.2,0.9-0.5l1.3,1.2c-0.3,0.4-1,1-2.3,1c-1.7,0-3-1.1-3-2.8C101.9,86.5,103.1,85.4,104.8,85.4z"/>
		<path class="st18" d="M110.3,85.4c1.6,0,2.8,1.1,2.8,3v0.4h-3.6c0.1,0.3,0.5,0.7,1.2,0.7c0.5,0,0.9-0.2,1.2-0.4l0.8,1.2
			c-0.5,0.5-1.5,0.7-2.3,0.7c-1.7,0-3-1-3-2.8C107.4,86.6,108.6,85.4,110.3,85.4z M109.4,87.5h1.7c-0.1-0.2-0.2-0.6-0.9-0.6
			C109.7,86.9,109.5,87.3,109.4,87.5z"/>
		<path class="st18" d="M116.2,87.2c0-2.3,1.7-3.8,4-3.8c2,0,2.9,1.1,3.4,2.1l-1.9,0.9c-0.2-0.6-0.8-1.1-1.5-1.1
			c-1,0-1.7,0.8-1.7,1.8s0.7,1.8,1.7,1.8c0.7,0,1.3-0.5,1.5-1.1l1.9,0.9c-0.4,1-1.4,2.1-3.4,2.1C117.9,91,116.2,89.4,116.2,87.2z"/>
		<path class="st18" d="M123.8,88.2c0-1.5,1.1-2.8,3-2.8c1.9,0,3,1.3,3,2.8c0,1.5-1.1,2.8-3,2.8C124.9,91,123.8,89.7,123.8,88.2z
			 M127.8,88.2c0-0.6-0.3-1-1-1c-0.6,0-0.9,0.5-0.9,1c0,0.6,0.3,1,0.9,1C127.4,89.2,127.8,88.8,127.8,88.2z"/>
		<path class="st18" d="M137.3,87.7c0-0.3-0.2-0.6-0.6-0.6s-0.7,0.3-0.8,0.4v3.3h-2v-3.1c0-0.3-0.2-0.6-0.6-0.6
			c-0.4,0-0.7,0.3-0.8,0.4v3.3h-2v-5.3h2v0.6c0.2-0.3,0.9-0.7,1.8-0.7c0.7,0,1.3,0.3,1.5,0.9c0.3-0.5,1-0.9,1.9-0.9
			c1,0,1.6,0.5,1.6,1.6v3.9h-2V87.7z"/>
		<path class="st18" d="M140.4,92.9v-7.3h2v0.6c0.4-0.5,0.9-0.7,1.5-0.7c1.3,0,2.3,1,2.3,2.8c0,1.8-1,2.8-2.3,2.8
			c-0.5,0-1.1-0.2-1.5-0.7v2.6H140.4z M143.2,87.1c-0.3,0-0.6,0.1-0.8,0.4v1.4c0.2,0.2,0.6,0.4,0.8,0.4c0.5,0,1-0.4,1-1
			C144.2,87.5,143.7,87.1,143.2,87.1z"/>
		<path class="st18" d="M150,90.3c-0.3,0.4-0.9,0.6-1.6,0.6c-0.8,0-1.8-0.5-1.8-1.7c0-1.3,1-1.6,1.8-1.6c0.7,0,1.3,0.2,1.6,0.6v-0.6
			c0-0.4-0.3-0.7-1-0.7c-0.5,0-1.1,0.2-1.5,0.5l-0.7-1.2c0.7-0.6,1.7-0.8,2.5-0.8c1.3,0,2.6,0.5,2.6,2.2v3.2h-2V90.3z M150,89.1
			c-0.1-0.2-0.5-0.3-0.8-0.3c-0.3,0-0.7,0.1-0.7,0.4c0,0.3,0.4,0.4,0.7,0.4c0.3,0,0.6-0.1,0.8-0.3V89.1z"/>
		<path class="st18" d="M156.7,87.9c0-0.5-0.3-0.8-0.8-0.8c-0.5,0-0.7,0.2-0.8,0.4v3.3h-2v-5.3h2v0.6c0.3-0.4,0.9-0.7,1.8-0.7
			c1.2,0,1.8,0.7,1.8,1.7v3.8h-2V87.9z"/>
		<path class="st18" d="M160.4,91.2c0.4,0,0.6-0.1,0.7-0.2l0-0.1l-2.1-5.4h2.1l1,3l1-3h2.1l-2.3,6c-0.5,1.2-1.4,1.5-2.5,1.5
			c-0.1,0-0.6,0-0.8-0.1l0.3-1.8C160.1,91.2,160.3,91.2,160.4,91.2z"/>
		<path class="st18" d="M165.2,91.8c0.4-0.2,0.9-0.6,1-1c-0.1,0-0.2,0-0.3,0c-0.5,0-1-0.5-1-1.1c0-0.6,0.5-1.2,1.1-1.2
			c0.7,0,1.3,0.5,1.3,1.4c0,1-0.5,1.8-1.4,2.4L165.2,91.8z"/>
		<path class="st18" d="M171,83.5h2.2v7.3H171V83.5z"/>
		<path class="st18" d="M178,87.9c0-0.5-0.3-0.8-0.8-0.8c-0.5,0-0.7,0.2-0.8,0.4v3.3h-2v-5.3h2v0.6c0.3-0.4,0.9-0.7,1.8-0.7
			c1.2,0,1.8,0.7,1.8,1.7v3.8h-2V87.9z"/>
		<path class="st18" d="M183.7,85.4c1.2,0,2,0.6,2.3,1l-1.3,1.2c-0.2-0.3-0.5-0.5-0.9-0.5c-0.6,0-1,0.4-1,1s0.5,1,1,1
			c0.4,0,0.7-0.2,0.9-0.5L186,90c-0.3,0.4-1,1-2.3,1c-1.7,0-3-1.1-3-2.8C180.7,86.5,182,85.4,183.7,85.4z"/>
		<path class="st18" d="M187.6,88.6c0.6,0,1.2,0.5,1.2,1.2c0,0.6-0.5,1.2-1.2,1.2s-1.2-0.5-1.2-1.2C186.4,89.1,187,88.6,187.6,88.6z
			"/>
	</g>
	<g>
		<path class="st18" d="M244.1,87.6h-3.8l-0.6,2.9h-0.5l1.3-6h0.5l-0.6,2.7h3.8l0.6-2.7h0.5l-1.3,6h-0.5L244.1,87.6z"/>
		<path class="st18" d="M248,86c1.2,0,1.9,0.8,1.9,1.9c0,1.4-1,2.7-2.4,2.7c-1.2,0-1.9-0.8-1.9-1.9C245.6,87.3,246.6,86,248,86z
			 M248,86.5c-1.1,0-1.9,1.1-1.9,2.2c0,0.9,0.5,1.5,1.4,1.5c1.1,0,1.9-1.1,1.9-2.2C249.4,87.1,248.9,86.5,248,86.5z"/>
		<path class="st18" d="M256.4,87.5c0,0,0-0.2,0-0.3c0-0.5-0.4-0.7-0.8-0.7c-0.5,0-1,0.4-1.3,0.8l-0.7,3.3h-0.5l0.7-3
			c0-0.1,0-0.2,0-0.3c0-0.4-0.3-0.7-0.8-0.7c-0.5,0-0.9,0.4-1.3,0.8l-0.7,3.3h-0.5l1-4.3h0.5l-0.1,0.7c0.2-0.3,0.8-0.8,1.4-0.8
			c0.7,0,1.1,0.5,1.1,0.8v0c0.3-0.4,0.9-0.9,1.5-0.9c0.6,0,1.1,0.4,1.1,1.1c0,0.1,0,0.2-0.1,0.4l-0.7,3h-0.5L256.4,87.5z"/>
		<path class="st18" d="M260.2,86c1.2,0,1.8,0.8,1.8,1.9c0,0.2,0,0.4-0.1,0.5h-3.7c0,0.1,0,0.2,0,0.3c0,0.8,0.5,1.5,1.6,1.5
			c0.4,0,0.9-0.2,1.3-0.5l0.2,0.3c-0.4,0.3-0.9,0.5-1.5,0.5c-1.3,0-2.1-0.8-2.1-1.9C257.8,87.2,258.9,86,260.2,86z M261.6,87.9
			c0-0.8-0.5-1.5-1.5-1.5c-0.9,0-1.6,0.8-1.8,1.7h3.2C261.6,88.1,261.6,88,261.6,87.9z"/>
		<path class="st18" d="M272.4,89.2c0.4,0.6,1.1,1,2,1c1.1,0,1.5-0.7,1.5-1.3c0-0.6-0.7-0.9-1.4-1.2c-0.8-0.3-1.6-0.7-1.6-1.6
			c0-0.9,0.9-1.7,2-1.7c0.9,0,1.7,0.4,2.1,0.9l-0.4,0.4c-0.4-0.6-1.1-0.8-1.7-0.8c-0.8,0-1.4,0.6-1.4,1.2c0,0.6,0.6,0.8,1.3,1.1
			c0.8,0.3,1.7,0.7,1.7,1.6c0,0.9-0.7,1.8-2.1,1.8c-1,0-1.9-0.5-2.3-1.1L272.4,89.2z"/>
		<path class="st18" d="M279.9,86c1.2,0,1.8,0.8,1.8,1.9c0,0.2,0,0.4-0.1,0.5H278c0,0.1,0,0.2,0,0.3c0,0.8,0.5,1.5,1.6,1.5
			c0.4,0,0.9-0.2,1.3-0.5l0.2,0.3c-0.4,0.3-0.9,0.5-1.5,0.5c-1.3,0-2.1-0.8-2.1-1.9C277.5,87.2,278.5,86,279.9,86z M281.3,87.9
			c0-0.8-0.5-1.5-1.5-1.5c-0.9,0-1.6,0.8-1.8,1.7h3.2C281.3,88.1,281.3,88,281.3,87.9z"/>
		<path class="st18" d="M283.4,86.1h0.5l-0.2,0.7c0.5-0.5,0.9-0.8,1.6-0.8l-0.1,0.5c-0.1,0-0.2,0-0.3,0c-0.5,0-1,0.4-1.3,0.8
			l-0.7,3.2h-0.5L283.4,86.1z"/>
		<path class="st18" d="M285.6,86.1h0.5l0.7,3.8l2.4-3.8h0.5l-2.8,4.3h-0.5L285.6,86.1z"/>
		<path class="st18" d="M290.6,86.1h0.5l-1,4.3h-0.5L290.6,86.1z M291.1,84.7c0.2,0,0.3,0.1,0.3,0.3c0,0.3-0.2,0.4-0.4,0.4
			c-0.2,0-0.3-0.1-0.3-0.3C290.7,84.8,290.9,84.7,291.1,84.7z"/>
		<path class="st18" d="M294.1,86c0.7,0,1.3,0.3,1.6,0.8l-0.4,0.3c-0.3-0.4-0.7-0.6-1.2-0.6c-1.2,0-1.9,1.1-1.9,2.2
			c0,1,0.6,1.5,1.5,1.5c0.5,0,0.9-0.2,1.2-0.6l0.3,0.3c-0.4,0.4-0.8,0.7-1.5,0.7c-1.1,0-1.9-0.7-1.9-1.9
			C291.7,87.2,292.8,86,294.1,86z"/>
		<path class="st18" d="M298.6,86c1.2,0,1.8,0.8,1.8,1.9c0,0.2,0,0.4-0.1,0.5h-3.7c0,0.1,0,0.2,0,0.3c0,0.8,0.5,1.5,1.6,1.5
			c0.4,0,0.9-0.2,1.3-0.5l0.2,0.3c-0.4,0.3-0.9,0.5-1.5,0.5c-1.3,0-2.1-0.8-2.1-1.9C296.1,87.2,297.2,86,298.6,86z M300,87.9
			c0-0.8-0.5-1.5-1.5-1.5c-0.9,0-1.6,0.8-1.8,1.7h3.2C300,88.1,300,88,300,87.9z"/>
		<path class="st18" d="M301.2,89.5c0.2,0.4,0.8,0.7,1.4,0.7c0.7,0,1.2-0.4,1.2-0.9c0-0.4-0.5-0.6-1-0.9c-0.6-0.2-1.3-0.5-1.3-1.2
			c0-0.7,0.6-1.3,1.6-1.3c0.7,0,1.3,0.3,1.6,0.7l-0.3,0.3c-0.2-0.3-0.7-0.6-1.3-0.6c-0.7,0-1.1,0.3-1.1,0.8c0,0.4,0.5,0.6,1,0.8
			c0.6,0.3,1.3,0.5,1.3,1.2c0,0.7-0.6,1.4-1.6,1.4c-0.8,0-1.4-0.3-1.7-0.8L301.2,89.5z"/>
		<path class="st18" d="M315.9,84.5h2.1c0.9,0,1.6,0.7,1.6,1.5c0,0.9-0.6,2-2.2,2h-1.7l-0.6,2.5h-0.5L315.9,84.5z M319,86
			c0-0.6-0.5-1.1-1.1-1.1h-1.6l-0.6,2.6h1.7C318.5,87.5,319,86.8,319,86z"/>
		<path class="st18" d="M320.6,86.1h0.5l-0.2,0.7c0.5-0.5,0.9-0.8,1.6-0.8l-0.1,0.5c-0.1,0-0.2,0-0.3,0c-0.5,0-1,0.4-1.3,0.8
			l-0.7,3.2h-0.5L320.6,86.1z"/>
		<path class="st18" d="M325.1,86c1.2,0,1.9,0.8,1.9,1.9c0,1.4-1,2.7-2.4,2.7c-1.2,0-1.9-0.8-1.9-1.9C322.7,87.3,323.7,86,325.1,86z
			 M325.1,86.5c-1.1,0-1.9,1.1-1.9,2.2c0,0.9,0.5,1.5,1.4,1.5c1.1,0,1.9-1.1,1.9-2.2C326.5,87.1,326,86.5,325.1,86.5z"/>
		<path class="st18" d="M332.2,84.5h0.5l-1.3,6h-0.5l0.2-0.7c-0.4,0.5-0.9,0.8-1.5,0.8c-1,0-1.7-0.7-1.7-1.8c0-1.5,0.9-2.8,2.3-2.8
			c0.7,0,1.3,0.4,1.6,0.8L332.2,84.5z M329.7,90.2c0.6,0,1.2-0.4,1.5-0.8l0.5-2.1c-0.2-0.4-0.7-0.8-1.4-0.8c-1.1,0-1.8,1.1-1.8,2.3
			C328.3,89.6,328.9,90.2,329.7,90.2z"/>
		<path class="st18" d="M333.6,89.1c0,0.1-0.1,0.2-0.1,0.3c0,0.5,0.4,0.8,1,0.8s1.1-0.4,1.5-0.8l0.7-3.3h0.5l-1,4.3h-0.5l0.1-0.7
			c-0.4,0.4-1,0.8-1.6,0.8c-0.7,0-1.3-0.4-1.3-1.1c0-0.1,0-0.3,0.1-0.4l0.7-3h0.5L333.6,89.1z"/>
		<path class="st18" d="M340.2,86c0.7,0,1.3,0.3,1.6,0.8l-0.4,0.3c-0.3-0.4-0.7-0.6-1.2-0.6c-1.2,0-1.9,1.1-1.9,2.2
			c0,1,0.6,1.5,1.5,1.5c0.5,0,0.9-0.2,1.2-0.6l0.3,0.3c-0.4,0.4-0.8,0.7-1.5,0.7c-1.1,0-1.9-0.7-1.9-1.9
			C337.8,87.2,338.9,86,340.2,86z"/>
		<path class="st18" d="M342.4,89.6l0.7-3.1h-0.7l0.1-0.4h0.7l0.3-1.2h0.5l-0.3,1.2h0.9l-0.1,0.4h-0.9l-0.7,3c0,0,0,0.1,0,0.2
			c0,0.3,0.2,0.4,0.4,0.4c0.2,0,0.4-0.1,0.5-0.2l0.1,0.4c-0.2,0.1-0.4,0.2-0.6,0.2c-0.5,0-0.9-0.2-0.9-0.7
			C342.4,89.8,342.4,89.7,342.4,89.6z"/>
		<path class="st18" d="M344.7,89.5c0.2,0.4,0.8,0.7,1.4,0.7c0.7,0,1.2-0.4,1.2-0.9c0-0.4-0.5-0.6-1-0.9c-0.6-0.2-1.3-0.5-1.3-1.2
			c0-0.7,0.6-1.3,1.6-1.3c0.7,0,1.3,0.3,1.6,0.7l-0.3,0.3c-0.2-0.3-0.7-0.6-1.3-0.6c-0.7,0-1.1,0.3-1.1,0.8c0,0.4,0.5,0.6,1,0.8
			c0.6,0.3,1.3,0.5,1.3,1.2c0,0.7-0.6,1.4-1.6,1.4c-0.8,0-1.4-0.3-1.7-0.8L344.7,89.5z"/>
		<path class="st18" d="M359.4,84.4c1.1,0,1.9,0.5,2.4,1.3l-0.5,0.2c-0.4-0.7-1.1-1-1.9-1c-1.4,0-2.7,1.2-2.7,3.1
			c0,1.3,0.8,2.2,2.2,2.2c0.6,0,1.2-0.2,1.7-0.7l0.4,0.3c-0.6,0.6-1.4,0.8-2.1,0.8c-1.6,0-2.7-1-2.7-2.6
			C356.1,85.8,357.7,84.4,359.4,84.4z"/>
		<path class="st18" d="M364.3,86c1.2,0,1.9,0.8,1.9,1.9c0,1.4-1,2.7-2.4,2.7c-1.2,0-1.9-0.8-1.9-1.9C361.9,87.3,362.9,86,364.3,86z
			 M364.3,86.5c-1.1,0-1.9,1.1-1.9,2.2c0,0.9,0.5,1.5,1.4,1.5c1.1,0,1.9-1.1,1.9-2.2C365.7,87.1,365.2,86.5,364.3,86.5z"/>
		<path class="st18" d="M370.5,87.5c0-0.1,0.1-0.2,0.1-0.3c0-0.5-0.4-0.8-0.9-0.8c-0.6,0-1.1,0.4-1.5,0.8l-0.7,3.3h-0.5l1-4.3h0.5
			l-0.1,0.7c0.4-0.4,1-0.8,1.6-0.8c0.7,0,1.3,0.4,1.3,1.1c0,0.1,0,0.3-0.1,0.4l-0.7,3h-0.5L370.5,87.5z"/>
		<path class="st18" d="M372,89.6l0.7-3.1H372l0.1-0.4h0.7l0.3-1.2h0.5l-0.3,1.2h0.9l-0.1,0.4h-0.9l-0.7,3c0,0,0,0.1,0,0.2
			c0,0.3,0.2,0.4,0.4,0.4c0.2,0,0.4-0.1,0.5-0.2l0.1,0.4c-0.2,0.1-0.4,0.2-0.6,0.2c-0.5,0-0.9-0.2-0.9-0.7
			C372,89.8,372,89.7,372,89.6z"/>
		<path class="st18" d="M378.4,86.1h0.5l-1,4.3h-0.5l0.2-0.7c-0.4,0.5-0.9,0.8-1.5,0.8c-1,0-1.7-0.7-1.7-1.8c0-1.5,0.9-2.8,2.3-2.8
			c0.7,0,1.3,0.4,1.6,0.8L378.4,86.1z M376.2,90.2c0.6,0,1.2-0.4,1.5-0.8l0.5-2.1c-0.2-0.4-0.7-0.8-1.4-0.8c-1.1,0-1.8,1.1-1.8,2.3
			C374.9,89.6,375.4,90.2,376.2,90.2z"/>
		<path class="st18" d="M382,86c0.7,0,1.3,0.3,1.6,0.8l-0.4,0.3c-0.3-0.4-0.7-0.6-1.2-0.6c-1.2,0-1.9,1.1-1.9,2.2
			c0,1,0.6,1.5,1.5,1.5c0.5,0,0.9-0.2,1.2-0.6l0.3,0.3c-0.4,0.4-0.8,0.7-1.5,0.7c-1.1,0-1.9-0.7-1.9-1.9C379.5,87.2,380.6,86,382,86
			z"/>
		<path class="st18" d="M384.1,89.6l0.7-3.1h-0.7l0.1-0.4h0.7l0.3-1.2h0.5l-0.3,1.2h0.9l-0.1,0.4h-0.9l-0.7,3c0,0,0,0.1,0,0.2
			c0,0.3,0.2,0.4,0.4,0.4c0.2,0,0.4-0.1,0.5-0.2l0.1,0.4c-0.2,0.1-0.4,0.2-0.6,0.2c-0.5,0-0.9-0.2-0.9-0.7
			C384.1,89.8,384.1,89.7,384.1,89.6z"/>
	</g>
	<rect x="65.2" y="104.2" class="st19" width="308" height="100.7"/>
	<path class="st17" d="M226.9,160.2h-18.7c-6.6,0-12,5.4-12,12v0c0,6.6,5.4,12,12,12h18.7c6.6,0,12-5.4,12-12v0
		C238.9,165.6,233.5,160.2,226.9,160.2z"/>
	<path class="st20" d="M283.5,145.2h-132c-1.3,0-2.3-1.1-2.3-2.3l0,0c0-1.3,1.1-2.3,2.3-2.3h132c1.3,0,2.3,1,2.3,2.3l0,0
		C285.8,144.1,284.8,145.2,283.5,145.2z"/>
	<path class="st20" d="M283.5,153.2h-132c-1.3,0-2.3-1.1-2.3-2.3l0,0c0-1.3,1.1-2.3,2.3-2.3h132c1.3,0,2.3,1,2.3,2.3l0,0
		C285.8,152.1,284.8,153.2,283.5,153.2z"/>
	<rect x="67.2" y="225.8" class="st17" width="97" height="61.3"/>
	<rect x="170.9" y="225.8" class="st17" width="97" height="61.3"/>
	<rect x="274.3" y="225.8" class="st17" width="97" height="61.3"/>
	<rect x="67.5" y="311.8" class="st3" width="97" height="16.7"/>
	<rect x="171.2" y="311.8" class="st3" width="97" height="16.7"/>
	<rect x="274.6" y="311.8" class="st3" width="97" height="16.7"/>
	<g>
		<rect x="65.2" y="369.8" class="st19" width="202.7" height="90"/>
		<rect x="276.2" y="369.8" class="st17" width="97" height="61.3"/>
		<rect x="276.2" y="443.2" class="st3" width="97" height="16.7"/>
	</g>
	<g>
		
			<image style="overflow:visible;opacity:0.7;" width="251" height="63" xlink:href="39A0F5C4.png"  transform="matrix(0.24 0 0 0.24 84.0947 290.5322)">
		</image>
		<g>
			<g>
				<path class="st17" d="M92.8,298h-3.1v3.3h-2.6v-8.7h2.6v3.1h3.1v-3.1h2.6v8.7h-2.6V298z"/>
				<path class="st17" d="M99.8,294.9c1.8,0,3.3,1.3,3.3,3.5v0.5h-4.3c0.1,0.4,0.6,0.8,1.4,0.8c0.5,0,1.1-0.2,1.4-0.4l1,1.4
					c-0.6,0.5-1.7,0.8-2.7,0.8c-2,0-3.5-1.2-3.5-3.3C96.4,296.4,97.8,294.9,99.8,294.9z M98.8,297.4h2.1c-0.1-0.3-0.3-0.8-1-0.8
					C99.1,296.7,98.8,297.1,98.8,297.4z"/>
				<path class="st17" d="M107.5,300.7c-0.4,0.4-1.1,0.8-1.9,0.8c-0.9,0-2.2-0.6-2.2-2.1c0-1.6,1.2-1.9,2.2-1.9
					c0.8,0,1.6,0.3,1.9,0.7v-0.7c0-0.4-0.4-0.8-1.2-0.8c-0.6,0-1.2,0.2-1.7,0.6l-0.8-1.4c0.8-0.7,2-0.9,3-0.9c1.6,0,3.1,0.5,3.1,2.6
					v3.8h-2.3V300.7z M107.5,299.3c-0.2-0.2-0.6-0.3-0.9-0.3c-0.4,0-0.8,0.1-0.8,0.5s0.4,0.5,0.8,0.5c0.4,0,0.8-0.1,0.9-0.3V299.3z"
					/>
				<path class="st17" d="M115.2,300.7c-0.5,0.6-1.1,0.8-1.8,0.8c-1.5,0-2.8-1.1-2.8-3.3c0-2.1,1.2-3.3,2.8-3.3
					c0.6,0,1.3,0.2,1.8,0.8v-3.1h2.3v8.7h-2.3V300.7z M115.2,297.4c-0.2-0.3-0.7-0.4-1-0.4c-0.6,0-1.2,0.4-1.2,1.2
					c0,0.8,0.5,1.2,1.2,1.2c0.3,0,0.8-0.2,1-0.4V297.4z"/>
				<path class="st17" d="M121.9,294.9c1.8,0,3.3,1.3,3.3,3.5v0.5h-4.3c0.1,0.4,0.6,0.8,1.4,0.8c0.5,0,1.1-0.2,1.4-0.4l1,1.4
					c-0.6,0.5-1.7,0.8-2.7,0.8c-2,0-3.5-1.2-3.5-3.3C118.5,296.4,119.8,294.9,121.9,294.9z M120.8,297.4h2.1c-0.1-0.3-0.3-0.8-1-0.8
					C121.2,296.7,120.9,297.1,120.8,297.4z"/>
				<path class="st17" d="M125.9,295.1h2.3v0.7c0.4-0.5,1.2-0.9,1.9-0.9v2.2c-0.1,0-0.3-0.1-0.5-0.1c-0.5,0-1.1,0.1-1.4,0.4v3.8
					h-2.3V295.1z"/>
				<path class="st17" d="M134.2,299.3c4-2.8,4.3-3.1,4.3-3.8c0-0.4-0.4-0.7-1.1-0.7c-0.9,0-1.6,0.3-2.2,0.9l-1.4-1.7
					c1-1.1,2.5-1.5,3.7-1.5c2.2,0,3.7,1.2,3.7,3c0,1.2-0.7,2.2-3,3.5h3.1v2.3h-7.1V299.3z"/>
			</g>
		</g>
	</g>
	<g>
		
			<image style="overflow:visible;opacity:0.7;" width="251" height="63" xlink:href="39A0F5C5.png"  transform="matrix(0.24 0 0 0.24 190.0947 290.5313)">
		</image>
		<g>
			<g>
				<path class="st17" d="M198.8,298h-3.1v3.3h-2.6v-8.7h2.6v3.1h3.1v-3.1h2.6v8.7h-2.6V298z"/>
				<path class="st17" d="M205.8,294.9c1.8,0,3.3,1.3,3.3,3.5v0.5h-4.3c0.1,0.4,0.6,0.8,1.4,0.8c0.5,0,1.1-0.2,1.4-0.4l1,1.4
					c-0.6,0.5-1.7,0.8-2.7,0.8c-2,0-3.5-1.2-3.5-3.3C202.4,296.4,203.8,294.9,205.8,294.9z M204.8,297.4h2.1c-0.1-0.3-0.3-0.8-1-0.8
					C205.1,296.7,204.8,297.1,204.8,297.4z"/>
				<path class="st17" d="M213.5,300.7c-0.4,0.4-1.1,0.8-1.9,0.8c-0.9,0-2.2-0.6-2.2-2.1c0-1.6,1.2-1.9,2.2-1.9
					c0.8,0,1.6,0.3,1.9,0.7v-0.7c0-0.4-0.4-0.8-1.2-0.8c-0.6,0-1.2,0.2-1.7,0.6l-0.8-1.4c0.8-0.7,2-0.9,3-0.9c1.6,0,3.1,0.5,3.1,2.6
					v3.8h-2.3V300.7z M213.5,299.3c-0.2-0.2-0.6-0.3-0.9-0.3c-0.4,0-0.8,0.1-0.8,0.5s0.4,0.5,0.8,0.5c0.4,0,0.8-0.1,0.9-0.3V299.3z"
					/>
				<path class="st17" d="M221.2,300.7c-0.5,0.6-1.1,0.8-1.8,0.8c-1.5,0-2.8-1.1-2.8-3.3c0-2.1,1.2-3.3,2.8-3.3
					c0.6,0,1.3,0.2,1.8,0.8v-3.1h2.3v8.7h-2.3V300.7z M221.2,297.4c-0.2-0.3-0.7-0.4-1-0.4c-0.6,0-1.2,0.4-1.2,1.2
					c0,0.8,0.5,1.2,1.2,1.2c0.3,0,0.8-0.2,1-0.4V297.4z"/>
				<path class="st17" d="M227.9,294.9c1.8,0,3.3,1.3,3.3,3.5v0.5h-4.3c0.1,0.4,0.6,0.8,1.4,0.8c0.5,0,1.1-0.2,1.4-0.4l1,1.4
					c-0.6,0.5-1.7,0.8-2.7,0.8c-2,0-3.5-1.2-3.5-3.3C224.5,296.4,225.8,294.9,227.9,294.9z M226.8,297.4h2.1c-0.1-0.3-0.3-0.8-1-0.8
					C227.2,296.7,226.9,297.1,226.8,297.4z"/>
				<path class="st17" d="M231.9,295.1h2.3v0.7c0.4-0.5,1.2-0.9,1.9-0.9v2.2c-0.1,0-0.3-0.1-0.5-0.1c-0.5,0-1.1,0.1-1.4,0.4v3.8
					h-2.3V295.1z"/>
				<path class="st17" d="M240.2,299.3c4-2.8,4.3-3.1,4.3-3.8c0-0.4-0.4-0.7-1.1-0.7c-0.9,0-1.6,0.3-2.2,0.9l-1.4-1.7
					c1-1.1,2.5-1.5,3.7-1.5c2.2,0,3.7,1.2,3.7,3c0,1.2-0.7,2.2-3,3.5h3.1v2.3h-7.1V299.3z"/>
			</g>
		</g>
	</g>
	<g>
		
			<image style="overflow:visible;opacity:0.7;" width="251" height="63" xlink:href="39A0F5C3.png"  transform="matrix(0.24 0 0 0.24 295.0947 290.5313)">
		</image>
		<g>
			<g>
				<path class="st17" d="M303.8,298h-3.1v3.3h-2.6v-8.7h2.6v3.1h3.1v-3.1h2.6v8.7h-2.6V298z"/>
				<path class="st17" d="M310.8,294.9c1.8,0,3.3,1.3,3.3,3.5v0.5h-4.3c0.1,0.4,0.6,0.8,1.4,0.8c0.5,0,1.1-0.2,1.4-0.4l1,1.4
					c-0.6,0.5-1.7,0.8-2.7,0.8c-2,0-3.5-1.2-3.5-3.3C307.4,296.4,308.8,294.9,310.8,294.9z M309.8,297.4h2.1c-0.1-0.3-0.3-0.8-1-0.8
					C310.1,296.7,309.8,297.1,309.8,297.4z"/>
				<path class="st17" d="M318.5,300.7c-0.4,0.4-1.1,0.8-1.9,0.8c-0.9,0-2.2-0.6-2.2-2.1c0-1.6,1.2-1.9,2.2-1.9
					c0.8,0,1.6,0.3,1.9,0.7v-0.7c0-0.4-0.4-0.8-1.2-0.8c-0.6,0-1.2,0.2-1.7,0.6l-0.8-1.4c0.8-0.7,2-0.9,3-0.9c1.6,0,3.1,0.5,3.1,2.6
					v3.8h-2.3V300.7z M318.5,299.3c-0.2-0.2-0.6-0.3-0.9-0.3c-0.4,0-0.8,0.1-0.8,0.5s0.4,0.5,0.8,0.5c0.4,0,0.8-0.1,0.9-0.3V299.3z"
					/>
				<path class="st17" d="M326.2,300.7c-0.5,0.6-1.1,0.8-1.8,0.8c-1.5,0-2.8-1.1-2.8-3.3c0-2.1,1.2-3.3,2.8-3.3
					c0.6,0,1.3,0.2,1.8,0.8v-3.1h2.3v8.7h-2.3V300.7z M326.2,297.4c-0.2-0.3-0.7-0.4-1-0.4c-0.6,0-1.2,0.4-1.2,1.2
					c0,0.8,0.5,1.2,1.2,1.2c0.3,0,0.8-0.2,1-0.4V297.4z"/>
				<path class="st17" d="M332.9,294.9c1.8,0,3.3,1.3,3.3,3.5v0.5h-4.3c0.1,0.4,0.6,0.8,1.4,0.8c0.5,0,1.1-0.2,1.4-0.4l1,1.4
					c-0.6,0.5-1.7,0.8-2.7,0.8c-2,0-3.5-1.2-3.5-3.3C329.5,296.4,330.8,294.9,332.9,294.9z M331.8,297.4h2.1c-0.1-0.3-0.3-0.8-1-0.8
					C332.2,296.7,331.9,297.1,331.8,297.4z"/>
				<path class="st17" d="M336.9,295.1h2.3v0.7c0.4-0.5,1.2-0.9,1.9-0.9v2.2c-0.1,0-0.3-0.1-0.5-0.1c-0.5,0-1.1,0.1-1.4,0.4v3.8
					h-2.3V295.1z"/>
				<path class="st17" d="M345.2,299.3c4-2.8,4.3-3.1,4.3-3.8c0-0.4-0.4-0.7-1.1-0.7c-0.9,0-1.6,0.3-2.2,0.9l-1.4-1.7
					c1-1.1,2.5-1.5,3.7-1.5c2.2,0,3.7,1.2,3.7,3c0,1.2-0.7,2.2-3,3.5h3.1v2.3h-7.1V299.3z"/>
			</g>
		</g>
	</g>
	<g>
		
			<image style="overflow:visible;opacity:0.7;" width="234" height="60" xlink:href="39A0F5CC.png"  transform="matrix(0.24 0 0 0.24 62.8203 352.2148)">
		</image>
		<g>
			<g>
				<path class="st17" d="M71.1,359.3h-2.9v3.1h-2.4v-8h2.4v2.8h2.9v-2.8h2.4v8h-2.4V359.3z"/>
				<path class="st17" d="M77.5,356.4c1.7,0,3,1.2,3,3.3v0.4h-3.9c0.1,0.4,0.5,0.7,1.3,0.7c0.5,0,1-0.2,1.3-0.4l0.9,1.3
					c-0.6,0.5-1.6,0.7-2.5,0.7c-1.8,0-3.2-1.1-3.2-3C74.4,357.8,75.7,356.4,77.5,356.4z M76.6,358.7h1.9c-0.1-0.3-0.3-0.7-1-0.7
					C76.9,358,76.7,358.5,76.6,358.7z"/>
				<path class="st17" d="M84.6,361.8c-0.3,0.4-1,0.7-1.8,0.7c-0.9,0-2-0.6-2-1.9c0-1.4,1.1-1.8,2-1.8c0.8,0,1.4,0.2,1.8,0.6v-0.7
					c0-0.4-0.4-0.7-1.1-0.7c-0.5,0-1.2,0.2-1.6,0.6l-0.7-1.3c0.8-0.6,1.9-0.9,2.7-0.9c1.4,0,2.8,0.5,2.8,2.4v3.5h-2.2V361.8z
					 M84.6,360.4c-0.1-0.2-0.5-0.3-0.9-0.3c-0.4,0-0.8,0.1-0.8,0.5c0,0.4,0.4,0.5,0.8,0.5c0.3,0,0.7-0.1,0.9-0.3V360.4z"/>
				<path class="st17" d="M91.8,361.7c-0.5,0.6-1,0.8-1.6,0.8c-1.4,0-2.6-1.1-2.6-3c0-1.9,1.1-3,2.6-3c0.6,0,1.2,0.2,1.6,0.8v-2.8
					H94v8h-2.2V361.7z M91.8,358.7c-0.2-0.3-0.6-0.4-0.9-0.4c-0.6,0-1.1,0.4-1.1,1.1s0.5,1.1,1.1,1.1c0.3,0,0.7-0.1,0.9-0.4V358.7z"
					/>
				<path class="st17" d="M97.9,356.4c1.7,0,3,1.2,3,3.3v0.4H97c0.1,0.4,0.5,0.7,1.3,0.7c0.5,0,1-0.2,1.3-0.4l0.9,1.3
					c-0.6,0.5-1.6,0.7-2.5,0.7c-1.8,0-3.2-1.1-3.2-3C94.8,357.8,96,356.4,97.9,356.4z M97,358.7h1.9c-0.1-0.3-0.3-0.7-1-0.7
					C97.3,358,97,358.5,97,358.7z"/>
				<path class="st17" d="M101.7,356.5h2.2v0.7c0.4-0.4,1.1-0.8,1.8-0.8v2.1c-0.1,0-0.3-0.1-0.5-0.1c-0.5,0-1,0.1-1.3,0.4v3.5h-2.2
					V356.5z"/>
				<path class="st17" d="M110.1,359.7c0.6,0.5,1.6,0.8,2.2,0.8c0.8,0,1.2-0.3,1.2-0.6c0-0.3-0.2-0.5-1.2-0.5c-0.3,0-1,0-1.2,0v-2.1
					c0.2,0,0.9,0,1.2,0c0.8,0,1.1-0.2,1.1-0.5c0-0.4-0.5-0.6-1.2-0.6c-0.7,0-1.4,0.3-2,0.7l-1.1-1.5c0.7-0.8,1.8-1.3,3.4-1.3
					c2.2,0,3.3,0.9,3.3,2.2c0,0.9-0.7,1.6-1.8,1.8c0.9,0.1,1.9,0.8,1.9,1.9c0,1.4-1.4,2.4-3.5,2.4c-1.6,0-2.8-0.5-3.5-1.2
					L110.1,359.7z"/>
			</g>
		</g>
	</g>
	<g>
		
			<image style="overflow:visible;opacity:0.7;" width="234" height="60" xlink:href="39A0F5CF.png"  transform="matrix(0.24 0 0 0.24 273.8555 352.2139)">
		</image>
		<g>
			<g>
				<path class="st17" d="M282.1,359.3h-2.9v3.1h-2.4v-8h2.4v2.8h2.9v-2.8h2.4v8h-2.4V359.3z"/>
				<path class="st17" d="M288.6,356.4c1.7,0,3,1.2,3,3.3v0.4h-3.9c0.1,0.4,0.5,0.7,1.3,0.7c0.5,0,1-0.2,1.3-0.4l0.9,1.3
					c-0.6,0.5-1.6,0.7-2.5,0.7c-1.8,0-3.2-1.1-3.2-3C285.4,357.8,286.7,356.4,288.6,356.4z M287.6,358.7h1.9c-0.1-0.3-0.3-0.7-1-0.7
					C287.9,358,287.7,358.5,287.6,358.7z"/>
				<path class="st17" d="M295.7,361.8c-0.3,0.4-1,0.7-1.8,0.7c-0.9,0-2-0.6-2-1.9c0-1.4,1.1-1.8,2-1.8c0.8,0,1.4,0.2,1.8,0.6v-0.7
					c0-0.4-0.4-0.7-1.1-0.7c-0.5,0-1.2,0.2-1.6,0.6l-0.7-1.3c0.8-0.6,1.9-0.9,2.7-0.9c1.4,0,2.8,0.5,2.8,2.4v3.5h-2.2V361.8z
					 M295.7,360.4c-0.1-0.2-0.5-0.3-0.9-0.3c-0.4,0-0.8,0.1-0.8,0.5c0,0.4,0.4,0.5,0.8,0.5c0.3,0,0.7-0.1,0.9-0.3V360.4z"/>
				<path class="st17" d="M302.8,361.7c-0.5,0.6-1,0.8-1.6,0.8c-1.4,0-2.6-1.1-2.6-3c0-1.9,1.1-3,2.6-3c0.6,0,1.2,0.2,1.6,0.8v-2.8
					h2.2v8h-2.2V361.7z M302.8,358.7c-0.2-0.3-0.6-0.4-0.9-0.4c-0.6,0-1.1,0.4-1.1,1.1s0.5,1.1,1.1,1.1c0.3,0,0.7-0.1,0.9-0.4V358.7
					z"/>
				<path class="st17" d="M309,356.4c1.7,0,3,1.2,3,3.3v0.4H308c0.1,0.4,0.5,0.7,1.3,0.7c0.5,0,1-0.2,1.3-0.4l0.9,1.3
					c-0.6,0.5-1.6,0.7-2.5,0.7c-1.8,0-3.2-1.1-3.2-3C305.8,357.8,307.1,356.4,309,356.4z M308,358.7h1.9c-0.1-0.3-0.3-0.7-1-0.7
					C308.3,358,308.1,358.5,308,358.7z"/>
				<path class="st17" d="M312.7,356.5h2.2v0.7c0.4-0.4,1.1-0.8,1.8-0.8v2.1c-0.1,0-0.3-0.1-0.5-0.1c-0.5,0-1,0.1-1.3,0.4v3.5h-2.2
					V356.5z"/>
				<path class="st17" d="M321.2,359.7c0.6,0.5,1.6,0.8,2.2,0.8c0.8,0,1.2-0.3,1.2-0.6c0-0.3-0.2-0.5-1.2-0.5c-0.3,0-1,0-1.2,0v-2.1
					c0.2,0,0.9,0,1.2,0c0.8,0,1.1-0.2,1.1-0.5c0-0.4-0.5-0.6-1.2-0.6c-0.7,0-1.4,0.3-2,0.7l-1.1-1.5c0.7-0.8,1.8-1.3,3.4-1.3
					c2.2,0,3.3,0.9,3.3,2.2c0,0.9-0.7,1.6-1.8,1.8c0.9,0.1,1.9,0.8,1.9,1.9c0,1.4-1.4,2.4-3.5,2.4c-1.6,0-2.8-0.5-3.5-1.2
					L321.2,359.7z"/>
			</g>
		</g>
	</g>
</g>
<g id="_x3C_Layer_x3E_">
	<g>
		
			<image style="overflow:visible;opacity:0.28;" width="343" height="79" xlink:href="39A0F5CD.png"  transform="matrix(0.24 0 0 0.24 176.9058 115.6602)">
		</image>
		<g>
			<g>
				<path class="st7" d="M188.3,125.5h-4.5v4.8h-3.8v-12.7h3.8v4.5h4.5v-4.5h3.8v12.7h-3.8V125.5z"/>
				<path class="st7" d="M198.5,120.9c2.7,0,4.8,1.9,4.8,5.2v0.7H197c0.2,0.6,0.9,1.2,2,1.2c0.8,0,1.6-0.3,2.1-0.6l1.4,2.1
					c-0.9,0.8-2.5,1.1-3.9,1.1c-2.9,0-5.1-1.8-5.1-4.8C193.5,123.1,195.5,120.9,198.5,120.9z M197,124.6h3c-0.1-0.4-0.4-1.1-1.5-1.1
					C197.4,123.5,197.1,124.2,197,124.6z"/>
				<path class="st7" d="M209.7,129.5c-0.5,0.6-1.6,1.1-2.8,1.1c-1.4,0-3.2-0.9-3.2-3c0-2.3,1.8-2.8,3.2-2.8c1.2,0,2.3,0.4,2.8,1v-1
					c0-0.6-0.6-1.1-1.7-1.1c-0.9,0-1.8,0.3-2.5,0.9l-1.2-2.1c1.2-1,2.9-1.4,4.3-1.4c2.3,0,4.5,0.8,4.5,3.9v5.5h-3.4V129.5z
					 M209.7,127.3c-0.2-0.3-0.8-0.5-1.3-0.5c-0.6,0-1.2,0.2-1.2,0.8c0,0.6,0.6,0.7,1.2,0.7c0.5,0,1.1-0.2,1.3-0.5V127.3z"/>
				<path class="st7" d="M221,129.4c-0.8,0.9-1.7,1.2-2.6,1.2c-2.2,0-4-1.7-4-4.8c0-3,1.8-4.8,4-4.8c0.9,0,1.9,0.3,2.6,1.2v-4.5h3.4
					v12.7H221V129.4z M221,124.6c-0.3-0.4-1-0.6-1.4-0.6c-0.9,0-1.7,0.6-1.7,1.8c0,1.1,0.8,1.8,1.7,1.8c0.5,0,1.1-0.2,1.4-0.6V124.6
					z"/>
				<path class="st7" d="M230.7,120.9c2.7,0,4.8,1.9,4.8,5.2v0.7h-6.2c0.2,0.6,0.9,1.2,2,1.2c0.8,0,1.6-0.3,2.1-0.6l1.4,2.1
					c-0.9,0.8-2.5,1.1-3.9,1.1c-2.9,0-5.1-1.8-5.1-4.8C225.7,123.1,227.8,120.9,230.7,120.9z M229.2,124.6h3
					c-0.1-0.4-0.4-1.1-1.5-1.1C229.7,123.5,229.3,124.2,229.2,124.6z"/>
				<path class="st7" d="M236.7,121.2h3.4v1c0.6-0.7,1.8-1.3,2.8-1.3v3.3c-0.2-0.1-0.5-0.1-0.8-0.1c-0.7,0-1.7,0.2-2,0.6v5.6h-3.4
					V121.2z"/>
				<path class="st7" d="M252.3,122.5l-2.1,2.1l-2.2-2.3l4.8-4.7h3.3v12.7h-3.8V122.5z"/>
			</g>
		</g>
	</g>
</g>
</svg>
