<?xml version="1.0" encoding="utf-8"?>
<!-- Generator: Adobe Illustrator 19.1.0, SVG Export Plug-In . SVG Version: 6.00 Build 0)  -->
<svg version="1.1" xmlns="http://www.w3.org/2000/svg" xmlns:xlink="http://www.w3.org/1999/xlink" x="0px" y="0px"
	 viewBox="0 0 417.9 501.7" style="enable-background:new 0 0 417.9 501.7;" xml:space="preserve">
<style type="text/css">
	.st0{fill:#E5E5E5;}
	.st1{fill:#CCCCCC;}
	.st2{fill:#D6D6D6;}
	.st3{fill:#353535;}
	.st4{fill:#3195AB;stroke:#3195AB;stroke-width:1.7828;stroke-miterlimit:10;}
	.st5{fill:#BE384B;}
	.st6{fill:#686868;}
	.st7{fill:#FFFFFF;}
</style>
<g id="Objects">
</g>
<g id="Layer_1">
	<path class="st0" d="M399.4,487c4,0,7.3,3.3,7.3,7.3v0c0,4-3.3,7.3-7.3,7.3"/>
	<ellipse class="st1" cx="210.8" cy="494.8" rx="196" ry="8.6"/>
	<g>
		<rect x="14.8" y="15.8" class="st2" width="388.2" height="198.7"/>
		<g>
			<path class="st3" d="M143.1,55.5c-7.3-2-35.8-10.1-57.1,13.6C58.5,99.8,28.2,71.7,26.7,67c-2.5-7.2,26.7,4.7,59.4-2.1
				C130.3,55.9,185.9,66.9,143.1,55.5z"/>
			<g>
				<g>
					<rect x="34.2" y="31.2" class="st4" width="2.9" height="37.9"/>
					<rect x="73.4" y="31.2" class="st4" width="3.2" height="37.9"/>
					<line class="st4" x1="35.8" y1="39.8" x2="73.7" y2="39.8"/>
					<line class="st4" x1="36.3" y1="64.4" x2="74.1" y2="64.4"/>
					<line class="st4" x1="41.7" y1="64.6" x2="41.7" y2="31.4"/>
					<line class="st4" x1="68.8" y1="64.4" x2="68.8" y2="31.2"/>
					<line class="st4" x1="46.2" y1="64.2" x2="46.2" y2="32.7"/>
					<line class="st4" x1="64.5" y1="64.3" x2="64.5" y2="32.8"/>
					<line class="st4" x1="50.7" y1="64.5" x2="50.7" y2="34.5"/>
					<line class="st4" x1="59.8" y1="64.9" x2="59.8" y2="34.6"/>
					<line class="st4" x1="55.2" y1="64.2" x2="55.2" y2="35.7"/>
				</g>
			</g>
			<g>
				<g>
					<path class="st3" d="M83.8,32.3c2.9-1.1,5.8-2.2,8.7-3c0,0.9,0,1.8,0,2.7c-1.6,0.5-3.1,1-4.7,1.6c0,0.5,0.1,1,0.1,1.5
						c1.5-0.5,3-1.1,4.5-1.5c0,0.9,0.1,1.8,0.1,2.7c-1.5,0.5-2.9,1-4.4,1.5c0.1,1.4,0.3,2.9,0.4,4.3c-1.2,0.5-2.3,0.9-3.5,1.4
						C84.6,39.9,84.1,36.1,83.8,32.3z"/>
					<path class="st3" d="M98.4,30.6c2.5-0.6,4.4,0.2,4.8,2.2c0.1,0.6,0.1,1.4,0.1,1.8c-1.9,0.4-3.8,0.9-5.7,1.4c0,0,0,0.1,0,0.1
						c0.1,0.2,0.7,0.8,2,0.5c0.7-0.2,1.3-0.5,1.7-0.9c0.5,0.5,0.9,1,1.4,1.5c-0.7,0.7-1.9,1.3-3,1.6c-2.6,0.7-4.7,0-5.3-2
						C93.6,34.5,95,31.5,98.4,30.6z M100.1,33.2c-0.1-0.4-0.6-0.7-1.4-0.5c-0.9,0.2-1.2,1-1.2,1.4c0.9-0.2,1.8-0.5,2.7-0.7
						C100.1,33.4,100.1,33.3,100.1,33.2z"/>
					<path class="st3" d="M110.8,31.6c0-0.1,0-0.3,0-0.4c-0.1-0.4-0.5-0.5-0.9-0.4c-0.7,0.1-1.1,0.5-1.3,0.9
						c-0.2,1.7-0.4,3.4-0.5,5.1c-1.1,0.2-2.2,0.4-3.3,0.6c0.2-2.7,0.4-5.4,0.6-8.1c1.2-0.2,2.3-0.4,3.5-0.6
						c-0.1,0.3-0.1,0.6-0.1,0.9c0.6-0.6,1.4-1.3,2.8-1.5c1.7-0.2,2.8,0.4,2.9,1.4c0,0.1,0,0.4,0,0.5c-0.3,2-0.6,3.9-0.9,5.9
						c-1.1,0.1-2.2,0.3-3.3,0.4C110.4,34.8,110.6,33.2,110.8,31.6z"/>
					<path class="st3" d="M121.2,27.3c1.8-0.1,3.1,0.5,3.8,1.1c-0.7,0.6-1.4,1.2-2.1,1.8c-0.3-0.4-0.8-0.6-1.4-0.5
						c-1.3,0-2.1,1.1-2,2.2c0.1,0.8,0.8,1.2,1.7,1.2c0.5,0,1-0.3,1.3-0.6c0.4,0.6,0.8,1.3,1.2,2c-0.6,0.5-1.6,1-3,1
						c-2.7,0.1-4.4-1-4.6-3.1C115.7,29.9,117.8,27.4,121.2,27.3z"/>
					<path class="st3" d="M131,27.4c2.6,0.1,4.1,1.5,3.9,3.5c-0.1,0.6-0.3,1.4-0.5,1.7c-1.9-0.2-3.9-0.3-5.8-0.3c0,0,0,0.1,0,0.1
						c0,0.2,0.4,1,1.8,1c0.7,0,1.4-0.1,1.9-0.3c0.3,0.6,0.6,1.2,0.9,1.8c-0.9,0.5-2.2,0.7-3.3,0.7c-2.7-0.1-4.4-1.3-4.5-3.5
						C125.3,29.7,127.5,27.2,131,27.4z M131.8,30.4c0-0.4-0.3-0.9-1.2-0.9c-0.9,0-1.5,0.6-1.6,1c0.9,0,1.8,0.1,2.7,0.1
						C131.8,30.5,131.8,30.5,131.8,30.4z"/>
					<path class="st3" d="M92.8,42.2c3.2-1.1,5,0.4,5.8,2c-1,0.6-2,1.1-3,1.7c-0.4-0.8-1.2-1.4-2.1-1.1c-1.7,0.6-1.8,3.3-1.3,4.8
						c0.4,1,1.2,1.4,2.2,1.1c0.7-0.2,1.2-1,1.3-1.8c1,0.1,2,0.2,3,0.4c-0.6,2.1-1.9,3.5-3.5,4.1c-2.7,1-5.2,0.2-6.3-2.3
						C87.7,48.1,88.6,43.7,92.8,42.2z"/>
					<path class="st3" d="M103,42.4c2.7-0.6,4.4,0.6,4.8,2.5c0.4,2.3-0.9,5.1-3.6,5.7c-2.5,0.6-4.1-0.4-4.7-2.3
						C98.9,46.1,100,43.1,103,42.4z M103.5,44.8c-1,0.2-1.2,1.9-1,2.7c0.2,0.7,0.6,0.9,1.3,0.8c1-0.2,1.2-1.8,1-2.7
						C104.6,44.8,104.1,44.6,103.5,44.8z"/>
					<path class="st3" d="M119.2,43.3c0-0.1,0.1-0.3,0-0.4c0-0.4-0.3-0.5-0.7-0.5c-0.5,0-0.9,0.4-1.1,0.8c-0.3,1.7-0.5,3.4-0.7,5
						c-1,0.1-1.9,0.2-2.9,0.3c0.2-1.6,0.3-3.2,0.5-4.7c0-0.1,0-0.3,0-0.4c0-0.4-0.3-0.5-0.8-0.5c-0.5,0.1-0.9,0.5-1,0.8
						c-0.2,1.7-0.3,3.4-0.4,5.1c-1,0.2-1.9,0.3-2.9,0.5c0.1-2.7,0.3-5.4,0.5-8.1c1-0.2,2.1-0.3,3.1-0.5c0,0.3-0.1,0.6-0.1,0.9
						c0.4-0.6,1.2-1.3,2.4-1.4c1.5-0.2,2.4,0.7,2.4,1.1c0,0,0,0,0,0.1c0.5-0.8,1.4-1.5,2.7-1.6c1.3-0.1,2.4,0.5,2.4,1.6
						c0,0.2,0,0.5-0.1,0.5c-0.4,1.9-0.8,3.9-1.1,5.8c-1,0-1.9,0.1-2.9,0.2C118.7,46.5,119,44.9,119.2,43.3z"/>
					<path class="st3" d="M125.6,50.7c-0.9,0-1.9,0-2.8,0.1c0.7-3.6,1.5-7.3,2.4-10.9c1.1,0,2.1,0,3.2,0c-0.1,0.3-0.2,0.6-0.3,0.8
						c0.7-0.7,1.4-1,2.2-1c1.7,0.1,2.7,1.2,2.5,3.1c-0.2,2.2-1.7,5.1-4.3,5c-0.9,0-1.7-0.4-2.1-1.1
						C126.2,48.2,125.9,49.4,125.6,50.7z M128.6,42.2c-0.4,0-0.8,0.2-1.1,0.5c-0.2,0.8-0.4,1.5-0.6,2.3c0.2,0.4,0.6,0.6,1,0.6
						c1,0,1.6-1.4,1.7-2.3C129.7,42.6,129.3,42.2,128.6,42.2z"/>
					<path class="st3" d="M140.7,41.1c1,0.2,2.1,0.3,3.1,0.5c-1.1,2.4-2.2,4.9-3.3,7.3c-1-0.2-1.9-0.3-2.9-0.4
						c0.1-0.3,0.2-0.5,0.3-0.8c-0.7,0.7-1.4,0.9-2.2,0.8c-1.6-0.2-2.4-1.3-2.3-3.2c0.2-2.1,1.8-5.1,4.7-4.8c1,0.1,1.8,0.6,2.1,1.4
						C140.5,41.6,140.6,41.3,140.7,41.1z M137.6,46.3c0.4,0.1,0.8-0.1,1.1-0.4c0.3-0.7,0.6-1.5,0.9-2.2c-0.2-0.4-0.5-0.6-1-0.7
						c-1-0.1-1.8,1.2-1.9,2.1C136.6,45.7,137,46.2,137.6,46.3z"/>
					<path class="st3" d="M149.5,46.1c0-0.1,0.1-0.3,0.2-0.4c0.1-0.4-0.2-0.6-0.6-0.7c-0.6-0.1-1.1,0.1-1.4,0.3
						c-0.8,1.5-1.5,3-2.3,4.5c-1-0.2-1.9-0.4-2.9-0.6c1.1-2.4,2.2-4.9,3.4-7.3c1,0.2,2.1,0.5,3.1,0.7c-0.2,0.3-0.3,0.5-0.5,0.8
						c0.7-0.4,1.7-0.7,2.8-0.4c1.5,0.4,2.1,1.4,1.8,2.3c0,0.1-0.2,0.4-0.2,0.5c-1,1.7-2,3.4-2.9,5.1c-0.9-0.3-1.9-0.5-2.8-0.7
						C148,48.9,148.7,47.5,149.5,46.1z"/>
					<path class="st3" d="M152.7,52.6c0.3,0.1,0.6,0.1,0.8-0.1c0.1-0.1,0.2-0.2,0.3-0.3c0.5-2.6,1-5.2,1.5-7.8c1,0.3,2.1,0.7,3.1,1
						c-0.4,1.4-0.9,2.9-1.3,4.3c1.3-1.1,2.6-2.2,4-3.3c1.1,0.4,2.2,0.9,3.2,1.3c-2.9,1.9-5.7,3.9-8.4,6.1c-1.5,1.2-2.5,1.4-3.9,1
						c-0.6-0.2-1.1-0.4-1.4-0.7c0.5-0.6,1-1.3,1.5-1.9C152.3,52.5,152.5,52.6,152.7,52.6z"/>
				</g>
			</g>
		</g>
		<path class="st5" d="M285.5,121.2H127.4c-2.4,0-4.4-2-4.4-4.4V112c0-2.4,2-4.4,4.4-4.4h158.1c2.4,0,4.4,2,4.4,4.4v4.9
			C289.9,119.3,287.9,121.2,285.5,121.2z"/>
		<path class="st3" d="M285.5,137.8H127.4c-2.4,0-4.4-2-4.4-4.4l0,0c0-2.4,2-4.4,4.4-4.4h158.1c2.4,0,4.4,2,4.4,4.4l0,0
			C289.9,135.8,287.9,137.8,285.5,137.8z"/>
		<path class="st5" d="M285.5,154.8H127.4c-2.4,0-4.4-2-4.4-4.4v0c0-2.4,2-4.4,4.4-4.4h158.1c2.4,0,4.4,2,4.4,4.4v0
			C289.9,152.8,287.9,154.8,285.5,154.8z"/>
		<path class="st3" d="M285.5,169.5H127.4c-2.4,0-4.4-2-4.4-4.4v0c0-2.4,2-4.4,4.4-4.4h158.1c2.4,0,4.4,2,4.4,4.4v0
			C289.9,167.6,287.9,169.5,285.5,169.5z"/>
		<path class="st4" d="M311.6,202H106.2c-2.4,0-4.4-2-4.4-4.4v0c0-2.4,2-4.4,4.4-4.4h205.5c2.4,0,4.4,2,4.4,4.4v0
			C316,200,314.1,202,311.6,202z"/>
		<path class="st3" d="M75.6,202H30.3c-2.4,0-4.4-2-4.4-4.4v0c0-2.4,2-4.4,4.4-4.4h45.4c2.4,0,4.4,2,4.4,4.4v0
			C80,200,78.1,202,75.6,202z"/>
		<path class="st3" d="M389.1,202h-45.4c-2.4,0-4.4-2-4.4-4.4v0c0-2.4,2-4.4,4.4-4.4h45.4c2.4,0,4.4,2,4.4,4.4v0
			C393.5,200,391.5,202,389.1,202z"/>
		<polygon class="st3" points="403,154.8 369.5,53.3 251.7,16.2 403,15.8 		"/>
	</g>
	<polygon class="st6" points="393.5,219 21.7,219 14.8,214.4 403,214.4 	"/>
	<polyline class="st4" points="404.8,434.7 16.6,434.7 16.6,236.1 	"/>
	<polyline class="st6" points="394.4,440.2 22.6,440.2 15.8,435.6 404.8,435.6 	"/>
	<polygon class="st5" points="404.8,435.6 17.8,236.4 404.3,237.1 404.3,361.7 	"/>
	<polygon class="st3" points="404.8,375.1 371.3,273.6 253.4,236.5 404.8,236.1 	"/>
	<polygon class="st3" points="15.7,375.1 403.2,434.7 167,236.5 15.7,236.1 	"/>
	<g>
		
			<image style="overflow:visible;opacity:0.41;" width="723" height="266" xlink:href="BA1239C1.png"  transform="matrix(0.24 0 0 0.24 129.2294 306.7301)">
		</image>
		<g>
			<g>
				<path class="st7" d="M132.1,318.2c6-2.4,12.1-4.5,18.2-6.3c0,1.9,0,3.8,0.1,5.7c-3.3,1-6.5,2.1-9.8,3.3c0.1,1,0.2,2.1,0.2,3.1
					c3.1-1.1,6.2-2.2,9.3-3.2c0.1,1.9,0.1,3.8,0.2,5.7c-3.1,1-6.1,2.1-9.1,3.2c0.3,3,0.6,6,0.9,9c-2.4,1-4.9,2-7.3,3
					C133.7,333.9,132.8,326.1,132.1,318.2z"/>
				<path class="st7" d="M162.4,314.6c5.3-1.3,9.2,0.5,10.1,4.6c0.3,1.3,0.2,2.9,0.1,3.7c-4,0.9-7.9,1.8-11.9,2.9
					c0,0.1,0,0.2,0.1,0.3c0.1,0.4,1.4,1.7,4.2,1c1.4-0.4,2.7-1.1,3.5-1.8c1,1,2,2,2.9,3c-1.6,1.5-4,2.8-6.2,3.4
					c-5.5,1.4-9.8,0.1-11.1-4.2C152.5,322.7,155.4,316.3,162.4,314.6z M166,320.1c-0.2-0.8-1.2-1.5-3-1.1c-1.9,0.5-2.6,2.1-2.6,3
					c1.9-0.5,3.7-1,5.6-1.4C166.1,320.4,166.1,320.2,166,320.1z"/>
				<path class="st7" d="M188.3,316.7c0-0.2,0.1-0.7,0-0.9c-0.1-0.8-1-1.1-1.9-0.9c-1.4,0.2-2.2,1.1-2.8,1.9
					c-0.4,3.5-0.7,7.1-1,10.6c-2.3,0.4-4.6,0.8-6.8,1.3c0.3-5.7,0.8-11.3,1.3-17c2.4-0.5,4.9-0.9,7.3-1.2c-0.1,0.7-0.2,1.3-0.3,2
					c1.2-1.3,3-2.8,5.8-3.1c3.6-0.5,5.8,0.9,6,3c0,0.2,0,0.9-0.1,1.1c-0.7,4.1-1.3,8.2-1.9,12.3c-2.3,0.3-4.6,0.6-6.8,0.9
					C187.5,323.4,187.9,320.1,188.3,316.7z"/>
				<path class="st7" d="M209.9,307.7c3.7-0.1,6.5,1,7.8,2.4c-1.5,1.2-2.9,2.5-4.3,3.8c-0.6-0.7-1.7-1.2-3-1.1
					c-2.6,0.1-4.4,2.3-4.2,4.7c0.1,1.7,1.6,2.5,3.5,2.4c1.1,0,2.1-0.5,2.8-1.2c0.8,1.4,1.7,2.7,2.5,4.1c-1.2,1-3.4,2-6.3,2.2
					c-5.5,0.3-9.3-2.2-9.7-6.4C198.4,313.2,202.9,308,209.9,307.7z"/>
				<path class="st7" d="M230.3,307.8c5.4,0.3,8.6,3.2,8.2,7.3c-0.1,1.3-0.7,2.9-1,3.5c-4-0.3-8.1-0.6-12.1-0.7c0,0.1,0,0.2,0,0.3
					c0,0.4,0.8,2,3.7,2.2c1.4,0.1,2.9-0.2,3.9-0.7c0.6,1.2,1.3,2.5,1.9,3.7c-1.9,1-4.6,1.5-6.9,1.4c-5.6-0.2-9.3-2.8-9.3-7.2
					C218.6,312.7,223.1,307.5,230.3,307.8z M232.2,314.1c0-0.8-0.7-1.8-2.5-1.9c-1.9-0.1-3.1,1.2-3.3,2.1c1.9,0.1,3.8,0.2,5.7,0.3
					C232.1,314.4,232.1,314.3,232.2,314.1z"/>
				<path class="st7" d="M150.8,338.8c6.7-2.3,10.5,0.9,12.1,4.2c-2.1,1.2-4.2,2.3-6.2,3.6c-0.8-1.8-2.4-2.9-4.4-2.2
					c-3.4,1.2-3.8,7-2.6,9.9c0.8,2.1,2.6,3,4.6,2.2c1.4-0.5,2.5-2,2.8-3.8c2.1,0.2,4.1,0.5,6.2,0.8c-1.2,4.5-4,7.2-7.4,8.4
					c-5.6,2-10.8,0.4-13-4.8C140.2,351.1,142.1,341.9,150.8,338.8z"/>
				<path class="st7" d="M172.2,339.1c5.7-1.3,9.2,1.2,9.9,5.2c0.9,4.8-1.8,10.5-7.4,11.9c-5.1,1.3-8.5-0.8-9.7-4.8
					C163.5,346.7,165.9,340.6,172.2,339.1z M173.1,344.1c-2.1,0.5-2.4,3.9-2,5.5c0.4,1.4,1.3,1.9,2.7,1.6c2-0.5,2.4-3.8,2.1-5.6
					C175.5,344.2,174.5,343.7,173.1,344.1z"/>
				<path class="st7" d="M205.9,341.1c0-0.2,0.1-0.7,0.1-0.9c-0.1-0.7-0.7-1.1-1.6-1.1c-1.1,0.1-1.8,0.9-2.3,1.6
					c-0.5,3.5-1,7-1.5,10.5c-2,0.2-4,0.4-6,0.7c0.3-3.3,0.7-6.6,1.1-9.9c0-0.2,0.1-0.7,0-0.9c-0.1-0.7-0.7-1.1-1.7-1
					c-1,0.1-1.8,1.1-2.1,1.7c-0.4,3.5-0.7,7-0.9,10.6c-2,0.3-4,0.7-6,1c0.3-5.6,0.6-11.2,1.1-16.8c2.2-0.4,4.3-0.7,6.5-1
					c-0.1,0.7-0.2,1.3-0.3,2c0.9-1.2,2.6-2.7,4.9-2.9c3.2-0.3,4.9,1.5,5,2.3c0,0,0,0.1,0,0.1c1.1-1.6,3-3.2,5.5-3.3
					c2.7-0.2,4.9,1.1,5,3.4c0,0.4-0.1,1-0.1,1.1c-0.9,4-1.6,8.1-2.4,12.1c-2,0.1-4,0.2-6,0.4C204.8,347.6,205.4,344.4,205.9,341.1z"
					/>
				<path class="st7" d="M219.2,356.5c-1.9,0-3.9,0-5.8,0.1c1.4-7.6,3.1-15.1,5-22.7c2.2,0,4.4,0,6.6,0.1c-0.2,0.6-0.4,1.2-0.5,1.7
					c1.5-1.6,3-2.1,4.6-2c3.6,0.2,5.6,2.4,5.3,6.5c-0.4,4.5-3.5,10.6-8.9,10.5c-1.9-0.1-3.5-0.7-4.3-2.3
					C220.4,351.1,219.7,353.8,219.2,356.5z M225.5,338.6c-0.8,0-1.6,0.4-2.2,1.1c-0.4,1.6-0.9,3.2-1.3,4.8c0.4,0.7,1.2,1.2,2.1,1.2
					c2.1,0.1,3.4-2.8,3.5-4.7C227.7,339.6,226.8,338.7,225.5,338.6z"/>
				<path class="st7" d="M250.6,336.4c2.2,0.3,4.3,0.7,6.5,1.1c-2.4,5.1-4.6,10.2-6.8,15.3c-2-0.3-4-0.6-6-0.9
					c0.2-0.6,0.4-1.1,0.7-1.7c-1.5,1.4-2.9,1.8-4.5,1.6c-3.3-0.4-5.1-2.6-4.7-6.7c0.3-4.5,3.7-10.7,9.8-9.9c2.1,0.3,3.7,1.2,4.4,2.8
					C250.2,337.5,250.4,336.9,250.6,336.4z M244.2,347.2c0.8,0.1,1.6-0.2,2.3-0.8c0.6-1.5,1.2-3.1,1.9-4.6c-0.3-0.8-1.1-1.3-2.1-1.4
					c-2.2-0.3-3.8,2.5-4,4.4C242.1,346.1,243,347,244.2,347.2z"/>
				<path class="st7" d="M268.9,346.9c0.1-0.2,0.3-0.6,0.4-0.8c0.2-0.8-0.4-1.3-1.2-1.5c-1.2-0.3-2.2,0.2-3,0.7
					c-1.6,3.1-3.2,6.2-4.7,9.4c-2-0.4-4-0.9-6-1.2c2.3-5.1,4.7-10.1,7.2-15.1c2.2,0.5,4.3,1,6.4,1.5c-0.3,0.6-0.7,1.1-1,1.7
					c1.4-0.8,3.5-1.5,5.9-0.8c3.1,0.9,4.4,2.9,3.8,4.9c-0.1,0.2-0.3,0.8-0.5,1c-2.1,3.5-4.1,7.1-6.1,10.6c-2-0.6-3.9-1.1-5.9-1.6
					C265.8,352.7,267.3,349.8,268.9,346.9z"/>
				<path class="st7" d="M275.6,360.5c0.7,0.2,1.2,0.1,1.7-0.2c0.2-0.2,0.5-0.4,0.7-0.6c1.1-5.4,2.1-10.7,3-16.1
					c2.2,0.7,4.3,1.4,6.5,2.2c-0.9,3-1.8,6-2.7,9c2.7-2.4,5.5-4.7,8.3-6.9c2.2,0.9,4.5,1.8,6.7,2.8c-6.1,4-12,8.2-17.5,12.7
					c-3.2,2.6-5.2,2.9-8.1,2c-1.2-0.4-2.3-0.9-3-1.4c1.1-1.3,2.1-2.7,3.2-4C274.7,360.1,275.2,360.3,275.6,360.5z"/>
			</g>
		</g>
	</g>
</g>
<g id="objects">
</g>
</svg>
