<?xml version="1.0" encoding="utf-8"?>
<!-- Generator: Adobe Illustrator 19.1.0, SVG Export Plug-In . SVG Version: 6.00 Build 0)  -->
<svg version="1.1" xmlns="http://www.w3.org/2000/svg" xmlns:xlink="http://www.w3.org/1999/xlink" x="0px" y="0px"
	 viewBox="0 0 417.9 501.7" style="enable-background:new 0 0 417.9 501.7;" xml:space="preserve">
<style type="text/css">
	.st0{opacity:0.6;}
	.st1{fill:#353535;}
	.st2{fill:none;stroke:#353535;stroke-miterlimit:10;}
	.st3{fill:#FFFFFF;}
	.st4{fill:#707071;stroke:#1E1E1E;stroke-miterlimit:10;}
	.st5{fill:none;stroke:#606161;stroke-miterlimit:10;}
	
		.st6{clip-path:url(#SVGID_2_);fill:none;stroke:#000000;stroke-width:0.3475;stroke-linecap:round;stroke-linejoin:round;stroke-miterlimit:10;}
	.st7{clip-path:url(#SVGID_2_);fill:#FFFFFF;}
	.st8{clip-path:url(#SVGID_2_);fill:none;stroke:#FFFFFF;stroke-width:0;stroke-linecap:round;stroke-miterlimit:10;}
	.st9{clip-path:url(#SVGID_2_);fill:#010101;}
	.st10{clip-path:url(#SVGID_2_);fill:none;stroke:#000000;stroke-width:0;stroke-linecap:round;stroke-miterlimit:10;}
	
		.st11{clip-path:url(#SVGID_4_);fill:none;stroke:#000000;stroke-width:0.3475;stroke-linecap:round;stroke-linejoin:round;stroke-miterlimit:10;}
	
		.st12{clip-path:url(#SVGID_4_);fill:none;stroke:#000000;stroke-width:0.5502;stroke-linecap:round;stroke-linejoin:round;stroke-miterlimit:10;}
	
		.st13{clip-path:url(#SVGID_4_);fill:none;stroke:#000000;stroke-width:0;stroke-linecap:round;stroke-linejoin:round;stroke-miterlimit:10;}
	.st14{fill:#E5E5E5;}
</style>
<g id="Layer_1">
	<g>
		<g class="st0">
			<rect x="5.9" y="16.7" class="st1" width="393.5" height="298.3"/>
			<rect x="5.9" y="16.7" class="st2" width="393.5" height="298.3"/>
		</g>
		<g>
			<rect x="11.9" y="10.7" class="st3" width="393.5" height="298.3"/>
			<rect x="11.9" y="10.7" class="st2" width="393.5" height="298.3"/>
		</g>
	</g>
	<path class="st4" d="M-38.4,478.8"/>
	<rect x="-106.3" y="167" class="st5" width="2" height="0"/>
	<g>
		<defs>
			<polyline id="SVGID_1_" points="395.1,246.5 395.1,14.3 22.4,14.3 22.4,246.5 395.1,246.5 			"/>
		</defs>
		<clipPath id="SVGID_2_">
			<use xlink:href="#SVGID_1_"  style="overflow:visible;"/>
		</clipPath>
		<polyline class="st6" points="144.3,225.1 151.5,225.1 151.5,224.7 144.3,224.7 144.3,225.1 		"/>
		<polyline class="st6" points="150.2,68.7 145.8,68.7 145.8,225.1 150.2,225.1 150.2,68.7 		"/>
		<polyline class="st6" points="159.4,71.6 160.8,71.6 160.8,219.3 159.4,219.3 159.4,71.6 		"/>
		<polyline class="st6" points="165.2,71.6 166.6,71.6 166.6,219.3 165.2,219.3 165.2,71.6 		"/>
		<polyline class="st6" points="171,71.6 172.4,71.6 172.4,219.3 171,219.3 171,71.6 		"/>
		<polyline class="st6" points="176.8,71.6 178.2,71.6 178.2,219.3 176.8,219.3 176.8,71.6 		"/>
		<polyline class="st6" points="182.6,71.6 184,71.6 184,219.3 182.6,219.3 182.6,71.6 		"/>
		<polyline class="st6" points="188.3,71.6 189.8,71.6 189.8,219.3 188.3,219.3 188.3,71.6 		"/>
		<polyline class="st6" points="194.1,71.6 195.6,71.6 195.6,219.3 194.1,219.3 194.1,71.6 		"/>
		<polyline class="st6" points="199.9,71.6 201.4,71.6 201.4,219.3 199.9,219.3 199.9,71.6 		"/>
		<polyline class="st6" points="205.7,71.6 207.2,71.6 207.2,219.3 205.7,219.3 205.7,71.6 		"/>
		<polyline class="st6" points="211.5,71.6 213,71.6 213,219.3 211.5,219.3 211.5,71.6 		"/>
		<polyline class="st6" points="217.3,71.6 218.8,71.6 218.8,219.3 217.3,219.3 217.3,71.6 		"/>
		<polyline class="st6" points="223.1,71.6 224.5,71.6 224.5,219.3 223.1,219.3 223.1,71.6 		"/>
		<polygon class="st7" points="154.5,144 229.1,144 154.5,144 		"/>
		<polygon class="st8" points="154.5,144 229.1,144 154.5,144 		"/>
		<path class="st7" d="M154.5,146.9h74.5v0L154.5,146.9z M154.5,144v2.9h74.5L154.5,144z"/>
		<path class="st8" d="M154.5,146.9h74.5v0L154.5,146.9z M154.5,144v2.9h74.5L154.5,144z"/>
		<polygon class="st7" points="154.5,144 229.1,144 229.1,146.9 		"/>
		<polygon class="st8" points="154.5,144 229.1,144 229.1,146.9 		"/>
		<polyline class="st6" points="154.5,144 229.1,144 229.1,146.9 154.5,146.9 154.5,144 		"/>
		<line class="st6" x1="313.5" y1="60.1" x2="313.5" y2="67.8"/>
		<line class="st6" x1="314.9" y1="60.1" x2="314.9" y2="67.8"/>
		<line class="st6" x1="313.5" y1="61.6" x2="310.2" y2="61.6"/>
		<line class="st6" x1="314.9" y1="61.6" x2="321.4" y2="61.6"/>
		<path class="st9" d="M312,63.4l2.9-3.6l0.3,0.3L312,63.4z M311.7,63l0.3,0.3l2.9-3.6L311.7,63z"/>
		<path class="st10" d="M312,63.4l2.9-3.6l0.3,0.3L312,63.4z M311.7,63l0.3,0.3l2.9-3.6L311.7,63z"/>
		<path class="st9" d="M316.4,59.8l-2.9,3.6l-0.3-0.3L316.4,59.8z M316.7,60.1l-0.3-0.3l-2.9,3.6L316.7,60.1z"/>
		<path class="st10" d="M316.4,59.8l-2.9,3.6l-0.3-0.3L316.4,59.8z M316.7,60.1l-0.3-0.3l-2.9,3.6L316.7,60.1z"/>
		<polyline class="st6" points="324.6,60.5 325.1,59.9 325.1,63.2 		"/>
		<line class="st6" x1="324.6" y1="63.2" x2="325.7" y2="63.2"/>
		<line class="st6" x1="326.7" y1="61" x2="327.3" y2="59.9"/>
		<line class="st6" x1="327.8" y1="59.9" x2="327.3" y2="61"/>
		<line class="st6" x1="151.6" y1="61.6" x2="151.6" y2="68"/>
		<line class="st6" x1="150.2" y1="61.6" x2="150.2" y2="68"/>
		<line class="st6" x1="151.6" y1="61.7" x2="154.9" y2="61.7"/>
		<line class="st6" x1="150.2" y1="61.7" x2="143.7" y2="61.7"/>
		<path class="st9" d="M153.1,59.9l-2.9,3.6l-0.3-0.3L153.1,59.9z M153.4,60.3l-0.3-0.3l-2.9,3.6L153.4,60.3z"/>
		<path class="st10" d="M153.1,59.9l-2.9,3.6l-0.3-0.3L153.1,59.9z M153.4,60.3l-0.3-0.3l-2.9,3.6L153.4,60.3z"/>
		<path class="st9" d="M148.7,63.5l2.9-3.6l0.3,0.3L148.7,63.5z M148.4,63.2l0.3,0.3l2.9-3.6L148.4,63.2z"/>
		<path class="st10" d="M148.7,63.5l2.9-3.6l0.3,0.3L148.7,63.5z M148.4,63.2l0.3,0.3l2.9-3.6L148.4,63.2z"/>
		<polyline class="st6" points="137.3,60.7 137.8,60.1 137.8,63.4 		"/>
		<line class="st6" x1="137.3" y1="63.4" x2="138.4" y2="63.4"/>
		<line class="st6" x1="139.5" y1="61.2" x2="140" y2="60.1"/>
		<line class="st6" x1="140.5" y1="60.1" x2="140" y2="61.2"/>
		<polyline class="st6" points="240.5,45.9 241.1,45.3 241.1,48.6 		"/>
		<line class="st6" x1="240.5" y1="48.6" x2="241.6" y2="48.6"/>
		<line class="st6" x1="242.7" y1="46.4" x2="243.2" y2="45.3"/>
		<line class="st6" x1="243.8" y1="45.3" x2="243.2" y2="46.4"/>
		<polyline class="st6" points="232.6,50.1 232.6,47 234,47 		"/>
		<line class="st6" x1="324.7" y1="68.7" x2="366.2" y2="68.7"/>
		<line class="st6" x1="324.2" y1="225.1" x2="366.2" y2="225.1"/>
		<line class="st6" x1="360" y1="68.7" x2="360" y2="142.1"/>
		<line class="st6" x1="360" y1="225.1" x2="360" y2="151.7"/>
		<path class="st9" d="M361.8,70.2l-3.6-2.9l0.3-0.3L361.8,70.2z M361.4,70.5l0.3-0.3l-3.6-2.9L361.4,70.5z"/>
		<path class="st10" d="M361.8,70.2l-3.6-2.9l0.3-0.3L361.8,70.2z M361.4,70.5l0.3-0.3l-3.6-2.9L361.4,70.5z"/>
		<path class="st9" d="M358.2,223.6l3.6,2.9l-0.3,0.3L358.2,223.6z M358.5,223.3l-0.3,0.3l3.6,2.9L358.5,223.3z"/>
		<path class="st10" d="M358.2,223.6l3.6,2.9l-0.3,0.3L358.2,223.6z M358.5,223.3l-0.3,0.3l3.6,2.9L358.5,223.3z"/>
		<polyline class="st6" points="358.6,148.5 359.1,148.5 360.2,147.4 360.2,145.8 359.7,145.3 358.6,145.3 358.1,145.8 358.1,146.4 
			358.6,146.9 360.2,146.9 		"/>
		<line class="st6" x1="361.3" y1="146.4" x2="361.9" y2="145.3"/>
		<line class="st6" x1="324.8" y1="71.9" x2="347.2" y2="71.9"/>
		<line class="st6" x1="324.9" y1="144.3" x2="347.2" y2="144.3"/>
		<line class="st6" x1="340.9" y1="71.9" x2="340.9" y2="103.4"/>
		<line class="st6" x1="340.9" y1="144.3" x2="340.9" y2="112.9"/>
		<path class="st9" d="M342.7,73.4l-3.6-2.9l0.3-0.3L342.7,73.4z M342.4,73.7l0.3-0.3l-3.6-2.9L342.4,73.7z"/>
		<path class="st10" d="M342.7,73.4l-3.6-2.9l0.3-0.3L342.7,73.4z M342.4,73.7l0.3-0.3l-3.6-2.9L342.4,73.7z"/>
		<path class="st9" d="M339.1,142.9l3.6,2.9l-0.3,0.3L339.1,142.9z M339.5,142.5l-0.3,0.3l3.6,2.9L339.5,142.5z"/>
		<path class="st10" d="M339.1,142.9l3.6,2.9l-0.3,0.3L339.1,142.9z M339.5,142.5l-0.3,0.3l3.6,2.9L339.5,142.5z"/>
		<polyline class="st6" points="336.9,108.7 334.7,108.7 336.3,106.5 336.3,109.8 		"/>
		<line class="st6" x1="337.9" y1="107.6" x2="338.5" y2="106.5"/>
		<line class="st6" x1="339.6" y1="108.1" x2="341.7" y2="108.1"/>
		<polyline class="st6" points="342.8,107 343.4,106.5 344.5,106.5 345,107 345,107.6 344.5,108.1 343.4,108.1 342.8,108.7 
			342.8,109.8 345,109.8 		"/>
		<line class="st6" x1="346.1" y1="107.6" x2="346.6" y2="106.5"/>
		<line class="st6" x1="347.2" y1="106.5" x2="346.6" y2="107.6"/>
		<line class="st6" x1="324.9" y1="147.3" x2="347.2" y2="147.3"/>
		<line class="st6" x1="325" y1="219.7" x2="347.2" y2="219.7"/>
		<line class="st6" x1="341" y1="147.3" x2="341" y2="178.7"/>
		<line class="st6" x1="341" y1="219.7" x2="341" y2="188.2"/>
		<path class="st9" d="M342.8,148.7l-3.6-2.9l0.3-0.3L342.8,148.7z M342.4,149.1l0.3-0.3l-3.6-2.9L342.4,149.1z"/>
		<path class="st10" d="M342.8,148.7l-3.6-2.9l0.3-0.3L342.8,148.7z M342.4,149.1l0.3-0.3l-3.6-2.9L342.4,149.1z"/>
		<path class="st9" d="M339.2,218.2l3.6,2.9l-0.3,0.3L339.2,218.2z M339.5,217.9l-0.3,0.3l3.6,2.9L339.5,217.9z"/>
		<path class="st10" d="M339.2,218.2l3.6,2.9l-0.3,0.3L339.2,218.2z M339.5,217.9l-0.3,0.3l3.6,2.9L339.5,217.9z"/>
		<polyline class="st6" points="336.9,184 334.7,184 336.4,181.8 336.4,185.1 		"/>
		<line class="st6" x1="338" y1="182.9" x2="338.6" y2="181.8"/>
		<line class="st6" x1="339.6" y1="183.5" x2="341.8" y2="183.5"/>
		<polyline class="st6" points="342.9,182.4 343.4,181.8 344.5,181.8 345.1,182.4 345.1,182.9 344.5,183.5 343.4,183.5 342.9,184 
			342.9,185.1 345.1,185.1 		"/>
		<line class="st6" x1="346.2" y1="182.9" x2="346.7" y2="181.8"/>
		<line class="st6" x1="347.2" y1="181.8" x2="346.7" y2="182.9"/>
		<line class="st6" x1="151.4" y1="227.9" x2="151.4" y2="239.3"/>
		<line class="st6" x1="144.2" y1="227.9" x2="144.2" y2="239.3"/>
		<polyline class="st6" points="151.4,233.1 144.2,233.1 140.9,233.1 		"/>
		<path class="st9" d="M149.9,234.9l2.9-3.6l0.3,0.3L149.9,234.9z M149.6,234.5l0.3,0.3l2.9-3.6L149.6,234.5z"/>
		<path class="st10" d="M149.9,234.9l2.9-3.6l0.3,0.3L149.9,234.9z M149.6,234.5l0.3,0.3l2.9-3.6L149.6,234.5z"/>
		<path class="st9" d="M145.6,231.3l-2.9,3.6l-0.3-0.3L145.6,231.3z M146,231.6l-0.3-0.3l-2.9,3.6L146,231.6z"/>
		<path class="st10" d="M145.6,231.3l-2.9,3.6l-0.3-0.3L145.6,231.3z M146,231.6l-0.3-0.3l-2.9,3.6L146,231.6z"/>
		<polyline class="st6" points="133.4,234.2 134,234.7 135.1,234.7 135.6,234.2 135.6,233.1 135.1,232.5 133.4,232.5 133.4,231.5 
			135.6,231.5 		"/>
		<line class="st6" x1="136.7" y1="232.5" x2="137.2" y2="231.5"/>
		<line class="st6" x1="137.8" y1="231.5" x2="137.2" y2="232.5"/>
		<line class="st6" x1="83.9" y1="63.6" x2="85" y2="63.6"/>
		<line class="st6" x1="84.4" y1="63.6" x2="84.4" y2="66.9"/>
		<line class="st6" x1="83.9" y1="66.9" x2="85" y2="66.9"/>
		<line class="st6" x1="86.1" y1="63.6" x2="88.2" y2="63.6"/>
		<line class="st6" x1="87.2" y1="63.6" x2="87.2" y2="66.9"/>
		<polyline class="st6" points="89.3,66.9 89.3,63.6 91.5,63.6 		"/>
		<line class="st6" x1="89.3" y1="65.3" x2="90.4" y2="65.3"/>
		<line class="st6" x1="89.3" y1="66.9" x2="91.5" y2="66.9"/>
		<polyline class="st6" points="92.6,66.9 92.6,63.6 93.7,65.8 94.8,63.6 94.8,66.9 		"/>
		<polyline class="st6" points="99.1,64.2 99.7,63.6 99.7,66.9 		"/>
		<line class="st6" x1="99.1" y1="66.9" x2="100.2" y2="66.9"/>
		<polygon class="st9" points="141.5,72.1 148,73.1 141.5,74.2 		"/>
		<polygon class="st10" points="141.5,72.1 148,73.1 141.5,74.2 		"/>
		<polyline class="st6" points="141.5,73.1 129.7,73.1 119.2,67.6 106.7,67.6 83.9,67.6 		"/>
		<line class="st6" x1="66.3" y1="90.3" x2="67.4" y2="90.3"/>
		<line class="st6" x1="66.8" y1="90.3" x2="66.8" y2="93.5"/>
		<line class="st6" x1="66.3" y1="93.5" x2="67.4" y2="93.5"/>
		<line class="st6" x1="68.5" y1="90.3" x2="70.7" y2="90.3"/>
		<line class="st6" x1="69.6" y1="90.3" x2="69.6" y2="93.5"/>
		<polyline class="st6" points="71.7,93.5 71.7,90.3 73.9,90.3 		"/>
		<line class="st6" x1="71.7" y1="91.9" x2="72.8" y2="91.9"/>
		<line class="st6" x1="71.7" y1="93.5" x2="73.9" y2="93.5"/>
		<polyline class="st6" points="75,93.5 75,90.3 76.1,92.4 77.2,90.3 77.2,93.5 		"/>
		<polyline class="st6" points="81.5,90.8 82,90.3 83.1,90.3 83.7,90.8 83.7,91.4 83.1,91.9 82,91.9 81.5,92.4 81.5,93.5 83.7,93.5 
					"/>
		<polygon class="st9" points="146.5,84.7 153.1,85.8 146.5,86.9 		"/>
		<polygon class="st10" points="146.5,84.7 153.1,85.8 146.5,86.9 		"/>
		<polyline class="st6" points="146.5,85.8 135.5,85.8 102.7,94.2 90.2,94.2 66.3,94.2 		"/>
		<line class="st6" x1="72.1" y1="123.2" x2="73.2" y2="123.2"/>
		<line class="st6" x1="72.6" y1="123.2" x2="72.6" y2="126.5"/>
		<line class="st6" x1="72.1" y1="126.5" x2="73.2" y2="126.5"/>
		<line class="st6" x1="74.3" y1="123.2" x2="76.4" y2="123.2"/>
		<line class="st6" x1="75.4" y1="123.2" x2="75.4" y2="126.5"/>
		<polyline class="st6" points="77.5,126.5 77.5,123.2 79.7,123.2 		"/>
		<line class="st6" x1="77.5" y1="124.8" x2="78.6" y2="124.8"/>
		<line class="st6" x1="77.5" y1="126.5" x2="79.7" y2="126.5"/>
		<polyline class="st6" points="80.8,126.5 80.8,123.2 81.9,125.4 83,123.2 83,126.5 		"/>
		<polyline class="st6" points="87.3,123.8 87.8,123.2 88.9,123.2 89.5,123.8 89.5,124.3 88.9,124.8 88.4,124.8 		"/>
		<polyline class="st6" points="88.9,124.8 89.5,125.4 89.5,125.9 88.9,126.5 87.8,126.5 87.3,125.9 		"/>
		<polygon class="st9" points="171.7,120.8 178.2,121.9 171.7,123 		"/>
		<polygon class="st10" points="171.7,120.8 178.2,121.9 171.7,123 		"/>
		<polyline class="st6" points="171.7,121.9 125.4,121.9 108.5,127.1 96,127.1 72.1,127.1 		"/>
		<line class="st6" x1="69.2" y1="168.4" x2="70.2" y2="168.4"/>
		<line class="st6" x1="69.7" y1="168.4" x2="69.7" y2="171.7"/>
		<line class="st6" x1="69.2" y1="171.7" x2="70.2" y2="171.7"/>
		<line class="st6" x1="71.3" y1="168.4" x2="73.5" y2="168.4"/>
		<line class="st6" x1="72.4" y1="168.4" x2="72.4" y2="171.7"/>
		<polyline class="st6" points="74.6,171.7 74.6,168.4 76.8,168.4 		"/>
		<line class="st6" x1="74.6" y1="170.1" x2="75.7" y2="170.1"/>
		<line class="st6" x1="74.6" y1="171.7" x2="76.8" y2="171.7"/>
		<polyline class="st6" points="77.8,171.7 77.8,168.4 78.9,170.6 80,168.4 80,171.7 		"/>
		<polyline class="st6" points="86.5,170.6 84.4,170.6 86,168.4 86,171.7 		"/>
		<polygon class="st9" points="156,144.4 162.5,145.4 156,146.5 		"/>
		<polygon class="st10" points="156,144.4 162.5,145.4 156,146.5 		"/>
		<polyline class="st6" points="156,145.4 134,145.4 105.6,172.3 93,172.3 69.2,172.3 		"/>
		<polyline class="st6" points="30.7,229.1 31.2,229.7 32.3,229.7 32.8,229.1 32.8,228 32.3,227.5 30.7,227.5 30.7,226.4 
			32.8,226.4 		"/>
		<line class="st6" x1="33.9" y1="227.5" x2="34.5" y2="226.4"/>
		<line class="st6" x1="35" y1="226.4" x2="34.5" y2="227.5"/>
		<line class="st6" x1="36.1" y1="229.7" x2="38.3" y2="226.4"/>
		<line class="st6" x1="36.1" y1="226.4" x2="38.3" y2="229.7"/>
		<polyline class="st6" points="39.3,229.1 39.9,229.7 41,229.7 41.5,229.1 41.5,228 41,227.5 39.3,227.5 39.3,226.4 41.5,226.4 		
			"/>
		<line class="st6" x1="42.6" y1="227.5" x2="43.2" y2="226.4"/>
		<line class="st6" x1="43.7" y1="226.4" x2="43.2" y2="227.5"/>
		<line class="st6" x1="44.8" y1="229.7" x2="46.9" y2="226.4"/>
		<line class="st6" x1="44.8" y1="226.4" x2="46.9" y2="229.7"/>
		<polyline class="st6" points="48.4,225.8 48.8,225.4 48.8,227.7 		"/>
		<line class="st6" x1="48.4" y1="227.7" x2="49.2" y2="227.7"/>
		<line class="st6" x1="48" y1="228" x2="49.6" y2="228"/>
		<polyline class="st6" points="49.6,229.9 48,229.9 49.2,228.4 49.2,230.7 		"/>
		<line class="st6" x1="50.3" y1="227.5" x2="50.9" y2="226.4"/>
		<line class="st6" x1="51.4" y1="226.4" x2="50.9" y2="227.5"/>
		<polyline class="st6" points="55.8,226.4 56.8,229.7 57.4,228 57.9,229.7 59,226.4 		"/>
		<polyline class="st6" points="60.1,229.7 60.1,226.4 62.3,226.4 		"/>
		<line class="st6" x1="60.1" y1="228" x2="61.2" y2="228"/>
		<line class="st6" x1="60.1" y1="229.7" x2="62.3" y2="229.7"/>
		<polyline class="st6" points="63.4,226.4 63.4,229.7 65.5,229.7 		"/>
		<polyline class="st6" points="66.6,229.7 68.2,229.7 68.8,229.1 68.8,226.9 68.2,226.4 66.6,226.4 		"/>
		<line class="st6" x1="67.1" y1="226.4" x2="67.1" y2="229.7"/>
		<polyline class="st6" points="69.9,229.7 69.9,226.4 72,226.4 		"/>
		<line class="st6" x1="69.9" y1="228" x2="71" y2="228"/>
		<line class="st6" x1="69.9" y1="229.7" x2="72" y2="229.7"/>
		<polyline class="st6" points="73.1,229.7 74.7,229.7 75.3,229.1 75.3,226.9 74.7,226.4 73.1,226.4 		"/>
		<line class="st6" x1="73.7" y1="226.4" x2="73.7" y2="229.7"/>
		<polyline class="st6" points="79.6,229.7 79.6,228.6 80.7,226.4 81.8,228.6 81.8,229.7 		"/>
		<line class="st6" x1="79.6" y1="228.6" x2="81.8" y2="228.6"/>
		<polyline class="st6" points="82.9,229.7 82.9,226.4 85.1,229.7 85.1,226.4 		"/>
		<polyline class="st6" points="88.3,229.1 87.8,229.7 86.7,229.7 86.2,229.1 86.2,226.9 86.7,226.4 87.8,226.4 88.3,226.9 		"/>
		<line class="st6" x1="89.4" y1="229.7" x2="89.4" y2="226.4"/>
		<line class="st6" x1="89.4" y1="228" x2="91.6" y2="228"/>
		<line class="st6" x1="91.6" y1="226.4" x2="91.6" y2="229.7"/>
		<polyline class="st6" points="92.7,229.7 92.7,226.4 94.8,226.4 94.8,229.7 92.7,229.7 		"/>
		<polyline class="st6" points="95.9,229.7 95.9,226.4 97.6,226.4 98.1,226.9 98.1,227.5 97.6,228 95.9,228 		"/>
		<line class="st6" x1="96.5" y1="228" x2="98.1" y2="229.7"/>
		<polyline class="st6" points="30.7,236.1 30.7,232.8 32.3,232.8 32.8,233.4 32.8,233.9 32.3,234.4 30.7,234.4 		"/>
		<polyline class="st6" points="33.9,232.8 33.9,236.1 36.1,236.1 		"/>
		<polyline class="st6" points="37.2,236.1 37.2,235 38.3,232.8 39.3,235 39.3,236.1 		"/>
		<line class="st6" x1="37.2" y1="235" x2="39.3" y2="235"/>
		<line class="st6" x1="40.4" y1="232.8" x2="42.6" y2="232.8"/>
		<line class="st6" x1="41.5" y1="232.8" x2="41.5" y2="236.1"/>
		<polyline class="st6" points="43.7,236.1 43.7,232.8 45.9,232.8 		"/>
		<line class="st6" x1="43.7" y1="234.4" x2="44.8" y2="234.4"/>
		<line class="st6" x1="43.7" y1="236.1" x2="45.9" y2="236.1"/>
		<polyline class="st6" points="50.2,232.8 51.3,236.1 51.8,234.4 52.4,236.1 53.5,232.8 		"/>
		<line class="st6" x1="54.5" y1="236.1" x2="56.7" y2="232.8"/>
		<polyline class="st6" points="62.2,232.8 61.1,233.9 61.1,235 62.2,236.1 		"/>
		<polyline class="st6" points="65.4,235 63.2,235 64.9,232.8 64.9,236.1 		"/>
		<polyline class="st6" points="66.5,232.8 67.6,233.9 67.6,235 66.5,236.1 		"/>
		<polyline class="st6" points="72.7,233.7 73.1,234.1 73.8,234.1 74.2,233.7 74.2,232.9 73.8,232.5 72.7,232.5 72.7,231.8 
			74.2,231.8 		"/>
		<line class="st6" x1="71.9" y1="234.4" x2="75" y2="234.4"/>
		<polyline class="st6" points="71.9,235.2 72.3,234.8 72.3,237.1 		"/>
		<line class="st6" x1="71.9" y1="237.1" x2="72.7" y2="237.1"/>
		<polyline class="st6" points="73.4,236 74.6,236 75,236.3 75,236.7 74.6,237.1 73.8,237.1 73.4,236.7 73.4,235.6 74.2,234.8 
			74.6,234.8 		"/>
		<line class="st6" x1="75.7" y1="233.9" x2="76.3" y2="232.8"/>
		<line class="st6" x1="76.8" y1="232.8" x2="76.3" y2="233.9"/>
		<polyline class="st6" points="78.4,235.5 77.9,235 77.9,233.9 78.4,233.4 79.5,233.4 80.1,233.9 80.1,235 79.5,235.5 78.4,235.5 
					"/>
		<line class="st6" x1="78.2" y1="236.1" x2="79.8" y2="232.8"/>
		<line class="st6" x1="84.4" y1="236.1" x2="84.4" y2="232.8"/>
		<line class="st6" x1="84.4" y1="234.4" x2="86.6" y2="234.4"/>
		<line class="st6" x1="86.6" y1="232.8" x2="86.6" y2="236.1"/>
		<polyline class="st6" points="87.7,236.1 87.7,232.8 89.8,232.8 89.8,236.1 87.7,236.1 		"/>
		<polyline class="st6" points="90.9,232.8 90.9,236.1 93.1,236.1 		"/>
		<polyline class="st6" points="94.2,236.1 94.2,232.8 96.4,232.8 		"/>
		<line class="st6" x1="94.2" y1="234.4" x2="95.3" y2="234.4"/>
		<line class="st6" x1="94.2" y1="236.1" x2="96.4" y2="236.1"/>
		<polyline class="st6" points="97.5,235.5 98,236.1 99.1,236.1 99.6,235.5 97.5,233.4 98,232.8 99.1,232.8 99.6,233.4 		"/>
		<polygon class="st9" points="134.7,224.3 141.2,225.4 134.7,226.5 		"/>
		<polygon class="st10" points="134.7,224.3 141.2,225.4 134.7,226.5 		"/>
		<polyline class="st6" points="134.7,225.4 106.1,225.4 104.6,225.4 		"/>
		<polyline class="st6" points="313.5,225.1 320.7,225.1 320.7,224.7 313.5,224.7 313.5,225.1 		"/>
		<polyline class="st6" points="319.3,68.7 315,68.7 315,225.1 319.3,225.1 319.3,68.7 		"/>
		<polyline class="st6" points="151.6,68.7 232,68.7 232,222.2 151.6,222.2 151.6,68.7 		"/>
		<polyline class="st6" points="154.5,71.6 229.1,71.6 229.1,219.3 154.5,219.3 154.5,71.6 		"/>
		<polyline class="st6" points="240.9,71.6 242.3,71.6 242.3,219.3 240.9,219.3 240.9,71.6 		"/>
		<polyline class="st6" points="246.7,71.6 248.1,71.6 248.1,219.3 246.7,219.3 246.7,71.6 		"/>
		<polyline class="st6" points="252.5,71.6 253.9,71.6 253.9,219.3 252.5,219.3 252.5,71.6 		"/>
		<polyline class="st6" points="258.3,71.6 259.7,71.6 259.7,219.3 258.3,219.3 258.3,71.6 		"/>
		<polyline class="st6" points="264.1,71.6 265.5,71.6 265.5,219.3 264.1,219.3 264.1,71.6 		"/>
		<polyline class="st6" points="269.9,71.6 271.3,71.6 271.3,219.3 269.9,219.3 269.9,71.6 		"/>
		<polyline class="st6" points="275.6,71.6 277.1,71.6 277.1,219.3 275.6,219.3 275.6,71.6 		"/>
		<polyline class="st6" points="281.4,71.6 282.9,71.6 282.9,219.3 281.4,219.3 281.4,71.6 		"/>
		<polyline class="st6" points="287.2,71.6 288.7,71.6 288.7,219.3 287.2,219.3 287.2,71.6 		"/>
		<polyline class="st6" points="293,71.6 294.5,71.6 294.5,219.3 293,219.3 293,71.6 		"/>
		<polyline class="st6" points="298.8,71.6 300.3,71.6 300.3,219.3 298.8,219.3 298.8,71.6 		"/>
		<polyline class="st6" points="304.6,71.6 306,71.6 306,219.3 304.6,219.3 304.6,71.6 		"/>
		<polygon class="st7" points="236,144 310.6,144 236,144 		"/>
		<polygon class="st8" points="236,144 310.6,144 236,144 		"/>
		<path class="st7" d="M236,146.9h74.5v0L236,146.9z M236,144v2.9h74.5L236,144z"/>
		<path class="st8" d="M236,146.9h74.5v0L236,146.9z M236,144v2.9h74.5L236,144z"/>
		<polygon class="st7" points="236,144 310.6,144 310.6,146.9 		"/>
		<polygon class="st8" points="236,144 310.6,144 310.6,146.9 		"/>
		<polyline class="st6" points="236,144 310.6,144 310.6,146.9 236,146.9 236,144 		"/>
		<polyline class="st6" points="233.1,68.7 313.5,68.7 313.5,222.2 233.1,222.2 233.1,68.7 		"/>
		<polyline class="st6" points="236,71.6 310.6,71.6 310.6,219.3 236,219.3 236,71.6 		"/>
		<line class="st6" x1="148" y1="66.2" x2="148" y2="26.2"/>
		<line class="st6" x1="317.4" y1="66.2" x2="317.4" y2="26.2"/>
		<line class="st6" x1="148" y1="32.5" x2="223.3" y2="32.5"/>
		<line class="st6" x1="317.4" y1="32.5" x2="242.1" y2="32.5"/>
		<path class="st9" d="M149.5,30.7l-2.9,3.6l-0.3-0.3L149.5,30.7z M149.8,31l-0.3-0.3l-2.9,3.6L149.8,31z"/>
		<path class="st10" d="M149.5,30.7l-2.9,3.6l-0.3-0.3L149.5,30.7z M149.8,31l-0.3-0.3l-2.9,3.6L149.8,31z"/>
		<path class="st9" d="M316,34.3l2.9-3.6l0.3,0.3L316,34.3z M315.6,34l0.3,0.3l2.9-3.6L315.6,34z"/>
		<path class="st10" d="M316,34.3l2.9-3.6l0.3,0.3L316,34.3z M315.6,34l0.3,0.3l2.9-3.6L315.6,34z"/>
		<polyline class="st6" points="227,34.1 227.5,34.1 228.6,33 228.6,31.4 228.1,30.9 227,30.9 226.5,31.4 226.5,32 227,32.5 
			228.6,32.5 		"/>
		<line class="st6" x1="229.7" y1="32" x2="230.3" y2="30.9"/>
		<line class="st6" x1="231.4" y1="32.5" x2="233.5" y2="32.5"/>
		<polyline class="st6" points="235.1,34.1 235.7,34.1 236.8,33 236.8,31.4 236.2,30.9 235.1,30.9 234.6,31.4 234.6,32 235.1,32.5 
			236.8,32.5 		"/>
		<line class="st6" x1="237.9" y1="32" x2="238.4" y2="30.9"/>
		<line class="st6" x1="239" y1="30.9" x2="238.4" y2="32"/>
		<line class="st6" x1="151.7" y1="67.3" x2="151.7" y2="50.6"/>
		<line class="st6" x1="232" y1="67.3" x2="232" y2="50.6"/>
		<line class="st6" x1="151.7" y1="56.9" x2="180.8" y2="56.9"/>
		<line class="st6" x1="232" y1="56.9" x2="202.8" y2="56.9"/>
		<path class="st9" d="M153.1,55.1l-2.9,3.6l-0.3-0.3L153.1,55.1z M153.5,55.5l-0.3-0.3l-2.9,3.6L153.5,55.5z"/>
		<path class="st10" d="M153.1,55.1l-2.9,3.6l-0.3-0.3L153.1,55.1z M153.5,55.5l-0.3-0.3l-2.9,3.6L153.5,55.5z"/>
		<path class="st9" d="M230.6,58.7l2.9-3.6l0.3,0.3L230.6,58.7z M230.2,58.4l0.3,0.3l2.9-3.6L230.2,58.4z"/>
		<path class="st10" d="M230.6,58.7l2.9-3.6l0.3,0.3L230.6,58.7z M230.2,58.4l0.3,0.3l2.9-3.6L230.2,58.4z"/>
		<polyline class="st6" points="186.1,57.5 184,57.5 185.6,55.3 185.6,58.5 		"/>
		<line class="st6" x1="187.2" y1="56.4" x2="187.8" y2="55.3"/>
		<line class="st6" x1="188.9" y1="56.9" x2="191" y2="56.9"/>
		<polyline class="st6" points="192.1,55.3 194.3,55.3 192.7,58.5 		"/>
		<polyline class="st6" points="195.9,53.6 196.5,53.1 196.5,56.4 		"/>
		<line class="st6" x1="195.9" y1="56.4" x2="197" y2="56.4"/>
		<line class="st6" x1="195.4" y1="56.9" x2="197.5" y2="56.9"/>
		<polyline class="st6" points="195.4,58 195.9,57.5 197,57.5 197.5,58 197.5,58.5 197,59.1 195.9,59.1 195.4,59.6 195.4,60.7 
			197.5,60.7 		"/>
		<line class="st6" x1="198.6" y1="56.4" x2="199.2" y2="55.3"/>
		<line class="st6" x1="199.7" y1="55.3" x2="199.2" y2="56.4"/>
		<line class="st6" x1="233.1" y1="67.3" x2="233.1" y2="50.6"/>
		<line class="st6" x1="313.5" y1="67.3" x2="313.5" y2="50.6"/>
		<line class="st6" x1="233.1" y1="56.9" x2="262.3" y2="56.9"/>
		<line class="st6" x1="313.5" y1="56.9" x2="284.3" y2="56.9"/>
		<path class="st9" d="M234.6,55.1l-2.9,3.6l-0.3-0.3L234.6,55.1z M234.9,55.4l-0.3-0.3l-2.9,3.6L234.9,55.4z"/>
		<path class="st10" d="M234.6,55.1l-2.9,3.6l-0.3-0.3L234.6,55.1z M234.9,55.4l-0.3-0.3l-2.9,3.6L234.9,55.4z"/>
		<path class="st9" d="M312,58.7l2.9-3.6l0.3,0.3L312,58.7z M311.7,58.3l0.3,0.3l2.9-3.6L311.7,58.3z"/>
		<path class="st10" d="M312,58.7l2.9-3.6l0.3,0.3L312,58.7z M311.7,58.3l0.3,0.3l2.9-3.6L311.7,58.3z"/>
		<polyline class="st6" points="267.6,57.4 265.4,57.4 267,55.3 267,58.5 		"/>
		<line class="st6" x1="268.7" y1="56.4" x2="269.2" y2="55.3"/>
		<line class="st6" x1="270.3" y1="56.9" x2="272.5" y2="56.9"/>
		<polyline class="st6" points="273.6,55.3 275.7,55.3 274.1,58.5 		"/>
		<polyline class="st6" points="277.4,53.6 277.9,53.1 277.9,56.4 		"/>
		<line class="st6" x1="277.4" y1="56.4" x2="278.4" y2="56.4"/>
		<line class="st6" x1="276.8" y1="56.9" x2="279" y2="56.9"/>
		<polyline class="st6" points="276.8,58 277.4,57.4 278.4,57.4 279,58 279,58.5 278.4,59.1 277.4,59.1 276.8,59.6 276.8,60.7 
			279,60.7 		"/>
		<line class="st6" x1="280.1" y1="56.4" x2="280.6" y2="55.3"/>
		<line class="st6" x1="281.2" y1="55.3" x2="280.6" y2="56.4"/>
	</g>
	<g>
		<defs>
			<polyline id="SVGID_3_" points="398.9,303.9 398.9,10.7 18.8,10.7 18.8,303.9 398.9,303.9 			"/>
		</defs>
		<clipPath id="SVGID_4_">
			<use xlink:href="#SVGID_3_"  style="overflow:visible;"/>
		</clipPath>
		<polyline class="st11" points="144.1,252.9 144.8,253.6 146.3,253.6 147,252.9 144.1,250 144.8,249.3 146.3,249.3 147,250 		"/>
		<polyline class="st11" points="148.4,253.6 148.4,249.3 150.6,249.3 151.3,250 151.3,250.7 150.6,251.5 148.4,251.5 		"/>
		<polyline class="st11" points="152.8,253.6 152.8,249.3 155.7,249.3 		"/>
		<line class="st11" x1="152.8" y1="251.5" x2="154.2" y2="251.5"/>
		<line class="st11" x1="152.8" y1="253.6" x2="155.7" y2="253.6"/>
		<polyline class="st11" points="160,252.9 159.3,253.6 157.8,253.6 157.1,252.9 157.1,250 157.8,249.3 159.3,249.3 160,250 		"/>
		<line class="st11" x1="161.5" y1="249.3" x2="162.9" y2="249.3"/>
		<line class="st11" x1="162.2" y1="249.3" x2="162.2" y2="253.6"/>
		<line class="st11" x1="161.5" y1="253.6" x2="162.9" y2="253.6"/>
		<polyline class="st11" points="164.4,253.6 164.4,249.3 167.3,249.3 		"/>
		<line class="st11" x1="164.4" y1="251.5" x2="165.8" y2="251.5"/>
		<line class="st11" x1="168.7" y1="249.3" x2="170.1" y2="249.3"/>
		<line class="st11" x1="169.4" y1="249.3" x2="169.4" y2="253.6"/>
		<line class="st11" x1="168.7" y1="253.6" x2="170.1" y2="253.6"/>
		<polyline class="st11" points="174.5,252.9 173.8,253.6 172.3,253.6 171.6,252.9 171.6,250 172.3,249.3 173.8,249.3 174.5,250 		
			"/>
		<polyline class="st11" points="175.9,253.6 175.9,252.2 177.4,249.3 178.8,252.2 178.8,253.6 		"/>
		<line class="st11" x1="175.9" y1="252.2" x2="178.8" y2="252.2"/>
		<line class="st11" x1="180.3" y1="249.3" x2="183.2" y2="249.3"/>
		<line class="st11" x1="181.7" y1="249.3" x2="181.7" y2="253.6"/>
		<line class="st11" x1="184.6" y1="249.3" x2="186.1" y2="249.3"/>
		<line class="st11" x1="185.4" y1="249.3" x2="185.4" y2="253.6"/>
		<line class="st11" x1="184.6" y1="253.6" x2="186.1" y2="253.6"/>
		<polyline class="st11" points="187.5,253.6 187.5,249.3 190.4,249.3 190.4,253.6 187.5,253.6 		"/>
		<polyline class="st11" points="191.9,253.6 191.9,249.3 194.8,253.6 194.8,249.3 		"/>
		<polyline class="st11" points="196.2,252.9 196.9,253.6 198.4,253.6 199.1,252.9 196.2,250 196.9,249.3 198.4,249.3 199.1,250 		
			"/>
		<line class="st11" x1="38.1" y1="258.9" x2="39.2" y2="258.9"/>
		<line class="st11" x1="38.6" y1="258.9" x2="38.6" y2="262.2"/>
		<line class="st11" x1="38.1" y1="262.2" x2="39.2" y2="262.2"/>
		<line class="st11" x1="40.3" y1="258.9" x2="42.4" y2="258.9"/>
		<line class="st11" x1="41.4" y1="258.9" x2="41.4" y2="262.2"/>
		<polyline class="st11" points="43.5,262.2 43.5,258.9 45.7,258.9 		"/>
		<line class="st11" x1="43.5" y1="260.5" x2="44.6" y2="260.5"/>
		<line class="st11" x1="43.5" y1="262.2" x2="45.7" y2="262.2"/>
		<polyline class="st11" points="46.8,262.2 46.8,258.9 47.9,261.1 49,258.9 49,262.2 		"/>
		<line class="st11" x1="53.3" y1="261.1" x2="55.5" y2="261.1"/>
		<line class="st11" x1="55.5" y1="260" x2="53.3" y2="260"/>
		<line class="st11" x1="53.8" y1="258.9" x2="53.8" y2="262.2"/>
		<line class="st11" x1="54.9" y1="262.2" x2="54.9" y2="258.9"/>
		<polyline class="st11" points="79.2,262.2 80.9,262.2 81.4,261.6 81.4,259.4 80.9,258.9 79.2,258.9 		"/>
		<line class="st11" x1="79.8" y1="258.9" x2="79.8" y2="262.2"/>
		<polyline class="st11" points="82.5,262.2 82.5,258.9 84.7,258.9 		"/>
		<line class="st11" x1="82.5" y1="260.5" x2="83.6" y2="260.5"/>
		<line class="st11" x1="82.5" y1="262.2" x2="84.7" y2="262.2"/>
		<polyline class="st11" points="85.8,261.6 86.3,262.2 87.4,262.2 87.9,261.6 85.8,259.4 86.3,258.9 87.4,258.9 87.9,259.4 		"/>
		<polyline class="st11" points="91.2,261.6 90.6,262.2 89.5,262.2 89,261.6 89,259.4 89.5,258.9 90.6,258.9 91.2,259.4 		"/>
		<polyline class="st11" points="92.3,262.2 92.3,258.9 93.9,258.9 94.4,259.4 94.4,260 93.9,260.5 92.3,260.5 		"/>
		<line class="st11" x1="92.8" y1="260.5" x2="94.4" y2="262.2"/>
		<line class="st11" x1="95.5" y1="258.9" x2="96.6" y2="258.9"/>
		<line class="st11" x1="96.1" y1="258.9" x2="96.1" y2="262.2"/>
		<line class="st11" x1="95.5" y1="262.2" x2="96.6" y2="262.2"/>
		<polyline class="st11" points="97.7,262.2 97.7,258.9 99.3,258.9 99.9,259.4 99.9,260 99.3,260.5 97.7,260.5 		"/>
		<line class="st11" x1="101" y1="258.9" x2="103.1" y2="258.9"/>
		<line class="st11" x1="102" y1="258.9" x2="102" y2="262.2"/>
		<line class="st11" x1="104.2" y1="258.9" x2="105.3" y2="258.9"/>
		<line class="st11" x1="104.7" y1="258.9" x2="104.7" y2="262.2"/>
		<line class="st11" x1="104.2" y1="262.2" x2="105.3" y2="262.2"/>
		<polyline class="st11" points="106.4,262.2 106.4,258.9 108.6,258.9 108.6,262.2 106.4,262.2 		"/>
		<polyline class="st11" points="109.6,262.2 109.6,258.9 111.8,262.2 111.8,258.9 		"/>
		<polyline class="st11" points="138.8,261.6 139.4,262.2 140.5,262.2 141,261.6 138.8,259.4 139.4,258.9 140.5,258.9 141,259.4 		
			"/>
		<line class="st11" x1="142.1" y1="258.9" x2="143.2" y2="258.9"/>
		<line class="st11" x1="142.6" y1="258.9" x2="142.6" y2="262.2"/>
		<line class="st11" x1="142.1" y1="262.2" x2="143.2" y2="262.2"/>
		<polyline class="st11" points="144.3,258.9 146.4,258.9 144.3,262.2 146.4,262.2 		"/>
		<polyline class="st11" points="147.5,262.2 147.5,258.9 149.7,258.9 		"/>
		<line class="st11" x1="147.5" y1="260.5" x2="148.6" y2="260.5"/>
		<line class="st11" x1="147.5" y1="262.2" x2="149.7" y2="262.2"/>
		<line class="st11" x1="179.4" y1="258.9" x2="181.6" y2="258.9"/>
		<line class="st11" x1="180.5" y1="258.9" x2="180.5" y2="262.2"/>
		<line class="st11" x1="182.7" y1="262.2" x2="182.7" y2="258.9"/>
		<line class="st11" x1="182.7" y1="260.5" x2="184.9" y2="260.5"/>
		<line class="st11" x1="184.9" y1="258.9" x2="184.9" y2="262.2"/>
		<line class="st11" x1="185.9" y1="258.9" x2="187" y2="258.9"/>
		<line class="st11" x1="186.5" y1="258.9" x2="186.5" y2="262.2"/>
		<line class="st11" x1="185.9" y1="262.2" x2="187" y2="262.2"/>
		<polyline class="st11" points="190.3,261.6 189.7,262.2 188.7,262.2 188.1,261.6 188.1,259.4 188.7,258.9 189.7,258.9 
			190.3,259.4 		"/>
		<line class="st11" x1="191.4" y1="262.2" x2="191.4" y2="258.9"/>
		<polyline class="st11" points="193.5,258.9 191.9,260.5 191.4,260.5 		"/>
		<line class="st11" x1="191.9" y1="260.5" x2="193.5" y2="262.2"/>
		<polyline class="st11" points="194.6,262.2 194.6,258.9 196.8,262.2 196.8,258.9 		"/>
		<polyline class="st11" points="197.9,262.2 197.9,258.9 200.1,258.9 		"/>
		<line class="st11" x1="197.9" y1="260.5" x2="199" y2="260.5"/>
		<line class="st11" x1="197.9" y1="262.2" x2="200.1" y2="262.2"/>
		<polyline class="st11" points="201.1,261.6 201.7,262.2 202.8,262.2 203.3,261.6 201.1,259.4 201.7,258.9 202.8,258.9 
			203.3,259.4 		"/>
		<polyline class="st11" points="204.4,261.6 204.9,262.2 206,262.2 206.6,261.6 204.4,259.4 204.9,258.9 206,258.9 206.6,259.4 		
			"/>
		<polyline class="st11" points="261.5,262.2 261.5,258.9 263.7,262.2 263.7,258.9 		"/>
		<polyline class="st11" points="264.7,262.2 264.7,258.9 266.9,258.9 266.9,262.2 264.7,262.2 		"/>
		<line class="st11" x1="268" y1="258.9" x2="270.2" y2="258.9"/>
		<line class="st11" x1="269.1" y1="258.9" x2="269.1" y2="262.2"/>
		<polyline class="st11" points="271.3,262.2 271.3,258.9 273.4,258.9 		"/>
		<line class="st11" x1="271.3" y1="260.5" x2="272.3" y2="260.5"/>
		<line class="st11" x1="271.3" y1="262.2" x2="273.4" y2="262.2"/>
		<polyline class="st11" points="274.5,261.6 275.1,262.2 276.1,262.2 276.7,261.6 274.5,259.4 275.1,258.9 276.1,258.9 
			276.7,259.4 		"/>
		<line class="st11" x1="38.6" y1="267.7" x2="39.7" y2="267.7"/>
		<line class="st11" x1="39.2" y1="267.7" x2="39.2" y2="271"/>
		<line class="st11" x1="38.6" y1="271" x2="39.7" y2="271"/>
		<line class="st11" x1="40.8" y1="267.7" x2="43" y2="267.7"/>
		<line class="st11" x1="41.9" y1="267.7" x2="41.9" y2="271"/>
		<polyline class="st11" points="44.1,271 44.1,267.7 46.2,267.7 		"/>
		<line class="st11" x1="44.1" y1="269.4" x2="45.2" y2="269.4"/>
		<line class="st11" x1="44.1" y1="271" x2="46.2" y2="271"/>
		<polyline class="st11" points="47.3,271 47.3,267.7 48.4,269.9 49.5,267.7 49.5,271 		"/>
		<polyline class="st11" points="53.8,268.3 54.4,267.7 54.4,271 		"/>
		<line class="st11" x1="53.8" y1="271" x2="54.9" y2="271"/>
		<polyline class="st11" points="89.5,271 89.5,267.7 91.2,267.7 91.7,268.3 91.7,268.8 91.2,269.4 89.5,269.4 		"/>
		<polyline class="st11" points="92.8,271 92.8,267.7 95,267.7 95,271 92.8,271 		"/>
		<polyline class="st11" points="96.1,270.4 96.6,271 97.7,271 98.2,270.4 96.1,268.3 96.6,267.7 97.7,267.7 98.2,268.3 		"/>
		<line class="st11" x1="99.3" y1="267.7" x2="101.5" y2="267.7"/>
		<line class="st11" x1="100.4" y1="267.7" x2="100.4" y2="271"/>
		<polyline class="st11" points="134.5,268.3 135,267.7 136.1,267.7 136.7,268.3 136.7,268.8 136.1,269.4 135.6,269.4 		"/>
		<polyline class="st11" points="136.1,269.4 136.7,269.9 136.7,270.4 136.1,271 135,271 134.5,270.4 		"/>
		<line class="st11" x1="137.7" y1="268.8" x2="138.3" y2="267.7"/>
		<line class="st11" x1="138.8" y1="267.7" x2="138.3" y2="268.8"/>
		<line class="st11" x1="143.2" y1="271" x2="145.3" y2="267.7"/>
		<line class="st11" x1="143.2" y1="267.7" x2="145.3" y2="271"/>
		<polyline class="st11" points="149.7,268.3 150.2,267.7 151.3,267.7 151.9,268.3 151.9,268.8 151.3,269.4 150.8,269.4 		"/>
		<polyline class="st11" points="151.3,269.4 151.9,269.9 151.9,270.4 151.3,271 150.2,271 149.7,270.4 		"/>
		<line class="st11" x1="152.9" y1="268.8" x2="153.5" y2="267.7"/>
		<line class="st11" x1="154" y1="267.7" x2="153.5" y2="268.8"/>
		<polyline class="st11" points="186.8,271 186.2,270.4 186.2,268.3 186.8,267.7 187.3,267.7 187.8,268.3 187.8,270.4 187.3,271 
			186.8,271 		"/>
		<line class="st11" x1="188.9" y1="271" x2="188.9" y2="270.4"/>
		<polyline class="st11" points="190,268.3 190.6,267.7 190.6,271 		"/>
		<line class="st11" x1="190" y1="271" x2="191.1" y2="271"/>
		<polyline class="st11" points="193.8,269.4 194.4,269.9 194.4,270.4 193.8,271 192.7,271 192.2,270.4 192.2,269.9 192.7,269.4 
			193.8,269.4 194.4,268.8 194.4,268.3 193.8,267.7 192.7,267.7 192.2,268.3 192.2,268.8 192.7,269.4 		"/>
		<polyline class="st11" points="197.1,269.4 197.6,269.9 197.6,270.4 197.1,271 196,271 195.4,270.4 195.4,269.9 196,269.4 
			197.1,269.4 197.6,268.8 197.6,268.3 197.1,267.7 196,267.7 195.4,268.3 195.4,268.8 196,269.4 		"/>
		<line class="st11" x1="198.7" y1="268.8" x2="199.2" y2="267.7"/>
		<line class="st11" x1="199.8" y1="267.7" x2="199.2" y2="268.8"/>
		<polyline class="st11" points="227.8,270.4 228.4,271 229.4,271 230,270.4 230,269.4 229.4,268.8 227.8,268.8 227.8,267.7 
			230,267.7 		"/>
		<line class="st11" x1="231.1" y1="268.8" x2="231.6" y2="267.7"/>
		<line class="st11" x1="232.2" y1="267.7" x2="231.6" y2="268.8"/>
		<line class="st11" x1="233.2" y1="271" x2="235.4" y2="267.7"/>
		<line class="st11" x1="233.2" y1="267.7" x2="235.4" y2="271"/>
		<polyline class="st11" points="236.5,270.4 237,271 238.1,271 238.7,270.4 238.7,269.4 238.1,268.8 236.5,268.8 236.5,267.7 
			238.7,267.7 		"/>
		<line class="st11" x1="239.8" y1="268.8" x2="240.3" y2="267.7"/>
		<line class="st11" x1="240.9" y1="267.7" x2="240.3" y2="268.8"/>
		<polyline class="st11" points="245.2,271 245.2,267.7 246.8,267.7 247.4,268.3 247.4,268.8 246.8,269.4 245.2,269.4 		"/>
		<polyline class="st11" points="248.5,267.7 248.5,271 250.6,271 		"/>
		<polyline class="st11" points="251.7,271 251.7,269.9 252.8,267.7 253.9,269.9 253.9,271 		"/>
		<line class="st11" x1="251.7" y1="269.9" x2="253.9" y2="269.9"/>
		<line class="st11" x1="255" y1="267.7" x2="257.1" y2="267.7"/>
		<line class="st11" x1="256.1" y1="267.7" x2="256.1" y2="271"/>
		<polyline class="st11" points="258.2,271 258.2,267.7 260.4,267.7 		"/>
		<line class="st11" x1="258.2" y1="269.4" x2="259.3" y2="269.4"/>
		<line class="st11" x1="258.2" y1="271" x2="260.4" y2="271"/>
		<polyline class="st11" points="264.7,267.7 265.8,271 266.4,269.4 266.9,271 268,267.7 		"/>
		<polyline class="st11" points="269.1,271 269.1,267.7 271.3,267.7 		"/>
		<line class="st11" x1="269.1" y1="269.4" x2="270.2" y2="269.4"/>
		<line class="st11" x1="269.1" y1="271" x2="271.3" y2="271"/>
		<polyline class="st11" points="272.3,267.7 272.3,271 274.5,271 		"/>
		<polyline class="st11" points="275.6,271 277.2,271 277.8,270.4 277.8,268.3 277.2,267.7 275.6,267.7 		"/>
		<line class="st11" x1="276.1" y1="267.7" x2="276.1" y2="271"/>
		<polyline class="st11" points="278.9,271 278.9,267.7 281,267.7 		"/>
		<line class="st11" x1="278.9" y1="269.4" x2="279.9" y2="269.4"/>
		<line class="st11" x1="278.9" y1="271" x2="281" y2="271"/>
		<polyline class="st11" points="282.1,271 283.7,271 284.3,270.4 284.3,268.3 283.7,267.7 282.1,267.7 		"/>
		<line class="st11" x1="282.7" y1="267.7" x2="282.7" y2="271"/>
		<line class="st11" x1="288.6" y1="267.7" x2="290.8" y2="267.7"/>
		<line class="st11" x1="289.7" y1="267.7" x2="289.7" y2="271"/>
		<polyline class="st11" points="291.9,271 291.9,267.7 294.1,267.7 294.1,271 291.9,271 		"/>
		<line class="st11" x1="298.4" y1="267.7" x2="300.6" y2="267.7"/>
		<line class="st11" x1="299.5" y1="267.7" x2="299.5" y2="271"/>
		<polyline class="st11" points="301.7,267.7 301.7,270.4 302.2,271 303.3,271 303.8,270.4 303.8,267.7 		"/>
		<polyline class="st11" points="304.9,271 306.5,271 307.1,270.4 307.1,269.9 306.5,269.4 305.5,269.4 		"/>
		<polyline class="st11" points="306.5,269.4 307.1,268.8 307.1,268.3 306.5,267.7 304.9,267.7 		"/>
		<line class="st11" x1="305.5" y1="267.7" x2="305.5" y2="271"/>
		<polyline class="st11" points="308.2,271 308.2,267.7 310.4,267.7 		"/>
		<line class="st11" x1="308.2" y1="269.4" x2="309.3" y2="269.4"/>
		<line class="st11" x1="308.2" y1="271" x2="310.4" y2="271"/>
		<line class="st11" x1="38.1" y1="276.4" x2="39.2" y2="276.4"/>
		<line class="st11" x1="38.6" y1="276.4" x2="38.6" y2="279.7"/>
		<line class="st11" x1="38.1" y1="279.7" x2="39.2" y2="279.7"/>
		<line class="st11" x1="40.3" y1="276.4" x2="42.4" y2="276.4"/>
		<line class="st11" x1="41.4" y1="276.4" x2="41.4" y2="279.7"/>
		<polyline class="st11" points="43.5,279.7 43.5,276.4 45.7,276.4 		"/>
		<line class="st11" x1="43.5" y1="278" x2="44.6" y2="278"/>
		<line class="st11" x1="43.5" y1="279.7" x2="45.7" y2="279.7"/>
		<polyline class="st11" points="46.8,279.7 46.8,276.4 47.9,278.6 49,276.4 49,279.7 		"/>
		<polyline class="st11" points="53.3,277 53.8,276.4 54.9,276.4 55.5,277 55.5,277.5 54.9,278 53.8,278 53.3,278.6 53.3,279.7 
			55.5,279.7 		"/>
		<polyline class="st11" points="81.4,278 81.9,278 81.9,279.7 80.3,279.7 79.8,279.1 79.8,277 80.3,276.4 81.9,276.4 		"/>
		<polyline class="st11" points="83,279.7 83,278.6 84.1,276.4 85.2,278.6 85.2,279.7 		"/>
		<line class="st11" x1="83" y1="278.6" x2="85.2" y2="278.6"/>
		<line class="st11" x1="86.3" y1="276.4" x2="88.5" y2="276.4"/>
		<line class="st11" x1="87.4" y1="276.4" x2="87.4" y2="279.7"/>
		<polyline class="st11" points="89.5,279.7 89.5,276.4 91.7,276.4 		"/>
		<line class="st11" x1="89.5" y1="278" x2="90.6" y2="278"/>
		<line class="st11" x1="89.5" y1="279.7" x2="91.7" y2="279.7"/>
		<polyline class="st11" points="96.1,279.7 96.1,276.4 98.2,276.4 		"/>
		<line class="st11" x1="96.1" y1="278" x2="97.1" y2="278"/>
		<polyline class="st11" points="99.3,279.7 99.3,276.4 101,276.4 101.5,277 101.5,277.5 101,278 99.3,278 		"/>
		<line class="st11" x1="99.9" y1="278" x2="101.5" y2="279.7"/>
		<polyline class="st11" points="102.6,279.7 102.6,278.6 103.7,276.4 104.7,278.6 104.7,279.7 		"/>
		<line class="st11" x1="102.6" y1="278.6" x2="104.7" y2="278.6"/>
		<polyline class="st11" points="105.8,279.7 105.8,276.4 106.9,278.6 108,276.4 108,279.7 		"/>
		<polyline class="st11" points="109.1,279.7 109.1,276.4 111.3,276.4 		"/>
		<line class="st11" x1="109.1" y1="278" x2="110.2" y2="278"/>
		<line class="st11" x1="109.1" y1="279.7" x2="111.3" y2="279.7"/>
		<polyline class="st11" points="134.5,277 135,276.4 136.1,276.4 136.7,277 136.7,277.5 136.1,278 135,278 134.5,278.6 
			134.5,279.7 136.7,279.7 		"/>
		<line class="st11" x1="137.7" y1="277.5" x2="138.3" y2="276.4"/>
		<line class="st11" x1="138.8" y1="276.4" x2="138.3" y2="277.5"/>
		<line class="st11" x1="143.2" y1="279.7" x2="145.3" y2="276.4"/>
		<line class="st11" x1="143.2" y1="276.4" x2="145.3" y2="279.7"/>
		<polyline class="st11" points="149.7,277 150.2,276.4 151.3,276.4 151.9,277 151.9,277.5 151.3,278 150.2,278 149.7,278.6 
			149.7,279.7 151.9,279.7 		"/>
		<line class="st11" x1="152.9" y1="277.5" x2="153.5" y2="276.4"/>
		<line class="st11" x1="154" y1="276.4" x2="153.5" y2="277.5"/>
		<polyline class="st11" points="186.8,279.7 186.2,279.1 186.2,277 186.8,276.4 187.3,276.4 187.8,277 187.8,279.1 187.3,279.7 
			186.8,279.7 		"/>
		<line class="st11" x1="188.9" y1="279.7" x2="188.9" y2="279.1"/>
		<polyline class="st11" points="190,277 190.6,276.4 190.6,279.7 		"/>
		<line class="st11" x1="190" y1="279.7" x2="191.1" y2="279.7"/>
		<polyline class="st11" points="192.2,277 192.7,276.4 193.8,276.4 194.4,277 194.4,277.5 193.8,278 192.7,278 192.2,278.6 
			192.2,279.7 194.4,279.7 		"/>
		<polyline class="st11" points="195.4,279.1 196,279.7 197.1,279.7 197.6,279.1 197.6,278 197.1,277.5 195.4,277.5 195.4,276.4 
			197.6,276.4 		"/>
		<line class="st11" x1="198.7" y1="277.5" x2="199.2" y2="276.4"/>
		<line class="st11" x1="199.8" y1="276.4" x2="199.2" y2="277.5"/>
		<line class="st11" x1="221.8" y1="276.4" x2="224" y2="276.4"/>
		<line class="st11" x1="222.9" y1="276.4" x2="222.9" y2="279.7"/>
		<polyline class="st11" points="225.1,276.4 225.1,279.1 225.6,279.7 226.7,279.7 227.3,279.1 227.3,276.4 		"/>
		<polyline class="st11" points="228.4,279.7 230,279.7 230.5,279.1 230.5,278.6 230,278 228.9,278 		"/>
		<polyline class="st11" points="230,278 230.5,277.5 230.5,277 230,276.4 228.4,276.4 		"/>
		<line class="st11" x1="228.9" y1="276.4" x2="228.9" y2="279.7"/>
		<polyline class="st11" points="231.6,279.7 231.6,276.4 233.8,276.4 		"/>
		<line class="st11" x1="231.6" y1="278" x2="232.7" y2="278"/>
		<line class="st11" x1="231.6" y1="279.7" x2="233.8" y2="279.7"/>
		<polyline class="st11" points="238.1,279.7 238.1,276.4 240.3,276.4 		"/>
		<line class="st11" x1="238.1" y1="278" x2="239.2" y2="278"/>
		<polyline class="st11" points="241.4,276.4 241.4,279.1 241.9,279.7 243,279.7 243.6,279.1 243.6,276.4 		"/>
		<polyline class="st11" points="244.6,276.4 244.6,279.7 246.8,279.7 		"/>
		<polyline class="st11" points="247.9,276.4 247.9,279.7 250.1,279.7 		"/>
		<polyline class="st11" points="251.2,276.4 252.2,278 252.2,279.7 		"/>
		<line class="st11" x1="252.2" y1="278" x2="253.3" y2="276.4"/>
		<polyline class="st11" points="257.7,276.4 258.8,279.7 259.3,278 259.8,279.7 260.9,276.4 		"/>
		<polyline class="st11" points="262,279.7 262,276.4 264.2,276.4 		"/>
		<line class="st11" x1="262" y1="278" x2="263.1" y2="278"/>
		<line class="st11" x1="262" y1="279.7" x2="264.2" y2="279.7"/>
		<polyline class="st11" points="265.3,276.4 265.3,279.7 267.4,279.7 		"/>
		<polyline class="st11" points="268.5,279.7 270.2,279.7 270.7,279.1 270.7,277 270.2,276.4 268.5,276.4 		"/>
		<line class="st11" x1="269.1" y1="276.4" x2="269.1" y2="279.7"/>
		<polyline class="st11" points="271.8,279.7 271.8,276.4 274,276.4 		"/>
		<line class="st11" x1="271.8" y1="278" x2="272.9" y2="278"/>
		<line class="st11" x1="271.8" y1="279.7" x2="274" y2="279.7"/>
		<polyline class="st11" points="275.1,279.7 276.7,279.7 277.2,279.1 277.2,277 276.7,276.4 275.1,276.4 		"/>
		<line class="st11" x1="275.6" y1="276.4" x2="275.6" y2="279.7"/>
		<polyline class="st11" points="281.6,279.7 281.6,278.6 282.7,276.4 283.7,278.6 283.7,279.7 		"/>
		<line class="st11" x1="281.6" y1="278.6" x2="283.7" y2="278.6"/>
		<polyline class="st11" points="284.8,276.4 284.8,279.7 287,279.7 		"/>
		<polyline class="st11" points="288.1,276.4 288.1,279.7 290.3,279.7 		"/>
		<polyline class="st11" points="296.8,279.1 296.2,279.7 295.1,279.7 294.6,279.1 294.6,277 295.1,276.4 296.2,276.4 296.8,277 		
			"/>
		<polyline class="st11" points="297.9,279.7 297.9,276.4 300,276.4 300,279.7 297.9,279.7 		"/>
		<polyline class="st11" points="301.1,279.7 301.1,276.4 302.7,276.4 303.3,277 303.3,277.5 302.7,278 301.1,278 		"/>
		<line class="st11" x1="301.7" y1="278" x2="303.3" y2="279.7"/>
		<polyline class="st11" points="304.4,279.7 304.4,276.4 306.5,279.7 306.5,276.4 		"/>
		<polyline class="st11" points="307.6,279.7 307.6,276.4 309.8,276.4 		"/>
		<line class="st11" x1="307.6" y1="278" x2="308.7" y2="278"/>
		<line class="st11" x1="307.6" y1="279.7" x2="309.8" y2="279.7"/>
		<polyline class="st11" points="310.9,279.7 310.9,276.4 312.5,276.4 313.1,277 313.1,277.5 312.5,278 310.9,278 		"/>
		<line class="st11" x1="311.4" y1="278" x2="313.1" y2="279.7"/>
		<polyline class="st11" points="314.1,279.1 314.7,279.7 315.8,279.7 316.3,279.1 314.1,277 314.7,276.4 315.8,276.4 316.3,277 		
			"/>
		<line class="st11" x1="38.1" y1="285.1" x2="39.2" y2="285.1"/>
		<line class="st11" x1="38.6" y1="285.1" x2="38.6" y2="288.4"/>
		<line class="st11" x1="38.1" y1="288.4" x2="39.2" y2="288.4"/>
		<line class="st11" x1="40.3" y1="285.1" x2="42.4" y2="285.1"/>
		<line class="st11" x1="41.4" y1="285.1" x2="41.4" y2="288.4"/>
		<polyline class="st11" points="43.5,288.4 43.5,285.1 45.7,285.1 		"/>
		<line class="st11" x1="43.5" y1="286.7" x2="44.6" y2="286.7"/>
		<line class="st11" x1="43.5" y1="288.4" x2="45.7" y2="288.4"/>
		<polyline class="st11" points="46.8,288.4 46.8,285.1 47.9,287.3 49,285.1 49,288.4 		"/>
		<polyline class="st11" points="53.3,285.6 53.8,285.1 54.9,285.1 55.5,285.6 55.5,286.2 54.9,286.7 54.4,286.7 		"/>
		<polyline class="st11" points="54.9,286.7 55.5,287.3 55.5,287.8 54.9,288.4 53.8,288.4 53.3,287.8 		"/>
		<polyline class="st11" points="86.8,288.4 86.8,285.1 88.5,285.1 89,285.6 89,286.2 88.5,286.7 86.8,286.7 		"/>
		<line class="st11" x1="90.1" y1="285.1" x2="91.2" y2="285.1"/>
		<line class="st11" x1="90.6" y1="285.1" x2="90.6" y2="288.4"/>
		<line class="st11" x1="90.1" y1="288.4" x2="91.2" y2="288.4"/>
		<polyline class="st11" points="94.4,287.8 93.9,288.4 92.8,288.4 92.3,287.8 92.3,285.6 92.8,285.1 93.9,285.1 94.4,285.6 		"/>
		<line class="st11" x1="95.5" y1="288.4" x2="95.5" y2="285.1"/>
		<polyline class="st11" points="97.7,285.1 96.1,286.7 95.5,286.7 		"/>
		<line class="st11" x1="96.1" y1="286.7" x2="97.7" y2="288.4"/>
		<polyline class="st11" points="98.8,288.4 98.8,285.1 101,285.1 		"/>
		<line class="st11" x1="98.8" y1="286.7" x2="99.9" y2="286.7"/>
		<line class="st11" x1="98.8" y1="288.4" x2="101" y2="288.4"/>
		<line class="st11" x1="102" y1="285.1" x2="104.2" y2="285.1"/>
		<line class="st11" x1="103.1" y1="285.1" x2="103.1" y2="288.4"/>
		<polyline class="st11" points="135.6,285.6 136.1,285.1 136.1,288.4 		"/>
		<line class="st11" x1="135.6" y1="288.4" x2="136.7" y2="288.4"/>
		<line class="st11" x1="137.7" y1="286.2" x2="138.3" y2="285.1"/>
		<line class="st11" x1="138.8" y1="285.1" x2="138.3" y2="286.2"/>
		<line class="st11" x1="143.2" y1="288.4" x2="145.3" y2="285.1"/>
		<line class="st11" x1="143.2" y1="285.1" x2="145.3" y2="288.4"/>
		<polyline class="st11" points="149.7,285.6 150.2,285.1 150.2,288.4 		"/>
		<line class="st11" x1="149.7" y1="288.4" x2="150.8" y2="288.4"/>
		<line class="st11" x1="151.9" y1="286.2" x2="152.4" y2="285.1"/>
		<line class="st11" x1="152.9" y1="285.1" x2="152.4" y2="286.2"/>
		<polyline class="st11" points="186.5,288.4 185.9,287.8 185.9,285.6 186.5,285.1 187,285.1 187.6,285.6 187.6,287.8 187,288.4 
			186.5,288.4 		"/>
		<line class="st11" x1="188.7" y1="288.4" x2="188.7" y2="287.8"/>
		<polyline class="st11" points="190.3,288.4 189.7,287.8 189.7,285.6 190.3,285.1 190.8,285.1 191.4,285.6 191.4,287.8 
			190.8,288.4 190.3,288.4 		"/>
		<polyline class="st11" points="192.5,286.7 194.1,286.7 194.6,287.3 194.6,287.8 194.1,288.4 193,288.4 192.5,287.8 192.5,286.2 
			193.5,285.1 194.1,285.1 		"/>
		<polyline class="st11" points="195.7,285.6 196.3,285.1 197.3,285.1 197.9,285.6 197.9,286.2 197.3,286.7 196.8,286.7 		"/>
		<polyline class="st11" points="197.3,286.7 197.9,287.3 197.9,287.8 197.3,288.4 196.3,288.4 195.7,287.8 		"/>
		<line class="st11" x1="199" y1="286.2" x2="199.5" y2="285.1"/>
		<line class="st11" x1="200.1" y1="285.1" x2="199.5" y2="286.2"/>
		<polyline class="st11" points="222.4,288.4 222.4,285.1 224,285.1 224.6,285.6 224.6,286.2 224,286.7 222.4,286.7 		"/>
		<line class="st11" x1="225.6" y1="285.1" x2="226.7" y2="285.1"/>
		<line class="st11" x1="226.2" y1="285.1" x2="226.2" y2="288.4"/>
		<line class="st11" x1="225.6" y1="288.4" x2="226.7" y2="288.4"/>
		<polyline class="st11" points="230,287.8 229.4,288.4 228.4,288.4 227.8,287.8 227.8,285.6 228.4,285.1 229.4,285.1 230,285.6 		
			"/>
		<line class="st11" x1="231.1" y1="288.4" x2="231.1" y2="285.1"/>
		<polyline class="st11" points="233.2,285.1 231.6,286.7 231.1,286.7 		"/>
		<line class="st11" x1="231.6" y1="286.7" x2="233.2" y2="288.4"/>
		<polyline class="st11" points="234.3,288.4 234.3,285.1 236.5,285.1 		"/>
		<line class="st11" x1="234.3" y1="286.7" x2="235.4" y2="286.7"/>
		<line class="st11" x1="234.3" y1="288.4" x2="236.5" y2="288.4"/>
		<line class="st11" x1="237.6" y1="285.1" x2="239.8" y2="285.1"/>
		<line class="st11" x1="238.7" y1="285.1" x2="238.7" y2="288.4"/>
		<polyline class="st11" points="240.9,287.8 241.4,288.4 242.5,288.4 243,287.8 240.9,285.6 241.4,285.1 242.5,285.1 243,285.6 		
			"/>
		<polyline class="st11" points="247.4,288.4 247.4,285.1 249.5,285.1 		"/>
		<line class="st11" x1="247.4" y1="286.7" x2="248.5" y2="286.7"/>
		<polyline class="st11" points="250.6,285.1 250.6,287.8 251.2,288.4 252.2,288.4 252.8,287.8 252.8,285.1 		"/>
		<polyline class="st11" points="253.9,285.1 253.9,288.4 256.1,288.4 		"/>
		<polyline class="st11" points="257.1,285.1 257.1,288.4 259.3,288.4 		"/>
		<polyline class="st11" points="260.4,285.1 261.5,286.7 261.5,288.4 		"/>
		<line class="st11" x1="261.5" y1="286.7" x2="262.6" y2="285.1"/>
		<polyline class="st11" points="266.9,285.1 268,288.4 268.5,286.7 269.1,288.4 270.2,285.1 		"/>
		<polyline class="st11" points="271.3,288.4 271.3,285.1 273.4,285.1 		"/>
		<line class="st11" x1="271.3" y1="286.7" x2="272.3" y2="286.7"/>
		<line class="st11" x1="271.3" y1="288.4" x2="273.4" y2="288.4"/>
		<polyline class="st11" points="274.5,285.1 274.5,288.4 276.7,288.4 		"/>
		<polyline class="st11" points="277.8,288.4 279.4,288.4 279.9,287.8 279.9,285.6 279.4,285.1 277.8,285.1 		"/>
		<line class="st11" x1="278.3" y1="285.1" x2="278.3" y2="288.4"/>
		<polyline class="st11" points="281,288.4 281,285.1 283.2,285.1 		"/>
		<line class="st11" x1="281" y1="286.7" x2="282.1" y2="286.7"/>
		<line class="st11" x1="281" y1="288.4" x2="283.2" y2="288.4"/>
		<polyline class="st11" points="284.3,288.4 285.9,288.4 286.5,287.8 286.5,285.6 285.9,285.1 284.3,285.1 		"/>
		<line class="st11" x1="284.8" y1="285.1" x2="284.8" y2="288.4"/>
		<line class="st11" x1="290.8" y1="285.1" x2="293" y2="285.1"/>
		<line class="st11" x1="291.9" y1="285.1" x2="291.9" y2="288.4"/>
		<polyline class="st11" points="294.1,288.4 294.1,285.1 296.2,285.1 296.2,288.4 294.1,288.4 		"/>
		<polyline class="st11" points="300.6,288.4 300.6,285.1 302.7,285.1 		"/>
		<line class="st11" x1="300.6" y1="286.7" x2="301.7" y2="286.7"/>
		<polyline class="st11" points="303.8,288.4 303.8,285.1 305.5,285.1 306,285.6 306,286.2 305.5,286.7 303.8,286.7 		"/>
		<line class="st11" x1="304.4" y1="286.7" x2="306" y2="288.4"/>
		<polyline class="st11" points="307.1,288.4 307.1,287.3 308.2,285.1 309.3,287.3 309.3,288.4 		"/>
		<line class="st11" x1="307.1" y1="287.3" x2="309.3" y2="287.3"/>
		<polyline class="st11" points="310.4,288.4 310.4,285.1 311.4,287.3 312.5,285.1 312.5,288.4 		"/>
		<polyline class="st11" points="313.6,288.4 313.6,285.1 315.8,285.1 		"/>
		<line class="st11" x1="313.6" y1="286.7" x2="314.7" y2="286.7"/>
		<line class="st11" x1="313.6" y1="288.4" x2="315.8" y2="288.4"/>
		<line class="st11" x1="38.1" y1="293.8" x2="39.2" y2="293.8"/>
		<line class="st11" x1="38.6" y1="293.8" x2="38.6" y2="297.1"/>
		<line class="st11" x1="38.1" y1="297.1" x2="39.2" y2="297.1"/>
		<line class="st11" x1="40.3" y1="293.8" x2="42.4" y2="293.8"/>
		<line class="st11" x1="41.4" y1="293.8" x2="41.4" y2="297.1"/>
		<polyline class="st11" points="43.5,297.1 43.5,293.8 45.7,293.8 		"/>
		<line class="st11" x1="43.5" y1="295.4" x2="44.6" y2="295.4"/>
		<line class="st11" x1="43.5" y1="297.1" x2="45.7" y2="297.1"/>
		<polyline class="st11" points="46.8,297.1 46.8,293.8 47.9,296 49,293.8 49,297.1 		"/>
		<polyline class="st11" points="55.5,296 53.3,296 54.9,293.8 54.9,297.1 		"/>
		<polyline class="st11" points="84.1,297.1 84.1,293.8 85.2,296 86.3,293.8 86.3,297.1 		"/>
		<line class="st11" x1="87.4" y1="293.8" x2="88.5" y2="293.8"/>
		<line class="st11" x1="87.9" y1="293.8" x2="87.9" y2="297.1"/>
		<line class="st11" x1="87.4" y1="297.1" x2="88.5" y2="297.1"/>
		<polyline class="st11" points="89.5,297.1 91.2,297.1 91.7,296.5 91.7,294.3 91.2,293.8 89.5,293.8 		"/>
		<line class="st11" x1="90.1" y1="293.8" x2="90.1" y2="297.1"/>
		<line class="st11" x1="92.8" y1="295.4" x2="95" y2="295.4"/>
		<polyline class="st11" points="96.1,297.1 96.1,293.8 97.7,293.8 98.2,294.3 98.2,294.9 97.7,295.4 96.1,295.4 		"/>
		<line class="st11" x1="96.6" y1="295.4" x2="98.2" y2="297.1"/>
		<polyline class="st11" points="99.3,297.1 99.3,296 100.4,293.8 101.5,296 101.5,297.1 		"/>
		<line class="st11" x1="99.3" y1="296" x2="101.5" y2="296"/>
		<line class="st11" x1="102.6" y1="293.8" x2="103.7" y2="293.8"/>
		<line class="st11" x1="103.1" y1="293.8" x2="103.1" y2="297.1"/>
		<line class="st11" x1="102.6" y1="297.1" x2="103.7" y2="297.1"/>
		<polyline class="st11" points="104.7,293.8 104.7,297.1 106.9,297.1 		"/>
		<polyline class="st11" points="134.5,294.3 135,293.8 136.1,293.8 136.7,294.3 136.7,294.9 136.1,295.4 135,295.4 134.5,296 
			134.5,297.1 136.7,297.1 		"/>
		<line class="st11" x1="137.7" y1="294.9" x2="138.3" y2="293.8"/>
		<line class="st11" x1="138.8" y1="293.8" x2="138.3" y2="294.9"/>
		<line class="st11" x1="143.2" y1="297.1" x2="145.3" y2="293.8"/>
		<line class="st11" x1="143.2" y1="293.8" x2="145.3" y2="297.1"/>
		<polyline class="st11" points="149.7,294.3 150.2,293.8 151.3,293.8 151.9,294.3 151.9,294.9 151.3,295.4 150.2,295.4 149.7,296 
			149.7,297.1 151.9,297.1 		"/>
		<line class="st11" x1="152.9" y1="294.9" x2="153.5" y2="293.8"/>
		<line class="st11" x1="154" y1="293.8" x2="153.5" y2="294.9"/>
		<polyline class="st11" points="186.8,297.1 186.2,296.5 186.2,294.3 186.8,293.8 187.3,293.8 187.8,294.3 187.8,296.5 
			187.3,297.1 186.8,297.1 		"/>
		<line class="st11" x1="188.9" y1="297.1" x2="188.9" y2="296.5"/>
		<polyline class="st11" points="190,294.3 190.6,293.8 190.6,297.1 		"/>
		<line class="st11" x1="190" y1="297.1" x2="191.1" y2="297.1"/>
		<polyline class="st11" points="192.2,294.3 192.7,293.8 193.8,293.8 194.4,294.3 194.4,294.9 193.8,295.4 192.7,295.4 192.2,296 
			192.2,297.1 194.4,297.1 		"/>
		<polyline class="st11" points="195.4,296.5 196,297.1 197.1,297.1 197.6,296.5 197.6,295.4 197.1,294.9 195.4,294.9 195.4,293.8 
			197.6,293.8 		"/>
		<line class="st11" x1="198.7" y1="294.9" x2="199.2" y2="293.8"/>
		<line class="st11" x1="199.8" y1="293.8" x2="199.2" y2="294.9"/>
		<polyline class="st11" points="234.9,297.1 234.9,293.8 237,293.8 		"/>
		<line class="st11" x1="234.9" y1="295.4" x2="236" y2="295.4"/>
		<polyline class="st11" points="238.1,293.8 238.1,296.5 238.7,297.1 239.8,297.1 240.3,296.5 240.3,293.8 		"/>
		<polyline class="st11" points="241.4,293.8 241.4,297.1 243.6,297.1 		"/>
		<polyline class="st11" points="244.6,293.8 244.6,297.1 246.8,297.1 		"/>
		<polyline class="st11" points="247.9,293.8 249,295.4 249,297.1 		"/>
		<line class="st11" x1="249" y1="295.4" x2="250.1" y2="293.8"/>
		<polyline class="st11" points="254.4,293.8 255.5,297.1 256.1,295.4 256.6,297.1 257.7,293.8 		"/>
		<polyline class="st11" points="258.8,297.1 258.8,293.8 260.9,293.8 		"/>
		<line class="st11" x1="258.8" y1="295.4" x2="259.8" y2="295.4"/>
		<line class="st11" x1="258.8" y1="297.1" x2="260.9" y2="297.1"/>
		<polyline class="st11" points="262,293.8 262,297.1 264.2,297.1 		"/>
		<polyline class="st11" points="265.3,297.1 266.9,297.1 267.4,296.5 267.4,294.3 266.9,293.8 265.3,293.8 		"/>
		<line class="st11" x1="265.8" y1="293.8" x2="265.8" y2="297.1"/>
		<polyline class="st11" points="268.5,297.1 268.5,293.8 270.7,293.8 		"/>
		<line class="st11" x1="268.5" y1="295.4" x2="269.6" y2="295.4"/>
		<line class="st11" x1="268.5" y1="297.1" x2="270.7" y2="297.1"/>
		<polyline class="st11" points="271.8,297.1 273.4,297.1 274,296.5 274,294.3 273.4,293.8 271.8,293.8 		"/>
		<line class="st11" x1="272.3" y1="293.8" x2="272.3" y2="297.1"/>
		<line class="st11" x1="278.3" y1="293.8" x2="280.5" y2="293.8"/>
		<line class="st11" x1="279.4" y1="293.8" x2="279.4" y2="297.1"/>
		<polyline class="st11" points="281.6,297.1 281.6,293.8 283.7,293.8 283.7,297.1 281.6,297.1 		"/>
		<polyline class="st11" points="288.1,297.1 288.1,293.8 290.3,293.8 		"/>
		<line class="st11" x1="288.1" y1="295.4" x2="289.2" y2="295.4"/>
		<polyline class="st11" points="291.3,297.1 291.3,293.8 293,293.8 293.5,294.3 293.5,294.9 293,295.4 291.3,295.4 		"/>
		<line class="st11" x1="291.9" y1="295.4" x2="293.5" y2="297.1"/>
		<polyline class="st11" points="294.6,297.1 294.6,296 295.7,293.8 296.8,296 296.8,297.1 		"/>
		<line class="st11" x1="294.6" y1="296" x2="296.8" y2="296"/>
		<polyline class="st11" points="297.9,297.1 297.9,293.8 298.9,296 300,293.8 300,297.1 		"/>
		<polyline class="st11" points="301.1,297.1 301.1,293.8 303.3,293.8 		"/>
		<line class="st11" x1="301.1" y1="295.4" x2="302.2" y2="295.4"/>
		<line class="st11" x1="301.1" y1="297.1" x2="303.3" y2="297.1"/>
		<line class="st11" x1="22.4" y1="247.4" x2="320.8" y2="247.4"/>
		<line class="st11" x1="22.4" y1="255.5" x2="320.8" y2="255.5"/>
		<line class="st11" x1="22.4" y1="265.6" x2="320.8" y2="265.6"/>
		<line class="st11" x1="22.4" y1="274.2" x2="320.8" y2="274.2"/>
		<line class="st11" x1="22.4" y1="282.9" x2="320.8" y2="282.9"/>
		<line class="st11" x1="22.4" y1="291.6" x2="320.8" y2="291.6"/>
		<line class="st11" x1="22.4" y1="300.3" x2="320.8" y2="300.3"/>
		<polyline class="st11" points="22.4,247.4 22.4,255.5 22.4,265.6 22.4,300.3 		"/>
		<polyline class="st11" points="71.2,255.5 71.2,265.6 71.2,300.3 		"/>
		<polyline class="st11" points="119.9,255.5 119.9,265.6 119.9,300.3 		"/>
		<polyline class="st11" points="168.6,255.5 168.6,265.6 168.6,300.3 		"/>
		<polyline class="st11" points="217.4,255.5 217.4,265.6 217.4,300.3 		"/>
		<polyline class="st11" points="320.8,247.4 395.3,247.4 320.8,247.4 395.3,247.4 320.8,247.4 320.8,300.3 395.3,300.3 
			395.3,247.4 320.8,247.4 320.8,255.5 320.8,265.6 320.8,300.3 		"/>
		<line class="st11" x1="320.8" y1="265.6" x2="395.3" y2="265.6"/>
		<line class="st11" x1="320.8" y1="255.5" x2="395.3" y2="255.5"/>
		<line class="st11" x1="322.8" y1="250" x2="325" y2="250"/>
		<line class="st11" x1="323.9" y1="250" x2="323.9" y2="253.2"/>
		<line class="st11" x1="326.1" y1="250" x2="327.2" y2="250"/>
		<line class="st11" x1="326.6" y1="250" x2="326.6" y2="253.2"/>
		<line class="st11" x1="326.1" y1="253.2" x2="327.2" y2="253.2"/>
		<line class="st11" x1="328.2" y1="250" x2="330.4" y2="249.9"/>
		<line class="st11" x1="329.3" y1="250" x2="329.4" y2="253.2"/>
		<polyline class="st11" points="331.5,249.9 331.5,253.2 333.7,253.2 		"/>
		<polyline class="st11" points="334.8,253.2 334.8,249.9 336.9,249.9 		"/>
		<line class="st11" x1="334.8" y1="251.5" x2="335.9" y2="251.5"/>
		<line class="st11" x1="334.8" y1="253.2" x2="337" y2="253.2"/>
		<line class="st11" x1="338" y1="251" x2="338" y2="251.5"/>
		<line class="st11" x1="338" y1="252.1" x2="338" y2="252.6"/>
		<polyline class="st12" points="323.5,270.8 323.5,267.5 325.7,267.5 		"/>
		<line class="st12" x1="323.5" y1="269.1" x2="324.6" y2="269.1"/>
		<polyline class="st12" points="326.8,270.8 326.8,267.5 328.9,267.5 		"/>
		<line class="st12" x1="326.8" y1="269.1" x2="327.9" y2="269.1"/>
		<line class="st12" x1="326.8" y1="270.8" x2="328.9" y2="270.8"/>
		<polyline class="st12" points="330,270.8 330,267.5 332.2,270.8 332.2,267.5 		"/>
		<polyline class="st12" points="335.5,270.2 334.9,270.8 333.8,270.8 333.3,270.2 333.3,268 333.8,267.5 334.9,267.5 335.5,268 		
			"/>
		<polyline class="st12" points="336.5,270.8 336.5,267.5 338.7,267.5 		"/>
		<line class="st12" x1="336.5" y1="269.1" x2="337.6" y2="269.1"/>
		<line class="st12" x1="336.5" y1="270.8" x2="338.7" y2="270.8"/>
		<polyline class="st12" points="343.1,270.8 344.7,270.8 345.2,270.2 345.2,268 344.7,267.5 343.1,267.5 		"/>
		<line class="st12" x1="343.6" y1="267.5" x2="343.6" y2="270.8"/>
		<line class="st12" x1="346.3" y1="267.5" x2="347.4" y2="267.5"/>
		<line class="st12" x1="346.9" y1="267.5" x2="346.9" y2="270.8"/>
		<line class="st12" x1="346.3" y1="270.8" x2="347.4" y2="270.8"/>
		<polyline class="st12" points="348.5,270.2 349,270.8 350.1,270.8 350.7,270.2 348.5,268 349,267.5 350.1,267.5 350.7,268 		"/>
		<line class="st12" x1="351.7" y1="267.5" x2="353.9" y2="267.5"/>
		<line class="st12" x1="352.8" y1="267.5" x2="352.8" y2="270.8"/>
		<polyline class="st12" points="355,270.8 355,267.5 356.6,267.5 357.2,268 357.2,268.6 356.6,269.1 355,269.1 		"/>
		<line class="st12" x1="355.5" y1="269.1" x2="357.2" y2="270.8"/>
		<line class="st12" x1="358.3" y1="267.5" x2="359.3" y2="267.5"/>
		<line class="st12" x1="358.8" y1="267.5" x2="358.8" y2="270.8"/>
		<line class="st12" x1="358.3" y1="270.8" x2="359.3" y2="270.8"/>
		<polyline class="st12" points="360.4,270.8 362.1,270.8 362.6,270.2 362.6,269.7 362.1,269.1 361,269.1 		"/>
		<polyline class="st12" points="362.1,269.1 362.6,268.6 362.6,268 362.1,267.5 360.4,267.5 		"/>
		<line class="st12" x1="361" y1="267.5" x2="361" y2="270.8"/>
		<polyline class="st12" points="363.7,267.5 363.7,270.2 364.2,270.8 365.3,270.8 365.9,270.2 365.9,267.5 		"/>
		<line class="st12" x1="366.9" y1="267.5" x2="369.1" y2="267.5"/>
		<line class="st12" x1="368" y1="267.5" x2="368" y2="270.8"/>
		<polyline class="st12" points="370.2,270.8 370.2,267.5 372.4,267.5 372.4,270.8 370.2,270.8 		"/>
		<polyline class="st12" points="373.5,270.8 373.5,267.5 375.1,267.5 375.6,268 375.6,268.6 375.1,269.1 373.5,269.1 		"/>
		<line class="st12" x1="374" y1="269.1" x2="375.6" y2="270.8"/>
		<polyline class="st12" points="376.7,270.2 377.3,270.8 378.3,270.8 378.9,270.2 376.7,268 377.3,267.5 378.3,267.5 378.9,268 		
			"/>
		<polyline class="st11" points="323,261.7 323.6,262.2 324.7,262.2 325.2,261.6 323,259.5 323.6,258.9 324.7,258.9 325.2,259.5 		
			"/>
		<polyline class="st11" points="328.5,261.6 327.9,262.2 326.8,262.2 326.3,261.6 326.3,259.5 326.8,258.9 327.9,258.9 
			328.4,259.5 		"/>
		<polyline class="st11" points="329.5,262.2 329.5,261.1 330.6,258.9 331.7,261.1 331.7,262.2 		"/>
		<line class="st11" x1="329.5" y1="261.1" x2="331.7" y2="261.1"/>
		<polyline class="st11" points="332.8,258.9 332.8,262.2 335,262.1 		"/>
		<polyline class="st11" points="336.1,262.1 336.1,258.9 338.2,258.9 		"/>
		<line class="st11" x1="336.1" y1="260.5" x2="337.2" y2="260.5"/>
		<line class="st11" x1="336.1" y1="262.1" x2="338.2" y2="262.1"/>
		<line class="st11" x1="339.3" y1="259.9" x2="339.3" y2="260.5"/>
		<line class="st11" x1="339.3" y1="261" x2="339.3" y2="261.6"/>
		<polyline class="st11" points="343.7,259.4 344.2,258.8 344.2,262.1 		"/>
		<line class="st11" x1="343.7" y1="262.1" x2="344.8" y2="262.1"/>
		<line class="st11" x1="345.8" y1="262.1" x2="348" y2="258.8"/>
		<polyline class="st11" points="349.1,259.3 349.6,258.8 350.7,258.8 351.3,259.3 351.3,259.9 350.7,260.4 349.6,260.4 349.1,261 
			349.1,262.1 351.3,262.1 		"/>
		<line class="st11" x1="352.3" y1="259.9" x2="352.9" y2="258.8"/>
		<line class="st11" x1="353.4" y1="258.8" x2="352.9" y2="259.9"/>
		<line class="st11" x1="357.8" y1="259.9" x2="359.9" y2="259.8"/>
		<line class="st11" x1="360" y1="260.9" x2="357.8" y2="260.9"/>
		<polyline class="st11" points="364.3,259.3 364.8,258.7 364.8,262 		"/>
		<line class="st11" x1="364.3" y1="262" x2="365.4" y2="262"/>
		<line class="st11" x1="366.5" y1="259.8" x2="367" y2="258.7"/>
		<line class="st11" x1="371.4" y1="260.3" x2="373.5" y2="260.3"/>
		<polyline class="st11" points="378.4,261.9 377.9,261.4 377.9,259.2 378.4,258.7 378.9,258.7 379.5,259.2 379.5,261.4 379,261.9 
			378.4,261.9 		"/>
		<line class="st11" x1="380.6" y1="259.7" x2="381.1" y2="258.6"/>
		<line class="st11" x1="381.7" y1="258.6" x2="381.1" y2="259.7"/>
		<polyline class="st11" points="327.8,276.4 328.4,276.4 329.5,275.3 329.5,273.7 328.9,273.1 327.8,273.1 327.3,273.7 
			327.3,274.2 327.8,274.8 329.5,274.8 		"/>
		<polyline class="st11" points="331.1,276.4 330.6,275.8 330.6,273.7 331.1,273.1 331.6,273.1 332.2,273.7 332.2,275.8 
			331.6,276.4 331.1,276.4 		"/>
		<polyline class="st11" points="333.3,273.7 333.8,273.1 334.9,273.1 335.4,273.7 335.4,274.2 334.9,274.8 333.8,274.8 
			333.3,275.3 333.3,276.4 335.4,276.4 		"/>
		<polyline class="st11" points="339.8,275.8 340.3,276.4 341.4,276.4 342,275.8 339.8,273.7 340.3,273.1 341.4,273.1 342,273.7 		
			"/>
		<polyline class="st11" points="343,273.1 344.1,276.4 344.7,274.8 345.2,276.4 346.3,273.1 		"/>
		<polyline class="st11" points="350.6,273.7 351.2,273.1 352.3,273.1 352.8,273.7 352.8,274.2 352.3,274.8 351.2,274.8 
			350.6,275.3 350.6,276.4 352.8,276.4 		"/>
		<polyline class="st11" points="353.9,276.4 353.9,273.1 356.1,276.4 356.1,273.1 		"/>
		<polyline class="st11" points="357.2,276.4 358.8,276.4 359.3,275.8 359.3,273.7 358.8,273.1 357.2,273.1 		"/>
		<line class="st11" x1="357.7" y1="273.1" x2="357.7" y2="276.4"/>
		<polyline class="st11" points="363.7,276.4 363.7,273.1 365.3,273.1 365.8,273.7 365.8,274.2 365.3,274.8 363.7,274.8 		"/>
		<polyline class="st11" points="366.9,273.1 366.9,276.4 369.1,276.4 		"/>
		<polyline class="st11" points="370.2,276.4 370.2,275.3 371.3,273.1 372.4,275.3 372.4,276.4 		"/>
		<line class="st11" x1="370.2" y1="275.3" x2="372.4" y2="275.3"/>
		<polyline class="st11" points="375.6,275.8 375.1,276.4 374,276.4 373.4,275.8 373.4,273.7 374,273.1 375.1,273.1 375.6,273.7 		
			"/>
		<polyline class="st11" points="376.7,276.4 376.7,273.1 378.9,273.1 		"/>
		<line class="st11" x1="376.7" y1="274.8" x2="377.8" y2="274.8"/>
		<line class="st11" x1="376.7" y1="276.4" x2="378.9" y2="276.4"/>
		<polyline class="st11" points="327.3,281.8 327.3,278.5 328.9,278.5 329.5,279.1 329.5,279.6 328.9,280.2 327.3,280.2 		"/>
		<polyline class="st11" points="330.6,281.8 330.6,278.5 332.7,278.5 332.7,281.8 330.6,281.8 		"/>
		<polyline class="st11" points="333.8,281.8 333.8,278.5 334.9,280.7 336,278.5 336,281.8 		"/>
		<polyline class="st11" points="337.1,281.8 337.1,278.5 338.7,278.5 339.3,279.1 339.3,279.6 338.7,280.2 337.1,280.2 		"/>
		<polyline class="st11" points="340.3,281.8 340.3,280.7 341.4,278.5 342.5,280.7 342.5,281.8 		"/>
		<line class="st11" x1="340.3" y1="280.7" x2="342.5" y2="280.7"/>
		<polyline class="st11" points="343.6,281.8 343.6,278.5 345.8,281.8 345.8,278.5 		"/>
		<polyline class="st11" points="346.9,281.8 346.9,278.5 349,278.5 349,281.8 346.9,281.8 		"/>
		<polyline class="st11" points="353.4,281.8 355,281.8 355.5,281.3 355.5,280.7 355,280.2 353.9,280.2 		"/>
		<polyline class="st11" points="355,280.2 355.5,279.6 355.5,279.1 355,278.5 353.4,278.5 		"/>
		<line class="st11" x1="353.9" y1="278.5" x2="353.9" y2="281.8"/>
		<polyline class="st11" points="356.6,281.8 356.6,278.5 358.8,278.5 		"/>
		<line class="st11" x1="356.6" y1="280.2" x2="357.7" y2="280.2"/>
		<line class="st11" x1="356.6" y1="281.8" x2="358.8" y2="281.8"/>
		<polyline class="st11" points="359.9,281.8 359.9,280.7 361,278.5 362.1,280.7 362.1,281.8 		"/>
		<line class="st11" x1="359.9" y1="280.7" x2="362.1" y2="280.7"/>
		<polyline class="st11" points="365.3,281.3 364.8,281.8 363.7,281.8 363.1,281.3 363.1,279.1 363.7,278.5 364.8,278.5 
			365.3,279.1 		"/>
		<line class="st11" x1="366.4" y1="281.8" x2="366.4" y2="278.5"/>
		<line class="st11" x1="366.4" y1="280.2" x2="368.6" y2="280.2"/>
		<line class="st11" x1="368.6" y1="278.5" x2="368.6" y2="281.8"/>
		<polyline class="st11" points="370.2,281.3 370.2,281.8 369.7,282.4 		"/>
		<polyline class="st11" points="374.5,281.8 374.5,278.5 376.7,278.5 		"/>
		<line class="st11" x1="374.5" y1="280.2" x2="375.6" y2="280.2"/>
		<polyline class="st11" points="377.8,278.5 377.8,281.8 380,281.8 		"/>
		<polyline class="st11" points="327.3,284.5 327.8,284 328.9,284 329.5,284.5 329.5,285.1 328.9,285.6 328.4,285.6 		"/>
		<polyline class="st11" points="328.9,285.6 329.5,286.1 329.5,286.7 328.9,287.2 327.8,287.2 327.3,286.7 		"/>
		<polyline class="st11" points="330.6,284.5 331.1,284 332.2,284 332.7,284.5 332.7,285.1 332.2,285.6 331.6,285.6 		"/>
		<polyline class="st11" points="332.2,285.6 332.7,286.1 332.7,286.7 332.2,287.2 331.1,287.2 330.6,286.7 		"/>
		<polyline class="st11" points="334.4,287.2 333.8,286.7 333.8,284.5 334.4,284 334.9,284 335.4,284.5 335.4,286.7 334.9,287.2 
			334.4,287.2 		"/>
		<polyline class="st11" points="336.5,285.6 338.2,285.6 338.7,286.1 338.7,286.7 338.2,287.2 337.1,287.2 336.5,286.7 
			336.5,285.1 337.6,284 338.2,284 		"/>
		<polyline class="st11" points="340.3,287.2 340.9,287.2 342,286.1 342,284.5 341.4,284 340.3,284 339.8,284.5 339.8,285.1 
			340.3,285.6 342,285.6 		"/>
		<polyline class="st11" points="327.3,292.7 327.3,289.4 328.9,289.4 329.5,290 329.5,290.5 328.9,291 327.3,291 		"/>
		<line class="st11" x1="330.6" y1="292.7" x2="330.6" y2="289.4"/>
		<line class="st11" x1="330.6" y1="291" x2="332.7" y2="291"/>
		<line class="st11" x1="332.7" y1="289.4" x2="332.7" y2="292.7"/>
		<polyline class="st11" points="333.8,292.7 333.8,289.4 336,289.4 336,292.7 333.8,292.7 		"/>
		<polyline class="st11" points="337.1,292.7 337.1,289.4 339.3,292.7 339.3,289.4 		"/>
		<polyline class="st11" points="340.3,292.7 340.3,289.4 342.5,289.4 		"/>
		<line class="st11" x1="340.3" y1="291" x2="341.4" y2="291"/>
		<line class="st11" x1="340.3" y1="292.7" x2="342.5" y2="292.7"/>
		<line class="st11" x1="343.6" y1="290.5" x2="343.6" y2="291"/>
		<line class="st11" x1="343.6" y1="291.6" x2="343.6" y2="292.1"/>
		<polyline class="st11" points="349,289.4 347.9,290.5 347.9,291.6 349,292.7 		"/>
		<polyline class="st11" points="350.6,292.7 351.2,292.7 352.3,291.6 352.3,290 351.7,289.4 350.6,289.4 350.1,290 350.1,290.5 
			350.6,291 352.3,291 		"/>
		<polyline class="st11" points="353.4,292.1 353.9,292.7 355,292.7 355.5,292.1 355.5,291 355,290.5 353.4,290.5 353.4,289.4 
			355.5,289.4 		"/>
		<polyline class="st11" points="358.8,291.6 356.6,291.6 358.2,289.4 358.2,292.7 		"/>
		<polyline class="st11" points="359.9,289.4 361,290.5 361,291.6 359.9,292.7 		"/>
		<polyline class="st11" points="365.3,290 365.8,289.4 366.9,289.4 367.5,290 367.5,290.5 366.9,291 365.8,291 365.3,291.6 
			365.3,292.7 367.5,292.7 		"/>
		<polyline class="st11" points="368.6,289.4 370.7,289.4 369.1,292.7 		"/>
		<polyline class="st11" points="374,291.6 371.8,291.6 373.4,289.4 373.4,292.7 		"/>
		<line class="st11" x1="375.1" y1="291" x2="377.3" y2="291"/>
		<polyline class="st11" points="378.9,292.7 379.4,292.7 380.5,291.6 380.5,290 380,289.4 378.9,289.4 378.3,290 378.3,290.5 
			378.9,291 380.5,291 		"/>
		<polyline class="st11" points="381.6,289.4 383.8,289.4 382.1,292.7 		"/>
		<polyline class="st11" points="384.9,291 386.5,291 387,291.6 387,292.1 386.5,292.7 385.4,292.7 384.9,292.1 384.9,290.5 
			385.9,289.4 386.5,289.4 		"/>
		<polyline class="st11" points="388.1,290 388.7,289.4 389.7,289.4 390.3,290 390.3,290.5 389.7,291 389.2,291 		"/>
		<polyline class="st11" points="389.7,291 390.3,291.6 390.3,292.1 389.7,292.7 388.7,292.7 388.1,292.1 		"/>
		<polyline class="st11" points="327.3,298.1 327.3,294.8 329.5,294.8 		"/>
		<line class="st11" x1="327.3" y1="296.5" x2="328.4" y2="296.5"/>
		<polyline class="st11" points="330.6,298.1 330.6,297 331.6,294.8 332.7,297 332.7,298.1 		"/>
		<line class="st11" x1="330.6" y1="297" x2="332.7" y2="297"/>
		<line class="st11" x1="333.8" y1="298.1" x2="336" y2="294.8"/>
		<line class="st11" x1="333.8" y1="294.8" x2="336" y2="298.1"/>
		<line class="st11" x1="337.1" y1="295.9" x2="337.1" y2="296.5"/>
		<line class="st11" x1="337.1" y1="297" x2="337.1" y2="297.5"/>
		<polyline class="st11" points="342.5,294.8 341.4,295.9 341.4,297 342.5,298.1 		"/>
		<polyline class="st11" points="344.1,298.1 344.7,298.1 345.8,297 345.8,295.4 345.2,294.8 344.1,294.8 343.6,295.4 343.6,295.9 
			344.1,296.5 345.8,296.5 		"/>
		<polyline class="st11" points="346.9,297.5 347.4,298.1 348.5,298.1 349,297.5 349,296.5 348.5,295.9 346.9,295.9 346.9,294.8 
			349,294.8 		"/>
		<polyline class="st11" points="352.3,297 350.1,297 351.7,294.8 351.7,298.1 		"/>
		<polyline class="st11" points="353.4,294.8 354.5,295.9 354.5,297 353.4,298.1 		"/>
		<polyline class="st11" points="358.8,295.4 359.3,294.8 360.4,294.8 361,295.4 361,295.9 360.4,296.5 359.3,296.5 358.8,297 
			358.8,298.1 361,298.1 		"/>
		<polyline class="st11" points="364.2,297 362.1,297 363.7,294.8 363.7,298.1 		"/>
		<polyline class="st11" points="365.3,294.8 367.5,294.8 365.8,298.1 		"/>
		<line class="st11" x1="368.6" y1="296.5" x2="370.7" y2="296.5"/>
		<polyline class="st11" points="372.4,298.1 372.9,298.1 374,297 374,295.4 373.4,294.8 372.4,294.8 371.8,295.4 371.8,295.9 
			372.4,296.5 374,296.5 		"/>
		<polyline class="st11" points="375.1,294.8 377.3,294.8 375.6,298.1 		"/>
		<polyline class="st11" points="378.3,296.5 380,296.5 380.5,297 380.5,297.5 380,298.1 378.9,298.1 378.3,297.5 378.3,295.9 
			379.4,294.8 380,294.8 		"/>
		<polyline class="st11" points="383.8,297 381.6,297 383.2,294.8 383.2,298.1 		"/>
		<polyline class="st13" points="22.4,246.5 395.1,246.5 395.1,14.3 22.4,14.3 22.4,246.5 		"/>
		<polyline class="st11" points="342.7,253.2 344.3,253.2 344.8,252.6 344.8,250.5 344.3,249.9 342.7,249.9 		"/>
		<line class="st11" x1="343.2" y1="249.9" x2="343.2" y2="253.2"/>
		<polyline class="st11" points="347.5,251.5 348.1,252.1 348.1,252.6 347.5,253.2 346.5,253.2 345.9,252.6 345.9,252.1 
			346.5,251.5 347.5,251.5 348.1,251 348.1,250.5 347.5,249.9 346.5,249.9 345.9,250.5 345.9,251 346.5,251.5 		"/>
		<polyline class="st11" points="349.7,253.2 349.2,252.6 349.2,250.5 349.7,249.9 350.3,249.9 350.8,250.5 350.8,252.6 
			350.3,253.2 349.7,253.2 		"/>
		<line class="st11" x1="356.2" y1="252.6" x2="356.2" y2="250.5"/>
		<line class="st11" x1="357.3" y1="251.5" x2="355.1" y2="251.5"/>
		<polyline class="st11" points="361.7,253.2 363.3,253.2 363.8,252.6 363.8,250.5 363.3,249.9 361.7,249.9 		"/>
		<line class="st11" x1="362.2" y1="249.9" x2="362.2" y2="253.2"/>
		<polyline class="st11" points="366.5,251.5 367.1,252.1 367.1,252.6 366.5,253.2 365.5,253.2 364.9,252.6 364.9,252.1 
			365.5,251.5 366.5,251.5 367.1,251 367.1,250.5 366.5,249.9 365.5,249.9 364.9,250.5 364.9,251 365.5,251.5 		"/>
		<polyline class="st11" points="368.2,250.5 368.7,249.9 368.7,253.2 		"/>
		<line class="st11" x1="368.2" y1="253.2" x2="369.3" y2="253.2"/>
	</g>
	<ellipse class="st14" cx="208.4" cy="491.8" rx="208.4" ry="6.3"/>
</g>
<g id="objects">
	<path class="st1" d="M424.8,139"/>
</g>
<g id="_x3C_Layer_x3E_">
</g>
</svg>
