<?xml version="1.0" encoding="utf-8"?>
<!-- Generator: Adobe Illustrator 19.1.0, SVG Export Plug-In . SVG Version: 6.00 Build 0)  -->
<svg version="1.1" xmlns="http://www.w3.org/2000/svg" xmlns:xlink="http://www.w3.org/1999/xlink" x="0px" y="0px"
	 viewBox="0 0 417.9 501.7" style="enable-background:new 0 0 417.9 501.7;" xml:space="preserve">
<style type="text/css">
	.st0{fill:#E5E5E5;}
	.st1{fill:#CCCCCC;}
	.st2{fill:#334B4F;}
	.st3{fill:#3195AB;}
	.st4{fill:#353535;}
	.st5{fill:#383838;}
	.st6{opacity:0.12;}
	.st7{fill:#262626;}
	.st8{fill:#FFFFFF;}
	.st9{fill:#FFFFFF;stroke:#FFFFFF;stroke-width:0.2367;stroke-miterlimit:10;}
	.st10{fill:#BE384B;}
	.st11{fill:#1E6168;}
</style>
<g id="Layer_1">
	<path class="st0" d="M399.4,487c4,0,7.3,3.3,7.3,7.3v0c0,4-3.3,7.3-7.3,7.3"/>
	<ellipse class="st1" cx="208.9" cy="494.8" rx="208.9" ry="6.8"/>
	<rect x="7.4" y="10.2" class="st2" width="402.4" height="406.7"/>
	<polygon class="st3" points="407.5,413.4 7.4,416.8 353.4,358.7 409.8,10.2 	"/>
	<polygon class="st4" points="409.8,10.2 7.4,10.2 7.4,358 7.4,413.9 7.4,416.8 27,413.9 317.1,410.1 327.1,369.4 330.6,335.7 
		364.5,332 405.7,325.8 	"/>
	<polygon class="st5" points="7.4,416.8 7.4,10.2 409.8,10.2 211.9,213.5 	"/>
	<g>
		<g class="st6">
			<path class="st7" d="M137.6,62.5l27.4,0L162.6,73l-15,0l-1.2,5.7l14.6,0l-2.3,10.5l-14.6,0l-3.7,16.7l-12.4,0L137.6,62.5z"/>
			<path class="st7" d="M178.7,73.7c8,0,13,4.9,13,13c0,2.6-0.6,5.6-1,7l-18.8,0v0.5c0,0.8,1.4,3.9,5.9,3.9c2.2,0,4.6-0.7,6-1.8
				l3.4,7c-2.9,2.2-7.1,3.4-10.9,3.4c-9,0-14.8-5-14.8-13.6C161.5,83.5,168.2,73.7,178.7,73.7z M182,85.6c0-1.5-1.2-3.4-3.9-3.4
				c-2.9,0-4.5,2.5-4.9,4.2l8.7,0C182,86.2,182,85.8,182,85.6z"/>
			<path class="st7" d="M214,87.3c0.1-0.4,0.3-1.2,0.3-1.7c0-1.6-1.2-2.3-2.6-2.3c-2.1,0-3.6,1.4-4.6,2.7l-4.4,19.8l-11.1,0l7-31.4
				l11,0l-0.9,3.6c2-2.1,5-4.4,9.1-4.4c5.3,0,8.4,3,8.4,7c0,0.5-0.1,1.6-0.3,2.1l-5.1,23.1l-11,0L214,87.3z"/>
			<path class="st7" d="M245.6,73.7c5.5,0,9.6,2.2,11.6,4.9l-6.6,7.2c-0.9-1.4-2.5-2.3-4.5-2.3c-4,0-6.8,4-6.8,8.6
				c0,3.2,2.3,5,5.2,5c1.7,0,3.3-0.8,4.4-2l3.7,7.9c-2,1.9-5.5,3.8-10.1,3.8c-8.9,0-14.4-5.4-14.4-13.6
				C228,82.7,235.3,73.7,245.6,73.7z"/>
			<path class="st7" d="M273.7,73.7c8,0,13,4.9,13,13c0,2.6-0.6,5.6-1,7l-18.8,0v0.5c0,0.8,1.4,3.9,5.9,3.9c2.2,0,4.6-0.7,6-1.8
				l3.4,7c-2.9,2.2-7.1,3.4-10.9,3.4c-9,0-14.8-5-14.8-13.6C256.4,83.5,263.2,73.7,273.7,73.7z M277,85.6c0-1.5-1.2-3.4-3.9-3.4
				c-2.9,0-4.5,2.5-4.9,4.2l8.7,0C277,86.2,277,85.8,277,85.6z"/>
			<path class="st7" d="M103.6,101.8c11.2,0,15.7,7.7,16.7,14.6l-11.6,3c-0.4-3.7-2.3-6.7-5.7-6.7c-5.9,0-9.8,10-9.8,16.1
				c0,4.2,2.3,7.1,6.1,7.1c2.5,0,5.3-2,6.8-5.1l9.8,5.1c-4.2,7.5-10.7,10.8-17.1,10.8c-10.7,0-18.1-6.9-18.1-17.6
				C80.5,116.3,89,101.8,103.6,101.8z"/>
			<path class="st7" d="M134.8,113.7c9.7,0,14.5,5.8,14.5,13.7c0,9.4-6.7,19.2-17.4,19.2c-9.6,0-14.4-5.8-14.4-13.7
				C117.5,123.6,124.2,113.7,134.8,113.7z M134.3,123.4c-3.6,0-5.7,6-5.7,9.4c0,2.9,1.4,4.2,3.8,4.2c3.7,0,5.7-6,5.7-9.4
				C138.2,124.7,136.8,123.4,134.3,123.4z"/>
			<path class="st7" d="M188.8,127.3c0.1-0.3,0.3-1.2,0.3-1.7c0-1.4-1-2.3-2.5-2.3c-1.8,0-3.2,1.5-4.1,2.7l-4.4,19.8l-11,0l4.1-18.5
				c0.1-0.3,0.3-1.3,0.3-1.7c0-1.4-1-2.3-2.6-2.3c-1.8,0-3.2,1.6-4,2.7l-4.4,19.8l-11.1,0l7-31.4l11,0l-0.9,3.6
				c1.8-2.1,4.9-4.4,8.8-4.4c5.3,0,7.9,3.7,7.9,5.4v0.3c2.1-2.9,5.5-5.7,9.7-5.7c4.4,0,8.1,2.5,8.1,7c0,0.7-0.2,1.8-0.3,2.1
				l-5.1,23.1l-11,0L188.8,127.3z"/>
			<path class="st7" d="M209.6,157.8l-11,0l9.6-43.4l11,0l-0.8,3.4c2.5-3.1,4.9-4.2,7.7-4.2c6,0,9.6,4,9.6,11.9
				c0,8.6-4.7,21.1-14.8,21.1c-3.5,0-6.4-1.3-7.9-4.2L209.6,157.8z M220.4,123.4c-1.4,0-2.7,0.8-3.7,2.1l-2.1,9.2
				c0.8,1.4,2.2,2.2,3.8,2.2c3.7,0,5.8-5.7,5.8-9.4C224.3,125,222.7,123.4,220.4,123.4z"/>
			<path class="st7" d="M260.4,114.5l10.9,0l-7,31.4l-10.9,0l0.8-3.4c-2.4,3-4.8,4.2-7.7,4.2c-6,0-9.6-4.1-9.6-11.9
				c0-8.6,4.7-21.1,14.8-21.1c3.4,0,6.4,1.2,7.9,4.2L260.4,114.5z M252.1,137c1.4,0,2.7-0.8,3.8-2.1l2.1-9.3
				c-0.8-1.4-2.2-2.1-3.9-2.1c-3.7,0-5.8,5.7-5.8,9.4C248.2,135.3,249.9,137,252.1,137z"/>
			<path class="st7" d="M292.2,127.3c0.1-0.4,0.3-1.2,0.3-1.7c0-1.6-1.2-2.3-2.6-2.3c-2.1,0-3.6,1.4-4.6,2.7l-4.4,19.8l-11.1,0
				l7-31.4l11,0l-0.9,3.6c2-2.1,5-4.4,9.1-4.4c5.3,0,8.4,3,8.4,7c0,0.5-0.1,1.6-0.3,2.1l-5.1,23.1l-11,0L292.2,127.3z"/>
			<path class="st7" d="M308.2,148.9c1.3,0,2.1-0.5,2.7-1.4l0.9-1.5l-3.6-31.6l11.2,0l0.8,18.2l9-18.2l11.9,0l-19.9,35.4
				c-3.8,6.8-7.3,8.7-12.8,8.7c-2.3,0-4.7-0.3-6.1-0.9l3.5-9.2C306.3,148.8,307.3,148.9,308.2,148.9z"/>
		</g>
		<g>
			<g>
				<path class="st8" d="M140.6,53.5l27.4,0L165.6,64l-15,0l-1.2,5.7l14.6,0l-2.3,10.5l-14.6,0l-3.7,16.7l-12.4,0L140.6,53.5z"/>
				<path class="st8" d="M181.7,64.7c8,0,13,4.9,13,13c0,2.6-0.6,5.6-1,7l-18.8,0v0.5c0,0.8,1.4,3.9,5.9,3.9c2.2,0,4.6-0.7,6-1.8
					l3.4,7c-2.9,2.2-7.1,3.4-10.9,3.4c-9,0-14.8-5-14.8-13.6C164.5,74.5,171.2,64.7,181.7,64.7z M185,76.6c0-1.5-1.2-3.4-3.9-3.4
					c-2.9,0-4.5,2.5-4.9,4.2l8.7,0C185,77.2,185,76.8,185,76.6z"/>
				<path class="st8" d="M217,78.3c0.1-0.4,0.3-1.2,0.3-1.7c0-1.6-1.2-2.3-2.6-2.3c-2.1,0-3.6,1.4-4.6,2.7l-4.4,19.8l-11.1,0l7-31.4
					l11,0l-0.9,3.6c2-2.1,5-4.4,9.1-4.4c5.3,0,8.4,3,8.4,7c0,0.5-0.1,1.6-0.3,2.1l-5.1,23.1l-11,0L217,78.3z"/>
				<path class="st8" d="M248.6,64.7c5.5,0,9.6,2.2,11.6,4.9l-6.6,7.2c-0.9-1.4-2.5-2.3-4.5-2.3c-4,0-6.8,4-6.8,8.6
					c0,3.2,2.3,5,5.2,5c1.7,0,3.3-0.8,4.4-2l3.7,7.9c-2,1.9-5.5,3.8-10.1,3.8c-8.9,0-14.4-5.4-14.4-13.6
					C231,73.7,238.3,64.7,248.6,64.7z"/>
				<path class="st8" d="M276.7,64.7c8,0,13,4.9,13,13c0,2.6-0.6,5.6-1,7l-18.8,0v0.5c0,0.8,1.4,3.9,5.9,3.9c2.2,0,4.6-0.7,6-1.8
					l3.4,7c-2.9,2.2-7.1,3.4-10.9,3.4c-9,0-14.8-5-14.8-13.6C259.4,74.5,266.2,64.7,276.7,64.7z M280,76.6c0-1.5-1.2-3.4-3.9-3.4
					c-2.9,0-4.5,2.5-4.9,4.2l8.7,0C280,77.2,280,76.8,280,76.6z"/>
				<path class="st8" d="M106.6,92.8c11.2,0,15.7,7.7,16.7,14.6l-11.6,3c-0.4-3.7-2.3-6.7-5.7-6.7c-5.9,0-9.8,10-9.8,16.1
					c0,4.2,2.3,7.1,6.1,7.1c2.5,0,5.3-2,6.8-5.1l9.8,5.1c-4.2,7.5-10.7,10.8-17.1,10.8c-10.7,0-18.1-6.9-18.1-17.6
					C83.5,107.3,92,92.8,106.6,92.8z"/>
				<path class="st8" d="M137.8,104.7c9.7,0,14.5,5.8,14.5,13.7c0,9.4-6.7,19.2-17.4,19.2c-9.6,0-14.4-5.8-14.4-13.7
					C120.5,114.6,127.2,104.7,137.8,104.7z M137.3,114.4c-3.6,0-5.7,6-5.7,9.4c0,2.9,1.4,4.2,3.8,4.2c3.7,0,5.7-6,5.7-9.4
					C141.2,115.7,139.8,114.4,137.3,114.4z"/>
				<path class="st8" d="M191.8,118.3c0.1-0.3,0.3-1.2,0.3-1.7c0-1.4-1-2.3-2.5-2.3c-1.8,0-3.2,1.5-4.1,2.7l-4.4,19.8l-11,0
					l4.1-18.5c0.1-0.3,0.3-1.3,0.3-1.7c0-1.4-1-2.3-2.6-2.3c-1.8,0-3.2,1.6-4,2.7l-4.4,19.8l-11.1,0l7-31.4l11,0l-0.9,3.6
					c1.8-2.1,4.9-4.4,8.8-4.4c5.3,0,7.9,3.7,7.9,5.4v0.3c2.1-2.9,5.5-5.7,9.7-5.7c4.4,0,8.1,2.5,8.1,7c0,0.7-0.2,1.8-0.3,2.1
					l-5.1,23.1l-11,0L191.8,118.3z"/>
				<path class="st8" d="M212.6,148.8l-11,0l9.6-43.4l11,0l-0.8,3.4c2.5-3.1,4.9-4.2,7.7-4.2c6,0,9.6,4,9.6,11.9
					c0,8.6-4.7,21.1-14.8,21.1c-3.5,0-6.4-1.3-7.9-4.2L212.6,148.8z M223.4,114.4c-1.4,0-2.7,0.8-3.7,2.1l-2.1,9.2
					c0.8,1.4,2.2,2.2,3.8,2.2c3.7,0,5.8-5.7,5.8-9.4C227.3,116,225.7,114.4,223.4,114.4z"/>
				<path class="st8" d="M263.4,105.5l10.9,0l-7,31.4l-10.9,0l0.8-3.4c-2.4,3-4.8,4.2-7.7,4.2c-6,0-9.6-4.1-9.6-11.9
					c0-8.6,4.7-21.1,14.8-21.1c3.4,0,6.4,1.2,7.9,4.2L263.4,105.5z M255.1,128c1.4,0,2.7-0.8,3.8-2.1l2.1-9.3
					c-0.8-1.4-2.2-2.1-3.9-2.1c-3.7,0-5.8,5.7-5.8,9.4C251.2,126.3,252.9,128,255.1,128z"/>
				<path class="st8" d="M295.2,118.3c0.1-0.4,0.3-1.2,0.3-1.7c0-1.6-1.2-2.3-2.6-2.3c-2.1,0-3.6,1.4-4.6,2.7l-4.4,19.8l-11.1,0
					l7-31.4l11,0l-0.9,3.6c2-2.1,5-4.4,9.1-4.4c5.3,0,8.4,3,8.4,7c0,0.5-0.1,1.6-0.3,2.1l-5.1,23.1l-11,0L295.2,118.3z"/>
				<path class="st8" d="M311.2,139.9c1.3,0,2.1-0.5,2.7-1.4l0.9-1.5l-3.6-31.6l11.2,0l0.8,18.2l9-18.2l11.9,0l-19.9,35.4
					c-3.8,6.8-7.3,8.7-12.8,8.7c-2.3,0-4.7-0.3-6.1-0.9l3.5-9.2C309.3,139.8,310.3,139.9,311.2,139.9z"/>
			</g>
		</g>
	</g>
	<g>
		
			<image style="overflow:visible;opacity:0.41;" width="628" height="608" xlink:href="BACF28D6.png"  transform="matrix(0.24 0 0 0.24 50.7153 228.9849)">
		</image>
		<g>
			<g>
				<path class="st9" d="M181.4,236.3l0,2.5l-4.4,0.1l-1.3,1.4l-1.4-1.3l-6.9,0.1l-1.3,1.4l-1.4-1.3l-6.6,0.1l-1.5,1.5l-1.5-1.5
					l-6.7,0.1l-1.4,1.4l-1.4-1.4l-6.7,0.1l-1.4,1.5l-1.5-1.4l-6.7,0.1l-1.4,1.5l-1.5-1.4l-6.4,0.1l-1.6,1.6l-1.6-1.6l-6.5,0.1
					l-1.4,1.4l-1.4-1.4l-7,0.1l-1.3,1.3l-1.3-1.3l-7,0.1l-1.3,1.3l-1.3-1.3l-6.7,0.1l-1.4,1.5l-1.5-1.4l-5.6,0.1l0-1.2l-2.5,2.6
					l-4-3.9l-2.1,2.1l4,3.9l-2.7,2.7l-4-4l-2.1,2.1l3.1,3l0.7,0l0,0.7l0.2,0.2l-0.2,0.2l0.1,4.2l2.3-2.4l2.8,2.7l-2.6,2.7l-2.4-2.4
					l0.1,4.2l0.3,0.3l-0.3,0.3l0.1,4.2l2.4-2.4l2.6,2.5l-2.7,2.7l-2.3-2.2l0,1.3l-3,0l69.4,67.7l2.1-2.1l-1.3-1.2l2.7-2.7l1.3,1.3
					l2.1-2.1L136,324l12.1-12.4l2.5,2.4l2.1-2.1l-2.5-2.4l2.7-2.7l2.5,2.5l2.1-2.1l-2.5-2.5l2.6-2.7l0.8,0.8l2.1-2.1l-0.8-0.8
					l2.7-2.7l0.9,0.8l2.1-2.1l-0.9-0.8l2.5-2.5l3.8,3.7l2.1-2.1l-3.8-3.7l2.7-2.7l3.8,3.8l2.1-2.1l-3.8-3.8l2.6-2.7l2.1,2.1l2.1-2.1
					l-2.1-2.1l2.7-2.7l2.2,2.1l2.1-2.1l-2.2-2.1l2.6-2.7l0.5,0.5l-0.1-5.2l-0.5,0.5l-2.7-2.6l2.7-2.7l0.5,0.5l-0.1-5.1l-0.5,0.5
					l-2.6-2.5l2.6-2.7l0.3,0.3l-0.1-4.9l-0.3,0.3l-2.8-2.7l2.7-2.7l0.4,0.4l0-2.2l2,0L181.4,236.3z M175.8,244.5l2.8,2.8l-2.6,2.7
					l-2.8-2.8L175.8,244.5z M90.3,264.7l2.8,2.7l-2.7,2.7l-2.8-2.7L90.3,264.7z M85.5,265.3l-2.8-2.8l2.7-2.7l2.8,2.8L85.5,265.3z
					 M159.7,266.6l-2.6,2.7l-2.8-2.8l2.6-2.7L159.7,266.6z M159,261.7l2.7-2.7l2.8,2.8l-2.7,2.7L159,261.7z M109.4,273.9l2.7,2.6
					l-2.6,2.7l-2.7-2.6L109.4,273.9z M104.7,274.5l-2.7-2.6l2.6-2.7l2.7,2.6L104.7,274.5z M140.7,276.1l-2.7,2.7l-2.7-2.6l2.7-2.7
					L140.7,276.1z M140.1,271.3l2.5-2.5l2.7,2.6l-2.5,2.5L140.1,271.3z M128.5,283.2l2.7,2.6l-2.7,2.7l-2.7-2.6L128.5,283.2z
					 M123.8,283.8l-2.6-2.5l2.7-2.7l2.6,2.5L123.8,283.8z M130.6,281l2.6-2.7l2.7,2.6l-2.6,2.7L130.6,281z M133.2,274.1l-2.6-2.5
					l2.7-2.7l2.6,2.5L133.2,274.1z M131.1,276.2l-2.6,2.7l-2.6-2.5l2.6-2.7L131.1,276.2z M123.8,274.4l-2.8-2.7l2.6-2.7l2.8,2.7
					L123.8,274.4z M121.7,276.5l-2.7,2.7l-2.8-2.7l2.7-2.7L121.7,276.5z M114.2,274.4l-2.7-2.6l2.7-2.7l2.7,2.6L114.2,274.4z
					 M114.2,278.6l2.8,2.7l-2.6,2.7l-2.8-2.7L114.2,278.6z M119.1,283.4l2.6,2.5l-2.6,2.7l-2.6-2.5L119.1,283.4z M123.8,288l2.7,2.6
					l-2.6,2.7l-2.7-2.6L123.8,288z M128.6,292.7l2.8,2.8l-2.6,2.7l-2.8-2.8L128.6,292.7z M130.7,290.6l2.7-2.7l2.8,2.8l-2.7,2.7
					L130.7,290.6z M135.5,285.7l2.6-2.7l2.8,2.8l-2.6,2.7L135.5,285.7z M140.2,280.9l2.7-2.7l2.8,2.8l-2.7,2.7L140.2,280.9z
					 M144.9,276.1l2.5-2.5l2.8,2.8l-2.5,2.5L144.9,276.1z M149.5,271.4l2.7-2.7l2.8,2.8l-2.7,2.7L149.5,271.4z M152.1,264.4
					l-2.7-2.6l2.6-2.7l2.7,2.6L152.1,264.4z M150,266.6l-2.7,2.7l-2.7-2.6l2.7-2.7L150,266.6z M142.5,264.6l-2.6-2.5l2.7-2.7
					l2.6,2.5L142.5,264.6z M140.4,266.7l-2.5,2.5l-2.6-2.5l2.5-2.5L140.4,266.7z M133.3,264.7l-2.8-2.7l2.5-2.5l2.8,2.7L133.3,264.7
					z M131.2,266.8l-2.7,2.7l-2.8-2.7l2.7-2.7L131.2,266.8z M123.6,264.7l-2.7-2.6l2.7-2.7l2.7,2.6L123.6,264.7z M121.5,266.9
					l-2.6,2.7l-2.7-2.6l2.6-2.7L121.5,266.9z M114.1,264.9l-2.7-2.6l2.6-2.7l2.7,2.6L114.1,264.9z M112,267l-2.7,2.7l-2.7-2.6
					l2.7-2.7L112,267z M104.5,265l-2.6-2.5l2.7-2.7l2.6,2.5L104.5,265z M102.4,267.1l-2.6,2.7l-2.6-2.5l2.6-2.7L102.4,267.1z
					 M95.1,265.2l-2.8-2.7l2.6-2.7l2.8,2.7L95.1,265.2z M95.2,269.4l2.6,2.5l-2.7,2.7l-2.6-2.5L95.2,269.4z M99.9,274l2.7,2.6
					l-2.7,2.7l-2.7-2.6L99.9,274z M104.7,278.7l2.7,2.6l-2.7,2.7l-2.7-2.6L104.7,278.7z M109.5,283.4l2.8,2.7l-2.7,2.7l-2.8-2.7
					L109.5,283.4z M114.4,288.2l2.6,2.5l-2.7,2.7l-2.6-2.5L114.4,288.2z M119.1,292.8l2.7,2.6l-2.7,2.7l-2.7-2.6L119.1,292.8z
					 M124,297.5l2.8,2.8l-2.7,2.7l-2.8-2.8L124,297.5z M128.9,302.4l2.8,2.7l-2.7,2.7l-2.8-2.7L128.9,302.4z M131,300.2l2.6-2.7
					l2.8,2.7l-2.6,2.7L131,300.2z M135.7,295.4l2.7-2.7l2.8,2.7l-2.7,2.7L135.7,295.4z M140.4,290.6l2.6-2.7l2.8,2.7l-2.6,2.7
					L140.4,290.6z M145.1,285.7l2.7-2.7l2.8,2.7l-2.7,2.7L145.1,285.7z M149.9,280.9l2.5-2.5l2.8,2.7l-2.5,2.5L149.9,280.9z
					 M154.4,276.2l2.7-2.7l2.8,2.7l-2.7,2.7L154.4,276.2z M159.2,271.4l2.6-2.7l2.8,2.7l-2.6,2.7L159.2,271.4z M163.9,266.5l2.7-2.7
					l2.8,2.7l-2.7,2.7L163.9,266.5z M168.6,261.7l2.6-2.7l2.8,2.7l-2.6,2.7L168.6,261.7z M168.4,252l2.7-2.7l2.8,2.8l-2.7,2.7
					L168.4,252z M169.1,256.9l-2.6,2.7l-2.8-2.8l2.6-2.7L169.1,256.9z M161.6,254.8l-2.7-2.6l2.6-2.7l2.7,2.6L161.6,254.8z
					 M159.5,256.9l-2.7,2.7l-2.7-2.6l2.7-2.7L159.5,256.9z M152,254.9l-2.6-2.5l2.7-2.7l2.6,2.5L152,254.9z M149.9,257l-2.6,2.7
					l-2.6-2.5l2.6-2.7L149.9,257z M142.6,255.1l-2.8-2.7l2.6-2.7l2.8,2.7L142.6,255.1z M140.5,257.3l-2.7,2.7l-2.8-2.7l2.7-2.7
					L140.5,257.3z M132.9,255.2l-2.7-2.6l2.7-2.7l2.7,2.6L132.9,255.2z M130.8,257.3l-2.5,2.5l-2.7-2.6l2.5-2.5L130.8,257.3z
					 M123.6,255.2l-2.7-2.6l2.5-2.5l2.7,2.6L123.6,255.2z M121.5,257.3l-2.7,2.7l-2.7-2.6l2.7-2.7L121.5,257.3z M114,255.3l-2.6-2.5
					l2.7-2.7l2.6,2.5L114,255.3z M111.9,257.4l-2.6,2.7l-2.6-2.5l2.6-2.7L111.9,257.4z M104.6,255.6l-2.8-2.7l2.6-2.7l2.8,2.7
					L104.6,255.6z M102.5,257.7l-2.7,2.7l-2.8-2.7l2.7-2.7L102.5,257.7z M94.9,255.6l-2.8-2.8l2.7-2.7l2.8,2.8L94.9,255.6z
					 M92.8,257.8l-2.6,2.7l-2.8-2.8L90,255L92.8,257.8z M85.3,255.6l-2.7-2.6l2.6-2.7l2.7,2.6L85.3,255.6z M83.2,257.7l-2.7,2.7
					l-2.7-2.6l2.7-2.7L83.2,257.7z M75.7,255.7l-2.6-2.5l2.7-2.7l2.6,2.5L75.7,255.7z M78.5,262.6l-2.6,2.7l-2.7-2.6l2.6-2.7
					L78.5,262.6z M80.6,264.7l2.8,2.8l-2.6,2.7l-2.8-2.8L80.6,264.7z M85.5,269.5l2.8,2.7l-2.6,2.7l-2.8-2.7L85.5,269.5z
					 M90.4,274.3l2.6,2.5l-2.6,2.7l-2.6-2.5L90.4,274.3z M95.1,278.9l2.7,2.6l-2.6,2.7l-2.7-2.6L95.1,278.9z M100,283.6l2.7,2.6
					l-2.6,2.7l-2.7-2.6L100,283.6z M104.8,288.3l2.8,2.7l-2.6,2.7l-2.8-2.7L104.8,288.3z M109.7,293.1l2.6,2.5l-2.6,2.7l-2.6-2.5
					L109.7,293.1z M114.4,297.7l2.7,2.6l-2.6,2.7l-2.7-2.6L114.4,297.7z M119.2,302.4l2.8,2.8l-2.6,2.7l-2.8-2.8L119.2,302.4z
					 M124.2,307.2l2.8,2.7l-2.6,2.7l-2.8-2.7L124.2,307.2z M129.1,312l2.6,2.5l-2.6,2.7l-2.6-2.5L129.1,312z M131.1,309.9l2.7-2.7
					l2.6,2.5l-2.7,2.7L131.1,309.9z M135.9,305l2.6-2.7l2.6,2.5l-2.6,2.7L135.9,305z M140.6,300.2l2.7-2.7l2.6,2.5l-2.7,2.7
					L140.6,300.2z M145.3,295.4l2.6-2.7l2.6,2.5l-2.6,2.7L145.3,295.4z M150,290.5l2.7-2.7l2.6,2.5l-2.7,2.7L150,290.5z
					 M154.8,285.7l2.5-2.5l2.6,2.5l-2.5,2.5L154.8,285.7z M159.3,281l2.7-2.7l2.6,2.5l-2.7,2.7L159.3,281z M164.1,276.1l2.6-2.7
					l2.6,2.5l-2.6,2.7L164.1,276.1z M168.8,271.3l2.7-2.7l2.6,2.5l-2.7,2.7L168.8,271.3z M173.5,266.5l2.6-2.7l2.6,2.5l-2.6,2.7
					L173.5,266.5z M176.1,259.6l-2.8-2.7l2.7-2.7l2.8,2.7L176.1,259.6z M170.9,239.7l2.7,2.6l-2.6,2.7l-2.7-2.6L170.9,239.7z
					 M166.2,244.6l2.7,2.6l-2.7,2.7l-2.7-2.6L166.2,244.6z M161.5,240l2.6,2.5l-2.7,2.7l-2.6-2.5L161.5,240z M156.8,244.9l2.6,2.5
					l-2.6,2.7l-2.6-2.5L156.8,244.9z M151.9,240.1l2.8,2.7l-2.6,2.7l-2.8-2.7L151.9,240.1z M147.2,244.9l2.8,2.7l-2.7,2.7l-2.8-2.7
					L147.2,244.9z M142.4,240.2l2.7,2.6l-2.7,2.7l-2.7-2.6L142.4,240.2z M137.6,245l2.7,2.6l-2.6,2.7l-2.7-2.6L137.6,245z
					 M132.8,240.3l2.7,2.6l-2.6,2.7l-2.7-2.6L132.8,240.3z M128.1,245.1l2.7,2.6l-2.7,2.7l-2.7-2.6L128.1,245.1z M123.4,240.6
					l2.6,2.5l-2.7,2.7l-2.6-2.5L123.4,240.6z M118.6,245.4l2.6,2.5l-2.5,2.5l-2.6-2.5L118.6,245.4z M113.7,240.6l2.8,2.7l-2.5,2.5
					l-2.8-2.7L113.7,240.6z M109.2,245.3l2.8,2.7l-2.7,2.7l-2.8-2.7L109.2,245.3z M104.2,240.5l2.8,2.8l-2.7,2.7l-2.8-2.8
					L104.2,240.5z M99.5,245.3l2.8,2.8l-2.6,2.7l-2.8-2.8L99.5,245.3z M94.6,240.6l2.7,2.6l-2.6,2.7l-2.7-2.6L94.6,240.6z
					 M89.9,245.4l2.7,2.6l-2.7,2.7l-2.7-2.6L89.9,245.4z M85.2,240.9l2.6,2.5l-2.7,2.7l-2.6-2.5L85.2,240.9z M80.5,245.7l2.6,2.5
					l-2.6,2.7l-2.6-2.5L80.5,245.7z M75.6,240.9l2.8,2.7l-2.6,2.7l-2.8-2.7L75.6,240.9z M68.2,248.5l2.7-2.7l2.8,2.7l-2.7,2.7
					L68.2,248.5z M68.4,258.1l2.6-2.7l2.6,2.5l-2.6,2.7L68.4,258.1z M68.4,267.5l2.7-2.7l2.7,2.6l-2.7,2.7L68.4,267.5z M73.2,272.2
					l2.7-2.7l2.8,2.8L76,275L73.2,272.2z M78.1,277.1l2.7-2.7l2.8,2.7l-2.7,2.7L78.1,277.1z M83,281.9l2.7-2.7l2.6,2.5l-2.7,2.7
					L83,281.9z M87.7,286.4l2.7-2.7l2.7,2.6l-2.7,2.7L87.7,286.4z M92.6,291.2l2.7-2.7l2.7,2.6l-2.7,2.7L92.6,291.2z M97.4,295.9
					l2.7-2.7l2.8,2.7l-2.7,2.7L97.4,295.9z M102.3,300.6l2.7-2.7l2.6,2.5l-2.7,2.7L102.3,300.6z M107,305.2l2.7-2.7l2.7,2.6
					l-2.7,2.7L107,305.2z M111.8,309.9l2.7-2.7l2.8,2.8l-2.7,2.7L111.8,309.9z M116.8,314.8l2.7-2.7l2.8,2.7l-2.7,2.7L116.8,314.8z
					 M121.7,319.6l2.7-2.7l2.6,2.5l-2.7,2.7L121.7,319.6z M129.1,326.8l-2.7-2.6l2.7-2.7l2.7,2.6L129.1,326.8z M133.8,321.9
					l-2.7-2.6l2.6-2.7l2.7,2.6L133.8,321.9z M138.6,317.1l-2.7-2.6l2.7-2.7l2.7,2.6L138.6,317.1z M143.3,312.2l-2.7-2.6l2.6-2.7
					l2.7,2.6L143.3,312.2z M148,307.4l-2.7-2.6l2.7-2.7l2.7,2.6L148,307.4z M152.7,302.6l-2.7-2.6l2.6-2.7l2.7,2.6L152.7,302.6z
					 M157.4,297.8l-2.7-2.6l2.7-2.7l2.7,2.6L157.4,297.8z M162.2,292.9l-2.7-2.6l2.5-2.5l2.7,2.6L162.2,292.9z M166.7,288.2
					l-2.7-2.6l2.7-2.7l2.7,2.6L166.7,288.2z M171.5,283.4l-2.7-2.6l2.6-2.7l2.7,2.6L171.5,283.4z M176.2,278.5l-2.7-2.6l2.7-2.7
					l2.7,2.6L176.2,278.5z M183.6,271l-2.6,2.7l-2.7-2.6l2.6-2.7L183.6,271z M183.5,261.4l-2.7,2.7l-2.6-2.5l2.7-2.7L183.5,261.4z
					 M183.5,252l-2.6,2.7l-2.8-2.7l2.6-2.7L183.5,252z M180.7,245.1l-2.8-2.8l2.7-2.7l2.8,2.8L180.7,245.1z"/>
				<g id="Main-Pickets_13_">
					
						<rect x="70" y="266.5" transform="matrix(0.9999 -1.193565e-002 1.193565e-002 0.9999 -3.6635 0.9182)" class="st9" width="10.2" height="81.8"/>
					
						<rect x="80.2" y="266.3" transform="matrix(0.9999 -1.193565e-002 1.193565e-002 0.9999 -3.6613 1.0403)" class="st9" width="10.2" height="81.8"/>
					
						<rect x="90.4" y="266.2" transform="matrix(0.9999 -1.193565e-002 1.193565e-002 0.9999 -3.6591 1.1623)" class="st9" width="10.2" height="81.8"/>
					
						<rect x="100.7" y="266.1" transform="matrix(0.9999 -1.193565e-002 1.193565e-002 0.9999 -3.6569 1.2843)" class="st9" width="10.2" height="81.8"/>
					
						<rect x="110.9" y="266" transform="matrix(0.9999 -1.193565e-002 1.193565e-002 0.9999 -3.6547 1.4064)" class="st9" width="10.2" height="81.8"/>
					
						<rect x="121.1" y="265.8" transform="matrix(0.9999 -1.193565e-002 1.193565e-002 0.9999 -3.6525 1.5284)" class="st9" width="10.2" height="81.8"/>
					
						<rect x="131.3" y="265.7" transform="matrix(0.9999 -1.193565e-002 1.193565e-002 0.9999 -3.6503 1.6504)" class="st9" width="10.2" height="81.8"/>
					
						<rect x="141.6" y="265.6" transform="matrix(0.9999 -1.193565e-002 1.193565e-002 0.9999 -3.6482 1.7725)" class="st9" width="10.2" height="81.8"/>
					
						<rect x="151.8" y="265.5" transform="matrix(0.9999 -1.193565e-002 1.193565e-002 0.9999 -3.646 1.8945)" class="st9" width="10.2" height="81.8"/>
					
						<rect x="162" y="265.4" transform="matrix(0.9999 -1.193565e-002 1.193565e-002 0.9999 -3.6438 2.0165)" class="st9" width="10.2" height="81.8"/>
					
						<rect x="172.2" y="265.2" transform="matrix(0.9999 -1.193565e-002 1.193565e-002 0.9999 -3.6416 2.1386)" class="st9" width="10.2" height="81.8"/>
				</g>
				<g id="U-channel_13_">
					
						<rect x="68.8" y="266.5" transform="matrix(0.9999 -1.193565e-002 1.193565e-002 0.9999 -3.6481 0.8517)" class="st9" width="1.5" height="79.1"/>
					
						<rect x="182.4" y="265.2" transform="matrix(0.9999 -1.193565e-002 1.193565e-002 0.9999 -3.6238 2.2082)" class="st9" width="1.5" height="79.1"/>
				</g>
				<g id="Rail-Complete_13_">
					<g id="Rails_13_">
						<g id="Bottom-Rail_16_">
							
								<rect x="64.7" y="235.1" transform="matrix(-0.9999 1.193183e-002 -1.193183e-002 -0.9999 253.7737 477.862)" class="st8" width="121.6" height="9.1"/>
							<path class="st8" d="M186.1,234.5l0.1,8.9l-121.4,1.4l-0.1-8.9L186.1,234.5 M186.3,234.3l-121.9,1.5l0.1,9.4l121.9-1.5
								L186.3,234.3L186.3,234.3z"/>
						</g>
						<g id="Top-Rail_16_">
							
								<rect x="65.8" y="345" transform="matrix(-0.9999 1.193183e-002 -1.193183e-002 -0.9999 257.3304 697.6865)" class="st8" width="121.6" height="9.1"/>
							<path class="st8" d="M187.2,344.4l0.1,8.9l-121.4,1.4l-0.1-8.9L187.2,344.4 M187.5,344.2l-121.9,1.5l0.1,9.4l121.9-1.5
								L187.5,344.2L187.5,344.2z"/>
						</g>
					</g>
					<g id="middle_rail_16_">
						
							<rect x="65.2" y="259.8" transform="matrix(-0.9999 1.193183e-002 -1.193183e-002 -0.9999 255.132 527.2699)" class="st8" width="121.6" height="9.1"/>
						<path class="st8" d="M186.6,259.2l0.1,8.9l-121.4,1.4l-0.1-8.9L186.6,259.2 M186.9,259L65,260.4l0.1,9.4l121.9-1.5L186.9,259
							L186.9,259z"/>
					</g>
				</g>
				<g id="Short-Posts_13_">
					<g id="Left_Post_17_">
						
							<rect x="60.3" y="233.4" transform="matrix(-0.9999 1.190462e-002 -1.190462e-002 -0.9999 132.4416 591.9714)" class="st8" width="8.3" height="126.1"/>
						<path class="st8" d="M67.7,233.4l1.5,125.8l-8,0.1l-1.5-125.8L67.7,233.4 M68,233.2l-8.5,0.1L61,359.6l8.5-0.1L68,233.2
							L68,233.2z"/>
					</g>
					<g id="Right_Post_17_">
						<polygon class="st8" points="183,231.1 191.3,231 192.8,358 184.6,358.1 						"/>
						<path class="st8" d="M191.1,231.1l1.6,126.8l-8,0.1l-1.6-126.8L191.1,231.1 M191.4,230.9l-8.5,0.1l1.6,127.3l8.5-0.1
							L191.4,230.9L191.4,230.9z"/>
					</g>
				</g>
				<g id="caps_13_">
					
						<rect x="59.2" y="231.9" transform="matrix(0.9999 -1.065973e-002 1.065973e-002 0.9999 -2.4768 0.6912)" class="st9" width="8.9" height="1.6"/>
					<polygon class="st9" points="191.6,232.1 182.7,232.2 182.7,230.6 191.5,230.5 					"/>
				</g>
			</g>
		</g>
	</g>
	<g>
		
			<image style="overflow:visible;opacity:0.41;" width="627" height="608" xlink:href="BACF28D1.png"  transform="matrix(0.24 0 0 0.24 134.8702 178.259)">
		</image>
		<g>
			<g>
				<path class="st10" d="M265.5,185.5l0,2.5l-4.4,0.1l-1.3,1.4l-1.4-1.3l-6.9,0.1l-1.3,1.4l-1.4-1.3l-6.6,0.1l-1.5,1.5l-1.5-1.5
					l-6.7,0.1l-1.4,1.4l-1.4-1.4l-6.7,0.1l-1.4,1.5l-1.5-1.4l-6.7,0.1l-1.4,1.5l-1.5-1.4l-6.4,0.1l-1.6,1.6l-1.6-1.6l-6.5,0.1
					l-1.4,1.4l-1.4-1.4l-7,0.1l-1.3,1.3l-1.3-1.3l-7,0.1l-1.3,1.3l-1.3-1.3l-6.7,0.1l-1.4,1.5l-1.5-1.4l-5.6,0.1l0-1.2l-2.5,2.6
					l-4-3.9l-2.1,2.1l4,3.9l-2.7,2.7l-4-4l-2.1,2.1l3.1,3l0.7,0l0,0.7l0.2,0.2l-0.2,0.2l0.1,4.2l2.3-2.4l2.8,2.7l-2.6,2.7l-2.4-2.4
					l0.1,4.2l0.3,0.3l-0.3,0.3l0.1,4.2l2.4-2.4l2.6,2.5l-2.7,2.7l-2.3-2.2l0,1.3l-3,0l69.4,67.7l2.1-2.1l-1.3-1.2l2.7-2.7l1.3,1.3
					l2.1-2.1l-1.3-1.3l12.1-12.4l2.5,2.4l2.1-2.1l-2.5-2.4l2.7-2.7l2.5,2.5l2.1-2.1l-2.5-2.5l2.6-2.7l0.8,0.8l2.1-2.1l-0.8-0.8
					l2.7-2.7l0.9,0.8l2.1-2.1l-0.9-0.8l2.5-2.5l3.8,3.7l2.1-2.1l-3.8-3.7l2.7-2.7l3.8,3.8l2.1-2.1l-3.8-3.8l2.6-2.7l2.1,2.1l2.1-2.1
					l-2.1-2.1l2.7-2.7l2.2,2.1l2.1-2.1l-2.2-2.1l2.6-2.7l0.5,0.5l-0.1-5.2l-0.5,0.5l-2.7-2.6l2.7-2.7l0.5,0.5L270,208l-0.5,0.5
					L267,206l2.6-2.7l0.3,0.3l-0.1-4.9l-0.3,0.3l-2.8-2.7l2.7-2.7l0.4,0.4l0-2.2l2,0L265.5,185.5z M259.8,193.6l2.8,2.8l-2.6,2.7
					l-2.8-2.8L259.8,193.6z M174.3,213.8l2.8,2.7l-2.7,2.7l-2.8-2.7L174.3,213.8z M169.5,214.5l-2.8-2.8l2.7-2.7l2.8,2.8
					L169.5,214.5z M243.7,215.7l-2.6,2.7l-2.8-2.8l2.6-2.7L243.7,215.7z M243,210.8l2.7-2.7l2.8,2.8l-2.7,2.7L243,210.8z
					 M193.4,223.1l2.7,2.6l-2.6,2.7l-2.7-2.6L193.4,223.1z M188.7,223.7L186,221l2.6-2.7l2.7,2.6L188.7,223.7z M224.8,225.3
					l-2.7,2.7l-2.7-2.6l2.7-2.7L224.8,225.3z M224.1,220.5l2.5-2.5l2.7,2.6l-2.5,2.5L224.1,220.5z M212.6,232.3l2.7,2.6l-2.7,2.7
					l-2.7-2.6L212.6,232.3z M207.8,233l-2.6-2.5l2.7-2.7l2.6,2.5L207.8,233z M214.7,230.2l2.6-2.7l2.7,2.6l-2.6,2.7L214.7,230.2z
					 M217.3,223.3l-2.6-2.5l2.7-2.7l2.6,2.5L217.3,223.3z M215.2,225.4l-2.6,2.7l-2.6-2.5l2.6-2.7L215.2,225.4z M207.8,223.5
					l-2.8-2.7l2.6-2.7l2.8,2.7L207.8,223.5z M205.8,225.6l-2.7,2.7l-2.8-2.7l2.7-2.7L205.8,225.6z M198.2,223.6l-2.7-2.6l2.7-2.7
					l2.7,2.6L198.2,223.6z M198.2,227.8l2.8,2.7l-2.6,2.7l-2.8-2.7L198.2,227.8z M203.1,232.6l2.6,2.5l-2.6,2.7l-2.6-2.5
					L203.1,232.6z M207.8,237.2l2.7,2.6l-2.6,2.7l-2.7-2.6L207.8,237.2z M212.7,241.9l2.8,2.8l-2.6,2.7l-2.8-2.8L212.7,241.9z
					 M214.8,239.8l2.7-2.7l2.8,2.8l-2.7,2.7L214.8,239.8z M219.5,234.9l2.6-2.7l2.8,2.8l-2.6,2.7L219.5,234.9z M224.2,230.1l2.7-2.7
					l2.8,2.8l-2.7,2.7L224.2,230.1z M229,225.2l2.5-2.5l2.8,2.8l-2.5,2.5L229,225.2z M233.5,220.5l2.7-2.7l2.8,2.8l-2.7,2.7
					L233.5,220.5z M236.1,213.6l-2.7-2.6l2.6-2.7l2.7,2.6L236.1,213.6z M234.1,215.7l-2.7,2.7l-2.7-2.6l2.7-2.7L234.1,215.7z
					 M226.6,213.7l-2.6-2.5l2.7-2.7l2.6,2.5L226.6,213.7z M224.5,215.9l-2.5,2.5l-2.6-2.5l2.5-2.5L224.5,215.9z M217.3,213.8
					l-2.8-2.7l2.5-2.5l2.8,2.7L217.3,213.8z M215.2,216l-2.7,2.7l-2.8-2.7l2.7-2.7L215.2,216z M207.7,213.9l-2.7-2.6l2.7-2.7
					l2.7,2.6L207.7,213.9z M205.6,216l-2.6,2.7l-2.7-2.6l2.6-2.7L205.6,216z M198.1,214l-2.7-2.6l2.6-2.7l2.7,2.6L198.1,214z
					 M196,216.2l-2.7,2.7l-2.7-2.6l2.7-2.7L196,216.2z M188.5,214.2l-2.6-2.5l2.7-2.7l2.6,2.5L188.5,214.2z M186.5,216.3l-2.6,2.7
					l-2.6-2.5l2.6-2.7L186.5,216.3z M179.2,214.4l-2.8-2.7l2.6-2.7l2.8,2.7L179.2,214.4z M179.2,218.6l2.6,2.5l-2.7,2.7l-2.6-2.5
					L179.2,218.6z M183.9,223.2l2.7,2.6l-2.7,2.7l-2.7-2.6L183.9,223.2z M188.7,227.9l2.7,2.6l-2.7,2.7l-2.7-2.6L188.7,227.9z
					 M193.6,232.6l2.8,2.7l-2.7,2.7l-2.8-2.7L193.6,232.6z M198.5,237.4l2.6,2.5l-2.7,2.7l-2.6-2.5L198.5,237.4z M203.1,242l2.7,2.6
					l-2.7,2.7l-2.7-2.6L203.1,242z M208,246.7l2.8,2.8l-2.7,2.7l-2.8-2.8L208,246.7z M212.9,251.5l2.8,2.7l-2.7,2.7l-2.8-2.7
					L212.9,251.5z M215,249.4l2.6-2.7l2.8,2.7l-2.6,2.7L215,249.4z M219.7,244.6l2.7-2.7l2.8,2.7l-2.7,2.7L219.7,244.6z
					 M224.4,239.7l2.6-2.7l2.8,2.7l-2.6,2.7L224.4,239.7z M229.2,234.9l2.7-2.7l2.8,2.7l-2.7,2.7L229.2,234.9z M233.9,230l2.5-2.5
					l2.8,2.7l-2.5,2.5L233.9,230z M238.5,225.4l2.7-2.7l2.8,2.7l-2.7,2.7L238.5,225.4z M243.2,220.5l2.6-2.7l2.8,2.7l-2.6,2.7
					L243.2,220.5z M247.9,215.7l2.7-2.7l2.8,2.7l-2.7,2.7L247.9,215.7z M252.7,210.8l2.6-2.7l2.8,2.7l-2.6,2.7L252.7,210.8z
					 M252.4,201.2l2.7-2.7l2.8,2.8l-2.7,2.7L252.4,201.2z M253.2,206.1l-2.6,2.7l-2.8-2.8l2.6-2.7L253.2,206.1z M245.6,203.9
					l-2.7-2.6l2.6-2.7l2.7,2.6L245.6,203.9z M243.5,206l-2.7,2.7l-2.7-2.6l2.7-2.7L243.5,206z M236,204l-2.6-2.5l2.7-2.7l2.6,2.5
					L236,204z M233.9,206.2l-2.6,2.7l-2.6-2.5l2.6-2.7L233.9,206.2z M226.6,204.3l-2.8-2.7l2.6-2.7l2.8,2.7L226.6,204.3z
					 M224.5,206.4l-2.7,2.7l-2.8-2.7l2.7-2.7L224.5,206.4z M217,204.4l-2.7-2.6l2.7-2.7l2.7,2.6L217,204.4z M214.9,206.5l-2.5,2.5
					l-2.7-2.6l2.5-2.5L214.9,206.5z M207.6,204.3l-2.7-2.6l2.5-2.5l2.7,2.6L207.6,204.3z M205.5,206.5l-2.7,2.7l-2.7-2.6l2.7-2.7
					L205.5,206.5z M198,204.5l-2.6-2.5l2.7-2.7l2.6,2.5L198,204.5z M195.9,206.6l-2.6,2.7l-2.6-2.5l2.6-2.7L195.9,206.6z
					 M188.6,204.7l-2.8-2.7l2.6-2.7l2.8,2.7L188.6,204.7z M186.5,206.9l-2.7,2.7l-2.8-2.7l2.7-2.7L186.5,206.9z M178.9,204.8
					l-2.8-2.8l2.7-2.7l2.8,2.8L178.9,204.8z M176.9,206.9l-2.6,2.7l-2.8-2.8l2.6-2.7L176.9,206.9z M169.3,204.8l-2.7-2.6l2.6-2.7
					l2.7,2.6L169.3,204.8z M167.2,206.9l-2.7,2.7l-2.7-2.6l2.7-2.7L167.2,206.9z M159.7,204.9l-2.6-2.5l2.7-2.7l2.6,2.5L159.7,204.9
					z M162.5,211.7l-2.6,2.7l-2.7-2.6l2.6-2.7L162.5,211.7z M164.6,213.8l2.8,2.8l-2.6,2.7l-2.8-2.8L164.6,213.8z M169.6,218.7
					l2.8,2.7l-2.6,2.7l-2.8-2.7L169.6,218.7z M174.5,223.4l2.6,2.5l-2.6,2.7l-2.6-2.5L174.5,223.4z M179.2,228l2.7,2.6l-2.6,2.7
					l-2.7-2.6L179.2,228z M184,232.7l2.7,2.6l-2.6,2.7l-2.7-2.6L184,232.7z M188.8,237.4l2.8,2.7l-2.6,2.7l-2.8-2.7L188.8,237.4z
					 M193.7,242.2l2.6,2.5l-2.6,2.7l-2.6-2.5L193.7,242.2z M198.4,246.8l2.7,2.6l-2.6,2.7l-2.7-2.6L198.4,246.8z M203.2,251.5
					l2.8,2.8l-2.6,2.7l-2.8-2.8L203.2,251.5z M208.2,256.4l2.8,2.7l-2.6,2.7l-2.8-2.7L208.2,256.4z M213.1,261.2l2.6,2.5l-2.6,2.7
					l-2.6-2.5L213.1,261.2z M215.2,259l2.7-2.7l2.6,2.5l-2.7,2.7L215.2,259z M219.9,254.2l2.6-2.7l2.6,2.5l-2.6,2.7L219.9,254.2z
					 M224.6,249.4l2.7-2.7l2.6,2.5l-2.7,2.7L224.6,249.4z M229.3,244.5l2.6-2.7l2.6,2.5l-2.6,2.7L229.3,244.5z M234.1,239.7l2.7-2.7
					l2.6,2.5l-2.7,2.7L234.1,239.7z M238.8,234.8l2.5-2.5l2.6,2.5l-2.5,2.5L238.8,234.8z M243.4,230.1l2.7-2.7l2.6,2.5l-2.7,2.7
					L243.4,230.1z M248.1,225.3l2.6-2.7l2.6,2.5l-2.6,2.7L248.1,225.3z M252.8,220.5l2.7-2.7l2.6,2.5l-2.7,2.7L252.8,220.5z
					 M257.6,215.6l2.6-2.7l2.6,2.5l-2.6,2.7L257.6,215.6z M260.1,208.7l-2.8-2.7l2.7-2.7l2.8,2.7L260.1,208.7z M255,188.9l2.7,2.6
					l-2.6,2.7l-2.7-2.6L255,188.9z M250.2,193.7l2.7,2.6l-2.7,2.7l-2.7-2.6L250.2,193.7z M245.5,189.2l2.6,2.5l-2.7,2.7l-2.6-2.5
					L245.5,189.2z M240.8,194l2.6,2.5l-2.6,2.7l-2.6-2.5L240.8,194z M235.9,189.2l2.8,2.7l-2.6,2.7l-2.8-2.7L235.9,189.2z
					 M231.2,194l2.8,2.7l-2.7,2.7l-2.8-2.7L231.2,194z M226.4,189.3l2.7,2.6l-2.7,2.7l-2.7-2.6L226.4,189.3z M221.7,194.2l2.7,2.6
					l-2.6,2.7l-2.7-2.6L221.7,194.2z M216.8,189.5l2.7,2.6l-2.6,2.7l-2.7-2.6L216.8,189.5z M212.1,194.3l2.7,2.6l-2.7,2.7l-2.7-2.6
					L212.1,194.3z M207.4,189.7l2.6,2.5l-2.7,2.7l-2.6-2.5L207.4,189.7z M202.7,194.6l2.6,2.5l-2.5,2.5l-2.6-2.5L202.7,194.6z
					 M197.8,189.8l2.8,2.7l-2.5,2.5l-2.8-2.7L197.8,189.8z M193.2,194.5l2.8,2.7l-2.7,2.7l-2.8-2.7L193.2,194.5z M188.3,189.6
					l2.8,2.8l-2.7,2.7l-2.8-2.8L188.3,189.6z M183.5,194.5l2.8,2.8l-2.6,2.7l-2.8-2.8L183.5,194.5z M178.7,189.8l2.7,2.6l-2.6,2.7
					l-2.7-2.6L178.7,189.8z M173.9,194.6l2.7,2.6L174,200l-2.7-2.6L173.9,194.6z M169.3,190l2.6,2.5l-2.7,2.7l-2.6-2.5L169.3,190z
					 M164.5,194.9l2.6,2.5l-2.6,2.7l-2.6-2.5L164.5,194.9z M159.6,190.1l2.8,2.7l-2.6,2.7l-2.8-2.7L159.6,190.1z M152.3,197.6
					l2.7-2.7l2.8,2.7l-2.7,2.7L152.3,197.6z M152.4,207.2l2.6-2.7l2.6,2.5l-2.6,2.7L152.4,207.2z M152.4,216.7l2.7-2.7l2.7,2.6
					l-2.7,2.7L152.4,216.7z M157.2,221.4l2.7-2.7l2.8,2.8l-2.7,2.7L157.2,221.4z M162.2,226.2l2.7-2.7l2.8,2.7l-2.7,2.7L162.2,226.2
					z M167.1,231l2.7-2.7l2.6,2.5l-2.7,2.7L167.1,231z M171.8,235.6l2.7-2.7l2.7,2.6l-2.7,2.7L171.8,235.6z M176.6,240.3l2.7-2.7
					l2.7,2.6l-2.7,2.7L176.6,240.3z M181.4,245l2.7-2.7l2.8,2.7l-2.7,2.7L181.4,245z M186.3,249.8l2.7-2.7l2.6,2.5l-2.7,2.7
					L186.3,249.8z M191,254.4l2.7-2.7l2.7,2.6l-2.7,2.7L191,254.4z M195.9,259.1l2.7-2.7l2.8,2.8l-2.7,2.7L195.9,259.1z
					 M200.8,263.9l2.7-2.7l2.8,2.7l-2.7,2.7L200.8,263.9z M205.7,268.7l2.7-2.7l2.6,2.5l-2.7,2.7L205.7,268.7z M213.1,275.9
					l-2.7-2.6l2.7-2.7l2.7,2.6L213.1,275.9z M217.9,271.1l-2.7-2.6l2.6-2.7l2.7,2.6L217.9,271.1z M222.6,266.3l-2.7-2.6l2.7-2.7
					l2.7,2.6L222.6,266.3z M227.3,261.4l-2.7-2.6l2.6-2.7l2.7,2.6L227.3,261.4z M232,256.6l-2.7-2.6l2.7-2.7l2.7,2.6L232,256.6z
					 M236.8,251.7l-2.7-2.6l2.6-2.7l2.7,2.6L236.8,251.7z M241.5,246.9l-2.7-2.6l2.7-2.7l2.7,2.6L241.5,246.9z M246.2,242.1
					l-2.7-2.6l2.5-2.5l2.7,2.6L246.2,242.1z M250.8,237.4l-2.7-2.6l2.7-2.7l2.7,2.6L250.8,237.4z M255.5,232.5l-2.7-2.6l2.6-2.7
					l2.7,2.6L255.5,232.5z M260.2,227.7l-2.7-2.6l2.7-2.7l2.7,2.6L260.2,227.7z M267.6,220.2l-2.6,2.7l-2.7-2.6l2.6-2.7L267.6,220.2
					z M267.5,210.6l-2.7,2.7l-2.6-2.5l2.7-2.7L267.5,210.6z M267.5,201.2l-2.6,2.7l-2.8-2.7l2.6-2.7L267.5,201.2z M264.7,194.3
					l-2.8-2.8l2.7-2.7l2.8,2.8L264.7,194.3z"/>
				<g id="Main-Pickets_12_">
					
						<rect x="154" y="215.6" transform="matrix(0.9999 -1.193565e-002 1.193565e-002 0.9999 -3.0506 1.9176)" class="st10" width="10.2" height="81.8"/>
					
						<rect x="164.2" y="215.5" transform="matrix(0.9999 -1.193565e-002 1.193565e-002 0.9999 -3.0484 2.0397)" class="st10" width="10.2" height="81.8"/>
					
						<rect x="174.5" y="215.4" transform="matrix(0.9999 -1.193565e-002 1.193565e-002 0.9999 -3.0462 2.1617)" class="st10" width="10.2" height="81.8"/>
					
						<rect x="184.7" y="215.2" transform="matrix(0.9999 -1.193565e-002 1.193565e-002 0.9999 -3.044 2.2837)" class="st10" width="10.2" height="81.8"/>
					
						<rect x="194.9" y="215.1" transform="matrix(0.9999 -1.193565e-002 1.193565e-002 0.9999 -3.0419 2.4058)" class="st10" width="10.2" height="81.8"/>
					
						<rect x="205.1" y="215" transform="matrix(0.9999 -1.193565e-002 1.193565e-002 0.9999 -3.0397 2.5278)" class="st10" width="10.2" height="81.8"/>
					
						<rect x="215.4" y="214.9" transform="matrix(0.9999 -1.193565e-002 1.193565e-002 0.9999 -3.0375 2.6498)" class="st10" width="10.2" height="81.8"/>
					
						<rect x="225.6" y="214.8" transform="matrix(0.9999 -1.193565e-002 1.193565e-002 0.9999 -3.0353 2.7719)" class="st10" width="10.2" height="81.8"/>
					
						<rect x="235.8" y="214.6" transform="matrix(0.9999 -1.193565e-002 1.193565e-002 0.9999 -3.0331 2.8939)" class="st10" width="10.2" height="81.8"/>
					
						<rect x="246" y="214.5" transform="matrix(0.9999 -1.193565e-002 1.193565e-002 0.9999 -3.0309 3.0159)" class="st10" width="10.2" height="81.8"/>
					
						<rect x="256.3" y="214.4" transform="matrix(0.9999 -1.193565e-002 1.193565e-002 0.9999 -3.0287 3.138)" class="st10" width="10.2" height="81.8"/>
				</g>
				<g id="U-channel_12_">
					
						<rect x="152.8" y="215.7" transform="matrix(0.9999 -1.193565e-002 1.193565e-002 0.9999 -3.0353 1.8511)" class="st10" width="1.5" height="79.1"/>
					
						<rect x="266.5" y="214.3" transform="matrix(0.9999 -1.193565e-002 1.193565e-002 0.9999 -3.011 3.2076)" class="st10" width="1.5" height="79.1"/>
				</g>
				<g id="Rail-Complete_12_">
					<g id="Rails_12_">
						<g id="Bottom-Rail_14_">
							
								<rect x="148.6" y="184.2" transform="matrix(0.9999 -1.193565e-002 1.193565e-002 0.9999 -2.239 2.5139)" class="st10" width="121.9" height="9.4"/>
						</g>
						<g id="Top-Rail_14_">
							
								<rect x="149.7" y="294.1" transform="matrix(0.9999 -1.193565e-002 1.193565e-002 0.9999 -3.551 2.5352)" class="st10" width="121.9" height="9.4"/>
						</g>
					</g>
					<g id="middle_rail_14_">
						
							<rect x="149.1" y="208.9" transform="matrix(0.9999 -1.193565e-002 1.193565e-002 0.9999 -2.5339 2.522)" class="st10" width="121.9" height="9.4"/>
					</g>
				</g>
				<g id="Short-Posts_12_">
					<g id="Left_Post_15_">
						
							<rect x="144.2" y="182.4" transform="matrix(0.9999 -1.193565e-002 1.193565e-002 0.9999 -2.92 1.7899)" class="st10" width="8.5" height="126.3"/>
					</g>
					<g id="Right_Post_15_">
						<polygon class="st10" points="277,307.3 268.5,307.4 266.9,180.1 275.4,180 						"/>
					</g>
				</g>
				<g id="caps_12_">
					
						<rect x="143.2" y="181" transform="matrix(0.9999 -1.065973e-002 1.065973e-002 0.9999 -1.93 1.5841)" class="st10" width="8.9" height="1.6"/>
					<polygon class="st10" points="275.6,181.2 266.7,181.4 266.7,179.8 275.6,179.6 					"/>
				</g>
			</g>
		</g>
	</g>
	<g>
		
			<image style="overflow:visible;opacity:0.41;" width="628" height="608" xlink:href="BACF28D0.png"  transform="matrix(0.24 0 0 0.24 209.5006 228.6177)">
		</image>
		<g>
			<g>
				<path class="st9" d="M340.2,236l0,2.5l-4.4,0.1l-1.3,1.4l-1.4-1.3l-6.9,0.1l-1.3,1.4l-1.4-1.3l-6.6,0.1l-1.5,1.5l-1.5-1.5
					l-6.7,0.1l-1.4,1.4l-1.4-1.4l-6.7,0.1l-1.4,1.5l-1.5-1.4l-6.7,0.1l-1.4,1.5l-1.5-1.4l-6.4,0.1l-1.6,1.6l-1.6-1.6l-6.5,0.1
					l-1.4,1.4l-1.4-1.4l-7,0.1l-1.3,1.3l-1.3-1.3l-7,0.1l-1.3,1.3l-1.3-1.3l-6.7,0.1l-1.4,1.5l-1.5-1.4l-5.6,0.1l0-1.2l-2.5,2.6
					l-4-3.9l-2.1,2.1l4,3.9l-2.7,2.7l-4-4l-2.1,2.1l3.1,3l0.7,0l0,0.7l0.2,0.2l-0.2,0.2l0.1,4.2l2.3-2.4l2.8,2.7l-2.6,2.7l-2.4-2.4
					l0.1,4.2l0.3,0.3l-0.3,0.3l0.1,4.2l2.4-2.4l2.6,2.5l-2.7,2.7l-2.3-2.2l0,1.3l-3,0l69.4,67.7l2.1-2.1l-1.3-1.2l2.7-2.7l1.3,1.3
					l2.1-2.1l-1.3-1.3l12.1-12.4l2.5,2.4l2.1-2.1l-2.5-2.4l2.7-2.7l2.5,2.5l2.1-2.1l-2.5-2.5l2.6-2.7l0.8,0.8l2.1-2.1l-0.8-0.8
					l2.7-2.7l0.9,0.8l2.1-2.1l-0.9-0.8l2.5-2.5l3.8,3.7l2.1-2.1l-3.8-3.7l2.7-2.7l3.8,3.8l2.1-2.1l-3.8-3.8l2.6-2.7l2.1,2.1l2.1-2.1
					l-2.1-2.1l2.7-2.7l2.2,2.1l2.1-2.1l-2.2-2.1l2.6-2.7l0.5,0.5l-0.1-5.2l-0.5,0.5l-2.7-2.6l2.7-2.7l0.5,0.5l-0.1-5.1l-0.5,0.5
					l-2.6-2.5l2.6-2.7l0.3,0.3l-0.1-4.9l-0.3,0.3l-2.8-2.7l2.7-2.7l0.4,0.4l0-2.2l2,0L340.2,236z M334.6,244.1l2.8,2.8l-2.6,2.7
					l-2.8-2.8L334.6,244.1z M249.1,264.3l2.8,2.7l-2.7,2.7l-2.8-2.7L249.1,264.3z M244.3,264.9l-2.8-2.8l2.7-2.7l2.8,2.8
					L244.3,264.9z M318.5,266.2l-2.6,2.7l-2.8-2.8l2.6-2.7L318.5,266.2z M317.7,261.3l2.7-2.7l2.8,2.8l-2.7,2.7L317.7,261.3z
					 M268.2,273.6l2.7,2.6l-2.6,2.7l-2.7-2.6L268.2,273.6z M263.4,274.2l-2.7-2.6l2.6-2.7l2.7,2.6L263.4,274.2z M299.5,275.7
					l-2.7,2.7l-2.7-2.6l2.7-2.7L299.5,275.7z M298.9,271l2.5-2.5l2.7,2.6l-2.5,2.5L298.9,271z M287.3,282.8l2.7,2.6l-2.7,2.7
					l-2.7-2.6L287.3,282.8z M282.5,283.4l-2.6-2.5l2.7-2.7l2.6,2.5L282.5,283.4z M289.4,280.7l2.6-2.7l2.7,2.6l-2.6,2.7L289.4,280.7
					z M292,273.7l-2.6-2.5l2.7-2.7l2.6,2.5L292,273.7z M289.9,275.9l-2.6,2.7l-2.6-2.5l2.6-2.7L289.9,275.9z M282.6,274l-2.8-2.7
					l2.6-2.7l2.8,2.7L282.6,274z M280.5,276.1l-2.7,2.7l-2.8-2.7l2.7-2.7L280.5,276.1z M272.9,274.1l-2.7-2.6l2.7-2.7l2.7,2.6
					L272.9,274.1z M273,278.3l2.8,2.7l-2.6,2.7l-2.8-2.7L273,278.3z M277.9,283.1l2.6,2.5l-2.6,2.7l-2.6-2.5L277.9,283.1z
					 M282.6,287.6l2.7,2.6l-2.6,2.7l-2.7-2.6L282.6,287.6z M287.4,292.4l2.8,2.8l-2.6,2.7l-2.8-2.8L287.4,292.4z M289.5,290.2
					l2.7-2.7l2.8,2.8l-2.7,2.7L289.5,290.2z M294.2,285.4l2.6-2.7l2.8,2.8l-2.6,2.7L294.2,285.4z M299,280.5l2.7-2.7l2.8,2.8
					l-2.7,2.7L299,280.5z M303.7,275.7l2.5-2.5l2.8,2.8l-2.5,2.5L303.7,275.7z M308.3,271l2.7-2.7l2.8,2.8l-2.7,2.7L308.3,271z
					 M310.9,264.1l-2.7-2.6l2.6-2.7l2.7,2.6L310.9,264.1z M308.8,266.2l-2.7,2.7l-2.7-2.6l2.7-2.7L308.8,266.2z M301.3,264.2
					l-2.6-2.5l2.7-2.7l2.6,2.5L301.3,264.2z M299.2,266.3l-2.5,2.5l-2.6-2.5l2.5-2.5L299.2,266.3z M292,264.3l-2.8-2.7l2.5-2.5
					l2.8,2.7L292,264.3z M290,266.4l-2.7,2.7l-2.8-2.7l2.7-2.7L290,266.4z M282.4,264.4l-2.7-2.6l2.7-2.7l2.7,2.6L282.4,264.4z
					 M280.3,266.5l-2.6,2.7l-2.7-2.6l2.6-2.7L280.3,266.5z M272.9,264.5l-2.7-2.6l2.6-2.7l2.7,2.6L272.9,264.5z M270.8,266.6
					l-2.7,2.7l-2.7-2.6l2.7-2.7L270.8,266.6z M263.3,264.6l-2.6-2.5l2.7-2.7l2.6,2.5L263.3,264.6z M261.2,266.8l-2.6,2.7l-2.6-2.5
					l2.6-2.7L261.2,266.8z M253.9,264.9l-2.8-2.7l2.6-2.7l2.8,2.7L253.9,264.9z M254,269.1l2.6,2.5l-2.7,2.7l-2.6-2.5L254,269.1z
					 M258.7,273.7l2.7,2.6l-2.7,2.7l-2.7-2.6L258.7,273.7z M263.5,278.4l2.7,2.6l-2.7,2.7l-2.7-2.6L263.5,278.4z M268.3,283.1
					l2.8,2.7l-2.7,2.7l-2.8-2.7L268.3,283.1z M273.2,287.9l2.6,2.5l-2.7,2.7l-2.6-2.5L273.2,287.9z M277.9,292.4l2.7,2.6l-2.7,2.7
					l-2.7-2.6L277.9,292.4z M282.7,297.2l2.8,2.8l-2.7,2.7l-2.8-2.8L282.7,297.2z M287.7,302l2.8,2.7l-2.7,2.7l-2.8-2.7L287.7,302z
					 M289.8,299.9l2.6-2.7l2.8,2.7l-2.6,2.7L289.8,299.9z M294.5,295.1l2.7-2.7l2.8,2.7l-2.7,2.7L294.5,295.1z M299.2,290.2l2.6-2.7
					l2.8,2.7l-2.6,2.7L299.2,290.2z M303.9,285.4l2.7-2.7l2.8,2.7l-2.7,2.7L303.9,285.4z M308.7,280.5l2.5-2.5l2.8,2.7l-2.5,2.5
					L308.7,280.5z M313.2,275.8l2.7-2.7l2.8,2.7l-2.7,2.7L313.2,275.8z M318,271l2.6-2.7l2.8,2.7l-2.6,2.7L318,271z M322.7,266.2
					l2.7-2.7l2.8,2.7l-2.7,2.7L322.7,266.2z M327.4,261.3l2.6-2.7l2.8,2.7l-2.6,2.7L327.4,261.3z M327.2,251.7l2.7-2.7l2.8,2.8
					l-2.7,2.7L327.2,251.7z M327.9,256.6l-2.6,2.7l-2.8-2.8l2.6-2.7L327.9,256.6z M320.4,254.4l-2.7-2.6l2.6-2.7l2.7,2.6
					L320.4,254.4z M318.3,256.5l-2.7,2.7l-2.7-2.6l2.7-2.7L318.3,256.5z M310.8,254.5l-2.6-2.5l2.7-2.7l2.6,2.5L310.8,254.5z
					 M308.7,256.6l-2.6,2.7l-2.6-2.5l2.6-2.7L308.7,256.6z M301.4,254.8l-2.8-2.7l2.6-2.7l2.8,2.7L301.4,254.8z M299.3,256.9
					l-2.7,2.7l-2.8-2.7l2.7-2.7L299.3,256.9z M291.7,254.8l-2.7-2.6l2.7-2.7l2.7,2.6L291.7,254.8z M289.6,257l-2.5,2.5l-2.7-2.6
					l2.5-2.5L289.6,257z M282.3,254.8l-2.7-2.6l2.5-2.5l2.7,2.6L282.3,254.8z M280.3,257l-2.7,2.7l-2.7-2.6l2.7-2.7L280.3,257z
					 M272.8,255l-2.6-2.5l2.7-2.7l2.6,2.5L272.8,255z M270.7,257.1l-2.6,2.7l-2.6-2.5l2.6-2.7L270.7,257.1z M263.3,255.2l-2.8-2.7
					l2.6-2.7l2.8,2.7L263.3,255.2z M261.3,257.3l-2.7,2.7l-2.8-2.7l2.7-2.7L261.3,257.3z M253.7,255.3l-2.8-2.8l2.7-2.7l2.8,2.8
					L253.7,255.3z M251.6,257.4l-2.6,2.7l-2.8-2.8l2.6-2.7L251.6,257.4z M244.1,255.2l-2.7-2.6l2.6-2.7l2.7,2.6L244.1,255.2z
					 M242,257.4l-2.7,2.7l-2.7-2.6l2.7-2.7L242,257.4z M234.5,255.4l-2.6-2.5l2.7-2.7l2.6,2.5L234.5,255.4z M237.2,262.2l-2.6,2.7
					l-2.7-2.6l2.6-2.7L237.2,262.2z M239.4,264.3l2.8,2.8l-2.6,2.7l-2.8-2.8L239.4,264.3z M244.3,269.1l2.8,2.7l-2.6,2.7l-2.8-2.7
					L244.3,269.1z M249.2,273.9l2.6,2.5l-2.6,2.7l-2.6-2.5L249.2,273.9z M253.9,278.5l2.7,2.6l-2.6,2.7l-2.7-2.6L253.9,278.5z
					 M258.8,283.2l2.7,2.6l-2.6,2.7l-2.7-2.6L258.8,283.2z M263.6,287.9l2.8,2.7l-2.6,2.7l-2.8-2.7L263.6,287.9z M268.5,292.7
					l2.6,2.5l-2.6,2.7l-2.6-2.5L268.5,292.7z M273.2,297.3l2.7,2.6l-2.6,2.7l-2.7-2.6L273.2,297.3z M278,302l2.8,2.8l-2.6,2.7
					l-2.8-2.8L278,302z M283,306.8l2.8,2.7l-2.6,2.7l-2.8-2.7L283,306.8z M287.9,311.6l2.6,2.5l-2.6,2.7l-2.6-2.5L287.9,311.6z
					 M289.9,309.5l2.7-2.7l2.6,2.5l-2.7,2.7L289.9,309.5z M294.7,304.6l2.6-2.7l2.6,2.5l-2.6,2.7L294.7,304.6z M299.4,299.8l2.7-2.7
					l2.6,2.5l-2.7,2.7L299.4,299.8z M304.1,295l2.6-2.7l2.6,2.5l-2.6,2.7L304.1,295z M308.8,290.2l2.7-2.7l2.6,2.5l-2.7,2.7
					L308.8,290.2z M313.6,285.3l2.5-2.5l2.6,2.5l-2.5,2.5L313.6,285.3z M318.1,280.6l2.7-2.7l2.6,2.5l-2.7,2.7L318.1,280.6z
					 M322.9,275.8l2.6-2.7l2.6,2.5l-2.6,2.7L322.9,275.8z M327.6,270.9l2.7-2.7l2.6,2.5l-2.7,2.7L327.6,270.9z M332.3,266.1l2.6-2.7
					l2.6,2.5l-2.6,2.7L332.3,266.1z M334.9,259.2l-2.8-2.7l2.7-2.7l2.8,2.7L334.9,259.2z M329.7,239.4l2.7,2.6l-2.6,2.7l-2.7-2.6
					L329.7,239.4z M325,244.2l2.7,2.6l-2.7,2.7l-2.7-2.6L325,244.2z M320.3,239.6l2.6,2.5l-2.7,2.7l-2.6-2.5L320.3,239.6z
					 M315.6,244.5l2.6,2.5l-2.6,2.7l-2.6-2.5L315.6,244.5z M310.7,239.7l2.8,2.7l-2.6,2.7l-2.8-2.7L310.7,239.7z M306,244.5l2.8,2.7
					l-2.7,2.7l-2.8-2.7L306,244.5z M301.2,239.8l2.7,2.6l-2.7,2.7l-2.7-2.6L301.2,239.8z M296.4,244.7l2.7,2.6l-2.6,2.7l-2.7-2.6
					L296.4,244.7z M291.6,239.9l2.7,2.6l-2.6,2.7l-2.7-2.6L291.6,239.9z M286.9,244.8l2.7,2.6l-2.7,2.7l-2.7-2.6L286.9,244.8z
					 M282.2,240.2l2.6,2.5l-2.7,2.7l-2.6-2.5L282.2,240.2z M277.4,245l2.6,2.5l-2.5,2.5l-2.6-2.5L277.4,245z M272.5,240.3l2.8,2.7
					l-2.5,2.5l-2.8-2.7L272.5,240.3z M268,244.9l2.8,2.7l-2.7,2.7l-2.8-2.7L268,244.9z M263,240.1l2.8,2.8l-2.7,2.7l-2.8-2.8
					L263,240.1z M258.3,245l2.8,2.8l-2.6,2.7l-2.8-2.8L258.3,245z M253.4,240.2l2.7,2.6l-2.6,2.7l-2.7-2.6L253.4,240.2z
					 M248.7,245.1l2.7,2.6l-2.7,2.7l-2.7-2.6L248.7,245.1z M244,240.5l2.6,2.5l-2.7,2.7l-2.6-2.5L244,240.5z M239.3,245.3l2.6,2.5
					l-2.6,2.7l-2.6-2.5L239.3,245.3z M234.4,240.6l2.8,2.7l-2.6,2.7l-2.8-2.7L234.4,240.6z M227,248.1l2.7-2.7l2.8,2.7l-2.7,2.7
					L227,248.1z M227.2,257.7l2.6-2.7l2.6,2.5l-2.6,2.7L227.2,257.7z M227.1,267.1l2.7-2.7l2.7,2.6l-2.7,2.7L227.1,267.1z
					 M232,271.9l2.7-2.7l2.8,2.8l-2.7,2.7L232,271.9z M236.9,276.7l2.7-2.7l2.8,2.7l-2.7,2.7L236.9,276.7z M241.8,281.5l2.7-2.7
					l2.6,2.5l-2.7,2.7L241.8,281.5z M246.5,286.1l2.7-2.7l2.7,2.6l-2.7,2.7L246.5,286.1z M251.4,290.8l2.7-2.7l2.7,2.6l-2.7,2.7
					L251.4,290.8z M256.2,295.5l2.7-2.7l2.8,2.7l-2.7,2.7L256.2,295.5z M261.1,300.3l2.7-2.7l2.6,2.5l-2.7,2.7L261.1,300.3z
					 M265.8,304.9l2.7-2.7l2.7,2.6l-2.7,2.7L265.8,304.9z M270.6,309.6l2.7-2.7l2.8,2.8l-2.7,2.7L270.6,309.6z M275.6,314.4l2.7-2.7
					l2.8,2.7l-2.7,2.7L275.6,314.4z M280.5,319.2l2.7-2.7l2.6,2.5l-2.7,2.7L280.5,319.2z M287.9,326.4l-2.7-2.6l2.7-2.7l2.7,2.6
					L287.9,326.4z M292.6,321.6l-2.7-2.6l2.6-2.7l2.7,2.6L292.6,321.6z M297.3,316.7l-2.7-2.6l2.7-2.7l2.7,2.6L297.3,316.7z
					 M302.1,311.9l-2.7-2.6l2.6-2.7l2.7,2.6L302.1,311.9z M306.8,307.1l-2.7-2.6l2.7-2.7l2.7,2.6L306.8,307.1z M311.5,302.2
					l-2.7-2.6l2.6-2.7l2.7,2.6L311.5,302.2z M316.2,297.4l-2.7-2.6l2.7-2.7l2.7,2.6L316.2,297.4z M321,292.5l-2.7-2.6l2.5-2.5
					l2.7,2.6L321,292.5z M325.5,287.9l-2.7-2.6l2.7-2.7l2.7,2.6L325.5,287.9z M330.3,283l-2.7-2.6l2.6-2.7l2.7,2.6L330.3,283z
					 M335,278.2l-2.7-2.6l2.7-2.7l2.7,2.6L335,278.2z M342.3,270.6l-2.6,2.7l-2.7-2.6l2.6-2.7L342.3,270.6z M342.2,261.1l-2.7,2.7
					l-2.6-2.5l2.7-2.7L342.2,261.1z M342.3,251.6l-2.6,2.7l-2.8-2.7l2.6-2.7L342.3,251.6z M339.5,244.7l-2.8-2.8l2.7-2.7l2.8,2.8
					L339.5,244.7z"/>
				<g id="Main-Pickets_11_">
					
						<rect x="228.8" y="266.1" transform="matrix(0.9999 -1.193565e-002 1.193565e-002 0.9999 -3.6478 2.8134)" class="st9" width="10.2" height="81.8"/>
					
						<rect x="239" y="266" transform="matrix(0.9999 -1.193565e-002 1.193565e-002 0.9999 -3.6456 2.9354)" class="st9" width="10.2" height="81.8"/>
					
						<rect x="249.2" y="265.8" transform="matrix(0.9999 -1.193565e-002 1.193565e-002 0.9999 -3.6434 3.0575)" class="st9" width="10.2" height="81.8"/>
					
						<rect x="259.4" y="265.7" transform="matrix(0.9999 -1.193565e-002 1.193565e-002 0.9999 -3.6412 3.1795)" class="st9" width="10.2" height="81.8"/>
					
						<rect x="269.7" y="265.6" transform="matrix(0.9999 -1.193565e-002 1.193565e-002 0.9999 -3.639 3.3015)" class="st9" width="10.2" height="81.8"/>
					
						<rect x="279.9" y="265.5" transform="matrix(0.9999 -1.193565e-002 1.193565e-002 0.9999 -3.6368 3.4236)" class="st9" width="10.2" height="81.8"/>
					
						<rect x="290.1" y="265.4" transform="matrix(0.9999 -1.193565e-002 1.193565e-002 0.9999 -3.6347 3.5456)" class="st9" width="10.2" height="81.8"/>
					
						<rect x="300.3" y="265.2" transform="matrix(0.9999 -1.193565e-002 1.193565e-002 0.9999 -3.6325 3.6677)" class="st9" width="10.2" height="81.8"/>
					
						<rect x="310.6" y="265.1" transform="matrix(0.9999 -1.193565e-002 1.193565e-002 0.9999 -3.6303 3.7897)" class="st9" width="10.2" height="81.8"/>
					
						<rect x="320.8" y="265" transform="matrix(0.9999 -1.193565e-002 1.193565e-002 0.9999 -3.6281 3.9117)" class="st9" width="10.2" height="81.8"/>
					
						<rect x="331" y="264.9" transform="matrix(0.9999 -1.193565e-002 1.193565e-002 0.9999 -3.6259 4.0338)" class="st9" width="10.2" height="81.8"/>
				</g>
				<g id="U-channel_11_">
					
						<rect x="227.6" y="266.2" transform="matrix(0.9999 -1.193565e-002 1.193565e-002 0.9999 -3.6324 2.7469)" class="st9" width="1.5" height="79.1"/>
					
						<rect x="341.2" y="264.8" transform="matrix(0.9999 -1.193565e-002 1.193565e-002 0.9999 -3.6081 4.1034)" class="st9" width="1.5" height="79.1"/>
				</g>
				<g id="Rail-Complete_11_">
					<g id="Rails_11_">
						<g id="Bottom-Rail_13_">
							
								<rect x="223.4" y="234.8" transform="matrix(-0.9999 1.193178e-002 -1.193178e-002 -0.9999 571.3279 475.233)" class="st8" width="121.6" height="9.1"/>
							<path class="st8" d="M344.9,234.1l0.1,8.9l-121.4,1.4l-0.1-8.9L344.9,234.1 M345.1,233.9l-121.9,1.5l0.1,9.4l121.9-1.5
								L345.1,233.9L345.1,233.9z"/>
						</g>
						<g id="Top-Rail_13_">
							
								<rect x="224.6" y="344.7" transform="matrix(-0.9999 1.193183e-002 -1.193183e-002 -0.9999 574.8849 695.0575)" class="st8" width="121.6" height="9.1"/>
							<path class="st8" d="M346,344.1l0.1,8.9l-121.4,1.4l-0.1-8.9L346,344.1 M346.2,343.8l-121.9,1.5l0.1,9.4l121.9-1.5
								L346.2,343.8L346.2,343.8z"/>
						</g>
					</g>
					<g id="middle_rail_13_">
						
							<rect x="224" y="259.5" transform="matrix(-0.9999 1.193183e-002 -1.193183e-002 -0.9999 572.6866 524.6409)" class="st8" width="121.6" height="9.1"/>
						<path class="st8" d="M345.4,258.9l0.1,8.9l-121.4,1.4l-0.1-8.9L345.4,258.9 M345.6,258.6l-121.9,1.5l0.1,9.4l121.9-1.5
							L345.6,258.6L345.6,258.6z"/>
					</g>
				</g>
				<g id="Short-Posts_11_">
					<g id="Left_Post_14_">
						
							<rect x="219.1" y="233" transform="matrix(-0.9999 1.190462e-002 -1.190462e-002 -0.9999 449.9963 589.3468)" class="st8" width="8.3" height="126.1"/>
						<path class="st8" d="M226.5,233.1l1.5,125.8l-8,0.1l-1.5-125.8L226.5,233.1 M226.8,232.8l-8.5,0.1l1.5,126.3l8.5-0.1
							L226.8,232.8L226.8,232.8z"/>
					</g>
					<g id="Right_Post_14_">
						<polygon class="st8" points="341.8,230.7 350,230.6 351.6,357.7 343.3,357.8 						"/>
						<path class="st8" d="M349.9,230.8l1.6,126.8l-8,0.1l-1.6-126.8L349.9,230.8 M350.2,230.5l-8.5,0.1l1.6,127.3l8.5-0.1
							L350.2,230.5L350.2,230.5z"/>
					</g>
				</g>
				<g id="caps_11_">
					
						<rect x="217.9" y="231.5" transform="matrix(0.9999 -1.065973e-002 1.065973e-002 0.9999 -2.4639 2.3838)" class="st9" width="8.9" height="1.6"/>
					<polygon class="st9" points="350.3,231.7 341.5,231.9 341.5,230.3 350.3,230.1 					"/>
				</g>
			</g>
		</g>
	</g>
	<g>
		
			<image style="overflow:visible;opacity:0.48;" width="527" height="502" xlink:href="BACF28DF.png"  transform="matrix(0.24 0 0 0.24 297.4108 307.784)">
		</image>
		<g>
			<path class="st11" d="M328.1,330.2l77.2-4.4c1,0,0,0-0.8,0.5l-46.7,34.5c-0.1,0.1-0.2,0.1-0.3,0.2l-33.4,47.1
				c-6.5,2.1-12,3.4-6.5-0.6l9.6-77C327.3,330.1,327.6,330.2,328.1,330.2z"/>
		</g>
	</g>
</g>
<g id="objects">
</g>
</svg>
