<?xml version="1.0" encoding="utf-8"?>
<!-- Generator: Adobe Illustrator 19.1.0, SVG Export Plug-In . SVG Version: 6.00 Build 0)  -->
<svg version="1.1" xmlns="http://www.w3.org/2000/svg" xmlns:xlink="http://www.w3.org/1999/xlink" x="0px" y="0px"
	 viewBox="0 0 417.9 501.7" style="enable-background:new 0 0 417.9 501.7;" xml:space="preserve">
<style type="text/css">
	.st0{fill:#D8D8D8;}
	.st1{opacity:0.26;}
	.st2{fill:#2B2A2A;}
	.st3{fill:#3195AB;}
	.st4{fill:#EF4438;}
	.st5{fill:#80C342;}
	.st6{fill:#F9ED28;}
	.st7{fill:#FFFFFF;}
	.st8{fill:none;stroke:#EF4438;stroke-width:0.7222;stroke-miterlimit:10;}
	.st9{fill:#EAEAEA;}
	.st10{fill:#8E8E8E;}
	.st11{fill:#8E8E8E;stroke:#454545;stroke-width:5;stroke-miterlimit:10;}
	.st12{fill:#707071;stroke:#1E1E1E;stroke-miterlimit:10;}
	.st13{fill:none;stroke:#8E8E8E;stroke-miterlimit:10;}
	.st14{fill:none;stroke:#606161;stroke-miterlimit:10;}
	.st15{fill:none;stroke:#BF5F28;stroke-miterlimit:10;}
	.st16{fill:#BE384B;}
	.st17{fill:#231F20;}
	.st18{fill:#E8E8E8;}
	.st19{fill:#353535;}
</style>
<g id="Layer_1">
	<g>
		<rect x="15.3" class="st0" width="402.2" height="36.3"/>
	</g>
	<g>
		<g class="st1">
			<line class="st2" x1="26.4" y1="47.4" x2="429" y2="47.4"/>
		</g>
		<g>
			<line class="st3" x1="15.3" y1="36.3" x2="417.9" y2="36.3"/>
		</g>
	</g>
	<circle class="st4" cx="411" cy="6.6" r="2.4"/>
	<circle class="st5" cx="395.7" cy="6.6" r="2.4"/>
	<circle class="st6" cx="403.5" cy="6.6" r="2.4"/>
	<path class="st7" d="M385.7,22.4H56.3c-0.8,0-1.4-0.6-1.4-1.4v-5c0-0.8,0.6-1.4,1.4-1.4h329.5c0.8,0,1.4,0.6,1.4,1.4v5
		C387.1,21.8,386.5,22.4,385.7,22.4z"/>
	<g>
		<g>
			<polygon class="st4" points="47.4,17.6 44.9,17.6 47.4,15.1 49.9,17.6 			"/>
			<rect x="45.4" y="17.6" class="st4" width="4" height="3.5"/>
			<rect x="46.8" y="19" class="st0" width="1.2" height="2.7"/>
			<rect x="48.5" y="15.3" class="st4" width="0.3" height="0.8"/>
		</g>
		<circle class="st8" cx="39.1" cy="18.3" r="2.8"/>
		<rect x="40.2" y="17" class="st0" width="3.5" height="2.5"/>
		<polygon class="st8" points="41.9,16.3 42,17.5 40.9,17.4 		"/>
		<rect x="27.6" y="18.1" class="st4" width="4.3" height="1"/>
		<path class="st4" d="M31.8,17.9l-0.9-1.3l3,1.9c0.1,0,0.1,0.1,0,0.2l-2.7,1.8l0.7-1.5"/>
		<rect x="21.4" y="18.1" class="st4" width="3.8" height="1"/>
		<path class="st4" d="M21.5,19.3l0.9,1.3l-3-1.9c-0.1,0-0.1-0.1,0-0.2l2.7-1.8l-0.7,1.5"/>
	</g>
	<line class="st9" x1="15.3" y1="36.3" x2="417.9" y2="36.3"/>
	<polygon class="st10" points="15.3,489.6 15.3,0 0,26.4 0.4,488.9 0.4,496.4 0,501.7 400.7,501.7 417.5,488.3 	"/>
	<path class="st11" d="M15.3,480.1"/>
	<path class="st12" d="M-38.4,478.8"/>
	<line class="st13" x1="416.9" y1="0" x2="416.9" y2="488.3"/>
	<rect x="-106.3" y="167" class="st14" width="2" height="0"/>
	<path class="st15" d="M16.8,54"/>
	<path class="st15" d="M-0.7,83.5"/>
</g>
<g id="objects">
	<g>
		<path class="st16" d="M46,53h5.6v1.8h-3.3v0.9h3.3v1.8h-3.3v2.8H46V53z"/>
		<path class="st16" d="M55,54.9c1.6,0,2.8,1.1,2.8,3v0.4h-3.6c0.1,0.3,0.5,0.7,1.2,0.7c0.5,0,0.9-0.2,1.2-0.4l0.8,1.2
			c-0.5,0.5-1.5,0.7-2.3,0.7c-1.7,0-3-1-3-2.8C52.1,56.1,53.3,54.9,55,54.9z M54.1,57h1.7c-0.1-0.2-0.2-0.6-0.9-0.6
			C54.4,56.4,54.2,56.8,54.1,57z"/>
		<path class="st16" d="M62.1,57.4c0-0.5-0.3-0.8-0.8-0.8c-0.5,0-0.7,0.2-0.8,0.4v3.3h-2V55h2v0.6c0.3-0.4,0.9-0.7,1.8-0.7
			c1.2,0,1.8,0.7,1.8,1.7v3.8h-2V57.4z"/>
		<path class="st16" d="M67.8,54.9c1.2,0,2,0.6,2.3,1l-1.3,1.2c-0.2-0.3-0.5-0.5-0.9-0.5c-0.6,0-1,0.4-1,1s0.5,1,1,1
			c0.4,0,0.7-0.2,0.9-0.5l1.3,1.2c-0.3,0.4-1,1-2.3,1c-1.7,0-3-1.1-3-2.8C64.8,56,66.1,54.9,67.8,54.9z"/>
		<path class="st16" d="M70.5,53.4c0-0.6,0.5-1.1,1.1-1.1c0.6,0,1.1,0.5,1.1,1.1s-0.5,1.1-1.1,1.1C71,54.5,70.5,54,70.5,53.4z
			 M70.7,55h2v5.3h-2V55z"/>
		<path class="st16" d="M77.3,57.4c0-0.5-0.3-0.8-0.8-0.8c-0.5,0-0.7,0.2-0.8,0.4v3.3h-2V55h2v0.6c0.3-0.4,0.9-0.7,1.8-0.7
			c1.2,0,1.8,0.7,1.8,1.7v3.8h-2V57.4z"/>
		<path class="st16" d="M81.1,60.3c0.4,0.4,1,0.6,1.6,0.6c0.5,0,1.2-0.2,1.2-1.1v-0.3c-0.5,0.5-0.9,0.7-1.5,0.7
			c-1.3,0-2.3-0.8-2.3-2.7c0-1.8,1-2.7,2.3-2.7c0.5,0,1.1,0.2,1.5,0.7V55h2v4.7c0,2.3-1.9,2.7-3.2,2.7c-0.9,0-1.7-0.2-2.4-0.8
			L81.1,60.3z M83.9,57c-0.2-0.2-0.6-0.3-0.8-0.3c-0.5,0-1,0.3-1,0.9s0.5,0.9,1,0.9c0.3,0,0.6-0.1,0.8-0.3V57z"/>
		<path class="st16" d="M89.8,53H92v5.4h2.8v1.9h-5V53z"/>
		<path class="st16" d="M95.5,53.4c0-0.6,0.5-1.1,1.1-1.1c0.6,0,1.1,0.5,1.1,1.1s-0.5,1.1-1.1,1.1C96,54.5,95.5,54,95.5,53.4z
			 M95.7,55h2v5.3h-2V55z"/>
		<path class="st16" d="M102.3,57.4c0-0.5-0.3-0.8-0.8-0.8c-0.5,0-0.7,0.2-0.8,0.4v3.3h-2V55h2v0.6c0.3-0.4,0.9-0.7,1.8-0.7
			c1.2,0,1.8,0.7,1.8,1.7v3.8h-2V57.4z"/>
		<path class="st16" d="M107.8,58.6l-0.4,0.5v1.2h-2V53h2v3.9l1.2-1.9h2.4l-1.8,2.4l1.9,2.9h-2.4L107.8,58.6z"/>
		<path class="st16" d="M114.4,53h3.3c2.3,0,4,1.3,4,3.7c0,2.3-1.7,3.7-4,3.7h-3.3V53z M117.7,58.4c1.1,0,1.8-0.8,1.8-1.7
			c0-1-0.6-1.7-1.8-1.7h-1.1v3.5H117.7z"/>
		<path class="st16" d="M122.3,53.4c0-0.6,0.5-1.1,1.1-1.1c0.6,0,1.1,0.5,1.1,1.1s-0.5,1.1-1.1,1.1C122.8,54.5,122.3,54,122.3,53.4z
			 M122.4,55h2v5.3h-2V55z"/>
		<path class="st16" d="M125.5,55h2v0.6c0.3-0.4,1-0.7,1.6-0.7v1.9c-0.1,0-0.3-0.1-0.5-0.1c-0.4,0-1,0.1-1.2,0.4v3.2h-2V55z"/>
		<path class="st16" d="M132.3,54.9c1.6,0,2.8,1.1,2.8,3v0.4h-3.6c0.1,0.3,0.5,0.7,1.2,0.7c0.5,0,0.9-0.2,1.2-0.4l0.8,1.2
			c-0.5,0.5-1.5,0.7-2.3,0.7c-1.7,0-3-1-3-2.8C129.5,56.1,130.6,54.9,132.3,54.9z M131.5,57h1.7c-0.1-0.2-0.2-0.6-0.9-0.6
			C131.7,56.4,131.5,56.8,131.5,57z"/>
		<path class="st16" d="M138.4,54.9c1.2,0,2,0.6,2.3,1l-1.3,1.2c-0.2-0.3-0.5-0.5-0.9-0.5c-0.6,0-1,0.4-1,1s0.5,1,1,1
			c0.4,0,0.7-0.2,0.9-0.5l1.3,1.2c-0.3,0.4-1,1-2.3,1c-1.7,0-3-1.1-3-2.8C135.4,56,136.7,54.9,138.4,54.9z"/>
		<path class="st16" d="M141.7,58.8v-2.1h-0.9V55h0.9v-1.5h2V55h1.1v1.7h-1.1v1.5c0,0.3,0.2,0.5,0.4,0.5c0.2,0,0.4-0.1,0.4-0.1
			l0.4,1.5c-0.2,0.2-0.7,0.4-1.3,0.4C142.4,60.5,141.7,59.9,141.7,58.8z"/>
		<path class="st16" d="M145.1,57.7c0-1.5,1.1-2.8,3-2.8c1.9,0,3,1.3,3,2.8c0,1.5-1.1,2.8-3,2.8C146.2,60.5,145.1,59.1,145.1,57.7z
			 M149.1,57.7c0-0.6-0.3-1-1-1c-0.6,0-0.9,0.5-0.9,1c0,0.6,0.3,1,0.9,1C148.7,58.7,149.1,58.3,149.1,57.7z"/>
		<path class="st16" d="M151.9,55h2v0.6c0.3-0.4,1-0.7,1.6-0.7v1.9c-0.1,0-0.3-0.1-0.5-0.1c-0.4,0-1,0.1-1.2,0.4v3.2h-2V55z"/>
		<path class="st16" d="M156.8,60.7c0.4,0,0.6-0.1,0.7-0.2l0-0.1l-2.1-5.4h2.1l1,3l1-3h2.1l-2.3,6c-0.5,1.2-1.4,1.5-2.5,1.5
			c-0.1,0-0.6,0-0.8-0.1l0.3-1.8C156.5,60.7,156.7,60.7,156.8,60.7z"/>
	</g>
	<g>
		<path class="st17" d="M222.4,58.7c0.4,0.6,1.1,1,2,1c1.1,0,1.5-0.7,1.5-1.3c0-0.6-0.7-0.9-1.4-1.2c-0.8-0.3-1.6-0.7-1.6-1.6
			c0-0.9,0.9-1.7,2-1.7c0.9,0,1.7,0.4,2.1,0.9l-0.4,0.4c-0.4-0.6-1.1-0.8-1.7-0.8c-0.8,0-1.4,0.6-1.4,1.2c0,0.6,0.6,0.8,1.3,1.1
			c0.8,0.3,1.7,0.7,1.7,1.6c0,0.9-0.7,1.8-2.1,1.8c-1,0-1.9-0.5-2.3-1.1L222.4,58.7z"/>
		<path class="st17" d="M228.1,58.6c0,0.1-0.1,0.2-0.1,0.3c0,0.5,0.4,0.8,1,0.8s1.1-0.4,1.5-0.8l0.7-3.3h0.5l-1,4.3h-0.5l0.1-0.7
			c-0.4,0.4-1,0.8-1.6,0.8c-0.7,0-1.3-0.4-1.3-1.1c0-0.1,0-0.3,0.1-0.4l0.7-3h0.5L228.1,58.6z"/>
		<path class="st17" d="M232.6,60h-0.5l1.3-6h0.5l-0.5,2.3c0.4-0.5,0.9-0.8,1.5-0.8c1,0,1.7,0.7,1.7,1.8c0,1.4-0.9,2.8-2.3,2.8
			c-0.7,0-1.3-0.4-1.6-0.8L232.6,60z M234.8,56c-0.6,0-1.2,0.4-1.5,0.8l-0.5,2.1c0.2,0.4,0.7,0.8,1.4,0.8c1.1,0,1.8-1.1,1.8-2.3
			C236.1,56.5,235.6,56,234.8,56z"/>
		<path class="st17" d="M243.2,57c0,0,0-0.2,0-0.3c0-0.5-0.4-0.7-0.8-0.7c-0.5,0-1,0.4-1.3,0.8l-0.7,3.3h-0.5l0.7-3
			c0-0.1,0-0.2,0-0.3c0-0.4-0.3-0.7-0.8-0.7c-0.5,0-0.9,0.4-1.3,0.8l-0.7,3.3h-0.5l1-4.3h0.5l-0.1,0.7c0.2-0.3,0.8-0.8,1.4-0.8
			c0.7,0,1.1,0.5,1.1,0.8v0c0.3-0.4,0.9-0.9,1.5-0.9c0.6,0,1.1,0.4,1.1,1.1c0,0.1,0,0.2-0.1,0.4l-0.7,3h-0.5L243.2,57z"/>
		<path class="st17" d="M245.4,55.6h0.5l-1,4.3h-0.5L245.4,55.6z M245.9,54.2c0.2,0,0.3,0.1,0.3,0.3c0,0.3-0.2,0.4-0.4,0.4
			c-0.2,0-0.3-0.1-0.3-0.3C245.5,54.3,245.7,54.2,245.9,54.2z"/>
		<path class="st17" d="M246.6,59.1l0.7-3.1h-0.7l0.1-0.4h0.7l0.3-1.2h0.5l-0.3,1.2h0.9l-0.1,0.4h-0.9l-0.7,3c0,0,0,0.1,0,0.2
			c0,0.3,0.2,0.4,0.4,0.4c0.2,0,0.4-0.1,0.5-0.2l0.1,0.4c-0.2,0.1-0.4,0.2-0.6,0.2c-0.5,0-0.9-0.2-0.9-0.7
			C246.6,59.3,246.6,59.2,246.6,59.1z"/>
		<path class="st17" d="M251.5,58.7c0.4,0.6,1.1,1,2,1c1.1,0,1.5-0.7,1.5-1.3c0-0.6-0.7-0.9-1.4-1.2c-0.8-0.3-1.6-0.7-1.6-1.6
			c0-0.9,0.9-1.7,2-1.7c0.9,0,1.7,0.4,2.1,0.9l-0.4,0.4c-0.4-0.6-1.1-0.8-1.7-0.8c-0.8,0-1.4,0.6-1.4,1.2c0,0.6,0.6,0.8,1.3,1.1
			c0.8,0.3,1.7,0.7,1.7,1.6c0,0.9-0.7,1.8-2.1,1.8c-1,0-1.9-0.5-2.3-1.1L251.5,58.7z"/>
		<path class="st17" d="M257.3,55.6h0.5l-1,4.3h-0.5L257.3,55.6z M257.8,54.2c0.2,0,0.3,0.1,0.3,0.3c0,0.3-0.2,0.4-0.4,0.4
			c-0.2,0-0.3-0.1-0.3-0.3C257.4,54.3,257.7,54.2,257.8,54.2z"/>
		<path class="st17" d="M258.6,59.1l0.7-3.1h-0.7l0.1-0.4h0.7l0.3-1.2h0.5l-0.3,1.2h0.9l-0.1,0.4h-0.9l-0.7,3c0,0,0,0.1,0,0.2
			c0,0.3,0.2,0.4,0.4,0.4c0.2,0,0.4-0.1,0.5-0.2l0.1,0.4c-0.2,0.1-0.4,0.2-0.6,0.2c-0.5,0-0.9-0.2-0.9-0.7
			C258.5,59.3,258.6,59.2,258.6,59.1z"/>
		<path class="st17" d="M263.4,55.5c1.2,0,1.8,0.8,1.8,1.9c0,0.2,0,0.4-0.1,0.5h-3.7c0,0.1,0,0.2,0,0.3c0,0.8,0.5,1.5,1.6,1.5
			c0.4,0,0.9-0.2,1.3-0.5l0.2,0.3c-0.4,0.3-0.9,0.5-1.5,0.5c-1.3,0-2.1-0.8-2.1-1.9C260.9,56.7,262,55.5,263.4,55.5z M264.8,57.4
			c0-0.8-0.5-1.5-1.5-1.5c-0.9,0-1.6,0.8-1.8,1.7h3.2C264.8,57.6,264.8,57.5,264.8,57.4z"/>
		<path class="st17" d="M276.5,54h3.8l-0.1,0.5H277l-0.5,2.2h3.2l-0.1,0.5h-3.2l-0.6,2.8h-0.5L276.5,54z"/>
		<path class="st17" d="M282.7,55.5c1.2,0,1.8,0.8,1.8,1.9c0,0.2,0,0.4-0.1,0.5h-3.7c0,0.1,0,0.2,0,0.3c0,0.8,0.5,1.5,1.6,1.5
			c0.4,0,0.9-0.2,1.3-0.5l0.2,0.3c-0.4,0.3-0.9,0.5-1.5,0.5c-1.3,0-2.1-0.8-2.1-1.9C280.2,56.7,281.3,55.5,282.7,55.5z M284.1,57.4
			c0-0.8-0.5-1.5-1.5-1.5c-0.9,0-1.6,0.8-1.8,1.7h3.2C284.1,57.6,284.1,57.5,284.1,57.4z"/>
		<path class="st17" d="M288.8,57c0-0.1,0.1-0.2,0.1-0.3c0-0.5-0.4-0.8-0.9-0.8c-0.6,0-1.1,0.4-1.5,0.8l-0.7,3.3h-0.5l1-4.3h0.5
			l-0.1,0.7c0.4-0.4,1-0.8,1.6-0.8c0.7,0,1.3,0.4,1.3,1.1c0,0.1,0,0.3-0.1,0.4l-0.7,3h-0.5L288.8,57z"/>
		<path class="st17" d="M292.6,55.5c0.7,0,1.3,0.3,1.6,0.8l-0.4,0.3c-0.3-0.4-0.7-0.6-1.2-0.6c-1.2,0-1.9,1.1-1.9,2.2
			c0,1,0.6,1.5,1.5,1.5c0.5,0,0.9-0.2,1.2-0.6l0.3,0.3c-0.4,0.4-0.8,0.7-1.5,0.7c-1.1,0-1.9-0.7-1.9-1.9
			C290.2,56.7,291.3,55.5,292.6,55.5z"/>
		<path class="st17" d="M297.1,55.5c1.2,0,1.8,0.8,1.8,1.9c0,0.2,0,0.4-0.1,0.5h-3.7c0,0.1,0,0.2,0,0.3c0,0.8,0.5,1.5,1.6,1.5
			c0.4,0,0.9-0.2,1.3-0.5l0.2,0.3c-0.4,0.3-0.9,0.5-1.5,0.5c-1.3,0-2.1-0.8-2.1-1.9C294.7,56.7,295.7,55.5,297.1,55.5z M298.5,57.4
			c0-0.8-0.5-1.5-1.5-1.5c-0.9,0-1.6,0.8-1.8,1.7h3.2C298.5,57.6,298.5,57.5,298.5,57.4z"/>
		<path class="st17" d="M303.3,54h0.5l-1.2,5.5h2.9l-0.1,0.5h-3.4L303.3,54z"/>
		<path class="st17" d="M307.5,55.6h0.5l-1,4.3h-0.5L307.5,55.6z M308,54.2c0.2,0,0.3,0.1,0.3,0.3c0,0.3-0.2,0.4-0.4,0.4
			c-0.2,0-0.3-0.1-0.3-0.3C307.6,54.3,307.9,54.2,308,54.2z"/>
		<path class="st17" d="M312.1,57c0-0.1,0.1-0.2,0.1-0.3c0-0.5-0.4-0.8-0.9-0.8c-0.6,0-1.1,0.4-1.5,0.8L309,60h-0.5l1-4.3h0.5
			l-0.1,0.7c0.4-0.4,1-0.8,1.6-0.8c0.7,0,1.3,0.4,1.3,1.1c0,0.1,0,0.3-0.1,0.4l-0.7,3h-0.5L312.1,57z"/>
		<path class="st17" d="M315.1,57.9l-1,0.8l-0.3,1.3h-0.5l1.3-6h0.5l-0.9,4.1l3.1-2.4h0.7l-2.5,2L317,60h-0.6L315.1,57.9z"/>
		<path class="st17" d="M318,59c0.2,0.4,0.8,0.7,1.4,0.7c0.7,0,1.2-0.4,1.2-0.9c0-0.4-0.5-0.6-1-0.9c-0.6-0.2-1.3-0.5-1.3-1.2
			c0-0.7,0.6-1.3,1.6-1.3c0.7,0,1.3,0.3,1.6,0.7l-0.3,0.3c-0.2-0.3-0.7-0.6-1.3-0.6c-0.7,0-1.1,0.3-1.1,0.8c0,0.4,0.5,0.6,1,0.8
			c0.6,0.3,1.3,0.5,1.3,1.2c0,0.7-0.6,1.4-1.6,1.4c-0.8,0-1.4-0.3-1.7-0.8L318,59z"/>
		<path class="st17" d="M332.7,54h3.8l-0.1,0.5h-3.3l-0.5,2.2h3.2l-0.1,0.5h-3.2l-0.6,2.8h-0.5L332.7,54z"/>
		<path class="st17" d="M338.8,55.5c1.2,0,1.8,0.8,1.8,1.9c0,0.2,0,0.4-0.1,0.5h-3.7c0,0.1,0,0.2,0,0.3c0,0.8,0.5,1.5,1.6,1.5
			c0.4,0,0.9-0.2,1.3-0.5l0.2,0.3c-0.4,0.3-0.9,0.5-1.5,0.5c-1.3,0-2.1-0.8-2.1-1.9C336.4,56.7,337.4,55.5,338.8,55.5z M340.2,57.4
			c0-0.8-0.5-1.5-1.5-1.5c-0.9,0-1.6,0.8-1.8,1.7h3.2C340.2,57.6,340.2,57.5,340.2,57.4z"/>
		<path class="st17" d="M344.9,57c0-0.1,0.1-0.2,0.1-0.3c0-0.5-0.4-0.8-0.9-0.8c-0.6,0-1.1,0.4-1.5,0.8l-0.7,3.3h-0.5l1-4.3h0.5
			l-0.1,0.7c0.4-0.4,1-0.8,1.6-0.8c0.7,0,1.3,0.4,1.3,1.1c0,0.1,0,0.3-0.1,0.4l-0.7,3h-0.5L344.9,57z"/>
		<path class="st17" d="M348.8,55.5c0.7,0,1.3,0.3,1.6,0.8l-0.4,0.3c-0.3-0.4-0.7-0.6-1.2-0.6c-1.2,0-1.9,1.1-1.9,2.2
			c0,1,0.6,1.5,1.5,1.5c0.5,0,0.9-0.2,1.2-0.6l0.3,0.3c-0.4,0.4-0.8,0.7-1.5,0.7c-1.1,0-1.9-0.7-1.9-1.9
			C346.3,56.7,347.4,55.5,348.8,55.5z"/>
		<path class="st17" d="M353.2,55.5c1.2,0,1.8,0.8,1.8,1.9c0,0.2,0,0.4-0.1,0.5h-3.7c0,0.1,0,0.2,0,0.3c0,0.8,0.5,1.5,1.6,1.5
			c0.4,0,0.9-0.2,1.3-0.5l0.2,0.3c-0.4,0.3-0.9,0.5-1.5,0.5c-1.3,0-2.1-0.8-2.1-1.9C350.8,56.7,351.8,55.5,353.2,55.5z M354.6,57.4
			c0-0.8-0.5-1.5-1.5-1.5c-0.9,0-1.6,0.8-1.8,1.7h3.2C354.6,57.6,354.6,57.5,354.6,57.4z"/>
		<path class="st17" d="M362.2,58.5H359l-0.9,1.5h-0.6l3.8-6h0.6l1.1,6h-0.5L362.2,58.5z M359.3,58.1h2.9l-0.6-3.5L359.3,58.1z"/>
		<path class="st17" d="M364.8,55.6h0.5l-0.2,0.7c0.5-0.5,0.9-0.8,1.6-0.8l-0.1,0.5c-0.1,0-0.2,0-0.3,0c-0.5,0-1,0.4-1.3,0.8
			l-0.7,3.2h-0.5L364.8,55.6z"/>
		<path class="st17" d="M367,59.1l0.7-3.1H367l0.1-0.4h0.7l0.3-1.2h0.5l-0.3,1.2h0.9l-0.1,0.4h-0.9l-0.7,3c0,0,0,0.1,0,0.2
			c0,0.3,0.2,0.4,0.4,0.4c0.2,0,0.4-0.1,0.5-0.2l0.1,0.4c-0.2,0.1-0.4,0.2-0.6,0.2c-0.5,0-0.9-0.2-0.9-0.7
			C367,59.3,367,59.2,367,59.1z"/>
		<path class="st17" d="M370.2,55.6h0.5l-1,4.3h-0.5L370.2,55.6z M370.7,54.2c0.2,0,0.3,0.1,0.3,0.3c0,0.3-0.2,0.4-0.4,0.4
			c-0.2,0-0.3-0.1-0.3-0.3C370.3,54.3,370.5,54.2,370.7,54.2z"/>
		<path class="st17" d="M373.7,55.5c0.7,0,1.3,0.3,1.6,0.8l-0.4,0.3c-0.3-0.4-0.7-0.6-1.2-0.6c-1.2,0-1.9,1.1-1.9,2.2
			c0,1,0.6,1.5,1.5,1.5c0.5,0,0.9-0.2,1.2-0.6l0.3,0.3c-0.4,0.4-0.8,0.7-1.5,0.7c-1.1,0-1.9-0.7-1.9-1.9
			C371.3,56.7,372.4,55.5,373.7,55.5z"/>
		<path class="st17" d="M376.9,54h0.5l-1.3,6h-0.5L376.9,54z"/>
		<path class="st17" d="M380.1,55.5c1.2,0,1.8,0.8,1.8,1.9c0,0.2,0,0.4-0.1,0.5h-3.7c0,0.1,0,0.2,0,0.3c0,0.8,0.5,1.5,1.6,1.5
			c0.4,0,0.9-0.2,1.3-0.5l0.2,0.3c-0.4,0.3-0.9,0.5-1.5,0.5c-1.3,0-2.1-0.8-2.1-1.9C377.7,56.7,378.7,55.5,380.1,55.5z M381.5,57.4
			c0-0.8-0.5-1.5-1.5-1.5c-0.9,0-1.6,0.8-1.8,1.7h3.2C381.5,57.6,381.5,57.5,381.5,57.4z"/>
		<path class="st17" d="M382.8,59c0.2,0.4,0.8,0.7,1.4,0.7c0.7,0,1.2-0.4,1.2-0.9c0-0.4-0.5-0.6-1-0.9c-0.6-0.2-1.3-0.5-1.3-1.2
			c0-0.7,0.6-1.3,1.6-1.3c0.7,0,1.3,0.3,1.6,0.7l-0.3,0.3c-0.2-0.3-0.7-0.6-1.3-0.6c-0.7,0-1.1,0.3-1.1,0.8c0,0.4,0.5,0.6,1,0.8
			c0.6,0.3,1.3,0.5,1.3,1.2c0,0.7-0.6,1.4-1.6,1.4c-0.8,0-1.4-0.3-1.7-0.8L382.8,59z"/>
	</g>
	<rect x="15.3" y="75.5" class="st18" width="401.6" height="81.5"/>
	<g>
		
			<image style="overflow:visible;opacity:0.22;" width="107" height="105" xlink:href="480D0A5A.png"  transform="matrix(0.24 0 0 0.24 41.8926 105.0823)">
		</image>
		<g>
			<ellipse class="st19" cx="54.6" cy="116.6" rx="9.8" ry="9.5"/>
		</g>
	</g>
	<g>
		
			<image style="overflow:visible;opacity:0.22;" width="50" height="73" xlink:href="480D0A5E.png"  transform="matrix(0.24 0 0 0.24 48.2136 109.1999)">
		</image>
		<g>
			<polygon class="st7" points="54.6,117 56.9,122.6 51.2,117 57,111.2 			"/>
		</g>
	</g>
	<g>
		
			<image style="overflow:visible;opacity:0.22;" width="107" height="105" xlink:href="480D0A59.png"  transform="matrix(0.24 0 0 0.24 364.3926 104.749)">
		</image>
		<g>
			<ellipse class="st19" cx="377.1" cy="116.2" rx="9.8" ry="9.5"/>
		</g>
	</g>
	<g>
		
			<image style="overflow:visible;opacity:0.22;" width="50" height="73" xlink:href="480D0A5B.png"  transform="matrix(0.24 0 0 0.24 371.7969 108.8665)">
		</image>
		<g>
			<polygon class="st7" points="377.2,116.6 374.9,122.3 380.6,116.6 374.8,110.9 			"/>
		</g>
	</g>
	<polygon class="st16" points="146.4,157 309.7,75.5 354.7,75.5 199.1,157 	"/>
	<polygon class="st16" points="77.9,157 241.2,75.5 286.2,75.5 130.5,157 	"/>
</g>
<g id="_x3C_Layer_x3E_">
	<g>
		<path class="st19" d="M71.7,185.8h-4.4l-0.8,2h-0.8l3.4-8.2h0.9l3.4,8.2h-0.8L71.7,185.8z M67.5,185.1h3.9l-2-4.9L67.5,185.1z"/>
		<path class="st19" d="M74.5,179.6h3.4c1.4,0,2.3,0.8,2.3,2.1c0,1-0.7,1.7-1.4,1.9c0.9,0.1,1.6,1,1.6,2c0,1.4-0.9,2.2-2.4,2.2h-3.5
			V179.6z M77.8,183.3c1.1,0,1.6-0.7,1.6-1.5c0-0.8-0.6-1.5-1.6-1.5h-2.6v3H77.8z M77.9,187.2c1.1,0,1.7-0.6,1.7-1.6
			c0-0.8-0.6-1.6-1.7-1.6h-2.6v3.3H77.9z"/>
		<path class="st19" d="M81.8,183.7c0-2.5,1.8-4.3,4.1-4.3c1.3,0,2.3,0.6,3,1.5l-0.6,0.4c-0.5-0.7-1.4-1.2-2.4-1.2
			c-1.9,0-3.4,1.5-3.4,3.6c0,2.1,1.5,3.6,3.4,3.6c1,0,1.9-0.5,2.4-1.2l0.6,0.4c-0.7,0.9-1.7,1.5-3,1.5
			C83.6,187.9,81.8,186.2,81.8,183.7z"/>
		<path class="st19" d="M93.6,179.6h5.2v0.6h-4.5v3h4.4v0.6h-4.4v3.9h-0.7V179.6z"/>
		<path class="st19" d="M102.8,181.7c1.8,0,2.8,1.4,2.8,3.2v0.2h-5c0.1,1.3,0.9,2.4,2.3,2.4c0.8,0,1.4-0.3,2-0.8l0.3,0.4
			c-0.6,0.6-1.3,1-2.3,1c-1.7,0-3-1.3-3-3.1C99.9,183.1,101.2,181.7,102.8,181.7z M100.6,184.5h4.3c0-1-0.7-2.3-2.2-2.3
			C101.4,182.2,100.7,183.5,100.6,184.5z"/>
		<path class="st19" d="M111.3,183.8c0-1.1-0.6-1.5-1.4-1.5c-0.8,0-1.6,0.5-1.9,1v4.5h-0.6v-6h0.6v0.9c0.4-0.5,1.3-1,2.1-1
			c1.2,0,1.9,0.6,1.9,1.9v4.2h-0.6V183.8z"/>
		<path class="st19" d="M116.5,181.7c1,0,1.6,0.4,2.1,1l-0.4,0.4c-0.4-0.6-1-0.8-1.6-0.8c-1.4,0-2.2,1.1-2.2,2.5s0.9,2.6,2.2,2.6
			c0.7,0,1.2-0.2,1.6-0.8l0.4,0.4c-0.5,0.6-1.1,1-2.1,1c-1.8,0-2.9-1.4-2.9-3.1S114.8,181.7,116.5,181.7z"/>
		<path class="st19" d="M122.6,181.7c1.8,0,2.8,1.4,2.8,3.2v0.2h-5c0.1,1.3,0.9,2.4,2.3,2.4c0.8,0,1.4-0.3,2-0.8l0.3,0.4
			c-0.6,0.6-1.3,1-2.3,1c-1.7,0-3-1.3-3-3.1C119.7,183.1,120.9,181.7,122.6,181.7z M120.4,184.5h4.3c0-1-0.7-2.3-2.2-2.3
			C121.2,182.2,120.5,183.5,120.4,184.5z"/>
		<path class="st19" d="M130,183.7c0-2.5,1.8-4.3,4.1-4.3c1.3,0,2.3,0.6,3,1.5l-0.6,0.4c-0.5-0.7-1.4-1.2-2.4-1.2
			c-1.9,0-3.4,1.5-3.4,3.6c0,2.1,1.5,3.6,3.4,3.6c1,0,1.9-0.5,2.4-1.2l0.6,0.4c-0.7,0.9-1.7,1.5-3,1.5
			C131.8,187.9,130,186.2,130,183.7z"/>
		<path class="st19" d="M142.3,179.4c2.4,0,4,1.9,4,4.3s-1.6,4.3-4,4.3c-2.4,0-4-1.9-4-4.3S139.8,179.4,142.3,179.4z M142.3,180.1
			c-2,0-3.3,1.5-3.3,3.6c0,2.1,1.3,3.6,3.3,3.6c2,0,3.3-1.5,3.3-3.6C145.5,181.6,144.2,180.1,142.3,180.1z"/>
		<path class="st19" d="M148,186.8c0.3,0,0.6,0.2,0.6,0.5c0,0.3-0.3,0.6-0.6,0.6c-0.3,0-0.5-0.3-0.5-0.6
			C147.4,187.1,147.7,186.8,148,186.8z"/>
		<path class="st19" d="M152.9,184.5h3v0.6h-3V184.5z"/>
		<path class="st19" d="M164.5,183.7c0-1.1-0.6-1.5-1.4-1.5c-0.8,0-1.6,0.5-1.9,1v4.5h-0.6v-8.2h0.6v3.2c0.4-0.5,1.3-1,2.1-1
			c1.2,0,1.9,0.6,1.9,1.9v4.2h-0.6V183.7z"/>
		<path class="st19" d="M167.2,186.6v-4.2h-1v-0.6h1v-1.6h0.7v1.6h1.2v0.6h-1.2v4.1c0,0.5,0.2,0.8,0.6,0.8c0.3,0,0.5-0.1,0.7-0.3
			l0.2,0.5c-0.2,0.2-0.5,0.4-1,0.4C167.6,187.9,167.2,187.5,167.2,186.6z"/>
		<path class="st19" d="M170.6,186.6v-4.2h-1v-0.6h1v-1.6h0.7v1.6h1.2v0.6h-1.2v4.1c0,0.5,0.2,0.8,0.6,0.8c0.3,0,0.5-0.1,0.7-0.3
			l0.2,0.5c-0.2,0.2-0.5,0.4-1,0.4C171,187.9,170.6,187.5,170.6,186.6z"/>
		<path class="st19" d="M173.9,190.1v-8.2h0.6v0.9c0.4-0.6,1.2-1.1,2.1-1.1c1.6,0,2.7,1.2,2.7,3.1c0,1.9-1.1,3.1-2.7,3.1
			c-0.8,0-1.6-0.4-2.1-1.1v3.2H173.9z M176.5,182.3c-0.8,0-1.6,0.5-2,1.1v3c0.3,0.6,1.1,1.1,2,1.1c1.3,0,2.1-1.1,2.1-2.6
			S177.8,182.3,176.5,182.3z"/>
		<path class="st19" d="M181.3,181.7c0.3,0,0.6,0.2,0.6,0.5c0,0.3-0.3,0.5-0.6,0.5c-0.3,0-0.5-0.2-0.5-0.5
			C180.7,182,181,181.7,181.3,181.7z M181.3,186.8c0.3,0,0.6,0.2,0.6,0.5c0,0.3-0.3,0.6-0.6,0.6c-0.3,0-0.5-0.3-0.5-0.6
			C180.7,187.1,181,186.8,181.3,186.8z"/>
		<path class="st19" d="M185.6,179.3h0.6l-2.9,8.7h-0.6L185.6,179.3z"/>
		<path class="st19" d="M189,179.3h0.6l-2.9,8.7h-0.6L189,179.3z"/>
		<path class="st19" d="M194,182.7l-1.7,5.1h-0.6l-1.9-6h0.7l1.6,5.1l1.7-5.1h0.6l1.7,5.1l1.6-5.1h0.7l-1.9,6h-0.6L194,182.7z"/>
		<path class="st19" d="M202.9,182.7l-1.7,5.1h-0.6l-1.9-6h0.7l1.6,5.1l1.7-5.1h0.6l1.7,5.1l1.6-5.1h0.7l-1.9,6h-0.6L202.9,182.7z"
			/>
		<path class="st19" d="M211.8,182.7l-1.7,5.1h-0.6l-1.9-6h0.7l1.6,5.1l1.7-5.1h0.6l1.7,5.1l1.6-5.1h0.7l-1.9,6h-0.6L211.8,182.7z"
			/>
		<path class="st19" d="M217,186.8c0.3,0,0.6,0.2,0.6,0.5c0,0.3-0.3,0.6-0.6,0.6c-0.3,0-0.5-0.3-0.5-0.6
			C216.5,187.1,216.7,186.8,217,186.8z"/>
		<path class="st19" d="M223.2,187.1c-0.5,0.6-1.2,0.9-2,0.9c-1,0-2.1-0.7-2.1-2c0-1.3,1-2,2.1-2c0.8,0,1.5,0.3,2,0.9v-1.2
			c0-0.9-0.7-1.4-1.6-1.4c-0.7,0-1.3,0.3-1.9,0.9l-0.4-0.4c0.6-0.7,1.3-1,2.3-1c1.2,0,2.2,0.6,2.2,1.9v4.2h-0.6V187.1z M223.2,185.3
			c-0.4-0.5-1.1-0.8-1.8-0.8c-1,0-1.6,0.6-1.6,1.5c0,0.8,0.6,1.5,1.6,1.5c0.7,0,1.4-0.3,1.8-0.8V185.3z"/>
		<path class="st19" d="M225.8,179.6h0.6v3.2c0.5-0.7,1.2-1.1,2.1-1.1c1.6,0,2.7,1.2,2.7,3.1c0,1.9-1.1,3.1-2.7,3.1
			c-0.9,0-1.7-0.5-2.1-1.1v1h-0.6V179.6z M228.4,187.4c1.3,0,2.1-1.1,2.1-2.5s-0.8-2.6-2.1-2.6c-0.8,0-1.6,0.5-2,1.1v3
			C226.8,186.9,227.6,187.4,228.4,187.4z"/>
		<path class="st19" d="M235.4,181.7c1,0,1.6,0.4,2.1,1l-0.4,0.4c-0.4-0.6-1-0.8-1.6-0.8c-1.4,0-2.2,1.1-2.2,2.5s0.9,2.6,2.2,2.6
			c0.7,0,1.2-0.2,1.6-0.8l0.4,0.4c-0.5,0.6-1.1,1-2.1,1c-1.8,0-2.9-1.4-2.9-3.1S233.6,181.7,235.4,181.7z"/>
		<path class="st19" d="M239.2,182.4h-1v-0.6h1v-0.5c0-1.2,0.6-1.9,1.6-1.9c0.3,0,0.6,0,0.8,0.2l-0.2,0.5c-0.1-0.1-0.3-0.1-0.5-0.1
			c-0.7,0-1,0.5-1,1.3v0.5h1.2v0.6h-1.2v5.4h-0.6V182.4z"/>
		<path class="st19" d="M244.7,181.7c1.8,0,2.8,1.4,2.8,3.2v0.2h-5c0.1,1.3,0.9,2.4,2.3,2.4c0.8,0,1.4-0.3,2-0.8l0.3,0.4
			c-0.6,0.6-1.3,1-2.3,1c-1.7,0-3-1.3-3-3.1C241.9,183.1,243.1,181.7,244.7,181.7z M242.6,184.5h4.3c0-1-0.7-2.3-2.2-2.3
			C243.3,182.2,242.6,183.5,242.6,184.5z"/>
		<path class="st19" d="M253.2,183.8c0-1.1-0.6-1.5-1.4-1.5c-0.8,0-1.6,0.5-1.9,1v4.5h-0.6v-6h0.6v0.9c0.4-0.5,1.3-1,2.1-1
			c1.2,0,1.9,0.6,1.9,1.9v4.2h-0.6V183.8z"/>
		<path class="st19" d="M258.4,181.7c1,0,1.6,0.4,2.1,1l-0.4,0.4c-0.4-0.6-1-0.8-1.6-0.8c-1.4,0-2.2,1.1-2.2,2.5s0.9,2.6,2.2,2.6
			c0.7,0,1.2-0.2,1.6-0.8l0.4,0.4c-0.5,0.6-1.1,1-2.1,1c-1.8,0-2.9-1.4-2.9-3.1S256.7,181.7,258.4,181.7z"/>
		<path class="st19" d="M264.5,181.7c1.8,0,2.8,1.4,2.8,3.2v0.2h-5c0.1,1.3,0.9,2.4,2.3,2.4c0.8,0,1.4-0.3,2-0.8l0.3,0.4
			c-0.6,0.6-1.3,1-2.3,1c-1.7,0-3-1.3-3-3.1C261.6,183.1,262.9,181.7,264.5,181.7z M262.3,184.5h4.3c0-1-0.7-2.3-2.2-2.3
			C263.1,182.2,262.4,183.5,262.3,184.5z"/>
		<path class="st19" d="M271.5,181.7c1,0,1.6,0.4,2.1,1l-0.4,0.4c-0.4-0.6-1-0.8-1.6-0.8c-1.4,0-2.2,1.1-2.2,2.5s0.9,2.6,2.2,2.6
			c0.7,0,1.2-0.2,1.6-0.8l0.4,0.4c-0.5,0.6-1.1,1-2.1,1c-1.8,0-2.9-1.4-2.9-3.1S269.8,181.7,271.5,181.7z"/>
		<path class="st19" d="M274.7,184.8c0-1.7,1.1-3.1,2.9-3.1c1.8,0,2.9,1.4,2.9,3.1s-1.1,3.1-2.9,3.1
			C275.9,187.9,274.7,186.5,274.7,184.8z M279.8,184.8c0-1.3-0.8-2.5-2.2-2.5c-1.4,0-2.2,1.2-2.2,2.5c0,1.3,0.8,2.6,2.2,2.6
			C279,187.4,279.8,186.1,279.8,184.8z"/>
		<path class="st19" d="M282.4,186.8c0.3,0,0.6,0.2,0.6,0.5c0,0.3-0.3,0.6-0.6,0.6c-0.3,0-0.5-0.3-0.5-0.6
			C281.8,187.1,282.1,186.8,282.4,186.8z"/>
		<path class="st19" d="M287.2,181.7c1,0,1.6,0.4,2.1,1l-0.4,0.4c-0.4-0.6-1-0.8-1.6-0.8c-1.4,0-2.2,1.1-2.2,2.5s0.9,2.6,2.2,2.6
			c0.7,0,1.2-0.2,1.6-0.8l0.4,0.4c-0.5,0.6-1.1,1-2.1,1c-1.8,0-2.9-1.4-2.9-3.1S285.4,181.7,287.2,181.7z"/>
		<path class="st19" d="M290.4,184.8c0-1.7,1.1-3.1,2.9-3.1c1.8,0,2.9,1.4,2.9,3.1s-1.1,3.1-2.9,3.1
			C291.5,187.9,290.4,186.5,290.4,184.8z M295.4,184.8c0-1.3-0.8-2.5-2.2-2.5c-1.4,0-2.2,1.2-2.2,2.5c0,1.3,0.8,2.6,2.2,2.6
			C294.7,187.4,295.4,186.1,295.4,184.8z"/>
		<path class="st19" d="M304.9,183.6c0-0.8-0.4-1.4-1.2-1.4c-0.6,0-1.4,0.5-1.7,1v4.5h-0.7v-4.2c0-0.8-0.3-1.4-1.2-1.4
			c-0.6,0-1.3,0.5-1.7,1v4.5h-0.6v-6h0.6v0.9c0.2-0.4,1.1-1,1.9-1c0.9,0,1.4,0.5,1.6,1.1c0.3-0.6,1.1-1.1,2-1.1
			c1.1,0,1.6,0.6,1.6,1.8v4.3h-0.6V183.6z"/>
	</g>
	<path class="st19" d="M361.6,200.9H68.1c-2,0-3.7-1.6-3.7-3.7v-0.9c0-2,1.6-3.7,3.7-3.7h293.5c2,0,3.7,1.6,3.7,3.7v0.9
		C365.3,199.2,363.6,200.9,361.6,200.9z"/>
	<path class="st3" d="M360.6,239.3H69.1c-2.6,0-4.7-2.1-4.7-4.7v-23.1c0-2.6,2.1-4.7,4.7-4.7h291.5c2.6,0,4.7,2.1,4.7,4.7v23.1
		C365.3,237.2,363.2,239.3,360.6,239.3z"/>
	<g>
		<path class="st19" d="M72.8,268.3h-4.4l-0.8,2h-0.8l3.4-8.2h0.9l3.4,8.2h-0.8L72.8,268.3z M68.7,267.7h3.9l-2-4.9L68.7,267.7z"/>
		<path class="st19" d="M75.7,262.1H79c1.4,0,2.3,0.8,2.3,2.1c0,1-0.7,1.7-1.4,1.9c0.9,0.1,1.6,1,1.6,2c0,1.4-0.9,2.2-2.4,2.2h-3.5
			V262.1z M78.9,265.8c1.1,0,1.6-0.7,1.6-1.5c0-0.8-0.6-1.5-1.6-1.5h-2.6v3H78.9z M79,269.7c1.1,0,1.7-0.6,1.7-1.6
			c0-0.8-0.6-1.6-1.7-1.6h-2.6v3.3H79z"/>
		<path class="st19" d="M82.9,266.2c0-2.5,1.8-4.3,4.1-4.3c1.3,0,2.3,0.6,3,1.5l-0.6,0.4c-0.5-0.7-1.4-1.2-2.4-1.2
			c-1.9,0-3.4,1.5-3.4,3.6c0,2.1,1.5,3.6,3.4,3.6c1,0,1.9-0.5,2.4-1.2l0.6,0.4c-0.7,0.9-1.7,1.5-3,1.5
			C84.8,270.5,82.9,268.8,82.9,266.2z"/>
		<path class="st19" d="M94.7,262.1h5.2v0.6h-4.5v3h4.4v0.6h-4.4v3.9h-0.7V262.1z"/>
		<path class="st19" d="M103.9,264.2c1.8,0,2.8,1.4,2.8,3.2v0.2h-5c0.1,1.3,0.9,2.4,2.3,2.4c0.8,0,1.4-0.3,2-0.8l0.3,0.4
			c-0.6,0.6-1.3,1-2.3,1c-1.7,0-3-1.3-3-3.1C101.1,265.6,102.3,264.2,103.9,264.2z M101.8,267.1h4.3c0-1-0.7-2.3-2.2-2.3
			C102.5,264.8,101.8,266,101.8,267.1z"/>
		<path class="st19" d="M112.4,266.3c0-1.1-0.6-1.5-1.4-1.5c-0.8,0-1.6,0.5-1.9,1v4.5h-0.6v-6h0.6v0.9c0.4-0.5,1.3-1,2.1-1
			c1.2,0,1.9,0.6,1.9,1.9v4.2h-0.6V266.3z"/>
		<path class="st19" d="M117.6,264.2c1,0,1.6,0.4,2.1,1l-0.4,0.4c-0.4-0.6-1-0.8-1.6-0.8c-1.4,0-2.2,1.1-2.2,2.5s0.9,2.6,2.2,2.6
			c0.7,0,1.2-0.2,1.6-0.8l0.4,0.4c-0.5,0.6-1.1,1-2.1,1c-1.8,0-2.9-1.4-2.9-3.1S115.9,264.2,117.6,264.2z"/>
		<path class="st19" d="M123.7,264.2c1.8,0,2.8,1.4,2.8,3.2v0.2h-5c0.1,1.3,0.9,2.4,2.3,2.4c0.8,0,1.4-0.3,2-0.8l0.3,0.4
			c-0.6,0.6-1.3,1-2.3,1c-1.7,0-3-1.3-3-3.1C120.8,265.6,122,264.2,123.7,264.2z M121.5,267.1h4.3c0-1-0.7-2.3-2.2-2.3
			C122.3,264.8,121.6,266,121.5,267.1z"/>
		<path class="st19" d="M131.1,266.2c0-2.5,1.8-4.3,4.1-4.3c1.3,0,2.3,0.6,3,1.5l-0.6,0.4c-0.5-0.7-1.4-1.2-2.4-1.2
			c-1.9,0-3.4,1.5-3.4,3.6c0,2.1,1.5,3.6,3.4,3.6c1,0,1.9-0.5,2.4-1.2l0.6,0.4c-0.7,0.9-1.7,1.5-3,1.5
			C132.9,270.5,131.1,268.8,131.1,266.2z"/>
		<path class="st19" d="M143.4,262c2.4,0,4,1.9,4,4.3s-1.6,4.3-4,4.3c-2.4,0-4-1.9-4-4.3S141,262,143.4,262z M143.4,262.6
			c-2,0-3.3,1.5-3.3,3.6c0,2.1,1.3,3.6,3.3,3.6c2,0,3.3-1.5,3.3-3.6C146.6,264.1,145.4,262.6,143.4,262.6z"/>
		<path class="st19" d="M149.1,269.4c0.3,0,0.6,0.2,0.6,0.5c0,0.3-0.3,0.6-0.6,0.6c-0.3,0-0.5-0.3-0.5-0.6
			C148.6,269.6,148.8,269.4,149.1,269.4z"/>
		<path class="st19" d="M154,267.1h3v0.6h-3V267.1z"/>
		<path class="st19" d="M165.6,266.3c0-1.1-0.6-1.5-1.4-1.5c-0.8,0-1.6,0.5-1.9,1v4.5h-0.6v-8.2h0.6v3.2c0.4-0.5,1.3-1,2.1-1
			c1.2,0,1.9,0.6,1.9,1.9v4.2h-0.6V266.3z"/>
		<path class="st19" d="M168.3,269.2V265h-1v-0.6h1v-1.6h0.7v1.6h1.2v0.6H169v4.1c0,0.5,0.2,0.8,0.6,0.8c0.3,0,0.5-0.1,0.7-0.3
			l0.2,0.5c-0.2,0.2-0.5,0.4-1,0.4C168.7,270.5,168.3,270,168.3,269.2z"/>
		<path class="st19" d="M171.7,269.2V265h-1v-0.6h1v-1.6h0.7v1.6h1.2v0.6h-1.2v4.1c0,0.5,0.2,0.8,0.6,0.8c0.3,0,0.5-0.1,0.7-0.3
			l0.2,0.5c-0.2,0.2-0.5,0.4-1,0.4C172.1,270.5,171.7,270,171.7,269.2z"/>
		<path class="st19" d="M175,272.6v-8.2h0.6v0.9c0.4-0.6,1.2-1.1,2.1-1.1c1.6,0,2.7,1.2,2.7,3.1c0,1.9-1.1,3.1-2.7,3.1
			c-0.8,0-1.6-0.4-2.1-1.1v3.2H175z M177.6,264.8c-0.8,0-1.6,0.5-2,1.1v3c0.3,0.6,1.1,1.1,2,1.1c1.3,0,2.1-1.1,2.1-2.6
			S179,264.8,177.6,264.8z"/>
		<path class="st19" d="M182.4,264.3c0.3,0,0.6,0.2,0.6,0.5c0,0.3-0.3,0.5-0.6,0.5c-0.3,0-0.5-0.2-0.5-0.5
			C181.9,264.6,182.1,264.3,182.4,264.3z M182.4,269.4c0.3,0,0.6,0.2,0.6,0.5c0,0.3-0.3,0.6-0.6,0.6c-0.3,0-0.5-0.3-0.5-0.6
			C181.9,269.6,182.1,269.4,182.4,269.4z"/>
		<path class="st19" d="M186.7,261.9h0.6l-2.9,8.7h-0.6L186.7,261.9z"/>
		<path class="st19" d="M190.2,261.9h0.6l-2.9,8.7h-0.6L190.2,261.9z"/>
		<path class="st19" d="M195.2,265.3l-1.7,5.1h-0.6l-1.9-6h0.7l1.6,5.1l1.7-5.1h0.6l1.7,5.1l1.6-5.1h0.7l-1.9,6h-0.6L195.2,265.3z"
			/>
		<path class="st19" d="M204,265.3l-1.7,5.1h-0.6l-1.9-6h0.7l1.6,5.1l1.7-5.1h0.6l1.7,5.1l1.6-5.1h0.7l-1.9,6h-0.6L204,265.3z"/>
		<path class="st19" d="M212.9,265.3l-1.7,5.1h-0.6l-1.9-6h0.7l1.6,5.1l1.7-5.1h0.6l1.7,5.1l1.6-5.1h0.7l-1.9,6h-0.6L212.9,265.3z"
			/>
		<path class="st19" d="M218.1,269.4c0.3,0,0.6,0.2,0.6,0.5c0,0.3-0.3,0.6-0.6,0.6c-0.3,0-0.5-0.3-0.5-0.6
			C217.6,269.6,217.8,269.4,218.1,269.4z"/>
		<path class="st19" d="M224.3,269.7c-0.5,0.6-1.2,0.9-2,0.9c-1,0-2.1-0.7-2.1-2c0-1.3,1-2,2.1-2c0.8,0,1.5,0.3,2,0.9v-1.2
			c0-0.9-0.7-1.4-1.6-1.4c-0.7,0-1.3,0.3-1.9,0.9l-0.4-0.4c0.6-0.7,1.3-1,2.3-1c1.2,0,2.2,0.6,2.2,1.9v4.2h-0.6V269.7z M224.3,267.9
			c-0.4-0.5-1.1-0.8-1.8-0.8c-1,0-1.6,0.6-1.6,1.5c0,0.8,0.6,1.5,1.6,1.5c0.7,0,1.4-0.3,1.8-0.8V267.9z"/>
		<path class="st19" d="M226.9,262.1h0.6v3.2c0.5-0.7,1.2-1.1,2.1-1.1c1.6,0,2.7,1.2,2.7,3.1c0,1.9-1.1,3.1-2.7,3.1
			c-0.9,0-1.7-0.5-2.1-1.1v1h-0.6V262.1z M229.5,269.9c1.3,0,2.1-1.1,2.1-2.5s-0.8-2.6-2.1-2.6c-0.8,0-1.6,0.5-2,1.1v3
			C227.9,269.4,228.7,269.9,229.5,269.9z"/>
		<path class="st19" d="M236.5,264.2c1,0,1.6,0.4,2.1,1l-0.4,0.4c-0.4-0.6-1-0.8-1.6-0.8c-1.4,0-2.2,1.1-2.2,2.5s0.9,2.6,2.2,2.6
			c0.7,0,1.2-0.2,1.6-0.8l0.4,0.4c-0.5,0.6-1.1,1-2.1,1c-1.8,0-2.9-1.4-2.9-3.1S234.8,264.2,236.5,264.2z"/>
		<path class="st19" d="M240.3,265h-1v-0.6h1v-0.5c0-1.2,0.6-1.9,1.6-1.9c0.3,0,0.6,0,0.8,0.2l-0.2,0.5c-0.1-0.1-0.3-0.1-0.5-0.1
			c-0.7,0-1,0.5-1,1.3v0.5h1.2v0.6h-1.2v5.4h-0.6V265z"/>
		<path class="st19" d="M245.9,264.2c1.8,0,2.8,1.4,2.8,3.2v0.2h-5c0.1,1.3,0.9,2.4,2.3,2.4c0.8,0,1.4-0.3,2-0.8l0.3,0.4
			c-0.6,0.6-1.3,1-2.3,1c-1.7,0-3-1.3-3-3.1C243,265.6,244.2,264.2,245.9,264.2z M243.7,267.1h4.3c0-1-0.7-2.3-2.2-2.3
			C244.5,264.8,243.7,266,243.7,267.1z"/>
		<path class="st19" d="M254.4,266.3c0-1.1-0.6-1.5-1.4-1.5c-0.8,0-1.6,0.5-1.9,1v4.5h-0.6v-6h0.6v0.9c0.4-0.5,1.3-1,2.1-1
			c1.2,0,1.9,0.6,1.9,1.9v4.2h-0.6V266.3z"/>
		<path class="st19" d="M259.6,264.2c1,0,1.6,0.4,2.1,1l-0.4,0.4c-0.4-0.6-1-0.8-1.6-0.8c-1.4,0-2.2,1.1-2.2,2.5s0.9,2.6,2.2,2.6
			c0.7,0,1.2-0.2,1.6-0.8l0.4,0.4c-0.5,0.6-1.1,1-2.1,1c-1.8,0-2.9-1.4-2.9-3.1S257.8,264.2,259.6,264.2z"/>
		<path class="st19" d="M265.6,264.2c1.8,0,2.8,1.4,2.8,3.2v0.2h-5c0.1,1.3,0.9,2.4,2.3,2.4c0.8,0,1.4-0.3,2-0.8l0.3,0.4
			c-0.6,0.6-1.3,1-2.3,1c-1.7,0-3-1.3-3-3.1C262.8,265.6,264,264.2,265.6,264.2z M263.5,267.1h4.3c0-1-0.7-2.3-2.2-2.3
			C264.2,264.8,263.5,266,263.5,267.1z"/>
		<path class="st19" d="M272.7,264.2c1,0,1.6,0.4,2.1,1l-0.4,0.4c-0.4-0.6-1-0.8-1.6-0.8c-1.4,0-2.2,1.1-2.2,2.5s0.9,2.6,2.2,2.6
			c0.7,0,1.2-0.2,1.6-0.8l0.4,0.4c-0.5,0.6-1.1,1-2.1,1c-1.8,0-2.9-1.4-2.9-3.1S270.9,264.2,272.7,264.2z"/>
		<path class="st19" d="M275.9,267.4c0-1.7,1.1-3.1,2.9-3.1c1.8,0,2.9,1.4,2.9,3.1s-1.1,3.1-2.9,3.1
			C277,270.5,275.9,269.1,275.9,267.4z M280.9,267.4c0-1.3-0.8-2.5-2.2-2.5c-1.4,0-2.2,1.2-2.2,2.5c0,1.3,0.8,2.6,2.2,2.6
			C280.1,269.9,280.9,268.7,280.9,267.4z"/>
		<path class="st19" d="M283.5,269.4c0.3,0,0.6,0.2,0.6,0.5c0,0.3-0.3,0.6-0.6,0.6c-0.3,0-0.5-0.3-0.5-0.6
			C283,269.6,283.2,269.4,283.5,269.4z"/>
		<path class="st19" d="M288.3,264.2c1,0,1.6,0.4,2.1,1l-0.4,0.4c-0.4-0.6-1-0.8-1.6-0.8c-1.4,0-2.2,1.1-2.2,2.5s0.9,2.6,2.2,2.6
			c0.7,0,1.2-0.2,1.6-0.8l0.4,0.4c-0.5,0.6-1.1,1-2.1,1c-1.8,0-2.9-1.4-2.9-3.1S286.6,264.2,288.3,264.2z"/>
		<path class="st19" d="M291.5,267.4c0-1.7,1.1-3.1,2.9-3.1c1.8,0,2.9,1.4,2.9,3.1s-1.1,3.1-2.9,3.1
			C292.6,270.5,291.5,269.1,291.5,267.4z M296.6,267.4c0-1.3-0.8-2.5-2.2-2.5c-1.4,0-2.2,1.2-2.2,2.5c0,1.3,0.8,2.6,2.2,2.6
			C295.8,269.9,296.6,268.7,296.6,267.4z"/>
		<path class="st19" d="M306,266.2c0-0.8-0.4-1.4-1.2-1.4c-0.6,0-1.4,0.5-1.7,1v4.5h-0.7v-4.2c0-0.8-0.3-1.4-1.2-1.4
			c-0.6,0-1.3,0.5-1.7,1v4.5h-0.6v-6h0.6v0.9c0.2-0.4,1.1-1,1.9-1c0.9,0,1.4,0.5,1.6,1.1c0.3-0.6,1.1-1.1,2-1.1
			c1.1,0,1.6,0.6,1.6,1.8v4.3H306V266.2z"/>
	</g>
	<path class="st19" d="M65.5,279.3c0-2.3,1.8-4.1,4.1-4.1h292.6c2.3,0,4.1,1.8,4.1,4.1l0,0c0,2.3-1.8,4.1-4.1,4.1H69.6
		C67.4,283.5,65.5,281.6,65.5,279.3"/>
	<path class="st3" d="M65.5,294.6c0-2.9,2.4-5.3,5.3-5.3h290.3c2.9,0,5.3,2.4,5.3,5.3v22c0,2.9-2.4,5.3-5.3,5.3H70.8
		c-2.9,0-5.3-2.4-5.3-5.3"/>
	<g>
		<path class="st19" d="M73.9,349.3h-4.4l-0.8,2h-0.8l3.4-8.2h0.9l3.4,8.2h-0.8L73.9,349.3z M69.8,348.6h3.9l-2-4.9L69.8,348.6z"/>
		<path class="st19" d="M76.8,343h3.4c1.4,0,2.3,0.8,2.3,2.1c0,1-0.7,1.7-1.4,1.9c0.9,0.1,1.6,1,1.6,2c0,1.4-0.9,2.2-2.4,2.2h-3.5
			V343z M80.1,346.7c1.1,0,1.6-0.7,1.6-1.5c0-0.8-0.6-1.5-1.6-1.5h-2.6v3H80.1z M80.1,350.6c1.1,0,1.7-0.6,1.7-1.6
			c0-0.8-0.6-1.6-1.7-1.6h-2.6v3.3H80.1z"/>
		<path class="st19" d="M84.1,347.2c0-2.5,1.8-4.3,4.1-4.3c1.3,0,2.3,0.6,3,1.5l-0.6,0.4c-0.5-0.7-1.4-1.2-2.4-1.2
			c-1.9,0-3.4,1.5-3.4,3.6c0,2.1,1.5,3.6,3.4,3.6c1,0,1.9-0.5,2.4-1.2l0.6,0.4c-0.7,0.9-1.7,1.5-3,1.5
			C85.9,351.4,84.1,349.7,84.1,347.2z"/>
		<path class="st19" d="M95.9,343h5.2v0.6h-4.5v3h4.4v0.6h-4.4v3.9h-0.7V343z"/>
		<path class="st19" d="M105.1,345.2c1.8,0,2.8,1.4,2.8,3.2v0.2h-5c0.1,1.3,0.9,2.4,2.3,2.4c0.8,0,1.4-0.3,2-0.8l0.3,0.4
			c-0.6,0.6-1.3,1-2.3,1c-1.7,0-3-1.3-3-3.1C102.2,346.6,103.4,345.2,105.1,345.2z M102.9,348h4.3c0-1-0.7-2.3-2.2-2.3
			C103.6,345.7,102.9,347,102.9,348z"/>
		<path class="st19" d="M113.6,347.2c0-1.1-0.6-1.5-1.4-1.5c-0.8,0-1.6,0.5-1.9,1v4.5h-0.6v-6h0.6v0.9c0.4-0.5,1.3-1,2.1-1
			c1.2,0,1.9,0.6,1.9,1.9v4.2h-0.6V347.2z"/>
		<path class="st19" d="M118.8,345.2c1,0,1.6,0.4,2.1,1l-0.4,0.4c-0.4-0.6-1-0.8-1.6-0.8c-1.4,0-2.2,1.1-2.2,2.5s0.9,2.6,2.2,2.6
			c0.7,0,1.2-0.2,1.6-0.8l0.4,0.4c-0.5,0.6-1.1,1-2.1,1c-1.8,0-2.9-1.4-2.9-3.1S117,345.2,118.8,345.2z"/>
		<path class="st19" d="M124.8,345.2c1.8,0,2.8,1.4,2.8,3.2v0.2h-5c0.1,1.3,0.9,2.4,2.3,2.4c0.8,0,1.4-0.3,2-0.8l0.3,0.4
			c-0.6,0.6-1.3,1-2.3,1c-1.7,0-3-1.3-3-3.1C122,346.6,123.2,345.2,124.8,345.2z M122.7,348h4.3c0-1-0.7-2.3-2.2-2.3
			C123.4,345.7,122.7,347,122.7,348z"/>
		<path class="st19" d="M132.2,347.2c0-2.5,1.8-4.3,4.1-4.3c1.3,0,2.3,0.6,3,1.5l-0.6,0.4c-0.5-0.7-1.4-1.2-2.4-1.2
			c-1.9,0-3.4,1.5-3.4,3.6c0,2.1,1.5,3.6,3.4,3.6c1,0,1.9-0.5,2.4-1.2l0.6,0.4c-0.7,0.9-1.7,1.5-3,1.5
			C134.1,351.4,132.2,349.7,132.2,347.2z"/>
		<path class="st19" d="M144.5,342.9c2.4,0,4,1.9,4,4.3s-1.6,4.3-4,4.3c-2.4,0-4-1.9-4-4.3S142.1,342.9,144.5,342.9z M144.5,343.6
			c-2,0-3.3,1.5-3.3,3.6c0,2.1,1.3,3.6,3.3,3.6c2,0,3.3-1.5,3.3-3.6C147.8,345.1,146.5,343.6,144.5,343.6z"/>
		<path class="st19" d="M150.2,350.3c0.3,0,0.6,0.2,0.6,0.5c0,0.3-0.3,0.6-0.6,0.6c-0.3,0-0.5-0.3-0.5-0.6
			C149.7,350.6,149.9,350.3,150.2,350.3z"/>
		<path class="st19" d="M155.1,348h3v0.6h-3V348z"/>
		<path class="st19" d="M166.7,347.2c0-1.1-0.6-1.5-1.4-1.5c-0.8,0-1.6,0.5-1.9,1v4.5h-0.6V343h0.6v3.2c0.4-0.5,1.3-1,2.1-1
			c1.2,0,1.9,0.6,1.9,1.9v4.2h-0.6V347.2z"/>
		<path class="st19" d="M169.5,350.1v-4.2h-1v-0.6h1v-1.6h0.7v1.6h1.2v0.6h-1.2v4.1c0,0.5,0.2,0.8,0.6,0.8c0.3,0,0.5-0.1,0.7-0.3
			l0.2,0.5c-0.2,0.2-0.5,0.4-1,0.4C169.9,351.4,169.5,350.9,169.5,350.1z"/>
		<path class="st19" d="M172.9,350.1v-4.2h-1v-0.6h1v-1.6h0.7v1.6h1.2v0.6h-1.2v4.1c0,0.5,0.2,0.8,0.6,0.8c0.3,0,0.5-0.1,0.7-0.3
			l0.2,0.5c-0.2,0.2-0.5,0.4-1,0.4C173.2,351.4,172.9,350.9,172.9,350.1z"/>
		<path class="st19" d="M176.1,353.6v-8.2h0.6v0.9c0.4-0.6,1.2-1.1,2.1-1.1c1.6,0,2.7,1.2,2.7,3.1c0,1.9-1.1,3.1-2.7,3.1
			c-0.8,0-1.6-0.4-2.1-1.1v3.2H176.1z M178.7,345.8c-0.8,0-1.6,0.5-2,1.1v3c0.3,0.6,1.1,1.1,2,1.1c1.3,0,2.1-1.1,2.1-2.6
			S180.1,345.8,178.7,345.8z"/>
		<path class="st19" d="M183.5,345.2c0.3,0,0.6,0.2,0.6,0.5c0,0.3-0.3,0.5-0.6,0.5c-0.3,0-0.5-0.2-0.5-0.5
			C183,345.5,183.2,345.2,183.5,345.2z M183.5,350.3c0.3,0,0.6,0.2,0.6,0.5c0,0.3-0.3,0.6-0.6,0.6c-0.3,0-0.5-0.3-0.5-0.6
			C183,350.6,183.2,350.3,183.5,350.3z"/>
		<path class="st19" d="M187.8,342.8h0.6l-2.9,8.7h-0.6L187.8,342.8z"/>
		<path class="st19" d="M191.3,342.8h0.6l-2.9,8.7h-0.6L191.3,342.8z"/>
		<path class="st19" d="M196.3,346.2l-1.7,5.1H194l-1.9-6h0.7l1.6,5.1l1.7-5.1h0.6l1.7,5.1l1.6-5.1h0.7l-1.9,6H198L196.3,346.2z"/>
		<path class="st19" d="M205.2,346.2l-1.7,5.1h-0.6l-1.9-6h0.7l1.6,5.1l1.7-5.1h0.6l1.7,5.1l1.6-5.1h0.7l-1.9,6h-0.6L205.2,346.2z"
			/>
		<path class="st19" d="M214,346.2l-1.7,5.1h-0.6l-1.9-6h0.7l1.6,5.1l1.7-5.1h0.6l1.7,5.1l1.6-5.1h0.7l-1.9,6h-0.6L214,346.2z"/>
		<path class="st19" d="M219.2,350.3c0.3,0,0.6,0.2,0.6,0.5c0,0.3-0.3,0.6-0.6,0.6c-0.3,0-0.5-0.3-0.5-0.6
			C218.7,350.6,219,350.3,219.2,350.3z"/>
		<path class="st19" d="M225.4,350.6c-0.5,0.6-1.2,0.9-2,0.9c-1,0-2.1-0.7-2.1-2c0-1.3,1-2,2.1-2c0.8,0,1.5,0.3,2,0.9v-1.2
			c0-0.9-0.7-1.4-1.6-1.4c-0.7,0-1.3,0.3-1.9,0.9l-0.4-0.4c0.6-0.7,1.3-1,2.3-1c1.2,0,2.2,0.6,2.2,1.9v4.2h-0.6V350.6z M225.4,348.8
			c-0.4-0.5-1.1-0.8-1.8-0.8c-1,0-1.6,0.6-1.6,1.5c0,0.8,0.6,1.5,1.6,1.5c0.7,0,1.4-0.3,1.8-0.8V348.8z"/>
		<path class="st19" d="M228,343h0.6v3.2c0.5-0.7,1.2-1.1,2.1-1.1c1.6,0,2.7,1.2,2.7,3.1c0,1.9-1.1,3.1-2.7,3.1
			c-0.9,0-1.7-0.5-2.1-1.1v1H228V343z M230.6,350.9c1.3,0,2.1-1.1,2.1-2.5s-0.8-2.6-2.1-2.6c-0.8,0-1.6,0.5-2,1.1v3
			C229,350.4,229.8,350.9,230.6,350.9z"/>
		<path class="st19" d="M237.6,345.2c1,0,1.6,0.4,2.1,1l-0.4,0.4c-0.4-0.6-1-0.8-1.6-0.8c-1.4,0-2.2,1.1-2.2,2.5s0.9,2.6,2.2,2.6
			c0.7,0,1.2-0.2,1.6-0.8l0.4,0.4c-0.5,0.6-1.1,1-2.1,1c-1.8,0-2.9-1.4-2.9-3.1S235.9,345.2,237.6,345.2z"/>
		<path class="st19" d="M241.4,345.9h-1v-0.6h1v-0.5c0-1.2,0.6-1.9,1.6-1.9c0.3,0,0.6,0,0.8,0.2l-0.2,0.5c-0.1-0.1-0.3-0.1-0.5-0.1
			c-0.7,0-1,0.5-1,1.3v0.5h1.2v0.6H242v5.4h-0.6V345.9z"/>
		<path class="st19" d="M247,345.2c1.8,0,2.8,1.4,2.8,3.2v0.2h-5c0.1,1.3,0.9,2.4,2.3,2.4c0.8,0,1.4-0.3,2-0.8l0.3,0.4
			c-0.6,0.6-1.3,1-2.3,1c-1.7,0-3-1.3-3-3.1C244.1,346.6,245.3,345.2,247,345.2z M244.8,348h4.3c0-1-0.7-2.3-2.2-2.3
			C245.6,345.7,244.9,347,244.8,348z"/>
		<path class="st19" d="M255.5,347.2c0-1.1-0.6-1.5-1.4-1.5c-0.8,0-1.6,0.5-1.9,1v4.5h-0.6v-6h0.6v0.9c0.4-0.5,1.3-1,2.1-1
			c1.2,0,1.9,0.6,1.9,1.9v4.2h-0.6V347.2z"/>
		<path class="st19" d="M260.7,345.2c1,0,1.6,0.4,2.1,1l-0.4,0.4c-0.4-0.6-1-0.8-1.6-0.8c-1.4,0-2.2,1.1-2.2,2.5s0.9,2.6,2.2,2.6
			c0.7,0,1.2-0.2,1.6-0.8l0.4,0.4c-0.5,0.6-1.1,1-2.1,1c-1.8,0-2.9-1.4-2.9-3.1S258.9,345.2,260.7,345.2z"/>
		<path class="st19" d="M266.8,345.2c1.8,0,2.8,1.4,2.8,3.2v0.2h-5c0.1,1.3,0.9,2.4,2.3,2.4c0.8,0,1.4-0.3,2-0.8l0.3,0.4
			c-0.6,0.6-1.3,1-2.3,1c-1.7,0-3-1.3-3-3.1C263.9,346.6,265.1,345.2,266.8,345.2z M264.6,348h4.3c0-1-0.7-2.3-2.2-2.3
			C265.3,345.7,264.6,347,264.6,348z"/>
		<path class="st19" d="M273.8,345.2c1,0,1.6,0.4,2.1,1l-0.4,0.4c-0.4-0.6-1-0.8-1.6-0.8c-1.4,0-2.2,1.1-2.2,2.5s0.9,2.6,2.2,2.6
			c0.7,0,1.2-0.2,1.6-0.8l0.4,0.4c-0.5,0.6-1.1,1-2.1,1c-1.8,0-2.9-1.4-2.9-3.1S272,345.2,273.8,345.2z"/>
		<path class="st19" d="M277,348.3c0-1.7,1.1-3.1,2.9-3.1c1.8,0,2.9,1.4,2.9,3.1s-1.1,3.1-2.9,3.1C278.1,351.4,277,350,277,348.3z
			 M282,348.3c0-1.3-0.8-2.5-2.2-2.5c-1.4,0-2.2,1.2-2.2,2.5c0,1.3,0.8,2.6,2.2,2.6C281.3,350.9,282,349.6,282,348.3z"/>
		<path class="st19" d="M284.6,350.3c0.3,0,0.6,0.2,0.6,0.5c0,0.3-0.3,0.6-0.6,0.6c-0.3,0-0.5-0.3-0.5-0.6
			C284.1,350.6,284.3,350.3,284.6,350.3z"/>
		<path class="st19" d="M289.4,345.2c1,0,1.6,0.4,2.1,1l-0.4,0.4c-0.4-0.6-1-0.8-1.6-0.8c-1.4,0-2.2,1.1-2.2,2.5s0.9,2.6,2.2,2.6
			c0.7,0,1.2-0.2,1.6-0.8l0.4,0.4c-0.5,0.6-1.1,1-2.1,1c-1.8,0-2.9-1.4-2.9-3.1S287.7,345.2,289.4,345.2z"/>
		<path class="st19" d="M292.6,348.3c0-1.7,1.1-3.1,2.9-3.1c1.8,0,2.9,1.4,2.9,3.1s-1.1,3.1-2.9,3.1
			C293.8,351.4,292.6,350,292.6,348.3z M297.7,348.3c0-1.3-0.8-2.5-2.2-2.5c-1.4,0-2.2,1.2-2.2,2.5c0,1.3,0.8,2.6,2.2,2.6
			C296.9,350.9,297.7,349.6,297.7,348.3z"/>
		<path class="st19" d="M307.1,347.1c0-0.8-0.4-1.4-1.2-1.4c-0.6,0-1.4,0.5-1.7,1v4.5h-0.7v-4.2c0-0.8-0.3-1.4-1.2-1.4
			c-0.6,0-1.3,0.5-1.7,1v4.5H300v-6h0.6v0.9c0.2-0.4,1.1-1,1.9-1c0.9,0,1.4,0.5,1.6,1.1c0.3-0.6,1.1-1.1,2-1.1
			c1.1,0,1.6,0.6,1.6,1.8v4.3h-0.6V347.1z"/>
	</g>
	<path class="st19" d="M66.6,360.3c0-2.3,1.8-4.1,4.1-4.1h292.6c2.3,0,4.1,1.8,4.1,4.1v0c0,2.3-1.8,4.1-4.1,4.1H70.8
		C68.5,364.4,66.6,362.5,66.6,360.3"/>
	<path class="st3" d="M66.6,375.6c0-2.9,2.4-5.3,5.3-5.3h290.3c2.9,0,5.3,2.4,5.3,5.3v22c0,2.9-2.4,5.3-5.3,5.3H71.9
		c-2.9,0-5.3-2.4-5.3-5.3"/>
	<path class="st16" d="M344.7,468.1H88.4c-12.6,0-22.9-10.2-22.9-22.9v0c0-12.6,10.2-22.9,22.9-22.9h256.3
		c12.6,0,22.9,10.2,22.9,22.9v0C367.5,457.9,357.3,468.1,344.7,468.1z"/>
</g>
</svg>
