<?xml version="1.0" encoding="utf-8"?>
<!-- Generator: Adobe Illustrator 19.1.0, SVG Export Plug-In . SVG Version: 6.00 Build 0)  -->
<svg version="1.1" xmlns="http://www.w3.org/2000/svg" xmlns:xlink="http://www.w3.org/1999/xlink" x="0px" y="0px"
	 viewBox="0 0 410 487.5" style="enable-background:new 0 0 410 487.5;" xml:space="preserve">
<style type="text/css">
	.st0{fill:#D8D8D8;}
	.st1{opacity:0.26;}
	.st2{fill:#2B2A2A;}
	.st3{fill:#3195AB;}
	.st4{fill:#EF4438;}
	.st5{fill:#80C342;}
	.st6{fill:#F9ED28;}
	.st7{fill:#FFFFFF;}
	.st8{fill:none;stroke:#EF4438;stroke-width:0.7222;stroke-miterlimit:10;}
	.st9{fill:#EAEAEA;}
	.st10{fill:#8E8E8E;}
	.st11{fill:#8E8E8E;stroke:#454545;stroke-width:5;stroke-miterlimit:10;}
	.st12{fill:#707071;stroke:#1E1E1E;stroke-miterlimit:10;}
	.st13{fill:#BFBFBF;}
	.st14{fill:#231F20;}
	.st15{fill:#BE384B;}
	.st16{fill:#353535;}
</style>
<g id="Layer_1">
	<g>
		<rect x="7.4" class="st0" width="402.6" height="36.3"/>
	</g>
	<g>
		<g class="st1">
			<line class="st2" x1="18.5" y1="47.4" x2="421.1" y2="47.4"/>
		</g>
		<g>
			<line class="st3" x1="7.4" y1="36.3" x2="410" y2="36.3"/>
		</g>
	</g>
	<circle class="st4" cx="403.1" cy="6.6" r="2.4"/>
	<circle class="st5" cx="387.8" cy="6.6" r="2.4"/>
	<circle class="st6" cx="395.6" cy="6.6" r="2.4"/>
	<path class="st7" d="M377.8,22.4H48.4c-0.8,0-1.4-0.6-1.4-1.4v-5c0-0.8,0.6-1.4,1.4-1.4h329.5c0.8,0,1.4,0.6,1.4,1.4v5
		C379.2,21.8,378.6,22.4,377.8,22.4z"/>
	<g>
		<g>
			<polygon class="st4" points="39.5,17.6 37,17.6 39.5,15.1 42,17.6 			"/>
			<rect x="37.5" y="17.6" class="st4" width="4" height="3.5"/>
			<rect x="38.9" y="19" class="st0" width="1.2" height="2.7"/>
			<rect x="40.6" y="15.3" class="st4" width="0.3" height="0.8"/>
		</g>
		<circle class="st8" cx="31.2" cy="18.3" r="2.8"/>
		<rect x="32.3" y="17" class="st0" width="3.5" height="2.5"/>
		<polygon class="st8" points="34,16.3 34.1,17.5 33,17.4 		"/>
		<rect x="19.7" y="18.1" class="st4" width="4.3" height="1"/>
		<path class="st4" d="M23.9,17.9L23,16.6l3,1.9c0.1,0,0.1,0.1,0,0.2l-2.7,1.8l0.7-1.5"/>
		<rect x="13.5" y="18.1" class="st4" width="3.8" height="1"/>
		<path class="st4" d="M13.6,19.3l0.9,1.3l-3-1.9c-0.1,0-0.1-0.1,0-0.2l2.7-1.8l-0.7,1.5"/>
	</g>
	<line class="st9" x1="7.4" y1="36.3" x2="410" y2="36.3"/>
	<polygon class="st10" points="7.4,480.1 7.4,0 0,9 0,480.1 0,487.5 7.4,487.5 400.6,487.5 410,480.1 	"/>
	<path class="st11" d="M7.4,480.1"/>
	<path class="st12" d="M-46.3,478.8"/>
</g>
<g id="objects">
	<g>
		<rect x="56.5" y="93.7" class="st13" width="80" height="61.3"/>
		<rect x="56.5" y="357" class="st3" width="82.3" height="16.7"/>
	</g>
	<rect x="7.4" y="36.3" class="st3" width="402.6" height="24.7"/>
	<g>
		<path class="st7" d="M62.4,49.9h-2.9V53h-2.4v-8h2.4v2.8h2.9V45h2.4v8h-2.4V49.9z"/>
		<path class="st7" d="M65.7,50.1c0-1.6,1.2-3,3.3-3c2.1,0,3.3,1.4,3.3,3s-1.2,3-3.3,3C66.9,53.2,65.7,51.7,65.7,50.1z M70,50.1
			c0-0.6-0.4-1.1-1-1.1c-0.7,0-1,0.5-1,1.1c0,0.6,0.4,1.1,1,1.1C69.6,51.2,70,50.8,70,50.1z"/>
		<path class="st7" d="M73.4,50.8c0.5,0.4,1.4,0.7,2.1,0.7c0.4,0,0.6-0.1,0.6-0.3c0-0.2-0.3-0.3-0.8-0.3c-1-0.1-2.5-0.3-2.5-1.9
			c0-1,0.9-2,2.6-2c1,0,1.8,0.3,2.5,0.7l-0.8,1.4c-0.4-0.3-1-0.6-1.7-0.6c-0.3,0-0.5,0.1-0.5,0.3s0.2,0.2,0.7,0.3
			c1,0.1,2.5,0.3,2.5,2c0,1.2-1,2-2.7,2c-1.1,0-2.2-0.4-2.8-0.9L73.4,50.8z"/>
		<path class="st7" d="M79.4,51.3v-2.2h-1v-1.9h1v-1.6h2.2v1.6h1.2v1.9h-1.2v1.6c0,0.3,0.2,0.5,0.5,0.5c0.2,0,0.4-0.1,0.4-0.1
			l0.4,1.6c-0.2,0.2-0.7,0.4-1.5,0.4C80.1,53.2,79.4,52.5,79.4,51.3z"/>
		<path class="st7" d="M83.4,45.4c0-0.7,0.5-1.2,1.2-1.2c0.7,0,1.2,0.5,1.2,1.2c0,0.7-0.5,1.2-1.2,1.2
			C83.9,46.6,83.4,46.1,83.4,45.4z M83.5,47.2h2.2V53h-2.2V47.2z"/>
		<path class="st7" d="M90.8,49.8c0-0.6-0.3-0.8-0.8-0.8c-0.5,0-0.7,0.3-0.9,0.5V53h-2.2v-5.8H89v0.7c0.3-0.4,1-0.8,2-0.8
			c1.3,0,1.9,0.8,1.9,1.8V53h-2.2V49.8z"/>
		<path class="st7" d="M94.8,53c0.4,0.4,1.1,0.6,1.7,0.6c0.5,0,1.3-0.2,1.3-1.2v-0.3c-0.5,0.6-1,0.8-1.6,0.8c-1.4,0-2.5-0.9-2.5-2.9
			c0-1.9,1.1-2.9,2.5-2.9c0.6,0,1.2,0.2,1.6,0.8v-0.6h2.2v5.2c0,2.5-2.1,3-3.5,3c-1,0-1.9-0.3-2.6-0.9L94.8,53z M97.9,49.3
			C97.7,49.1,97.3,49,97,49c-0.6,0-1.1,0.3-1.1,1s0.5,1,1.1,1c0.3,0,0.7-0.1,0.9-0.4V49.3z"/>
		<path class="st7" d="M104,49c0-2.5,1.9-4.1,4.3-4.1c2.2,0,3.2,1.2,3.7,2.3l-2.1,1c-0.2-0.6-0.8-1.2-1.6-1.2c-1.1,0-1.9,0.9-1.9,2
			c0,1.1,0.8,2,1.9,2c0.8,0,1.4-0.5,1.6-1.2l2.1,1c-0.5,1.1-1.5,2.3-3.7,2.3C105.9,53.2,104,51.5,104,49z"/>
		<path class="st7" d="M112.3,50.1c0-1.6,1.2-3,3.3-3c2.1,0,3.3,1.4,3.3,3s-1.2,3-3.3,3C113.5,53.2,112.3,51.7,112.3,50.1z
			 M116.6,50.1c0-0.6-0.4-1.1-1-1.1c-0.7,0-1,0.5-1,1.1c0,0.6,0.4,1.1,1,1.1C116.2,51.2,116.6,50.8,116.6,50.1z"/>
		<path class="st7" d="M127,49.6c0-0.3-0.2-0.6-0.7-0.6c-0.5,0-0.7,0.3-0.9,0.5V53h-2.2v-3.4c0-0.3-0.2-0.6-0.7-0.6
			c-0.5,0-0.7,0.3-0.9,0.5V53h-2.2v-5.8h2.2v0.7c0.3-0.3,1-0.8,1.9-0.8c0.8,0,1.4,0.3,1.7,1c0.3-0.5,1.1-1,2-1
			c1.1,0,1.8,0.5,1.8,1.7V53H127V49.6z"/>
		<path class="st7" d="M130.4,55.2v-8h2.2v0.6c0.5-0.6,1-0.8,1.6-0.8c1.4,0,2.5,1.1,2.5,3c0,2-1.1,3-2.5,3c-0.6,0-1.2-0.2-1.6-0.8
			v2.8H130.4z M133.4,49c-0.3,0-0.7,0.1-0.9,0.4v1.5c0.2,0.2,0.6,0.4,0.9,0.4c0.6,0,1.1-0.4,1.1-1.1C134.5,49.4,134,49,133.4,49z"/>
		<path class="st7" d="M140.9,52.5c-0.3,0.4-1,0.7-1.8,0.7c-0.9,0-2-0.6-2-1.9c0-1.4,1.1-1.8,2-1.8c0.8,0,1.4,0.2,1.8,0.6v-0.7
			c0-0.4-0.4-0.7-1.1-0.7c-0.5,0-1.2,0.2-1.6,0.6l-0.7-1.3c0.8-0.6,1.9-0.9,2.7-0.9c1.4,0,2.8,0.5,2.8,2.4V53h-2.2V52.5z
			 M140.9,51.1c-0.1-0.2-0.5-0.3-0.9-0.3c-0.4,0-0.8,0.1-0.8,0.5s0.4,0.5,0.8,0.5c0.3,0,0.7-0.1,0.9-0.3V51.1z"/>
		<path class="st7" d="M148.2,49.8c0-0.6-0.3-0.8-0.8-0.8c-0.5,0-0.7,0.3-0.9,0.5V53h-2.2v-5.8h2.2v0.7c0.3-0.4,1-0.8,2-0.8
			c1.3,0,1.9,0.8,1.9,1.8V53h-2.2V49.8z"/>
		<path class="st7" d="M152.2,53.5c0.4,0,0.7-0.1,0.8-0.2l0-0.1l-2.3-5.9h2.3l1.1,3.3l1.1-3.3h2.3l-2.5,6.5
			c-0.5,1.3-1.5,1.6-2.7,1.6c-0.2,0-0.6,0-0.8-0.1l0.3-1.9C151.9,53.4,152.1,53.5,152.2,53.5z"/>
	</g>
	<g>
		<path class="st14" d="M65.2,74.6l-0.9,3.8h-2.1l-1.9-6.7h2.3l0.9,4.1l1-4.1H66l1,4.1l0.8-4.1h2.3l-1.9,6.7h-2.1L65.2,74.6z"/>
		<path class="st14" d="M72.4,73.4c1.4,0,2.5,1,2.5,2.7v0.4h-3.3c0.1,0.3,0.4,0.6,1.1,0.6c0.4,0,0.8-0.1,1.1-0.3l0.7,1.1
			c-0.5,0.4-1.3,0.6-2.1,0.6c-1.5,0-2.7-0.9-2.7-2.5C69.8,74.5,70.8,73.4,72.4,73.4z M71.6,75.3h1.6c-0.1-0.2-0.2-0.6-0.8-0.6
			C71.8,74.8,71.7,75.1,71.6,75.3z"/>
		<path class="st14" d="M75.5,71.7h1.8V74c0.4-0.5,0.9-0.6,1.4-0.6c1.2,0,2.1,0.9,2.1,2.5c0,1.7-1,2.5-2.1,2.5
			c-0.5,0-0.9-0.2-1.4-0.6v0.5h-1.8V71.7z M78.1,76.9c0.5,0,0.9-0.3,0.9-0.9c0-0.6-0.4-0.9-0.9-0.9c-0.2,0-0.6,0.1-0.7,0.3v1.2
			C77.5,76.8,77.8,76.9,78.1,76.9z"/>
		<path class="st14" d="M81.8,76.5c0.4,0.3,1.2,0.6,1.7,0.6c0.4,0,0.5-0.1,0.5-0.2c0-0.2-0.2-0.2-0.7-0.3c-0.8-0.1-2.1-0.3-2.1-1.6
			c0-0.9,0.8-1.6,2.2-1.6c0.8,0,1.5,0.3,2.1,0.6l-0.7,1.2c-0.3-0.3-0.9-0.5-1.4-0.5c-0.3,0-0.4,0.1-0.4,0.2c0,0.1,0.1,0.2,0.6,0.3
			c0.8,0.1,2.1,0.3,2.1,1.6c0,1-0.9,1.7-2.3,1.7c-0.9,0-1.8-0.3-2.4-0.7L81.8,76.5z"/>
		<path class="st14" d="M86.3,72c0-0.6,0.4-1,1-1c0.6,0,1,0.5,1,1s-0.4,1-1,1C86.7,73,86.3,72.6,86.3,72z M86.4,73.5h1.8v4.8h-1.8
			V73.5z"/>
		<path class="st14" d="M89.5,76.9v-1.9h-0.8v-1.6h0.8v-1.3h1.8v1.3h1v1.6h-1v1.3c0,0.3,0.2,0.4,0.4,0.4c0.2,0,0.3,0,0.4-0.1
			l0.3,1.4c-0.2,0.2-0.6,0.3-1.2,0.3C90.1,78.5,89.5,78,89.5,76.9z"/>
		<path class="st14" d="M95.3,73.4c1.4,0,2.5,1,2.5,2.7v0.4h-3.3c0.1,0.3,0.4,0.6,1.1,0.6c0.4,0,0.8-0.1,1.1-0.3l0.7,1.1
			c-0.5,0.4-1.3,0.6-2.1,0.6c-1.5,0-2.7-0.9-2.7-2.5C92.7,74.5,93.7,73.4,95.3,73.4z M94.5,75.3h1.6c-0.1-0.2-0.2-0.6-0.8-0.6
			C94.7,74.8,94.6,75.1,94.5,75.3z"/>
		<path class="st14" d="M105.4,75.8H103v2.5h-2v-6.7h2V74h2.4v-2.4h2v6.7h-2V75.8z"/>
		<path class="st14" d="M108.2,75.9c0-1.3,1-2.5,2.7-2.5c1.7,0,2.7,1.2,2.7,2.5c0,1.3-1,2.5-2.7,2.5
			C109.2,78.5,108.2,77.3,108.2,75.9z M111.7,75.9c0-0.5-0.3-0.9-0.9-0.9c-0.5,0-0.9,0.4-0.9,0.9c0,0.5,0.3,0.9,0.9,0.9
			C111.4,76.9,111.7,76.5,111.7,75.9z"/>
		<path class="st14" d="M114.6,76.5c0.4,0.3,1.2,0.6,1.7,0.6c0.4,0,0.5-0.1,0.5-0.2c0-0.2-0.2-0.2-0.7-0.3c-0.8-0.1-2.1-0.3-2.1-1.6
			c0-0.9,0.8-1.6,2.2-1.6c0.8,0,1.5,0.3,2.1,0.6l-0.7,1.2c-0.3-0.3-0.9-0.5-1.4-0.5c-0.3,0-0.4,0.1-0.4,0.2c0,0.1,0.1,0.2,0.6,0.3
			c0.8,0.1,2.1,0.3,2.1,1.6c0,1-0.9,1.7-2.3,1.7c-0.9,0-1.8-0.3-2.4-0.7L114.6,76.5z"/>
		<path class="st14" d="M119.5,76.9v-1.9h-0.8v-1.6h0.8v-1.3h1.8v1.3h1v1.6h-1v1.3c0,0.3,0.2,0.4,0.4,0.4c0.2,0,0.3,0,0.4-0.1
			l0.3,1.4c-0.2,0.2-0.6,0.3-1.2,0.3C120.1,78.5,119.5,78,119.5,76.9z"/>
		<path class="st14" d="M122.9,72c0-0.6,0.4-1,1-1c0.6,0,1,0.5,1,1s-0.4,1-1,1C123.3,73,122.9,72.6,122.9,72z M123,73.5h1.8v4.8H123
			V73.5z"/>
		<path class="st14" d="M129,75.7c0-0.5-0.3-0.7-0.7-0.7c-0.4,0-0.6,0.2-0.8,0.4v3h-1.8v-4.8h1.8v0.5c0.3-0.3,0.8-0.7,1.7-0.7
			c1.1,0,1.6,0.7,1.6,1.5v3.4H129V75.7z"/>
		<path class="st14" d="M132.4,78.3c0.4,0.4,0.9,0.5,1.4,0.5c0.4,0,1.1-0.2,1.1-1v-0.3c-0.4,0.5-0.9,0.6-1.4,0.6
			c-1.2,0-2.1-0.8-2.1-2.4c0-1.6,0.9-2.4,2.1-2.4c0.5,0,1,0.2,1.4,0.6v-0.5h1.8v4.3c0,2.1-1.7,2.5-2.9,2.5c-0.8,0-1.6-0.2-2.2-0.7
			L132.4,78.3z M135,75.3c-0.2-0.2-0.5-0.3-0.7-0.3c-0.5,0-0.9,0.2-0.9,0.8s0.4,0.8,0.9,0.8c0.2,0,0.6-0.1,0.7-0.3V75.3z"/>
		<path class="st14" d="M150.6,71.7h3c2.1,0,3.7,1.2,3.7,3.3c0,2.1-1.6,3.3-3.6,3.3h-3V71.7z M153.6,76.6c1,0,1.6-0.7,1.6-1.6
			c0-0.9-0.5-1.6-1.6-1.6h-1v3.1H153.6z"/>
		<path class="st14" d="M157.6,75.9c0-1.3,1-2.5,2.7-2.5c1.7,0,2.7,1.2,2.7,2.5c0,1.3-1,2.5-2.7,2.5
			C158.6,78.5,157.6,77.3,157.6,75.9z M161.2,75.9c0-0.5-0.3-0.9-0.9-0.9c-0.5,0-0.9,0.4-0.9,0.9c0,0.5,0.3,0.9,0.9,0.9
			C160.8,76.9,161.2,76.5,161.2,75.9z"/>
		<path class="st14" d="M169.8,75.5c0-0.3-0.1-0.5-0.5-0.5s-0.6,0.2-0.7,0.4v3h-1.8v-2.8c0-0.3-0.1-0.5-0.5-0.5
			c-0.4,0-0.6,0.2-0.7,0.4v3h-1.8v-4.8h1.8v0.5c0.2-0.3,0.8-0.7,1.6-0.7c0.7,0,1.2,0.3,1.4,0.8c0.3-0.4,0.9-0.8,1.7-0.8
			c0.9,0,1.5,0.4,1.5,1.4v3.5h-1.8V75.5z"/>
		<path class="st14" d="M175.4,77.9c-0.3,0.3-0.9,0.6-1.5,0.6c-0.7,0-1.7-0.5-1.7-1.6c0-1.2,0.9-1.5,1.7-1.5c0.6,0,1.2,0.2,1.5,0.5
			v-0.5c0-0.3-0.3-0.6-0.9-0.6c-0.4,0-1,0.2-1.3,0.5l-0.6-1.1c0.6-0.5,1.5-0.7,2.3-0.7c1.2,0,2.4,0.4,2.4,2v2.9h-1.8V77.9z
			 M175.4,76.8c-0.1-0.2-0.4-0.3-0.7-0.3c-0.3,0-0.6,0.1-0.6,0.4c0,0.3,0.3,0.4,0.6,0.4c0.3,0,0.6-0.1,0.7-0.3V76.8z"/>
		<path class="st14" d="M178.1,72c0-0.6,0.4-1,1-1c0.6,0,1,0.5,1,1s-0.4,1-1,1C178.6,73,178.1,72.6,178.1,72z M178.2,73.5h1.8v4.8
			h-1.8V73.5z"/>
		<path class="st14" d="M184.3,75.7c0-0.5-0.3-0.7-0.7-0.7c-0.4,0-0.6,0.2-0.8,0.4v3H181v-4.8h1.8v0.5c0.3-0.3,0.8-0.7,1.7-0.7
			c1.1,0,1.6,0.7,1.6,1.5v3.4h-1.8V75.7z"/>
		<path class="st14" d="M187.4,76.5c0.4,0.3,1.2,0.6,1.7,0.6c0.4,0,0.5-0.1,0.5-0.2c0-0.2-0.2-0.2-0.7-0.3c-0.8-0.1-2.1-0.3-2.1-1.6
			c0-0.9,0.8-1.6,2.2-1.6c0.8,0,1.5,0.3,2.1,0.6l-0.7,1.2c-0.3-0.3-0.9-0.5-1.4-0.5c-0.3,0-0.4,0.1-0.4,0.2c0,0.1,0.1,0.2,0.6,0.3
			c0.8,0.1,2.1,0.3,2.1,1.6c0,1-0.9,1.7-2.3,1.7c-0.9,0-1.8-0.3-2.4-0.7L187.4,76.5z"/>
		<path class="st14" d="M202.2,71.7h5.1v1.7h-3v0.8h3v1.7h-3v0.8h3v1.7h-5.1V71.7z"/>
		<path class="st14" d="M214.3,75.5c0-0.3-0.1-0.5-0.5-0.5c-0.4,0-0.6,0.2-0.7,0.4v3h-1.8v-2.8c0-0.3-0.1-0.5-0.5-0.5
			c-0.4,0-0.6,0.2-0.7,0.4v3h-1.8v-4.8h1.8v0.5c0.2-0.3,0.8-0.7,1.6-0.7c0.7,0,1.2,0.3,1.4,0.8c0.3-0.4,0.9-0.8,1.7-0.8
			c0.9,0,1.5,0.4,1.5,1.4v3.5h-1.8V75.5z"/>
		<path class="st14" d="M219.9,77.9c-0.3,0.3-0.9,0.6-1.5,0.6c-0.7,0-1.7-0.5-1.7-1.6c0-1.2,0.9-1.5,1.7-1.5c0.6,0,1.2,0.2,1.5,0.5
			v-0.5c0-0.3-0.3-0.6-0.9-0.6c-0.5,0-1,0.2-1.3,0.5l-0.6-1.1c0.7-0.5,1.5-0.7,2.3-0.7c1.2,0,2.4,0.4,2.4,2v2.9h-1.8V77.9z
			 M219.9,76.8c-0.1-0.2-0.4-0.3-0.7-0.3c-0.3,0-0.6,0.1-0.6,0.4c0,0.3,0.3,0.4,0.6,0.4c0.3,0,0.6-0.1,0.7-0.3V76.8z"/>
		<path class="st14" d="M222.6,72c0-0.6,0.5-1,1-1s1,0.5,1,1s-0.4,1-1,1S222.6,72.6,222.6,72z M222.7,73.5h1.8v4.8h-1.8V73.5z"/>
		<path class="st14" d="M225.5,71.7h1.8v6.7h-1.8V71.7z"/>
		<path class="st14" d="M238.6,71.7h5.1v1.7h-3v0.8h3v1.7h-3v2.5h-2V71.7z"/>
		<path class="st14" d="M245.9,73.4h-1.8v-1.8h5.6v1.8h-1.8v4.9h-2V73.4z"/>
		<path class="st14" d="M250.4,71.7h3.6c1.6,0,2.4,1,2.4,2.3c0,1.2-0.8,2.2-2.4,2.2h-1.5v2.1h-2V71.7z M253.7,73.4h-1.3v1.2h1.3
			c0.3,0,0.6-0.2,0.6-0.6C254.3,73.6,254.1,73.4,253.7,73.4z"/>
		<path class="st14" d="M267.8,75.9c0.5,0.5,1.3,0.9,2.1,0.9c0.4,0,0.7-0.1,0.7-0.4c0-0.3-0.3-0.4-0.9-0.5c-1.1-0.2-2.8-0.5-2.8-2.1
			c0-1.1,0.9-2.2,2.8-2.2c1.1,0,2.1,0.3,2.8,0.9l-1.1,1.4c-0.6-0.4-1.3-0.7-1.9-0.7c-0.5,0-0.6,0.2-0.6,0.4c0,0.3,0.3,0.3,1,0.5
			c1.1,0.2,2.7,0.5,2.7,2c0,1.5-1.1,2.3-2.9,2.3c-1.4,0-2.4-0.4-3.1-1.1L267.8,75.9z"/>
		<path class="st14" d="M276.6,77.8c-0.3,0.3-0.8,0.7-1.7,0.7c-1.1,0-1.6-0.7-1.6-1.5v-3.4h1.8v2.7c0,0.5,0.3,0.7,0.7,0.7
			c0.4,0,0.6-0.2,0.8-0.4v-3h1.8v4.8h-1.8V77.8z"/>
		<path class="st14" d="M279.4,80.2v-6.7h1.8V74c0.4-0.5,0.9-0.6,1.4-0.6c1.2,0,2.1,0.9,2.1,2.5c0,1.7-0.9,2.5-2.1,2.5
			c-0.5,0-1-0.2-1.4-0.6v2.3H279.4z M281.9,75c-0.2,0-0.6,0.1-0.7,0.3v1.2c0.2,0.2,0.5,0.3,0.7,0.3c0.5,0,0.9-0.3,0.9-0.9
			C282.8,75.3,282.4,75,281.9,75z"/>
		<path class="st14" d="M285.4,80.2v-6.7h1.8V74c0.4-0.5,0.9-0.6,1.4-0.6c1.2,0,2.1,0.9,2.1,2.5c0,1.7-0.9,2.5-2.1,2.5
			c-0.5,0-1-0.2-1.4-0.6v2.3H285.4z M287.9,75c-0.2,0-0.6,0.1-0.7,0.3v1.2c0.2,0.2,0.5,0.3,0.7,0.3c0.5,0,0.9-0.3,0.9-0.9
			C288.8,75.3,288.4,75,287.9,75z"/>
		<path class="st14" d="M291,75.9c0-1.3,1-2.5,2.7-2.5c1.7,0,2.7,1.2,2.7,2.5c0,1.3-1,2.5-2.7,2.5C292,78.5,291,77.3,291,75.9z
			 M294.5,75.9c0-0.5-0.3-0.9-0.9-0.9c-0.5,0-0.9,0.4-0.9,0.9c0,0.5,0.3,0.9,0.9,0.9C294.2,76.9,294.5,76.5,294.5,75.9z"/>
		<path class="st14" d="M297.1,73.5h1.8v0.5c0.3-0.3,0.9-0.7,1.5-0.7v1.7c-0.1,0-0.2-0.1-0.4-0.1c-0.4,0-0.9,0.1-1.1,0.3v2.9h-1.8
			V73.5z"/>
		<path class="st14" d="M301.3,76.9v-1.9h-0.8v-1.6h0.8v-1.3h1.8v1.3h1v1.6h-1v1.3c0,0.3,0.2,0.4,0.4,0.4c0.2,0,0.3,0,0.4-0.1
			l0.3,1.4c-0.2,0.2-0.6,0.3-1.2,0.3C301.9,78.5,301.3,78,301.3,76.9z"/>
		<path class="st14" d="M317.6,71.7h3c2.1,0,3.7,1.2,3.7,3.3c0,2.1-1.6,3.3-3.6,3.3h-3V71.7z M320.6,76.6c1,0,1.6-0.7,1.6-1.6
			c0-0.9-0.5-1.6-1.6-1.6h-1v3.1H320.6z"/>
		<path class="st14" d="M327.7,77.9c-0.3,0.3-0.9,0.6-1.5,0.6c-0.7,0-1.7-0.5-1.7-1.6c0-1.2,0.9-1.5,1.7-1.5c0.6,0,1.2,0.2,1.5,0.5
			v-0.5c0-0.3-0.3-0.6-0.9-0.6c-0.5,0-1,0.2-1.3,0.5l-0.6-1.1c0.7-0.5,1.5-0.7,2.3-0.7c1.2,0,2.4,0.4,2.4,2v2.9h-1.8V77.9z
			 M327.7,76.8c-0.1-0.2-0.4-0.3-0.7-0.3c-0.3,0-0.6,0.1-0.6,0.4c0,0.3,0.3,0.4,0.6,0.4c0.3,0,0.6-0.1,0.7-0.3V76.8z"/>
		<path class="st14" d="M330.9,76.9v-1.9h-0.8v-1.6h0.8v-1.3h1.8v1.3h1v1.6h-1v1.3c0,0.3,0.2,0.4,0.4,0.4c0.2,0,0.3,0,0.4-0.1
			l0.3,1.4c-0.2,0.2-0.6,0.3-1.2,0.3C331.4,78.5,330.9,78,330.9,76.9z"/>
		<path class="st14" d="M337.1,77.9c-0.3,0.3-0.9,0.6-1.5,0.6c-0.7,0-1.7-0.5-1.7-1.6c0-1.2,0.9-1.5,1.7-1.5c0.6,0,1.2,0.2,1.5,0.5
			v-0.5c0-0.3-0.3-0.6-0.9-0.6c-0.5,0-1,0.2-1.3,0.5l-0.6-1.1c0.7-0.5,1.5-0.7,2.3-0.7c1.2,0,2.4,0.4,2.4,2v2.9h-1.8V77.9z
			 M337.1,76.8c-0.1-0.2-0.4-0.3-0.7-0.3c-0.3,0-0.6,0.1-0.6,0.4c0,0.3,0.3,0.4,0.6,0.4c0.3,0,0.6-0.1,0.7-0.3V76.8z"/>
		<path class="st14" d="M339.9,71.7h1.8V74c0.4-0.5,0.9-0.6,1.4-0.6c1.2,0,2.1,0.9,2.1,2.5c0,1.7-1,2.5-2.1,2.5
			c-0.5,0-0.9-0.2-1.4-0.6v0.5h-1.8V71.7z M342.4,76.9c0.5,0,0.9-0.3,0.9-0.9c0-0.6-0.4-0.9-0.9-0.9c-0.2,0-0.6,0.1-0.7,0.3v1.2
			C341.9,76.8,342.2,76.9,342.4,76.9z"/>
		<path class="st14" d="M348.6,77.9c-0.3,0.3-0.9,0.6-1.5,0.6c-0.7,0-1.7-0.5-1.7-1.6c0-1.2,0.9-1.5,1.7-1.5c0.6,0,1.2,0.2,1.5,0.5
			v-0.5c0-0.3-0.3-0.6-0.9-0.6c-0.5,0-1,0.2-1.3,0.5l-0.6-1.1c0.7-0.5,1.5-0.7,2.3-0.7c1.2,0,2.4,0.4,2.4,2v2.9h-1.8V77.9z
			 M348.6,76.8c-0.1-0.2-0.4-0.3-0.7-0.3c-0.3,0-0.6,0.1-0.6,0.4c0,0.3,0.3,0.4,0.6,0.4c0.3,0,0.6-0.1,0.7-0.3V76.8z"/>
		<path class="st14" d="M351.8,76.5c0.4,0.3,1.2,0.6,1.7,0.6c0.4,0,0.5-0.1,0.5-0.2c0-0.2-0.2-0.2-0.7-0.3c-0.8-0.1-2.1-0.3-2.1-1.6
			c0-0.9,0.8-1.6,2.2-1.6c0.8,0,1.5,0.3,2.1,0.6l-0.7,1.2c-0.3-0.3-0.9-0.5-1.4-0.5c-0.3,0-0.5,0.1-0.5,0.2c0,0.1,0.1,0.2,0.6,0.3
			c0.8,0.1,2.1,0.3,2.1,1.6c0,1-0.9,1.7-2.3,1.7c-0.9,0-1.8-0.3-2.4-0.7L351.8,76.5z"/>
		<path class="st14" d="M358.6,73.4c1.4,0,2.5,1,2.5,2.7v0.4h-3.3c0.1,0.3,0.4,0.6,1.1,0.6c0.4,0,0.8-0.1,1.1-0.3l0.7,1.1
			c-0.5,0.4-1.3,0.6-2.1,0.6c-1.5,0-2.7-0.9-2.7-2.5C356,74.5,357.1,73.4,358.6,73.4z M357.9,75.3h1.6c0-0.2-0.2-0.6-0.8-0.6
			C358.1,74.8,357.9,75.1,357.9,75.3z"/>
	</g>
	<rect x="56.5" y="163.3" class="st13" width="80" height="5"/>
	<rect x="56.5" y="172.7" class="st13" width="80" height="5"/>
	<rect x="56.5" y="182.7" class="st13" width="80" height="5"/>
	<rect x="56.5" y="195.3" class="st15" width="80" height="90"/>
	<polyline class="st13" points="56.5,293.7 136.5,293.7 136.5,298.7 56.5,298.7 	"/>
	<polyline class="st13" points="56.5,303 136.5,303 136.5,308 56.5,308 	"/>
	<polyline class="st13" points="56.5,313 136.5,313 136.5,318 56.5,318 	"/>
	<polyline class="st13" points="56.5,322.7 136.5,322.7 136.5,327.7 56.5,327.7 	"/>
	<polyline class="st13" points="56.5,332 136.5,332 136.5,337 56.5,337 	"/>
	<polyline class="st13" points="56.5,342 136.5,342 136.5,347 56.5,347 	"/>
	<polyline class="st13" points="57.6,385.7 137.6,385.7 137.6,390.7 57.6,390.7 	"/>
	<polyline class="st13" points="57.6,395 137.6,395 137.6,400 57.6,400 	"/>
	<polyline class="st13" points="57.6,405 137.6,405 137.6,410 57.6,410 	"/>
	<polyline class="st13" points="57.6,414.7 137.6,414.7 137.6,419.7 57.6,419.7 	"/>
	<polyline class="st13" points="57.6,424 137.6,424 137.6,429 57.6,429 	"/>
	<polyline class="st13" points="57.6,434 137.6,434 137.6,439 57.6,439 	"/>
	<rect x="56.5" y="448.8" class="st15" width="82.3" height="22.2"/>
	<path class="st13" d="M356.5,113.7H167.8c-5.5,0-10-4.5-10-10v0c0-5.5,4.5-10,10-10h188.7c5.5,0,10,4.5,10,10v0
		C366.5,109.2,362,113.7,356.5,113.7z"/>
	<path class="st13" d="M356.5,232H167.8c-5.5,0-10-4.5-10-10v0c0-5.5,4.5-10,10-10h188.7c5.5,0,10,4.5,10,10v0
		C366.5,227.5,362,232,356.5,232z"/>
	<path class="st13" d="M356.5,344H167.8c-5.5,0-10-4.5-10-10v0c0-5.5,4.5-10,10-10h188.7c5.5,0,10,4.5,10,10v0
		C366.5,339.5,362,344,356.5,344z"/>
	<path class="st13" d="M356.5,457.3H167.8c-5.5,0-10-4.5-10-10v0c0-5.5,4.5-10,10-10h188.7c5.5,0,10,4.5,10,10v0
		C366.5,452.8,362,457.3,356.5,457.3z"/>
	<ellipse class="st3" cx="185.6" cy="139.3" rx="13.8" ry="14.3"/>
	<ellipse class="st16" cx="222.4" cy="139.3" rx="13.8" ry="14.3"/>
	<ellipse class="st15" cx="262.6" cy="139.3" rx="13.8" ry="14.3"/>
	<ellipse class="st16" cx="299.4" cy="139.3" rx="13.8" ry="14.3"/>
	<ellipse class="st3" cx="335.9" cy="139.3" rx="13.8" ry="14.3"/>
	<ellipse class="st3" cx="186.4" cy="180.3" rx="13.8" ry="14.3"/>
	<ellipse class="st16" cx="223.3" cy="180.3" rx="13.8" ry="14.3"/>
	<ellipse class="st15" cx="263.4" cy="180.3" rx="13.8" ry="14.3"/>
	<ellipse class="st16" cx="300.3" cy="180.3" rx="13.8" ry="14.3"/>
	<ellipse class="st3" cx="336.8" cy="180.3" rx="13.8" ry="14.3"/>
	<ellipse class="st3" cx="186.6" cy="253.8" rx="13.8" ry="14.3"/>
	<ellipse class="st16" cx="223.4" cy="253.8" rx="13.8" ry="14.3"/>
	<ellipse class="st15" cx="263.6" cy="253.8" rx="13.8" ry="14.3"/>
	<ellipse class="st16" cx="300.4" cy="253.8" rx="13.8" ry="14.3"/>
	<ellipse class="st3" cx="336.9" cy="253.8" rx="13.8" ry="14.3"/>
	<ellipse class="st3" cx="187.4" cy="294.8" rx="13.8" ry="14.3"/>
	<ellipse class="st16" cx="224.3" cy="294.8" rx="13.8" ry="14.3"/>
	<ellipse class="st15" cx="264.4" cy="294.8" rx="13.8" ry="14.3"/>
	<ellipse class="st16" cx="301.3" cy="294.8" rx="13.8" ry="14.3"/>
	<ellipse class="st3" cx="337.8" cy="294.8" rx="13.8" ry="14.3"/>
	<ellipse class="st3" cx="186.6" cy="366.7" rx="13.8" ry="14.3"/>
	<ellipse class="st16" cx="223.4" cy="366.7" rx="13.8" ry="14.3"/>
	<ellipse class="st15" cx="263.6" cy="366.7" rx="13.8" ry="14.3"/>
	<ellipse class="st16" cx="300.4" cy="366.7" rx="13.8" ry="14.3"/>
	<ellipse class="st3" cx="336.9" cy="366.7" rx="13.8" ry="14.3"/>
	<ellipse class="st3" cx="187.4" cy="407.7" rx="13.8" ry="14.3"/>
	<ellipse class="st16" cx="224.3" cy="407.7" rx="13.8" ry="14.3"/>
	<ellipse class="st15" cx="264.4" cy="407.7" rx="13.8" ry="14.3"/>
	<ellipse class="st16" cx="301.3" cy="407.7" rx="13.8" ry="14.3"/>
	<ellipse class="st3" cx="337.8" cy="407.7" rx="13.8" ry="14.3"/>
</g>
</svg>
