<?xml version="1.0" encoding="utf-8"?>
<!-- Generator: Adobe Illustrator 19.1.0, SVG Export Plug-In . SVG Version: 6.00 Build 0)  -->
<svg version="1.1" id="Layer_1" xmlns="http://www.w3.org/2000/svg" xmlns:xlink="http://www.w3.org/1999/xlink" x="0px" y="0px"
	 viewBox="-96 146.3 417.9 501.7" style="enable-background:new -96 146.3 417.9 501.7;" xml:space="preserve">
<style type="text/css">
	.st0{fill:#3195AB;}
	.st1{fill:none;}
	.st2{fill:#415655;}
	.st3{fill:#353535;}
	.st4{enable-background:new    ;}
	.st5{fill:#EAEAEA;}
	.st6{opacity:0.25;}
	.st7{fill:#255655;}
	.st8{fill:#BE384B;}
	.st9{fill:#565656;}
	.st10{fill:#F597AD;}
	.st11{fill:#E5E5E5;}
	.st12{fill:#CCCCCC;}
</style>
<g id="Layer_1_1_">
	<g>
		<path class="st0" d="M308.6,415.3H-83.1c-1.4,0-2.5-1.1-2.5-2.5v-247c0-1.4,1.1-2.5,2.5-2.5h391.7c1.4,0,2.5,1.1,2.5,2.5v247
			C311.1,414.2,309.9,415.3,308.6,415.3z"/>
	</g>
	<line class="st1" x1="-85.4" y1="408.9" x2="-85.4" y2="408.9"/>
	<path class="st2" d="M301.1,421.2H-74.8c-0.2,0-0.3,0-0.5-0.1l-9.8-6.6c-0.7-0.5-0.3-1.5,0.5-1.5h394.5c0.8,0,1.1,1,0.5,1.5
		l-8.8,6.6C301.5,421.2,301.3,421.2,301.1,421.2z"/>
	<g>
		
			<image style="overflow:visible;opacity:0.5;enable-background:new    ;" width="1288" height="229" xlink:href="E4EA9E19.png"  transform="matrix(0.2384 0 0 0.2384 -40.6585 192.5713)">
		</image>
		<g>
			<g>
				<path class="st3" d="M-35,204.5c6.4-1.1,12.8-2.1,19.2-3c-0.2,2.4-0.4,4.8-0.6,7.2c-3.5,0.5-7,1-10.5,1.6
					c-0.1,1.3-0.2,2.6-0.3,4c3.4-0.5,6.7-1.1,10.1-1.6c-0.2,2.4-0.4,4.8-0.5,7.2c-3.4,0.5-6.7,1-10.1,1.6c-0.2,3.9-0.5,7.7-0.7,11.6
					c-2.8,0.5-5.6,0.9-8.4,1.4C-36.2,224.6-35.7,214.6-35,204.5z"/>
				<path class="st3" d="M-5.1,207.7c5.6-0.7,9.5,2.2,10.2,7.6c0.2,1.7,0,3.8-0.1,4.8c-4.3,0.5-8.6,1.1-12.9,1.7c0,0.1,0,0.2,0,0.3
					c0.1,0.6,1.3,2.5,4.4,2.1c1.5-0.2,3.1-0.9,4-1.7c1,1.5,1.9,2.9,2.9,4.4c-1.8,1.7-4.6,2.9-7.1,3.2c-6.1,0.8-10.6-1.9-11.4-7.7
					C-16.2,216-12.5,208.7-5.1,207.7z M-1.8,215.4c-0.1-1-1.2-2.2-3-1.9c-2,0.3-2.9,2.1-3,3.3c2-0.3,4-0.5,6-0.8
					C-1.7,215.8-1.7,215.5-1.8,215.4z"/>
				<path class="st3" d="M20.6,213.9c0-0.3,0.1-0.9,0.1-1.2c-0.1-1.1-1-1.4-2-1.3c-1.4,0.2-2.4,1.2-3,2.2c-0.5,4.5-1,9.1-1.5,13.6
					c-2.5,0.3-5,0.6-7.5,0.9c0.7-7.2,1.5-14.5,2.3-21.7c2.6-0.3,5.1-0.6,7.7-0.9c-0.1,0.8-0.2,1.7-0.4,2.5c1.2-1.6,3.2-3.4,6.1-3.6
					c3.7-0.4,6.1,1.4,6.3,4.2c0,0.3,0,1.1,0,1.4c-0.7,5.3-1.3,10.6-2,15.9c-2.5,0.2-5,0.5-7.5,0.8C19.6,222.5,20.1,218.2,20.6,213.9
					z"/>
				<path class="st3" d="M41.7,202.7c3.9-0.3,6.8,1,8.4,2.7c-1.4,1.7-2.9,3.4-4.3,5.2c-0.7-0.9-1.9-1.4-3.2-1.3
					c-2.8,0.2-4.5,3.1-4.3,6.2c0.2,2.1,1.9,3.2,3.9,3.1c1.2-0.1,2.2-0.8,2.9-1.6c1,1.7,2,3.4,3,5.2c-1.2,1.4-3.6,2.8-6.7,3.1
					c-6.1,0.5-10.2-2.8-10.7-8.3C30,209.9,34.5,203.3,41.7,202.7z"/>
				<path class="st3" d="M61.5,201.4c5.6-0.3,9.3,2.9,9.5,8.3c0.1,1.8-0.3,3.8-0.5,4.7c-4.3,0.2-8.7,0.4-13,0.7c0,0.1,0,0.2,0,0.4
					c0,0.6,1.1,2.6,4.2,2.4c1.5-0.1,3.1-0.7,4.1-1.4c0.9,1.5,1.7,3.1,2.6,4.6c-1.9,1.6-4.8,2.5-7.3,2.7c-6.2,0.4-10.4-2.7-10.8-8.5
					C49.8,208.8,54.1,201.8,61.5,201.4z M64.2,209.3c-0.1-1-1-2.2-2.8-2.1c-2,0.1-3.1,1.9-3.2,3.1c2-0.1,4-0.2,6.1-0.4
					C64.2,209.7,64.2,209.5,64.2,209.3z"/>
				<path class="st3" d="M97.8,192c8-0.1,11.2,5.1,11.9,9.7c-2.7,0.7-5.4,1.4-8.1,2.1c-0.3-2.5-1.7-4.5-4.1-4.5
					c-4.2,0.1-6.8,6.9-6.6,11c0.1,2.9,1.7,4.8,4.3,4.7c1.8,0,3.7-1.4,4.6-3.5c2.3,1.1,4.5,2.3,6.8,3.4c-2.9,5.1-7.3,7.4-11.7,7.5
					c-7.3,0.1-12.6-4.3-12.8-11.6C81.7,202.2,87.4,192.2,97.8,192z"/>
				<path class="st3" d="M119.8,200c6.8,0.1,10.1,4.1,10,9.4c-0.1,6.3-4.8,12.9-12.1,12.9c-6.6,0-9.9-4-9.9-9.3
					C107.7,206.6,112.4,199.9,119.8,200z M119.4,206.5c-2.5,0-4,4.1-4,6.3c0,1.9,1,2.9,2.6,2.9c2.6,0,4-4.1,4-6.3
					C122.1,207.4,121.1,206.5,119.4,206.5z"/>
				<path class="st3" d="M157.3,210.3c0.1-0.2,0.2-0.8,0.2-1.1c0.1-1-0.6-1.6-1.7-1.6c-1.3-0.1-2.3,0.9-2.9,1.7
					c-1.2,4.4-2.4,8.8-3.6,13.2c-2.5-0.1-5-0.2-7.5-0.3c1.1-4.1,2.2-8.3,3.3-12.4c0.1-0.2,0.2-0.9,0.2-1.1c0-1-0.6-1.6-1.8-1.6
					s-2.3,1-2.9,1.8c-1.2,4.4-2.3,8.9-3.4,13.3c-2.5-0.1-5.1-0.1-7.6-0.2c1.8-7.1,3.5-14.1,5.4-21.1c2.6,0.1,5.1,0.1,7.7,0.2
					c-0.2,0.8-0.5,1.6-0.7,2.4c1.3-1.4,3.5-2.9,6.3-2.8c3.8,0.2,5.5,2.8,5.4,3.9c0,0.1,0,0.1,0,0.2c1.6-1.9,4-3.6,7-3.5
					c3.1,0.2,5.6,2,5.4,5.1c0,0.5-0.2,1.2-0.3,1.4c-1.5,5.1-3,10.3-4.4,15.4c-2.5-0.1-5-0.3-7.5-0.4
					C155,218.6,156.1,214.5,157.3,210.3z"/>
				<path class="st3" d="M170.4,231.8c-2.5-0.2-5-0.3-7.5-0.5c2.8-9.6,5.6-19.3,8.5-28.9c2.6,0.2,5.1,0.4,7.7,0.6
					c-0.3,0.7-0.5,1.5-0.8,2.2c1.9-1.9,3.6-2.5,5.6-2.4c4.2,0.3,6.5,3.3,6,8.6c-0.5,5.8-4.5,13.9-11.4,13.4
					c-2.4-0.2-4.3-1.2-5.2-3.3C172.4,225,171.4,228.4,170.4,231.8z M179.5,209.1c-1-0.1-1.9,0.4-2.7,1.3c-0.6,2-1.3,4.1-1.9,6.1
					c0.5,1,1.4,1.6,2.5,1.7c2.6,0.2,4.3-3.5,4.5-6C182.1,210.4,181.1,209.2,179.5,209.1z"/>
				<path class="st3" d="M208,205.7c2.5,0.3,5.1,0.6,7.6,0.9c-2.5,6.8-4.9,13.7-7.2,20.6c-2.5-0.3-5-0.5-7.5-0.8
					c0.3-0.7,0.5-1.5,0.8-2.2c-1.9,1.8-3.6,2.5-5.5,2.3c-4.1-0.4-6.3-3.4-5.9-8.6c0.5-5.8,4.6-13.9,11.7-13.2
					c2.4,0.2,4.4,1.3,5.2,3.4C207.5,207.2,207.7,206.4,208,205.7z M200.7,220.2c1,0.1,1.9-0.4,2.7-1.2c0.7-2,1.4-4.1,2.1-6.1
					c-0.4-1-1.4-1.6-2.6-1.7c-2.6-0.3-4.5,3.4-4.7,5.9C198.1,218.8,199.1,220.1,200.7,220.2z"/>
				<path class="st3" d="M229.1,217c0.1-0.3,0.3-0.8,0.3-1.1c0.1-1-0.7-1.6-1.6-1.8c-1.4-0.2-2.6,0.6-3.4,1.4
					c-1.6,4.3-3.1,8.6-4.7,12.9c-2.5-0.3-5-0.6-7.5-0.9c2.4-6.9,4.9-13.7,7.4-20.5c2.6,0.3,5.1,0.6,7.7,1c-0.3,0.8-0.6,1.6-1,2.4
					c1.6-1.3,3.9-2.5,6.7-2.1c3.7,0.5,5.6,2.8,5.2,5.5c0,0.3-0.2,1.1-0.4,1.4c-1.9,5-3.8,10-5.7,15c-2.5-0.3-5-0.7-7.5-1
					C226.1,225.1,227.6,221,229.1,217z"/>
				<path class="st3" d="M238,233c0.9,0.1,1.5-0.1,2-0.6c0.3-0.3,0.5-0.6,0.8-0.9c0.2-7.2,0.5-14.3,0.6-21.5
					c2.6,0.4,5.2,0.8,7.8,1.2c-0.5,4.1-0.9,8.2-1.4,12.3c2.7-3.7,5.4-7.5,8.2-11.2c2.8,0.5,5.5,0.9,8.3,1.4
					c-6,7.1-11.8,14.2-17.6,21.4c-3.3,4.2-5.8,5.1-9.5,4.5c-1.5-0.2-3.1-0.7-4-1.2c1.1-1.9,2.2-3.9,3.3-5.8
					C236.8,232.8,237.4,232.9,238,233z"/>
			</g>
		</g>
	</g>
	<g>
		
			<image style="overflow:visible;opacity:0.5;enable-background:new    ;" width="1425" height="304" xlink:href="E4EA9E1B.png"  transform="matrix(0.2392 0 0 0.2392 -59.1948 256.1242)">
		</image>
		<g>
			<g class="st4">
				<path class="st5" d="M-43.6,301.1c-4.9,0-8.7-1.7-11.4-4.3l6.1-7c1.3,1.6,3.5,2.5,5.8,2.5c3.2,0,5.9-2.6,7.2-5.6
					c0.3-0.6,0.4-1.2,0.5-1.8c-1.7,2.2-4.6,3.3-7.5,3.3c-5.3,0-9.7-3.6-9.7-9.3c0-7.9,6.3-15,14.7-15c8.5,0,13.7,5,13.7,13.8
					C-24.2,289.2-31.1,301.1-43.6,301.1z M-37.8,280.3c1.5,0,2.6-0.6,3.5-1.6c0.1-0.5,0.2-1.3,0.2-2c0-2.5-1.6-4-3.8-4
					s-3.9,2.3-3.9,4.4C-41.9,278.9-40.2,280.3-37.8,280.3z"/>
				<path class="st5" d="M-18.4,288.4c1.6,2.3,4.5,3.9,7.6,3.9c3,0,4.5-2.1,4.5-4.2c0-1.7-1.5-3.1-4.2-3.1c-2.1,0-3.6,0.8-5,2.1
					l-6.7-2.4l4.4-20.3H7l-1.9,8.7H-9.7l-1.3,6c1.7-1.6,3.7-2.2,6.2-2.2c5.3,0,9.2,3.4,9.2,9.6c0,7.8-5.9,14.5-15.1,14.5
					c-7,0-12-2.7-14.8-7L-18.4,288.4z"/>
				<path class="st5" d="M19.6,294.3H4.6l2.1-9.2l16.2-20.7h13.6l-4.6,21h3.3l-1.9,8.9h-3.3l-1.4,6.2H18.3L19.6,294.3z M15.6,285.4
					h6l2.4-10.9L15.6,285.4z"/>
				<path class="st5" d="M38.2,283.6h11.6l-1.7,7.6H36.5L38.2,283.6z"/>
				<path class="st5" d="M57.3,288.4c1.6,2.3,4.5,3.9,7.6,3.9c3,0,4.5-2.1,4.5-4.2c0-1.7-1.5-3.1-4.2-3.1c-2.1,0-3.6,0.8-5,2.1
					l-6.7-2.4l4.4-20.3h24.8l-1.9,8.7H66l-1.3,6c1.7-1.6,3.7-2.2,6.2-2.2c5.3,0,9.2,3.4,9.2,9.6c0,7.8-5.9,14.5-15.1,14.5
					c-7,0-12-2.7-14.8-7L57.3,288.4z"/>
				<path class="st5" d="M87.7,288.4c1.6,2.3,4.5,3.9,7.6,3.9c3,0,4.5-2.1,4.5-4.2c0-1.7-1.5-3.1-4.2-3.1c-2.1,0-3.6,0.8-5,2.1
					l-6.7-2.4l4.4-20.3h24.8l-1.9,8.7H96.3l-1.3,6c1.7-1.6,3.7-2.2,6.2-2.2c5.3,0,9.2,3.4,9.2,9.6c0,7.8-5.9,14.5-15.1,14.5
					c-7,0-12-2.7-14.8-7L87.7,288.4z"/>
				<path class="st5" d="M118,288.4c1.6,2.3,4.5,3.9,7.6,3.9c3,0,4.5-2.1,4.5-4.2c0-1.7-1.5-3.1-4.2-3.1c-2.1,0-3.6,0.8-5,2.1
					l-6.7-2.4l4.4-20.3h24.8l-1.9,8.7h-14.9l-1.3,6c1.7-1.6,3.7-2.2,6.2-2.2c5.3,0,9.2,3.4,9.2,9.6c0,7.8-5.9,14.5-15.1,14.5
					c-7,0-12-2.7-14.8-7L118,288.4z"/>
				<path class="st5" d="M144,283.6h11.6l-1.7,7.6h-11.6L144,283.6z"/>
				<path class="st5" d="M163.2,288.4c1.6,2.3,4.5,3.9,7.6,3.9c3,0,4.5-2.1,4.5-4.2c0-1.7-1.5-3.1-4.2-3.1c-2.1,0-3.6,0.8-5,2.1
					l-6.7-2.4l4.4-20.3h24.8l-1.9,8.7h-14.9l-1.3,6c1.7-1.6,3.7-2.2,6.2-2.2c5.3,0,9.2,3.4,9.2,9.6c0,7.8-5.9,14.5-15.1,14.5
					c-7,0-12-2.7-14.8-7L163.2,288.4z"/>
				<path class="st5" d="M193.5,288.4c1.6,2.3,4.5,3.9,7.6,3.9c3,0,4.5-2.1,4.5-4.2c0-1.7-1.5-3.1-4.2-3.1c-2.1,0-3.6,0.8-5,2.1
					l-6.7-2.4l4.4-20.3h24.8l-1.9,8.7h-14.9l-1.3,6c1.7-1.6,3.7-2.2,6.2-2.2c5.3,0,9.2,3.4,9.2,9.6c0,7.8-5.9,14.5-15.1,14.5
					c-7,0-12-2.7-14.8-7L193.5,288.4z"/>
				<path class="st5" d="M223.9,288.4c1.6,2.3,4.5,3.9,7.6,3.9c3,0,4.5-2.1,4.5-4.2c0-1.7-1.5-3.1-4.2-3.1c-2.1,0-3.6,0.8-5,2.1
					l-6.7-2.4l4.4-20.3h24.8l-1.9,8.7h-14.9l-1.3,6c1.7-1.6,3.7-2.2,6.2-2.2c5.3,0,9.2,3.4,9.2,9.6c0,7.8-5.9,14.5-15.1,14.5
					c-7,0-12-2.7-14.8-7L223.9,288.4z"/>
				<path class="st5" d="M254.2,288.4c1.6,2.3,4.5,3.9,7.6,3.9c3,0,4.5-2.1,4.5-4.2c0-1.7-1.5-3.1-4.2-3.1c-2.1,0-3.6,0.8-5,2.1
					l-6.7-2.4l4.4-20.3h24.8l-1.9,8.7h-14.8l-1.3,6c1.7-1.6,3.7-2.2,6.2-2.2c5.3,0,9.2,3.4,9.2,9.6c0,7.8-5.9,14.5-15.1,14.5
					c-7,0-12-2.7-14.8-7L254.2,288.4z"/>
			</g>
		</g>
	</g>
	<g>
		<g class="st6">
			<path class="st7" d="M36.6,380.8H-66.1c-2.8,0-5-2.2-5-5v-35.2c0-2.8,2.2-5,5-5H36.6c2.8,0,5,2.2,5,5v35.2
				C41.6,378.6,39.4,380.8,36.6,380.8z"/>
		</g>
		<g>
			<path class="st3" d="M37.6,377.8H-65.1c-2.8,0-5-2.2-5-5v-35.2c0-2.8,2.2-5,5-5H37.6c2.8,0,5,2.2,5,5v35.2
				C42.6,375.6,40.4,377.8,37.6,377.8z"/>
		</g>
	</g>
	<g>
		<g class="st6">
			<path class="st7" d="M164.3,380.4H61.6c-2.8,0-5-2.2-5-5v-35.2c0-2.8,2.2-5,5-5h102.7c2.8,0,5,2.2,5,5v35.2
				C169.3,378.2,167,380.4,164.3,380.4z"/>
		</g>
		<g>
			<path class="st8" d="M165.3,377.4H62.6c-2.8,0-5-2.2-5-5v-35.2c0-2.8,2.2-5,5-5h102.7c2.8,0,5,2.2,5,5v35.2
				C170.3,375.2,168,377.4,165.3,377.4z"/>
		</g>
	</g>
	<g>
		<g class="st6">
			<path class="st7" d="M291.9,380.4H189.2c-2.8,0-5-2.2-5-5v-35.2c0-2.8,2.2-5,5-5h102.7c2.8,0,5,2.2,5,5v35.2
				C296.8,378.2,294.6,380.4,291.9,380.4z"/>
		</g>
		<g>
			<path class="st3" d="M292.9,377.4H190.2c-2.8,0-5-2.2-5-5v-35.2c0-2.8,2.2-5,5-5h102.7c2.8,0,5,2.2,5,5v35.2
				C297.8,375.2,295.6,377.4,292.9,377.4z"/>
		</g>
	</g>
	<path class="st9" d="M26.7,345.3h-82.6c-1.1,0-2-0.9-2-2l0,0c0-1.1,0.9-2,2-2h82.7c1.1,0,2,0.9,2,2l0,0
		C28.7,344.4,27.8,345.3,26.7,345.3z"/>
	<path class="st9" d="M25.6,356.8h-82.7c0.9,0,0-0.9,0-2l0,0c0-1.1,0.9-2,2-2h82.7c1.1,0,2,0.9,2,2l0,0
		C29.6,355.9,28.7,356.8,25.6,356.8z"/>
	<path class="st9" d="M27.7,368h-82.6c-2.1,0-3-0.9-3-2l0,0c0-1.1,0.9-2,2-2h82.7c1.1,0,2,0.9,2,2l0,0C28.7,367.1,27.8,368,27.7,368
		z"/>
	<path class="st10" d="M154.8,343.5H72.1c-1.1,0-2-0.9-2-2l0,0c0-1.1,0.9-2,2-2h82.7c1.1,0,2,0.9,2,2l0,0
		C156.8,342.6,155.9,343.5,154.8,343.5z"/>
	<path class="st10" d="M153.7,355H71c0.9,0,0-0.9,0-2l0,0c0-1.1,0.9-2,2-2h82.7c1.1,0,2,0.9,2,2l0,0
		C157.7,354.1,156.8,355,153.7,355z"/>
	<path class="st10" d="M155.8,366.1H73.1c-2.1,0-3-0.9-3-2l0,0c0-1.1,0.9-2,2-2h82.7c1.1,0,2,0.9,2,2l0,0
		C156.8,365.2,155.9,366.1,155.8,366.1z"/>
	<path class="st9" d="M283.8,344.5h-82.7c-1.1,0-2-0.9-2-2l0,0c0-1.1,0.9-2,2-2h82.7c1.1,0,2,0.9,2,2l0,0
		C285.8,343.6,284.9,344.5,283.8,344.5z"/>
	<path class="st9" d="M281.8,355.8h-82.7c0.9,0,0-0.9,0-2l0,0c0-1.1,0.9-2,2-2h82.7c1.1,0,2,0.9,2,2l0,0
		C285.8,354.9,284.9,355.8,281.8,355.8z"/>
	<path class="st9" d="M284.8,367.1h-82.7c-2.1,0-3-0.9-3-2l0,0c0-1.1,0.9-2,2-2h82.7c1.1,0,2,0.9,2,2l0,0
		C285.8,366.2,284.9,367.1,284.8,367.1z"/>
	<path class="st11" d="M303.4,633.3c4,0,7.3,3.3,7.3,7.3l0,0c0,4-3.3,7.3-7.3,7.3"/>
	<ellipse class="st12" cx="112.9" cy="641.1" rx="208.9" ry="6.8"/>
</g>
<g id="objects">
</g>
</svg>
