<?xml version="1.0" encoding="utf-8"?>
<!-- Generator: Adobe Illustrator 19.1.0, SVG Export Plug-In . SVG Version: 6.00 Build 0)  -->
<svg version="1.1" xmlns="http://www.w3.org/2000/svg" xmlns:xlink="http://www.w3.org/1999/xlink" x="0px" y="0px"
	 viewBox="0 0 417.9 501.7" style="enable-background:new 0 0 417.9 501.7;" xml:space="preserve">
<style type="text/css">
	.st0{fill:#D8D8D8;}
	.st1{opacity:0.26;}
	.st2{fill:#2B2A2A;}
	.st3{fill:#3195AB;}
	.st4{fill:#EF4438;}
	.st5{fill:#80C342;}
	.st6{fill:#F9ED28;}
	.st7{fill:#FFFFFF;}
	.st8{fill:none;stroke:#EF4438;stroke-width:0.7222;stroke-miterlimit:10;}
	.st9{fill:#EAEAEA;}
	.st10{fill:#8E8E8E;}
	.st11{fill:#8E8E8E;stroke:#454545;stroke-width:5;stroke-miterlimit:10;}
	.st12{fill:#707071;stroke:#1E1E1E;stroke-miterlimit:10;}
	.st13{fill:none;stroke:#8E8E8E;stroke-miterlimit:10;}
	.st14{fill:#353535;}
	.st15{fill:none;stroke:#606161;stroke-miterlimit:10;}
	.st16{font-family:'ProximaNova-Black';}
	.st17{font-size:14px;}
	.st18{fill:#262626;}
	.st19{fill:#757576;}
	.st20{font-family:'ProximaNova-Light';}
	.st21{font-size:10px;}
	.st22{fill:#E5E5E5;}
	.st23{fill:#A3A2A2;}
	.st24{fill:#BE384B;}
	.st25{fill:none;stroke:#353535;stroke-width:13;stroke-miterlimit:10;}
	.st26{fill:none;stroke:#FFFFFF;stroke-miterlimit:10;}
</style>
<g id="Layer_1">
	<g>
		<rect x="15.3" class="st0" width="402.2" height="36.3"/>
	</g>
	<g>
		<g class="st1">
			<line class="st2" x1="26.4" y1="47.4" x2="429" y2="47.4"/>
		</g>
		<g>
			<line class="st3" x1="15.3" y1="36.3" x2="417.9" y2="36.3"/>
		</g>
	</g>
	<circle class="st4" cx="411" cy="6.6" r="2.4"/>
	<circle class="st5" cx="395.7" cy="6.6" r="2.4"/>
	<circle class="st6" cx="403.5" cy="6.6" r="2.4"/>
	<path class="st7" d="M385.7,22.4H56.3c-0.8,0-1.4-0.6-1.4-1.4v-5c0-0.8,0.6-1.4,1.4-1.4h329.5c0.8,0,1.4,0.6,1.4,1.4v5
		C387.1,21.8,386.5,22.4,385.7,22.4z"/>
	<g>
		<g>
			<polygon class="st4" points="47.4,17.6 44.9,17.6 47.4,15.1 49.9,17.6 			"/>
			<rect x="45.4" y="17.6" class="st4" width="4" height="3.5"/>
			<rect x="46.8" y="19" class="st0" width="1.2" height="2.7"/>
			<rect x="48.5" y="15.3" class="st4" width="0.3" height="0.8"/>
		</g>
		<circle class="st8" cx="39.1" cy="18.3" r="2.8"/>
		<rect x="40.2" y="17" class="st0" width="3.5" height="2.5"/>
		<polygon class="st8" points="41.9,16.3 42,17.5 40.9,17.4 		"/>
		<rect x="27.6" y="18.1" class="st4" width="4.3" height="1"/>
		<path class="st4" d="M31.8,17.9l-0.9-1.3l3,1.9c0.1,0,0.1,0.1,0,0.2l-2.7,1.8l0.7-1.5"/>
		<rect x="21.4" y="18.1" class="st4" width="3.8" height="1"/>
		<path class="st4" d="M21.5,19.3l0.9,1.3l-3-1.9c-0.1,0-0.1-0.1,0-0.2l2.7-1.8l-0.7,1.5"/>
	</g>
	<line class="st9" x1="15.3" y1="36.3" x2="417.9" y2="36.3"/>
	<polygon class="st10" points="15.3,489.6 15.3,0 0,26.4 0.4,488.9 0.4,496.4 0,501.7 400.7,501.7 417.5,488.3 	"/>
	<path class="st11" d="M15.3,480.1"/>
	<path class="st12" d="M-38.4,478.8"/>
	<line class="st13" x1="416.9" y1="0" x2="416.9" y2="488.3"/>
	<rect x="15.3" y="36.3" class="st14" width="401.6" height="32.7"/>
	<rect x="-106.3" y="167" class="st15" width="2" height="0"/>
	<text transform="matrix(1 0 0 1 51.7243 57.627)" class="st7 st16 st17">SEO Audit Software</text>
	<polygon class="st18" points="0.1,96.2 15.3,69 15.3,36.3 0,60.2 	"/>
	<path class="st7" d="M316.6,59.5H199.2c-2.6,0-4.8-2.2-4.8-4.8v-3.9c0-2.6,2.2-4.8,4.8-4.8h117.4c2.6,0,4.8,2.2,4.8,4.8v3.9
		C321.4,57.3,319.2,59.5,316.6,59.5z"/>
	<text transform="matrix(1 0 0 1 200.8902 56.6262)" class="st19 st20 st21">Website URL</text>
	<path class="st3" d="M380.4,59.5h-43.2c-3.7,0-6.8-3-6.8-6.7v0c0-3.7,3-6.7,6.8-6.7h43.2c3.7,0,6.8,3,6.8,6.7v0
		C387.1,56.5,384.1,59.5,380.4,59.5z"/>
	<text transform="matrix(1 0 0 1 343.3926 55.6254)" class="st22 st16 st21">Search</text>
	<text transform="matrix(1 0 0 1 181.3925 105.1289)" class="st14 st16 st17">Backlink Profile</text>
	<path class="st23" d="M213.4,122.5h-29c-1.6,0-3-1.3-3-3l0,0c0-1.7,1.3-3,3-3h29c1.6,0,3,1.3,3,3l0,0
		C216.4,121.2,215,122.5,213.4,122.5z"/>
	<path class="st23" d="M335.9,122.5h-109c-1.6,0-3-1.3-3-3l0,0c0-1.7,1.4-3,3-3h109c1.6,0,3,1.3,3,3l0,0
		C338.9,121.2,337.5,122.5,335.9,122.5z"/>
	<path class="st24" d="M384.1,122.5h-34.2c-1.6,0-3-1.3-3-3l0,0c0-1.7,1.4-3,3-3h34.2c1.6,0,3,1.3,3,3l0,0
		C387.1,121.2,385.8,122.5,384.1,122.5z"/>
	<path class="st23" d="M213.4,136.5h-29c-1.6,0-3-1.4-3-3l0,0c0-1.6,1.3-3,3-3h29c1.6,0,3,1.4,3,3l0,0
		C216.4,135.1,215,136.5,213.4,136.5z"/>
	<path class="st23" d="M335.9,136.5h-109c-1.6,0-3-1.4-3-3l0,0c0-1.7,1.4-3,3-3h109c1.6,0,3,1.3,3,3l0,0
		C338.9,135.1,337.5,136.5,335.9,136.5z"/>
	<path class="st23" d="M384.1,136.5h-34.2c-1.6,0-3-1.4-3-3l0,0c0-1.6,1.4-3,3-3h34.2c1.6,0,3,1.4,3,3l0,0
		C387.1,135.1,385.8,136.5,384.1,136.5z"/>
	<path class="st23" d="M213.4,151h-29c-1.6,0-3-1.4-3-3l0,0c0-1.6,1.3-3,3-3h29c1.6,0,3,1.4,3,3l0,0C216.4,149.6,215,151,213.4,151z
		"/>
	<path class="st23" d="M335.9,151h-109c-1.6,0-3-1.4-3-3l0,0c0-1.7,1.4-3,3-3h109c1.6,0,3,1.3,3,3l0,0
		C338.9,149.6,337.5,151,335.9,151z"/>
	<path class="st23" d="M384.1,151h-34.2c-1.6,0-3-1.4-3-3l0,0c0-1.6,1.4-3,3-3h34.2c1.6,0,3,1.4,3,3l0,0
		C387.1,149.6,385.8,151,384.1,151z"/>
	<path class="st23" d="M213.4,165h-29c-1.6,0-3-1.4-3-3l0,0c0-1.6,1.3-3,3-3h29c1.6,0,3,1.4,3,3l0,0C216.4,163.6,215,165,213.4,165z
		"/>
	<path class="st23" d="M335.9,165h-109c-1.6,0-3-1.4-3-3l0,0c0-1.7,1.4-3,3-3h109c1.6,0,3,1.3,3,3l0,0
		C338.9,163.6,337.5,165,335.9,165z"/>
	<path class="st23" d="M384.1,165h-34.2c-1.6,0-3-1.4-3-3l0,0c0-1.6,1.4-3,3-3h34.2c1.6,0,3,1.4,3,3l0,0
		C387.1,163.6,385.8,165,384.1,165z"/>
	<path class="st23" d="M213.5,178.3h-29c-1.7,0-3-1.4-3-3l0,0c0-1.6,1.3-3,3-3h29c1.7,0,3,1.4,3,3l0,0
		C216.5,176.9,215.2,178.3,213.5,178.3z"/>
	<path class="st23" d="M336,178.3H227c-1.6,0-3-1.4-3-3l0,0c0-1.7,1.4-3,3-3h109c1.6,0,3,1.3,3,3l0,0
		C339,176.9,337.7,178.3,336,178.3z"/>
	<path class="st23" d="M384.3,178.3H350c-1.6,0-3-1.4-3-3l0,0c0-1.6,1.4-3,3-3h34.2c1.6,0,3,1.4,3,3l0,0
		C387.3,176.9,385.9,178.3,384.3,178.3z"/>
	<path class="st24" d="M213.5,192.3h-29c-1.7,0-3-1.4-3-3l0,0c0-1.6,1.3-3,3-3h29c1.7,0,3,1.4,3,3l0,0
		C216.5,190.9,215.2,192.3,213.5,192.3z"/>
	<path class="st23" d="M336,192.3H227c-1.6,0-3-1.4-3-3l0,0c0-1.7,1.4-3,3-3h109c1.6,0,3,1.3,3,3l0,0
		C339,190.9,337.7,192.3,336,192.3z"/>
	<path class="st23" d="M384.3,192.3H350c-1.6,0-3-1.4-3-3l0,0c0-1.6,1.4-3,3-3h34.2c1.6,0,3,1.4,3,3l0,0
		C387.3,190.9,385.9,192.3,384.3,192.3z"/>
	<path class="st23" d="M213.5,206.8h-29c-1.7,0-3-1.4-3-3l0,0c0-1.6,1.3-3,3-3h29c1.7,0,3,1.4,3,3l0,0
		C216.5,205.4,215.2,206.8,213.5,206.8z"/>
	<path class="st23" d="M336,206.8H227c-1.6,0-3-1.4-3-3l0,0c0-1.7,1.4-3,3-3h109c1.6,0,3,1.3,3,3l0,0
		C339,205.4,337.7,206.8,336,206.8z"/>
	<path class="st23" d="M384.3,206.8H350c-1.6,0-3-1.4-3-3l0,0c0-1.6,1.4-3,3-3h34.2c1.6,0,3,1.4,3,3l0,0
		C387.3,205.4,385.9,206.8,384.3,206.8z"/>
	<path class="st23" d="M213.5,220.8h-29c-1.7,0-3-1.4-3-3l0,0c0-1.6,1.3-3,3-3h29c1.7,0,3,1.4,3,3l0,0
		C216.5,219.4,215.2,220.8,213.5,220.8z"/>
	<path class="st23" d="M336,220.8H227c-1.6,0-3-1.4-3-3l0,0c0-1.7,1.4-3,3-3h109c1.6,0,3,1.3,3,3l0,0
		C339,219.4,337.7,220.8,336,220.8z"/>
	<path class="st23" d="M384.3,220.8H350c-1.6,0-3-1.4-3-3l0,0c0-1.6,1.4-3,3-3h34.2c1.6,0,3,1.4,3,3l0,0
		C387.3,219.4,385.9,220.8,384.3,220.8z"/>
	<path class="st23" d="M213.5,235.8h-29c-1.7,0-3-1.4-3-3l0,0c0-1.6,1.3-3,3-3h29c1.6,0,3,1.4,3,3l0,0
		C216.5,234.4,215.2,235.8,213.5,235.8z"/>
	<path class="st24" d="M336,235.8H227c-1.6,0-3-1.4-3-3l0,0c0-1.7,1.4-3,3-3h109c1.6,0,3,1.3,3,3l0,0
		C339,234.4,337.7,235.8,336,235.8z"/>
	<path class="st23" d="M384.3,235.8H350c-1.6,0-3-1.4-3-3l0,0c0-1.6,1.4-3,3-3h34.2c1.6,0,3,1.4,3,3l0,0
		C387.3,234.4,385.9,235.8,384.3,235.8z"/>
	<path class="st23" d="M213.5,249.8h-29c-1.7,0-3-1.4-3-3l0,0c0-1.6,1.3-3,3-3h29c1.6,0,3,1.4,3,3l0,0
		C216.5,248.4,215.2,249.8,213.5,249.8z"/>
	<path class="st23" d="M336,249.8H227c-1.6,0-3-1.4-3-3l0,0c0-1.7,1.4-3,3-3h109c1.6,0,3,1.3,3,3l0,0
		C339,248.4,337.7,249.8,336,249.8z"/>
	<path class="st23" d="M384.3,249.8H350c-1.6,0-3-1.4-3-3l0,0c0-1.6,1.4-3,3-3h34.2c1.6,0,3,1.4,3,3l0,0
		C387.3,248.4,385.9,249.8,384.3,249.8z"/>
	<path class="st23" d="M213.5,264.3h-29c-1.7,0-3-1.4-3-3l0,0c0-1.6,1.3-3,3-3h29c1.6,0,3,1.4,3,3l0,0
		C216.5,262.9,215.2,264.3,213.5,264.3z"/>
	<path class="st23" d="M336,264.3H227c-1.6,0-3-1.4-3-3l0,0c0-1.6,1.4-3,3-3h109c1.6,0,3,1.4,3,3l0,0
		C339,262.9,337.7,264.3,336,264.3z"/>
	<path class="st23" d="M384.3,264.3H350c-1.6,0-3-1.4-3-3l0,0c0-1.6,1.4-3,3-3h34.2c1.6,0,3,1.4,3,3l0,0
		C387.3,262.9,385.9,264.3,384.3,264.3z"/>
	<path class="st23" d="M213.5,278.3h-29c-1.7,0-3-1.4-3-3l0,0c0-1.6,1.3-3,3-3h29c1.6,0,3,1.4,3,3l0,0
		C216.5,276.9,215.2,278.3,213.5,278.3z"/>
	<path class="st23" d="M336,278.3H227c-1.6,0-3-1.4-3-3l0,0c0-1.6,1.4-3,3-3h109c1.6,0,3,1.4,3,3l0,0
		C339,276.9,337.7,278.3,336,278.3z"/>
	<path class="st23" d="M384.3,278.3H350c-1.6,0-3-1.4-3-3l0,0c0-1.6,1.4-3,3-3h34.2c1.6,0,3,1.4,3,3l0,0
		C387.3,276.9,385.9,278.3,384.3,278.3z"/>
	<path class="st23" d="M213.7,291.5h-29c-1.6,0-3-1.4-3-3l0,0c0-1.6,1.4-3,3-3h29c1.7,0,3,1.4,3,3l0,0
		C216.7,290.1,215.3,291.5,213.7,291.5z"/>
	<path class="st23" d="M336.2,291.5h-109c-1.7,0-3-1.4-3-3l0,0c0-1.6,1.3-3,3-3h109c1.7,0,3,1.4,3,3l0,0
		C339.2,290.1,337.8,291.5,336.2,291.5z"/>
	<path class="st23" d="M384.4,291.5h-34.2c-1.6,0-3-1.4-3-3l0,0c0-1.6,1.3-3,3-3h34.2c1.6,0,3,1.4,3,3l0,0
		C387.4,290.1,386,291.5,384.4,291.5z"/>
	<path class="st23" d="M213.7,305.5h-29c-1.6,0-3-1.4-3-3l0,0c0-1.6,1.4-3,3-3h29c1.7,0,3,1.4,3,3l0,0
		C216.7,304.1,215.3,305.5,213.7,305.5z"/>
	<path class="st23" d="M336.2,305.5h-109c-1.7,0-3-1.4-3-3l0,0c0-1.6,1.3-3,3-3h109c1.7,0,3,1.4,3,3l0,0
		C339.2,304.1,337.8,305.5,336.2,305.5z"/>
	<path class="st23" d="M384.4,305.5h-34.2c-1.6,0-3-1.4-3-3l0,0c0-1.6,1.3-3,3-3h34.2c1.6,0,3,1.4,3,3l0,0
		C387.4,304.1,386,305.5,384.4,305.5z"/>
	<path class="st23" d="M213.7,320h-29c-1.6,0-3-1.4-3-3l0,0c0-1.6,1.4-3,3-3h29c1.7,0,3,1.4,3,3l0,0
		C216.7,318.6,215.3,320,213.7,320z"/>
	<path class="st23" d="M336.2,320h-109c-1.7,0-3-1.4-3-3l0,0c0-1.6,1.3-3,3-3h109c1.7,0,3,1.4,3,3l0,0
		C339.2,318.6,337.8,320,336.2,320z"/>
	<path class="st23" d="M384.4,320h-34.2c-1.6,0-3-1.4-3-3l0,0c0-1.6,1.3-3,3-3h34.2c1.6,0,3,1.4,3,3l0,0
		C387.4,318.6,386,320,384.4,320z"/>
	<path class="st23" d="M213.7,334h-29c-1.6,0-3-1.4-3-3l0,0c0-1.6,1.4-3,3-3h29c1.7,0,3,1.4,3,3l0,0
		C216.7,332.6,215.3,334,213.7,334z"/>
	<path class="st23" d="M336.2,334h-109c-1.7,0-3-1.4-3-3l0,0c0-1.6,1.3-3,3-3h109c1.7,0,3,1.4,3,3l0,0
		C339.2,332.6,337.8,334,336.2,334z"/>
	<path class="st23" d="M384.4,334h-34.2c-1.6,0-3-1.4-3-3l0,0c0-1.6,1.3-3,3-3h34.2c1.6,0,3,1.4,3,3l0,0
		C387.4,332.6,386,334,384.4,334z"/>
	<path class="st23" d="M214.9,345.5h-29c-1.6,0-3-1.4-3-3l0,0c0-1.6,1.3-3,3-3h29c1.6,0,3,1.4,3,3l0,0
		C217.9,344.1,216.5,345.5,214.9,345.5z"/>
	<path class="st23" d="M337.4,345.5h-109c-1.6,0-3-1.4-3-3l0,0c0-1.6,1.4-3,3-3h109c1.6,0,3,1.4,3,3l0,0
		C340.4,344.1,339,345.5,337.4,345.5z"/>
	<path class="st23" d="M385.6,345.5h-34.2c-1.6,0-3-1.4-3-3l0,0c0-1.6,1.4-3,3-3h34.2c1.6,0,3,1.4,3,3l0,0
		C388.6,344.1,387.3,345.5,385.6,345.5z"/>
	<path class="st23" d="M214.9,359.5h-29c-1.6,0-3-1.4-3-3l0,0c0-1.6,1.3-3,3-3h29c1.6,0,3,1.4,3,3l0,0
		C217.9,358.1,216.5,359.5,214.9,359.5z"/>
	<path class="st23" d="M337.4,359.5h-109c-1.6,0-3-1.4-3-3l0,0c0-1.6,1.4-3,3-3h109c1.6,0,3,1.4,3,3l0,0
		C340.4,358.1,339,359.5,337.4,359.5z"/>
	<path class="st23" d="M385.6,359.5h-34.2c-1.6,0-3-1.4-3-3l0,0c0-1.6,1.4-3,3-3h34.2c1.6,0,3,1.4,3,3l0,0
		C388.6,358.1,387.3,359.5,385.6,359.5z"/>
	<path class="st23" d="M214.9,374h-29c-1.6,0-3-1.4-3-3l0,0c0-1.6,1.3-3,3-3h29c1.6,0,3,1.4,3,3l0,0
		C217.9,372.6,216.5,374,214.9,374z"/>
	<path class="st24" d="M337.4,374h-109c-1.6,0-3-1.4-3-3l0,0c0-1.6,1.4-3,3-3h109c1.6,0,3,1.4,3,3l0,0
		C340.4,372.6,339,374,337.4,374z"/>
	<path class="st23" d="M385.6,374h-34.2c-1.6,0-3-1.4-3-3l0,0c0-1.6,1.4-3,3-3h34.2c1.6,0,3,1.4,3,3l0,0
		C388.6,372.6,387.3,374,385.6,374z"/>
	<path class="st23" d="M214.9,388h-29c-1.6,0-3-1.4-3-3l0,0c0-1.6,1.3-3,3-3h29c1.6,0,3,1.4,3,3l0,0
		C217.9,386.6,216.5,388,214.9,388z"/>
	<path class="st23" d="M337.4,388h-109c-1.6,0-3-1.4-3-3l0,0c0-1.6,1.4-3,3-3h109c1.6,0,3,1.4,3,3l0,0
		C340.4,386.6,339,388,337.4,388z"/>
	<path class="st23" d="M385.6,388h-34.2c-1.6,0-3-1.4-3-3l0,0c0-1.6,1.4-3,3-3h34.2c1.6,0,3,1.4,3,3l0,0
		C388.6,386.6,387.3,388,385.6,388z"/>
	<path class="st23" d="M215,401.3h-29c-1.7,0-3-1.4-3-3l0,0c0-1.6,1.3-3,3-3h29c1.7,0,3,1.4,3,3l0,0
		C218,399.9,216.7,401.3,215,401.3z"/>
	<path class="st23" d="M337.5,401.3h-109c-1.6,0-3-1.4-3-3l0,0c0-1.6,1.4-3,3-3h109c1.6,0,3,1.4,3,3l0,0
		C340.5,399.9,339.2,401.3,337.5,401.3z"/>
	<path class="st23" d="M385.8,401.3h-34.2c-1.6,0-3-1.4-3-3l0,0c0-1.6,1.4-3,3-3h34.2c1.6,0,3,1.4,3,3l0,0
		C388.8,399.9,387.4,401.3,385.8,401.3z"/>
	<path class="st23" d="M215,415.3h-29c-1.7,0-3-1.4-3-3l0,0c0-1.6,1.3-3,3-3h29c1.7,0,3,1.4,3,3l0,0
		C218,413.9,216.7,415.3,215,415.3z"/>
	<path class="st23" d="M337.5,415.3h-109c-1.6,0-3-1.4-3-3l0,0c0-1.6,1.4-3,3-3h109c1.6,0,3,1.4,3,3l0,0
		C340.5,413.9,339.2,415.3,337.5,415.3z"/>
	<path class="st23" d="M385.8,415.3h-34.2c-1.6,0-3-1.4-3-3l0,0c0-1.6,1.4-3,3-3h34.2c1.6,0,3,1.4,3,3l0,0
		C388.8,413.9,387.4,415.3,385.8,415.3z"/>
	<path class="st24" d="M215,429.8h-29c-1.7,0-3-1.4-3-3l0,0c0-1.6,1.3-3,3-3h29c1.7,0,3,1.4,3,3l0,0
		C218,428.4,216.7,429.8,215,429.8z"/>
	<path class="st23" d="M337.5,429.8h-109c-1.6,0-3-1.4-3-3l0,0c0-1.6,1.4-3,3-3h109c1.6,0,3,1.4,3,3l0,0
		C340.5,428.4,339.2,429.8,337.5,429.8z"/>
	<path class="st23" d="M385.8,429.8h-34.2c-1.6,0-3-1.4-3-3l0,0c0-1.6,1.4-3,3-3h34.2c1.6,0,3,1.4,3,3l0,0
		C388.8,428.4,387.4,429.8,385.8,429.8z"/>
	<path class="st23" d="M215,443.8h-29c-1.7,0-3-1.4-3-3l0,0c0-1.6,1.3-3,3-3h29c1.7,0,3,1.4,3,3l0,0
		C218,442.4,216.7,443.8,215,443.8z"/>
	<path class="st23" d="M337.5,443.8h-109c-1.6,0-3-1.4-3-3l0,0c0-1.6,1.4-3,3-3h109c1.6,0,3,1.4,3,3l0,0
		C340.5,442.4,339.2,443.8,337.5,443.8z"/>
	<path class="st23" d="M385.8,443.8h-34.2c-1.6,0-3-1.4-3-3l0,0c0-1.6,1.4-3,3-3h34.2c1.6,0,3,1.4,3,3l0,0
		C388.8,442.4,387.4,443.8,385.8,443.8z"/>
	<path class="st23" d="M215,458.8h-29c-1.7,0-3-1.4-3-3l0,0c0-1.6,1.3-3,3-3h29c1.6,0,3,1.4,3,3l0,0
		C218,457.4,216.7,458.8,215,458.8z"/>
	<path class="st23" d="M337.5,458.8h-109c-1.6,0-3-1.4-3-3l0,0c0-1.6,1.4-3,3-3h109c1.6,0,3,1.4,3,3l0,0
		C340.5,457.4,339.2,458.8,337.5,458.8z"/>
	<path class="st24" d="M385.8,458.8h-34.2c-1.6,0-3-1.4-3-3l0,0c0-1.6,1.4-3,3-3h34.2c1.6,0,3,1.4,3,3l0,0
		C388.8,457.4,387.4,458.8,385.8,458.8z"/>
	<path class="st23" d="M215,472.8h-29c-1.7,0-3-1.4-3-3l0,0c0-1.6,1.3-3,3-3h29c1.6,0,3,1.4,3,3l0,0
		C218,471.4,216.7,472.8,215,472.8z"/>
	<path class="st23" d="M337.5,472.8h-109c-1.6,0-3-1.4-3-3l0,0c0-1.6,1.4-3,3-3h109c1.6,0,3,1.4,3,3l0,0
		C340.5,471.4,339.2,472.8,337.5,472.8z"/>
	<path class="st23" d="M385.8,472.8h-34.2c-1.6,0-3-1.4-3-3l0,0c0-1.6,1.4-3,3-3h34.2c1.6,0,3,1.4,3,3l0,0
		C388.8,471.4,387.4,472.8,385.8,472.8z"/>
	<ellipse class="st3" cx="174.6" cy="119.5" rx="3.3" ry="3"/>
	<path class="st3" d="M177.9,133.5c0,1.7-1.5,3-3.3,3c-1.8,0-3.3-1.3-3.3-3s1.5-3,3.3-3C176.4,130.5,177.9,131.8,177.9,133.5"/>
	<path class="st3" d="M177.9,148c0,1.7-1.5,3-3.3,3c-1.8,0-3.3-1.3-3.3-3s1.5-3,3.3-3C176.4,145,177.9,146.3,177.9,148"/>
	<path class="st3" d="M177.9,161c0,1.7-1.5,3-3.3,3c-1.8,0-3.3-1.3-3.3-3s1.5-3,3.3-3C176.4,158,177.9,159.3,177.9,161"/>
	<path class="st3" d="M177.9,175c0,1.7-1.5,3-3.3,3c-1.8,0-3.3-1.3-3.3-3s1.5-3,3.3-3C176.4,172,177.9,173.3,177.9,175"/>
	<path class="st3" d="M177.9,189.5c0,1.7-1.5,3-3.3,3c-1.8,0-3.3-1.3-3.3-3s1.5-3,3.3-3C176.4,186.5,177.9,187.8,177.9,189.5"/>
	<ellipse class="st3" cx="174.6" cy="203.5" rx="3.3" ry="3"/>
	<path class="st3" d="M177.9,217.5c0,1.7-1.5,3-3.3,3c-1.8,0-3.3-1.3-3.3-3s1.5-3,3.3-3C176.4,214.5,177.9,215.8,177.9,217.5"/>
	<path class="st3" d="M177.9,232c0,1.7-1.5,3-3.3,3c-1.8,0-3.3-1.3-3.3-3s1.5-3,3.3-3C176.4,229,177.9,230.3,177.9,232"/>
	<path class="st3" d="M177.9,245c0,1.7-1.5,3-3.3,3c-1.8,0-3.3-1.3-3.3-3s1.5-3,3.3-3C176.4,242,177.9,243.3,177.9,245"/>
	<path class="st3" d="M177.9,259c0,1.7-1.5,3-3.3,3c-1.8,0-3.3-1.3-3.3-3s1.5-3,3.3-3C176.4,256,177.9,257.3,177.9,259"/>
	<path class="st3" d="M177.9,273.5c0,1.7-1.5,3-3.3,3c-1.8,0-3.3-1.3-3.3-3s1.5-3,3.3-3C176.4,270.5,177.9,271.8,177.9,273.5"/>
	<ellipse class="st3" cx="174.6" cy="288.5" rx="3.3" ry="3"/>
	<path class="st3" d="M177.9,302.5c0,1.7-1.5,3-3.3,3c-1.8,0-3.3-1.3-3.3-3s1.5-3,3.3-3C176.4,299.5,177.9,300.8,177.9,302.5"/>
	<path class="st3" d="M177.9,317c0,1.7-1.5,3-3.3,3c-1.8,0-3.3-1.3-3.3-3s1.5-3,3.3-3C176.4,314,177.9,315.3,177.9,317"/>
	<path class="st3" d="M177.9,330c0,1.7-1.5,3-3.3,3c-1.8,0-3.3-1.3-3.3-3s1.5-3,3.3-3C176.4,327,177.9,328.3,177.9,330"/>
	<path class="st3" d="M177.9,344c0,1.7-1.5,3-3.3,3c-1.8,0-3.3-1.3-3.3-3s1.5-3,3.3-3C176.4,341,177.9,342.3,177.9,344"/>
	<path class="st3" d="M177.9,358.5c0,1.7-1.5,3-3.3,3c-1.8,0-3.3-1.3-3.3-3s1.5-3,3.3-3C176.4,355.5,177.9,356.8,177.9,358.5"/>
	<ellipse class="st3" cx="174.6" cy="372.5" rx="3.3" ry="3"/>
	<path class="st3" d="M177.9,386.5c0,1.7-1.5,3-3.3,3c-1.8,0-3.3-1.3-3.3-3s1.5-3,3.3-3C176.4,383.5,177.9,384.8,177.9,386.5"/>
	<path class="st3" d="M177.9,401c0,1.7-1.5,3-3.3,3c-1.8,0-3.3-1.3-3.3-3s1.5-3,3.3-3C176.4,398,177.9,399.3,177.9,401"/>
	<path class="st3" d="M177.9,414c0,1.7-1.5,3-3.3,3c-1.8,0-3.3-1.3-3.3-3s1.5-3,3.3-3C176.4,411,177.9,412.3,177.9,414"/>
	<path class="st3" d="M177.9,428c0,1.7-1.5,3-3.3,3c-1.8,0-3.3-1.3-3.3-3s1.5-3,3.3-3C176.4,425,177.9,426.3,177.9,428"/>
	<path class="st3" d="M177.9,442.5c0,1.7-1.5,3-3.3,3c-1.8,0-3.3-1.3-3.3-3s1.5-3,3.3-3C176.4,439.5,177.9,440.8,177.9,442.5"/>
	<path class="st3" d="M177.9,455.8c0,1.7-1.5,3-3.3,3c-1.8,0-3.3-1.3-3.3-3s1.5-3,3.3-3C176.4,452.8,177.9,454.1,177.9,455.8"/>
	<path class="st3" d="M177.9,470.3c0,1.7-1.5,3-3.3,3c-1.8,0-3.3-1.3-3.3-3s1.5-3,3.3-3C176.4,467.3,177.9,468.6,177.9,470.3"/>
	<rect x="51.7" y="117" class="st3" width="89.3" height="81.3"/>
	<ellipse class="st25" cx="240" cy="261.9" rx="58.4" ry="58.1"/>
	<rect x="51.7" y="207.4" class="st14" width="89.3" height="81.3"/>
	<rect x="51.7" y="298.4" class="st3" width="89.3" height="81.3"/>
	<rect x="51.7" y="388" class="st14" width="89.3" height="81.3"/>
	<ellipse class="st26" cx="240.2" cy="262.2" rx="52.1" ry="52"/>
	<path class="st14" d="M363.2,385.8L363.2,385.8c-3.9,3.9-10.2,3.9-14,0l-69.6-69.6c-3.9-3.9-3.9-10.2,0-14v0c3.9-3.9,10.2-3.9,14,0
		l69.6,69.6C367.1,375.6,367.1,382,363.2,385.8z"/>
</g>
<g id="objects">
</g>
</svg>
