<?xml version="1.0" encoding="utf-8"?>
<!-- Generator: Adobe Illustrator 19.1.0, SVG Export Plug-In . SVG Version: 6.00 Build 0)  -->
<svg version="1.1" xmlns="http://www.w3.org/2000/svg" xmlns:xlink="http://www.w3.org/1999/xlink" x="0px" y="0px"
	 viewBox="0 0 417.9 501.7" style="enable-background:new 0 0 417.9 501.7;" xml:space="preserve">
<style type="text/css">
	.st0{fill:#C1C1C0;}
	.st1{fill:#353535;}
	.st2{fill:#E5E5E5;}
	.st3{fill:#CCCCCC;}
	.st4{fill:#3195AB;stroke:#3195AB;stroke-width:2.1984;stroke-miterlimit:10;}
	.st5{fill:#A3A2A2;}
</style>
<g id="Objects">
	<g>
		<path class="st0" d="M372.7,89.2c-43.6-56.5-54.5-49.5-107-49.5c0,0-6.8,38.9-57.3,40.5c-47-1.6-56.6-40.5-56.6-40.5
			c-52.5,0-62.4-6.9-106,49.5c-13.1,17-41.6,56.5-41.6,56.5l61.4,57.4l26.7-16V416h232V187.1l27.6,16l62.3-57.4
			C414.4,145.6,385.9,106.2,372.7,89.2z"/>
	</g>
	<path class="st1" d="M267.9,45.5c0.8,18.9-28.2,34.2-60.8,34.2S154.4,63.9,150,45.5C144.9,24,176.8,69,210.5,69
		C242.9,69,267,23.4,267.9,45.5z"/>
	<path class="st0" d="M151.7,38.3"/>
</g>
<g id="Layer_1">
	<path class="st2" d="M399.4,487c4,0,7.3,3.3,7.3,7.3v0c0,4-3.3,7.3-7.3,7.3"/>
	<ellipse class="st3" cx="207.3" cy="494.8" rx="203.1" ry="8.6"/>
	<g>
		<path class="st1" d="M273.7,173c-9.1-2.4-44.2-12.4-70.4,16.8c-33.9,37.9-71.3,3.2-73.3-2.5c-3-8.9,32.9,5.8,73.3-2.5
			C257.8,173.5,326.3,187,273.7,173z"/>
		<g>
			<g>
				<rect x="139.4" y="143" class="st4" width="3.6" height="46.7"/>
				<rect x="187.6" y="143" class="st4" width="3.9" height="46.7"/>
				<line class="st4" x1="141.3" y1="153.6" x2="188" y2="153.6"/>
				<line class="st4" x1="141.8" y1="184" x2="188.5" y2="184"/>
				<line class="st4" x1="148.5" y1="184.3" x2="148.5" y2="143.3"/>
				<line class="st4" x1="182" y1="184" x2="182" y2="143"/>
				<line class="st4" x1="154.1" y1="183.7" x2="154.1" y2="144.9"/>
				<line class="st4" x1="176.7" y1="183.8" x2="176.7" y2="145"/>
				<line class="st4" x1="159.6" y1="184.1" x2="159.6" y2="147.1"/>
				<line class="st4" x1="170.9" y1="184.6" x2="170.9" y2="147.2"/>
				<line class="st4" x1="165.2" y1="183.8" x2="165.2" y2="148.6"/>
			</g>
		</g>
		<g>
			<g>
				<path class="st1" d="M200.5,144.4c3.5-1.4,7.1-2.7,10.8-3.8c0,1.1,0,2.3,0,3.4c-1.9,0.6-3.9,1.3-5.8,1.9c0,0.6,0.1,1.2,0.1,1.8
					c1.8-0.7,3.7-1.3,5.5-1.9c0,1.1,0.1,2.2,0.1,3.4c-1.8,0.6-3.6,1.2-5.4,1.9c0.2,1.8,0.3,3.6,0.5,5.4c-1.4,0.6-2.9,1.2-4.3,1.8
					C201.4,153.7,200.9,149.1,200.5,144.4z"/>
				<path class="st1" d="M218.4,142.3c3.1-0.8,5.4,0.3,6,2.7c0.2,0.8,0.1,1.7,0.1,2.2c-2.4,0.5-4.7,1.1-7,1.7c0,0.1,0,0.1,0,0.2
					c0.1,0.3,0.8,1,2.5,0.6c0.8-0.2,1.6-0.6,2.1-1.1c0.6,0.6,1.2,1.2,1.7,1.8c-0.9,0.9-2.4,1.6-3.7,2c-3.2,0.9-5.8,0-6.6-2.5
					C212.6,147.1,214.3,143.4,218.4,142.3z M220.6,145.6c-0.1-0.4-0.7-0.9-1.7-0.6c-1.1,0.3-1.5,1.2-1.5,1.8
					c1.1-0.3,2.2-0.6,3.3-0.9C220.6,145.7,220.6,145.6,220.6,145.6z"/>
				<path class="st1" d="M233.7,143.6c0-0.1,0-0.4,0-0.5c-0.1-0.5-0.6-0.6-1.1-0.6c-0.8,0.1-1.3,0.6-1.7,1.1
					c-0.2,2.1-0.4,4.2-0.6,6.3c-1.4,0.2-2.7,0.5-4,0.8c0.2-3.3,0.4-6.7,0.8-10c1.4-0.3,2.9-0.5,4.3-0.7c-0.1,0.4-0.1,0.8-0.2,1.2
					c0.7-0.8,1.8-1.6,3.4-1.9c2.1-0.3,3.4,0.5,3.6,1.8c0,0.1,0,0.5,0,0.6c-0.4,2.4-0.8,4.9-1.1,7.3c-1.4,0.2-2.7,0.3-4.1,0.6
					C233.2,147.5,233.5,145.6,233.7,143.6z"/>
				<path class="st1" d="M246.5,138.2c2.2-0.1,3.8,0.6,4.6,1.4c-0.9,0.7-1.7,1.5-2.6,2.2c-0.4-0.4-1-0.7-1.8-0.7
					c-1.6,0.1-2.6,1.3-2.5,2.8c0.1,1,1,1.5,2.1,1.4c0.6,0,1.2-0.3,1.7-0.7c0.5,0.8,1,1.6,1.5,2.4c-0.7,0.6-2,1.2-3.7,1.3
					c-3.3,0.2-5.5-1.3-5.7-3.8C239.8,141.5,242.4,138.4,246.5,138.2z"/>
				<path class="st1" d="M258.6,138.3c3.2,0.2,5.1,1.9,4.9,4.3c-0.1,0.8-0.4,1.7-0.6,2.1c-2.4-0.2-4.8-0.3-7.2-0.4
					c0,0.1,0,0.1,0,0.2c0,0.3,0.5,1.2,2.2,1.3c0.8,0,1.7-0.1,2.3-0.4c0.4,0.7,0.8,1.5,1.1,2.2c-1.1,0.6-2.7,0.9-4.1,0.8
					c-3.3-0.1-5.5-1.6-5.5-4.3C251.7,141.2,254.4,138.1,258.6,138.3z M259.7,142c0-0.5-0.4-1.1-1.5-1.1c-1.2-0.1-1.8,0.7-2,1.2
					c1.1,0,2.3,0.1,3.4,0.2C259.7,142.2,259.7,142.1,259.7,142z"/>
				<path class="st1" d="M211.6,156.7c3.9-1.3,6.2,0.5,7.2,2.5c-1.2,0.7-2.5,1.4-3.7,2.1c-0.5-1-1.4-1.7-2.6-1.3
					c-2,0.7-2.2,4.1-1.6,5.9c0.5,1.2,1.5,1.8,2.7,1.3c0.8-0.3,1.5-1.2,1.7-2.3c1.2,0.1,2.4,0.3,3.7,0.5c-0.7,2.6-2.4,4.3-4.4,5
					c-3.3,1.2-6.4,0.2-7.7-2.8C205.3,163.9,206.4,158.5,211.6,156.7z"/>
				<path class="st1" d="M224.2,156.8c3.4-0.8,5.4,0.7,5.9,3.1c0.5,2.9-1.1,6.2-4.4,7.1c-3,0.8-5.1-0.5-5.8-2.8
					C219.1,161.4,220.5,157.7,224.2,156.8z M224.7,159.8c-1.2,0.3-1.4,2.3-1.2,3.3c0.2,0.9,0.8,1.1,1.6,0.9c1.2-0.3,1.4-2.3,1.2-3.3
					C226.1,159.8,225.6,159.6,224.7,159.8z"/>
				<path class="st1" d="M244.2,158c0-0.1,0.1-0.4,0.1-0.5c0-0.4-0.4-0.7-0.9-0.6c-0.6,0-1.1,0.5-1.3,1c-0.3,2.1-0.6,4.1-0.9,6.2
					c-1.2,0.1-2.4,0.3-3.6,0.4c0.2-1.9,0.4-3.9,0.6-5.8c0-0.1,0-0.4,0-0.5c-0.1-0.4-0.4-0.7-1-0.6c-0.6,0.1-1.1,0.6-1.3,1
					c-0.2,2.1-0.4,4.2-0.6,6.3c-1.2,0.2-2.4,0.4-3.6,0.6c0.2-3.3,0.4-6.6,0.7-10c1.3-0.2,2.6-0.4,3.9-0.6c-0.1,0.4-0.1,0.8-0.2,1.2
					c0.5-0.7,1.5-1.6,2.9-1.7c1.9-0.2,2.9,0.9,2.9,1.4c0,0,0,0.1,0,0.1c0.7-1,1.8-1.9,3.3-2c1.6-0.1,2.9,0.7,3,2
					c0,0.2,0,0.6-0.1,0.6c-0.5,2.4-1,4.8-1.4,7.2c-1.2,0.1-2.4,0.1-3.6,0.2C243.5,161.9,243.8,159.9,244.2,158z"/>
				<path class="st1" d="M252,167.1c-1.2,0-2.3,0-3.5,0.1c0.9-4.5,1.8-9,2.9-13.4c1.3,0,2.6,0,3.9,0c-0.1,0.3-0.2,0.7-0.3,1
					c0.9-0.9,1.8-1.2,2.8-1.2c2.1,0.1,3.3,1.4,3.1,3.9c-0.2,2.7-2.1,6.3-5.3,6.2c-1.1,0-2.1-0.4-2.6-1.3
					C252.7,163.9,252.4,165.5,252,167.1z M255.8,156.6c-0.5,0-1,0.2-1.3,0.6c-0.3,0.9-0.5,1.9-0.8,2.8c0.3,0.4,0.7,0.7,1.3,0.7
					c1.2,0,2-1.7,2.1-2.8C257.1,157.1,256.5,156.6,255.8,156.6z"/>
				<path class="st1" d="M270.7,155.2c1.3,0.2,2.6,0.4,3.8,0.7c-1.4,3-2.7,6-4,9.1c-1.2-0.2-2.4-0.4-3.5-0.5c0.1-0.3,0.3-0.7,0.4-1
					c-0.9,0.8-1.7,1.1-2.7,1c-1.9-0.2-3-1.6-2.8-3.9c0.2-2.6,2.2-6.3,5.8-5.9c1.2,0.2,2.2,0.7,2.6,1.7
					C270.4,155.9,270.5,155.5,270.7,155.2z M266.9,161.6c0.5,0.1,0.9-0.1,1.3-0.5c0.4-0.9,0.7-1.8,1.1-2.7c-0.2-0.5-0.7-0.8-1.2-0.8
					c-1.3-0.2-2.2,1.5-2.4,2.6C265.6,161,266.1,161.5,266.9,161.6z"/>
				<path class="st1" d="M281.5,161.5c0.1-0.1,0.2-0.3,0.2-0.5c0.1-0.5-0.2-0.8-0.7-0.9c-0.7-0.2-1.3,0.1-1.8,0.4
					c-1,1.8-1.9,3.7-2.8,5.6c-1.2-0.3-2.4-0.5-3.5-0.7c1.4-3,2.8-6,4.3-9c1.3,0.3,2.5,0.6,3.8,0.9c-0.2,0.3-0.4,0.7-0.6,1
					c0.8-0.5,2.1-0.9,3.5-0.5c1.8,0.5,2.6,1.7,2.3,2.9c0,0.1-0.2,0.5-0.3,0.6c-1.2,2.1-2.5,4.2-3.6,6.3c-1.2-0.3-2.3-0.6-3.5-0.9
					C279.6,164.9,280.5,163.2,281.5,161.5z"/>
				<path class="st1" d="M285.5,169.5c0.4,0.1,0.7,0.1,1-0.1c0.1-0.1,0.3-0.2,0.4-0.3c0.6-3.2,1.2-6.4,1.8-9.6
					c1.3,0.4,2.6,0.8,3.8,1.3c-0.5,1.8-1.1,3.5-1.6,5.3c1.6-1.4,3.2-2.8,4.9-4.1c1.3,0.5,2.7,1.1,4,1.6c-3.6,2.4-7.1,4.9-10.4,7.5
					c-1.9,1.5-3.1,1.7-4.8,1.2c-0.7-0.2-1.4-0.5-1.8-0.8c0.6-0.8,1.3-1.6,1.9-2.3C284.9,169.3,285.2,169.4,285.5,169.5z"/>
			</g>
		</g>
	</g>
	<path class="st5" d="M82.7,192.7c23.8-15.1,30.9-18.3,6.2-12.8c-1.2,0.3-6.4,2.7-13,9.3c-6.6,6.6-11.4,13.1-10.3,13.6
		C67,203.5,77.5,196.1,82.7,192.7z"/>
	<path class="st5" d="M104.3,178c-2.8-0.5-9.9,3-11.8,8.6c-0.8,2.3-0.3,6-0.4,9.4c-1.2,29.8-1.4,171.9,0.2,216.7
		c0.2,4.8,1.8,2.9,6.5,3.4c1.2,0.1,0.5,0.1,1.3,0"/>
</g>
<g id="objects">
</g>
</svg>
