<?xml version="1.0" encoding="utf-8"?>
<!-- Generator: Adobe Illustrator 19.1.0, SVG Export Plug-In . SVG Version: 6.00 Build 0)  -->
<svg version="1.1" xmlns="http://www.w3.org/2000/svg" xmlns:xlink="http://www.w3.org/1999/xlink" x="0px" y="0px"
	 viewBox="0 0 410 487.5" style="enable-background:new 0 0 410 487.5;" xml:space="preserve">
<style type="text/css">
	.st0{fill:#D8D8D8;}
	.st1{opacity:0.26;}
	.st2{fill:#2B2A2A;}
	.st3{fill:#3195AB;}
	.st4{fill:#EF4438;}
	.st5{fill:#80C342;}
	.st6{fill:#F9ED28;}
	.st7{fill:#FFFFFF;}
	.st8{fill:none;stroke:#EF4438;stroke-width:2.0623;stroke-miterlimit:10;}
	.st9{fill:#EAEAEA;}
	.st10{fill:#8E8E8E;}
	.st11{fill:#8E8E8E;stroke:#454545;stroke-width:5;stroke-miterlimit:10;}
	.st12{fill:#707071;stroke:#1E1E1E;stroke-miterlimit:10;}
	.st13{fill:#353535;}
	.st14{fill:#231F20;}
	.st15{fill:#BE384B;}
	.st16{fill:#E8E8E8;}
	.st17{fill:#3B5F32;}
	.st18{fill:#939393;}
</style>
<g id="Layer_1">
	<g>
		<rect x="7.4" y="0" class="st0" width="1149.8" height="103.7"/>
	</g>
	<g>
		<g class="st1">
			<line class="st2" x1="21.9" y1="118.3" x2="548.9" y2="118.3"/>
		</g>
		<g>
			<line class="st3" x1="7.4" y1="103.7" x2="534.4" y2="103.7"/>
		</g>
	</g>
	<circle class="st4" cx="1137.4" cy="18.7" r="7"/>
	<circle class="st5" cx="1093.7" cy="18.7" r="7"/>
	<circle class="st6" cx="1116.1" cy="18.7" r="7"/>
	<path class="st7" d="M1067.9,64.1h-946c-0.8,0-1.4-0.6-1.4-1.4V43.3c0-0.8,0.6-1.4,1.4-1.4h946c0.8,0,1.4,0.6,1.4,1.4v19.4
		C1069.3,63.5,1068.6,64.1,1067.9,64.1z"/>
	<g>
		<g>
			<polygon class="st4" points="99.1,50.2 92.1,50.2 99.1,43.1 106.1,50.2 			"/>
			<rect x="93.5" y="50.2" class="st4" width="11.3" height="9.9"/>
			<rect x="97.4" y="54.3" class="st0" width="3.5" height="7.7"/>
			<rect x="102.4" y="43.6" class="st4" width="0.8" height="2.4"/>
		</g>
		<circle class="st8" cx="75.5" cy="52.2" r="8"/>
		<rect x="78.5" y="48.6" class="st0" width="10" height="7.2"/>
		<polygon class="st8" points="83.5,46.6 83.8,49.9 80.5,49.6 		"/>
		<rect x="42.6" y="51.6" class="st4" width="12.4" height="2.9"/>
		<path class="st4" d="M54.4,51.1l-2.5-3.7l8.5,5.5c0.2,0.1,0.2,0.4,0,0.5l-7.7,5.1l2-4.1"/>
		<rect x="24.8" y="51.6" class="st4" width="10.8" height="2.9"/>
		<path class="st4" d="M25.1,55l2.5,3.7L19,53.2c-0.2-0.1-0.2-0.4,0-0.5l7.7-5.1l-2,4.1"/>
	</g>
	<line class="st9" x1="7.4" y1="103.7" x2="534.4" y2="103.7"/>
	<polygon class="st10" points="7.4,480.1 7.4,0 0,9 0,480.1 0,487.5 7.4,487.5 400.6,487.5 410,480.1 	"/>
	<path class="st11" d="M7.4,480.1"/>
	<path class="st12" d="M-46.3,478.8"/>
</g>
<g id="objects">
	<rect x="7.4" y="103.4" class="st13" width="921.1" height="47.3"/>
	<g>
		<path class="st7" d="M295.6,127.8c0-5.2,4-8.7,9.1-8.7c4.5,0,6.7,2.6,7.8,4.9l-4.4,2c-0.4-1.3-1.7-2.4-3.4-2.4c-2.3,0-4,1.9-4,4.2
			c0,2.3,1.6,4.2,4,4.2c1.6,0,2.9-1.1,3.4-2.4l4.4,2c-1,2.2-3.2,4.9-7.8,4.9C299.6,136.5,295.6,133,295.6,127.8z"/>
		<path class="st7" d="M321,135c-0.7,0.9-2.2,1.5-3.7,1.5c-1.8,0-4.2-1.2-4.2-4c0-3,2.4-3.7,4.2-3.7c1.6,0,3,0.5,3.7,1.3v-1.4
			c0-0.9-0.8-1.5-2.3-1.5c-1.1,0-2.4,0.5-3.4,1.2l-1.5-2.8c1.6-1.3,3.9-1.8,5.7-1.8c3,0,6,1.1,6,5.1v7.3H321V135z M321,132.2
			c-0.3-0.4-1.1-0.7-1.8-0.7c-0.8,0-1.6,0.3-1.6,1c0,0.8,0.8,1,1.6,1c0.7,0,1.5-0.2,1.8-0.7V132.2z"/>
		<path class="st7" d="M328,119.4h4.5v16.8H328V119.4z"/>
		<path class="st7" d="M335.1,119.4h4.5v16.8h-4.5V119.4z"/>
		<path class="st7" d="M350.7,131.3c1,0.7,1.9,0.9,3.1,0.9c1.9,0,3.7-1.2,3.7-3.2v-0.1c-0.9,1.1-2.4,1.7-3.9,1.7
			c-3,0-5.9-1.9-5.9-5.5c0-3.6,3-6,7-6c5.5,0,8,3.7,8,8.7c0,5.6-3.6,8.7-8.8,8.7c-1.9,0-3.9-0.6-5.2-1.5L350.7,131.3z M354.8,123.4
			c-1.3,0-2,0.7-2,1.5c0,1.2,1.2,1.6,2.3,1.6c0.9,0,1.7-0.2,2.4-0.7C357.4,124.7,356.6,123.4,354.8,123.4z"/>
		<path class="st7" d="M366.5,130.8c1.2,1,2.9,1.5,4.3,1.5c1.7,0,2.4-0.8,2.4-1.6c0-0.9-0.7-1.5-2.2-1.5c-1.3,0-2.3,0.4-3.1,1.2
			l-3.5-0.8v-10.1h12.8v4.2h-8v2.7c1.1-0.8,2.3-1.3,3.7-1.3c2.9,0,5.4,2.1,5.4,5.4c0,3.7-2.8,6-7.5,6c-3,0-5.4-0.9-7-2.4
			L366.5,130.8z"/>
		<path class="st7" d="M387.3,133.5h-8.1v-3.9l6.1-10.2h7v9.7h1.9v4.4h-1.9v2.7h-5.1V133.5z M384.1,129.1h3.2v-5.3L384.1,129.1z"/>
		<path class="st7" d="M395.5,128.2h6v3.8h-6V128.2z"/>
		<path class="st7" d="M405.8,130.8c1.2,1,2.9,1.5,4.3,1.5c1.7,0,2.4-0.8,2.4-1.6c0-0.9-0.7-1.5-2.2-1.5c-1.3,0-2.3,0.4-3.1,1.2
			l-3.5-0.8v-10.1h12.8v4.2h-8v2.7c1.1-0.8,2.3-1.3,3.7-1.3c2.9,0,5.4,2.1,5.4,5.4c0,3.7-2.8,6-7.5,6c-3,0-5.4-0.9-7-2.4
			L405.8,130.8z"/>
		<path class="st7" d="M421.5,130.8c1.2,1,2.9,1.5,4.3,1.5c1.7,0,2.4-0.8,2.4-1.6c0-0.9-0.7-1.5-2.2-1.5c-1.3,0-2.3,0.4-3.1,1.2
			l-3.5-0.8v-10.1h12.8v4.2h-8v2.7c1.1-0.8,2.3-1.3,3.7-1.3c2.9,0,5.4,2.1,5.4,5.4c0,3.7-2.8,6-7.5,6c-3,0-5.4-0.9-7-2.4
			L421.5,130.8z"/>
		<path class="st7" d="M437.3,130.8c1.2,1,2.9,1.5,4.3,1.5c1.7,0,2.4-0.8,2.4-1.6c0-0.9-0.7-1.5-2.2-1.5c-1.3,0-2.3,0.4-3.1,1.2
			l-3.5-0.8v-10.1H448v4.2h-8v2.7c1.1-0.8,2.3-1.3,3.7-1.3c2.9,0,5.4,2.1,5.4,5.4c0,3.7-2.8,6-7.5,6c-3,0-5.4-0.9-7-2.4L437.3,130.8
			z"/>
		<path class="st7" d="M450.3,128.2h6v3.8h-6V128.2z"/>
		<path class="st7" d="M460.6,130.8c1.2,1,2.9,1.5,4.3,1.5c1.7,0,2.4-0.8,2.4-1.6c0-0.9-0.7-1.5-2.2-1.5c-1.3,0-2.3,0.4-3.1,1.2
			l-3.5-0.8v-10.1h12.8v4.2h-8v2.7c1.1-0.8,2.3-1.3,3.7-1.3c2.9,0,5.4,2.1,5.4,5.4c0,3.7-2.8,6-7.5,6c-3,0-5.4-0.9-7-2.4
			L460.6,130.8z"/>
		<path class="st7" d="M476.3,130.8c1.2,1,2.9,1.5,4.3,1.5c1.7,0,2.4-0.8,2.4-1.6c0-0.9-0.7-1.5-2.2-1.5c-1.3,0-2.3,0.4-3.1,1.2
			l-3.5-0.8v-10.1H487v4.2h-8v2.7c1.1-0.8,2.3-1.3,3.7-1.3c2.9,0,5.4,2.1,5.4,5.4c0,3.7-2.8,6-7.5,6c-3,0-5.4-0.9-7-2.4L476.3,130.8
			z"/>
		<path class="st7" d="M492.1,130.8c1.2,1,2.9,1.5,4.3,1.5c1.7,0,2.4-0.8,2.4-1.6c0-0.9-0.7-1.5-2.2-1.5c-1.3,0-2.3,0.4-3.1,1.2
			l-3.5-0.8v-10.1h12.8v4.2h-8v2.7c1.1-0.8,2.3-1.3,3.7-1.3c2.9,0,5.4,2.1,5.4,5.4c0,3.7-2.8,6-7.5,6c-3,0-5.4-0.9-7-2.4
			L492.1,130.8z"/>
		<path class="st7" d="M507.8,130.8c1.2,1,2.9,1.5,4.3,1.5c1.7,0,2.4-0.8,2.4-1.6c0-0.9-0.7-1.5-2.2-1.5c-1.3,0-2.3,0.4-3.1,1.2
			l-3.5-0.8v-10.1h12.8v4.2h-8v2.7c1.1-0.8,2.3-1.3,3.7-1.3c2.9,0,5.4,2.1,5.4,5.4c0,3.7-2.8,6-7.5,6c-3,0-5.4-0.9-7-2.4
			L507.8,130.8z"/>
		<path class="st7" d="M531.5,123.8H527v-4.4h14.1v4.4h-4.5v12.4h-5.1V123.8z"/>
		<path class="st7" d="M539.9,130.1c0-3.4,2.5-6.4,6.8-6.4c4.3,0,6.8,3,6.8,6.4c0,3.4-2.5,6.4-6.8,6.4
			C542.5,136.5,539.9,133.5,539.9,130.1z M549,130.1c0-1.3-0.8-2.4-2.2-2.4c-1.4,0-2.2,1-2.2,2.4c0,1.4,0.8,2.4,2.2,2.4
			C548.2,132.5,549,131.5,549,130.1z"/>
		<path class="st7" d="M563.2,134.9c-1,1.2-2.2,1.6-3.4,1.6c-2.9,0-5.4-2.2-5.4-6.4c0-4,2.4-6.4,5.4-6.4c1.2,0,2.5,0.4,3.4,1.6v-5.9
			h4.5v16.8h-4.5V134.9z M563.2,128.5c-0.4-0.5-1.3-0.8-1.9-0.8c-1.2,0-2.3,0.9-2.3,2.4c0,1.5,1,2.4,2.3,2.4c0.6,0,1.5-0.3,1.9-0.8
			V128.5z"/>
		<path class="st7" d="M577.3,135c-0.7,0.9-2.2,1.5-3.7,1.5c-1.8,0-4.2-1.2-4.2-4c0-3,2.4-3.7,4.2-3.7c1.6,0,3,0.5,3.7,1.3v-1.4
			c0-0.9-0.8-1.5-2.3-1.5c-1.1,0-2.4,0.5-3.4,1.2l-1.5-2.8c1.6-1.3,3.9-1.8,5.7-1.8c3,0,6,1.1,6,5.1v7.3h-4.5V135z M577.3,132.2
			c-0.3-0.4-1.1-0.7-1.8-0.7c-0.8,0-1.6,0.3-1.6,1c0,0.8,0.8,1,1.6,1c0.7,0,1.5-0.2,1.8-0.7V132.2z"/>
		<path class="st7" d="M585.8,137.1c0.9,0,1.4-0.2,1.6-0.5l0.1-0.3l-4.8-12.4h4.8l2.3,6.9l2.3-6.9h4.8l-5.3,13.7
			c-1.1,2.8-3.1,3.3-5.7,3.4c-0.3,0-1.3-0.1-1.8-0.2l0.6-4C585.1,137.1,585.5,137.1,585.8,137.1z"/>
		<path class="st7" d="M597.4,119.4h5.4l-0.6,10.5h-4.1L597.4,119.4z M600.1,131.1c1.5,0,2.7,1.2,2.7,2.7c0,1.4-1.2,2.7-2.7,2.7
			c-1.5,0-2.7-1.2-2.7-2.7C597.4,132.3,598.7,131.1,600.1,131.1z"/>
	</g>
	<ellipse class="st3" cx="127.2" cy="198.7" rx="31.5" ry="32.8"/>
	<g>
		<path class="st7" d="M107.8,202.7l-6.3-10.1h5.7l3.1,5.7l3.1-5.7h5.7l-6.2,10.1v6.7h-5.1V202.7z"/>
		<path class="st7" d="M116.1,203.3c0-3.4,2.5-6.4,6.8-6.4c4.3,0,6.8,3,6.8,6.4c0,3.4-2.5,6.4-6.8,6.4
			C118.6,209.7,116.1,206.7,116.1,203.3z M125.1,203.3c0-1.3-0.8-2.4-2.2-2.4c-1.4,0-2.2,1-2.2,2.4c0,1.4,0.8,2.4,2.2,2.4
			C124.3,205.7,125.1,204.7,125.1,203.3z"/>
		<path class="st7" d="M139.7,208c-0.7,0.8-2,1.7-4.2,1.7c-2.8,0-4-1.7-4-3.8v-8.7h4.5v6.7c0,1.2,0.7,1.7,1.8,1.7c1,0,1.5-0.5,1.9-1
			v-7.5h4.5v12.2h-4.5V208z"/>
		<path class="st7" d="M146.7,197.2h4.5v1.4c0.8-0.9,2.3-1.7,3.7-1.7v4.3c-0.2-0.1-0.6-0.1-1-0.1c-1,0-2.2,0.3-2.7,0.9v7.4h-4.5
			V197.2z"/>
		<path class="st14" d="M163,192.6h12.7v4.2h-7.7v2h7.5v4.2h-7.5v6.4H163V192.6z"/>
		<path class="st14" d="M183.6,196.9c3.6,0,6.3,2.6,6.3,6.8v0.9h-8.3c0.3,0.8,1.1,1.5,2.7,1.5c1,0,2.1-0.4,2.7-0.9l1.9,2.8
			c-1.2,1-3.4,1.5-5.2,1.5c-3.8,0-6.8-2.4-6.8-6.4C177,199.8,179.7,196.9,183.6,196.9z M181.6,201.8h4c-0.1-0.5-0.6-1.5-2-1.5
			C182.2,200.4,181.8,201.3,181.6,201.8z"/>
		<path class="st14" d="M199.7,202.7c0-1.3-0.7-1.7-1.8-1.7c-1,0-1.6,0.5-1.9,1v7.5h-4.5v-12.2h4.5v1.4c0.7-0.8,2-1.7,4.2-1.7
			c2.8,0,4.1,1.7,4.1,3.8v8.6h-4.5V202.7z"/>
		<path class="st14" d="M212.8,196.9c2.8,0,4.5,1.3,5.2,2.3L215,202c-0.4-0.6-1.1-1-2-1c-1.3,0-2.4,0.8-2.4,2.4
			c0,1.6,1.1,2.4,2.4,2.4c1,0,1.7-0.5,2-1.1l2.9,2.8c-0.7,1-2.4,2.3-5.2,2.3c-3.9,0-6.8-2.5-6.8-6.4
			C205.9,199.4,208.9,196.9,212.8,196.9z"/>
		<path class="st14" d="M225.2,196.9c3.6,0,6.3,2.6,6.3,6.8v0.9h-8.3c0.3,0.8,1.1,1.5,2.7,1.5c1,0,2.1-0.4,2.7-0.9l1.9,2.8
			c-1.2,1-3.4,1.5-5.2,1.5c-3.8,0-6.8-2.4-6.8-6.4C218.6,199.8,221.3,196.9,225.2,196.9z M223.2,201.8h4c-0.1-0.5-0.6-1.5-2-1.5
			C223.8,200.4,223.4,201.3,223.2,201.8z"/>
		<path class="st14" d="M238.7,201c0-5.2,4-8.7,9.1-8.7c4.5,0,6.7,2.6,7.8,4.9l-4.4,2c-0.4-1.3-1.7-2.4-3.4-2.4c-2.3,0-4,1.9-4,4.2
			s1.6,4.2,4,4.2c1.6,0,2.9-1.1,3.4-2.4l4.4,2c-1,2.2-3.2,4.9-7.8,4.9C242.7,209.7,238.7,206.2,238.7,201z"/>
		<path class="st14" d="M256.2,203.3c0-3.4,2.5-6.4,6.8-6.4c4.3,0,6.8,3,6.8,6.4c0,3.4-2.5,6.4-6.8,6.4
			C258.7,209.7,256.2,206.7,256.2,203.3z M265.2,203.3c0-1.3-0.8-2.4-2.2-2.4c-1.4,0-2.2,1-2.2,2.4c0,1.4,0.8,2.4,2.2,2.4
			C264.4,205.7,265.2,204.7,265.2,203.3z"/>
		<path class="st14" d="M287.1,202.3c0-0.7-0.4-1.4-1.4-1.4s-1.6,0.6-1.9,1v7.5h-4.5v-7.1c0-0.7-0.4-1.4-1.4-1.4c-1,0-1.5,0.6-1.8,1
			v7.5h-4.5v-12.2h4.5v1.4c0.5-0.7,2.1-1.7,4-1.7c1.7,0,2.9,0.6,3.5,2.1c0.7-1.1,2.3-2.1,4.3-2.1c2.2,0,3.7,1.1,3.7,3.6v8.8h-4.5
			V202.3z"/>
		<path class="st14" d="M294.1,214v-16.8h4.5v1.3c1-1.2,2.2-1.6,3.4-1.6c3,0,5.3,2.2,5.3,6.4c0,4.2-2.3,6.4-5.3,6.4
			c-1.3,0-2.4-0.4-3.4-1.6v5.9H294.1z M300.5,200.9c-0.6,0-1.4,0.3-1.9,0.8v3.1c0.4,0.5,1.3,0.8,1.9,0.8c1.2,0,2.3-0.9,2.3-2.4
			C302.8,201.8,301.7,200.9,300.5,200.9z"/>
		<path class="st14" d="M316.1,208.2c-0.7,0.9-2.2,1.5-3.7,1.5c-1.8,0-4.2-1.2-4.2-4c0-3,2.4-3.7,4.2-3.7c1.6,0,3,0.5,3.7,1.3v-1.4
			c0-0.9-0.8-1.5-2.3-1.5c-1.1,0-2.4,0.5-3.4,1.2l-1.5-2.8c1.6-1.3,3.9-1.8,5.7-1.8c3,0,6,1.1,6,5.1v7.3h-4.5V208.2z M316.1,205.4
			c-0.3-0.4-1.1-0.7-1.8-0.7c-0.8,0-1.6,0.3-1.6,1c0,0.8,0.8,1,1.6,1c0.7,0,1.5-0.2,1.8-0.7V205.4z"/>
		<path class="st14" d="M331.4,202.7c0-1.3-0.7-1.7-1.8-1.7c-1,0-1.6,0.5-1.9,1v7.5h-4.5v-12.2h4.5v1.4c0.7-0.8,2-1.7,4.2-1.7
			c2.8,0,4.1,1.7,4.1,3.8v8.6h-4.5V202.7z"/>
		<path class="st14" d="M339.9,210.3c0.9,0,1.4-0.2,1.6-0.5l0.1-0.3l-4.8-12.4h4.8l2.3,6.9l2.3-6.9h4.8l-5.3,13.7
			c-1.1,2.8-3.1,3.3-5.7,3.4c-0.3,0-1.3-0.1-1.8-0.2l0.6-4C339.2,210.2,339.6,210.3,339.9,210.3z"/>
		<path class="st14" d="M350.8,211.6c0.8-0.4,2-1.4,2.3-2.3c-0.1,0.1-0.4,0.1-0.7,0.1c-1.2,0-2.2-1-2.2-2.4c0-1.5,1.2-2.6,2.6-2.6
			c1.5,0,2.9,1.2,2.9,3.2c0,2.2-1.2,4.2-3.1,5.5L350.8,211.6z"/>
		<path class="st14" d="M364.2,192.6h5.1v16.8h-5.1V192.6z"/>
		<path class="st14" d="M380.2,202.7c0-1.3-0.7-1.7-1.8-1.7c-1,0-1.6,0.5-1.9,1v7.5h-4.5v-12.2h4.5v1.4c0.7-0.8,2-1.7,4.2-1.7
			c2.8,0,4.1,1.7,4.1,3.8v8.6h-4.5V202.7z"/>
		<path class="st14" d="M393.2,196.9c2.8,0,4.5,1.3,5.2,2.3l-2.9,2.7c-0.4-0.6-1.1-1-2-1c-1.3,0-2.4,0.8-2.4,2.4
			c0,1.6,1.1,2.4,2.4,2.4c1,0,1.7-0.5,2-1.1l2.9,2.8c-0.7,1-2.4,2.3-5.2,2.3c-3.9,0-6.8-2.5-6.8-6.4
			C386.4,199.4,389.3,196.9,393.2,196.9z"/>
		<path class="st14" d="M402.1,204.3c1.5,0,2.7,1.2,2.7,2.7c0,1.5-1.2,2.7-2.7,2.7s-2.7-1.2-2.7-2.7
			C399.4,205.5,400.7,204.3,402.1,204.3z"/>
	</g>
	<g>
		<path class="st14" d="M531.3,202.1h-8.7l-1.4,6.5H520l3-13.7h1.2l-1.3,6.1h8.7l1.4-6.1h1.2l-3,13.7h-1.2L531.3,202.1z"/>
		<path class="st14" d="M540.2,198.4c2.7,0,4.4,1.7,4.4,4.4c0,3.2-2.3,6.1-5.5,6.1c-2.7,0-4.4-1.7-4.4-4.4
			C534.8,201.4,537.1,198.4,540.2,198.4z M540.2,199.4c-2.5,0-4.3,2.5-4.3,5.1c0,2.1,1.2,3.4,3.2,3.4c2.5,0,4.3-2.5,4.3-5.1
			C543.4,200.8,542.3,199.4,540.2,199.4z"/>
		<path class="st14" d="M559.5,201.7c0-0.1,0.1-0.3,0.1-0.6c0-1.1-0.8-1.7-1.8-1.7c-1,0-2.2,0.8-3,1.7l-1.6,7.5h-1.1l1.5-6.9
			c0-0.3,0.1-0.4,0.1-0.7c0-0.9-0.7-1.6-1.9-1.6c-1,0-2.2,0.8-3,1.7l-1.6,7.5h-1.1l2.2-9.9h1.1l-0.3,1.5c0.6-0.6,1.7-1.8,3.2-1.8
			c1.7,0,2.5,1.2,2.5,1.9v0.1c0.8-1,2-2,3.4-2c1.3,0,2.5,0.8,2.5,2.4c0,0.2-0.1,0.6-0.1,0.8l-1.5,6.9H558L559.5,201.7z"/>
		<path class="st14" d="M568.3,198.4c2.7,0,4.2,1.9,4.2,4.3c0,0.4-0.1,1-0.2,1.3H564c0,0.1,0,0.4,0,0.6c0,1.8,1.2,3.4,3.6,3.4
			c1,0,2.1-0.4,3-1.1l0.4,0.8c-0.9,0.7-2.2,1.2-3.5,1.2c-3,0-4.7-1.8-4.7-4.4C562.8,201.2,565.2,198.4,568.3,198.4z M571.5,202.7
			c0-1.9-1.2-3.3-3.3-3.3c-2,0-3.8,1.8-4.1,3.8h7.4C571.5,203,571.5,202.8,571.5,202.7z"/>
		<path class="st14" d="M596.2,205.6c0.9,1.3,2.5,2.2,4.5,2.2c2.5,0,3.5-1.6,3.5-3c0-1.4-1.5-2.1-3.1-2.7c-1.8-0.7-3.8-1.5-3.8-3.6
			c0-2.1,2-3.8,4.6-3.8c2.1,0,3.9,0.9,4.7,2.1l-0.9,0.8c-0.9-1.3-2.4-1.9-4-1.9c-1.8,0-3.3,1.3-3.3,2.6c0,1.3,1.4,1.9,3,2.5
			c1.9,0.8,3.9,1.6,3.9,3.8c0,2.1-1.7,4.2-4.9,4.2c-2.3,0-4.4-1.1-5.3-2.4L596.2,205.6z"/>
		<path class="st14" d="M613.3,198.4c2.7,0,4.2,1.9,4.2,4.3c0,0.4-0.1,1-0.2,1.3h-8.4c0,0.1,0,0.4,0,0.6c0,1.8,1.2,3.4,3.6,3.4
			c1,0,2.1-0.4,3-1.1l0.4,0.8c-0.9,0.7-2.2,1.2-3.5,1.2c-3,0-4.7-1.8-4.7-4.4C607.7,201.2,610.2,198.4,613.3,198.4z M616.5,202.7
			c0-1.9-1.2-3.3-3.3-3.3c-2,0-3.8,1.8-4.1,3.8h7.4C616.5,203,616.5,202.8,616.5,202.7z"/>
		<path class="st14" d="M621.2,198.7h1.1l-0.4,1.6c1-1.2,2-1.8,3.8-1.8l-0.2,1.2c-0.1,0-0.4-0.1-0.7-0.1c-1.2,0-2.4,0.9-3,1.8
			l-1.6,7.2H619L621.2,198.7z"/>
		<path class="st14" d="M626.2,198.7h1.2l1.7,8.7l5.5-8.7h1.3l-6.4,9.9h-1.2L626.2,198.7z"/>
		<path class="st14" d="M637.7,198.7h1.1l-2.2,9.9h-1.1L637.7,198.7z M638.8,195.3c0.4,0,0.8,0.3,0.8,0.7c0,0.6-0.5,0.9-0.9,0.9
			c-0.4,0-0.8-0.3-0.8-0.7C637.9,195.7,638.4,195.3,638.8,195.3z"/>
		<path class="st14" d="M645.8,198.4c1.7,0,2.9,0.7,3.6,1.8l-0.8,0.6c-0.6-1-1.6-1.5-2.7-1.5c-2.7,0-4.4,2.5-4.4,5.1
			c0,2.3,1.5,3.4,3.4,3.4c1.1,0,2.1-0.5,2.7-1.3l0.6,0.7c-0.9,0.9-1.9,1.5-3.4,1.5c-2.6,0-4.4-1.6-4.4-4.4
			C640.3,201.2,642.7,198.4,645.8,198.4z"/>
		<path class="st14" d="M655.9,198.4c2.7,0,4.2,1.9,4.2,4.3c0,0.4-0.1,1-0.2,1.3h-8.4c0,0.1,0,0.4,0,0.6c0,1.8,1.2,3.4,3.6,3.4
			c1,0,2.1-0.4,3-1.1l0.4,0.8c-0.9,0.7-2.2,1.2-3.5,1.2c-3,0-4.7-1.8-4.7-4.4C650.4,201.2,652.9,198.4,655.9,198.4z M659.1,202.7
			c0-1.9-1.2-3.3-3.3-3.3c-2,0-3.8,1.8-4.1,3.8h7.4C659.1,203,659.1,202.8,659.1,202.7z"/>
		<path class="st14" d="M662.1,206.4c0.5,0.8,1.7,1.5,3.3,1.5c1.6,0,2.6-1,2.6-2.1c0-1-1.2-1.5-2.4-2c-1.4-0.6-2.9-1.2-2.9-2.6
			c0-1.5,1.3-2.9,3.6-2.9c1.7,0,3.1,0.8,3.6,1.6l-0.7,0.7c-0.4-0.8-1.7-1.4-3-1.4c-1.5,0-2.5,0.8-2.5,1.8c0,0.9,1.1,1.4,2.3,1.8
			c1.4,0.6,3,1.2,3,2.8c0,1.6-1.3,3.1-3.7,3.1c-1.8,0-3.2-0.6-4-1.8L662.1,206.4z"/>
		<path class="st14" d="M695.6,194.9h4.8c2.2,0,3.6,1.6,3.6,3.4c0,2.1-1.4,4.6-5.1,4.6H695l-1.3,5.7h-1.2L695.6,194.9z M702.7,198.4
			c0-1.3-1.1-2.5-2.5-2.5h-3.7l-1.3,5.9h3.8C701.5,201.9,702.7,200.2,702.7,198.4z"/>
		<path class="st14" d="M706.4,198.7h1.1l-0.4,1.6c1-1.2,2-1.8,3.8-1.8l-0.2,1.2c-0.1,0-0.4-0.1-0.7-0.1c-1.2,0-2.4,0.9-3,1.8
			l-1.6,7.2h-1.1L706.4,198.7z"/>
		<path class="st14" d="M716.6,198.4c2.7,0,4.4,1.7,4.4,4.4c0,3.2-2.3,6.1-5.5,6.1c-2.7,0-4.4-1.7-4.4-4.4
			C711.1,201.4,713.5,198.4,716.6,198.4z M716.6,199.4c-2.5,0-4.3,2.5-4.3,5.1c0,2.1,1.2,3.4,3.2,3.4c2.5,0,4.3-2.5,4.3-5.1
			C719.8,200.8,718.6,199.4,716.6,199.4z"/>
		<path class="st14" d="M732.9,194.9h1.1l-3,13.7h-1.1l0.4-1.5c-0.8,1.1-2,1.8-3.4,1.8c-2.3,0-3.9-1.5-3.9-4.1
			c0-3.4,2.1-6.4,5.2-6.4c1.6,0,2.9,0.8,3.6,1.9L732.9,194.9z M727.1,207.9c1.4,0,2.7-0.9,3.4-1.9l1-4.8c-0.5-1-1.7-1.8-3.3-1.8
			c-2.5,0-4.1,2.6-4.1,5.2C724.1,206.7,725.3,207.9,727.1,207.9z"/>
		<path class="st14" d="M736.1,205.4c0,0.2-0.1,0.5-0.1,0.7c0,1.2,0.9,1.8,2.2,1.8s2.5-0.9,3.4-1.8l1.7-7.5h1.1l-2.2,9.9H741
			l0.3-1.5c-0.9,0.9-2.2,1.8-3.6,1.8c-1.7,0-2.9-0.8-2.9-2.4c0-0.2,0.1-0.6,0.1-0.8l1.5-6.9h1.1L736.1,205.4z"/>
		<path class="st14" d="M751.3,198.4c1.7,0,2.9,0.7,3.6,1.8l-0.8,0.6c-0.6-1-1.6-1.5-2.7-1.5c-2.7,0-4.4,2.5-4.4,5.1
			c0,2.3,1.5,3.4,3.4,3.4c1.1,0,2.1-0.5,2.7-1.3l0.6,0.7c-0.9,0.9-1.9,1.5-3.4,1.5c-2.6,0-4.4-1.6-4.4-4.4
			C745.8,201.2,748.2,198.4,751.3,198.4z"/>
		<path class="st14" d="M756.2,206.7l1.6-7h-1.6l0.2-0.9h1.6l0.6-2.7h1.1l-0.6,2.7h2l-0.2,0.9h-2l-1.5,6.9c0,0.1,0,0.2,0,0.4
			c0,0.6,0.4,0.9,1,0.9c0.4,0,0.8-0.2,1.1-0.4l0.2,0.9c-0.4,0.3-0.8,0.5-1.4,0.5c-1.2,0-2-0.5-2-1.7
			C756.2,207.1,756.2,206.9,756.2,206.7z"/>
		<path class="st14" d="M761.6,206.4c0.5,0.8,1.7,1.5,3.3,1.5c1.6,0,2.6-1,2.6-2.1c0-1-1.2-1.5-2.4-2c-1.4-0.6-2.9-1.2-2.9-2.6
			c0-1.5,1.3-2.9,3.6-2.9c1.7,0,3.1,0.8,3.6,1.6l-0.7,0.7c-0.4-0.8-1.7-1.4-3-1.4c-1.5,0-2.5,0.8-2.5,1.8c0,0.9,1.1,1.4,2.3,1.8
			c1.4,0.6,3,1.2,3,2.8c0,1.6-1.3,3.1-3.7,3.1c-1.8,0-3.2-0.6-4-1.8L761.6,206.4z"/>
		<path class="st14" d="M795.1,194.7c2.4,0,4.3,1.1,5.4,2.9l-1.1,0.5c-0.9-1.7-2.6-2.4-4.3-2.4c-3.1,0-6.3,2.8-6.3,7.1
			c0,2.9,1.9,4.9,5,4.9c1.3,0,2.7-0.5,3.9-1.6l0.8,0.7c-1.4,1.3-3.1,1.9-4.8,1.9c-3.6,0-6.2-2.4-6.2-6
			C787.5,197.9,791.3,194.7,795.1,194.7z"/>
		<path class="st14" d="M806.4,198.4c2.7,0,4.4,1.7,4.4,4.4c0,3.2-2.3,6.1-5.5,6.1c-2.7,0-4.4-1.7-4.4-4.4
			C800.9,201.4,803.2,198.4,806.4,198.4z M806.3,199.4c-2.5,0-4.3,2.5-4.3,5.1c0,2.1,1.2,3.4,3.2,3.4c2.5,0,4.3-2.5,4.3-5.1
			C809.6,200.8,808.4,199.4,806.3,199.4z"/>
		<path class="st14" d="M820.5,201.9c0-0.2,0.1-0.5,0.1-0.7c0-1.2-0.9-1.8-2.2-1.8c-1.3,0-2.6,0.8-3.4,1.7l-1.6,7.5h-1.1l2.2-9.9
			h1.1l-0.3,1.5c0.9-0.9,2.2-1.8,3.6-1.8c1.7,0,2.9,0.8,2.9,2.4c0,0.2-0.1,0.6-0.1,0.8l-1.5,6.9H819L820.5,201.9z"/>
		<path class="st14" d="M824,206.7l1.6-7H824l0.2-0.9h1.6l0.6-2.7h1.1l-0.6,2.7h2l-0.2,0.9h-2l-1.5,6.9c0,0.1,0,0.2,0,0.4
			c0,0.6,0.4,0.9,1,0.9c0.4,0,0.8-0.2,1-0.4l0.2,0.9c-0.4,0.3-0.8,0.5-1.4,0.5c-1.2,0-2-0.5-2-1.7C824,207.1,824,206.9,824,206.7z"
			/>
		<path class="st14" d="M838.6,198.7h1.1l-2.2,9.9h-1.1l0.3-1.5c-0.8,1.1-2,1.8-3.4,1.8c-2.3,0-3.9-1.5-3.9-4.1
			c0-3.4,2.1-6.4,5.2-6.4c1.6,0,2.9,0.8,3.6,1.9L838.6,198.7z M833.6,207.9c1.4,0,2.7-0.9,3.4-1.9l1-4.8c-0.5-1-1.7-1.8-3.3-1.8
			c-2.5,0-4.1,2.6-4.1,5.2C830.6,206.7,831.8,207.9,833.6,207.9z"/>
		<path class="st14" d="M846.7,198.4c1.7,0,2.9,0.7,3.6,1.8l-0.8,0.6c-0.6-1-1.6-1.5-2.7-1.5c-2.7,0-4.4,2.5-4.4,5.1
			c0,2.3,1.5,3.4,3.4,3.4c1.1,0,2.1-0.5,2.7-1.3l0.6,0.7c-0.9,0.9-1.9,1.5-3.4,1.5c-2.6,0-4.4-1.6-4.4-4.4
			C841.2,201.2,843.6,198.4,846.7,198.4z"/>
		<path class="st14" d="M851.6,206.7l1.6-7h-1.6l0.2-0.9h1.6l0.6-2.7h1.1l-0.6,2.7h2l-0.2,0.9h-2l-1.5,6.9c0,0.1,0,0.2,0,0.4
			c0,0.6,0.4,0.9,1,0.9c0.4,0,0.8-0.2,1.1-0.4l0.2,0.9c-0.4,0.3-0.8,0.5-1.4,0.5c-1.2,0-2-0.5-2-1.7
			C851.6,207.1,851.6,206.9,851.6,206.7z"/>
	</g>
	<rect x="122" y="250" class="st15" width="704.6" height="230.3"/>
	<path class="st13" d="M507.4,378.2l-73.8-1c-6.6,0-12,5.4-12,12v30.9c0,6.6,5.4,12,12,12l73.8,1c6.6,0,12-5.4,12-12v-30.9
		C519.4,383.6,514,378.2,507.4,378.2z"/>
	<path class="st16" d="M665.2,317.2H280.4c-2.4-1-4.3-3-4.3-5.3v-11.2c0-2.4,2-4.3,4.3-3.3h384.8c2.4-1,4.3,0.9,4.3,3.3v11.2
		C669.5,314.2,667.6,316.2,665.2,317.2z"/>
	<path class="st16" d="M624.5,343.9h-308c-1.3-1-2.3-2.1-2.3-3.3v-6c0-1.3,1-2.3,2.3-1.3h308c1.3-1,2.3,0,2.3,1.3v6
		C626.9,341.8,625.8,342.9,624.5,343.9z"/>
	<path class="st16" d="M624.5,362.2h-308c-1.3-1-2.3-2.1-2.3-3.3v-6c0-1.3,1-2.3,2.3-1.3h308c1.3-1,2.3,0,2.3,1.3v6
		C626.9,360.1,625.8,361.2,624.5,362.2z"/>
	<g>
		<path class="st17" d="M137.9,52.7c0-0.1,0.1-0.4,0.1-0.5c0-0.8-0.6-1.1-1.5-1.1c-0.8,0-1.6,0.6-2.2,1.1l-1.1,4.9h-0.7l2-9h0.7
			l-0.8,3.5c0.6-0.6,1.4-1.1,2.3-1.1c1.1,0,1.9,0.5,1.9,1.6c0,0.1,0,0.4-0.1,0.6l-1,4.5h-0.7L137.9,52.7z"/>
		<path class="st17" d="M140.2,55.9l1-4.6h-1.1l0.1-0.6h1.1l0.4-1.8h0.7l-0.4,1.8h1.3l-0.1,0.6h-1.3l-1,4.5c0,0.1,0,0.2,0,0.3
			c0,0.4,0.2,0.6,0.7,0.6c0.3,0,0.5-0.1,0.7-0.2l0.1,0.6c-0.2,0.2-0.6,0.3-0.9,0.3c-0.8,0-1.3-0.3-1.3-1.1
			C140.2,56.2,140.2,56,140.2,55.9z"/>
		<path class="st17" d="M143.9,55.9l1-4.6h-1.1l0.1-0.6h1.1l0.4-1.8h0.7l-0.4,1.8h1.3l-0.1,0.6h-1.3l-1,4.5c0,0.1,0,0.2,0,0.3
			c0,0.4,0.2,0.6,0.7,0.6c0.3,0,0.5-0.1,0.7-0.2l0.1,0.6c-0.2,0.2-0.6,0.3-0.9,0.3c-0.8,0-1.3-0.3-1.3-1.1
			C143.9,56.2,143.9,56,143.9,55.9z"/>
		<path class="st17" d="M147.3,59.6h-0.7l2-9h0.7l-0.2,1c0.5-0.7,1.3-1.1,2.2-1.1c1.5,0,2.5,1,2.5,2.7c0,2.2-1.4,4.1-3.4,4.1
			c-1.1,0-1.9-0.5-2.3-1.3L147.3,59.6z M151.1,51.1c-0.9,0-1.8,0.6-2.2,1.3l-0.7,3.1c0.3,0.6,1.1,1.2,2.2,1.2c1.6,0,2.7-1.7,2.7-3.4
			C153.1,52,152.3,51.1,151.1,51.1z"/>
		<path class="st17" d="M155,55.7c0.3,0.5,1.1,1,2.1,1c1.1,0,1.7-0.6,1.7-1.3c0-0.6-0.8-1-1.6-1.3c-0.9-0.4-1.9-0.8-1.9-1.7
			c0-1,0.9-1.9,2.4-1.9c1.1,0,2,0.5,2.4,1.1l-0.4,0.4c-0.3-0.5-1.1-0.9-2-0.9c-1,0-1.6,0.5-1.6,1.2c0,0.6,0.7,0.9,1.5,1.2
			c0.9,0.4,2,0.8,2,1.8c0,1-0.9,2-2.4,2c-1.2,0-2.1-0.4-2.6-1.1L155,55.7z"/>
		<path class="st18" d="M161.5,56.1c0.3,0,0.5,0.2,0.5,0.6c0,0.4-0.3,0.6-0.6,0.6c-0.3,0-0.5-0.2-0.5-0.6
			C160.9,56.4,161.2,56.1,161.5,56.1z M162.8,50.6c0.3,0,0.5,0.2,0.5,0.5c0,0.4-0.3,0.6-0.6,0.6c-0.3,0-0.5-0.2-0.5-0.5
			C162.1,50.8,162.4,50.6,162.8,50.6z"/>
		<path class="st18" d="M168.1,47.9h0.6l-5.3,9.5h-0.6L168.1,47.9z"/>
		<path class="st18" d="M171.9,47.9h0.6l-5.3,9.5h-0.6L171.9,47.9z"/>
		<path class="st14" d="M176.5,51.6l-3.1,5.6h-0.7l-0.7-6.5h0.7l0.5,5.5l3.1-5.5h0.6l0.6,5.5l3-5.5h0.8l-3.6,6.5h-0.7L176.5,51.6z"
			/>
		<path class="st14" d="M186.2,51.6l-3.1,5.6h-0.7l-0.7-6.5h0.7l0.5,5.5l3.1-5.5h0.6l0.6,5.5l3-5.5h0.8l-3.6,6.5h-0.7L186.2,51.6z"
			/>
		<path class="st14" d="M195.9,51.6l-3.1,5.6h-0.7l-0.7-6.5h0.7l0.5,5.5l3.1-5.5h0.6l0.6,5.5l3-5.5h0.8l-3.6,6.5h-0.7L195.9,51.6z"
			/>
		<path class="st14" d="M200.5,56.1c0.3,0,0.5,0.2,0.5,0.6c0,0.4-0.3,0.6-0.6,0.6c-0.3,0-0.5-0.2-0.5-0.6
			C199.8,56.4,200.1,56.1,200.5,56.1z"/>
		<path class="st14" d="M204.1,51.3H203l0.1-0.6h1.1l0.1-0.6c0.3-1.3,0.9-2,2-2c0.4,0,0.7,0.1,1,0.3l-0.3,0.5
			c-0.2-0.1-0.5-0.2-0.7-0.2c-0.7,0-1.1,0.5-1.3,1.4l-0.1,0.6h1.3l-0.1,0.6h-1.3l-1.3,5.9h-0.7L204.1,51.3z"/>
		<path class="st14" d="M210,50.5c1.7,0,2.8,1.2,2.8,2.8c0,0.3-0.1,0.7-0.1,0.8h-5.5c0,0.1,0,0.3,0,0.4c0,1.2,0.8,2.2,2.4,2.2
			c0.7,0,1.4-0.2,2-0.7l0.3,0.5c-0.6,0.4-1.4,0.8-2.3,0.8c-2,0-3.1-1.2-3.1-2.9C206.4,52.3,208,50.5,210,50.5z M212.1,53.3
			c0-1.3-0.8-2.2-2.2-2.2c-1.3,0-2.5,1.1-2.7,2.5h4.8C212.1,53.5,212.1,53.4,212.1,53.3z"/>
		<path class="st14" d="M219.1,52.7c0-0.1,0.1-0.3,0.1-0.5c0-0.8-0.6-1.1-1.4-1.1c-0.8,0-1.7,0.6-2.2,1.1l-1.1,4.9h-0.7l1.4-6.5h0.7
			l-0.2,1c0.6-0.6,1.4-1.1,2.3-1.1c1.1,0,1.9,0.5,1.9,1.6c0,0.1,0,0.4-0.1,0.6l-1,4.5h-0.7L219.1,52.7z"/>
		<path class="st14" d="M224.9,50.5c1.1,0,1.9,0.4,2.3,1.2l-0.5,0.4c-0.4-0.7-1-1-1.8-1c-1.8,0-2.9,1.6-2.9,3.3c0,1.5,1,2.2,2.2,2.2
			c0.7,0,1.3-0.3,1.8-0.8l0.4,0.5c-0.6,0.6-1.3,1-2.2,1c-1.7,0-2.9-1-2.9-2.9C221.3,52.3,222.9,50.5,224.9,50.5z"/>
		<path class="st14" d="M231.5,50.5c1.7,0,2.8,1.2,2.8,2.8c0,0.3-0.1,0.7-0.1,0.8h-5.5c0,0.1,0,0.3,0,0.4c0,1.2,0.8,2.2,2.4,2.2
			c0.7,0,1.4-0.2,2-0.7l0.3,0.5c-0.6,0.4-1.4,0.8-2.3,0.8c-2,0-3.1-1.2-3.1-2.9C227.9,52.3,229.5,50.5,231.5,50.5z M233.6,53.3
			c0-1.3-0.8-2.2-2.2-2.2c-1.3,0-2.5,1.1-2.7,2.5h4.8C233.6,53.5,233.6,53.4,233.6,53.3z"/>
		<path class="st14" d="M240.3,51.6l-3.1,5.6h-0.7l-0.7-6.5h0.7l0.5,5.5l3.1-5.5h0.6l0.6,5.5l3-5.5h0.8l-3.6,6.5h-0.7L240.3,51.6z"
			/>
		<path class="st14" d="M248.9,50.5c1.7,0,2.8,1.2,2.8,2.8c0,0.3-0.1,0.7-0.1,0.8H246c0,0.1,0,0.3,0,0.4c0,1.2,0.8,2.2,2.4,2.2
			c0.7,0,1.4-0.2,2-0.7l0.3,0.5c-0.6,0.4-1.4,0.8-2.3,0.8c-2,0-3.1-1.2-3.1-2.9C245.2,52.3,246.8,50.5,248.9,50.5z M250.9,53.3
			c0-1.3-0.8-2.2-2.2-2.2c-1.3,0-2.5,1.1-2.7,2.5h4.8C250.9,53.5,250.9,53.4,250.9,53.3z"/>
		<path class="st14" d="M253.3,57.2h-0.7l2-9h0.7l-0.8,3.5c0.5-0.7,1.3-1.1,2.2-1.1c1.5,0,2.5,1,2.5,2.7c0,2.2-1.4,4.1-3.4,4.1
			c-1.1,0-1.9-0.5-2.3-1.3L253.3,57.2z M256.6,51.1c-0.9,0-1.8,0.6-2.2,1.3l-0.7,3.1c0.3,0.6,1.1,1.2,2.2,1.2c1.6,0,2.7-1.7,2.7-3.4
			C258.5,52,257.8,51.1,256.6,51.1z"/>
		<path class="st14" d="M260.7,56.1c0.3,0,0.5,0.2,0.5,0.6c0,0.4-0.3,0.6-0.6,0.6c-0.3,0-0.5-0.2-0.5-0.6
			C260.1,56.4,260.4,56.1,260.7,56.1z"/>
		<path class="st14" d="M266.9,50.5c1.1,0,1.9,0.4,2.3,1.2l-0.5,0.4c-0.4-0.7-1-1-1.8-1c-1.8,0-2.9,1.6-2.9,3.3c0,1.5,1,2.2,2.2,2.2
			c0.7,0,1.3-0.3,1.8-0.8l0.4,0.5c-0.6,0.6-1.3,1-2.2,1c-1.7,0-2.9-1-2.9-2.9C263.3,52.3,264.8,50.5,266.9,50.5z"/>
		<path class="st14" d="M273.5,50.5c1.8,0,2.9,1.1,2.9,2.9c0,2.1-1.5,4-3.6,4c-1.8,0-2.9-1.1-2.9-2.9
			C269.9,52.4,271.4,50.5,273.5,50.5z M273.5,51.1c-1.6,0-2.8,1.6-2.8,3.3c0,1.4,0.8,2.2,2.1,2.2c1.6,0,2.8-1.6,2.8-3.3
			C275.6,52,274.8,51.1,273.5,51.1z"/>
		<path class="st18" d="M281.5,47.9h0.6l-5.3,9.5h-0.6L281.5,47.9z"/>
		<path class="st18" d="M281.4,55.7c0.3,0.5,1.1,1,2.1,1c1.1,0,1.7-0.6,1.7-1.3c0-0.6-0.8-1-1.6-1.3c-0.9-0.4-1.9-0.8-1.9-1.7
			c0-1,0.9-1.9,2.4-1.9c1.1,0,2,0.5,2.4,1.1L286,52c-0.3-0.5-1.1-0.9-2-0.9c-1,0-1.6,0.5-1.6,1.2c0,0.6,0.7,0.9,1.5,1.2
			c0.9,0.4,2,0.8,2,1.8c0,1-0.9,2-2.4,2c-1.2,0-2.1-0.4-2.6-1.1L281.4,55.7z"/>
		<path class="st18" d="M287.7,55.9l1-4.6h-1.1l0.1-0.6h1.1l0.4-1.8h0.7l-0.4,1.8h1.3l-0.1,0.6h-1.3l-1,4.5c0,0.1,0,0.2,0,0.3
			c0,0.4,0.2,0.6,0.7,0.6c0.3,0,0.5-0.1,0.7-0.2l0.1,0.6c-0.2,0.2-0.6,0.3-0.9,0.3c-0.8,0-1.3-0.3-1.3-1.1
			C287.7,56.2,287.7,56,287.7,55.9z"/>
		<path class="st18" d="M297.2,50.7h0.7l-1.4,6.5h-0.7l0.2-1c-0.5,0.7-1.3,1.1-2.2,1.1c-1.5,0-2.5-1-2.5-2.7c0-2.2,1.4-4.2,3.4-4.2
			c1.1,0,1.9,0.5,2.3,1.3L297.2,50.7z M294,56.7c0.9,0,1.8-0.6,2.2-1.3l0.7-3.1c-0.3-0.6-1.1-1.2-2.2-1.2c-1.6,0-2.7,1.7-2.7,3.4
			C292,55.9,292.8,56.7,294,56.7z"/>
		<path class="st18" d="M298.9,58.2c0.5,0.7,1.2,1,2.3,1s2-0.6,2.3-2.1l0.2-1c-0.5,0.7-1.3,1.1-2.3,1.1c-1.4,0-2.5-0.9-2.5-2.7
			c0-2.1,1.3-4.1,3.4-4.1c0.9,0,1.9,0.6,2.4,1.3l0.3-1.1h0.7l-1.4,6.4c-0.4,2-1.6,2.7-3,2.7c-1.2,0-2.1-0.2-2.8-1.1L298.9,58.2z
			 M304.6,52.3c-0.4-0.7-1.3-1.2-2.2-1.2c-1.6,0-2.7,1.7-2.7,3.3c0,1.4,0.8,2.2,2,2.2c0.8,0,1.7-0.6,2.2-1.2L304.6,52.3z"/>
		<path class="st18" d="M307.8,50.7h0.7l-1.4,6.5h-0.7L307.8,50.7z M308.6,48.5c0.3,0,0.5,0.2,0.5,0.5c0,0.4-0.3,0.6-0.6,0.6
			c-0.3,0-0.5-0.2-0.5-0.5C308,48.7,308.3,48.5,308.6,48.5z"/>
		<path class="st18" d="M314.6,52.7c0-0.1,0.1-0.3,0.1-0.5c0-0.8-0.6-1.1-1.4-1.1c-0.8,0-1.7,0.6-2.2,1.1l-1.1,4.9h-0.7l1.4-6.5h0.7
			l-0.2,1c0.6-0.6,1.4-1.1,2.3-1.1c1.1,0,1.9,0.5,1.9,1.6c0,0.1,0,0.4-0.1,0.6l-1,4.5h-0.7L314.6,52.7z"/>
		<path class="st18" d="M316.7,58.2c0.5,0.7,1.2,1,2.3,1s2-0.6,2.3-2.1l0.2-1c-0.5,0.7-1.3,1.1-2.3,1.1c-1.4,0-2.5-0.9-2.5-2.7
			c0-2.1,1.3-4.1,3.4-4.1c0.9,0,1.9,0.6,2.4,1.3l0.3-1.1h0.7l-1.4,6.4c-0.4,2-1.6,2.7-3,2.7c-1.2,0-2.1-0.2-2.8-1.1L316.7,58.2z
			 M322.4,52.3c-0.4-0.7-1.3-1.2-2.2-1.2c-1.6,0-2.7,1.7-2.7,3.3c0,1.4,0.8,2.2,2,2.2c0.8,0,1.7-0.6,2.2-1.2L322.4,52.3z"/>
		<path class="st18" d="M328.3,47.9h0.6l-5.3,9.5H323L328.3,47.9z"/>
		<path class="st18" d="M327.9,59.1c0.4,0,0.6-0.2,1-0.7l0.8-1.2l-1.3-6.5h0.8l1.1,5.7l3.6-5.7h0.8l-5.1,7.9
			c-0.5,0.8-1.1,1.2-1.8,1.2c-0.3,0-0.6-0.1-0.8-0.1l0.3-0.7C327.4,59.1,327.6,59.1,327.9,59.1z"/>
		<path class="st18" d="M338.3,50.5c1.8,0,2.9,1.1,2.9,2.9c0,2.1-1.5,4-3.6,4c-1.8,0-2.9-1.1-2.9-2.9
			C334.7,52.4,336.2,50.5,338.3,50.5z M338.3,51.1c-1.6,0-2.8,1.6-2.8,3.3c0,1.4,0.8,2.2,2.1,2.2c1.6,0,2.8-1.6,2.8-3.3
			C340.4,52,339.6,51.1,338.3,51.1z"/>
		<path class="st18" d="M343.3,55.1c0,0.1-0.1,0.3-0.1,0.5c0,0.8,0.6,1.1,1.4,1.1s1.7-0.6,2.2-1.1l1.1-4.9h0.7l-1.4,6.5h-0.7l0.2-1
			c-0.6,0.6-1.4,1.1-2.3,1.1c-1.1,0-1.9-0.5-1.9-1.6c0-0.1,0-0.4,0.1-0.6l1-4.5h0.7L343.3,55.1z"/>
		<path class="st18" d="M350.8,50.7h0.7l-0.2,1c0.7-0.8,1.3-1.2,2.5-1.2l-0.2,0.8c-0.1,0-0.2,0-0.5,0c-0.8,0-1.6,0.6-2,1.2l-1,4.7
			h-0.7L350.8,50.7z"/>
		<path class="st18" d="M354.1,55.9l1-4.6H354l0.1-0.6h1.1l0.4-1.8h0.7l-0.4,1.8h1.3l-0.1,0.6h-1.3l-1,4.5c0,0.1,0,0.2,0,0.3
			c0,0.4,0.2,0.6,0.7,0.6c0.3,0,0.5-0.1,0.7-0.2l0.1,0.6c-0.2,0.2-0.6,0.3-0.9,0.3c-0.8,0-1.3-0.3-1.3-1.1
			C354,56.2,354.1,56,354.1,55.9z"/>
		<path class="st18" d="M361.2,50.5c1.7,0,2.8,1.2,2.8,2.8c0,0.3-0.1,0.7-0.1,0.8h-5.5c0,0.1,0,0.3,0,0.4c0,1.2,0.8,2.2,2.4,2.2
			c0.7,0,1.4-0.2,2-0.7l0.3,0.5c-0.6,0.4-1.4,0.8-2.3,0.8c-2,0-3.1-1.2-3.1-2.9C357.6,52.3,359.2,50.5,361.2,50.5z M363.3,53.3
			c0-1.3-0.8-2.2-2.2-2.2c-1.3,0-2.5,1.1-2.7,2.5h4.8C363.3,53.5,363.3,53.4,363.3,53.3z"/>
		<path class="st18" d="M365.2,55.7c0.3,0.5,1.1,1,2.1,1c1.1,0,1.7-0.6,1.7-1.3c0-0.6-0.8-1-1.6-1.3c-0.9-0.4-1.9-0.8-1.9-1.7
			c0-1,0.9-1.9,2.4-1.9c1.1,0,2,0.5,2.4,1.1l-0.4,0.4c-0.3-0.5-1.1-0.9-2-0.9c-1,0-1.6,0.5-1.6,1.2c0,0.6,0.7,0.9,1.5,1.2
			c0.9,0.4,2,0.8,2,1.8c0,1-0.9,2-2.4,2c-1.2,0-2.1-0.4-2.6-1.1L365.2,55.7z"/>
		<path class="st18" d="M371.6,55.9l1-4.6h-1.1l0.1-0.6h1.1l0.4-1.8h0.7l-0.4,1.8h1.3l-0.1,0.6h-1.3l-1,4.5c0,0.1,0,0.2,0,0.3
			c0,0.4,0.2,0.6,0.7,0.6c0.3,0,0.5-0.1,0.7-0.2l0.1,0.6c-0.2,0.2-0.6,0.3-0.9,0.3c-0.8,0-1.3-0.3-1.3-1.1
			C371.5,56.2,371.6,56,371.6,55.9z"/>
		<path class="st18" d="M375.1,55.7c0.3,0.5,1.1,1,2.1,1c1.1,0,1.7-0.6,1.7-1.3c0-0.6-0.8-1-1.6-1.3c-0.9-0.4-1.9-0.8-1.9-1.7
			c0-1,0.9-1.9,2.4-1.9c1.1,0,2,0.5,2.4,1.1l-0.4,0.4c-0.3-0.5-1.1-0.9-2-0.9c-1,0-1.6,0.5-1.6,1.2c0,0.6,0.7,0.9,1.5,1.2
			c0.9,0.4,2,0.8,2,1.8c0,1-0.9,2-2.4,2c-1.2,0-2.1-0.4-2.6-1.1L375.1,55.7z"/>
		<path class="st18" d="M382.5,50.7h0.7l-1.4,6.5H381L382.5,50.7z M383.2,48.5c0.3,0,0.5,0.2,0.5,0.5c0,0.4-0.3,0.6-0.6,0.6
			c-0.3,0-0.5-0.2-0.5-0.5C382.6,48.7,383,48.5,383.2,48.5z"/>
		<path class="st18" d="M384.3,55.9l1-4.6h-1.1l0.1-0.6h1.1l0.4-1.8h0.7l-0.4,1.8h1.3l-0.1,0.6h-1.3l-1,4.5c0,0.1,0,0.2,0,0.3
			c0,0.4,0.2,0.6,0.7,0.6c0.3,0,0.5-0.1,0.7-0.2l0.1,0.6c-0.2,0.2-0.6,0.3-0.9,0.3c-0.8,0-1.3-0.3-1.3-1.1
			C384.3,56.2,384.3,56,384.3,55.9z"/>
		<path class="st18" d="M391.5,50.5c1.7,0,2.8,1.2,2.8,2.8c0,0.3-0.1,0.7-0.1,0.8h-5.5c0,0.1,0,0.3,0,0.4c0,1.2,0.8,2.2,2.4,2.2
			c0.7,0,1.4-0.2,2-0.7l0.3,0.5c-0.6,0.4-1.4,0.8-2.3,0.8c-2,0-3.1-1.2-3.1-2.9C387.9,52.3,389.5,50.5,391.5,50.5z M393.6,53.3
			c0-1.3-0.8-2.2-2.2-2.2c-1.3,0-2.5,1.1-2.7,2.5h4.8C393.6,53.5,393.6,53.4,393.6,53.3z"/>
	</g>
</g>
</svg>
