<?xml version="1.0" encoding="utf-8"?>
<!-- Generator: Adobe Illustrator 19.1.0, SVG Export Plug-In . SVG Version: 6.00 Build 0)  -->
<svg version="1.1" xmlns="http://www.w3.org/2000/svg" xmlns:xlink="http://www.w3.org/1999/xlink" x="0px" y="0px"
	 viewBox="0 0 410 487.5" style="enable-background:new 0 0 410 487.5;" xml:space="preserve">
<style type="text/css">
	.st0{fill:#D8D8D8;}
	.st1{opacity:0.26;}
	.st2{fill:#2B2A2A;}
	.st3{fill:#3195AB;}
	.st4{fill:#EF4438;}
	.st5{fill:#80C342;}
	.st6{fill:#F9ED28;}
	.st7{fill:#FFFFFF;}
	.st8{fill:none;stroke:#EF4438;stroke-width:0.7222;stroke-miterlimit:10;}
	.st9{fill:#EAEAEA;}
	.st10{fill:#8E8E8E;}
	.st11{fill:#8E8E8E;stroke:#454545;stroke-width:5;stroke-miterlimit:10;}
	.st12{fill:#707071;stroke:#1E1E1E;stroke-miterlimit:10;}
	.st13{fill:#353535;}
	.st14{fill:#231F20;}
	.st15{fill:#BE384B;}
	.st16{fill:#E8E8E8;}
</style>
<g id="Layer_1">
	<g>
		<rect x="7.4" class="st0" width="402.6" height="36.3"/>
	</g>
	<g>
		<g class="st1">
			<line class="st2" x1="18.5" y1="47.4" x2="421.1" y2="47.4"/>
		</g>
		<g>
			<line class="st3" x1="7.4" y1="36.3" x2="410" y2="36.3"/>
		</g>
	</g>
	<circle class="st4" cx="403.1" cy="6.6" r="2.4"/>
	<circle class="st5" cx="387.8" cy="6.6" r="2.4"/>
	<circle class="st6" cx="395.6" cy="6.6" r="2.4"/>
	<path class="st7" d="M377.8,22.4H48.4c-0.8,0-1.4-0.6-1.4-1.4v-5c0-0.8,0.6-1.4,1.4-1.4h329.5c0.8,0,1.4,0.6,1.4,1.4v5
		C379.2,21.8,378.6,22.4,377.8,22.4z"/>
	<g>
		<g>
			<polygon class="st4" points="39.5,17.6 37,17.6 39.5,15.1 42,17.6 			"/>
			<rect x="37.5" y="17.6" class="st4" width="4" height="3.5"/>
			<rect x="38.9" y="19" class="st0" width="1.2" height="2.7"/>
			<rect x="40.6" y="15.3" class="st4" width="0.3" height="0.8"/>
		</g>
		<circle class="st8" cx="31.2" cy="18.3" r="2.8"/>
		<rect x="32.3" y="17" class="st0" width="3.5" height="2.5"/>
		<polygon class="st8" points="34,16.3 34.1,17.5 33,17.4 		"/>
		<rect x="19.7" y="18.1" class="st4" width="4.3" height="1"/>
		<path class="st4" d="M23.9,17.9L23,16.6l3,1.9c0.1,0,0.1,0.1,0,0.2l-2.7,1.8l0.7-1.5"/>
		<rect x="13.5" y="18.1" class="st4" width="3.8" height="1"/>
		<path class="st4" d="M13.6,19.3l0.9,1.3l-3-1.9c-0.1,0-0.1-0.1,0-0.2l2.7-1.8l-0.7,1.5"/>
	</g>
	<line class="st9" x1="7.4" y1="36.3" x2="410" y2="36.3"/>
	<polygon class="st10" points="7.4,480.1 7.4,0 0,9 0,480.1 0,487.5 7.4,487.5 400.6,487.5 410,480.1 	"/>
	<path class="st11" d="M7.4,480.1"/>
	<path class="st12" d="M-46.3,478.8"/>
</g>
<g id="objects">
	<rect x="7.4" y="36.3" class="st13" width="402.6" height="20.7"/>
	<g>
		<path class="st7" d="M133.4,47c0-2.3,1.7-3.8,4-3.8c2,0,2.9,1.1,3.4,2.1l-1.9,0.9c-0.2-0.6-0.8-1.1-1.5-1.1c-1,0-1.7,0.8-1.7,1.8
			c0,1,0.7,1.8,1.7,1.8c0.7,0,1.3-0.5,1.5-1.1l1.9,0.9c-0.4,1-1.4,2.1-3.4,2.1C135.1,50.8,133.4,49.3,133.4,47z"/>
		<path class="st7" d="M144.5,50.2c-0.3,0.4-0.9,0.6-1.6,0.6c-0.8,0-1.8-0.5-1.8-1.7c0-1.3,1-1.6,1.8-1.6c0.7,0,1.3,0.2,1.6,0.6
			v-0.6c0-0.4-0.3-0.7-1-0.7c-0.5,0-1.1,0.2-1.5,0.5l-0.7-1.2c0.7-0.6,1.7-0.8,2.5-0.8c1.3,0,2.6,0.5,2.6,2.2v3.2h-2V50.2z
			 M144.5,48.9c-0.1-0.2-0.5-0.3-0.8-0.3c-0.3,0-0.7,0.1-0.7,0.4c0,0.3,0.4,0.4,0.7,0.4c0.3,0,0.6-0.1,0.8-0.3V48.9z"/>
		<path class="st7" d="M147.5,43.3h2v7.3h-2V43.3z"/>
		<path class="st7" d="M150.6,43.3h2v7.3h-2V43.3z"/>
		<path class="st7" d="M157.4,48.5c0.4,0.3,0.8,0.4,1.4,0.4c0.8,0,1.6-0.5,1.6-1.4v0c-0.4,0.5-1,0.7-1.7,0.7c-1.3,0-2.6-0.8-2.6-2.4
			c0-1.6,1.3-2.6,3-2.6c2.4,0,3.5,1.6,3.5,3.8c0,2.5-1.6,3.8-3.9,3.8c-0.8,0-1.7-0.2-2.3-0.6L157.4,48.5z M159.2,45.1
			c-0.6,0-0.9,0.3-0.9,0.7c0,0.5,0.5,0.7,1,0.7c0.4,0,0.7-0.1,1-0.3C160.4,45.7,160.1,45.1,159.2,45.1z"/>
		<path class="st7" d="M164.3,48.3c0.5,0.4,1.3,0.6,1.9,0.6c0.7,0,1-0.3,1-0.7c0-0.4-0.3-0.7-1-0.7c-0.6,0-1,0.2-1.4,0.5l-1.5-0.4
			v-4.4h5.6v1.8h-3.5v1.2c0.5-0.3,1-0.6,1.6-0.6c1.3,0,2.4,0.9,2.4,2.4c0,1.6-1.2,2.6-3.3,2.6c-1.3,0-2.4-0.4-3.1-1L164.3,48.3z"/>
		<path class="st7" d="M173.5,49.5h-3.5v-1.7l2.7-4.5h3.1v4.2h0.8v1.9h-0.8v1.2h-2.2V49.5z M172.1,47.6h1.4v-2.3L172.1,47.6z"/>
		<path class="st7" d="M177.1,47.2h2.6v1.6h-2.6V47.2z"/>
		<path class="st7" d="M181.5,48.3c0.5,0.4,1.3,0.6,1.9,0.6c0.7,0,1-0.3,1-0.7c0-0.4-0.3-0.7-1-0.7c-0.6,0-1,0.2-1.4,0.5l-1.5-0.4
			v-4.4h5.6v1.8h-3.5v1.2c0.5-0.3,1-0.6,1.6-0.6c1.3,0,2.4,0.9,2.4,2.4c0,1.6-1.2,2.6-3.3,2.6c-1.3,0-2.4-0.4-3.1-1L181.5,48.3z"/>
		<path class="st7" d="M188.4,48.3c0.5,0.4,1.3,0.6,1.9,0.6c0.7,0,1-0.3,1-0.7c0-0.4-0.3-0.7-1-0.7c-0.6,0-1,0.2-1.4,0.5l-1.5-0.4
			v-4.4h5.6v1.8h-3.5v1.2c0.5-0.3,1-0.6,1.6-0.6c1.3,0,2.4,0.9,2.4,2.4c0,1.6-1.2,2.6-3.3,2.6c-1.3,0-2.4-0.4-3.1-1L188.4,48.3z"/>
		<path class="st7" d="M195.3,48.3c0.5,0.4,1.3,0.6,1.9,0.6c0.7,0,1-0.3,1-0.7c0-0.4-0.3-0.7-1-0.7c-0.6,0-1,0.2-1.4,0.5l-1.5-0.4
			v-4.4h5.6v1.8h-3.5v1.2c0.5-0.3,1-0.6,1.6-0.6c1.3,0,2.4,0.9,2.4,2.4c0,1.6-1.2,2.6-3.3,2.6c-1.3,0-2.4-0.4-3.1-1L195.3,48.3z"/>
		<path class="st7" d="M201,47.2h2.6v1.6H201V47.2z"/>
		<path class="st7" d="M205.5,48.3c0.5,0.4,1.3,0.6,1.9,0.6c0.7,0,1-0.3,1-0.7c0-0.4-0.3-0.7-1-0.7c-0.6,0-1,0.2-1.4,0.5l-1.5-0.4
			v-4.4h5.6v1.8h-3.5v1.2c0.5-0.3,1-0.6,1.6-0.6c1.3,0,2.4,0.9,2.4,2.4c0,1.6-1.2,2.6-3.3,2.6c-1.3,0-2.4-0.4-3.1-1L205.5,48.3z"/>
		<path class="st7" d="M212.4,48.3c0.5,0.4,1.3,0.6,1.9,0.6c0.7,0,1-0.3,1-0.7c0-0.4-0.3-0.7-1-0.7c-0.6,0-1,0.2-1.4,0.5l-1.5-0.4
			v-4.4h5.6v1.8h-3.5v1.2c0.5-0.3,1-0.6,1.6-0.6c1.3,0,2.4,0.9,2.4,2.4c0,1.6-1.2,2.6-3.3,2.6c-1.3,0-2.4-0.4-3.1-1L212.4,48.3z"/>
		<path class="st7" d="M219.3,48.3c0.5,0.4,1.3,0.6,1.9,0.6c0.7,0,1-0.3,1-0.7c0-0.4-0.3-0.7-1-0.7c-0.6,0-1,0.2-1.4,0.5l-1.5-0.4
			v-4.4h5.6v1.8h-3.5v1.2c0.5-0.3,1-0.6,1.6-0.6c1.3,0,2.4,0.9,2.4,2.4c0,1.6-1.2,2.6-3.3,2.6c-1.3,0-2.4-0.4-3.1-1L219.3,48.3z"/>
		<path class="st7" d="M226.1,48.3c0.5,0.4,1.3,0.6,1.9,0.6c0.7,0,1-0.3,1-0.7c0-0.4-0.3-0.7-1-0.7c-0.6,0-1,0.2-1.4,0.5l-1.5-0.4
			v-4.4h5.6v1.8h-3.5v1.2c0.5-0.3,1-0.6,1.6-0.6c1.3,0,2.4,0.9,2.4,2.4c0,1.6-1.2,2.6-3.3,2.6c-1.3,0-2.4-0.4-3.1-1L226.1,48.3z"/>
		<path class="st7" d="M236.5,45.3h-2v-1.9h6.1v1.9h-2v5.4h-2.2V45.3z"/>
		<path class="st7" d="M240.2,48c0-1.5,1.1-2.8,3-2.8c1.9,0,3,1.3,3,2.8c0,1.5-1.1,2.8-3,2.8C241.3,50.8,240.2,49.5,240.2,48z
			 M244.1,48c0-0.6-0.3-1-1-1c-0.6,0-0.9,0.5-0.9,1c0,0.6,0.3,1,0.9,1C243.8,49.1,244.1,48.6,244.1,48z"/>
		<path class="st7" d="M250.4,50.1c-0.5,0.5-1,0.7-1.5,0.7c-1.3,0-2.3-1-2.3-2.8c0-1.8,1-2.8,2.3-2.8c0.5,0,1.1,0.2,1.5,0.7v-2.6h2
			v7.3h-2V50.1z M250.4,47.3c-0.2-0.2-0.6-0.4-0.8-0.4c-0.5,0-1,0.4-1,1c0,0.7,0.5,1,1,1c0.3,0,0.6-0.1,0.8-0.4V47.3z"/>
		<path class="st7" d="M256.5,50.2c-0.3,0.4-0.9,0.6-1.6,0.6c-0.8,0-1.8-0.5-1.8-1.7c0-1.3,1-1.6,1.8-1.6c0.7,0,1.3,0.2,1.6,0.6
			v-0.6c0-0.4-0.3-0.7-1-0.7c-0.5,0-1.1,0.2-1.5,0.5l-0.7-1.2c0.7-0.6,1.7-0.8,2.5-0.8c1.3,0,2.6,0.5,2.6,2.2v3.2h-2V50.2z
			 M256.5,48.9c-0.1-0.2-0.5-0.3-0.8-0.3c-0.3,0-0.7,0.1-0.7,0.4c0,0.3,0.4,0.4,0.7,0.4c0.3,0,0.6-0.1,0.8-0.3V48.9z"/>
		<path class="st7" d="M260.2,51.1c0.4,0,0.6-0.1,0.7-0.2l0-0.1l-2.1-5.4h2.1l1,3l1-3h2.1l-2.3,6c-0.5,1.2-1.4,1.5-2.5,1.5
			c-0.1,0-0.6,0-0.8-0.1l0.3-1.8C259.9,51,260.1,51.1,260.2,51.1z"/>
		<path class="st7" d="M265.3,43.3h2.4l-0.3,4.6h-1.8L265.3,43.3z M266.5,48.4c0.6,0,1.2,0.5,1.2,1.2c0,0.6-0.5,1.2-1.2,1.2
			c-0.6,0-1.2-0.5-1.2-1.2C265.3,49,265.8,48.4,266.5,48.4z"/>
	</g>
	<ellipse class="st3" cx="59.7" cy="78" rx="13.8" ry="14.3"/>
	<g>
		<path class="st7" d="M51.3,79.7l-2.8-4.4H51l1.4,2.5l1.3-2.5h2.5l-2.7,4.4v2.9h-2.2V79.7z"/>
		<path class="st7" d="M54.9,80c0-1.5,1.1-2.8,3-2.8c1.9,0,3,1.3,3,2.8c0,1.5-1.1,2.8-3,2.8C56,82.8,54.9,81.5,54.9,80z M58.8,80
			c0-0.6-0.3-1-1-1c-0.6,0-0.9,0.5-0.9,1c0,0.6,0.3,1,0.9,1C58.5,81,58.8,80.6,58.8,80z"/>
		<path class="st7" d="M65.2,82.1c-0.3,0.3-0.9,0.7-1.8,0.7c-1.2,0-1.8-0.7-1.8-1.6v-3.8h2v2.9c0,0.5,0.3,0.7,0.8,0.7
			c0.4,0,0.7-0.2,0.8-0.4v-3.3h2v5.3h-2V82.1z"/>
		<path class="st7" d="M68.3,77.4h2V78c0.3-0.4,1-0.7,1.6-0.7v1.9c-0.1,0-0.3-0.1-0.5-0.1c-0.4,0-1,0.1-1.2,0.4v3.2h-2V77.4z"/>
		<path class="st14" d="M75.4,75.3H81v1.8h-3.3V78h3.3v1.8h-3.3v2.8h-2.2V75.3z"/>
		<path class="st14" d="M84.4,77.2c1.6,0,2.8,1.1,2.8,3v0.4h-3.6c0.1,0.3,0.5,0.7,1.2,0.7c0.5,0,0.9-0.2,1.2-0.4l0.8,1.2
			c-0.5,0.5-1.5,0.7-2.3,0.7c-1.7,0-3-1-3-2.8C81.5,78.5,82.7,77.2,84.4,77.2z M83.6,79.4h1.7c-0.1-0.2-0.2-0.6-0.9-0.6
			C83.8,78.7,83.6,79.1,83.6,79.4z"/>
		<path class="st14" d="M91.5,79.7c0-0.5-0.3-0.8-0.8-0.8c-0.5,0-0.7,0.2-0.8,0.4v3.3h-2v-5.3h2V78c0.3-0.4,0.9-0.7,1.8-0.7
			c1.2,0,1.8,0.7,1.8,1.7v3.8h-2V79.7z"/>
		<path class="st14" d="M97.2,77.2c1.2,0,2,0.6,2.3,1l-1.3,1.2C98,79.2,97.7,79,97.2,79c-0.6,0-1,0.4-1,1s0.5,1,1,1
			c0.4,0,0.7-0.2,0.9-0.5l1.3,1.2c-0.3,0.4-1,1-2.3,1c-1.7,0-3-1.1-3-2.8C94.2,78.3,95.5,77.2,97.2,77.2z"/>
		<path class="st14" d="M102.6,77.2c1.6,0,2.8,1.1,2.8,3v0.4h-3.6c0.1,0.3,0.5,0.7,1.2,0.7c0.5,0,0.9-0.2,1.2-0.4l0.8,1.2
			c-0.5,0.5-1.5,0.7-2.3,0.7c-1.7,0-3-1-3-2.8C99.7,78.5,100.9,77.2,102.6,77.2z M101.7,79.4h1.7c-0.1-0.2-0.2-0.6-0.9-0.6
			C102,78.7,101.8,79.1,101.7,79.4z"/>
		<path class="st14" d="M108.5,79c0-2.3,1.7-3.8,4-3.8c2,0,2.9,1.1,3.4,2.1l-1.9,0.9c-0.2-0.6-0.8-1.1-1.5-1.1c-1,0-1.7,0.8-1.7,1.8
			s0.7,1.8,1.7,1.8c0.7,0,1.3-0.5,1.5-1.1l1.9,0.9c-0.4,1-1.4,2.1-3.4,2.1C110.2,82.8,108.5,81.3,108.5,79z"/>
		<path class="st14" d="M116.1,80c0-1.5,1.1-2.8,3-2.8c1.9,0,3,1.3,3,2.8c0,1.5-1.1,2.8-3,2.8C117.2,82.8,116.1,81.5,116.1,80z
			 M120.1,80c0-0.6-0.3-1-1-1c-0.6,0-0.9,0.5-0.9,1c0,0.6,0.3,1,0.9,1C119.7,81,120.1,80.6,120.1,80z"/>
		<path class="st14" d="M129.6,79.6c0-0.3-0.2-0.6-0.6-0.6s-0.7,0.3-0.8,0.4v3.3h-2v-3.1c0-0.3-0.2-0.6-0.6-0.6
			c-0.4,0-0.7,0.3-0.8,0.4v3.3h-2v-5.3h2V78c0.2-0.3,0.9-0.7,1.8-0.7c0.7,0,1.3,0.3,1.5,0.9c0.3-0.5,1-0.9,1.9-0.9
			c1,0,1.6,0.5,1.6,1.6v3.9h-2V79.6z"/>
		<path class="st14" d="M132.7,84.7v-7.3h2v0.6c0.4-0.5,0.9-0.7,1.5-0.7c1.3,0,2.3,1,2.3,2.8c0,1.8-1,2.8-2.3,2.8
			c-0.5,0-1.1-0.2-1.5-0.7v2.6H132.7z M135.5,79c-0.3,0-0.6,0.1-0.8,0.4v1.4c0.2,0.2,0.6,0.4,0.8,0.4c0.5,0,1-0.4,1-1
			C136.5,79.3,136,79,135.5,79z"/>
		<path class="st14" d="M142.3,82.2c-0.3,0.4-0.9,0.6-1.6,0.6c-0.8,0-1.8-0.5-1.8-1.7c0-1.3,1-1.6,1.8-1.6c0.7,0,1.3,0.2,1.6,0.6
			v-0.6c0-0.4-0.3-0.7-1-0.7c-0.5,0-1.1,0.2-1.5,0.5l-0.7-1.2c0.7-0.6,1.7-0.8,2.5-0.8c1.3,0,2.6,0.5,2.6,2.2v3.2h-2V82.2z
			 M142.3,80.9c-0.1-0.2-0.5-0.3-0.8-0.3c-0.3,0-0.7,0.1-0.7,0.4c0,0.3,0.4,0.4,0.7,0.4c0.3,0,0.6-0.1,0.8-0.3V80.9z"/>
		<path class="st14" d="M149,79.7c0-0.5-0.3-0.8-0.8-0.8c-0.5,0-0.7,0.2-0.8,0.4v3.3h-2v-5.3h2V78c0.3-0.4,0.9-0.7,1.8-0.7
			c1.2,0,1.8,0.7,1.8,1.7v3.8h-2V79.7z"/>
		<path class="st14" d="M152.7,83.1c0.4,0,0.6-0.1,0.7-0.2l0-0.1l-2.1-5.4h2.1l1,3l1-3h2.1l-2.3,6c-0.5,1.2-1.4,1.5-2.5,1.5
			c-0.1,0-0.6,0-0.8-0.1l0.3-1.8C152.4,83,152.6,83.1,152.7,83.1z"/>
		<path class="st14" d="M157.5,83.6c0.4-0.2,0.9-0.6,1-1c-0.1,0-0.2,0-0.3,0c-0.5,0-1-0.5-1-1.1c0-0.6,0.5-1.2,1.1-1.2
			c0.7,0,1.3,0.5,1.3,1.4c0,1-0.5,1.8-1.4,2.4L157.5,83.6z"/>
		<path class="st14" d="M163.4,75.3h2.2v7.3h-2.2V75.3z"/>
		<path class="st14" d="M170.3,79.7c0-0.5-0.3-0.8-0.8-0.8c-0.5,0-0.7,0.2-0.8,0.4v3.3h-2v-5.3h2V78c0.3-0.4,0.9-0.7,1.8-0.7
			c1.2,0,1.8,0.7,1.8,1.7v3.8h-2V79.7z"/>
		<path class="st14" d="M176,77.2c1.2,0,2,0.6,2.3,1l-1.3,1.2c-0.2-0.3-0.5-0.5-0.9-0.5c-0.6,0-1,0.4-1,1s0.5,1,1,1
			c0.4,0,0.7-0.2,0.9-0.5l1.3,1.2c-0.3,0.4-1,1-2.3,1c-1.7,0-3-1.1-3-2.8C173,78.3,174.3,77.2,176,77.2z"/>
		<path class="st14" d="M179.9,80.4c0.6,0,1.2,0.5,1.2,1.2c0,0.6-0.5,1.2-1.2,1.2s-1.2-0.5-1.2-1.2C178.8,81,179.3,80.4,179.9,80.4z
			"/>
	</g>
	<g>
		<path class="st14" d="M236.4,79.5h-3.8l-0.6,2.9h-0.5l1.3-6h0.5l-0.6,2.7h3.8l0.6-2.7h0.5l-1.3,6h-0.5L236.4,79.5z"/>
		<path class="st14" d="M240.3,77.9c1.2,0,1.9,0.8,1.9,1.9c0,1.4-1,2.7-2.4,2.7c-1.2,0-1.9-0.8-1.9-1.9
			C237.9,79.2,238.9,77.9,240.3,77.9z M240.3,78.3c-1.1,0-1.9,1.1-1.9,2.2c0,0.9,0.5,1.5,1.4,1.5c1.1,0,1.9-1.1,1.9-2.2
			C241.7,78.9,241.2,78.3,240.3,78.3z"/>
		<path class="st14" d="M248.7,79.3c0,0,0-0.2,0-0.3c0-0.5-0.4-0.7-0.8-0.7c-0.5,0-1,0.4-1.3,0.8l-0.7,3.3h-0.5l0.7-3
			c0-0.1,0-0.2,0-0.3c0-0.4-0.3-0.7-0.8-0.7c-0.5,0-0.9,0.4-1.3,0.8l-0.7,3.3h-0.5l1-4.3h0.5l-0.1,0.7c0.2-0.3,0.8-0.8,1.4-0.8
			c0.7,0,1.1,0.5,1.1,0.8v0c0.3-0.4,0.9-0.9,1.5-0.9c0.6,0,1.1,0.4,1.1,1.1c0,0.1,0,0.2-0.1,0.4l-0.7,3h-0.5L248.7,79.3z"/>
		<path class="st14" d="M252.6,77.9c1.2,0,1.8,0.8,1.8,1.9c0,0.2,0,0.4-0.1,0.5h-3.7c0,0.1,0,0.2,0,0.3c0,0.8,0.5,1.5,1.6,1.5
			c0.4,0,0.9-0.2,1.3-0.5l0.2,0.3c-0.4,0.3-0.9,0.5-1.5,0.5c-1.3,0-2.1-0.8-2.1-1.9C250.2,79.1,251.2,77.9,252.6,77.9z M254,79.7
			c0-0.8-0.5-1.5-1.5-1.5c-0.9,0-1.6,0.8-1.8,1.7h3.2C254,79.9,254,79.8,254,79.7z"/>
		<path class="st14" d="M264.8,81c0.4,0.6,1.1,1,2,1c1.1,0,1.5-0.7,1.5-1.3c0-0.6-0.7-0.9-1.4-1.2c-0.8-0.3-1.6-0.7-1.6-1.6
			c0-0.9,0.9-1.7,2-1.7c0.9,0,1.7,0.4,2.1,0.9l-0.4,0.4c-0.4-0.6-1.1-0.8-1.7-0.8c-0.8,0-1.4,0.6-1.4,1.2c0,0.6,0.6,0.8,1.3,1.1
			c0.8,0.3,1.7,0.7,1.7,1.6c0,0.9-0.7,1.8-2.1,1.8c-1,0-1.9-0.5-2.3-1.1L264.8,81z"/>
		<path class="st14" d="M272.2,77.9c1.2,0,1.8,0.8,1.8,1.9c0,0.2,0,0.4-0.1,0.5h-3.7c0,0.1,0,0.2,0,0.3c0,0.8,0.5,1.5,1.6,1.5
			c0.4,0,0.9-0.2,1.3-0.5l0.2,0.3c-0.4,0.3-0.9,0.5-1.5,0.5c-1.3,0-2.1-0.8-2.1-1.9C269.8,79.1,270.9,77.9,272.2,77.9z M273.6,79.7
			c0-0.8-0.5-1.5-1.5-1.5c-0.9,0-1.6,0.8-1.8,1.7h3.2C273.6,79.9,273.6,79.8,273.6,79.7z"/>
		<path class="st14" d="M275.7,78h0.5l-0.2,0.7c0.5-0.5,0.9-0.8,1.6-0.8l-0.1,0.5c-0.1,0-0.2,0-0.3,0c-0.5,0-1,0.4-1.3,0.8l-0.7,3.2
			h-0.5L275.7,78z"/>
		<path class="st14" d="M277.9,78h0.5l0.7,3.8l2.4-3.8h0.5l-2.8,4.3h-0.5L277.9,78z"/>
		<path class="st14" d="M282.9,78h0.5l-1,4.3h-0.5L282.9,78z M283.4,76.5c0.2,0,0.3,0.1,0.3,0.3c0,0.3-0.2,0.4-0.4,0.4
			c-0.2,0-0.3-0.1-0.3-0.3C283,76.7,283.2,76.5,283.4,76.5z"/>
		<path class="st14" d="M286.4,77.9c0.7,0,1.3,0.3,1.6,0.8l-0.4,0.3c-0.3-0.4-0.7-0.6-1.2-0.6c-1.2,0-1.9,1.1-1.9,2.2
			c0,1,0.6,1.5,1.5,1.5c0.5,0,0.9-0.2,1.2-0.6l0.3,0.3c-0.4,0.4-0.8,0.7-1.5,0.7c-1.1,0-1.9-0.7-1.9-1.9
			C284,79.1,285.1,77.9,286.4,77.9z"/>
		<path class="st14" d="M290.9,77.9c1.2,0,1.8,0.8,1.8,1.9c0,0.2,0,0.4-0.1,0.5H289c0,0.1,0,0.2,0,0.3c0,0.8,0.5,1.5,1.6,1.5
			c0.4,0,0.9-0.2,1.3-0.5l0.2,0.3c-0.4,0.3-0.9,0.5-1.5,0.5c-1.3,0-2.1-0.8-2.1-1.9C288.5,79.1,289.5,77.9,290.9,77.9z M292.3,79.7
			c0-0.8-0.5-1.5-1.5-1.5c-0.9,0-1.6,0.8-1.8,1.7h3.2C292.3,79.9,292.3,79.8,292.3,79.7z"/>
		<path class="st14" d="M293.6,81.4c0.2,0.4,0.8,0.7,1.4,0.7c0.7,0,1.2-0.4,1.2-0.9c0-0.4-0.5-0.6-1-0.9c-0.6-0.2-1.3-0.5-1.3-1.2
			c0-0.7,0.6-1.3,1.6-1.3c0.7,0,1.3,0.3,1.6,0.7l-0.3,0.3c-0.2-0.3-0.7-0.6-1.3-0.6c-0.7,0-1.1,0.3-1.1,0.8c0,0.4,0.5,0.6,1,0.8
			c0.6,0.3,1.3,0.5,1.3,1.2c0,0.7-0.6,1.4-1.6,1.4c-0.8,0-1.4-0.3-1.7-0.8L293.6,81.4z"/>
		<path class="st14" d="M308.2,76.3h2.1c0.9,0,1.6,0.7,1.6,1.5c0,0.9-0.6,2-2.2,2h-1.7l-0.6,2.5h-0.5L308.2,76.3z M311.3,77.9
			c0-0.6-0.5-1.1-1.1-1.1h-1.6l-0.6,2.6h1.7C310.8,79.4,311.3,78.7,311.3,77.9z"/>
		<path class="st14" d="M313,78h0.5l-0.2,0.7c0.5-0.5,0.9-0.8,1.6-0.8l-0.1,0.5c-0.1,0-0.2,0-0.3,0c-0.5,0-1,0.4-1.3,0.8l-0.7,3.2
			H312L313,78z"/>
		<path class="st14" d="M317.4,77.9c1.2,0,1.9,0.8,1.9,1.9c0,1.4-1,2.7-2.4,2.7c-1.2,0-1.9-0.8-1.9-1.9
			C315,79.2,316,77.9,317.4,77.9z M317.4,78.3c-1.1,0-1.9,1.1-1.9,2.2c0,0.9,0.5,1.5,1.4,1.5c1.1,0,1.9-1.1,1.9-2.2
			C318.8,78.9,318.3,78.3,317.4,78.3z"/>
		<path class="st14" d="M324.5,76.3h0.5l-1.3,6h-0.5l0.2-0.7c-0.4,0.5-0.9,0.8-1.5,0.8c-1,0-1.7-0.7-1.7-1.8c0-1.5,0.9-2.8,2.3-2.8
			c0.7,0,1.3,0.4,1.6,0.8L324.5,76.3z M322,82c0.6,0,1.2-0.4,1.5-0.8l0.5-2.1c-0.2-0.4-0.7-0.8-1.4-0.8c-1.1,0-1.8,1.1-1.8,2.3
			C320.7,81.5,321.2,82,322,82z"/>
		<path class="st14" d="M325.9,80.9c0,0.1-0.1,0.2-0.1,0.3c0,0.5,0.4,0.8,1,0.8s1.1-0.4,1.5-0.8L329,78h0.5l-1,4.3h-0.5l0.1-0.7
			c-0.4,0.4-1,0.8-1.6,0.8c-0.7,0-1.3-0.4-1.3-1.1c0-0.1,0-0.3,0.1-0.4l0.7-3h0.5L325.9,80.9z"/>
		<path class="st14" d="M332.6,77.9c0.7,0,1.3,0.3,1.6,0.8l-0.4,0.3c-0.3-0.4-0.7-0.6-1.2-0.6c-1.2,0-1.9,1.1-1.9,2.2
			c0,1,0.6,1.5,1.5,1.5c0.5,0,0.9-0.2,1.2-0.6l0.3,0.3c-0.4,0.4-0.8,0.7-1.5,0.7c-1.1,0-1.9-0.7-1.9-1.9
			C330.2,79.1,331.2,77.9,332.6,77.9z"/>
		<path class="st14" d="M334.7,81.5l0.7-3.1h-0.7l0.1-0.4h0.7l0.3-1.2h0.5L336,78h0.9l-0.1,0.4h-0.9l-0.7,3c0,0,0,0.1,0,0.2
			c0,0.3,0.2,0.4,0.4,0.4c0.2,0,0.4-0.1,0.5-0.2l0.1,0.4c-0.2,0.1-0.4,0.2-0.6,0.2c-0.5,0-0.9-0.2-0.9-0.7
			C334.7,81.7,334.7,81.6,334.7,81.5z"/>
		<path class="st14" d="M337.1,81.4c0.2,0.4,0.8,0.7,1.4,0.7c0.7,0,1.2-0.4,1.2-0.9c0-0.4-0.5-0.6-1-0.9c-0.6-0.2-1.3-0.5-1.3-1.2
			c0-0.7,0.6-1.3,1.6-1.3c0.7,0,1.3,0.3,1.6,0.7l-0.3,0.3c-0.2-0.3-0.7-0.6-1.3-0.6c-0.7,0-1.1,0.3-1.1,0.8c0,0.4,0.5,0.6,1,0.8
			c0.6,0.3,1.3,0.5,1.3,1.2c0,0.7-0.6,1.4-1.6,1.4c-0.8,0-1.4-0.3-1.7-0.8L337.1,81.4z"/>
		<path class="st14" d="M351.7,76.2c1.1,0,1.9,0.5,2.4,1.3l-0.5,0.2c-0.4-0.7-1.1-1-1.9-1c-1.4,0-2.7,1.2-2.7,3.1
			c0,1.3,0.8,2.2,2.2,2.2c0.6,0,1.2-0.2,1.7-0.7l0.4,0.3c-0.6,0.6-1.4,0.8-2.1,0.8c-1.6,0-2.7-1-2.7-2.6
			C348.4,77.7,350,76.2,351.7,76.2z"/>
		<path class="st14" d="M356.6,77.9c1.2,0,1.9,0.8,1.9,1.9c0,1.4-1,2.7-2.4,2.7c-1.2,0-1.9-0.8-1.9-1.9
			C354.2,79.2,355.3,77.9,356.6,77.9z M356.6,78.3c-1.1,0-1.9,1.1-1.9,2.2c0,0.9,0.5,1.5,1.4,1.5c1.1,0,1.9-1.1,1.9-2.2
			C358,78.9,357.5,78.3,356.6,78.3z"/>
		<path class="st14" d="M362.8,79.4c0-0.1,0.1-0.2,0.1-0.3c0-0.5-0.4-0.8-0.9-0.8c-0.6,0-1.1,0.4-1.5,0.8l-0.7,3.3h-0.5l1-4.3h0.5
			l-0.1,0.7c0.4-0.4,1-0.8,1.6-0.8c0.7,0,1.3,0.4,1.3,1.1c0,0.1,0,0.3-0.1,0.4l-0.7,3h-0.5L362.8,79.4z"/>
		<path class="st14" d="M364.4,81.5l0.7-3.1h-0.7l0.1-0.4h0.7l0.3-1.2h0.5l-0.3,1.2h0.9l-0.1,0.4h-0.9l-0.7,3c0,0,0,0.1,0,0.2
			c0,0.3,0.2,0.4,0.4,0.4c0.2,0,0.4-0.1,0.5-0.2l0.1,0.4c-0.2,0.1-0.4,0.2-0.6,0.2c-0.5,0-0.9-0.2-0.9-0.7
			C364.3,81.7,364.3,81.6,364.4,81.5z"/>
		<path class="st14" d="M370.7,78h0.5l-1,4.3h-0.5l0.2-0.7c-0.4,0.5-0.9,0.8-1.5,0.8c-1,0-1.7-0.7-1.7-1.8c0-1.5,0.9-2.8,2.3-2.8
			c0.7,0,1.3,0.4,1.6,0.8L370.7,78z M368.5,82c0.6,0,1.2-0.4,1.5-0.8l0.5-2.1c-0.2-0.4-0.7-0.8-1.4-0.8c-1.1,0-1.8,1.1-1.8,2.3
			C367.2,81.5,367.8,82,368.5,82z"/>
		<path class="st14" d="M374.3,77.9c0.7,0,1.3,0.3,1.6,0.8l-0.4,0.3c-0.3-0.4-0.7-0.6-1.2-0.6c-1.2,0-1.9,1.1-1.9,2.2
			c0,1,0.6,1.5,1.5,1.5c0.5,0,0.9-0.2,1.2-0.6l0.3,0.3c-0.4,0.4-0.8,0.7-1.5,0.7c-1.1,0-1.9-0.7-1.9-1.9
			C371.9,79.1,372.9,77.9,374.3,77.9z"/>
		<path class="st14" d="M376.4,81.5l0.7-3.1h-0.7l0.1-0.4h0.7l0.3-1.2h0.5l-0.3,1.2h0.9l-0.1,0.4h-0.9l-0.7,3c0,0,0,0.1,0,0.2
			c0,0.3,0.2,0.4,0.4,0.4c0.2,0,0.4-0.1,0.5-0.2l0.1,0.4c-0.2,0.1-0.4,0.2-0.6,0.2c-0.5,0-0.9-0.2-0.9-0.7
			C376.4,81.7,376.4,81.6,376.4,81.5z"/>
	</g>
	<rect x="57.5" y="100" class="st15" width="308" height="100.7"/>
	<path class="st13" d="M219.2,156h-18.7c-6.6,0-12,5.4-12,12v0c0,6.6,5.4,12,12,12h18.7c6.6,0,12-5.4,12-12v0
		C231.2,161.4,225.8,156,219.2,156z"/>
	<path class="st16" d="M292.5,129.3H129.2c-2.4,0-4.3-2-4.3-4.3v0c0-2.4,2-4.3,4.3-4.3h163.3c2.4,0,4.3,1.9,4.3,4.3v0
		C296.8,127.4,294.9,129.3,292.5,129.3z"/>
	<path class="st16" d="M275.8,141h-132c-1.3,0-2.3-1.1-2.3-2.3v0c0-1.3,1-2.3,2.3-2.3h132c1.3,0,2.3,1.1,2.3,2.3v0
		C278.2,140,277.1,141,275.8,141z"/>
	<path class="st16" d="M275.8,149h-132c-1.3,0-2.3-1.1-2.3-2.3v0c0-1.3,1-2.3,2.3-2.3h132c1.3,0,2.3,1.1,2.3,2.3v0
		C278.2,148,277.1,149,275.8,149z"/>
	<rect x="59.5" y="221.7" class="st13" width="97" height="61.3"/>
	<rect x="163.2" y="221.7" class="st13" width="97" height="61.3"/>
	<rect x="266.6" y="221.7" class="st13" width="97" height="61.3"/>
	<rect x="59.6" y="292.3" class="st13" width="97" height="6.7"/>
	<rect x="163.3" y="292.3" class="st13" width="97" height="6.7"/>
	<rect x="266.7" y="292.3" class="st13" width="97" height="6.7"/>
	<rect x="59.8" y="307.7" class="st3" width="97" height="16.7"/>
	<rect x="163.5" y="307.7" class="st3" width="97" height="16.7"/>
	<rect x="266.9" y="307.7" class="st3" width="97" height="16.7"/>
	<g>
		<rect x="57.5" y="365.7" class="st15" width="202.7" height="90"/>
		<rect x="73.5" y="345.7" class="st13" width="272.7" height="9.3"/>
		<rect x="268.5" y="365.7" class="st13" width="97" height="61.3"/>
		<rect x="268.5" y="439" class="st3" width="97" height="16.7"/>
	</g>
</g>
</svg>
