<?xml version="1.0" encoding="utf-8"?>
<!-- Generator: Adobe Illustrator 19.1.0, SVG Export Plug-In . SVG Version: 6.00 Build 0)  -->
<svg version="1.1" id="Layer_1" xmlns="http://www.w3.org/2000/svg" xmlns:xlink="http://www.w3.org/1999/xlink" x="0px" y="0px"
	 viewBox="0 0 226.3 34" style="enable-background:new 0 0 226.3 34;" xml:space="preserve">
<style type="text/css">
	.st0{fill:#FFFFFF;}
	.st1{fill:#353535;}
</style>
<g>
	<path class="st0" d="M0,0h25.3v8.4H10.1v3.9H25v8.4H10.1v12.7H0V0z"/>
	<path class="st0" d="M39.5,8.6c7.1,0,12.6,5.1,12.6,13.6v1.9H35.6c0.5,1.6,2.3,3.1,5.3,3.1c2,0,4.3-0.8,5.5-1.7l3.7,5.6
		c-2.4,2.1-6.7,3-10.3,3c-7.6,0-13.5-4.8-13.5-12.7C26.3,14.3,31.6,8.6,39.5,8.6z M35.5,18.4h8c-0.3-1-1.1-2.9-4-2.9
		C36.7,15.5,35.8,17.3,35.5,18.4z"/>
	<path class="st0" d="M70,20c0-2.5-1.4-3.5-3.5-3.5c-2.1,0-3.1,1-3.9,1.9v14.9h-9V9.2h9V12c1.4-1.6,4.1-3.4,8.3-3.4
		c5.6,0,8.1,3.4,8.1,7.6v17.2h-9V20z"/>
	<path class="st0" d="M94.4,8.6c5.5,0,8.9,2.5,10.3,4.6l-5.8,5.5c-0.8-1.1-2.1-2-4.1-2c-2.5,0-4.8,1.6-4.8,4.7
		c0,3.1,2.2,4.8,4.8,4.8c1.9,0,3.3-1,4.1-2.1l5.8,5.5c-1.4,2-4.8,4.6-10.3,4.6c-7.7,0-13.6-5-13.6-12.7C80.9,13.6,86.8,8.6,94.4,8.6
		z"/>
	<path class="st0" d="M117.7,8.6c7.1,0,12.6,5.1,12.6,13.6v1.9h-16.4c0.5,1.6,2.3,3.1,5.3,3.1c2,0,4.3-0.8,5.5-1.7l3.7,5.6
		c-2.4,2.1-6.7,3-10.3,3c-7.6,0-13.5-4.8-13.5-12.7C104.5,14.3,109.9,8.6,117.7,8.6z M113.8,18.4h8c-0.3-1-1.1-2.9-4-2.9
		C114.9,15.5,114,17.3,113.8,18.4z"/>
	<path class="st1" d="M151.3,14.5L147,33.4h-10.6L126.8,0h11.3l4.3,20.4l5-20.4h7.6l5.1,20.4L164.4,0h11.4l-9.6,33.4h-10.6
		L151.3,14.5z"/>
	<path class="st1" d="M185.6,8.6c7.1,0,12.6,5.1,12.6,13.6v1.9h-16.4c0.5,1.6,2.3,3.1,5.3,3.1c2,0,4.3-0.8,5.5-1.7l3.7,5.6
		c-2.4,2.1-6.7,3-10.3,3c-7.5,0-13.5-4.8-13.5-12.7C172.5,14.3,177.8,8.6,185.6,8.6z M181.7,18.4h8c-0.3-1-1.1-2.9-4-2.9
		C182.9,15.5,182,17.3,181.7,18.4z"/>
	<path class="st1" d="M199.8,0h9v11.8c1.9-2.3,4.4-3.1,6.8-3.1c6,0,10.7,4.7,10.7,12.7c0,8.3-4.8,12.7-10.7,12.7
		c-2.5,0-4.8-0.9-6.8-3.2v2.6h-9V0z M212.6,26c2.5,0,4.5-1.7,4.5-4.8c0-3-2-4.7-4.5-4.7c-1.2,0-2.9,0.6-3.8,1.6v6.2
		C209.7,25.5,211.4,26,212.6,26z"/>
</g>
</svg>
