<?xml version="1.0" encoding="utf-8"?>
<!-- Generator: Adobe Illustrator 19.1.0, SVG Export Plug-In . SVG Version: 6.00 Build 0)  -->
<svg version="1.1" id="Layer_1" xmlns="http://www.w3.org/2000/svg" xmlns:xlink="http://www.w3.org/1999/xlink" x="0px" y="0px"
	 viewBox="0 0 164 170.8" style="enable-background:new 0 0 164 170.8;" xml:space="preserve">
<style type="text/css">
	.st0{opacity:0.9;}
	.st1{fill:#D8D8D8;}
	.st2{fill:none;stroke:#D8D8D8;stroke-width:13;stroke-miterlimit:10;}
	.st3{fill:#3494AA;}
	.st4{fill:none;stroke:#E5E5E5;stroke-width:13;stroke-miterlimit:10;}
	.st5{opacity:0.31;}
	.st6{fill:#AE362D;}
	.st7{fill:#FFFFFF;}
</style>
<g>
	<g class="st0">
		<circle class="st1" cx="82.5" cy="88.5" r="75"/>
		<circle class="st2" cx="82.5" cy="88.5" r="75"/>
	</g>
	<g>
		<circle class="st3" cx="81.5" cy="81.5" r="75"/>
		<circle class="st4" cx="81.5" cy="81.5" r="75"/>
	</g>
</g>
<g>
	<g class="st5">
		<path class="st6" d="M37.1,67.4H71l-2.5,11.3H48.2L47,83.8h19.9l-2.5,11.3H44.5l-3.8,17H27.2L37.1,67.4z"/>
		<path class="st6" d="M100.8,86.7L89.5,112H75.3l-2.9-44.7h14.8l-0.3,27.3l12.8-27.3h10.2l0.7,27.3l11.7-27.3h15.5L115.2,112H101
			L100.8,86.7z"/>
	</g>
	<g>
		<g>
			<path class="st7" d="M36.2,61.1h33.9l-2.5,11.3H47.3l-1.1,5.2H66l-2.5,11.3H43.6l-3.8,17H26.4L36.2,61.1z"/>
			<path class="st7" d="M99.9,80.5l-11.3,25.3H74.4l-2.9-44.7h14.8L86,88.4l12.8-27.3H109l0.7,27.3l11.7-27.3H137l-22.6,44.7h-14.2
				L99.9,80.5z"/>
		</g>
	</g>
</g>
</svg>
