<?xml version="1.0" encoding="utf-8"?>
<!-- Generator: Adobe Illustrator 19.1.0, SVG Export Plug-In . SVG Version: 6.00 Build 0)  -->
<svg version="1.1" xmlns="http://www.w3.org/2000/svg" xmlns:xlink="http://www.w3.org/1999/xlink" x="0px" y="0px"
	 viewBox="0 0 487.9 309.8" style="enable-background:new 0 0 487.9 309.8;" xml:space="preserve">
<style type="text/css">
	.st0{fill:#3494AA;}
	.st1{fill:#282828;}
	.st2{opacity:0.33;}
	.st3{fill:#BA4732;}
	.st4{fill:#FFFFFF;}
	.st5{opacity:0.78;fill:#307C89;}
	.st6{fill:none;stroke:#353535;stroke-width:15.6702;stroke-miterlimit:10;}
	.st7{fill:#9B3D32;}
	.st8{opacity:0.4;}
	.st9{fill:#474647;}
	.st10{fill:#E2E2E2;}
	.st11{fill:#4C4C4D;}
	.st12{fill:#363636;}
	.st13{fill:#EF4438;}
	.st14{fill:#80C342;}
	.st15{fill:#F9ED28;}
	.st16{fill:#E0E0E0;}
	.st17{fill:none;stroke:#EF4438;stroke-width:0.9318;stroke-miterlimit:10;}
	.st18{fill:#231F20;}
	.st19{fill:#59595A;}
	.st20{fill:#333333;}
</style>
<g id="Layer_1">
	<rect x="14.7" y="15" class="st0" width="458.7" height="228.1"/>
	<g id="object">
	</g>
	<rect x="232.8" y="243.1" class="st1" width="21.6" height="63.3"/>
	<path class="st1" d="M284.3,309.8H203c-0.9,0-1.7-0.8-1.7-1.7l0,0c0-0.9,0.8-1.7,1.7-1.7h81.4c0.9,0,1.7,0.8,1.7,1.7l0,0
		C286,309,285.3,309.8,284.3,309.8z"/>
	<g>
		<g class="st2">
			<rect x="15.6" y="19.4" class="st3" width="458.7" height="22.3"/>
		</g>
		<g>
			<rect x="14.7" y="15" class="st4" width="458.7" height="22.3"/>
		</g>
	</g>
	<path class="st5" d="M286.2,231.5l59.2,44.6c5.8-10.6,67.5-9.7,67.6-9.7l70-0.2c0.1,0,7.6,0.1,0,0V159.7c7.6,0,2,1.6,0,0
		l-41.9-93.6c0.4,2.5-0.1,2,0.1,1.8l-154.7-0.3c-0.1,0-0.2,0.1-0.2,0.2V229"/>
	<path class="st6" d="M480.4,272H7.5c0,0,0,0,0,0V7.5c0,0,0,0,0,0h472.9c0,0,0,0,0,0L480.4,272C480.4,272,480.4,272,480.4,272z"/>
	<path class="st7" d="M300.3,108.2"/>
	<g>
		<g class="st8">
			<rect x="42.8" y="60.4" class="st3" width="194" height="175.3"/>
		</g>
		<g>
			<rect x="35.8" y="53.4" class="st4" width="194" height="175.3"/>
		</g>
	</g>
	<rect x="43.3" y="60.2" class="st9" width="178.7" height="39.6"/>
	<rect x="43.5" y="105.3" class="st9" width="53.2" height="39.6"/>
	<rect x="168.8" y="105.3" class="st9" width="53.2" height="39.6"/>
	<rect x="106.2" y="105.3" class="st9" width="53.2" height="39.6"/>
	<rect x="43.5" y="154" class="st9" width="53.2" height="4.4"/>
	<rect x="106.1" y="154" class="st9" width="53.2" height="4.4"/>
	<rect x="168.8" y="154" class="st9" width="53.2" height="4.4"/>
	<g>
		<rect x="43.5" y="161.4" class="st9" width="53.2" height="2.2"/>
		<rect x="43.5" y="166.9" class="st9" width="43.3" height="2.2"/>
		<rect x="89.7" y="166.9" class="st9" width="6.9" height="2.2"/>
		<rect x="43.5" y="173" class="st9" width="33.5" height="2.2"/>
		<rect x="80.8" y="173" class="st9" width="15.9" height="2.2"/>
		<rect x="43.5" y="178.8" class="st9" width="25.5" height="2.2"/>
		<rect x="72.8" y="178.8" class="st9" width="23.9" height="2.2"/>
		<rect x="43.5" y="185" class="st9" width="43.3" height="2.2"/>
		<rect x="89.7" y="185" class="st9" width="6.9" height="2.2"/>
		<rect x="43.5" y="191.6" class="st9" width="33.5" height="2.2"/>
		<rect x="80.8" y="191.6" class="st9" width="15.9" height="2.2"/>
		<rect x="43.5" y="198.1" class="st9" width="25.5" height="2.2"/>
		<rect x="72.8" y="198.1" class="st9" width="23.9" height="2.2"/>
		<rect x="43.5" y="204.8" class="st9" width="43.3" height="2.2"/>
		<rect x="89.7" y="204.8" class="st9" width="6.9" height="2.2"/>
	</g>
	<rect x="43.5" y="211" class="st9" width="178.5" height="11"/>
	<g>
		<rect x="106.2" y="161.3" class="st9" width="53.2" height="2.2"/>
		<rect x="106.2" y="166.8" class="st9" width="43.3" height="2.2"/>
		<rect x="152.5" y="166.8" class="st9" width="6.9" height="2.2"/>
		<rect x="106.2" y="172.9" class="st9" width="33.5" height="2.2"/>
		<rect x="143.5" y="172.9" class="st9" width="15.9" height="2.2"/>
		<rect x="106.2" y="178.7" class="st9" width="25.5" height="2.2"/>
		<rect x="135.5" y="178.7" class="st9" width="23.9" height="2.2"/>
		<rect x="106.2" y="184.9" class="st9" width="43.3" height="2.2"/>
		<rect x="152.5" y="184.9" class="st9" width="6.9" height="2.2"/>
		<rect x="106.2" y="191.5" class="st9" width="33.5" height="2.2"/>
		<rect x="143.5" y="191.5" class="st9" width="15.9" height="2.2"/>
		<rect x="106.2" y="198" class="st9" width="25.5" height="2.2"/>
		<rect x="135.5" y="198" class="st9" width="23.9" height="2.2"/>
		<rect x="106.2" y="204.7" class="st9" width="43.3" height="2.2"/>
		<rect x="152.5" y="204.7" class="st9" width="6.9" height="2.2"/>
	</g>
	<g>
		<rect x="168.8" y="161.3" class="st9" width="53.2" height="2.2"/>
		<rect x="168.8" y="166.8" class="st9" width="43.3" height="2.2"/>
		<rect x="215.1" y="166.8" class="st9" width="6.9" height="2.2"/>
		<rect x="168.8" y="172.9" class="st9" width="33.5" height="2.2"/>
		<rect x="206.1" y="172.9" class="st9" width="15.9" height="2.2"/>
		<rect x="168.8" y="178.7" class="st9" width="25.5" height="2.2"/>
		<rect x="198.1" y="178.7" class="st9" width="23.9" height="2.2"/>
		<rect x="168.8" y="184.9" class="st9" width="43.3" height="2.2"/>
		<rect x="215.1" y="184.9" class="st9" width="6.9" height="2.2"/>
		<rect x="168.8" y="191.5" class="st9" width="33.5" height="2.2"/>
		<rect x="206.1" y="191.5" class="st9" width="15.9" height="2.2"/>
		<rect x="168.8" y="198" class="st9" width="25.5" height="2.2"/>
		<rect x="198.1" y="198" class="st9" width="23.9" height="2.2"/>
		<rect x="168.8" y="204.7" class="st9" width="43.3" height="2.2"/>
		<rect x="215.1" y="204.7" class="st9" width="6.9" height="2.2"/>
	</g>
	<g>
		<rect x="298.6" y="79.8" class="st10" width="129.9" height="8.8"/>
		<g>
			<rect x="300.3" y="216.9" class="st10" width="126.7" height="10"/>
			<rect x="300.3" y="146.2" class="st10" width="126.7" height="10"/>
			<rect x="286.2" y="66.1" class="st4" width="14.1" height="165.4"/>
			<rect x="426.9" y="66.1" class="st4" width="14.3" height="165.4"/>
			<rect x="302.8" y="70.7" class="st4" width="15.5" height="155.2"/>
			<rect x="320.3" y="70.7" class="st4" width="15.5" height="155.2"/>
			<rect x="338.5" y="70.7" class="st4" width="15.5" height="155.2"/>
			<rect x="355.8" y="70.7" class="st4" width="15.5" height="155.2"/>
			<rect x="373.7" y="70.7" class="st4" width="15.5" height="155.2"/>
			<rect x="391.5" y="70.7" class="st4" width="15.5" height="155.2"/>
			<rect x="409.3" y="70.7" class="st4" width="15.5" height="155.2"/>
			<polygon class="st10" points="302.8,70.7 304.7,66.4 316.4,66.4 318.3,70.7 			"/>
			<polygon class="st10" points="320.3,70.7 322.2,66.4 333.9,66.4 335.8,70.7 			"/>
			<polygon class="st10" points="338.5,70.7 340.4,66.4 352.1,66.4 354,70.7 			"/>
			<polygon class="st10" points="355.8,70.7 357.7,66.4 369.5,66.4 371.3,70.7 			"/>
			<polygon class="st10" points="373.7,70.7 375.6,66.4 387.3,66.4 389.2,70.7 			"/>
			<polygon class="st10" points="391.5,70.7 393.4,66.4 405.1,66.4 407,70.7 			"/>
			<polygon class="st10" points="409.3,70.7 411.2,66.4 422.9,66.4 424.8,70.7 			"/>
			<circle class="st11" cx="310.5" cy="83.8" r="1.7"/>
			<circle class="st11" cx="328" cy="83.8" r="1.7"/>
			<circle class="st11" cx="346.2" cy="83.8" r="1.7"/>
			<circle class="st11" cx="363.6" cy="83.8" r="1.7"/>
			<circle class="st11" cx="381.4" cy="83.8" r="1.7"/>
			<circle class="st11" cx="399.2" cy="84.2" r="1.7"/>
			<circle class="st11" cx="417" cy="84.2" r="1.7"/>
			<circle class="st11" cx="310.3" cy="221.7" r="1.7"/>
			<circle class="st11" cx="327.8" cy="221.7" r="1.7"/>
			<circle class="st11" cx="346" cy="221.7" r="1.7"/>
			<circle class="st11" cx="363.4" cy="221.7" r="1.7"/>
			<circle class="st11" cx="381.2" cy="221.7" r="1.7"/>
			<circle class="st11" cx="399" cy="222.1" r="1.7"/>
			<circle class="st11" cx="416.8" cy="222.1" r="1.7"/>
			<circle class="st11" cx="309.7" cy="151" r="1.7"/>
			<circle class="st11" cx="327.2" cy="151" r="1.7"/>
			<circle class="st11" cx="345.4" cy="151" r="1.7"/>
			<circle class="st11" cx="362.8" cy="151" r="1.7"/>
			<circle class="st11" cx="380.6" cy="151" r="1.7"/>
			<circle class="st11" cx="398.4" cy="151.4" r="1.7"/>
			<circle class="st11" cx="416.3" cy="151.4" r="1.7"/>
		</g>
	</g>
	<rect x="14.7" y="243.1" class="st12" width="458.7" height="22.7"/>
	<circle class="st13" cx="466" cy="20.5" r="3.1"/>
	<circle class="st14" cx="446.2" cy="20.5" r="3.1"/>
	<circle class="st15" cx="456.3" cy="20.5" r="3.1"/>
	<path class="st16" d="M434.6,30.4H63.6c-0.8,0-1.4-0.6-1.4-1.4v-6c0-0.8,0.6-1.4,1.4-1.4h371.1c0.8,0,1.4,0.6,1.4,1.4v6
		C436,29.8,435.4,30.4,434.6,30.4z"/>
	<g>
		<polygon class="st13" points="55.3,24.7 52.1,24.7 55.3,21.6 58.5,24.7 		"/>
		<rect x="52.8" y="24.7" class="st13" width="5.1" height="4.5"/>
		<rect x="54.5" y="26.6" class="st4" width="1.6" height="3.5"/>
		<rect x="56.8" y="21.7" class="st13" width="0.3" height="1.1"/>
	</g>
	<circle class="st17" cx="44.6" cy="25.7" r="3.6"/>
	<rect x="46" y="24" class="st4" width="4.5" height="3.3"/>
	<polygon class="st17" points="48.3,23.1 48.4,24.6 46.9,24.5 	"/>
	<rect x="29.8" y="25.4" class="st13" width="5.6" height="1.3"/>
	<path class="st13" d="M35.1,25.2L34,23.5l3.9,2.5c0.1,0.1,0.1,0.2,0,0.2l-3.5,2.3l0.9-1.9"/>
	<rect x="21.7" y="25.4" class="st13" width="4.9" height="1.3"/>
	<path class="st13" d="M21.9,26.9l1.1,1.7l-3.9-2.5c-0.1-0.1-0.1-0.2,0-0.2l3.5-2.3l-0.9,1.9"/>
	<g>
		<path class="st18" d="M68.3,26.6l0.5-1.6h0.8l-1.1,2.6h-0.7l-0.2-1.6l-0.7,1.6h-0.7l-0.1-2.6H67l0,1.6l0.7-1.6h0.6L68.3,26.6z"/>
		<path class="st18" d="M71.9,26.6l0.5-1.6h0.8l-1.1,2.6h-0.7l-0.2-1.6l-0.7,1.6h-0.7l-0.1-2.6h0.8l0,1.6l0.7-1.6h0.6L71.9,26.6z"/>
		<path class="st18" d="M75.4,26.6l0.5-1.6h0.8l-1.1,2.6H75l-0.2-1.6l-0.7,1.6h-0.7l-0.1-2.6h0.8l0,1.6l0.7-1.6h0.6L75.4,26.6z"/>
		<path class="st18" d="M76.4,27.4c0-0.1,0-0.2,0.1-0.3s0.2-0.1,0.3-0.1c0.1,0,0.2,0,0.3,0.1c0.1,0.1,0.1,0.2,0.1,0.3
			c0,0.1,0,0.2-0.1,0.3c-0.1,0.1-0.2,0.1-0.3,0.1c-0.1,0-0.2,0-0.3-0.1S76.4,27.5,76.4,27.4z"/>
		<path class="st18" d="M77.9,27.7l0.4-2.1h-0.4l0.1-0.6l0.4,0l0-0.2c0-0.3,0.2-0.5,0.3-0.7c0.2-0.2,0.5-0.3,0.8-0.3
			c0.1,0,0.2,0,0.4,0.1l-0.1,0.6c-0.1,0-0.1,0-0.2,0c-0.1,0-0.2,0-0.3,0.1c-0.1,0.1-0.1,0.1-0.1,0.2l0,0.2h0.5l-0.1,0.6h-0.5
			l-0.4,2.1H77.9z"/>
		<path class="st18" d="M80.8,27.8c-0.2,0-0.4-0.1-0.6-0.2c-0.2-0.1-0.3-0.3-0.4-0.5c-0.1-0.2-0.1-0.4-0.1-0.6l0-0.1
			c0-0.4,0.2-0.8,0.5-1c0.3-0.3,0.6-0.4,0.9-0.4c0.2,0,0.4,0.1,0.6,0.2s0.3,0.3,0.4,0.5c0.1,0.2,0.1,0.4,0.1,0.7l0,0.3h-1.6
			c0,0.1,0,0.3,0.1,0.3s0.2,0.1,0.3,0.1c0.2,0,0.4-0.1,0.6-0.3l0.3,0.4c-0.1,0.1-0.2,0.3-0.4,0.3C81.2,27.7,81,27.8,80.8,27.8
			L80.8,27.8z M81,25.7c-0.1,0-0.2,0-0.3,0.1c-0.1,0.1-0.2,0.2-0.2,0.4h0.8l0-0.1c0-0.1,0-0.1,0-0.2C81.3,25.8,81.2,25.7,81,25.7z"
			/>
		<path class="st18" d="M83.3,25.1l-0.1,0.3c0.2-0.3,0.5-0.4,0.8-0.4c0.2,0,0.4,0.1,0.5,0.3c0.1,0.2,0.2,0.4,0.1,0.8l-0.3,1.7h-0.8
			l0.3-1.7c0-0.1,0-0.1,0-0.2c0-0.2-0.1-0.2-0.3-0.2c-0.1,0-0.3,0.1-0.4,0.2l-0.3,1.9h-0.8l0.5-2.6L83.3,25.1z"/>
		<path class="st18" d="M86.1,27.1c0.1,0,0.2,0,0.3-0.1c0.1-0.1,0.1-0.2,0.1-0.3l0.8,0c0,0.2-0.1,0.4-0.2,0.5
			c-0.1,0.2-0.2,0.3-0.4,0.4c-0.2,0.1-0.4,0.1-0.6,0.1c-0.4,0-0.6-0.1-0.8-0.4c-0.2-0.2-0.3-0.6-0.2-1l0-0.1c0-0.3,0.1-0.5,0.2-0.7
			c0.1-0.2,0.3-0.4,0.5-0.5c0.2-0.1,0.4-0.2,0.7-0.2c0.3,0,0.6,0.1,0.7,0.3c0.2,0.2,0.3,0.4,0.3,0.8l-0.8,0c0-0.3-0.1-0.4-0.3-0.4
			c-0.3,0-0.4,0.2-0.5,0.7l0,0.2l0,0.1C85.8,27,85.9,27.1,86.1,27.1z"/>
		<path class="st18" d="M88.8,27.8c-0.2,0-0.4-0.1-0.6-0.2c-0.2-0.1-0.3-0.3-0.4-0.5c-0.1-0.2-0.1-0.4-0.1-0.6l0-0.1
			c0-0.4,0.2-0.8,0.5-1c0.3-0.3,0.6-0.4,0.9-0.4c0.2,0,0.4,0.1,0.6,0.2s0.3,0.3,0.4,0.5c0.1,0.2,0.1,0.4,0.1,0.7l0,0.3h-1.6
			c0,0.1,0,0.3,0.1,0.3s0.2,0.1,0.3,0.1c0.2,0,0.4-0.1,0.6-0.3l0.3,0.4c-0.1,0.1-0.2,0.3-0.4,0.3C89.2,27.7,89,27.8,88.8,27.8
			L88.8,27.8z M89,25.7c-0.1,0-0.2,0-0.3,0.1c-0.1,0.1-0.2,0.2-0.2,0.4h0.8l0-0.1c0-0.1,0-0.1,0-0.2C89.2,25.8,89.1,25.7,89,25.7z"
			/>
		<path class="st18" d="M91.3,27.1c0.1,0,0.2,0,0.3-0.1c0.1-0.1,0.1-0.2,0.1-0.3l0.8,0c0,0.2-0.1,0.4-0.2,0.5
			c-0.1,0.2-0.2,0.3-0.4,0.4c-0.2,0.1-0.4,0.1-0.6,0.1c-0.4,0-0.6-0.1-0.8-0.4c-0.2-0.2-0.3-0.6-0.2-1l0-0.1c0-0.3,0.1-0.5,0.2-0.7
			c0.1-0.2,0.3-0.4,0.5-0.5c0.2-0.1,0.4-0.2,0.7-0.2c0.3,0,0.6,0.1,0.7,0.3c0.2,0.2,0.3,0.4,0.3,0.8l-0.8,0c0-0.3-0.1-0.4-0.3-0.4
			c-0.3,0-0.4,0.2-0.5,0.7l0,0.2l0,0.1C91.1,27,91.1,27.1,91.3,27.1z"/>
		<path class="st18" d="M94.2,25c0.2,0,0.4,0.1,0.6,0.2c0.2,0.1,0.3,0.3,0.4,0.5c0.1,0.2,0.1,0.4,0.1,0.7l0,0.1c0,0.4-0.2,0.7-0.5,1
			s-0.6,0.4-0.9,0.4c-0.2,0-0.4-0.1-0.6-0.2c-0.2-0.1-0.3-0.3-0.4-0.5c-0.1-0.2-0.1-0.4-0.1-0.7c0-0.4,0.2-0.8,0.4-1
			C93.5,25.2,93.8,25,94.2,25z M93.6,26.5l0,0.1c0,0.4,0.1,0.5,0.3,0.6c0.3,0,0.5-0.2,0.5-0.8l0-0.2c0-0.1,0-0.3-0.1-0.3
			c-0.1-0.1-0.1-0.1-0.3-0.1c-0.1,0-0.3,0.1-0.4,0.2C93.7,26,93.6,26.2,93.6,26.5z"/>
		<path class="st18" d="M96.6,25.1l-0.1,0.3c0.2-0.2,0.5-0.4,0.8-0.4c0.2,0,0.3,0,0.4,0.1s0.2,0.2,0.2,0.3c0.2-0.3,0.5-0.4,0.8-0.4
			c0.2,0,0.4,0.1,0.5,0.3c0.1,0.2,0.2,0.4,0.1,0.8l-0.3,1.7h-0.8l0.3-1.7l0-0.1c0-0.2-0.1-0.2-0.2-0.2c-0.1,0-0.3,0.1-0.4,0.2
			l-0.3,1.8h-0.8l0.3-1.7l0-0.1c0-0.2-0.1-0.3-0.2-0.3c-0.1,0-0.3,0.1-0.4,0.2l-0.3,1.8h-0.8l0.5-2.6L96.6,25.1z"/>
		<path class="st18" d="M102.2,26.4c0,0.3-0.1,0.5-0.2,0.7c-0.1,0.2-0.2,0.4-0.4,0.5c-0.2,0.1-0.3,0.2-0.5,0.1
			c-0.2,0-0.4-0.1-0.6-0.3l-0.2,1.2h-0.8l0.6-3.7l0.7,0l0,0.3c0.2-0.2,0.4-0.3,0.6-0.3c0.3,0,0.5,0.1,0.6,0.3
			c0.1,0.2,0.2,0.4,0.2,0.7C102.2,26.2,102.2,26.3,102.2,26.4z M101.4,26.1c0-0.3-0.1-0.4-0.3-0.4c-0.2,0-0.3,0.1-0.4,0.2l-0.2,1
			c0.1,0.1,0.2,0.2,0.3,0.2c0.3,0,0.5-0.2,0.5-0.7C101.4,26.3,101.4,26.1,101.4,26.1z"/>
		<path class="st18" d="M103.8,27.7c0-0.1,0-0.1,0-0.2c-0.2,0.2-0.4,0.3-0.6,0.3c-0.2,0-0.4-0.1-0.6-0.2s-0.2-0.3-0.2-0.5
			c0-0.3,0.1-0.5,0.4-0.7c0.2-0.2,0.5-0.2,0.9-0.2l0.3,0l0-0.1l0-0.1c0-0.1-0.1-0.2-0.2-0.2c-0.2,0-0.3,0.1-0.3,0.3l-0.8,0
			c0-0.2,0.1-0.3,0.2-0.5c0.1-0.1,0.3-0.2,0.4-0.3c0.2-0.1,0.4-0.1,0.6-0.1c0.2,0,0.4,0,0.5,0.1c0.2,0.1,0.3,0.2,0.3,0.3
			c0.1,0.1,0.1,0.3,0.1,0.5l-0.2,1.2l0,0.2c0,0.1,0,0.2,0,0.3l0,0H103.8z M103.4,27.2c0.2,0,0.3-0.1,0.4-0.2l0.1-0.4l-0.2,0
			c-0.1,0-0.2,0-0.3,0.1c-0.1,0.1-0.1,0.2-0.2,0.3c0,0.1,0,0.1,0,0.2C103.3,27.2,103.3,27.2,103.4,27.2z"/>
		<path class="st18" d="M106.1,25.1l-0.1,0.3c0.2-0.3,0.5-0.4,0.8-0.4c0.2,0,0.4,0.1,0.5,0.3c0.1,0.2,0.2,0.4,0.1,0.8l-0.3,1.7h-0.8
			l0.3-1.7c0-0.1,0-0.1,0-0.2c0-0.2-0.1-0.2-0.3-0.2c-0.1,0-0.3,0.1-0.4,0.2l-0.3,1.9h-0.8l0.5-2.6L106.1,25.1z"/>
		<path class="st18" d="M108.9,26.6l0.7-1.5h0.9l-1.5,3c-0.1,0.2-0.2,0.4-0.4,0.5c-0.2,0.1-0.3,0.2-0.5,0.2c-0.1,0-0.2,0-0.4-0.1
			l0.1-0.6h0.1c0.1,0,0.2,0,0.3,0c0.1,0,0.1-0.1,0.2-0.2l0.1-0.2l-0.4-2.6h0.8L108.9,26.6z"/>
		<path class="st18" d="M110,27.4c0-0.1,0-0.2,0.1-0.3s0.2-0.1,0.3-0.1c0.1,0,0.2,0,0.3,0.1c0.1,0.1,0.1,0.2,0.1,0.3
			c0,0.1,0,0.2-0.1,0.3c-0.1,0.1-0.2,0.1-0.3,0.1c-0.1,0-0.2,0-0.3-0.1S110,27.5,110,27.4z"/>
		<path class="st18" d="M112.6,27.1c0.1,0,0.2,0,0.3-0.1c0.1-0.1,0.1-0.2,0.1-0.3l0.8,0c0,0.2-0.1,0.4-0.2,0.5
			c-0.1,0.2-0.2,0.3-0.4,0.4c-0.2,0.1-0.4,0.1-0.6,0.1c-0.4,0-0.6-0.1-0.8-0.4c-0.2-0.2-0.3-0.6-0.2-1l0-0.1c0-0.3,0.1-0.5,0.2-0.7
			c0.1-0.2,0.3-0.4,0.5-0.5c0.2-0.1,0.4-0.2,0.7-0.2c0.3,0,0.6,0.1,0.7,0.3c0.2,0.2,0.3,0.4,0.3,0.8l-0.8,0c0-0.3-0.1-0.4-0.3-0.4
			c-0.3,0-0.4,0.2-0.5,0.7l0,0.2l0,0.1C112.3,27,112.4,27.1,112.6,27.1z"/>
		<path class="st18" d="M115.4,25c0.2,0,0.4,0.1,0.6,0.2c0.2,0.1,0.3,0.3,0.4,0.5c0.1,0.2,0.1,0.4,0.1,0.7l0,0.1
			c0,0.4-0.2,0.7-0.5,1s-0.6,0.4-0.9,0.4c-0.2,0-0.4-0.1-0.6-0.2c-0.2-0.1-0.3-0.3-0.4-0.5c-0.1-0.2-0.1-0.4-0.1-0.7
			c0-0.4,0.2-0.8,0.4-1C114.7,25.2,115,25,115.4,25z M114.8,26.5l0,0.1c0,0.4,0.1,0.5,0.3,0.6c0.3,0,0.5-0.2,0.5-0.8l0-0.2
			c0-0.1,0-0.3-0.1-0.3c-0.1-0.1-0.1-0.1-0.3-0.1c-0.1,0-0.3,0.1-0.4,0.2C114.9,26,114.8,26.2,114.8,26.5z"/>
		<path class="st18" d="M117.8,25.1l-0.1,0.3c0.2-0.2,0.5-0.4,0.8-0.4c0.2,0,0.3,0,0.4,0.1s0.2,0.2,0.2,0.3c0.2-0.3,0.5-0.4,0.8-0.4
			c0.2,0,0.4,0.1,0.5,0.3c0.1,0.2,0.2,0.4,0.1,0.8l-0.3,1.7h-0.8l0.3-1.7l0-0.1c0-0.2-0.1-0.2-0.2-0.2c-0.1,0-0.3,0.1-0.4,0.2
			l-0.3,1.8h-0.8l0.3-1.7l0-0.1c0-0.2-0.1-0.3-0.2-0.3c-0.1,0-0.3,0.1-0.4,0.2l-0.3,1.8h-0.8l0.5-2.6L117.8,25.1z"/>
	</g>
	<path class="st13" d="M469,264.1h-12.9c-1.8,0-3.3-1.5-3.3-3.3l0,0c0-1.8,1.5-3.3,3.3-3.3H469c1.8,0,3.3,1.5,3.3,3.3l0,0
		C472.4,262.6,470.9,264.1,469,264.1z"/>
</g>
<g id="object_1_">
	<path class="st9" d="M260.9,104.7c0.4,1.4,1,2.8,1.7,4.1l-2.1,2.6c-0.7,0.9-0.6,2.1,0.2,2.9l3.6,3.6c0.8,0.8,2,0.8,2.9,0.2l2.6-2.1
		c1.3,0.8,2.8,1.4,4.3,1.8l0.4,3.4c0.1,1.1,1,1.9,2.1,1.9h5.1c1.1,0,2-0.8,2.1-1.9l0.4-3.2c1.6-0.4,3.1-1,4.6-1.8l2.5,2
		c0.9,0.7,2.1,0.6,2.9-0.2l3.6-3.6c0.8-0.8,0.8-2,0.2-2.9l-2-2.5c0.8-1.4,1.5-2.9,1.9-4.5l3-0.3c1.1-0.1,1.9-1,1.9-2.1v-5.1
		c0-1.1-0.8-2-1.9-2.1l-3-0.3c-0.4-1.6-1-3-1.8-4.4l1.8-2.3c0.7-0.9,0.6-2.1-0.2-2.9l-3.6-3.6c-0.8-0.8-2-0.8-2.9-0.2l-2.3,1.8
		c-1.5-0.9-3-1.5-4.7-2L284,78c-0.1-1.1-1-1.9-2.1-1.9h-5.1c-1.1,0-2,0.8-2.1,1.9l-0.3,2.9c-1.7,0.5-3.3,1.1-4.8,2l-2.3-1.9
		c-0.9-0.7-2.1-0.6-2.9,0.2l-3.6,3.6c-0.8,0.8-0.8,2-0.2,2.9l2,2.5c-0.8,1.4-1.4,2.9-1.8,4.5l-3.1,0.4c-1.1,0.1-1.9,1-1.9,2.1v5.1
		c0,1.1,0.8,2,1.9,2.1L260.9,104.7z M279.3,91c4.6,0,8.4,3.8,8.4,8.4c0,4.6-3.8,8.4-8.4,8.4c-4.6,0-8.4-3.8-8.4-8.4
		C270.9,94.7,274.7,91,279.3,91z"/>
	<path class="st19" d="M262.1,74.3c0.4,0.3,0.8,0.5,1.3,0.6l0.1,1.1c0,0.4,0.3,0.6,0.7,0.7l1.6,0.1c0.4,0,0.7-0.2,0.7-0.6l0.2-1.1
		c0.5-0.1,1-0.3,1.4-0.5l0.8,0.7c0.3,0.2,0.7,0.2,0.9,0l1.2-1.1c0.3-0.2,0.3-0.6,0.1-0.9l-0.6-0.9c0.3-0.4,0.5-0.9,0.7-1.4l1-0.1
		c0.4,0,0.6-0.3,0.7-0.7l0.1-1.6c0-0.4-0.2-0.7-0.6-0.7l-1-0.2c-0.1-0.5-0.3-1-0.5-1.5l0.7-0.7c0.2-0.3,0.2-0.7,0-0.9l-1.1-1.2
		c-0.2-0.3-0.6-0.3-0.9-0.1l-0.8,0.6c-0.4-0.3-0.9-0.5-1.4-0.7l-0.1-1c0-0.4-0.3-0.6-0.7-0.7l-1.6-0.1c-0.4,0-0.7,0.2-0.7,0.6
		l-0.2,0.9c-0.5,0.1-1.1,0.3-1.6,0.5l-0.7-0.6c-0.3-0.2-0.7-0.2-0.9,0l-1.2,1.1c-0.3,0.2-0.3,0.6-0.1,0.9l0.6,0.8
		c-0.3,0.5-0.6,1-0.7,1.5l-1,0.1c-0.4,0-0.6,0.3-0.7,0.7l-0.1,1.6c0,0.4,0.2,0.7,0.6,0.7l1,0.2c0.1,0.5,0.3,1,0.5,1.5l-0.7,0.8
		c-0.2,0.3-0.2,0.7,0,0.9l1.1,1.2c0.2,0.3,0.6,0.3,0.9,0.1L262.1,74.3z M263.6,67c1.1-1,2.9-0.9,3.9,0.2c1,1.1,0.9,2.9-0.2,3.9
		c-1.1,1-2.9,0.9-3.9-0.2C262.4,69.7,262.5,68,263.6,67z"/>
	<path class="st20" d="M278.4,66.7c0.6,0.4,1.2,0.6,1.8,0.9l0.1,1.5c0,0.5,0.4,0.9,0.9,0.9l2.3,0.1c0.5,0,0.9-0.3,1-0.8l0.3-1.5
		c0.7-0.1,1.3-0.4,2-0.7l1.1,1c0.4,0.3,0.9,0.3,1.3,0l1.7-1.5c0.4-0.3,0.4-0.9,0.1-1.3l-0.8-1.2c0.4-0.6,0.7-1.3,1-2l1.4-0.1
		c0.5,0,0.9-0.4,0.9-0.9l0.1-2.3c0-0.5-0.3-0.9-0.8-1l-1.4-0.2c-0.1-0.7-0.4-1.4-0.7-2.1l0.9-1c0.3-0.4,0.3-0.9,0-1.3l-1.5-1.7
		c-0.3-0.4-0.9-0.4-1.3-0.1l-1.1,0.8c-0.6-0.4-1.2-0.7-1.9-0.9l-0.1-1.3c0-0.5-0.4-0.9-0.9-0.9l-2.3-0.1c-0.5,0-0.9,0.3-1,0.8
		l-0.2,1.3c-0.7,0.2-1.5,0.4-2.1,0.7l-1-0.9c-0.4-0.3-0.9-0.3-1.3,0l-1.7,1.5c-0.4,0.3-0.4,0.9-0.1,1.3l0.8,1.1
		c-0.4,0.7-0.8,1.4-1,2.1l-1.3,0.1c-0.5,0-0.9,0.4-0.9,0.9l-0.1,2.3c0,0.5,0.3,0.9,0.8,1l1.4,0.2c0.2,0.7,0.4,1.4,0.7,2l-0.9,1.1
		c-0.3,0.4-0.3,0.9,0,1.3l1.5,1.7c0.3,0.4,0.9,0.4,1.3,0.1L278.4,66.7z M280.5,56.6c1.5-1.4,3.9-1.2,5.3,0.3
		c1.4,1.5,1.2,3.9-0.3,5.3c-1.5,1.4-3.9,1.2-5.3-0.3C278.8,60.4,278.9,58,280.5,56.6z"/>
</g>
</svg>
