<?xml version="1.0" encoding="utf-8"?>
<!-- Generator: Adobe Illustrator 19.1.0, SVG Export Plug-In . SVG Version: 6.00 Build 0)  -->
<svg version="1.1" xmlns="http://www.w3.org/2000/svg" xmlns:xlink="http://www.w3.org/1999/xlink" x="0px" y="0px"
	 viewBox="0 0 489.5 530.9" style="enable-background:new 0 0 489.5 530.9;" xml:space="preserve">
<style type="text/css">
	.st0{fill:#E6E7E8;}
	.st1{fill:#E3E4E6;}
	.st2{font-family:'Bebas';}
	.st3{font-size:91.9121px;}
	.st4{fill:#DEDFE0;}
	.st5{fill:#9F0023;}
	.st6{fill:#D44434;}
	.st7{fill:#DADBDC;}
	.st8{opacity:0.1;fill:#231F20;}
	.st9{fill:#231F20;}
	.st10{fill:#F5F6F7;}
	.st11{opacity:0.1;}
	.st12{fill:#004F5C;}
	.st13{opacity:0.1;fill:#363636;}
	.st14{fill:#443E3F;}
	.st15{fill:#363636;}
	.st16{fill-rule:evenodd;clip-rule:evenodd;fill:#D44434;}
	.st17{fill:#FFFFFF;}
	.st18{fill:#018390;}
	.st19{fill:#184E5F;}
	.st20{fill:#1D1F1F;}
	.st21{fill:#630042;}
	.st22{font-family:'MyriadPro-Regular';}
	.st23{font-size:22.7457px;}
	.st24{fill:#EB541F;}
	.st25{fill:#236C82;}
	.st26{fill:#055D66;}
	.st27{fill:#13414F;}
	.st28{fill:#524B4C;}
	.st29{fill:#A0A2A4;}
	.st30{opacity:0.4;fill:#FFFFFF;}
	.st31{opacity:0.2;fill:#FFFFFF;}
</style>
<g id="background">
</g>
<g id="objects">
	<g>
		<g>
			<ellipse class="st0" cx="260.9" cy="522.8" rx="196.6" ry="8.1"/>
			<g>
				<text transform="matrix(0.9845 -0.1756 0.1756 0.9845 241.3201 87.6317)" class="st1 st2 st3">@</text>
				<path class="st4" d="M354,34.4c43.7-4.3,82.4,25.6,86.6,67c1.6,16.3-2.4,32-10.6,45.2c-0.4,0.6-0.8,1.2-1.2,1.8l9.3,44.5
					l-27.1-25.4c-11.7,9-26.2,15-42.2,16.6c-43.7,4.3-82.4-25.6-86.6-67C278.3,75.8,310.3,38.8,354,34.4z"/>
				<path class="st5" d="M475.5,140.9l0.2-1.8l-2.2-0.2c0-0.3,0-0.7-0.1-1l2.2-0.6l-0.5-1.7l-2.2,0.6c-0.1-0.3-0.3-0.6-0.5-0.9
					l1.8-1.4l-1.1-1.4l-1.8,1.4c-0.2-0.2-0.5-0.5-0.8-0.7l1.1-1.9l-1.6-0.9l-1.1,1.9c-0.5-0.2-1-0.4-1.5-0.5l0.3-2.2l-1.8-0.3
					l-0.4,2.3c-0.5,0-1,0.1-1.5,0.2l-0.8-2.1l-1.7,0.7l0.8,2.1c-0.3,0.2-0.6,0.4-0.9,0.6l-1.6-1.6l-1.3,1.2l1.6,1.6
					c-0.2,0.3-0.4,0.5-0.6,0.8l-2-0.9l-0.7,1.6l2,0.9c-0.1,0.3-0.2,0.7-0.2,1l-2.2-0.1l-0.1,1.8l2.2,0.1c0,0.3,0.1,0.7,0.2,1
					l-2.1,0.8l0.6,1.7l2.1-0.8c0.2,0.3,0.3,0.6,0.5,0.9l-1.7,1.5l1.2,1.3l1.7-1.5c0.3,0.2,0.5,0.4,0.8,0.6l-1,2l1.6,0.8l1-2
					c0.3,0.1,0.7,0.2,1,0.3l-0.2,2.2l1.8,0.1l0.2-2.2c0.3,0,0.7-0.1,1-0.1l0.7,2.1l1.7-0.6l-0.7-2.1c0.3-0.1,0.6-0.3,0.9-0.5
					l1.4,1.7l1.4-1.2l-1.4-1.7c0.2-0.3,0.5-0.5,0.6-0.8l2,1.1l0.8-1.6l-2-1.1c0.1-0.3,0.2-0.6,0.3-1L475.5,140.9z M466.1,142.6
					c-2,0-3.6-1.6-3.6-3.6c0-2,1.6-3.6,3.6-3.6c2,0,3.6,1.6,3.6,3.6C469.7,140.9,468.1,142.6,466.1,142.6z"/>
				<path class="st0" d="M250.7,155.5l0.9-8.5l-10.6-1.1c0-1.7-0.2-3.3-0.4-4.9l10.2-2.9l-2.3-8.2l-10.2,2.9c-0.6-1.5-1.4-3-2.2-4.4
					l8.4-6.5l-5.3-6.7l-8.4,6.6c-1.2-1.2-2.4-2.2-3.7-3.2l5.3-9.2L225,105l-5.3,9.2c-2.2-1-4.6-1.7-7-2.1l1.6-10.2l-8.4-1.3l-1.7,11
					c-2.5,0.1-4.9,0.5-7.2,1.1l-4-9.9L185,106l4,9.9c-1.4,0.8-2.8,1.7-4.1,2.7l-7.4-7.7l-6.1,5.9l7.4,7.7c-1,1.3-2,2.6-2.8,4
					l-9.7-4.3l-3.5,7.8l9.7,4.3c-0.5,1.5-0.8,3.1-1.1,4.8l-10.6-0.4l-0.3,8.5l10.6,0.4c0.1,1.6,0.4,3.3,0.8,4.8l-10,3.6l2.9,8
					l10-3.6c0.7,1.5,1.6,2.9,2.5,4.2l-7.9,7.1l5.7,6.3l7.9-7.1c1.2,1.1,2.5,2.1,3.9,2.9l-4.7,9.6l7.7,3.7l4.7-9.6
					c1.5,0.5,3.1,1,4.7,1.3l-0.7,10.6l8.5,0.6l0.7-10.6c1.7-0.1,3.3-0.3,4.9-0.6L216,191l8.1-2.6l-3.3-10.1c1.5-0.7,2.9-1.5,4.3-2.4
					l6.8,8.2l6.5-5.5l-6.8-8.2c1.1-1.2,2.1-2.5,3.1-3.8l9.4,5l4-7.5l-9.4-5c0.6-1.5,1.1-3.1,1.4-4.7L250.7,155.5z M206,163.5
					c-9.5,0-17.2-7.7-17.2-17.2c0-9.5,7.7-17.2,17.2-17.2c9.5,0,17.2,7.7,17.2,17.2C223.2,155.8,215.5,163.5,206,163.5z"/>
				<path class="st1" d="M310,273.3l0.3-3.1l-3.8-0.4c0-0.6-0.1-1.2-0.2-1.8l3.7-1.1l-0.9-3l-3.7,1.1c-0.2-0.5-0.5-1.1-0.8-1.6
					l3-2.4l-1.9-2.4l-3,2.4c-0.4-0.4-0.9-0.8-1.3-1.2l1.9-3.3l-2.7-1.5l-1.9,3.3c-0.8-0.3-1.7-0.6-2.6-0.8l0.6-3.7l-3.1-0.5l-0.6,4
					c-0.9,0-1.8,0.2-2.6,0.4l-1.4-3.6l-2.9,1.2l1.4,3.6c-0.5,0.3-1,0.6-1.5,1l-2.7-2.8l-2.2,2.1l2.7,2.8c-0.4,0.5-0.7,0.9-1,1.5
					l-3.5-1.6l-1.3,2.8l3.5,1.6c-0.2,0.6-0.3,1.1-0.4,1.7l-3.9-0.1l-0.1,3.1l3.9,0.1c0.1,0.6,0.1,1.2,0.3,1.8l-3.6,1.3l1.1,2.9
					l3.6-1.3c0.3,0.5,0.6,1,0.9,1.5l-2.9,2.6l2.1,2.3l2.9-2.6c0.4,0.4,0.9,0.7,1.4,1.1l-1.7,3.5l2.8,1.4l1.7-3.5
					c0.6,0.2,1.1,0.3,1.7,0.5l-0.3,3.8l3.1,0.2l0.3-3.8c0.6,0,1.2-0.1,1.8-0.2l1.2,3.7l2.9-1l-1.2-3.7c0.5-0.3,1.1-0.5,1.6-0.9
					l2.5,3l2.4-2l-2.5-3c0.4-0.4,0.8-0.9,1.1-1.4l3.4,1.8l1.5-2.7l-3.4-1.8c0.2-0.5,0.4-1.1,0.5-1.7L310,273.3z M293.8,276.2
					c-3.4,0-6.2-2.8-6.2-6.2c0-3.4,2.8-6.2,6.2-6.2c3.4,0,6.2,2.8,6.2,6.2C300,273.4,297.3,276.2,293.8,276.2z"/>
				<path class="st6" d="M367.3,39.1l0.5-4.3l-5.4-0.6c0-0.8-0.1-1.7-0.2-2.5l5.2-1.5l-1.2-4.2l-5.2,1.5c-0.3-0.8-0.7-1.5-1.1-2.2
					l4.3-3.3l-2.7-3.4l-4.2,3.3c-0.6-0.6-1.2-1.1-1.9-1.6l2.7-4.7l-3.7-2.2l-2.7,4.7c-1.1-0.5-2.3-0.8-3.6-1.1l0.8-5.2l-4.3-0.7
					l-0.9,5.6c-1.3,0.1-2.5,0.3-3.6,0.6l-2-5l-4,1.6l2,5c-0.7,0.4-1.4,0.9-2.1,1.4l-3.8-3.9l-3.1,3l3.7,3.9c-0.5,0.6-1,1.3-1.4,2
					l-4.9-2.2l-1.8,3.9l4.9,2.2c-0.2,0.8-0.4,1.6-0.6,2.4l-5.4-0.2l-0.2,4.3l5.4,0.2c0.1,0.8,0.2,1.7,0.4,2.4l-5.1,1.8l1.5,4.1
					l5.1-1.8c0.4,0.7,0.8,1.4,1.3,2.1l-4,3.6l2.9,3.2l4-3.6c0.6,0.5,1.3,1,2,1.5l-2.4,4.8l3.9,1.9l2.4-4.8c0.8,0.3,1.6,0.5,2.4,0.6
					l-0.4,5.4l4.3,0.3l0.4-5.4c0.8,0,1.7-0.1,2.5-0.3l1.7,5.1l4.1-1.3l-1.7-5.1c0.8-0.4,1.5-0.8,2.2-1.2l3.5,4.1l3.3-2.8l-3.5-4.1
					c0.6-0.6,1.1-1.2,1.6-1.9l4.8,2.5l2-3.8l-4.8-2.5c0.3-0.8,0.5-1.6,0.7-2.4L367.3,39.1z M344.7,43.2c-4.8,0-8.7-3.9-8.7-8.7
					c0-4.8,3.9-8.7,8.7-8.7c4.8,0,8.7,3.9,8.7,8.7C353.4,39.3,349.5,43.2,344.7,43.2z"/>
				<path class="st4" d="M290.1,157.2l0.4-3.7l-4.6-0.5c0-0.7-0.1-1.4-0.2-2.1l4.5-1.3l-1-3.6l-4.5,1.3c-0.3-0.7-0.6-1.3-1-1.9
					l3.7-2.9l-2.3-2.9l-3.7,2.9c-0.5-0.5-1-1-1.6-1.4l2.3-4l-3.2-1.9l-2.3,4c-1-0.4-2-0.7-3.1-0.9l0.7-4.5l-3.7-0.6l-0.7,4.8
					c-1.1,0.1-2.1,0.2-3.1,0.5l-1.8-4.3l-3.5,1.4l1.8,4.3c-0.6,0.3-1.2,0.7-1.8,1.2l-3.2-3.4l-2.7,2.6l3.2,3.4
					c-0.4,0.6-0.9,1.1-1.2,1.8l-4.3-1.9l-1.5,3.4l4.3,1.9c-0.2,0.7-0.4,1.4-0.5,2.1l-4.7-0.2l-0.1,3.7l4.7,0.2
					c0.1,0.7,0.2,1.4,0.3,2.1l-4.4,1.6l1.3,3.5l4.4-1.6c0.3,0.6,0.7,1.3,1.1,1.8l-3.5,3.1l2.5,2.8l3.5-3.1c0.5,0.5,1.1,0.9,1.7,1.3
					l-2,4.2l3.4,1.6l2-4.2c0.7,0.2,1.4,0.4,2.1,0.6l-0.3,4.7l3.7,0.3l0.3-4.7c0.7,0,1.4-0.1,2.1-0.3l1.4,4.4l3.6-1.2l-1.4-4.4
					c0.7-0.3,1.3-0.7,1.9-1l3,3.6l2.9-2.4l-3-3.6c0.5-0.5,0.9-1.1,1.3-1.7l4.1,2.2l1.8-3.3l-4.1-2.2c0.3-0.7,0.5-1.3,0.6-2
					L290.1,157.2z M270.6,160.7c-4.2,0-7.5-3.4-7.5-7.5c0-4.2,3.4-7.5,7.5-7.5c4.2,0,7.5,3.4,7.5,7.5
					C278.1,157.3,274.7,160.7,270.6,160.7z"/>
				<path class="st7" d="M325.1,185.3l0.2-2.3l-2.9-0.3c0-0.5,0-0.9-0.1-1.3l2.8-0.8l-0.6-2.2l-2.8,0.8c-0.2-0.4-0.4-0.8-0.6-1.2
					l2.3-1.8l-1.4-1.8l-2.3,1.8c-0.3-0.3-0.7-0.6-1-0.9l1.5-2.5l-2-1.2l-1.5,2.5c-0.6-0.3-1.3-0.5-1.9-0.6l0.4-2.8l-2.3-0.4l-0.5,3
					c-0.7,0-1.3,0.1-2,0.3l-1.1-2.7l-2.2,0.9l1.1,2.7c-0.4,0.2-0.8,0.5-1.1,0.7l-2-2.1l-1.7,1.6l2,2.1c-0.3,0.3-0.5,0.7-0.8,1.1
					l-2.7-1.2l-0.9,2.1l2.7,1.2c-0.1,0.4-0.2,0.9-0.3,1.3l-2.9-0.1l-0.1,2.3l2.9,0.1c0,0.4,0.1,0.9,0.2,1.3l-2.7,1l0.8,2.2l2.7-1
					c0.2,0.4,0.4,0.8,0.7,1.1l-2.2,1.9l1.6,1.7l2.2-1.9c0.3,0.3,0.7,0.6,1.1,0.8l-1.3,2.6l2.1,1l1.3-2.6c0.4,0.1,0.8,0.3,1.3,0.3
					l-0.2,2.9l2.3,0.2l0.2-2.9c0.5,0,0.9-0.1,1.3-0.2l0.9,2.8l2.2-0.7l-0.9-2.8c0.4-0.2,0.8-0.4,1.2-0.6l1.9,2.2l1.8-1.5l-1.9-2.2
					c0.3-0.3,0.6-0.7,0.8-1l2.6,1.4l1.1-2.1l-2.6-1.4c0.2-0.4,0.3-0.8,0.4-1.3L325.1,185.3z M312.9,187.5c-2.6,0-4.7-2.1-4.7-4.7
					c0-2.6,2.1-4.7,4.7-4.7c2.6,0,4.7,2.1,4.7,4.7C317.6,185.4,315.5,187.5,312.9,187.5z"/>
				<path class="st6" d="M365.9,164l-0.3-1.8l-2.2,0.4c-0.1-0.3-0.2-0.7-0.4-1l1.9-1.2l-0.9-1.5l-1.9,1.2c-0.2-0.3-0.5-0.5-0.7-0.8
					l1.3-1.8l-1.5-1.1l-1.3,1.8c-0.3-0.2-0.6-0.3-0.9-0.4l0.6-2.2l-1.8-0.5l-0.6,2.2c-0.5-0.1-1-0.1-1.6,0l-0.3-2.2l-1.8,0.2
					l0.3,2.3c-0.5,0.2-1,0.4-1.4,0.6l-1.4-1.8l-1.4,1.1l1.4,1.8c-0.3,0.2-0.5,0.5-0.7,0.8l-2-1.1l-0.9,1.6l2,1.1
					c-0.1,0.3-0.3,0.6-0.3,1l-2.2-0.3l-0.3,1.8l2.2,0.3c0,0.3,0,0.7,0,1l-2.2,0.5l0.4,1.8l2.2-0.5c0.1,0.3,0.3,0.6,0.4,0.9l-1.8,1.3
					l1.1,1.5l1.8-1.3c0.2,0.3,0.5,0.5,0.8,0.7l-1.2,1.9l1.5,1l1.2-1.9c0.3,0.1,0.6,0.3,1,0.4l-0.4,2.2l1.8,0.3l0.4-2.2
					c0.3,0,0.7,0,1,0l0.5,2.2l1.8-0.4l-0.5-2.2c0.3-0.1,0.7-0.2,1-0.4l1.3,1.9l1.5-1l-1.3-1.9c0.3-0.2,0.5-0.5,0.7-0.7l1.9,1.3
					l1-1.5l-1.9-1.3c0.2-0.3,0.3-0.6,0.4-1l2.2,0.5l0.4-1.8l-2.2-0.5c0-0.3,0-0.7,0-1L365.9,164z M357.2,168.2
					c-1.9,0.5-4-0.6-4.5-2.5c-0.5-1.9,0.6-4,2.5-4.5c1.9-0.5,4,0.6,4.5,2.5C360.3,165.6,359.1,167.7,357.2,168.2z"/>
				<path class="st1" d="M272.8,174.9c-25.9-4.8-50.3,9.2-54.4,31.2c-1.6,8.7,0.2,17.4,4.5,25c0.2,0.4,0.4,0.7,0.6,1l-7.3,23.5
					l17.2-12.2c6.6,5.5,15,9.6,24.6,11.3c25.9,4.8,50.3-9.2,54.4-31.2C316.4,201.5,298.7,179.7,272.8,174.9z"/>
				<g>
					<polygon class="st6" points="132.7,431.9 113.7,448.3 41.4,405.7 51,389.3 					"/>
					<polygon class="st8" points="52.6,390.1 51.1,389.3 41.4,405.6 113.8,448.3 117.8,444.7 45.5,402.1 					"/>
					<path class="st8" d="M41.4,405.7l22,13c6.9-3.4,13.1-7.8,17.8-11.1c0.7-0.5,1.3-0.9,2-1.4L51,389.3L41.4,405.7z"/>
					
						<ellipse transform="matrix(0.7561 -0.6544 0.6544 0.7561 -268.249 108.2472)" class="st9" cx="11.1" cy="414" rx="8.2" ry="14.1"/>
					
						<rect x="7.6" y="394.5" transform="matrix(0.7561 -0.6544 0.6544 0.7561 -263.1008 111.0507)" class="st6" width="19.7" height="28.1"/>
					
						<rect x="14.7" y="413.4" transform="matrix(-0.7561 0.6544 -0.6544 -0.7561 315.696 715.7042)" class="st8" width="19.7" height="6.6"/>
					<path class="st6" d="M134.3,307.1c8.8,10.2,7.7,25.6-2.5,34.4c-10.2,8.8-25.6,7.7-34.4-2.5c-8.8-10.2-7.7-25.6,2.5-34.4
						C110,295.8,125.4,296.9,134.3,307.1z"/>
					<path class="st8" d="M126.7,335.6c-9.2,8-22.6,7.8-31.7,0.2c0.7,1.1,1.4,2.1,2.3,3.1c8.8,10.2,24.2,11.3,34.4,2.5
						c10.2-8.8,11.3-24.2,2.5-34.4c-0.9-1-1.8-1.9-2.8-2.7C137.7,314.3,135.9,327.7,126.7,335.6z"/>
					<g>
						<g>
							<path class="st0" d="M17,409C16.8,408.7,17.3,409.3,17,409L17,409z"/>
						</g>
						<g>
							<path class="st10" d="M73.4,261.6c-3,7.6-2.8,16.7-5,24.3c-6.3,23.5-20.1,45-37.6,63.6C19.1,362.1-3.5,385.9,17,409
								c20,23.6,46.7,4.4,60.8-5.4c20.8-14.8,44-25.5,68.2-28.4c7.9-1,16.8,0.4,24.8-1.5L73.4,261.6z"/>
						</g>
					</g>
					<g class="st11">
						<path class="st9" d="M136.7,358.7c-24.1,3-47.4,13.6-68.2,28.4c-13.7,9.6-39.4,28-59.3,7.1c1,4.9,3.4,9.8,7.8,14.8
							c20,23.6,46.7,4.4,60.8-5.4c20.8-14.8,44-25.5,68.2-28.4c7.9-1,16.8,0.4,24.8-1.5l-13.7-15.7
							C150.3,358.6,143.1,357.8,136.7,358.7z"/>
					</g>
					<g class="st11">
						<path class="st9" d="M170.8,373.6l-97.4-112c-1.4,3.6-2.1,7.5-2.7,11.4l88.5,101.7C163.1,374.7,167.1,374.5,170.8,373.6z"/>
					</g>
					<path class="st12" d="M133.5,431.1c0.7,0.8,0.6,2.1-0.2,2.9l-21.5,18.6c-0.8,0.7-2.1,0.6-2.9-0.2l-4.1-4.8
						c-0.7-0.8-0.6-2.1,0.2-2.9l21.5-18.6c0.8-0.7,2.1-0.6,2.9,0.2L133.5,431.1z"/>
					<path class="st13" d="M111.9,449.3c-0.8,0.7-2.1,0.6-2.9-0.2l-3.9-4.5l-0.2,0.2c-0.8,0.7-0.9,2-0.2,2.9l4.1,4.8
						c0.7,0.8,2,0.9,2.9,0.2l21.5-18.6c0.8-0.7,0.9-2,0.2-2.9l-0.2-0.3L111.9,449.3z"/>
					<g>
						<path class="st14" d="M29.3,351.2c-0.8,0.8-1.5,1.7-2.4,2.5l46,53.2c1-0.7,1.9-1.3,2.8-2L29.3,351.2z"/>
					</g>
					<g>
						<path class="st14" d="M34.3,345.7c-0.8,0.8-1.5,1.7-2.3,2.5l47.1,54.4c1-0.7,1.9-1.3,2.9-2L34.3,345.7z"/>
					</g>
					<path class="st15" d="M177.3,373.3c0.7,0.9,0.6,2.1-0.2,2.9l-4.6,4c-0.8,0.7-2.1,0.6-2.9-0.2L67.1,261.6
						c-0.7-0.8-0.6-2.1,0.2-2.9l4.6-4c0.9-0.7,2.1-0.6,2.9,0.2L177.3,373.3z"/>
				</g>
				<path class="st1" d="M411.4,256.1l-70.7-53.5l-5.3-4l-4,5.3l-31.8,42.1l-4,5.3l5.3,4l70.7,53.5l5.3,4l4-5.3l31.8-42.1l4-5.3
					L411.4,256.1z M400.7,256.3l-42.1-3.7l-15-39.5L400.7,256.3z M304.9,250l30.3-40.1l18.6,48.9l52.1,4.6l-30.3,40.1L304.9,250z"/>
				<g>
					
						<rect x="387" y="58.6" transform="matrix(0.32 -0.9474 0.9474 0.32 203.4878 463.2716)" class="st16" width="74.9" height="62.5"/>
					<path class="st6" d="M442,37.9c8.3,2.8,11.8,14.6,7.9,26.3l2.7,0.9c4.5-13.2,0.1-26.6-9.7-29.9c-9.8-3.3-21.4,4.7-25.8,17.9
						l2.7,0.9C423.7,42.4,433.7,35.1,442,37.9z"/>
				</g>
				<g>
					<g>
						<circle class="st5" cx="183.5" cy="168.5" r="14.3"/>
						<path class="st8" d="M183.5,154.3c0,0-0.1,0-0.1,0c-7.9,0-14.3,6.4-14.3,14.3c0,7.9,6.4,14.3,14.3,14.3c0,0,0.1,0,0.1,0V154.3
							z"/>
					</g>
					<polygon class="st17" points="183.5,160.9 185.8,165.5 190.8,166.2 187.1,169.8 188,174.8 183.5,172.4 179,174.8 179.9,169.8 
						176.2,166.2 181.3,165.5 					"/>
				</g>
				<g>
					<path class="st15" d="M280,162.3c0.2,1.5-0.8,2.9-2.2,3.1l-70.2,11.2c-1.5,0.2-2.9-0.8-3.1-2.2L188,71.2
						c-0.2-1.5,0.8-2.9,2.2-3.1l70.2-11.2c1.5-0.2,2.9,0.8,3.1,2.2L280,162.3z"/>
					<path class="st17" d="M269.6,148.6c0.2,1.2-0.6,2.2-1.8,2.4l-55.3,8.8c-1.2,0.2-2.2-0.6-2.4-1.8l-12.9-81.2
						c-0.2-1.2,0.6-2.2,1.8-2.4l55.3-8.8c1.2-0.2,2.2,0.6,2.4,1.8L269.6,148.6z"/>
					<circle class="st18" cx="241.3" cy="162.7" r="5.1"/>
					<circle class="st19" cx="241.3" cy="162.7" r="2"/>
					<circle class="st20" cx="226" cy="66.3" r="1.4"/>
					
						<rect x="205" y="79" transform="matrix(0.9875 -0.1573 0.1573 0.9875 -10.1547 35.1448)" class="st0" width="23.8" height="5.4"/>
					
						<rect x="206.3" y="87.2" transform="matrix(0.9875 -0.1573 0.1573 0.9875 -11.4212 35.4461)" class="st0" width="23.8" height="5.4"/>
					
						<rect x="207.6" y="95.3" transform="matrix(0.9875 -0.1574 0.1574 0.9875 -12.6909 35.7609)" class="st0" width="23.8" height="5.4"/>
					
						<rect x="208.9" y="103.5" transform="matrix(0.9875 -0.1574 0.1574 0.9875 -13.9599 36.0711)" class="st0" width="23.8" height="5.4"/>
					
						<rect x="210.2" y="111.7" transform="matrix(0.9875 -0.1573 0.1573 0.9875 -15.225 36.3685)" class="st0" width="23.8" height="5.4"/>
					
						<rect x="213.3" y="120.2" transform="matrix(0.9875 -0.1573 0.1573 0.9875 -18.0116 38.795)" class="st6" width="45.4" height="26"/>
					<circle class="st21" cx="242" cy="83.9" r="9.6"/>
					<circle class="st21" cx="245.3" cy="104.2" r="9.6"/>
				</g>
				<g>
					<path class="st6" d="M333.9,215.3c3.1,8.5-1.2,17.9-9.6,21c-8.5,3.1-17.9-1.2-21-9.6c-3.1-8.5,1.2-17.9,9.6-21
						C321.3,202.6,330.7,206.9,333.9,215.3z"/>
					<g>
						<path class="st6" d="M323,233.4c-6.8,2.5-14.3-1-16.9-7.8c-2.5-6.8,1-14.4,7.8-17l0.1,0c6.8-2.5,14.4,1,16.9,7.8
							c1.2,3.3,1.1,6.9-0.4,10.1c-1.5,3.2-4.1,5.6-7.4,6.9L323,233.4z M314.5,210c-6.2,2.3-9.3,9.1-7,15.2c2.2,6,9,9.2,15,7l0.1,0
							c3-1.1,5.3-3.3,6.6-6.1c1.3-2.9,1.4-6.1,0.3-9C327.4,210.9,320.6,207.8,314.5,210z"/>
					</g>
					<text transform="matrix(0.9373 -0.3484 0.3484 0.9373 315.7863 229.8622)" class="st6 st22 st23">$</text>
				</g>
				<path class="st12" d="M132.7,259.7c0,0,56.5-0.3,53.8,58.5C186.5,318.1,182.9,274.4,132.7,259.7z"/>
				<path class="st24" d="M126.2,234.1c0,0,84.7-2.5,84.7,92.9C210.8,327,228.8,227.2,126.2,234.1z"/>
				<path class="st6" d="M132.7,194.8c0,0,118.8-3.4,118.8,130.3C251.5,325.1,276.7,185.1,132.7,194.8z"/>
				<g>
					<circle class="st15" cx="330.5" cy="284.1" r="22.5"/>
					<polygon class="st17" points="326,272.5 320.9,291.9 342.2,287.2 					"/>
				</g>
				<g>
					<path class="st15" d="M470.7,233.7c-0.5,1.6-2.2,2.4-3.7,1.9l-101.2-32.5c-1.6-0.5-2.4-2.2-1.9-3.7l18.8-58.4
						c0.5-1.6,2.2-2.4,3.7-1.9l101.2,32.5c1.6,0.5,2.4,2.2,1.9,3.7L470.7,233.7z"/>
					<path class="st17" d="M466.7,226.7c-0.4,1.3-1.9,2-3.3,1.5l-90.6-29.1c-1.4-0.4-2.2-1.9-1.8-3.1l15.4-48c0.4-1.3,1.9-2,3.3-1.5
						l90.6,29.1c1.4,0.4,2.2,1.9,1.8,3.1L466.7,226.7z"/>
					<circle class="st9" cx="435.9" cy="158.5" r="1.3"/>
					<path class="st8" d="M372,193l-0.9,2.9c-0.4,1.3,0.4,2.7,1.8,3.1l90.6,29.1c1.4,0.4,2.9-0.2,3.3-1.5l0.9-2.9L372,193z"/>
					<path class="st15" d="M469.6,264.6c0,0.7-1.5,0.8-3.3,0.2l-117.1-37.6c-1.8-0.6-2.9-1.5-2.5-2.1l15.5-21.8
						c0.4-0.6,2-0.7,3.6-0.1l101.2,32.5c1.6,0.5,2.8,1.5,2.8,2.2L469.6,264.6z"/>
					<path class="st25" d="M469.5,267.9c-0.5,1.6-2.2,2.4-3.8,1.9l-119-38.2c-1.6-0.5-2.4-2.2-1.9-3.7l0.6-1.9
						c0.5-1.6,2.2-2.4,3.8-1.9l119,38.2c1.6,0.5,2.4,2.2,1.9,3.7L469.5,267.9z"/>
					<polygon class="st26" points="365,206.3 363,209 466.1,242.1 466.1,238.8 					"/>
					<polygon class="st26" points="362.1,210.7 360.2,213.3 466.2,247.4 466.1,244.1 					"/>
					<polygon class="st26" points="359.5,214.9 357.6,217.5 466,252.4 466.1,249.1 					"/>
					<polygon class="st5" points="394.3,230.8 392.1,235.7 427,246.9 428,241.7 					"/>
					
						<rect x="413.6" y="235.6" transform="matrix(0.9519 0.3063 -0.3063 0.9519 93.2307 -115.5302)" class="st27" width="2.2" height="7.3"/>
				</g>
				<g>
					<path class="st6" d="M291.1,171.3c0.8-1,2.2-1.2,3.2-0.4l0,0c1,0.8,1.2,2.2,0.5,3.2l-5.7,7.6c-0.8,1-2.2,1.2-3.2,0.4l0,0
						c-1-0.8-1.2-2.2-0.5-3.2L291.1,171.3z"/>
					<polygon class="st17" points="360.4,96.4 363.8,78.9 347.6,87.2 					"/>
					<path class="st15" d="M347.9,86.9c-0.1,0.1-0.2,0.2-0.3,0.3l-59.4,78.6c-2,2.7-1.5,6.5,1.2,8.5l2.8,2.1c2.7,2,6.5,1.5,8.5-1.2
						l59.4-78.6c0.1-0.1,0.2-0.2,0.2-0.3L347.9,86.9z"/>
					
						<ellipse transform="matrix(-0.7979 -0.6028 0.6028 -0.7979 604.833 362.2474)" class="st9" cx="363.1" cy="79.7" rx="2" ry="4.3"/>
					<g>
						<path class="st21" d="M303.9,171.1l-12.4-9.4c-0.5-0.3-1.7-1.1-2.2-2.8c-0.4-1.7,0.1-3.7,1.8-5.9c3.5-4.7,25.8-31.2,26.8-32.3
							c0.2-0.3,0.7-1.2,0.6-1.8c0-0.1-0.1-0.4-0.6-0.7l1.6-2.8c1.5,0.9,2,2,2.1,2.8c0.4,2.2-1.1,4.3-1.3,4.5
							c-0.3,0.3-23.2,27.6-26.7,32.2c-1.3,1.7-1.3,2.7-1.2,3.1c0.1,0.5,0.6,0.8,0.6,0.8l0.3,0.2l12.5,9.5L303.9,171.1z"/>
					</g>
				</g>
				<g>
					<path class="st14" d="M293.5,246.3c0.9,2.4-0.3,5-2.7,5.9l-23.4,8.6c-2.4,0.9-5-0.3-5.9-2.7l-19.2-52.1c-0.9-2.4,0.3-5,2.7-5.9
						l23.4-8.6c2.4-0.9,5,0.3,5.9,2.7L293.5,246.3z"/>
					<circle class="st28" cx="277.5" cy="252.1" r="2.8"/>
					<circle class="st14" cx="277.5" cy="252.1" r="1.1"/>
					<circle class="st20" cx="257.6" cy="198.3" r="0.8"/>
					
						<rect x="252.8" y="199.7" transform="matrix(0.938 -0.3466 0.3466 0.938 -61.3576 106.6097)" class="st17" width="29.2" height="50.3"/>
					
						<rect x="251.5" y="211.2" transform="matrix(0.938 -0.3466 0.3466 0.938 -57.2115 104.2356)" class="st0" width="22.7" height="1.8"/>
					
						<rect x="252.7" y="214.7" transform="matrix(0.938 -0.3466 0.3466 0.938 -58.34 104.8997)" class="st0" width="22.7" height="1.8"/>
					
						<rect x="254" y="218.1" transform="matrix(0.938 -0.3467 0.3467 0.938 -59.4764 105.5882)" class="st0" width="22.7" height="1.8"/>
					
						<rect x="255.3" y="221.6" transform="matrix(0.938 -0.3466 0.3466 0.938 -60.5955 106.2269)" class="st0" width="22.7" height="1.8"/>
					
						<rect x="256.6" y="225.1" transform="matrix(0.938 -0.3466 0.3466 0.938 -61.7253 106.894)" class="st0" width="22.7" height="1.8"/>
					
						<rect x="257.9" y="228.6" transform="matrix(0.938 -0.3465 0.3465 0.938 -62.8415 107.525)" class="st0" width="22.7" height="1.8"/>
					
						<rect x="259.2" y="232.1" transform="matrix(0.938 -0.3466 0.3466 0.938 -63.9778 108.2108)" class="st0" width="22.7" height="1.8"/>
					
						<rect x="249.3" y="202.8" transform="matrix(0.938 -0.3466 0.3466 0.938 -55.3458 103.1399)" class="st0" width="22.7" height="7"/>
					
						<rect x="262" y="236" transform="matrix(0.938 -0.3466 0.3466 0.938 -66.4231 109.6394)" class="st6" width="22.7" height="9.1"/>
				</g>
				
					<rect x="387.2" y="154" transform="matrix(0.9499 0.3124 -0.3124 0.9499 74.2544 -115.4725)" class="st0" width="20.4" height="40"/>
				
					<rect x="410" y="168.2" transform="matrix(0.9499 0.3124 -0.3124 0.9499 80.8471 -128.1378)" class="st29" width="60.5" height="40"/>
				<circle class="st12" cx="267.4" cy="288.9" r="5.8"/>
				<circle class="st6" cx="289.1" cy="302.3" r="3.7"/>
				<path class="st5" d="M324.9,60.5c0,0,31.6,17,48.6-10.7C373.5,49.8,357.4,85.5,324.9,60.5z"/>
				<path class="st30" d="M222.5,76.3c0,0,174-5,174,190.8C396.5,267.1,433.4,62.1,222.5,76.3z"/>
				<path class="st31" d="M311.7,41.5c0,0,121.7-3.5,121.7,133.5C433.5,175,459.4,31.6,311.7,41.5z"/>
			</g>
		</g>
	</g>
</g>
</svg>
