<?xml version="1.0" encoding="utf-8"?>
<!-- Generator: Adobe Illustrator 19.1.0, SVG Export Plug-In . SVG Version: 6.00 Build 0)  -->
<svg version="1.1" xmlns="http://www.w3.org/2000/svg" xmlns:xlink="http://www.w3.org/1999/xlink" x="0px" y="0px"
	 viewBox="0 0 500 448.2" style="enable-background:new 0 0 500 448.2;" xml:space="preserve">
<style type="text/css">
	.st0{fill:#282828;}
	.st1{fill:none;stroke:#353535;stroke-width:15;stroke-miterlimit:10;}
	.st2{opacity:0.22;}
	.st3{fill:#2B2A2A;}
	.st4{fill:#353535;}
	.st5{fill:#FFFFFF;}
	.st6{fill:#9B9A9A;}
	.st7{fill:#3195AB;stroke:#263238;stroke-width:10;stroke-miterlimit:10;}
	.st8{fill:#3195AB;}
	.st9{fill:#DCDBDB;}
	.st10{fill:#E8E8E8;}
	.st11{fill:#3195AB;stroke:#263238;stroke-width:6;stroke-miterlimit:10;}
	.st12{fill:#243238;}
	.st13{opacity:0.32;fill:#454545;}
	.st14{fill:#E7E7E7;}
</style>
<g id="Layer_1">
	<rect x="130" y="347.5" class="st0" width="240" height="10.7"/>
	<path class="st1" d="M479,294.2H18.3c-1.3,0-2.3-1-2.3-2.3V9.8c0-1.3,1-2.3,2.3-2.3H479c1.3,0,2.3,1,2.3,2.3v282
		C481.3,293.1,480.3,294.2,479,294.2z"/>
	<rect x="228.7" y="301.5" class="st0" width="40.7" height="46"/>
	<g>
		<g class="st2">
			<rect x="41.3" y="32.2" class="st3" width="421.4" height="23"/>
		</g>
		<g>
			<rect x="38.3" y="29.2" class="st4" width="421.4" height="23"/>
		</g>
	</g>
	<g>
		<path class="st5" d="M52.7,45.2h-3.8l-1.1,2.2h-3.1L51,35.6h2.6l2.2,11.9h-2.9L52.7,45.2z M49.9,43h2.5l-0.5-4.1L49.9,43z"/>
		<path class="st5" d="M56.8,47.4l2.1-11.9l3.8,0c1.5,0,2.6,0.3,3.3,0.8c0.7,0.6,1.1,1.3,1,2.4c-0.1,1.2-0.8,2.1-2.1,2.7
			c0.5,0.2,0.8,0.5,1.1,0.9s0.4,0.9,0.3,1.5c-0.1,1.1-0.5,2-1.4,2.6s-2,0.9-3.4,0.9H56.8z M60.5,42.4L60,45.2l1.7,0
			c0.5,0,1-0.1,1.3-0.4c0.3-0.3,0.6-0.6,0.6-1c0.2-0.9-0.2-1.4-1-1.4L60.5,42.4z M60.8,40.5l1.3,0c1.2,0,1.9-0.5,2-1.4
			c0.1-0.9-0.3-1.3-1.4-1.3l-1.5,0L60.8,40.5z"/>
		<path class="st5" d="M77.2,43.4c-0.1,0.8-0.3,1.6-0.8,2.2c-0.5,0.6-1.1,1.1-1.9,1.5c-0.8,0.3-1.6,0.5-2.5,0.5
			c-1.2,0-2.2-0.4-2.9-1.2c-0.7-0.8-1.1-1.8-1.2-3.1c0-0.9,0-1.8,0.3-2.9c0.2-1,0.6-1.9,1.2-2.7c0.5-0.8,1.2-1.3,1.9-1.7
			c0.7-0.4,1.6-0.6,2.4-0.5c1.3,0,2.3,0.4,3.1,1.2c0.8,0.8,1.2,1.8,1.2,3.1l-2.8,0c0-0.7-0.1-1.2-0.4-1.5c-0.3-0.3-0.7-0.5-1.3-0.5
			c-1.5,0-2.4,1.1-2.7,3.4c-0.1,1.1-0.2,1.8-0.2,2.3c0,1.3,0.5,2,1.5,2.1c0.7,0,1.2-0.1,1.6-0.5c0.4-0.3,0.6-0.8,0.7-1.5L77.2,43.4z
			"/>
		<path class="st5" d="M90.2,42.7h-4.5l-0.8,4.7h-2.8l2.1-11.9h7.7l-0.4,2.2h-4.9l-0.5,2.7h4.5L90.2,42.7z"/>
		<path class="st5" d="M99.1,42.4h-4.4l-0.5,2.8h5.2L99,47.4H91l2.1-11.9h8l-0.4,2.2h-5.2l-0.4,2.5h4.4L99.1,42.4z"/>
		<path class="st5" d="M109.8,47.4h-2.7l-2.8-7.5l-1.3,7.5h-2.8l2.1-11.9h2.7l2.8,7.5l1.3-7.5h2.8L109.8,47.4z"/>
		<path class="st5" d="M121.5,43.4c-0.1,0.8-0.3,1.6-0.8,2.2c-0.5,0.6-1.1,1.1-1.9,1.5c-0.8,0.3-1.6,0.5-2.5,0.5
			c-1.2,0-2.2-0.4-2.9-1.2c-0.7-0.8-1.1-1.8-1.2-3.1c0-0.9,0-1.8,0.3-2.9c0.2-1,0.6-1.9,1.2-2.7c0.5-0.8,1.2-1.3,1.9-1.7
			c0.7-0.4,1.6-0.6,2.4-0.5c1.3,0,2.3,0.4,3.1,1.2c0.8,0.8,1.2,1.8,1.2,3.1l-2.8,0c0-0.7-0.1-1.2-0.4-1.5c-0.3-0.3-0.7-0.5-1.3-0.5
			c-1.5,0-2.4,1.1-2.7,3.4c-0.1,1.1-0.2,1.8-0.2,2.3c0,1.3,0.5,2,1.5,2.1c0.7,0,1.2-0.1,1.6-0.5c0.4-0.3,0.6-0.8,0.7-1.5L121.5,43.4
			z"/>
		<path class="st5" d="M130.3,42.4H126l-0.5,2.8h5.2l-0.4,2.2h-7.9l2.1-11.9h8l-0.4,2.2h-5.2l-0.4,2.5h4.4L130.3,42.4z"/>
		<path class="st5" d="M145.5,43.4c-0.1,0.8-0.3,1.6-0.8,2.2c-0.5,0.6-1.1,1.1-1.9,1.5c-0.8,0.3-1.6,0.5-2.5,0.5
			c-1.2,0-2.2-0.4-2.9-1.2c-0.7-0.8-1.1-1.8-1.2-3.1c0-0.9,0-1.8,0.3-2.9c0.2-1,0.6-1.9,1.2-2.7c0.5-0.8,1.2-1.3,1.9-1.7
			c0.7-0.4,1.6-0.6,2.4-0.5c1.3,0,2.3,0.4,3.1,1.2c0.8,0.8,1.2,1.8,1.2,3.1l-2.8,0c0-0.7-0.1-1.2-0.4-1.5c-0.3-0.3-0.7-0.5-1.3-0.5
			c-1.5,0-2.4,1.1-2.7,3.4c-0.1,1.1-0.2,1.8-0.2,2.3c0,1.3,0.5,2,1.5,2.1c0.7,0,1.2-0.1,1.6-0.5c0.4-0.3,0.6-0.8,0.7-1.5L145.5,43.4
			z"/>
		<path class="st5" d="M151.1,47.6c-1.2,0-2.2-0.4-3-1.2c-0.7-0.8-1.2-1.8-1.3-3.2c-0.1-0.7,0-1.4,0.2-2.3c0.2-0.9,0.4-1.7,0.8-2.4
			c0.4-0.7,0.9-1.4,1.5-1.9c1-0.8,2.2-1.2,3.5-1.2c0.8,0,1.5,0.2,2.1,0.6c0.6,0.4,1.1,0.9,1.5,1.5c0.4,0.7,0.6,1.4,0.6,2.3
			c0,0.6,0,1.3-0.1,2.1s-0.3,1.5-0.6,2.2c-0.3,0.7-0.7,1.3-1.2,1.8c-0.5,0.5-1.1,1-1.7,1.3S152,47.6,151.1,47.6z M154.3,39.7
			c-0.1-1.4-0.6-2.1-1.6-2.1c-0.8,0-1.4,0.3-1.9,0.9c-0.5,0.6-0.8,1.6-1,2.9c-0.1,0.8-0.1,1.4-0.1,1.8c0.1,1.4,0.6,2.1,1.6,2.1
			c0.7,0,1.2-0.2,1.7-0.7s0.8-1.2,1-2.2C154.3,41.5,154.4,40.6,154.3,39.7z"/>
		<path class="st5" d="M156.8,46.2c0-0.4,0.1-0.8,0.4-1c0.3-0.3,0.6-0.4,1-0.4c0.4,0,0.7,0.1,1,0.4s0.4,0.6,0.4,1
			c0,0.4-0.1,0.7-0.4,1c-0.3,0.3-0.6,0.4-1.1,0.4c-0.4,0-0.8-0.1-1-0.4C157,46.9,156.8,46.6,156.8,46.2z"/>
	</g>
	<rect x="38.7" y="213.8" class="st6" width="130.4" height="34.2"/>
	<rect x="38.7" y="255.8" class="st6" width="130.4" height="5.5"/>
	<rect x="38.7" y="267.3" class="st6" width="81.6" height="4.7"/>
	<rect x="126.7" y="267.3" class="st6" width="42.4" height="4.7"/>
	<g>
		<path class="st5" d="M256.1,44.4h-1.8l0.6-3.3h-2.7l-0.6,3.3h-1.8l1.4-7.8h1.8l-0.5,3.1h2.7l0.5-3.1h1.8L256.1,44.4z"/>
		<path class="st5" d="M260.5,44.5c-0.8,0-1.5-0.3-2-0.8c-0.5-0.5-0.8-1.2-0.8-2.1c0-0.4,0-0.9,0.1-1.5c0.1-0.6,0.3-1.1,0.6-1.6
			s0.6-0.9,1-1.2c0.7-0.5,1.4-0.8,2.3-0.8c0.5,0,1,0.1,1.4,0.4c0.4,0.2,0.7,0.6,1,1s0.4,0.9,0.4,1.5c0,0.4,0,0.8-0.1,1.4
			c-0.1,0.5-0.2,1-0.4,1.5c-0.2,0.5-0.5,0.9-0.8,1.2c-0.3,0.4-0.7,0.6-1.2,0.8C261.6,44.4,261.1,44.5,260.5,44.5z M262.6,39.4
			c0-0.9-0.4-1.4-1-1.4c-0.5,0-0.9,0.2-1.3,0.6c-0.3,0.4-0.6,1.1-0.7,1.9c-0.1,0.5-0.1,0.9-0.1,1.2c0,0.9,0.4,1.4,1.1,1.4
			c0.4,0,0.8-0.1,1.1-0.5c0.3-0.3,0.5-0.8,0.7-1.5C262.6,40.5,262.6,39.9,262.6,39.4z"/>
		<path class="st5" d="M268.5,36.6l0.7,5.4l2.6-5.4h2.4l-1.4,7.8h-1.8l0.3-1.9l0.8-3.5l-2.7,5.5h-1.2l-0.9-5.7l-0.5,3.9l-0.3,1.7
			h-1.8l1.4-7.8H268.5z"/>
		<path class="st5" d="M279.4,41.1h-2.9l-0.3,1.9h3.4l-0.3,1.5h-5.2l1.4-7.8h5.2l-0.3,1.5h-3.4l-0.3,1.6h2.9L279.4,41.1z"/>
		<path class="st5" d="M299,41.3h-2.9l-0.5,3.1h-1.8l1.4-7.8h5.1l-0.3,1.5h-3.2l-0.3,1.8h2.9L299,41.3z"/>
		<path class="st5" d="M304.9,41.1H302l-0.3,1.9h3.4l-0.3,1.5h-5.2l1.4-7.8h5.2l-0.3,1.5h-3.4l-0.3,1.6h2.9L304.9,41.1z"/>
		<path class="st5" d="M312,44.4h-1.8l-1.9-4.9l-0.9,4.9h-1.8l1.4-7.8h1.8l1.9,4.9l0.9-4.9h1.8L312,44.4z"/>
		<path class="st5" d="M319.7,41.8c0,0.5-0.2,1-0.5,1.5s-0.7,0.8-1.2,1c-0.5,0.2-1.1,0.3-1.7,0.3c-0.8,0-1.5-0.3-1.9-0.8
			s-0.7-1.2-0.8-2.1c0-0.6,0-1.2,0.2-1.9s0.4-1.3,0.8-1.8c0.4-0.5,0.8-0.9,1.3-1.1c0.5-0.3,1-0.4,1.6-0.4c0.9,0,1.5,0.3,2,0.8
			s0.8,1.2,0.8,2.1l-1.8,0c0-0.5-0.1-0.8-0.3-1c-0.2-0.2-0.5-0.3-0.8-0.3c-1,0-1.6,0.7-1.8,2.3c-0.1,0.7-0.1,1.2-0.1,1.5
			c0,0.9,0.3,1.3,1,1.4c0.4,0,0.8-0.1,1-0.3c0.3-0.2,0.4-0.5,0.5-1L319.7,41.8z"/>
		<path class="st5" d="M325.5,41.1h-2.9l-0.3,1.9h3.4l-0.3,1.5h-5.2l1.4-7.8h5.2l-0.3,1.5h-3.4l-0.3,1.6h2.9L325.5,41.1z"/>
		<path class="st5" d="M346.4,41.8c0,0.5-0.2,1-0.5,1.5s-0.7,0.8-1.2,1c-0.5,0.2-1.1,0.3-1.7,0.3c-0.8,0-1.5-0.3-1.9-0.8
			s-0.7-1.2-0.8-2.1c0-0.6,0-1.2,0.2-1.9s0.4-1.3,0.8-1.8c0.4-0.5,0.8-0.9,1.3-1.1c0.5-0.3,1-0.4,1.6-0.4c0.9,0,1.5,0.3,2,0.8
			s0.8,1.2,0.8,2.1l-1.8,0c0-0.5-0.1-0.8-0.3-1c-0.2-0.2-0.5-0.3-0.8-0.3c-1,0-1.6,0.7-1.8,2.3c-0.1,0.7-0.1,1.2-0.1,1.5
			c0,0.9,0.3,1.3,1,1.4c0.4,0,0.8-0.1,1-0.3c0.3-0.2,0.4-0.5,0.5-1L346.4,41.8z"/>
		<path class="st5" d="M350.1,44.5c-0.8,0-1.5-0.3-2-0.8c-0.5-0.5-0.8-1.2-0.8-2.1c0-0.4,0-0.9,0.1-1.5c0.1-0.6,0.3-1.1,0.6-1.6
			s0.6-0.9,1-1.2c0.7-0.5,1.4-0.8,2.3-0.8c0.5,0,1,0.1,1.4,0.4c0.4,0.2,0.7,0.6,1,1s0.4,0.9,0.4,1.5c0,0.4,0,0.8-0.1,1.4
			c-0.1,0.5-0.2,1-0.4,1.5c-0.2,0.5-0.5,0.9-0.8,1.2c-0.3,0.4-0.7,0.6-1.2,0.8C351.2,44.4,350.7,44.5,350.1,44.5z M352.2,39.4
			c0-0.9-0.4-1.4-1-1.4c-0.5,0-0.9,0.2-1.3,0.6c-0.3,0.4-0.6,1.1-0.7,1.9c-0.1,0.5-0.1,0.9-0.1,1.2c0,0.9,0.4,1.4,1.1,1.4
			c0.4,0,0.8-0.1,1.1-0.5c0.3-0.3,0.5-0.8,0.7-1.5C352.2,40.5,352.2,39.9,352.2,39.4z"/>
		<path class="st5" d="M360.6,44.4h-1.8l-1.9-4.9l-0.9,4.9h-1.8l1.4-7.8h1.8l1.9,4.9l0.9-4.9h1.8L360.6,44.4z"/>
		<path class="st5" d="M368.8,38.1h-2.3l-1.1,6.4h-1.8l1.1-6.4h-2.2l0.3-1.5h6.3L368.8,38.1z"/>
		<path class="st5" d="M372.4,43h-2.5l-0.7,1.5h-2l4.1-7.8h1.7l1.4,7.8h-1.9L372.4,43z M370.6,41.5h1.6l-0.3-2.7L370.6,41.5z"/>
		<path class="st5" d="M381.6,41.8c0,0.5-0.2,1-0.5,1.5s-0.7,0.8-1.2,1c-0.5,0.2-1.1,0.3-1.7,0.3c-0.8,0-1.5-0.3-1.9-0.8
			s-0.7-1.2-0.8-2.1c0-0.6,0-1.2,0.2-1.9s0.4-1.3,0.8-1.8c0.4-0.5,0.8-0.9,1.3-1.1c0.5-0.3,1-0.4,1.6-0.4c0.9,0,1.5,0.3,2,0.8
			s0.8,1.2,0.8,2.1l-1.8,0c0-0.5-0.1-0.8-0.3-1c-0.2-0.2-0.5-0.3-0.8-0.3c-1,0-1.6,0.7-1.8,2.3c-0.1,0.7-0.1,1.2-0.1,1.5
			c0,0.9,0.3,1.3,1,1.4c0.4,0,0.8-0.1,1-0.3c0.3-0.2,0.4-0.5,0.5-1L381.6,41.8z"/>
		<path class="st5" d="M389,38.1h-2.3l-1.1,6.4h-1.8l1.1-6.4h-2.2l0.3-1.5h6.3L389,38.1z"/>
		<path class="st5" d="M403.5,42.3c0.1-0.4-0.1-0.7-0.7-0.9L402,41c-1.2-0.6-1.8-1.3-1.8-2.3c0-0.4,0.2-0.8,0.5-1.2
			c0.3-0.3,0.7-0.6,1.1-0.8c0.5-0.2,1-0.3,1.6-0.3c0.8,0,1.4,0.2,1.9,0.7s0.7,1,0.7,1.8h-1.8c0-0.3-0.1-0.5-0.2-0.7
			c-0.1-0.2-0.4-0.3-0.7-0.3c-0.3,0-0.6,0.1-0.8,0.2s-0.4,0.4-0.4,0.6c-0.1,0.4,0.2,0.7,0.8,0.9s1,0.4,1.3,0.6
			c0.9,0.5,1.3,1.2,1.2,2.1c0,0.5-0.2,0.8-0.4,1.2s-0.6,0.6-1.1,0.8s-1,0.3-1.6,0.3c-0.4,0-0.8-0.1-1.2-0.2s-0.7-0.3-0.9-0.5
			c-0.5-0.5-0.8-1.1-0.8-1.9l1.8,0c0,0.4,0.1,0.7,0.2,0.9c0.2,0.2,0.5,0.3,0.9,0.3c0.3,0,0.6-0.1,0.8-0.2
			C403.4,42.7,403.5,42.6,403.5,42.3z"/>
		<path class="st5" d="M411.3,41.1h-2.9l-0.3,1.9h3.4l-0.3,1.5H406l1.4-7.8h5.2l-0.3,1.5h-3.4l-0.3,1.6h2.9L411.3,41.1z"/>
		<path class="st5" d="M415.3,41.7h-1l-0.5,2.8H412l1.4-7.8l2.8,0c0.9,0,1.6,0.2,2,0.6c0.5,0.4,0.7,1,0.6,1.7c0,0.6-0.2,1-0.5,1.4
			c-0.3,0.4-0.7,0.7-1.2,0.9l1.1,3.1v0.1h-2L415.3,41.7z M414.6,40.2l1.1,0c0.3,0,0.5-0.1,0.8-0.2s0.4-0.3,0.5-0.6
			c0.1-0.2,0.1-0.5,0.1-0.7c-0.1-0.4-0.3-0.6-0.8-0.6l-1.2,0L414.6,40.2z"/>
		<path class="st5" d="M422.2,42.3l2.4-5.7h2.1l-3.8,7.8h-2l-1.3-7.8h2L422.2,42.3z"/>
		<path class="st5" d="M428,44.4h-1.8l1.4-7.8h1.8L428,44.4z"/>
		<path class="st5" d="M435.8,41.8c0,0.5-0.2,1-0.5,1.5s-0.7,0.8-1.2,1c-0.5,0.2-1.1,0.3-1.7,0.3c-0.8,0-1.5-0.3-1.9-0.8
			s-0.7-1.2-0.8-2.1c0-0.6,0-1.2,0.2-1.9s0.4-1.3,0.8-1.8c0.4-0.5,0.8-0.9,1.3-1.1c0.5-0.3,1-0.4,1.6-0.4c0.9,0,1.5,0.3,2,0.8
			s0.8,1.2,0.8,2.1l-1.8,0c0-0.5-0.1-0.8-0.3-1c-0.2-0.2-0.5-0.3-0.8-0.3c-1,0-1.6,0.7-1.8,2.3c-0.1,0.7-0.1,1.2-0.1,1.5
			c0,0.9,0.3,1.3,1,1.4c0.4,0,0.8-0.1,1-0.3c0.3-0.2,0.4-0.5,0.5-1L435.8,41.8z"/>
		<path class="st5" d="M441.6,41.1h-2.9l-0.3,1.9h3.4l-0.3,1.5h-5.2l1.4-7.8h5.2l-0.3,1.5h-3.4l-0.3,1.6h2.9L441.6,41.1z"/>
		<path class="st5" d="M446.7,42.3c0.1-0.4-0.1-0.7-0.7-0.9l-0.9-0.4c-1.2-0.6-1.8-1.3-1.8-2.3c0-0.4,0.2-0.8,0.5-1.2
			c0.3-0.3,0.7-0.6,1.1-0.8c0.5-0.2,1-0.3,1.6-0.3c0.8,0,1.4,0.2,1.9,0.7s0.7,1,0.7,1.8h-1.8c0-0.3-0.1-0.5-0.2-0.7
			c-0.1-0.2-0.4-0.3-0.7-0.3c-0.3,0-0.6,0.1-0.8,0.2s-0.4,0.4-0.4,0.6c-0.1,0.4,0.2,0.7,0.8,0.9s1,0.4,1.3,0.6
			c0.9,0.5,1.3,1.2,1.2,2.1c0,0.5-0.2,0.8-0.4,1.2s-0.6,0.6-1.1,0.8s-1,0.3-1.6,0.3c-0.4,0-0.8-0.1-1.2-0.2s-0.7-0.3-0.9-0.5
			c-0.5-0.5-0.8-1.1-0.8-1.9l1.8,0c0,0.4,0.1,0.7,0.2,0.9c0.2,0.2,0.5,0.3,0.9,0.3c0.3,0,0.6-0.1,0.8-0.2
			C446.5,42.7,446.6,42.6,446.7,42.3z"/>
	</g>
	<rect x="185.1" y="213.8" class="st6" width="130.4" height="34.2"/>
	<rect x="185.1" y="255.8" class="st6" width="130.4" height="5.5"/>
	<rect x="185.1" y="267.3" class="st6" width="81.6" height="4.7"/>
	<rect x="273.1" y="267.3" class="st6" width="42.4" height="4.7"/>
	<rect x="329.7" y="213.8" class="st6" width="130.4" height="34.2"/>
	<rect x="329.7" y="255.8" class="st6" width="130.4" height="5.5"/>
	<rect x="329.7" y="267.3" class="st6" width="81.6" height="4.7"/>
	<rect x="414.2" y="261.9" class="st5" width="39.8" height="4.7"/>
	<path class="st7" d="M465.7,220.3v182c0,1.3-1,2.3-2.3,2.3H353c-1.3,0-2.3-1-2.3-2.3v-182c0-1.3,1-2.3,2.3-2.3h110.3
		C464.6,218,465.7,219,465.7,220.3z"/>
	<g>
		<g class="st2">
			<rect x="44.7" y="72.1" class="st3" width="420.6" height="131"/>
		</g>
		<g>
			<rect x="38.7" y="66.1" class="st8" width="420.6" height="131"/>
		</g>
	</g>
	<g>
		<rect x="279.6" y="83.5" class="st5" width="9.2" height="95.7"/>
		<rect x="419.2" y="83.5" class="st5" width="9.2" height="95.7"/>
		<rect x="288.7" y="171.3" class="st5" width="130.5" height="7.1"/>
		<rect x="292" y="89.6" class="st5" width="7.7" height="81.9"/>
		<rect x="303.1" y="89.6" class="st5" width="7.7" height="81.9"/>
		<rect x="314.5" y="89.6" class="st5" width="7.7" height="81.9"/>
		<rect x="325.9" y="89.6" class="st5" width="7.7" height="81.9"/>
		<rect x="349.6" y="89.6" class="st5" width="7.7" height="81.9"/>
		<rect x="337.8" y="89.6" class="st5" width="7.7" height="81.9"/>
		<rect x="361.4" y="89.6" class="st5" width="7.7" height="81.9"/>
		<rect x="373.5" y="89.6" class="st5" width="7.7" height="81.9"/>
		<rect x="385.3" y="89.6" class="st5" width="7.7" height="81.9"/>
		<rect x="396.9" y="89.6" class="st5" width="7.7" height="81.9"/>
		<rect x="408.6" y="89.6" class="st5" width="7.7" height="81.9"/>
		
			<rect x="293.1" y="86.9" transform="matrix(0.7071 -0.7071 0.7071 0.7071 23.3111 235.414)" class="st5" width="5.4" height="5.4"/>
		
			<rect x="304.3" y="86.9" transform="matrix(0.7071 -0.7071 0.7071 0.7071 26.5834 243.314)" class="st5" width="5.4" height="5.4"/>
		
			<rect x="315.6" y="86.9" transform="matrix(0.7071 -0.7071 0.7071 0.7071 29.9086 251.3426)" class="st5" width="5.4" height="5.4"/>
		
			<rect x="327.1" y="86.9" transform="matrix(0.7071 -0.7071 0.7071 0.7071 33.2532 259.4171)" class="st5" width="5.4" height="5.4"/>
		
			<rect x="338.9" y="86.9" transform="matrix(0.7071 -0.7071 0.7071 0.7071 36.7194 267.7852)" class="st5" width="5.4" height="5.4"/>
		
			<rect x="350.7" y="86.9" transform="matrix(0.7071 -0.7071 0.7071 0.7071 40.1855 276.1533)" class="st5" width="5.4" height="5.4"/>
		
			<rect x="362.6" y="86.9" transform="matrix(0.7071 -0.7071 0.7071 0.7071 43.652 284.5212)" class="st5" width="5.4" height="5.4"/>
		
			<rect x="374.6" y="86.9" transform="matrix(0.7071 -0.7071 0.7071 0.7071 47.1787 293.0363)" class="st5" width="5.4" height="5.4"/>
		
			<rect x="386.4" y="86.9" transform="matrix(0.7071 -0.7071 0.7071 0.7071 50.6449 301.4044)" class="st5" width="5.4" height="5.4"/>
		
			<rect x="398.1" y="86.9" transform="matrix(0.7071 -0.7071 0.7071 0.7071 54.0505 309.6255)" class="st5" width="5.4" height="5.4"/>
		
			<rect x="409.7" y="86.9" transform="matrix(0.7071 -0.7071 0.7071 0.7071 57.4559 317.8468)" class="st5" width="5.4" height="5.4"/>
		<rect x="288.7" y="177.3" class="st9" width="130.5" height="1.1"/>
		<rect x="292" y="89.6" class="st9" width="0.7" height="81.7"/>
		<rect x="303.2" y="89.7" class="st9" width="0.7" height="81.7"/>
		<rect x="314.5" y="89.7" class="st9" width="0.7" height="81.7"/>
		<rect x="325.9" y="89.6" class="st9" width="0.7" height="81.7"/>
		<rect x="337.8" y="89.6" class="st9" width="0.7" height="81.7"/>
		<rect x="349.2" y="89.6" class="st9" width="0.7" height="81.7"/>
		<rect x="361.4" y="89.6" class="st9" width="0.7" height="81.7"/>
		<rect x="373.5" y="89.6" class="st9" width="0.7" height="81.7"/>
		<rect x="385.3" y="89.6" class="st9" width="0.7" height="81.7"/>
		<rect x="396.9" y="89.6" class="st9" width="0.7" height="81.7"/>
		<rect x="408.6" y="89.6" class="st9" width="0.7" height="81.7"/>
		<rect x="288.7" y="99.3" class="st9" width="130.5" height="1.1"/>
		<rect x="288.7" y="93.4" class="st5" width="130.5" height="5.9"/>
		<rect x="279.2" y="81.5" class="st10" width="9.7" height="1.9"/>
		<rect x="418.9" y="81.5" class="st10" width="9.7" height="1.9"/>
	</g>
	<g>
		<path class="st5" d="M88.1,114.5c-0.4,0.4-0.9,0.8-1.6,1s-1.5,0.4-2.4,0.3c-0.8,0-1.5-0.2-2.1-0.6s-1-1-1.2-1.7s-0.3-1.6-0.2-2.5
			l0.1-0.4c0.2-1.5,0.8-2.8,1.6-3.7s2-1.3,3.2-1.3c1.1,0,2,0.3,2.6,0.9s0.9,1.4,1,2.5l-2.2,0c0-0.5-0.2-0.9-0.4-1.2
			c-0.2-0.2-0.6-0.4-1-0.4c-0.6,0-1.1,0.2-1.6,0.7c-0.4,0.5-0.7,1.3-0.8,2.2c-0.1,0.8-0.2,1.5-0.1,1.9c0.1,1.1,0.6,1.7,1.5,1.7
			c0.6,0,1-0.1,1.5-0.4l0.3-1.6h-1.6l0.3-1.6h4L88.1,114.5z"/>
		<path class="st5" d="M95.9,111.5h-3.7l-0.4,2.4h4.3l-0.3,1.8h-6.7l1.7-10h6.7l-0.3,1.9h-4.3l-0.4,2.1h3.7L95.9,111.5z"/>
		<path class="st5" d="M106,107.6h-2.9l-1.4,8.1h-2.3l1.4-8.1h-2.9l0.3-1.9h8.1L106,107.6z"/>
		<path class="st5" d="M114.5,113.8h-3.2l-0.9,1.9h-2.6l5.3-10h2.2l1.8,10h-2.4L114.5,113.8z M112.2,112h2.1l-0.4-3.4L112.2,112z"/>
		<path class="st5" d="M126,115.7h-2.3l-2.4-6.3l-1.1,6.3H118l1.7-10h2.3l2.4,6.3l1.1-6.3h2.3L126,115.7z"/>
		<path class="st5" d="M137.8,111.5h-3.7l-0.4,2.4h4.3l-0.3,1.8H131l1.7-10h6.7l-0.3,1.9h-4.3l-0.4,2.1h3.7L137.8,111.5z"/>
		<path class="st5" d="M144.2,113c0.1-0.5-0.2-0.9-0.8-1.2l-1.1-0.5c-1.6-0.7-2.3-1.7-2.2-2.9c0-0.6,0.2-1.1,0.6-1.5s0.8-0.8,1.5-1
			s1.3-0.4,2-0.3c1,0,1.8,0.3,2.4,0.9s0.9,1.3,0.9,2.2H145c0-0.4-0.1-0.7-0.2-0.9s-0.5-0.3-0.9-0.4c-0.4,0-0.7,0.1-1,0.3
			s-0.5,0.4-0.5,0.8c-0.1,0.5,0.3,0.8,1,1.1s1.3,0.5,1.7,0.8c1.1,0.7,1.6,1.5,1.5,2.6c0,0.6-0.2,1.1-0.6,1.5s-0.8,0.8-1.4,1
			s-1.3,0.4-2,0.3c-0.5,0-1-0.1-1.5-0.3s-0.9-0.4-1.2-0.7c-0.7-0.6-1-1.4-1-2.4l2.3,0c0,0.5,0.1,0.9,0.3,1.2s0.6,0.4,1.1,0.4
			c0.4,0,0.7-0.1,1-0.3S144.1,113.3,144.2,113z"/>
		<path class="st5" d="M156.3,107.6h-2.9l-1.4,8.1h-2.3l1.4-8.1h-2.9l0.3-1.9h8.1L156.3,107.6z"/>
		<path class="st5" d="M158.4,115.7h-2.3l1.7-10h2.3L158.4,115.7z"/>
		<path class="st5" d="M164.8,105.8l1,6.9l3.3-6.9h3.1l-1.7,10h-2.4l0.4-2.4l1-4.5l-3.5,6.9h-1.6l-1.1-7.2l-0.6,5l-0.4,2.2h-2.3
			l1.7-10H164.8z"/>
		<path class="st5" d="M178,113.8h-3.2l-0.9,1.9h-2.6l5.3-10h2.2l1.8,10h-2.4L178,113.8z M175.7,112h2.1l-0.4-3.4L175.7,112z"/>
		<path class="st5" d="M189.6,107.6h-2.9l-1.4,8.1H183l1.4-8.1h-2.9l0.3-1.9h8.1L189.6,107.6z"/>
		<path class="st5" d="M196,111.5h-3.7l-0.4,2.4h4.3l-0.3,1.8h-6.7l1.7-10h6.7l-0.3,1.9H193l-0.4,2.1h3.7L196,111.5z"/>
		<path class="st5" d="M197.1,114.7c0-0.3,0.1-0.6,0.3-0.9s0.5-0.4,0.9-0.4c0.4,0,0.6,0.1,0.9,0.3s0.4,0.5,0.4,0.8
			c0,0.3-0.1,0.6-0.3,0.9s-0.5,0.3-0.9,0.3c-0.3,0-0.6-0.1-0.9-0.3S197.1,115,197.1,114.7z M199.6,112.6h-1.8l0.9-6.8h2.4
			L199.6,112.6z"/>
	</g>
	<rect x="77.6" y="122.7" class="st5" width="127.3" height="3.9"/>
	<rect x="77.6" y="130.9" class="st5" width="79.7" height="3.3"/>
	<rect x="163.5" y="130.9" class="st5" width="39.8" height="3.3"/>
	<rect x="102" y="144" class="st4" width="76" height="17.7"/>
	<rect x="358.7" y="225.5" class="st4" width="98.9" height="17.4"/>
	<g>
		<path class="st5" d="M370.3,237.6h-2.9l-0.8,1.7h-2.3l4.7-9h2l1.7,9h-2.2L370.3,237.6z M368.2,235.9h1.9l-0.4-3.1L368.2,235.9z"/>
		<path class="st5" d="M373.4,239.3l1.5-9l2.8,0c1.1,0,2,0.2,2.5,0.6c0.6,0.4,0.8,1,0.8,1.8c-0.1,0.9-0.6,1.6-1.5,2
			c0.3,0.1,0.6,0.3,0.8,0.7c0.2,0.3,0.3,0.7,0.3,1.2c-0.1,0.9-0.4,1.5-1,2c-0.6,0.5-1.5,0.7-2.6,0.7H373.4z M376.1,235.4l-0.4,2.1
			l1.3,0c0.4,0,0.7-0.1,1-0.3c0.3-0.2,0.4-0.5,0.5-0.8c0.1-0.7-0.1-1-0.8-1.1L376.1,235.4z M376.4,234l1,0c0.9,0,1.4-0.4,1.5-1.1
			c0.1-0.7-0.3-1-1-1l-1.1,0L376.4,234z"/>
		<path class="st5" d="M388.8,236.2c-0.1,0.6-0.3,1.2-0.6,1.7c-0.4,0.5-0.8,0.9-1.4,1.1c-0.6,0.3-1.2,0.4-1.9,0.4
			c-0.9,0-1.7-0.3-2.2-0.9c-0.5-0.6-0.8-1.4-0.9-2.4c0-0.7,0-1.4,0.2-2.2c0.2-0.8,0.5-1.5,0.9-2c0.4-0.6,0.9-1,1.5-1.3
			s1.2-0.4,1.8-0.4c1,0,1.7,0.3,2.3,0.9c0.6,0.6,0.9,1.4,0.9,2.4l-2.1,0c0-0.5-0.1-0.9-0.3-1.2c-0.2-0.2-0.5-0.4-1-0.4
			c-1.1,0-1.8,0.8-2,2.6c-0.1,0.8-0.2,1.4-0.2,1.7c0,1,0.4,1.5,1.1,1.6c0.5,0,0.9-0.1,1.2-0.4c0.3-0.3,0.5-0.6,0.6-1.1L388.8,236.2z
			"/>
		<path class="st5" d="M398.6,235.7h-3.4l-0.6,3.6h-2.1l1.5-9h5.8l-0.3,1.7h-3.7l-0.4,2.1h3.4L398.6,235.7z"/>
		<path class="st5" d="M405.3,235.5H402l-0.4,2.1h3.9l-0.3,1.7h-6l1.5-9h6l-0.3,1.7h-3.9l-0.3,1.9h3.3L405.3,235.5z"/>
		<path class="st5" d="M413.4,239.3h-2l-2.1-5.7l-1,5.7h-2.1l1.5-9h2.1l2.1,5.7l1-5.7h2.1L413.4,239.3z"/>
		<path class="st5" d="M422.3,236.2c-0.1,0.6-0.3,1.2-0.6,1.7c-0.4,0.5-0.8,0.9-1.4,1.1c-0.6,0.3-1.2,0.4-1.9,0.4
			c-0.9,0-1.7-0.3-2.2-0.9c-0.5-0.6-0.8-1.4-0.9-2.4c0-0.7,0-1.4,0.2-2.2c0.2-0.8,0.5-1.5,0.9-2c0.4-0.6,0.9-1,1.5-1.3
			s1.2-0.4,1.8-0.4c1,0,1.7,0.3,2.3,0.9s0.9,1.4,0.9,2.4l-2.1,0c0-0.5-0.1-0.9-0.3-1.2c-0.2-0.2-0.5-0.4-1-0.4c-1.1,0-1.8,0.8-2,2.6
			c-0.1,0.8-0.2,1.4-0.2,1.7c0,1,0.4,1.5,1.1,1.6c0.5,0,0.9-0.1,1.2-0.4s0.5-0.6,0.6-1.1L422.3,236.2z"/>
		<path class="st5" d="M428.9,235.5h-3.3l-0.4,2.1h3.9l-0.3,1.7h-6l1.5-9h6l-0.3,1.7h-3.9l-0.3,1.9h3.3L428.9,235.5z"/>
		<path class="st5" d="M440.4,236.2c-0.1,0.6-0.3,1.2-0.6,1.7c-0.4,0.5-0.8,0.9-1.4,1.1c-0.6,0.3-1.2,0.4-1.9,0.4
			c-0.9,0-1.7-0.3-2.2-0.9c-0.5-0.6-0.8-1.4-0.9-2.4c0-0.7,0-1.4,0.2-2.2c0.2-0.8,0.5-1.5,0.9-2c0.4-0.6,0.9-1,1.5-1.3
			s1.2-0.4,1.8-0.4c1,0,1.7,0.3,2.3,0.9c0.6,0.6,0.9,1.4,0.9,2.4l-2.1,0c0-0.5-0.1-0.9-0.3-1.2c-0.2-0.2-0.5-0.4-1-0.4
			c-1.1,0-1.8,0.8-2,2.6c-0.1,0.8-0.2,1.4-0.2,1.7c0,1,0.4,1.5,1.1,1.6c0.5,0,0.9-0.1,1.2-0.4s0.5-0.6,0.6-1.1L440.4,236.2z"/>
		<path class="st5" d="M444.6,239.4c-0.9,0-1.7-0.3-2.2-0.9c-0.6-0.6-0.9-1.4-1-2.4c0-0.5,0-1.1,0.1-1.7c0.1-0.7,0.3-1.3,0.6-1.8
			c0.3-0.6,0.7-1,1.1-1.4c0.8-0.6,1.6-0.9,2.6-0.9c0.6,0,1.1,0.2,1.6,0.4s0.8,0.7,1.1,1.2c0.3,0.5,0.4,1.1,0.5,1.7
			c0,0.5,0,1-0.1,1.6c-0.1,0.6-0.3,1.1-0.5,1.7c-0.2,0.5-0.5,1-0.9,1.4c-0.4,0.4-0.8,0.7-1.3,1C445.8,239.3,445.3,239.4,444.6,239.4
			z M447,233.5c0-1-0.4-1.6-1.2-1.6c-0.6,0-1.1,0.2-1.4,0.7c-0.4,0.5-0.6,1.2-0.8,2.2c-0.1,0.6-0.1,1-0.1,1.4c0,1,0.4,1.6,1.2,1.6
			c0.5,0,0.9-0.2,1.3-0.5c0.4-0.4,0.6-0.9,0.8-1.7C447,234.8,447.1,234.1,447,233.5z"/>
		<path class="st5" d="M448.9,238.3c0-0.3,0.1-0.6,0.3-0.8s0.5-0.3,0.8-0.3c0.3,0,0.6,0.1,0.8,0.3c0.2,0.2,0.3,0.4,0.3,0.7
			c0,0.3-0.1,0.6-0.3,0.8c-0.2,0.2-0.5,0.3-0.8,0.3c-0.3,0-0.6-0.1-0.8-0.3S448.9,238.6,448.9,238.3z"/>
	</g>
	<g>
		<rect x="363.2" y="248.6" class="st5" width="5.5" height="57.6"/>
		<rect x="447.3" y="248.6" class="st5" width="5.5" height="57.6"/>
		<rect x="368.8" y="301.4" class="st5" width="78.5" height="4.3"/>
		<rect x="370.7" y="252.2" class="st5" width="4.6" height="49.3"/>
		<rect x="377.4" y="252.2" class="st5" width="4.6" height="49.3"/>
		<rect x="384.3" y="252.2" class="st5" width="4.6" height="49.3"/>
		<rect x="391.1" y="252.2" class="st5" width="4.6" height="49.3"/>
		<rect x="405.4" y="252.2" class="st5" width="4.6" height="49.3"/>
		<rect x="398.3" y="252.2" class="st5" width="4.6" height="49.3"/>
		<rect x="412.5" y="252.2" class="st5" width="4.6" height="49.3"/>
		<rect x="419.8" y="252.2" class="st5" width="4.6" height="49.3"/>
		<rect x="426.9" y="252.2" class="st5" width="4.6" height="49.3"/>
		<rect x="433.9" y="252.2" class="st5" width="4.6" height="49.3"/>
		<rect x="440.9" y="252.2" class="st5" width="4.6" height="49.3"/>
		
			<rect x="371.4" y="250.6" transform="matrix(0.7071 -0.7071 0.7071 0.7071 -69.1015 337.6545)" class="st5" width="3.3" height="3.3"/>
		
			<rect x="378.1" y="250.6" transform="matrix(0.7071 -0.7071 0.7071 0.7071 -67.1327 342.4076)" class="st5" width="3.3" height="3.3"/>
		
			<rect x="385" y="250.6" transform="matrix(0.7071 -0.7071 0.7071 0.7071 -65.1321 347.238)" class="st5" width="3.3" height="3.3"/>
		
			<rect x="391.8" y="250.6" transform="matrix(0.7071 -0.7071 0.7071 0.7071 -63.1198 352.096)" class="st5" width="3.3" height="3.3"/>
		
			<rect x="398.9" y="250.6" transform="matrix(0.7071 -0.7071 0.7071 0.7071 -61.0344 357.1307)" class="st5" width="3.3" height="3.3"/>
		
			<rect x="406.1" y="250.6" transform="matrix(0.7071 -0.7071 0.7071 0.7071 -58.9489 362.1654)" class="st5" width="3.3" height="3.3"/>
		
			<rect x="413.2" y="250.6" transform="matrix(0.7071 -0.7071 0.7071 0.7071 -56.8633 367.2)" class="st5" width="3.3" height="3.3"/>
		
			<rect x="420.4" y="250.6" transform="matrix(0.7071 -0.7071 0.7071 0.7071 -54.7415 372.3231)" class="st5" width="3.3" height="3.3"/>
		
			<rect x="427.6" y="250.6" transform="matrix(0.7071 -0.7071 0.7071 0.7071 -52.656 377.3578)" class="st5" width="3.3" height="3.3"/>
		
			<rect x="434.5" y="250.6" transform="matrix(0.7071 -0.7071 0.7071 0.7071 -50.607 382.3041)" class="st5" width="3.3" height="3.3"/>
		
			<rect x="441.5" y="250.6" transform="matrix(0.7071 -0.7071 0.7071 0.7071 -48.5582 387.2505)" class="st5" width="3.3" height="3.3"/>
		<rect x="368.8" y="305" class="st9" width="78.5" height="0.6"/>
		<rect x="370.7" y="252.2" class="st9" width="0.4" height="49.1"/>
		<rect x="377.4" y="252.3" class="st9" width="0.4" height="49.1"/>
		<rect x="384.3" y="252.3" class="st9" width="0.4" height="49.1"/>
		<rect x="391.1" y="252.2" class="st9" width="0.4" height="49.1"/>
		<rect x="398.3" y="252.2" class="st9" width="0.4" height="49.1"/>
		<rect x="405.2" y="252.2" class="st9" width="0.4" height="49.1"/>
		<rect x="412.5" y="252.2" class="st9" width="0.4" height="49.1"/>
		<rect x="419.8" y="252.2" class="st9" width="0.4" height="49.1"/>
		<rect x="426.9" y="252.2" class="st9" width="0.4" height="49.1"/>
		<rect x="433.9" y="252.2" class="st9" width="0.4" height="49.1"/>
		<rect x="440.9" y="252.2" class="st9" width="0.4" height="49.1"/>
		<rect x="368.8" y="258.1" class="st9" width="78.5" height="0.6"/>
		<rect x="368.8" y="254.5" class="st5" width="78.5" height="3.5"/>
		<rect x="363" y="247.4" class="st10" width="5.9" height="1.2"/>
		<rect x="447.1" y="247.4" class="st10" width="5.9" height="1.2"/>
	</g>
	<g>
		<path class="st5" d="M369,319.3c-0.3,0.3-0.7,0.6-1.2,0.7c-0.5,0.2-1.1,0.3-1.7,0.2c-0.6,0-1.1-0.2-1.5-0.5
			c-0.4-0.3-0.7-0.7-0.9-1.2c-0.2-0.5-0.2-1.1-0.1-1.8l0-0.3c0.2-1.1,0.5-2,1.2-2.7c0.6-0.7,1.4-1,2.3-1c0.8,0,1.4,0.2,1.9,0.6
			c0.4,0.4,0.7,1,0.7,1.8l-1.6,0c0-0.4-0.1-0.7-0.3-0.8s-0.4-0.3-0.7-0.3c-0.5,0-0.8,0.2-1.1,0.5c-0.3,0.4-0.5,0.9-0.6,1.6
			c-0.1,0.6-0.1,1.1-0.1,1.4c0,0.8,0.4,1.2,1.1,1.2c0.4,0,0.8-0.1,1.1-0.3l0.2-1.1h-1.2l0.2-1.2h2.9L369,319.3z"/>
		<path class="st5" d="M374.7,317.1H372l-0.3,1.7h3.1l-0.2,1.3h-4.8l1.3-7.2h4.8l-0.2,1.3h-3.1l-0.3,1.5h2.7L374.7,317.1z"/>
		<path class="st5" d="M382,314.3h-2.1l-1,5.9h-1.7l1-5.9h-2.1l0.2-1.3h5.9L382,314.3z"/>
		<path class="st5" d="M388.2,318.8h-2.3l-0.6,1.3h-1.9l3.8-7.2h1.6l1.3,7.2h-1.8L388.2,318.8z M386.5,317.5h1.5l-0.3-2.5
			L386.5,317.5z"/>
		<path class="st5" d="M396.6,320.2h-1.6l-1.7-4.6l-0.8,4.6h-1.7l1.3-7.2h1.7l1.7,4.6l0.8-4.6h1.7L396.6,320.2z"/>
		<path class="st5" d="M405.1,317.1h-2.7l-0.3,1.7h3.1l-0.2,1.3h-4.8l1.3-7.2h4.8l-0.2,1.3h-3.1l-0.3,1.5h2.7L405.1,317.1z"/>
		<path class="st5" d="M409.7,318.2c0.1-0.4-0.1-0.7-0.6-0.9l-0.8-0.3c-1.1-0.5-1.7-1.2-1.6-2.1c0-0.4,0.2-0.8,0.4-1.1
			c0.3-0.3,0.6-0.6,1.1-0.7c0.5-0.2,0.9-0.3,1.5-0.3c0.7,0,1.3,0.2,1.7,0.6c0.4,0.4,0.6,0.9,0.6,1.6h-1.7c0-0.3,0-0.5-0.2-0.7
			s-0.3-0.3-0.6-0.3c-0.3,0-0.5,0.1-0.8,0.2c-0.2,0.1-0.3,0.3-0.4,0.6c-0.1,0.3,0.2,0.6,0.7,0.8c0.6,0.2,1,0.4,1.2,0.5
			c0.8,0.5,1.2,1.1,1.1,1.9c0,0.4-0.2,0.8-0.4,1.1c-0.2,0.3-0.6,0.6-1,0.7c-0.4,0.2-0.9,0.3-1.4,0.2c-0.4,0-0.8-0.1-1.1-0.2
			c-0.3-0.1-0.6-0.3-0.9-0.5c-0.5-0.4-0.7-1-0.7-1.8l1.7,0c0,0.4,0.1,0.7,0.2,0.8c0.2,0.2,0.4,0.3,0.8,0.3c0.3,0,0.5-0.1,0.7-0.2
			S409.7,318.5,409.7,318.2z"/>
		<path class="st5" d="M418.5,314.3h-2.1l-1,5.9h-1.7l1-5.9h-2.1l0.2-1.3h5.9L418.5,314.3z"/>
		<path class="st5" d="M420,320.2h-1.7l1.3-7.2h1.7L420,320.2z"/>
		<path class="st5" d="M424.7,313l0.7,5l2.4-5h2.3l-1.3,7.2h-1.7l0.3-1.8l0.7-3.3l-2.5,5h-1.1l-0.8-5.2l-0.5,3.6l-0.3,1.6h-1.7
			l1.3-7.2H424.7z"/>
		<path class="st5" d="M434.2,318.8h-2.3l-0.6,1.3h-1.9l3.8-7.2h1.6l1.3,7.2h-1.8L434.2,318.8z M432.6,317.5h1.5l-0.3-2.5
			L432.6,317.5z"/>
		<path class="st5" d="M442.7,314.3h-2.1l-1,5.9h-1.7l1-5.9h-2.1l0.2-1.3h5.9L442.7,314.3z"/>
		<path class="st5" d="M447.3,317.1h-2.7l-0.3,1.7h3.1l-0.2,1.3h-4.8l1.3-7.2h4.8l-0.2,1.3h-3.1l-0.3,1.5h2.7L447.3,317.1z"/>
		<path class="st5" d="M448.1,319.5c0-0.2,0.1-0.4,0.3-0.6c0.2-0.2,0.4-0.3,0.6-0.3c0.3,0,0.5,0.1,0.6,0.2c0.2,0.2,0.3,0.3,0.3,0.6
			c0,0.2-0.1,0.5-0.3,0.6c-0.2,0.2-0.4,0.3-0.6,0.3c-0.2,0-0.5-0.1-0.6-0.2C448.2,319.9,448.1,319.7,448.1,319.5z M449.9,317.9h-1.3
			l0.6-4.9h1.7L449.9,317.9z"/>
	</g>
	<rect x="363.2" y="324.5" class="st4" width="89.5" height="17.7"/>
	<rect x="363.2" y="347.5" class="st5" width="93.6" height="25.1"/>
	<rect x="363.2" y="378.4" class="st5" width="93.6" height="4.1"/>
	<rect x="363.2" y="386.8" class="st5" width="58.5" height="3.4"/>
	<rect x="426.4" y="386.8" class="st5" width="29.3" height="3.4"/>
	<path class="st11" d="M488.7,332.8v80.8c0,1.3-1,2.3-2.3,2.3h-48c-1.3,0-2.3-1-2.3-2.3v-80.8c0-1.3,1-2.3,2.3-2.3h48
		C487.6,330.5,488.7,331.6,488.7,332.8z"/>
	<rect x="440.9" y="335.7" class="st12" width="43.4" height="7.6"/>
	<g>
		<path class="st5" d="M445.9,341h-1.3l-0.3,0.7h-1l2.1-3.9h0.9l0.7,3.9h-1L445.9,341z M445,340.3h0.8l-0.2-1.4L445,340.3z"/>
		<path class="st5" d="M447.3,341.7l0.7-3.9l1.3,0c0.5,0,0.9,0.1,1.1,0.3s0.4,0.4,0.3,0.8c0,0.4-0.3,0.7-0.7,0.9
			c0.2,0.1,0.3,0.2,0.4,0.3c0.1,0.1,0.1,0.3,0.1,0.5c0,0.4-0.2,0.7-0.5,0.9s-0.6,0.3-1.1,0.3H447.3z M448.5,340.1l-0.2,0.9l0.6,0
			c0.2,0,0.3,0,0.4-0.1s0.2-0.2,0.2-0.3c0.1-0.3-0.1-0.5-0.3-0.5L448.5,340.1z M448.6,339.5l0.4,0c0.4,0,0.6-0.2,0.7-0.5
			c0-0.3-0.1-0.4-0.5-0.4l-0.5,0L448.6,339.5z"/>
		<path class="st5" d="M454.1,340.4c0,0.3-0.1,0.5-0.3,0.7c-0.2,0.2-0.4,0.4-0.6,0.5c-0.3,0.1-0.5,0.2-0.8,0.2c-0.4,0-0.7-0.1-1-0.4
			s-0.4-0.6-0.4-1c0-0.3,0-0.6,0.1-1s0.2-0.6,0.4-0.9c0.2-0.3,0.4-0.4,0.6-0.6c0.2-0.1,0.5-0.2,0.8-0.2c0.4,0,0.8,0.1,1,0.4
			s0.4,0.6,0.4,1l-0.9,0c0-0.2,0-0.4-0.1-0.5s-0.2-0.2-0.4-0.2c-0.5,0-0.8,0.4-0.9,1.1c0,0.3-0.1,0.6-0.1,0.7c0,0.4,0.2,0.7,0.5,0.7
			c0.2,0,0.4,0,0.5-0.2s0.2-0.3,0.2-0.5L454.1,340.4z"/>
		<path class="st5" d="M458.4,340.2h-1.5l-0.3,1.6h-0.9l0.7-3.9h2.6l-0.1,0.7h-1.6l-0.2,0.9h1.5L458.4,340.2z"/>
		<path class="st5" d="M461.3,340.1h-1.4l-0.2,0.9h1.7l-0.1,0.7h-2.6l0.7-3.9h2.6l-0.1,0.7h-1.7l-0.1,0.8h1.4L461.3,340.1z"/>
		<path class="st5" d="M464.9,341.7H464l-0.9-2.5l-0.4,2.5h-0.9l0.7-3.9h0.9l0.9,2.5l0.4-2.5h0.9L464.9,341.7z"/>
		<path class="st5" d="M468.8,340.4c0,0.3-0.1,0.5-0.3,0.7c-0.2,0.2-0.4,0.4-0.6,0.5c-0.3,0.1-0.5,0.2-0.8,0.2c-0.4,0-0.7-0.1-1-0.4
			s-0.4-0.6-0.4-1c0-0.3,0-0.6,0.1-1s0.2-0.6,0.4-0.9c0.2-0.3,0.4-0.4,0.6-0.6c0.2-0.1,0.5-0.2,0.8-0.2c0.4,0,0.8,0.1,1,0.4
			s0.4,0.6,0.4,1l-0.9,0c0-0.2,0-0.4-0.1-0.5s-0.2-0.2-0.4-0.2c-0.5,0-0.8,0.4-0.9,1.1c0,0.3-0.1,0.6-0.1,0.7c0,0.4,0.2,0.7,0.5,0.7
			c0.2,0,0.4,0,0.5-0.2s0.2-0.3,0.2-0.5L468.8,340.4z"/>
		<path class="st5" d="M471.7,340.1h-1.4l-0.2,0.9h1.7l-0.1,0.7H469l0.7-3.9h2.6l-0.1,0.7h-1.7l-0.1,0.8h1.4L471.7,340.1z"/>
		<path class="st5" d="M476.7,340.4c0,0.3-0.1,0.5-0.3,0.7c-0.2,0.2-0.4,0.4-0.6,0.5c-0.3,0.1-0.5,0.2-0.8,0.2c-0.4,0-0.7-0.1-1-0.4
			s-0.4-0.6-0.4-1c0-0.3,0-0.6,0.1-1s0.2-0.6,0.4-0.9c0.2-0.3,0.4-0.4,0.6-0.6c0.2-0.1,0.5-0.2,0.8-0.2c0.4,0,0.8,0.1,1,0.4
			s0.4,0.6,0.4,1l-0.9,0c0-0.2,0-0.4-0.1-0.5s-0.2-0.2-0.4-0.2c-0.5,0-0.8,0.4-0.9,1.1c0,0.3-0.1,0.6-0.1,0.7c0,0.4,0.2,0.7,0.5,0.7
			c0.2,0,0.4,0,0.5-0.2s0.2-0.3,0.2-0.5L476.7,340.4z"/>
		<path class="st5" d="M478.6,341.8c-0.4,0-0.7-0.1-1-0.4c-0.2-0.3-0.4-0.6-0.4-1c0-0.2,0-0.5,0.1-0.8c0.1-0.3,0.1-0.6,0.3-0.8
			c0.1-0.2,0.3-0.5,0.5-0.6c0.3-0.3,0.7-0.4,1.2-0.4c0.3,0,0.5,0.1,0.7,0.2c0.2,0.1,0.4,0.3,0.5,0.5c0.1,0.2,0.2,0.5,0.2,0.8
			c0,0.2,0,0.4,0,0.7c0,0.3-0.1,0.5-0.2,0.7s-0.2,0.4-0.4,0.6c-0.2,0.2-0.4,0.3-0.6,0.4C479.1,341.8,478.8,341.8,478.6,341.8z
			 M479.6,339.2c0-0.5-0.2-0.7-0.5-0.7c-0.3,0-0.5,0.1-0.6,0.3c-0.2,0.2-0.3,0.5-0.3,1c0,0.3,0,0.5,0,0.6c0,0.5,0.2,0.7,0.5,0.7
			c0.2,0,0.4-0.1,0.6-0.2s0.3-0.4,0.3-0.7S479.6,339.5,479.6,339.2z"/>
		<path class="st5" d="M480.4,341.3c0-0.1,0-0.3,0.1-0.3c0.1-0.1,0.2-0.1,0.3-0.1c0.1,0,0.2,0,0.3,0.1c0.1,0.1,0.1,0.2,0.1,0.3
			c0,0.1,0,0.2-0.1,0.3c-0.1,0.1-0.2,0.1-0.4,0.1s-0.3,0-0.3-0.1C480.5,341.6,480.4,341.5,480.4,341.3z"/>
	</g>
	<g>
		<path class="st5" d="M444,349c-0.1,0.2-0.3,0.3-0.6,0.4s-0.5,0.1-0.8,0.1c-0.3,0-0.5-0.1-0.7-0.2c-0.2-0.1-0.3-0.3-0.4-0.6
			c-0.1-0.3-0.1-0.5-0.1-0.9l0-0.1c0.1-0.5,0.3-1,0.6-1.3c0.3-0.3,0.7-0.5,1.1-0.5c0.4,0,0.7,0.1,0.9,0.3s0.3,0.5,0.3,0.9l-0.8,0
			c0-0.2-0.1-0.3-0.1-0.4s-0.2-0.1-0.3-0.1c-0.2,0-0.4,0.1-0.5,0.3c-0.1,0.2-0.2,0.4-0.3,0.8c0,0.3-0.1,0.5,0,0.7
			c0,0.4,0.2,0.6,0.5,0.6c0.2,0,0.4,0,0.5-0.1l0.1-0.5h-0.6l0.1-0.6h1.4L444,349z"/>
		<path class="st5" d="M446.7,348h-1.3l-0.1,0.8h1.5l-0.1,0.6h-2.3l0.6-3.5h2.3l-0.1,0.6h-1.5l-0.1,0.7h1.3L446.7,348z"/>
		<path class="st5" d="M450.3,346.6h-1l-0.5,2.8h-0.8l0.5-2.8h-1l0.1-0.6h2.8L450.3,346.6z"/>
		<path class="st5" d="M453.2,348.8h-1.1l-0.3,0.7h-0.9l1.8-3.5h0.8l0.6,3.5h-0.9L453.2,348.8z M452.4,348.1h0.7l-0.2-1.2
			L452.4,348.1z"/>
		<path class="st5" d="M457.3,349.4h-0.8l-0.8-2.2l-0.4,2.2h-0.8l0.6-3.5h0.8l0.8,2.2l0.4-2.2h0.8L457.3,349.4z"/>
		<path class="st5" d="M461.4,348h-1.3l-0.1,0.8h1.5l-0.1,0.6H459l0.6-3.5h2.3l-0.1,0.6h-1.5l-0.1,0.7h1.3L461.4,348z"/>
		<path class="st5" d="M463.7,348.5c0-0.2-0.1-0.3-0.3-0.4l-0.4-0.2c-0.6-0.2-0.8-0.6-0.8-1c0-0.2,0.1-0.4,0.2-0.5
			c0.1-0.2,0.3-0.3,0.5-0.4c0.2-0.1,0.5-0.1,0.7-0.1c0.3,0,0.6,0.1,0.8,0.3c0.2,0.2,0.3,0.5,0.3,0.8h-0.8c0-0.1,0-0.2-0.1-0.3
			s-0.2-0.1-0.3-0.1c-0.1,0-0.3,0-0.4,0.1c-0.1,0.1-0.2,0.2-0.2,0.3c0,0.2,0.1,0.3,0.4,0.4c0.3,0.1,0.5,0.2,0.6,0.3
			c0.4,0.2,0.6,0.5,0.5,0.9c0,0.2-0.1,0.4-0.2,0.5c-0.1,0.2-0.3,0.3-0.5,0.4s-0.4,0.1-0.7,0.1c-0.2,0-0.4,0-0.5-0.1
			c-0.2-0.1-0.3-0.1-0.4-0.2c-0.2-0.2-0.3-0.5-0.3-0.9l0.8,0c0,0.2,0,0.3,0.1,0.4c0.1,0.1,0.2,0.1,0.4,0.1c0.1,0,0.3,0,0.3-0.1
			C463.6,348.7,463.6,348.6,463.7,348.5z"/>
		<path class="st5" d="M467.9,346.6h-1l-0.5,2.8h-0.8l0.5-2.8h-1l0.1-0.6h2.8L467.9,346.6z"/>
		<path class="st5" d="M468.6,349.4h-0.8l0.6-3.5h0.8L468.6,349.4z"/>
		<path class="st5" d="M470.9,345.9l0.3,2.4l1.2-2.4h1.1l-0.6,3.5h-0.8l0.1-0.9l0.4-1.6l-1.2,2.4h-0.5l-0.4-2.5l-0.2,1.8l-0.1,0.8
			h-0.8l0.6-3.5H470.9z"/>
		<path class="st5" d="M475.5,348.8h-1.1l-0.3,0.7h-0.9l1.8-3.5h0.8l0.6,3.5h-0.9L475.5,348.8z M474.7,348.1h0.7l-0.2-1.2
			L474.7,348.1z"/>
		<path class="st5" d="M479.6,346.6h-1l-0.5,2.8h-0.8l0.5-2.8h-1l0.1-0.6h2.8L479.6,346.6z"/>
		<path class="st5" d="M481.8,348h-1.3l-0.1,0.8h1.5l-0.1,0.6h-2.3l0.6-3.5h2.3l-0.1,0.6h-1.5l-0.1,0.7h1.3L481.8,348z"/>
		<path class="st5" d="M482.2,349.1c0-0.1,0-0.2,0.1-0.3c0.1-0.1,0.2-0.1,0.3-0.1c0.1,0,0.2,0,0.3,0.1c0.1,0.1,0.1,0.2,0.1,0.3
			c0,0.1,0,0.2-0.1,0.3c-0.1,0.1-0.2,0.1-0.3,0.1c-0.1,0-0.2,0-0.3-0.1C482.3,349.3,482.2,349.2,482.2,349.1z M483.1,348.3h-0.6
			l0.3-2.4h0.8L483.1,348.3z"/>
	</g>
	<rect x="440.9" y="382.6" class="st4" width="43.3" height="8.5"/>
	<g>
		<rect x="441.1" y="352.7" class="st5" width="2.7" height="27.7"/>
		<rect x="481.5" y="352.7" class="st5" width="2.7" height="27.7"/>
		<rect x="443.7" y="378.1" class="st5" width="37.7" height="2.1"/>
		<rect x="444.7" y="354.5" class="st5" width="2.2" height="23.7"/>
		<rect x="447.9" y="354.5" class="st5" width="2.2" height="23.7"/>
		<rect x="451.2" y="354.5" class="st5" width="2.2" height="23.7"/>
		<rect x="454.5" y="354.5" class="st5" width="2.2" height="23.7"/>
		<rect x="461.3" y="354.5" class="st5" width="2.2" height="23.7"/>
		<rect x="457.9" y="354.5" class="st5" width="2.2" height="23.7"/>
		<rect x="464.8" y="354.5" class="st5" width="2.2" height="23.7"/>
		<rect x="468.2" y="354.5" class="st5" width="2.2" height="23.7"/>
		<rect x="471.7" y="354.5" class="st5" width="2.2" height="23.7"/>
		<rect x="475" y="354.5" class="st5" width="2.2" height="23.7"/>
		<rect x="478.4" y="354.5" class="st5" width="2.2" height="23.7"/>
		
			<rect x="445" y="353.7" transform="matrix(0.7071 -0.7071 0.7071 0.7071 -120.0813 419.0452)" class="st5" width="1.6" height="1.6"/>
		
			<rect x="448.2" y="353.7" transform="matrix(0.7071 -0.7071 0.7071 0.7071 -119.1351 421.3296)" class="st5" width="1.6" height="1.6"/>
		
			<rect x="451.5" y="353.7" transform="matrix(0.7071 -0.7071 0.7071 0.7071 -118.1735 423.6512)" class="st5" width="1.6" height="1.6"/>
		
			<rect x="454.8" y="353.7" transform="matrix(0.7071 -0.7071 0.7071 0.7071 -117.2064 425.986)" class="st5" width="1.6" height="1.6"/>
		
			<rect x="458.2" y="353.7" transform="matrix(0.7071 -0.7071 0.7071 0.7071 -116.2041 428.4057)" class="st5" width="1.6" height="1.6"/>
		
			<rect x="461.7" y="353.7" transform="matrix(0.7071 -0.7071 0.7071 0.7071 -115.2019 430.8255)" class="st5" width="1.6" height="1.6"/>
		
			<rect x="465.1" y="353.7" transform="matrix(0.7071 -0.7071 0.7071 0.7071 -114.1995 433.2452)" class="st5" width="1.6" height="1.6"/>
		
			<rect x="468.6" y="353.7" transform="matrix(0.7071 -0.7071 0.7071 0.7071 -113.1797 435.7074)" class="st5" width="1.6" height="1.6"/>
		
			<rect x="472" y="353.7" transform="matrix(0.7071 -0.7071 0.7071 0.7071 -112.1774 438.1271)" class="st5" width="1.6" height="1.6"/>
		
			<rect x="475.4" y="353.7" transform="matrix(0.7071 -0.7071 0.7071 0.7071 -111.1926 440.5044)" class="st5" width="1.6" height="1.6"/>
		
			<rect x="478.7" y="353.7" transform="matrix(0.7071 -0.7071 0.7071 0.7071 -110.2079 442.8817)" class="st5" width="1.6" height="1.6"/>
		<rect x="443.7" y="379.8" class="st9" width="37.7" height="0.3"/>
		<rect x="444.7" y="354.5" class="st9" width="0.2" height="23.6"/>
		<rect x="447.9" y="354.5" class="st9" width="0.2" height="23.6"/>
		<rect x="451.2" y="354.5" class="st9" width="0.2" height="23.6"/>
		<rect x="454.5" y="354.5" class="st9" width="0.2" height="23.6"/>
		<rect x="457.9" y="354.5" class="st9" width="0.2" height="23.6"/>
		<rect x="461.2" y="354.5" class="st9" width="0.2" height="23.6"/>
		<rect x="464.8" y="354.5" class="st9" width="0.2" height="23.6"/>
		<rect x="468.2" y="354.5" class="st9" width="0.2" height="23.6"/>
		<rect x="471.7" y="354.5" class="st9" width="0.2" height="23.6"/>
		<rect x="475" y="354.5" class="st9" width="0.2" height="23.6"/>
		<rect x="478.4" y="354.5" class="st9" width="0.2" height="23.6"/>
		<rect x="443.7" y="357.3" class="st9" width="37.7" height="0.3"/>
		<rect x="443.7" y="355.6" class="st5" width="37.7" height="1.7"/>
		<rect x="441" y="352.1" class="st10" width="2.8" height="0.6"/>
		<rect x="481.4" y="352.1" class="st10" width="2.8" height="0.6"/>
	</g>
	<rect x="441.1" y="393" class="st5" width="42.4" height="1.8"/>
	<rect x="441.1" y="396.8" class="st5" width="26.5" height="1.6"/>
	<rect x="469.7" y="396.8" class="st5" width="14.1" height="1.6"/>
	<rect x="441.4" y="400.8" class="st5" width="42.4" height="1.8"/>
	<rect x="441.4" y="404.7" class="st5" width="26.5" height="1.6"/>
	<rect x="470" y="404.7" class="st5" width="13.8" height="1.6"/>
	<g>
		<path class="st5" d="M126.7,153.2c0,0.4-0.2,0.8-0.4,1.1s-0.5,0.6-0.9,0.7s-0.8,0.3-1.2,0.2c-0.6,0-1.1-0.2-1.4-0.6
			c-0.4-0.4-0.5-0.9-0.6-1.5c0-0.4,0-0.9,0.1-1.4s0.3-1,0.6-1.3s0.6-0.7,1-0.9c0.4-0.2,0.8-0.3,1.2-0.3c0.6,0,1.1,0.2,1.5,0.6
			c0.4,0.4,0.6,0.9,0.6,1.5l-1.4,0c0-0.4-0.1-0.6-0.2-0.8c-0.1-0.2-0.3-0.2-0.6-0.2c-0.7,0-1.2,0.5-1.3,1.7
			c-0.1,0.5-0.1,0.9-0.1,1.1c0,0.7,0.2,1,0.7,1c0.3,0,0.6-0.1,0.8-0.2c0.2-0.2,0.3-0.4,0.4-0.7L126.7,153.2z"/>
		<path class="st5" d="M128.6,154.1h2.4l-0.2,1.1H127l1-5.9h1.4L128.6,154.1z"/>
		<path class="st5" d="M132.9,155.2h-1.4l1-5.9h1.4L132.9,155.2z"/>
		<path class="st5" d="M138.8,153.2c0,0.4-0.2,0.8-0.4,1.1s-0.5,0.6-0.9,0.7s-0.8,0.3-1.2,0.2c-0.6,0-1.1-0.2-1.4-0.6
			c-0.4-0.4-0.5-0.9-0.6-1.5c0-0.4,0-0.9,0.1-1.4s0.3-1,0.6-1.3s0.6-0.7,1-0.9c0.4-0.2,0.8-0.3,1.2-0.3c0.6,0,1.1,0.2,1.5,0.6
			c0.4,0.4,0.6,0.9,0.6,1.5l-1.4,0c0-0.4-0.1-0.6-0.2-0.8c-0.1-0.2-0.3-0.2-0.6-0.2c-0.7,0-1.2,0.5-1.3,1.7
			c-0.1,0.5-0.1,0.9-0.1,1.1c0,0.7,0.2,1,0.7,1c0.3,0,0.6-0.1,0.8-0.2c0.2-0.2,0.3-0.4,0.4-0.7L138.8,153.2z"/>
		<path class="st5" d="M141.5,153l-0.7,0.7l-0.3,1.5h-1.4l1-5.9h1.4l-0.4,2.5l0.6-0.7l1.5-1.8h1.8l-2.4,2.6l1.3,3.2h-1.6L141.5,153z
			"/>
		<path class="st5" d="M149.1,149.3l0.6,4.1l2-4.1h1.8l-1,5.9h-1.4l0.2-1.4l0.6-2.6l-2,4.1h-0.9l-0.7-4.2l-0.4,2.9l-0.2,1.3h-1.4
			l1-5.9H149.1z"/>
		<path class="st5" d="M157.3,152.7h-2.1l-0.2,1.4h2.5l-0.2,1.1h-3.9l1-5.9h3.9l-0.2,1.1h-2.5l-0.2,1.2h2.2L157.3,152.7z"/>
	</g>
	<polygon class="st13" points="428.6,81.5 459.3,135.8 459.3,197.1 297.7,197.1 279.6,179.2 428.4,179.2 	"/>
</g>
<g id="objects">
	<ellipse class="st14" cx="250" cy="440.8" rx="250" ry="7.4"/>
</g>
</svg>
