<?xml version="1.0" encoding="utf-8"?>
<!-- Generator: Adobe Illustrator 19.1.0, SVG Export Plug-In . SVG Version: 6.00 Build 0)  -->
<svg version="1.1" xmlns="http://www.w3.org/2000/svg" xmlns:xlink="http://www.w3.org/1999/xlink" x="0px" y="0px"
	 viewBox="0 0 729.1 636" style="enable-background:new 0 0 729.1 636;" xml:space="preserve">
<style type="text/css">
	.st0{fill:#99D5E2;}
	.st1{fill:#E5E5E5;}
	.st2{fill:#BE374A;}
	.st3{fill:#464B4C;}
	.st4{fill:#222626;}
	.st5{fill:#3E5660;}
	.st6{fill:#F3FEFF;}
	.st7{fill:#146666;}
	.st8{fill:#3295AB;}
	.st9{fill:#597782;}
	.st10{fill:#FFDCB8;}
	.st11{fill:#FFFFFF;}
	.st12{fill:#303030;}
	.st13{fill:#111111;}
	.st14{fill:#5D5D5D;}
	.st15{fill:#EAEAEA;}
	.st16{fill:#212121;}
	.st17{fill:#999999;}
	.st18{fill:#353535;}
	.st19{fill:#6A939E;}
	.st20{fill:#AFAFAF;}
	.st21{fill:#42300B;}
	.st22{fill:#CB8F5E;}
	.st23{fill:#190F08;}
	.st24{fill:#493918;}
	.st25{fill:#DA9089;}
	.st26{fill:#753427;}
	.st27{fill:#EDBF96;}
	.st28{fill:#FFFCEB;}
	.st29{fill:none;stroke:#464B4C;stroke-linecap:round;stroke-miterlimit:10;}
	.st30{fill:#424E51;}
	.st31{fill:#D8D8D8;}
	.st32{fill:#303F42;}
	.st33{fill:#E2E2E2;}
	.st34{fill:#7E7F7F;}
	.st35{fill:#676B6B;}
	.st36{fill:#C4C4C4;}
	.st37{fill:#444444;}
	.st38{fill:#B1E9F2;}
</style>
<g id="background">
	<g>
		<path class="st0" d="M769.1-74"/>
	</g>
</g>
<g id="Objects">
	<g>
		<path class="st1" d="M729.1,575.3c0,30.2-176.2,51.4-364.5,51.4C163.2,626.7,0,603.7,0,575.3s163.2-51.4,364.5-51.4
			S729.1,546.9,729.1,575.3z"/>
		<g>
			<path class="st2" d="M372.5,575.3c0,0,31.4,10.9,35.4,13.1s17.4,20.3,20.7,18.9s15.6-12,17.4-24.5c1.8-12.5-34.9-22.7-42.1-22
				c0,0-6.4-6.2-12.3-6.5c-6-0.4-14.5,0-14.5,0L372.5,575.3z"/>
			<path class="st2" d="M294.6,551.3c0,0-30.1,11.4-34.9,15.9c-4.7,4.5,6.5,25.2,17.4,28.1c0,0,25.4-26.7,30.5-28.1
				c5.1-1.3,18.2-3.5,18.2-3.5S309.2,545.5,294.6,551.3z"/>
			<path class="st3" d="M303.3,505c0,0-50.9-4.6-61.8-6.8c-10.9-2.2-34.7,0-40.7,4.2s-4.4,21.1,0,26c4.4,4.9,171.7,53.2,182,55.4
				c0,0,11.1-16.3,9.1-31c0,0,85-5.8,91.6-15.2s0.4-32.2-8.8-34.4c-9.2-2.2-73.3,6-87.5,5.2C373,507.5,303.3,505,303.3,505z"/>
			<path class="st4" d="M241.5,512.2c0,0,105.5,26.9,149.8,33.4c0,0,0.4,3.5,0.6,7.1l-2.9-4.4C389,548.4,271.1,525.9,241.5,512.2z"
				/>
			<path class="st4" d="M457.3,515c0,0-91.5,20.7-109.3,21.2C348,536.2,427.5,519.9,457.3,515z"/>
		</g>
		<g>
			<g>
				<path class="st5" d="M246,275.4c0,0-4,4.5-2.9,9.5c1.1,5,22.2,57.7,25.9,61s13.7-1.4,14-1.5C283.4,344.3,246,275.4,246,275.4z"
					/>
				<path class="st6" d="M246,275.4c1.9-6.6,38.1-18.5,41.4-15.4c3.3,3.1,30,66.4,29.3,70.1c-0.6,3.7-38.3,16.8-40.9,15.7
					C273.2,344.7,245.3,277.9,246,275.4z"/>
				<path class="st7" d="M252.4,280.3c1.5-5.4,31.2-15.1,33.9-12.6c2.7,2.5,21.6,49.2,21.1,52.3c-0.5,3.1-31.3,13.8-33.4,12.9
					C271.8,332,251.8,282.4,252.4,280.3z"/>
				<path class="st8" d="M252.4,280.3c1.5-5.4,31.2-15.1,33.9-12.6c2.7,2.5,21.6,49.2,21.1,52.3c-0.5,3.1-31.3,13.8-33.4,12.9
					C271.8,332,251.8,282.4,252.4,280.3z"/>
				<circle class="st9" cx="296.1" cy="332.9" r="3.4"/>
			</g>
			<g>
				<path class="st3" d="M248.9,307c0,0-49,50.7-45.2,85.1s50.6,77.3,122.5,6.5c0,0,10.3-14.7,5.8-21.4s-15.4,14.9-35.9,28
					s-49.4,24.1-65.7,2c-16.3-22.1,4.8-54,26.9-77.6L248.9,307z"/>
				<path class="st10" d="M248.9,313.1c0,0-5.2-7-2.9-10.5c2.3-3.4,16-10,19.6-8.5c3.6,1.5-8.4,11.2-10.1,14.9
					c0,0,15.9-7.1,18.4-2.1c2.6,5-11,13.4-11,13.4s13.1-3.3,16.9,0s-15.4,12.4-19,12.6s-9.1-3.9-6.5-8.2
					C254.3,324.7,246.3,318.9,248.9,313.1z"/>
			</g>
			<g>
				<g>
					<path class="st11" d="M232.6,277.1c-0.8,0-1.5-0.6-1.5-1.4c0-0.2-0.4-15.9,15.6-18.6c0.8-0.1,1.6,0.4,1.7,1.2
						c0.1,0.8-0.4,1.6-1.2,1.7c-13.4,2.3-13.1,15-13.1,15.5C234.2,276.3,233.5,277,232.6,277.1C232.7,277.1,232.6,277.1,232.6,277.1
						z"/>
				</g>
				<g>
					<path class="st11" d="M239.4,278.1c-0.8,0-1.5-0.6-1.5-1.4c-0.2-4,2-12,11.4-13.6c0.8-0.1,1.6,0.4,1.7,1.2
						c0.1,0.8-0.4,1.6-1.2,1.7c-9.1,1.5-8.9,10.1-8.9,10.5C240.9,277.4,240.3,278.1,239.4,278.1
						C239.4,278.1,239.4,278.1,239.4,278.1z"/>
				</g>
				<g>
					<path class="st11" d="M227.1,276.3c-0.8,0-1.5-0.6-1.5-1.4c0-0.2-0.8-20.7,20-24.5c0.8-0.1,1.6,0.4,1.7,1.2s-0.4,1.6-1.2,1.7
						c-18.3,3.3-17.6,20.6-17.6,21.4C228.6,275.6,228,276.3,227.1,276.3C227.2,276.3,227.1,276.3,227.1,276.3z"/>
				</g>
			</g>
		</g>
		<g>
			<g>
				<path class="st12" d="M562.3,340.6c0,0,1.9-23.9,3.3-24.2s55.2-2.4,60.8-0.8c0,0-0.2,20.8-1.6,25.3c0,0-7.8,1.7-10.1,0.7
					c0,0,1.1-16.6,0.2-17.4c-0.9-0.9-41.4,0.9-41.5,1.3c0,0.4-1,16-1,16S564,341.8,562.3,340.6z"/>
				<path class="st13" d="M658.5,346.9c0,0-21.9-7.2-33.4-7.8s-15.9,92.6-11.4,93.8c4.5,1.2,22.1,2.8,26.2,2.2
					C644,434.7,656.7,375.7,658.5,346.9z"/>
				<path class="st12" d="M525.8,344.2c0.7-1.5,97.1-9,104.5-3.8c0,0-9,87.7-16.5,92.6c0,0-61.3,8.1-91.7,3.1
					C522.1,436.1,515.8,367.8,525.8,344.2z"/>
				<path class="st14" d="M645.8,343.1c0,0-8.2,70.1-19.1,91.6l2.1,0.2c0,0,13.9-27.9,19.3-91.2L645.8,343.1z"/>
				<path class="st15" d="M635.3,409.4c0,0,18.9,3.6,23.5,12.1l10.7-49.1c0,0-12.5-4.9-26.1-5.8
					C643.4,366.5,637.8,395.1,635.3,409.4z"/>
				<path class="st11" d="M645.2,353c0,0-4.2,35.1-8.3,50.1l17.3,6.3c0,0,10.7-53,10.7-56.4H645.2z"/>
			</g>
			<path class="st16" d="M522.1,436.1c0,0,12.4,2.1,19.3,2.9c0,0,70.7,0,98.5-3.8l-30.5-7.5C609.4,427.8,531.1,436.5,522.1,436.1z"
				/>
			<g>
				<path class="st10" d="M572.4,339.9c0,0,2-18.6,1-25.7c-1-7,1.6-8,3.2-8.4s5.9,2.2,5.9,2.2s3.1-6.2,5.9-5.9c2.7,0.3,7,3,8,5
					c0,0,3.2-5.3,7.3-4.8c4.1,0.5,5.9,10.5,6.1,13.5c0.2,3-0.7,9.9-0.7,9.9s1.7,0.4,2.8,1.4s-2.5,7.3-3.3,7.9
					c-0.8,0.6-13,7.2-15.7,7.9C590.1,343.6,572.4,339.9,572.4,339.9z"/>
				<path class="st3" d="M388.4,384.3c0,0,30.5,35,77.9,44.5c50.8,10.2,92.1-53.5,101.1-89.9c0,0,21.2-9.9,28.1,3.3
					c0,0-30.5,105.9-114.7,101.8c-55.4-2.7-96.4-42.9-97-51.5C383.1,383.9,380,378.2,388.4,384.3z"/>
			</g>
		</g>
		<g>
			<g>
				<path class="st17" d="M379.8,13.4c0,0,4.6,3.5,5.7,6c1.1,2.5-9.7,116.8-12.1,118.4c-2.4,1.6-8.2,1.8-11.8,1.6
					C358.1,139.2,379.8,13.4,379.8,13.4z"/>
				<path class="st18" d="M379.8,13.4c-1.1-3.8-80.1-11.4-84.9-8.6s-17,112.7-15.2,119.6c1.8,6.9,83.9,16.7,86.9,14.9
					C369.5,137.6,381.7,19.7,379.8,13.4z"/>
				<path class="st19" d="M372.5,18.9c-1-3.2-67.2-9.5-71.3-7.3c-4.1,2.3-14.3,94.6-12.8,100.4c1.5,5.8,70.4,14,72.9,12.5
					C363.8,123.1,374,24.2,372.5,18.9z"/>
				<path class="st8" d="M372.9,19.5c-1.1-3.8-66.9-10.5-71.7-7.8c-4.8,2.7-14.5,93.4-12.8,100.4s69.9,14.3,72.9,12.5
					C364.3,122.8,374.8,25.8,372.9,19.5z"/>
				<circle class="st20" cx="321.7" cy="128.1" r="3.4"/>
			</g>
			<g>
				<path class="st10" d="M274,133.9c0,0,25.4-8.6,28.9-12.5c3.5-3.9-0.5-10.4-0.5-10.4s18.3-22.8,18.9-26.1
					c0.6-3.3-6.5-4.9-6.5-4.9s-15,15.3-17.4,15.8c0,0-4-6-7-5.9c-3,0.1-6.9,1.5-6.9,1.5s-2-2.7-5.1-3.6
					c-3.2-0.9-22.5,19.5-22.1,29.9C256.8,128.2,274,133.9,274,133.9z"/>
				<path class="st3" d="M325.8,372.9c-16-4.5-92.9-31.8-101.9-72.8c-11.8-54,17.7-112.4,55.6-164.5c0,0-8.1-25-27.6-22.5
					c0,0-73.3,112.4-48.5,187.1s128,85.5,128,85.5S335.3,375.6,325.8,372.9z"/>
			</g>
			<g>
				<path class="st10" d="M376.5,127.2c0,0-28.7-12.8-29.2-15.5c-0.6-2.7,3.1-6.2,6-5.7c2.9,0.5,14,3.1,15.8,1.1
					c1.8-2.1,10.6-16.3,11.3-23.6c0,0,10.1,11.8,5.1,35.2L376.5,127.2z"/>
				<path class="st3" d="M373.6,367.1c12.7-2.2,87.1-31.4,81.7-105.4c-5.4-74-80.5-129.8-80.5-129.8s3.2-12.2,14.4-16.8
					c0,0,85.6,57,89.6,145.2s-94,119.9-106.4,121S373.6,367.1,373.6,367.1z"/>
			</g>
		</g>
		<g>
			<path class="st10" d="M298.6,239.8c0,0-1.5,113.3,3.6,118c5.1,4.7,64.3,0.7,69.7-7.6c5.4-8.4,7.6-49.4,8.4-59.9
				c0.7-10.5,11.3-41.8,11.6-47.6c0.4-5.8-13.8-26.9-44.7-26.5C316.4,216.5,294.3,225.3,298.6,239.8z"/>
			<path class="st10" d="M376.7,299c0,0,1.8-14,18.2-11c16.3,3,10.9,24,8,27.7C399.9,319.3,374.9,336.3,376.7,299z"/>
			<path class="st21" d="M387.2,241.2c0,0-24,13.1-29,9.1c-5.1-4,2.9-12.7,2.9-12.7s-35.2,18.2-40.3,13.5c-5.1-4.8,0-11.7,0-11.7
				s-22.5,15.2-34.5,6.9c-12-8.4-11.3-12.7-9.4-13.8c1.8-1.1,13.4-1.1,16.3,0c0,0-17.1-8.4-13.8-27.6c3.3-19.2,26.5-19.2,24,0
				c0,0,2.6-34.5,28.2-34.5c25.6,0,25.6,16.3,15,26.1c0,0,47.9-4,51.6,19.6c0,0,1.5-17.1,6.2-14.9c4.7,2.2,5.1,8.7,0,17.4
				c0,0,14.9-5.1,18.5,3.6c3.6,8.7,1.8,12.7,0,13.1c-1.8,0.4-12-3.6-12-3.6s12.7,37.4-16.7,60.3l-11.6,2.5c0,0-6-5.8-5.9-18.5
				S384.1,244.8,387.2,241.2z"/>
			<path class="st22" d="M332,281.3c0,0,0,12.7-2.4,13.3s-10.2-1.5-12.3,0c-2.2,1.5-3.1,8.7,0,9.8c3.1,1.1,10.9,0,10.9,0
				s-13.1,6.7-15.1-1.5c-2-8.2,2.2-11.6,6.2-11.3c4,0.4,9.4,1.5,10-0.7C329.8,288.8,331.3,285,332,281.3z"/>
			<path class="st23" d="M343.8,281.3c0,0,6.4,9.3,18,0C361.8,281.3,350.9,297.1,343.8,281.3z"/>
			<path class="st23" d="M308.1,281.3c0,0,8.5,8.2,17.2,0C325.3,281.3,316.8,295.5,308.1,281.3z"/>
			<path class="st24" d="M343.8,257.6c0,0,15.1,0,19.1,6.7C362.9,264.3,356,251.4,343.8,257.6z"/>
			<path class="st24" d="M326.2,258.1c0,0-12.5-1.5-17.4,6.2C308.8,264.3,315.9,249.9,326.2,258.1z"/>
			<g>
				<path class="st25" d="M331.7,347.5c3.7,2.4,7.8,3.7,12.2,2.9c9.8-1.8,15.5-14.9,18.7-27.4C355.2,323.8,336.3,328,331.7,347.5z"
					/>
				<path class="st26" d="M310.1,316.6c0,0,8.6,22.5,21.6,30.9c4.6-19.5,23.6-23.7,30.9-24.5c3.2-12.3,4-24,4-24
					C361.4,300.6,310.1,316.6,310.1,316.6z"/>
			</g>
		</g>
		<g>
			<g>
				<path class="st27" d="M114.6,302.3c0,0,11,2.8,15.6,4.7c4.6,1.9,15,6.4,15,6.4s3.9,18.6,2.9,22.1c-1,3.5-19.5,6.1-19.5,6.1
					c0,0-4.9-3.9-7.2-4.9s-7.5-14.8-7.5-14.8s14,4.7,4.1-5.5C108.1,306.3,114.6,302.3,114.6,302.3z"/>
				<g>
					<g>
						<path class="st11" d="M132.6,299c-4.6-8.2-20-8.2-20-8.2c-2.1,0.7-3.5,3.4-4.3,7.2c0.3-0.1,0.5-0.3,0.8-0.3
							c0,0,12.7,0,16.5,5.4c3.8,5.4,1.1,18.3-4.3,20.2c-3.9,1.4-10.3,0.9-13.6,0.5c0.3,3.7,0.6,6.2,0.6,6.2s12.5,2.5,19.1-0.4
							C134,326.7,137.2,307.1,132.6,299z"/>
					</g>
					<path class="st11" d="M68.9,275.4c0,0,38.4,1.8,44.9,3.7c0,0-3.8,62.9-5.2,64.5c-1.4,1.6-39.2,2.4-47.4-4.5
						C60.9,329.9,68.9,275.4,68.9,275.4z"/>
				</g>
				<g>
					<path class="st10" d="M115,302.3c0,0,14.6,6.5,15.3,9.8c0.7,3.3-0.5,10.3-3.6,11c-3.1,0.7-16.2-8.7-16.6-11.4
						C109.6,309,111.7,302.9,115,302.3z"/>
					<path class="st10" d="M112.6,318.5c0,0,12.6,3.5,14.8,5.9c2.2,2.5,0.7,12.1-1.8,12.3c-2.5,0.2-13.7-2.1-15.1-3.5
						C109.2,331.8,110.3,319.9,112.6,318.5z"/>
					<path class="st10" d="M146.5,336.7c0,0,7.9-5.4,7.9-13.8s-3.9-15.9-3.9-15.9s-21.6,3.1-25.5,2.3s-1.9,10.9,2.5,11.2
						c4.4,0.3,14.2-0.5,14.2-0.5s-10.6,6.1-7.4,13C137.5,339.8,142.4,340.6,146.5,336.7z"/>
				</g>
				<g>
					<path class="st1" d="M88.8,273.2c0,0-12.3-3.8-12.3-16.1c0-9.7,13.4-7.6,12.3-15.8c-1.1-8.2-24.8-23.7,5.4-34
						c0,0-11.2,7.6-6.7,16.3s12.1,10.6,11.6,18.5C98.6,250,73.8,251.1,88.8,273.2z"/>
					<path class="st1" d="M99.2,271.7c0,0-7.4-7.3-4.1-11.1c3.3-3.8,18.2-7.1,14.9-16.1c-3.2-9-9.6-16.6,0-24.2c0,0-2.2,7.4,0,12.3
						c1.8,4.1,11.1,14.2,8,19.9S94,258.3,99.2,271.7z"/>
				</g>
			</g>
			<path class="st3" d="M324.6,384.1c0,0-32.7,77.7-101.3,63S153,336.3,153,336.3s-18.5-4.1-25.6,6.8c0,0,17.6,111.7,98,117.1
				c64.3,4.3,100.2-41,104.7-59.4C330.2,400.8,335.7,375.6,324.6,384.1z"/>
		</g>
		<g>
			<g>
				<path class="st28" d="M101.5,552.6c0,0,79-0.5,82.3,0v40.2c0,0-90.4,0.5-98.1,0C85.7,592.8,99.7,555.6,101.5,552.6z"/>
				<path class="st3" d="M141.2,555c0,0-3.8,7-6.3,7s-3.3-4.3-5.3-4.5c-2-0.2-3.2,5.7-5,4.5s-2-4.2-2-4.2s-1.8-0.7-2.7,0.7
					c-0.8,1.4-2.4-1.1-3.8-1.1c-1.4,0-6.4-0.7-6.4-0.7s5.9-1.7,8.1,0c2.2,1.7,2.3-0.3,4,0c1.7,0.3,1.2,3.2,3,3.7
					c1.8,0.4,3.3-4.7,5-4.5c1.7,0.2,2.4,4.6,4.8,4.7C137.1,560.8,141.2,555,141.2,555z"/>
				<line class="st29" x1="177.7" y1="589.3" x2="95.3" y2="589.3"/>
				<line class="st29" x1="177.7" y1="583.8" x2="97.2" y2="583.8"/>
				<line class="st29" x1="177.7" y1="578" x2="98.6" y2="578"/>
				<line class="st29" x1="178.9" y1="572.7" x2="101" y2="572.7"/>
			</g>
			<path class="st3" d="M330.2,416.8c0,0-58,70.7-131.1,89.5c-44.7,11.5-93.1,17.9-104.5,10.3c-11.4-7.6-10.7-25.8-4.9-23.5
				c5.8,2.3,56.9,9.4,105-4.9c53.1-15.7,116-59.5,124.9-75.5S330.2,416.8,330.2,416.8z"/>
			<g>
				<g>
					<path class="st30" d="M108.2,553.3c0,0,1.9,3.9,2.7,3.5s0.4-2.1-0.4-3.5C109.7,552,108.2,553.3,108.2,553.3z"/>
					<path class="st8" d="M69.5,473.1c0,0-3.7,2-3.7,6.4s2.5,11.4,6.3,15.9c3.8,4.5,6.8,8.4,5.9,10.9c-1,2.5,1,4.9,2.3,3.7
						c1.4-1.2,0.7-5.2-0.3-7.9c-1-2.7-7-9-8.5-14.2s0.9-6.8,0.4-8.1S71.7,474.6,69.5,473.1z"/>
					<g>
						<path class="st18" d="M109.8,534.3C109.8,534.3,109.8,534.3,109.8,534.3c-0.8-2.3-22.4-63.2-24.7-66.2c-2.3-3-6.6-2.4-9.4-1.2
							c-3.8,1.6-7.4,2.7-6.3,6.3c1.1,3.5,21.4,60.4,25.3,65.9c0.2,0.2,0.3,0.5,0.5,0.7C99,540.5,104.7,540.3,109.8,534.3z"/>
						<path class="st8" d="M109.8,534.3c-5.1,6.1-10.8,6.3-14.5,5.5c4,5.5,10.3,14.5,12.9,15.2c0,0,2.7,0,3.2-1.4
							C111.6,552.8,110.6,536.6,109.8,534.3z"/>
					</g>
					<path class="st8" d="M70.6,453.5c-3.3,1.3-3.8,5.9-2.5,9.4c1.4,3.5,2.9,8.7,3.7,9.4c0.8,0.7,8.3-0.3,10.1-4.2c0,0-2-6-3.4-8.7
						C77.1,456.7,75.2,451.8,70.6,453.5z"/>
				</g>
				<g>
					<path class="st10" d="M74.4,515.1c0,0-2.4,9,2.5,10.9c4.9,1.9,16.8,0.1,19-3.2s-2.7-6.8-4.6-7.7
						C89.4,514.2,74.4,515.1,74.4,515.1z"/>
					<path class="st10" d="M69.5,503.1c0,0-4.4,5.2,0,11.2c4.4,6,19.1,4.7,23,3.2s2.5-9.6-2.3-11.7
						C85.3,503.6,69.5,503.1,69.5,503.1z"/>
					<path class="st10" d="M65.4,492.9c-4,1.1-6.8,9.9,0,11.8c6.8,1.9,22.9,5.4,25.1,2.7s4.6-12.2-4.4-13.1S69.8,491.7,65.4,492.9z"
						/>
					<path class="st10" d="M99.7,489.5c-3,0-4.7,0.3-4.9,6.8c-0.2,6.5-0.5,17.2,4.9,18.4c5.4,1.2,7.6-4.3,7.6-10
						C107.3,499,105.7,489.5,99.7,489.5z"/>
				</g>
			</g>
		</g>
		<g>
			<g>
				<path class="st31" d="M604.5,508.5c0,0,16.7-51.6,18.6-52.9c1.9-1.4,87.1,1.6,90.4,5.2s-12,52.1-12,52.1L604.5,508.5z"/>
				<path class="st32" d="M613.9,501.9c0,0,13.2-40.8,14.8-41.9s73.4,1.4,76.2,4.4c2.8,3-9.2,41-9.2,41L613.9,501.9z"/>
				<path class="st2" d="M613.9,501.9c0,0,13.2-40.8,14.8-41.9s73.4,1.4,76.2,4.4c2.8,3-9.2,41-9.2,41L613.9,501.9z"/>
				<path class="st33" d="M534.6,516.1c0,0,0-8.5,3-11.1c0,0,88.4-0.5,92.8,0.4c0,0,0.9,10.2,0.6,12.4
					C629.3,518.5,539.2,515,534.6,516.1z"/>
				<path class="st34" d="M630.4,505.3c0,0,68.3,2.7,73,3.1c0,0,0.5,9.4,0,11.9c0,0-70-2.6-74.6-2.6
					C623.1,517.7,630.4,505.3,630.4,505.3z"/>
				<path class="st18" d="M519,573.4c0,0,0.4-55.8,1.1-58.4c0,0,93.5,1.4,111,1c0,0,73,1.5,76,1.8c0,0,0,55.5,0,58.4
					c0,0-12.3-0.7-14.5-0.4c0,0-1.8-17.1-2.9-18.9l-42.8-1.1c0,0-2.3,28.1-2.7,29.2c-0.4,1.1-15.5,0-15.5,0l-2-30.7l-89.1-2.9
					l-2.9,22.6C534.6,574.3,521.2,574.9,519,573.4z"/>
				<path class="st34" d="M713.5,460.7c0,0,3.5,1.4,3.5,3.9s-11.8,49.1-13.4,53.2l-1.5-9.4C702.1,508.4,713,466.6,713.5,460.7z"/>
			</g>
			<g>
				<path class="st10" d="M628.1,468.8c-1.1-3.3-9.1-2.3-12.5-0.5c-4.5,2.2-15.2,10.6-15.2,10.6s-3.3-3-6.5-3.4
					c-3.3-0.4-20.3,6.7-20.3,6.7c-1.7,4.3-6.6,11,1.8,14.4c1.4,5.6,9.4,8.1,13.4,8.5c4,0.4,19.1,5.9,20.5,3c2.8-6.1-2.3-6.5-2.3-6.5
					s-10.1-0.4-10.8-4.7c-0.2-1.1,0.6-2.1,1.7-2.9c9.9-0.7,16.4,0.4,16.4,0.4s2.5,4.9,3.8,7.9c1.4,3,8.7,3.3,9.3,2.5
					s0.5-4.1,0.3-6.5s-1.4-7.9-6-8.4c-4.6-0.5-11.4-5.7-11.4-5.7c3.3-6,9.8-6,9.8-6c1.6,7.1,8.2,7.1,10.3,4.2
					C632.5,479.3,629.2,472.1,628.1,468.8z"/>
				<path class="st3" d="M376.6,389.4c-3.1-7.9,4.8-10.5,12.3-5.1c7.5,5.4,43.1,128.2,191.5,92.7c0,0,10.3,16.5-2.7,24.5
					c0,0-81.1,11.9-135.6-27.9S378.5,394.3,376.6,389.4z"/>
			</g>
		</g>
		<g>
			<path class="st3" d="M387.2,370.6c-2-6.2-44.8-7.5-64.6,1.3c0,0-10.2,101.3-14.6,115.5c-4.4,14.2-10,17.1-10,17.1
				s39.2,17.4,46.9,15.2l4.8-9.1l5.1,9.3c0,0,45-8.5,51.6-12.5c0,0-8.7-21.4-10.9-30.1C393.4,468.5,390.5,380.9,387.2,370.6z"/>
			<path class="st10" d="M340.7,353c0,0,3.6,16.7,3.1,21.8c-0.5,5.1,1.3,16.3,4.9,17.1c3.6,0.7,16-2.2,16-10.9s-2.1-26.4-2.2-30.4
				S340.7,353,340.7,353z"/>
			<path class="st1" d="M348,367.4c0,0,3.6,15.7,3.8,16.7c0,0,1.1-15.8,1.5-17.6l13.2,5.4c0,0,3.3,13.6,0,25.4s-13.8,49.7-13.8,49.7
				s-9.8-20.1-14.4-35.6c-4.6-15.4-7.2-35.6-6.6-37.8C332.2,371.6,348,367.4,348,367.4z"/>
			<path class="st18" d="M348,386.3c0,0,7.4-1.6,8.7,0c0,0,3.1,10.2,2.9,11.4c-0.2,1.3-12.3,1.1-13.6,0
				C344.7,396.6,348,386.3,348,386.3z"/>
			<path class="st18" d="M341.1,419.9c0,0,5.3-19.9,6-21.8s9.8,0,9.8,0s2.4,20.3,3.1,23.2c0.7,2.9-7.3,25.8-7.3,25.8
				S342.5,427.1,341.1,419.9z"/>
			<path class="st4" d="M352.3,454.3c0,0-0.9,41.8-1.7,49C350.6,503.4,348.8,470.5,352.3,454.3z"/>
			
				<ellipse transform="matrix(0.9956 9.337071e-002 -9.337071e-002 0.9956 44.8653 -29.9078)" class="st4" cx="342" cy="464.5" rx="3" ry="4.4"/>
			
				<ellipse transform="matrix(0.999 -4.436032e-002 4.436032e-002 0.999 -21.3962 15.6555)" class="st4" cx="342" cy="489.9" rx="3" ry="4.4"/>
			<path class="st35" d="M333.3,373c0,0,6.2,48.5,19.4,74c0,0-24.5-15.4-33-26c0,0,13.1-12,14.5-13.3c0,0-13.3-8.2-14.5-9.6
				C318.4,396.8,331.2,374.6,333.3,373z"/>
			<path class="st35" d="M365,367.2c0,0,20.6,19.6,22.2,24.1c0,0-16,11.1-20.7,12.3c0,0,12.5,7.1,15.6,11.6c0,0-19.8,24-29.4,31.8
				c0,0,10.7-38.6,12.3-44.2C366.5,397.3,368.2,375.3,365,367.2z"/>
			<path class="st11" d="M334.7,361.9l13.3,5.4c0,0-2.6,16.2-3,16.7c-0.4,0.5-14.3-7.3-14.8-8.4
				C329.7,374.6,334.7,361.9,334.7,361.9z"/>
			<path class="st11" d="M353.4,366.5c0,0,13.7-6.1,14.2-6.7c0.5-0.6,8.7,12.9,9,13.2c0.3,0.4-15,9.4-15.9,9.4
				C359.8,382.5,353.6,367.9,353.4,366.5z"/>
			<path class="st4" d="M298.1,504.4c0,0,34.2,15.6,46.9,15.2l4.8-9.1l5.1,9.3c0,0,37.8-6.4,51.6-12.5c0,0-41.6,15.9-53.1,16.5
				l-3.2-7.8c0,0-4.7,7.9-6.3,7.8C342.2,523.7,298.1,504.4,298.1,504.4z"/>
		</g>
		<g>
			<path class="st10" d="M568.6,257.2c0,0,15.2-15.4,17.4-21.9c2.2-6.5,0-26.1,0-26.1s-8.5-10.9-11.1-2.7
				c-2.5,8.2-19.4,33.9-19.4,33.9S563.7,255.9,568.6,257.2z"/>
			<g>
				<path class="st2" d="M589.8,184.7c0,0-35.4-28.8-76.2-16.9c0,0,39.7,70.1,41.9,78.9c0,0,48.5-16.9,63.7,0
					c0,0,35.2-39.1,62.4-43.5l-38.5-60.2C643.2,143.1,603.4,144.4,589.8,184.7z"/>
				<path class="st36" d="M589.8,180.4c0,0-32.3-27.2-67.5-21.9c0,1.4-0.9,3.2-1.6,7.1c0,0,35.4,64.8,37.6,73.6
					c0,0,45.7-13.6,61,3.3c0,0,30.5-38.1,57.7-42.5v-6.7l-33.8-54.5C643.2,138.8,603.4,140.1,589.8,180.4z"/>
				<path class="st11" d="M589.8,173.7c0,0-26.7-27.2-67.5-15.2c0,0,33.8,65.2,35.9,74.1c0,0,45.7-13.6,61,3.3
					c0,0,30.5-38.1,57.7-42.5l-33.8-61.2C643.2,132.1,603.4,133.4,589.8,173.7z"/>
				<path class="st37" d="M591.5,175.9c0,0,17.6,35,25.6,54.3C617,230.2,602.6,185.4,591.5,175.9z"/>
			</g>
			<path class="st10" d="M552.2,253.2c0,0-16.9-18-18.5-23.4c-1.6-5.4,3.3-20.7,3.3-24.5s9.8-1.6,10.3,3.3
				c0.5,4.9-1.6,16.9-1.6,16.9s17.4,9.1,15.2,23.1C558.7,262.5,552.2,253.2,552.2,253.2z"/>
			<path class="st3" d="M381,371.1c0,0,85,27.7,167-122.6c0,0,24,2.5,26.9,7.4c0,0-81.3,147.3-192.1,126.6
				C382.9,382.5,375.6,381.8,381,371.1z"/>
		</g>
		<g>
			<g>
				<path class="st38" d="M444.8,694.7c-0.4,0-0.7-0.1-1-0.4c-0.3-0.2-0.4-0.6-0.4-1.1c0-0.4,0.1-0.7,0.4-1c0.3-0.3,0.6-0.4,1-0.4
					c0.4,0,0.7,0.1,1,0.4c0.3,0.3,0.4,0.6,0.4,1c0,0.5-0.1,0.8-0.4,1.1C445.5,694.6,445.2,694.7,444.8,694.7"/>
			</g>
			<g>
				<path class="st38" d="M359.1,692.1C359.1,692.1,359.1,692,359.1,692.1C359.1,692,359.1,692.1,359.1,692.1z"/>
				<path class="st38" d="M359,691.9c0,0,0-0.1-0.1-0.1C358.9,691.8,359,691.9,359,691.9z"/>
			</g>
		</g>
	</g>
</g>
</svg>
