<?xml version="1.0" encoding="utf-8"?>
<!-- Generator: Adobe Illustrator 19.1.0, SVG Export Plug-In . SVG Version: 6.00 Build 0)  -->
<svg version="1.1" xmlns="http://www.w3.org/2000/svg" xmlns:xlink="http://www.w3.org/1999/xlink" x="0px" y="0px"
	 viewBox="0 0 800 206.7" style="enable-background:new 0 0 800 206.7;" xml:space="preserve">
<style type="text/css">
	.st0{fill:#4B4B4B;}
	.st1{fill:#616161;}
	.st2{fill:#515151;}
	.st3{opacity:0.5;fill:#616161;}
	.st4{fill:#6A6A6A;}
	.st5{fill:#868686;}
	.st6{fill:#141414;}
</style>
<g id="background">
	<g>
		<path d="M377,32c0.6,0.4,1.2,0.8,1.8,1.2c-0.4-0.4-0.9-0.8-1.3-1.2L377,32z"/>
	</g>
</g>
<g id="objects">
	<g>
		<path class="st0" d="M324,75.3c0.1-0.5,0.1-1.1,0.2-1.6l-1.2-0.2C323.3,74.1,323.7,74.7,324,75.3z"/>
	</g>
	<g>
		<rect class="st1" width="36" height="206"/>
		<g>
			<rect class="st2" width="800" height="206"/>
			<rect x="94.5" class="st1" width="32.5" height="206"/>
			<rect x="274.5" class="st1" width="31.5" height="206"/>
			<rect x="364" class="st3" width="34" height="206"/>
			<rect x="722.8" class="st3" width="34" height="206"/>
			<rect x="483.8" class="st1" width="34" height="206"/>
			<rect x="607" class="st1" width="31.3" height="206"/>
			<rect x="35" y="3.5" class="st4" width="2" height="201.8"/>
			<rect x="65" y="3.5" class="st4" width="2" height="201.8"/>
			<rect x="95" y="3.5" class="st4" width="2" height="201.8"/>
			<rect x="125" y="3.5" class="st4" width="2" height="201.8"/>
			<rect x="155" y="3.5" class="st4" width="2" height="201.8"/>
			<rect x="185" y="3.5" class="st4" width="2" height="201.8"/>
			<rect x="215" y="3.5" class="st4" width="2" height="201.8"/>
			<rect x="245" y="3.5" class="st4" width="2" height="201.8"/>
			<rect x="275" y="3.5" class="st4" width="2" height="201.8"/>
			<rect x="305" y="3.5" class="st4" width="2" height="201.8"/>
			<rect x="335" y="3.5" class="st4" width="2" height="201.8"/>
			<rect x="365" y="3.5" class="st4" width="2" height="201.8"/>
			<rect x="395" y="3.5" class="st4" width="2" height="201.8"/>
			<rect x="425" y="3.5" class="st4" width="2" height="201.8"/>
			<rect x="455" y="3.5" class="st4" width="2" height="201.8"/>
			<rect x="485" y="3.5" class="st4" width="2" height="201.8"/>
			<rect x="515" y="3.5" class="st4" width="2" height="201.8"/>
			<rect x="545" y="3.5" class="st4" width="2" height="201.8"/>
			<rect x="575" y="3.5" class="st4" width="2" height="201.8"/>
			<rect x="605" y="3.5" class="st4" width="2" height="201.8"/>
			<rect x="635" y="3.5" class="st4" width="2" height="201.8"/>
			<rect x="665" y="3.5" class="st4" width="2" height="201.8"/>
			<rect x="695" y="3.5" class="st4" width="2" height="201.8"/>
			<rect x="725" y="3.5" class="st4" width="2" height="201.8"/>
			<rect x="755" y="3.5" class="st4" width="2" height="201.8"/>
			<rect x="785" y="3.5" class="st4" width="2" height="201.8"/>
		</g>
		<rect class="st4" width="800" height="7.1"/>
		<rect y="202.3" class="st4" width="800" height="4.4"/>
		<g>
			<circle class="st5" cx="19" cy="18" r="3"/>
			<circle class="st5" cx="50.2" cy="18" r="3"/>
			<circle class="st5" cx="81.3" cy="18" r="3"/>
			<circle class="st5" cx="108.5" cy="18" r="3"/>
			<circle class="st5" cx="138.7" cy="18" r="3"/>
			<circle class="st5" cx="168.8" cy="18" r="3"/>
			<circle class="st5" cx="200" cy="18" r="3"/>
			<circle class="st5" cx="231.2" cy="18" r="3"/>
			<circle class="st5" cx="261.3" cy="18" r="3"/>
			<circle class="st5" cx="292.5" cy="18" r="3"/>
			<circle class="st5" cx="320.7" cy="18" r="3"/>
			<circle class="st5" cx="348.8" cy="18" r="3"/>
			<circle class="st5" cx="378" cy="18" r="3"/>
			<circle class="st5" cx="411.2" cy="18" r="3"/>
			<circle class="st5" cx="439.3" cy="18" r="3"/>
			<circle class="st5" cx="470.5" cy="18" r="3"/>
			<circle class="st5" cx="499.7" cy="18" r="3"/>
			<circle class="st5" cx="528.8" cy="18" r="3"/>
			<circle class="st5" cx="559" cy="18" r="3"/>
			<circle class="st5" cx="591.2" cy="18" r="3"/>
			<circle class="st5" cx="623.3" cy="18" r="3"/>
			<circle class="st5" cx="649.5" cy="18" r="3"/>
			<circle class="st5" cx="676.7" cy="18" r="3"/>
			<circle class="st5" cx="712" cy="18" r="3"/>
			<circle class="st5" cx="738.8" cy="18" r="3"/>
			<circle class="st5" cx="772" cy="18" r="3"/>
		</g>
		<g>
			<circle class="st5" cx="19" cy="192" r="3"/>
			<circle class="st5" cx="50.2" cy="192" r="3"/>
			<circle class="st5" cx="81.3" cy="192" r="3"/>
			<circle class="st5" cx="108.5" cy="192" r="3"/>
			<circle class="st5" cx="138.7" cy="192" r="3"/>
			<circle class="st5" cx="168.8" cy="192" r="3"/>
			<circle class="st5" cx="200" cy="192" r="3"/>
			<circle class="st5" cx="231.2" cy="192" r="3"/>
			<circle class="st5" cx="261.3" cy="192" r="3"/>
			<circle class="st5" cx="292.5" cy="192" r="3"/>
			<circle class="st5" cx="320.7" cy="192" r="3"/>
			<circle class="st5" cx="348.8" cy="192" r="3"/>
			<circle class="st5" cx="378" cy="192" r="3"/>
			<circle class="st5" cx="411.2" cy="192" r="3"/>
			<circle class="st5" cx="439.3" cy="192" r="3"/>
			<circle class="st5" cx="470.5" cy="192" r="3"/>
			<circle class="st5" cx="499.7" cy="192" r="3"/>
			<circle class="st5" cx="528.8" cy="192" r="3"/>
			<circle class="st5" cx="559" cy="192" r="3"/>
			<circle class="st5" cx="591.2" cy="192" r="3"/>
			<circle class="st5" cx="623.3" cy="192" r="3"/>
			<circle class="st5" cx="649.5" cy="192" r="3"/>
			<circle class="st5" cx="676.7" cy="192" r="3"/>
			<circle class="st5" cx="712" cy="192" r="3"/>
			<circle class="st5" cx="738.8" cy="192" r="3"/>
			<circle class="st5" cx="772" cy="192" r="3"/>
		</g>
	</g>
	<path class="st6" d="M387.8,192.3l5.2-1C391.5,192.4,389.7,192.5,387.8,192.3z"/>
</g>
</svg>
