<?xml version="1.0" encoding="utf-8"?>
<!-- Generator: Adobe Illustrator 19.1.0, SVG Export Plug-In . SVG Version: 6.00 Build 0)  -->
<svg version="1.1" xmlns="http://www.w3.org/2000/svg" xmlns:xlink="http://www.w3.org/1999/xlink" x="0px" y="0px"
	 viewBox="0 0 612 502.6" style="enable-background:new 0 0 612 502.6;" xml:space="preserve">
<style type="text/css">
	.st0{fill:#FFFFFF;}
	.st1{opacity:0.55;}
	.st2{fill:#C6C6C5;stroke:#C6C6C5;stroke-width:0.3927;stroke-miterlimit:10;}
	.st3{fill:#FFFFFF;stroke:#000000;stroke-width:0.3927;stroke-miterlimit:10;}
	.st4{fill:#EEEEEE;}
	.st5{fill:none;stroke:#2D292A;stroke-width:0.3927;stroke-miterlimit:10;}
	.st6{fill:none;stroke:#000000;stroke-width:0.3927;stroke-miterlimit:10;}
	.st7{fill:#231F20;}
	.st8{font-family:'SourceSansPro-Semibold';}
	.st9{font-size:7.8549px;}
	.st10{fill:none;}
	.st11{font-family:'OpenSans';}
	.st12{font-size:3.9274px;}
	.st13{font-family:'SourceSansPro-Regular';}
	.st14{font-size:4.7129px;}
	.st15{opacity:0.45;}
	.st16{opacity:0.35;}
	.st17{opacity:0.68;}
	.st18{opacity:0.5;fill:#CECEBE;}
	.st19{fill:none;stroke:#000000;stroke-width:9.681692e-002;stroke-miterlimit:10;}
	.st20{fill:none;stroke:#000000;stroke-width:0.1964;stroke-miterlimit:10;}
	.st21{fill:none;stroke:#000000;stroke-width:7.325451e-002;stroke-miterlimit:10;}
	.st22{stroke:#000000;stroke-width:0.1964;stroke-miterlimit:10;}
	.st23{stroke:#000000;stroke-width:6.558467e-002;stroke-miterlimit:10;}
	.st24{font-size:5.4984px;}
	.st25{font-size:6.2839px;}
	.st26{fill:#2D292A;}
	.st27{font-size:7.0694px;}
	.st28{font-family:'OpenSans-Bold';}
	.st29{font-family:'SourceSansPro-Bold';}
	.st30{fill:#C6C6C5;stroke:#C6C6C5;stroke-width:0.3551;stroke-miterlimit:10;}
	.st31{fill:#C6C6C5;}
	.st32{font-family:'ProximaNova-Black';}
	.st33{font-size:2.3368px;}
	.st34{fill:#BE384B;stroke:#FFFFFF;stroke-width:0.3551;stroke-miterlimit:10;}
	.st35{fill:#E6E6E5;}
</style>
<g id="_x36__x27__Jefferson">
	<rect x="381.8" y="373.6" class="st0" width="210.7" height="60.2"/>
	<g id="Page_Outline_2_">
		<g class="st1">
			<rect id="Page_Outline_18_" x="28.5" y="11.2" class="st2" width="575" height="433.6"/>
		</g>
		<g>
			<g>
				<rect id="Page_Outline_15_" x="17.5" y="0.2" class="st3" width="575" height="433.6"/>
			</g>
		</g>
	</g>
	<rect x="17.7" y="386.5" class="st0" width="316.5" height="47.3"/>
	<rect id="header-bg_1_" x="17.7" y="373.6" class="st4" width="316.3" height="12.8"/>
	<g id="Left-Table-left-to-right_1_">
		<path class="st5" d="M334.1,377.8"/>
		<path class="st5" d="M17.7,377.8"/>
		<path class="st5" d="M17.5,358.8"/>
		<line class="st5" x1="17.7" y1="373.6" x2="334.1" y2="373.6"/>
		<path class="st5" d="M17.7,367.9"/>
		<path class="st5" d="M17.7,377.3"/>
		<line class="st5" x1="17.7" y1="386.7" x2="334.1" y2="386.7"/>
		<line class="st5" x1="17.7" y1="396.4" x2="334.1" y2="396.4"/>
		<line class="st5" x1="17.7" y1="405.8" x2="334.1" y2="405.8"/>
		<line class="st5" x1="17.7" y1="415.3" x2="334.1" y2="415.3"/>
		<line class="st5" x1="17.7" y1="424.9" x2="334.1" y2="424.9"/>
	</g>
	<g id="Uprights_1_">
		<line class="st6" x1="48" y1="433.8" x2="48" y2="386.7"/>
		<line class="st6" x1="79.7" y1="433.8" x2="79.7" y2="386.7"/>
		<line class="st6" x1="179.5" y1="433.8" x2="179.5" y2="386.7"/>
		<line class="st6" x1="334.2" y1="433.8" x2="334" y2="373.6"/>
	</g>
	<text transform="matrix(1 0 0 1 138.1211 383.089)" class="st7 st8 st9">specifications</text>
	<rect x="532.1" y="399.2" class="st10" width="57.1" height="32.1"/>
	<text transform="matrix(1 0 0 1 532.1231 402.1455)"><tspan x="0" y="0" class="st7 st11 st12">Fence Company Inc</tspan><tspan x="0" y="4.7" class="st7 st11 st12">757 new tiger blvd</tspan><tspan x="0" y="9.4" class="st7 st11 st12">hollywood, fl 33020</tspan><tspan x="0" y="14.1" class="st7 st11 st12">toll free: 1-888-555-5555</tspan><tspan x="0" y="18.9" class="st7 st11 st12">phone: (555) 555-5555</tspan><tspan x="0" y="23.6" class="st7 st11 st12">fax: (555) 555-5555</tspan><tspan x="0" y="28.3" class="st7 st11 st12">website: fenceco.com</tspan></text>
	<text transform="matrix(1 0 0 1 385.6582 393.2646)" class="st7 st13 st14">date: 2017.10.07</text>
	<g id="Right-Table-uprights_1_">
		<line class="st6" x1="527.5" y1="433.8" x2="527.3" y2="373.6"/>
		<line class="st6" x1="381.7" y1="433.8" x2="381.5" y2="373.6"/>
		<line class="st6" x1="424" y1="386.9" x2="423.9" y2="396.4"/>
		<line class="st6" x1="464.3" y1="386.9" x2="464.2" y2="396.4"/>
		<line class="st6" x1="439.3" y1="433.8" x2="439.1" y2="396.4"/>
	</g>
	<g id="Right-Table-left-to-right_1_">
		<line id="Right-Table-Left-Right_1_" class="st5" x1="381.4" y1="373.6" x2="592.5" y2="373.6"/>
		<line class="st5" x1="527.3" y1="395.3" x2="592.4" y2="395.3"/>
		<line class="st5" x1="381.7" y1="386.7" x2="527.5" y2="386.7"/>
		<line class="st5" x1="381.7" y1="396.4" x2="527.5" y2="396.4"/>
		<line class="st5" x1="381.7" y1="405.8" x2="439.2" y2="405.8"/>
	</g>
	<text transform="matrix(1 0 0 1 384.9395 403.1514)" class="st7 st13 st14">product no: privw7272 </text>
	<g id="Ground_1_">
		<g>
			<g class="st15">
				
					<image style="overflow:visible;" width="442" height="724" xlink:href="A3050010.png"  transform="matrix(0.24 0 0 0.24 350.0041 197.879)">
				</image>
			</g>
			<g class="st16">
				
					<image style="overflow:visible;" width="442" height="724" xlink:href="A3050011.png"  transform="matrix(0.24 0 0 0.24 350.0041 197.879)">
				</image>
			</g>
			<g class="st15">
				
					<image style="overflow:visible;" width="442" height="724" xlink:href="A3050017.png"  transform="matrix(0.24 0 0 0.24 350.0041 197.879)">
				</image>
			</g>
			<g class="st17">
				
					<image style="overflow:visible;" width="442" height="724" xlink:href="A3050012.png"  transform="matrix(0.24 0 0 0.24 350.0041 197.879)">
				</image>
			</g>
			<rect x="386" y="233.9" class="st18" width="33.9" height="101.7"/>
			<rect x="386" y="233.9" class="st6" width="33.9" height="101.7"/>
		</g>
		<line id="ground-line_1_" class="st5" x1="17.8" y1="233.9" x2="592.5" y2="233.9"/>
		<g>
			<g class="st15">
				
					<image style="overflow:visible;" width="442" height="726" xlink:href="A3050013.png"  transform="matrix(0.24 0 0 0.24 154.5432 197.879)">
				</image>
			</g>
			<g class="st16">
				
					<image style="overflow:visible;" width="442" height="726" xlink:href="A305001E.png"  transform="matrix(0.24 0 0 0.24 154.5432 197.879)">
				</image>
			</g>
			<g class="st15">
				
					<image style="overflow:visible;" width="442" height="726" xlink:href="A305001F.png"  transform="matrix(0.24 0 0 0.24 154.5432 197.879)">
				</image>
			</g>
			<g class="st17">
				
					<image style="overflow:visible;" width="442" height="726" xlink:href="A3050014.png"  transform="matrix(0.24 0 0 0.24 154.5432 197.879)">
				</image>
			</g>
			<polygon class="st18" points="224.6,336 190.6,336 190.5,233.9 224.5,233.9 			"/>
			<polygon class="st6" points="224.6,336 190.6,336 190.5,233.9 224.5,233.9 			"/>
		</g>
	</g>
	<g id="Jefferson">
		<g id="Main-Pickets">
			<rect x="216.2" y="50" class="st3" width="16.1" height="167.4"/>
			<rect x="232.3" y="50" class="st3" width="16.1" height="167.4"/>
			<rect x="248.5" y="50" class="st3" width="16.1" height="167.4"/>
			<rect x="264.6" y="50" class="st3" width="16.1" height="167.4"/>
			<rect x="280.8" y="50" class="st3" width="16.1" height="167.4"/>
			<rect x="296.9" y="50" class="st3" width="16.1" height="167.4"/>
			<rect x="313" y="50" class="st3" width="16.1" height="167.4"/>
			<rect x="329.2" y="50" class="st3" width="16.1" height="167.4"/>
			<rect x="345.3" y="50" class="st3" width="16.1" height="167.4"/>
			<rect x="361.4" y="50" class="st3" width="16.1" height="167.4"/>
			<rect x="377.6" y="50" class="st3" width="16.1" height="167.4"/>
		</g>
		<g id="U-channel">
			<rect x="214.3" y="54.3" class="st3" width="2.4" height="158.7"/>
			<rect x="393.7" y="54.3" class="st3" width="2.4" height="158.7"/>
		</g>
		<g id="Rails">
			<g id="Bottom-Rail">
				<rect x="209.1" y="39.7" class="st0" width="191.9" height="14.4"/>
				<path d="M400.8,39.9v14H209.3v-14H400.8 M401.2,39.6H208.9v14.8h192.3V39.6L401.2,39.6z"/>
			</g>
			<g id="Top-Rail">
				<rect x="208.8" y="213.2" class="st0" width="191.9" height="14.4"/>
				<path d="M400.5,213.4v14H209v-14H400.5 M400.9,213H208.6v14.8h192.3V213L400.9,213z"/>
			</g>
		</g>
		<g id="Posts">
			<g id="Left_Post">
				<rect x="201.1" y="34.4" class="st0" width="13.1" height="290.1"/>
				<path d="M213.9,34.6v289.7h-12.7V34.6H213.9 M214.3,34.2h-13.4v290.5h13.4V34.2L214.3,34.2z"/>
			</g>
			<g id="Right_Post">
				<polygon class="st0" points="396,324 395.9,34.3 408.9,34.3 409,324 				"/>
				<path d="M408.7,34.5l0.1,289.3h-12.7l-0.1-289.3H408.7 M409.1,34.1h-13.4l0.1,290.1h13.4L409.1,34.1L409.1,34.1z"/>
			</g>
		</g>
		<g id="caps">
			<rect x="200.4" y="34.2" class="st3" width="14.4" height="2.5"/>
			<rect x="395.3" y="34.4" class="st3" width="14.4" height="2.5"/>
		</g>
	</g>
	<line class="st19" x1="190.4" y1="54.3" x2="198.8" y2="54.3"/>
	<line class="st19" x1="190.4" y1="213" x2="198.8" y2="213"/>
	<line class="st20" x1="168.3" y1="34" x2="198.8" y2="34"/>
	<line class="st20" x1="145.4" y1="336" x2="185.8" y2="336"/>
	<line class="st20" x1="216.8" y1="28.1" x2="393.3" y2="28.1"/>
	<line class="st20" x1="209.6" y1="18.3" x2="400.1" y2="18.3"/>
	<polygon points="195.6,56.7 194.6,56.7 193.6,56.8 194.6,54.5 	"/>
	<polygon points="193.6,210.5 194.6,210.5 195.6,210.5 194.6,212.7 	"/>
	<line class="st20" x1="194.6" y1="56.7" x2="194.6" y2="210.5"/>
	<g id="Out-to-Out_2_">
		<line class="st20" x1="145.6" y1="39.6" x2="198.8" y2="39.6"/>
		<line class="st20" x1="168.3" y1="227.8" x2="198.8" y2="227.8"/>
		<g id="Out-to-Out_3_">
			<line class="st20" x1="182" y1="41.9" x2="182" y2="224.2"/>
			<polygon points="183,42.1 181.9,42.1 180.9,42.1 182,39.9 			"/>
			<polygon points="181,223.9 182,223.9 183,223.9 182,226.1 			"/>
		</g>
	</g>
	<g>
		<line class="st20" x1="156.7" y1="41.9" x2="156.8" y2="231.3"/>
		<polygon points="155.7,231.3 156.8,231.3 157.8,231.3 156.8,233.5 		"/>
		<polygon points="157.8,42.1 156.7,42.1 155.7,42.1 156.8,39.9 		"/>
	</g>
	<line class="st20" x1="156.7" y1="236.4" x2="156.8" y2="333.3"/>
	<polygon points="155.7,333.3 156.8,333.3 157.8,333.3 156.8,335.5 	"/>
	<polygon points="157.8,236.5 156.7,236.5 155.7,236.5 156.8,234.3 	"/>
	<polygon points="172.4,42.1 171.3,42.1 170.3,42.1 171.4,39.9 	"/>
	<line class="st21" x1="171.4" y1="42.1" x2="171.4" y2="47.7"/>
	<polygon points="170.3,31.5 171.4,31.4 172.4,31.4 171.4,33.7 	"/>
	<line class="st20" x1="171.4" y1="31.4" x2="171.4" y2="25.8"/>
	<polygon points="172.4,236.6 171.3,236.6 170.3,236.6 171.4,234.4 	"/>
	<line class="st20" x1="171.4" y1="236.6" x2="171.4" y2="242.3"/>
	<polygon points="170.3,225.4 171.4,225.4 172.4,225.4 171.4,227.6 	"/>
	<line class="st20" x1="171.4" y1="225.4" x2="171.4" y2="219.7"/>
	<line class="st22" x1="171.4" y1="25.9" x2="164.5" y2="25.9"/>
	<line class="st22" x1="171.4" y1="230.8" x2="163.3" y2="230.8"/>
	<line class="st23" x1="163.3" y1="227.7" x2="163.3" y2="230.8"/>
	<line class="st20" x1="91.5" y1="233.9" x2="91.5" y2="221.7"/>
	<line class="st20" x1="99.6" y1="233.8" x2="91.5" y2="227.8"/>
	<polygon points="210,17.2 210,18.2 210,19.2 207.7,18.2 	"/>
	<polygon points="216.8,27.1 216.8,28.1 216.8,29.1 214.6,28.1 	"/>
	<line class="st20" x1="214.3" y1="32.7" x2="214.3" y2="25.8"/>
	<line class="st20" x1="207.5" y1="32.7" x2="207.5" y2="15.8"/>
	<polygon points="393.3,29.1 393.3,28.1 393.3,27.1 395.5,28.1 	"/>
	<polygon points="400.1,19.3 400.1,18.2 400.1,17.2 402.3,18.3 	"/>
	<line class="st20" x1="395.7" y1="25.8" x2="395.7" y2="32.7"/>
	<line class="st20" x1="402.5" y1="15.8" x2="402.5" y2="32.7"/>
	<polygon points="393.2,45.9 393.2,47 393.3,48 391,47 	"/>
	<line class="st20" x1="391.6" y1="47" x2="437" y2="47"/>
	<polygon points="405.8,174.8 405.8,175.9 405.8,176.8 403.6,175.8 	"/>
	<line class="st20" x1="404.7" y1="175.8" x2="437" y2="175.8"/>
	<polygon points="398.3,132 398.3,133.1 398.3,134 396.1,133 	"/>
	<line class="st20" x1="395" y1="133.1" x2="437" y2="133.1"/>
	<polygon points="388.2,99.2 388.2,100.2 388.2,101.2 386,100.2 	"/>
	<line class="st20" x1="388.2" y1="100.2" x2="437" y2="100.2"/>
	<line class="st20" x1="190.5" y1="340.1" x2="190.6" y2="360.4"/>
	<line class="st20" x1="224.6" y1="340.1" x2="224.6" y2="358.8"/>
	<line class="st20" x1="175.9" y1="358" x2="188" y2="358"/>
	<polygon points="188,359 188,358 188,357 190.3,358 	"/>
	<line class="st20" x1="239.2" y1="358" x2="227.1" y2="358"/>
	<polygon points="227.1,357 227.1,358 227.1,359 224.8,358 	"/>
	<rect x="298" y="17.8" class="st0" width="14.7" height="0.9"/>
	<text transform="matrix(1 0 0 1 301.334 20.9004)" class="st7 st13 st24">72”</text>
	<rect x="298" y="27.6" class="st0" width="14.7" height="0.9"/>
	<text transform="matrix(1 0 0 1 301.334 30.7188)" class="st7 st13 st24">67”</text>
	<rect x="149.4" y="128.2" class="st0" width="14.7" height="7"/>
	<text transform="matrix(1 0 0 1 152.5947 133.7276)" class="st7 st13 st24">72”</text>
	<rect x="174.6" y="128.2" class="st0" width="14.7" height="7"/>
	<text transform="matrix(1 0 0 1 177.7305 133.7276)" class="st7 st13 st24">70”</text>
	<rect x="187.6" y="128.2" class="st0" width="11.9" height="7"/>
	<text transform="matrix(1 0 0 1 190.7891 133.7276)" class="st7 st13 st24">59”</text>
	<text transform="matrix(1 0 0 1 161.2704 226.4713)" class="st7 st13 st24">2”</text>
	<text transform="matrix(1 0 0 1 161.0655 26.0054)" class="st7 st13 st24">2”</text>
	<rect x="149.4" y="280" class="st0" width="14.7" height="7"/>
	<text transform="matrix(1 0 0 1 152.582 285.5229)" class="st7 st13 st24">36”</text>
	<text transform="matrix(1 0 0 1 204.2763 358.0156)" class="st7 st13 st24">12”</text>
	<text transform="matrix(1 0 0 1 65.8906 226.4712)" class="st7 st13 st25">ground</text>
	<text transform="matrix(1 0 0 1 72.8197 231.3008)" class="st7 st13 st25">level</text>
	<text transform="matrix(1 0 0 1 437.5977 177.4248)" class="st7 st13 st25">Item 1</text>
	<text transform="matrix(1 0 0 1 437.5987 48.854)" class="st7 st13 st25">Item 2</text>
	<polygon points="393.9,220.4 393.9,221.5 393.9,222.5 391.7,221.5 	"/>
	<line class="st20" x1="392.1" y1="221.5" x2="437" y2="221.5"/>
	<text transform="matrix(1 0 0 1 437.5977 223.0606)" class="st7 st13 st25">Item 2</text>
	<text transform="matrix(1 0 0 1 437.7627 98.8725)"><tspan x="0" y="0" class="st7 st13 st25">Item 3</tspan><tspan x="0" y="7.1" class="st7 st13 st25">(typ. for 11)</tspan></text>
	<text transform="matrix(1 0 0 1 437.5987 134.564)" class="st7 st13 st25">Item 4</text>
</g>
<g id="table-data">
	<g>
		<text transform="matrix(1 0 0 1 58.146 394.0498)"><tspan x="0" y="0" class="st26 st8 st27">qty</tspan><tspan x="4.7" y="9.4" class="st26 st13 st24">2</tspan><tspan x="4.7" y="18.9" class="st26 st13 st24">2</tspan><tspan x="3.3" y="28.3" class="st26 st13 st24">11</tspan><tspan x="4.7" y="37.7" class="st26 st13 st24">2</tspan></text>
		<text id="Item-Column_1_" transform="matrix(1 0 0 1 25.2974 394.0498)"><tspan x="0" y="0" class="st26 st8 st27">item</tspan><tspan x="6" y="9.4" class="st26 st13 st24">1</tspan><tspan x="6" y="18.9" class="st26 st13 st24">2</tspan><tspan x="6" y="28.3" class="st26 st13 st24">3</tspan><tspan x="6" y="37.7" class="st26 st13 st24">4</tspan></text>
		<text transform="matrix(1 0 0 1 105.727 394.0498)"><tspan x="0" y="0" class="st26 st8 st27">Part number</tspan><tspan x="10.7" y="9.4" class="st26 st13 st24">P55-125w</tspan><tspan x="10.7" y="18.9" class="st26 st13 st24">P55-125w</tspan><tspan x="10.7" y="28.3" class="st26 st13 st24">P55-125w</tspan><tspan x="10.7" y="37.7" class="st26 st13 st24">P55-125w</tspan></text>
		<text transform="matrix(1 0 0 1 233.6543 394.0498)"><tspan x="0" y="0" class="st26 st8 st27">description</tspan><tspan x="-14.8" y="9.4" class="st26 st13 st24">5” x 5” x 108” .135” wall POST</tspan><tspan x="-29.7" y="18.9" class="st26 st13 st24">1.75” x 5.5” x 71.5” .080” wall POCKET RAIL</tspan><tspan x="-45.2" y="28.3" class="st26 st13 st24">.875” x 6” x 62.25” .055” wall TONGUE &amp; GROOVE PICKET</tspan><tspan x="-24" y="37.7" class="st26 st13 st24">.875” x 58.875” .045” wall U-CHANNEL</tspan></text>
	</g>
</g>
<g id="logo">
	<rect x="443.3" y="399.5" class="st10" width="81.7" height="36.4"/>
	<text transform="matrix(1 0 0 1 443.2608 403.1299)"><tspan x="0" y="0" class="st7 st28 st14">proprietary and confidential</tspan><tspan x="0" y="4.7" class="st7 st11 st12">the information contained in this </tspan><tspan x="0" y="9.4" class="st7 st11 st12">drawing is the sole property of fence </tspan><tspan x="0" y="14.1" class="st7 st11 st12">company inc. any reproduction in </tspan><tspan x="0" y="18.9" class="st7 st11 st12">part or as a whole without the </tspan><tspan x="0" y="23.6" class="st7 st11 st12">written permission of fence company </tspan><tspan x="0" y="28.3" class="st7 st11 st12">inc is prohibited</tspan></text>
	<rect x="386.5" y="408.5" class="st10" width="54" height="23.6"/>
	<text transform="matrix(1 0 0 1 386.5088 411.7579)"><tspan x="0" y="0" class="st7 st29 st14">NOTE:</tspan><tspan x="0" y="3.9" class="st7 st13 st12">instALLATION TO BE </tspan><tspan x="0" y="7.9" class="st7 st13 st12">COMPLETED IN ACCORDANCE </tspan><tspan x="0" y="11.8" class="st7 st13 st12">WITH MANUFACTURER </tspan><tspan x="0" y="15.7" class="st7 st13 st12">SPECIFICATIONS AND LOCAL </tspan><tspan x="0" y="19.6" class="st7 st13 st12">BUILDING CODES</tspan></text>
</g>
<g id="_x3C_Layer_x3E_">
	<text transform="matrix(1 0 0 1 430.2344 393.2646)" class="st7 st13 st14">drawn by: ag</text>
	<text transform="matrix(1 0 0 1 467.3487 393.2647)" class="st7 st13 st14">© fence company inc. </text>
</g>
<g id="Layer_1">
	<g>
		<g class="st1">
			<polygon class="st30" points="561.1,376.9 551.6,382.4 551.6,393.3 553.6,394.4 553.6,386.9 553.6,386.9 553.6,386.7 
				554.6,386.7 554.6,386.9 554.6,386.9 554.6,387.1 567.8,387.1 567.8,386.9 567.8,386.9 567.8,386.7 568.8,386.7 568.8,386.9 
				568.8,386.9 568.8,394.2 570.5,393.3 570.5,382.4 			"/>
			<text transform="matrix(1 0 0 1 552.4891 385.0038)" class="st31 st32 st33">FenceCompany</text>
		</g>
		<g>
			<g>
				<g>
					<polygon class="st34" points="559.9,375.8 550.5,381.2 550.5,392.1 552.5,393.3 552.5,385.7 552.5,385.7 552.5,385.5 
						553.5,385.5 553.5,385.7 553.5,385.7 553.5,386 566.7,386 566.7,385.7 566.7,385.7 566.7,385.6 567.7,385.6 567.7,385.7 
						567.7,385.7 567.7,393.1 569.4,392.1 569.4,381.2 					"/>
				</g>
				<text transform="matrix(1 0 0 1 551.3525 383.8672)" class="st0 st32 st33">FenceCompany</text>
			</g>
		</g>
	</g>
</g>
<g id="objects">
	<path class="st35" d="M0,493.5c0,5,137,9,306,9s306-4,306-9"/>
	<path class="st35" d="M612,493.5c0-5-137-9-306-9s-306,4-306,9"/>
</g>
</svg>
