<?xml version="1.0" encoding="utf-8"?>
<!-- Generator: Adobe Illustrator 19.1.0, SVG Export Plug-In . SVG Version: 6.00 Build 0)  -->
<svg version="1.1" xmlns="http://www.w3.org/2000/svg" xmlns:xlink="http://www.w3.org/1999/xlink" x="0px" y="0px"
	 viewBox="0 0 609.2 486.2" style="enable-background:new 0 0 609.2 486.2;" xml:space="preserve">
<style type="text/css">
	.st0{opacity:0.55;}
	.st1{fill:#C6C6C5;stroke:#C6C6C5;stroke-width:4.3339;stroke-miterlimit:10;}
	.st2{fill:none;stroke:#C6C6C5;stroke-miterlimit:10;}
	.st3{fill:#C6C6C5;stroke:#C6C6C5;stroke-width:0.9451;stroke-miterlimit:10;}
	.st4{fill:#C6C6C5;}
	.st5{font-family:'ProximaNova-Black';}
	.st6{font-size:6.2198px;}
	.st7{font-family:'ProximaNova-Light';}
	.st8{font-size:10px;}
	.st9{fill:none;}
	.st10{font-size:5px;}
	.st11{fill:#EAEAEA;stroke:#353535;stroke-width:4.3339;stroke-miterlimit:10;}
	.st12{fill:none;stroke:#231F20;stroke-miterlimit:10;}
	.st13{fill:#BE384B;stroke:#FFFFFF;stroke-width:0.9451;stroke-miterlimit:10;}
	.st14{fill:#FFFFFF;}
	.st15{fill:#231F20;}
	.st16{fill:none;stroke:#C6C6C5;stroke-width:4.0181;stroke-miterlimit:10;}
	.st17{fill:#2E96AC;}
	.st18{fill:none;stroke:#353535;stroke-width:4.0181;stroke-miterlimit:10;}
	.st19{opacity:0.2;}
	.st20{fill:#353535;stroke:#353535;stroke-width:2.5417;stroke-miterlimit:10;}
	.st21{fill:#353535;}
	.st22{font-size:16.7272px;}
	.st23{fill:#BE384B;stroke:#FFFFFF;stroke-width:2.5417;stroke-miterlimit:10;}
	.st24{fill:#FFFFFF;stroke:#353535;stroke-width:1.0686;stroke-miterlimit:10;}
	.st25{font-size:25.1817px;}
	.st26{fill:none;stroke:#C6C6C5;stroke-width:5;stroke-miterlimit:10;}
	.st27{fill:none;stroke:#353535;stroke-width:5;stroke-miterlimit:10;}
	.st28{fill:none;stroke:#C6C6C5;stroke-width:0.1164;stroke-miterlimit:10;}
	.st29{fill:none;stroke:#E5E5E5;stroke-width:0.1164;stroke-miterlimit:10;}
	.st30{fill:#2B2B2B;stroke:#2B2B2B;stroke-width:3.4364;stroke-miterlimit:10;}
	.st31{fill:#2B2B2B;}
	.st32{font-size:22.6152px;}
	.st33{fill:#BE384B;stroke:#FFFFFF;stroke-width:3.4364;stroke-miterlimit:10;}
	.st34{fill:#E6E6E5;}
</style>
<g id="Objects">
	<g>
		<g class="st0">
			<rect x="298.2" y="112.3" class="st1" width="293" height="299"/>
			<rect x="318.2" y="186.3" class="st2" width="262" height="205.2"/>
			<polygon class="st3" points="548.3,129 523.2,143.5 523.2,172.5 528.5,175.5 528.5,155.5 528.4,155.5 528.4,155 531.1,155 
				531.1,155.5 531.1,155.5 531.1,156.2 566.2,156.2 566.2,155.5 566.2,155.5 566.2,155 568.9,155 568.9,155.5 568.9,155.5 
				568.9,175.1 573.4,172.5 573.4,143.5 			"/>
			<text transform="matrix(1 0 0 1 525.4371 150.5186)" class="st4 st5 st6">FenceCompany</text>
			<text transform="matrix(1 0 0 1 326.2072 209.337)"><tspan x="0" y="0" class="st4 st7 st8">100’ of Fencing Installation</tspan><tspan x="0" y="24" class="st4 st7 st8">Misc. Repairs </tspan><tspan x="0" y="48" class="st4 st7 st8">New Gate and Hardware</tspan><tspan x="0" y="72" class="st4 st7 st8">Brackets</tspan></text>
			<text transform="matrix(1 0 0 1 543.4884 210.3434)"><tspan x="0" y="0" class="st4 st7 st8">$2000</tspan><tspan x="6.5" y="24" class="st4 st7 st8">$400</tspan><tspan x="9.1" y="48" class="st4 st7 st8">$120</tspan><tspan x="12.2" y="72" class="st4 st7 st8">$50</tspan></text>
			<text transform="matrix(1 0 0 1 492.0419 309.2602)" class="st4 st5 st8">TOTAL        $2570</text>
			<rect x="318.2" y="295.6" class="st2" width="262" height="18.8"/>
			<rect x="328.2" y="323.3" class="st9" width="150.5" height="44.5"/>
			<text transform="matrix(1 0 0 1 328.2008 326.668)"><tspan x="0" y="0" class="st4 st5 st10">Lorem ipsum dolor sit amet, consectetur adipiscing elit. </tspan><tspan x="0" y="6" class="st4 st5 st10">Curabitur vestibulum sapien vel lectus aliquet, eget feugiat odio </tspan><tspan x="0" y="12" class="st4 st5 st10">molestie. Morbi id bibendum ante, ac molestie ligula. Etiam </tspan><tspan x="0" y="18" class="st4 st5 st10">lobortis scelerisque metus eget mollis. Donec viverra euismod </tspan><tspan x="0" y="24" class="st4 st5 st10">nulla, ut pellentesque augue bibendum et. In in consequat odio. </tspan><tspan x="0" y="30" class="st4 st5 st10">Phasellus sapien ex, dapibus quis rhoncus vitae, congue quis </tspan><tspan x="0" y="36" class="st4 st5 st10">augue. Proin elementum iaculis ante, vel interdum enim </tspan></text>
			<text transform="matrix(1 0 0 1 328.2008 379.833)" class="st4 st5 st10">SIGNATURE ______________________________________</text>
		</g>
		<g>
			<g>
				<g>
					<rect x="287.2" y="101.3" class="st11" width="293" height="299"/>
					<rect x="307.2" y="175.3" class="st12" width="262" height="205.2"/>
					<g>
						<g>
							<polygon class="st13" points="537.3,118 512.2,132.5 512.2,161.5 517.5,164.5 517.5,144.5 517.4,144.5 517.4,144 520.1,144 
								520.1,144.5 520.1,144.5 520.1,145.2 555.2,145.2 555.2,144.5 555.2,144.5 555.2,144 557.9,144 557.9,144.5 557.9,144.5 
								557.9,164.1 562.4,161.5 562.4,132.5 							"/>
						</g>
						<text transform="matrix(1 0 0 1 514.4371 139.5186)" class="st14 st5 st6">FenceCompany</text>
					</g>
					<text transform="matrix(1 0 0 1 315.2072 198.337)"><tspan x="0" y="0" class="st15 st7 st8">100’ of Fencing Installation</tspan><tspan x="0" y="24" class="st15 st7 st8">Misc. Repairs </tspan><tspan x="0" y="48" class="st15 st7 st8">New Gate and Hardware</tspan><tspan x="0" y="72" class="st15 st7 st8">Brackets</tspan></text>
					<text transform="matrix(1 0 0 1 532.4884 199.3434)"><tspan x="0" y="0" class="st15 st7 st8">$2000</tspan><tspan x="6.5" y="24" class="st15 st7 st8">$400</tspan><tspan x="9.1" y="48" class="st15 st7 st8">$120</tspan><tspan x="12.2" y="72" class="st15 st7 st8">$50</tspan></text>
					<text transform="matrix(1 0 0 1 481.0419 298.2602)" class="st15 st5 st8">TOTAL        $2570</text>
					<rect x="307.2" y="284.6" class="st12" width="262" height="18.8"/>
				</g>
				<rect x="317.2" y="312.3" class="st9" width="150.5" height="44.5"/>
				<text transform="matrix(1 0 0 1 317.2008 315.668)"><tspan x="0" y="0" class="st15 st5 st10">Lorem ipsum dolor sit amet, consectetur adipiscing elit. </tspan><tspan x="0" y="6" class="st15 st5 st10">Curabitur vestibulum sapien vel lectus aliquet, eget feugiat odio </tspan><tspan x="0" y="12" class="st15 st5 st10">molestie. Morbi id bibendum ante, ac molestie ligula. Etiam </tspan><tspan x="0" y="18" class="st15 st5 st10">lobortis scelerisque metus eget mollis. Donec viverra euismod </tspan><tspan x="0" y="24" class="st15 st5 st10">nulla, ut pellentesque augue bibendum et. In in consequat odio. </tspan><tspan x="0" y="30" class="st15 st5 st10">Phasellus sapien ex, dapibus quis rhoncus vitae, congue quis </tspan><tspan x="0" y="36" class="st15 st5 st10">augue. Proin elementum iaculis ante, vel interdum enim </tspan></text>
				<text transform="matrix(1 0 0 1 317.2008 368.833)" class="st15 st5 st10">SIGNATURE ______________________________________</text>
			</g>
		</g>
	</g>
	<g>
		<g>
			<g class="st0">
				<rect x="24.9" y="234.6" class="st4" width="254.5" height="179.5"/>
				<rect x="24.9" y="234.6" class="st16" width="254.5" height="179.5"/>
			</g>
			<g>
				<rect x="13.9" y="223.6" class="st17" width="254.5" height="179.5"/>
				<rect x="13.9" y="223.6" class="st18" width="254.5" height="179.5"/>
			</g>
		</g>
		<g>
			<g class="st19">
				<polygon class="st20" points="157.9,241.6 90.4,280.5 90.4,358.4 104.6,366.7 104.6,312.8 104.4,312.8 104.4,311.4 111.7,311.5 
					111.7,312.8 111.7,312.8 111.7,314.6 206.1,314.6 206.1,312.9 206,312.9 206,311.6 213.3,311.6 213.3,312.9 213.2,312.9 
					213.2,365.5 225.4,358.4 225.4,280.5 				"/>
				<text transform="matrix(1 0 0 1 96.3983 299.4218)" class="st21 st5 st22">FenceCompany</text>
			</g>
			<g>
				<g>
					<g>
						<polygon class="st23" points="146.9,230.6 79.4,269.5 79.4,347.4 93.6,355.7 93.6,301.8 93.4,301.8 93.4,300.4 100.7,300.5 
							100.7,301.8 100.7,301.8 100.7,303.6 195.1,303.6 195.1,301.9 195,301.9 195,300.6 202.3,300.6 202.3,301.9 202.2,301.9 
							202.2,354.5 214.4,347.4 214.4,269.5 						"/>
					</g>
					<text transform="matrix(1 0 0 1 85.3983 288.4218)" class="st14 st5 st22">FenceCompany</text>
				</g>
			</g>
		</g>
		<g>
			<text transform="matrix(1 0 0 1 24.2331 383.1194)" class="st24 st5 st25">CALL 555-555-5555</text>
		</g>
	</g>
	<g>
		<g class="st0">
			<path class="st4" d="M457.7,107.2C415,51.9,404.3,58.6,352.8,58.6c0,0-6.6,38.2-56.2,39.7c-46.1-1.6-55.5-39.7-55.5-39.7
				c-51.5,0-61.2-6.8-104,48.6c-12.9,16.7-40.8,55.4-40.8,55.4l59.8,56.4l25.8-15.7v225.1h228V203.3l27.3,15.7l61.3-56.4
				C498.5,162.6,470.6,124,457.7,107.2z"/>
			<path class="st26" d="M457.7,107.2C415,51.9,404.3,58.6,352.8,58.6c0,0-6.6,38.2-56.2,39.7c-46.1-1.6-55.5-39.7-55.5-39.7
				c-51.5,0-61.2-6.8-104,48.6c-12.9,16.7-40.8,55.4-40.8,55.4l60.1,56.4l26.1-15.7v224.6h228V203.3l27,15.7l61.1-56.4
				C498.6,162.6,470.6,124,457.7,107.2z"/>
		</g>
		<g>
			<path class="st21" d="M446.7,96.2C404,40.9,393.3,47.6,341.8,47.6c0,0-6.6,38.2-56.2,39.7c-46.1-1.6-55.5-39.7-55.5-39.7
				c-51.5,0-61.2-6.8-104,48.6c-12.9,16.7-40.8,55.4-40.8,55.4l59.8,56.4l25.8-15.7v225.1h228V192.3l27.3,15.7l61.3-56.4
				C487.5,151.6,459.6,113,446.7,96.2z"/>
			<path class="st27" d="M446.7,96.2C404,40.9,393.3,47.6,341.8,47.6c0,0-6.6,38.2-56.2,39.7c-46.1-1.6-55.5-39.7-55.5-39.7
				c-51.5,0-61.2-6.8-104,48.6c-12.9,16.7-40.8,55.4-40.8,55.4l60.1,56.4l26.1-15.7v224.6h228V192.3l27,15.7l61.1-56.4
				C487.6,151.6,459.6,113,446.7,96.2z"/>
		</g>
	</g>
</g>
<g id="Layer_1">
	<g>
	</g>
	<g>
		<g class="st0">
			<line class="st28" x1="228.6" y1="127.4" x2="228.6" y2="127.4"/>
		</g>
		<g>
			<line class="st29" x1="217.6" y1="116.4" x2="217.6" y2="116.4"/>
		</g>
	</g>
	<g>
		<g class="st19">
			<polygon class="st30" points="296.2,112.3 205,165 205,270.4 224.2,281.5 224.2,208.6 223.9,208.6 223.9,206.8 233.8,206.8 
				233.8,208.6 233.7,208.6 233.7,211.1 361.5,211.1 361.5,208.8 361.3,208.8 361.3,207 371.1,207 371.1,208.8 370.9,208.8 
				371,279.9 387.4,270.4 387.4,165 			"/>
			<text transform="matrix(1 0 0 1 215.0902 190.5744)" class="st31 st5 st32">FenceCompany</text>
		</g>
		<g>
			<g>
				<g>
					<polygon class="st33" points="285.2,101.3 194,154 194,259.4 213.2,270.5 213.2,197.6 212.9,197.6 212.9,195.8 222.8,195.8 
						222.8,197.6 222.7,197.6 222.7,200.1 350.5,200.1 350.5,197.8 350.3,197.8 350.3,196 360.1,196 360.1,197.8 359.9,197.8 
						360,268.9 376.4,259.4 376.4,154 					"/>
				</g>
				<text transform="matrix(1 0 0 1 204.0902 179.5744)" class="st14 st5 st32">FenceCompany</text>
			</g>
		</g>
	</g>
</g>
<g id="objects">
	<path class="st34" d="M0,477.2c0,5,136.4,9,304.6,9s304.6-4,304.6-9"/>
	<path class="st34" d="M609.2,477.2c0-5-136.4-9-304.6-9S0,472.3,0,477.2"/>
</g>
</svg>
