<?xml version="1.0" encoding="utf-8"?>
<!-- Generator: Adobe Illustrator 19.1.0, SVG Export Plug-In . SVG Version: 6.00 Build 0)  -->
<svg version="1.1" xmlns="http://www.w3.org/2000/svg" xmlns:xlink="http://www.w3.org/1999/xlink" x="0px" y="0px"
	 viewBox="0 0 802 463" style="enable-background:new 0 0 802 463;" xml:space="preserve">
<style type="text/css">
	.st0{display:none;}
	.st1{display:inline;fill:#FFFFFF;}
	.st2{display:inline;}
	.st3{fill-rule:evenodd;clip-rule:evenodd;fill:#FF4522;}
	.st4{fill:#FF4522;}
	.st5{fill:#4D4D4D;}
	.st6{fill:#F2F2F2;}
	.st7{fill:#B3B3B3;}
	.st8{fill:#47DEE5;}
	.st9{fill:#999999;}
	.st10{fill:#353535;}
	.st11{fill:#BE374A;}
	.st12{display:inline;fill:#FF4522;}
	.st13{display:inline;fill:#47DEE5;}
	.st14{display:inline;fill:#999999;}
	.st15{display:inline;fill:#309599;}
	.st16{fill:#D8D8D7;}
	.st17{fill:#FFFFFF;}
	.st18{fill:#EE4338;}
	.st19{fill:#80C242;}
	.st20{fill:#F9EC27;}
	.st21{fill:none;stroke:#EE4338;stroke-width:0.9981;stroke-miterlimit:10;}
</style>
<g id="background" class="st0">
	<rect y="-232" class="st1" width="800" height="800"/>
	<g class="st2">
		<path class="st3" d="M391.4,543.4c0.2-0.1,0.7-0.2,0.6-0.5c0-0.3-0.3-1,0.4-1.3c0.7-0.2,0.3,0.2,0.1,0.5c-0.2,0.3-0.2,0.5-0.1,0.9
			c0,0.4-0.3,0.6-0.7,0.8C391.1,544,391.1,543.5,391.4,543.4"/>
		<path class="st3" d="M380.2,539.4c2.7-0.7,4.3,0.1,4.3,0.1l-0.1,0.8c0,0-2-0.1-3.5,0.1c-1.5,0.2-2.3,0.7-2.3,0.7l-0.3-0.8
			C378.3,540.4,379,539.7,380.2,539.4"/>
		<polygon class="st3" points="381,538.4 381.3,538.2 381.8,539.5 381.5,539.7 		"/>
		<path class="st3" d="M392.7,540.8c0.4,0,0.7,0.3,0.7,0.6c0,0.4-0.3,0.7-0.6,0.7c-0.4,0-0.7-0.3-0.7-0.6
			C392.1,541.2,392.4,540.9,392.7,540.8"/>
		<path class="st3" d="M369.3,543.4c0.4,0,0.7,0.3,0.7,0.6c0,0.4-0.3,0.7-0.6,0.7c-0.4,0-0.7-0.3-0.7-0.6
			C368.6,543.8,368.9,543.4,369.3,543.4"/>
		<path class="st3" d="M381.3,536.6c0.6,0,1.1,0.4,1.2,1c0,0.6-0.4,1.1-1,1.2c-0.6,0-1.1-0.4-1.2-1
			C380.2,537.2,380.7,536.7,381.3,536.6"/>
		<g>
			<path class="st4" d="M397.8,544.7h0.7v-0.9c0-0.9,0.1-1.6,0.3-2.1c0.2-0.5,0.6-0.9,1.2-1.2c0.5-0.2,1.3-0.4,2.2-0.4
				c1.7,0,2.5,0.4,2.5,1.2c0,0.3-0.1,0.5-0.3,0.7c-0.2,0.2-0.4,0.3-0.6,0.3c-0.1,0-0.3,0-0.6-0.1c-0.3,0-0.5-0.1-0.7-0.1
				c-0.5,0-0.8,0.2-1,0.5c-0.1,0.3-0.2,0.7-0.2,1.3v0.7h0.7c1.1,0,1.6,0.3,1.6,1c0,0.5-0.1,0.8-0.4,0.9c-0.3,0.1-0.7,0.2-1.2,0.2
				h-0.7v7.6c0,0.6-0.1,1-0.4,1.3c-0.3,0.3-0.6,0.5-1,0.5c-0.4,0-0.7-0.2-1-0.5c-0.3-0.3-0.4-0.7-0.4-1.3v-7.6h-0.8
				c-0.4,0-0.8-0.1-1-0.3c-0.2-0.2-0.3-0.4-0.3-0.8C396.4,545,396.8,544.7,397.8,544.7"/>
			<path class="st4" d="M407.2,552v2.4c0,0.6-0.1,1-0.4,1.3c-0.3,0.3-0.6,0.4-1,0.4c-0.4,0-0.8-0.1-1-0.4c-0.3-0.3-0.4-0.7-0.4-1.3
				v-8c0-1.3,0.5-1.9,1.4-1.9c0.5,0,0.8,0.2,1,0.5c0.2,0.3,0.3,0.8,0.3,1.3c0.3-0.6,0.7-1,1.1-1.3c0.4-0.3,0.8-0.5,1.4-0.5
				c0.6,0,1.2,0.2,1.8,0.5c0.6,0.3,0.9,0.7,0.9,1.2c0,0.4-0.1,0.6-0.4,0.9c-0.2,0.2-0.5,0.3-0.8,0.3c-0.1,0-0.4-0.1-0.8-0.2
				c-0.4-0.1-0.8-0.2-1.1-0.2c-0.4,0-0.8,0.1-1,0.3c-0.3,0.2-0.5,0.6-0.6,1c-0.1,0.4-0.2,1-0.3,1.6
				C407.2,550.4,407.2,551.1,407.2,552"/>
			<path class="st4" d="M420.4,551h-5.6c0,0.7,0.1,1.2,0.4,1.7c0.3,0.5,0.6,0.9,1,1.1c0.4,0.3,0.9,0.4,1.4,0.4c0.3,0,0.7,0,0.9-0.1
				c0.3-0.1,0.6-0.2,0.8-0.4c0.3-0.2,0.5-0.4,0.7-0.6c0.2-0.2,0.5-0.5,0.9-0.8c0.2-0.1,0.4-0.2,0.6-0.2c0.3,0,0.5,0.1,0.7,0.2
				c0.2,0.2,0.3,0.4,0.3,0.7c0,0.3-0.1,0.6-0.3,0.9c-0.2,0.4-0.5,0.7-0.9,1c-0.4,0.3-0.9,0.6-1.5,0.8c-0.6,0.2-1.3,0.3-2.1,0.3
				c-1.8,0-3.3-0.5-4.3-1.6c-1-1.1-1.5-2.5-1.5-4.3c0-0.8,0.1-1.6,0.4-2.4c0.2-0.7,0.6-1.3,1.1-1.9c0.5-0.5,1.1-0.9,1.8-1.2
				c0.7-0.3,1.5-0.4,2.4-0.4c1.1,0,2.1,0.2,2.9,0.7c0.8,0.5,1.4,1.1,1.8,1.8c0.4,0.8,0.6,1.5,0.6,2.3c0,0.7-0.2,1.2-0.6,1.4
				C421.7,550.9,421.1,551,420.4,551 M414.8,549.3h5.2c-0.1-1-0.3-1.7-0.8-2.2c-0.5-0.5-1.1-0.7-1.8-0.7c-0.7,0-1.3,0.2-1.8,0.7
				C415.2,547.6,414.9,548.4,414.8,549.3"/>
			<path class="st4" d="M432.3,551h-5.6c0,0.7,0.1,1.2,0.4,1.7c0.3,0.5,0.6,0.9,1,1.1c0.4,0.3,0.9,0.4,1.4,0.4c0.3,0,0.7,0,0.9-0.1
				c0.3-0.1,0.6-0.2,0.8-0.4c0.3-0.2,0.5-0.4,0.7-0.6c0.2-0.2,0.5-0.5,0.9-0.8c0.2-0.1,0.4-0.2,0.6-0.2c0.3,0,0.5,0.1,0.7,0.2
				c0.2,0.2,0.3,0.4,0.3,0.7c0,0.3-0.1,0.6-0.3,0.9c-0.2,0.4-0.5,0.7-0.9,1c-0.4,0.3-0.9,0.6-1.5,0.8c-0.6,0.2-1.3,0.3-2.1,0.3
				c-1.8,0-3.3-0.5-4.3-1.6c-1-1.1-1.5-2.5-1.5-4.3c0-0.8,0.1-1.6,0.4-2.4c0.3-0.7,0.6-1.3,1.1-1.9c0.5-0.5,1.1-0.9,1.8-1.2
				c0.7-0.3,1.5-0.4,2.4-0.4c1.1,0,2.1,0.2,2.9,0.7c0.8,0.5,1.4,1.1,1.8,1.8c0.4,0.8,0.6,1.5,0.6,2.3c0,0.7-0.2,1.2-0.6,1.4
				C433.7,550.9,433.1,551,432.3,551 M426.7,549.3h5.2c-0.1-1-0.3-1.7-0.8-2.2c-0.5-0.5-1.1-0.7-1.8-0.7c-0.7,0-1.3,0.2-1.8,0.7
				C427.1,547.6,426.8,548.4,426.7,549.3"/>
			<path class="st4" d="M438.6,546v0.3c0.5-0.7,1.1-1.2,1.7-1.5c0.6-0.3,1.2-0.5,2-0.5c0.9,0,1.7,0.2,2.4,0.7c0.7,0.5,1.3,1.1,1.8,2
				c0.4,0.9,0.7,1.9,0.7,3.1c0,0.9-0.1,1.7-0.4,2.4c-0.2,0.7-0.6,1.4-1,1.9c-0.4,0.5-0.9,0.9-1.5,1.2c-0.6,0.3-1.2,0.4-1.9,0.4
				c-0.8,0-1.5-0.2-2.1-0.5c-0.6-0.3-1.1-0.8-1.6-1.4v4.3c0,1.3-0.5,1.9-1.4,1.9c-0.5,0-0.9-0.2-1.1-0.5c-0.2-0.3-0.3-0.8-0.3-1.4
				v-12.4c0-0.5,0.1-1,0.4-1.2c0.2-0.3,0.6-0.4,1-0.4c0.4,0,0.7,0.1,1,0.4C438.5,545.1,438.6,545.5,438.6,546 M444.3,550.2
				c0-0.8-0.1-1.4-0.3-1.9c-0.2-0.5-0.5-1-1-1.3c-0.4-0.3-0.9-0.4-1.4-0.4c-0.8,0-1.5,0.3-2,0.9c-0.5,0.6-0.8,1.5-0.8,2.8
				c0,1.1,0.3,2,0.8,2.7c0.5,0.6,1.2,0.9,2,0.9c0.5,0,0.9-0.1,1.3-0.4c0.4-0.3,0.7-0.7,1-1.3C444.1,551.7,444.3,551,444.3,550.2"/>
			<path class="st4" d="M450,543.1c-0.4,0-0.7-0.1-1-0.4c-0.3-0.3-0.4-0.6-0.4-1c0-0.4,0.1-0.7,0.4-1c0.3-0.3,0.6-0.4,1-0.4
				c0.4,0,0.7,0.1,1,0.4c0.3,0.2,0.4,0.6,0.4,1c0,0.4-0.1,0.8-0.4,1C450.7,543,450.4,543.1,450,543.1 M451.4,546.1v8.3
				c0,0.6-0.1,1-0.4,1.3c-0.3,0.3-0.6,0.4-1,0.4c-0.4,0-0.8-0.2-1-0.5c-0.3-0.3-0.4-0.7-0.4-1.3v-8.2c0-0.6,0.1-1,0.4-1.3
				c0.3-0.3,0.6-0.4,1-0.4c0.4,0,0.8,0.1,1,0.4C451.3,545.1,451.4,545.5,451.4,546.1"/>
			<path class="st4" d="M460.7,554.8l-2.5-4.2l-1.6,1.5v2.3c0,0.6-0.1,1-0.4,1.3c-0.3,0.3-0.6,0.5-1,0.5c-0.4,0-0.8-0.1-1-0.4
				c-0.2-0.3-0.4-0.7-0.4-1.3v-12.3c0-0.6,0.1-1.1,0.4-1.5c0.2-0.3,0.6-0.5,1.1-0.5c0.4,0,0.8,0.2,1,0.5c0.3,0.3,0.4,0.7,0.4,1.3v7
				l3.2-3.4c0.4-0.4,0.7-0.7,0.9-0.9c0.2-0.2,0.5-0.2,0.8-0.2c0.4,0,0.7,0.1,0.9,0.3c0.2,0.2,0.4,0.5,0.4,0.9c0,0.4-0.4,1-1.2,1.7
				l-1.5,1.4l2.9,4.6c0.2,0.3,0.4,0.6,0.5,0.8c0.1,0.2,0.1,0.4,0.1,0.5c0,0.5-0.1,0.8-0.4,1.1c-0.3,0.3-0.6,0.4-1,0.4
				c-0.3,0-0.6-0.1-0.8-0.3C461.3,555.6,461,555.3,460.7,554.8"/>
			<path class="st4" d="M466.9,556.1c-0.4,0-0.8-0.1-1.1-0.4c-0.3-0.3-0.5-0.7-0.5-1.2c0-0.4,0.2-0.8,0.5-1.1
				c0.3-0.3,0.7-0.5,1.1-0.5s0.8,0.2,1.1,0.5c0.3,0.3,0.5,0.7,0.5,1.1c0,0.5-0.2,0.9-0.5,1.2C467.7,556,467.4,556.1,466.9,556.1"/>
			<path class="st4" d="M481.2,552.5c0,0.4-0.1,0.7-0.3,1.1c-0.2,0.4-0.5,0.8-1,1.2c-0.4,0.4-1,0.7-1.7,0.9
				c-0.7,0.2-1.4,0.3-2.2,0.3c-1.8,0-3.2-0.5-4.2-1.6c-1-1-1.5-2.4-1.5-4.2c0-1.2,0.2-2.2,0.7-3.1c0.5-0.9,1.1-1.6,2-2.1
				c0.9-0.5,1.9-0.7,3.1-0.7c0.7,0,1.4,0.1,2,0.3c0.6,0.2,1.1,0.5,1.6,0.8c0.4,0.4,0.8,0.7,1,1.1c0.2,0.4,0.3,0.8,0.3,1.1
				c0,0.3-0.1,0.6-0.4,0.9c-0.3,0.2-0.6,0.4-0.9,0.4c-0.2,0-0.4-0.1-0.6-0.2c-0.2-0.1-0.3-0.3-0.5-0.6c-0.4-0.5-0.7-0.9-1.1-1.2
				c-0.4-0.3-0.9-0.4-1.5-0.4c-0.8,0-1.5,0.3-2.1,1c-0.5,0.7-0.8,1.6-0.8,2.7c0,0.5,0.1,1,0.2,1.5c0.1,0.4,0.3,0.8,0.6,1.2
				c0.3,0.3,0.6,0.6,0.9,0.7c0.4,0.2,0.8,0.3,1.2,0.3c0.6,0,1.1-0.1,1.5-0.4c0.4-0.3,0.8-0.7,1.1-1.2c0.2-0.3,0.4-0.6,0.6-0.8
				c0.2-0.2,0.5-0.3,0.7-0.3c0.4,0,0.6,0.1,0.9,0.4C481.1,552,481.2,552.2,481.2,552.5"/>
			<path class="st4" d="M493.6,550.3c0,0.9-0.1,1.6-0.4,2.4c-0.3,0.7-0.7,1.3-1.2,1.9c-0.5,0.5-1.1,0.9-1.8,1.2
				c-0.7,0.3-1.5,0.4-2.4,0.4c-0.9,0-1.7-0.1-2.3-0.4c-0.7-0.3-1.3-0.7-1.8-1.2c-0.5-0.5-0.9-1.1-1.2-1.9c-0.3-0.7-0.4-1.5-0.4-2.4
				c0-0.9,0.1-1.7,0.4-2.4c0.3-0.7,0.7-1.3,1.2-1.8c0.5-0.5,1.1-0.9,1.8-1.2c0.7-0.3,1.5-0.4,2.3-0.4c0.9,0,1.7,0.1,2.4,0.4
				c0.7,0.3,1.3,0.7,1.8,1.2c0.5,0.5,0.9,1.1,1.2,1.9C493.5,548.6,493.6,549.4,493.6,550.3 M490.7,550.3c0-1.2-0.3-2.1-0.8-2.7
				c-0.5-0.7-1.2-1-2.1-1c-0.6,0-1.1,0.1-1.5,0.4c-0.4,0.3-0.8,0.7-1,1.3c-0.2,0.6-0.3,1.2-0.3,2c0,0.8,0.1,1.4,0.3,2
				c0.2,0.6,0.6,1,1,1.3c0.4,0.3,0.9,0.4,1.5,0.4c0.9,0,1.6-0.3,2.1-1C490.5,552.3,490.7,551.4,490.7,550.3"/>
			<path class="st4" d="M504.6,550.5v3.8c0,0.6-0.1,1-0.4,1.4c-0.3,0.3-0.6,0.5-1.1,0.5c-0.4,0-0.8-0.2-1.1-0.5
				c-0.3-0.3-0.4-0.8-0.4-1.4v-4.6c0-0.7,0-1.3-0.1-1.7c-0.1-0.4-0.2-0.7-0.4-1c-0.2-0.3-0.6-0.4-1-0.4c-0.9,0-1.6,0.3-1.9,1
				c-0.3,0.6-0.5,1.6-0.5,2.8v3.9c0,0.6-0.1,1-0.4,1.3c-0.3,0.3-0.6,0.5-1.1,0.5c-0.4,0-0.8-0.2-1.1-0.5c-0.3-0.3-0.4-0.8-0.4-1.3
				v-8.2c0-0.5,0.1-0.9,0.4-1.2c0.3-0.3,0.6-0.4,1-0.4c0.4,0,0.7,0.1,1,0.4c0.3,0.3,0.4,0.6,0.4,1.1v0.3c0.5-0.6,1-1,1.6-1.3
				c0.6-0.3,1.2-0.4,1.9-0.4c0.7,0,1.3,0.1,1.9,0.4c0.5,0.3,0.9,0.7,1.3,1.3c0.5-0.6,1-1,1.6-1.3c0.6-0.3,1.2-0.4,1.8-0.4
				c0.8,0,1.5,0.2,2,0.5c0.6,0.3,1,0.8,1.3,1.3c0.2,0.5,0.4,1.3,0.4,2.5v5.6c0,0.6-0.1,1-0.4,1.4c-0.3,0.3-0.6,0.5-1.1,0.5
				c-0.4,0-0.8-0.2-1.1-0.5c-0.3-0.3-0.4-0.8-0.4-1.3v-4.8c0-0.6,0-1.1-0.1-1.5c-0.1-0.4-0.2-0.7-0.4-0.9c-0.2-0.3-0.6-0.4-1.1-0.4
				c-0.4,0-0.7,0.1-1.1,0.3c-0.3,0.2-0.6,0.5-0.8,0.9C504.7,548.4,504.6,549.2,504.6,550.5"/>
			<path class="st3" d="M377.9,557.1c0,0-1.6-0.3-3.1-1.9c-1.5-1.7-1.8-3.5-1.8-3.5s2,0.5,3.4,0.6c2.5,0.3,4.7,0.1,5.8,0
				c2.3-0.3,3.5-0.7,4-0.8c2.9-0.7,5.7-2.6,5.7-2.6s0.4,2.2-1.3,4.6c-0.6,0.9-1.9,2-3.4,2.8C382.1,558.5,377.9,557.1,377.9,557.1"/>
			<path class="st3" d="M389.8,544.7c-0.5-0.7-2.3-3.7-6-4.2c-0.9-0.1-5.9,0.1-8.8,2.8c-0.3,0.3-1.8,1.6-2.3,4c-0.4,1.9,0.2,4,0.2,4
				s3.3,0.7,5.7,0.6c3.9-0.1,5.9-0.4,7.9-1.1c3-0.9,5.1-2.4,5.1-2.4S390.3,545.4,389.8,544.7 M378.5,549.4c-1.7,0.1-3.1-1.1-3.2-2.8
				c-0.1-1.6,1.2-3.1,2.8-3.2c1.7-0.1,3.1,1.1,3.2,2.8C381.4,547.9,380.1,549.3,378.5,549.4 M386.9,547.3c-1,0.1-1.9-0.7-2-1.8
				c-0.1-1,0.7-1.9,1.8-2c1-0.1,1.9,0.7,2,1.8C388.8,546.3,388,547.2,386.9,547.3"/>
			<path class="st3" d="M388.4,542.6l1-1.1c0,0,1.3,0.6,2.2,1.9c0.8,1.2,1.4,2.3,1.4,2.3l-1.6,1c0,0-0.5-1.2-1.2-2.1
				C389.4,543.5,388.4,542.6,388.4,542.6"/>
			<path class="st3" d="M373.9,544.1c0,0-1.1,1.3-1.4,2.4c-0.3,1.2-0.2,2.6-0.2,2.6l-1.6-0.6c0,0-0.1-1.6,0.6-2.9
				c0.8-1.4,1.9-2.1,1.9-2.1L373.9,544.1z"/>
			<path class="st3" d="M371.5,545.5c-0.3-0.2-0.3-0.6-0.5-0.9c-0.2-0.3-0.3-0.1-0.7-0.1c-0.5,0-0.5-0.2-0.6-0.3
				c-0.1-0.1-0.2,0.4-0.2,0.4s0.1,0.4,0.6,0.4c0.5,0,0.5-0.2,0.7,0.2c0.2,0.5,0.7,0.8,0.7,0.8S371.8,545.7,371.5,545.5"/>
			<path class="st4" d="M295.9,554.5c0,0.7-0.4,1.1-1,1.1c-0.6,0-0.9-0.3-1-0.8c-0.4,0.6-1.2,0.9-1.8,0.9c-2,0-3.3-1.9-3.3-3.8
				c0-2,1.1-4,3.2-4c0.7,0,1.4,0.2,1.9,0.7v-2.7c0-0.7,0.4-1.1,1-1.1c0.6,0,1,0.4,1,1.1V554.5z M292.3,549.8c-1,0-1.6,1.1-1.6,2
				c0,0.9,0.5,2,1.6,2c1.1,0,1.6-1.1,1.6-2.1C293.9,550.8,293.4,549.8,292.3,549.8"/>
			<path class="st4" d="M298.6,552.5c0.1,1,1,1.4,1.9,1.4c1,0,1.7-0.8,2.3-0.8c0.4,0,0.8,0.4,0.8,0.9c0,0.9-1.8,1.7-3.3,1.7
				c-2.3,0-3.8-1.6-3.8-3.9c0-2,1.5-3.9,3.6-3.9c2.2,0,3.6,2,3.6,3.7c0,0.6-0.3,0.9-0.9,0.9H298.6z M301.8,551.2
				c-0.1-0.9-0.7-1.5-1.6-1.5c-0.9,0-1.5,0.7-1.6,1.5H301.8z"/>
			<path class="st4" d="M308.7,550.3c-0.4,0-1.1-0.6-1.8-0.6c-0.4,0-0.7,0.2-0.7,0.6c0,0.9,3.5,0.8,3.5,3.1c0,1.3-1.1,2.3-2.9,2.3
				c-1.1,0-2.8-0.6-2.8-1.5c0-0.3,0.3-0.9,0.9-0.9c0.8,0,1.1,0.7,2.1,0.7c0.6,0,0.8-0.2,0.8-0.6c0-0.9-3.5-0.8-3.5-3.1
				c0-1.4,1.1-2.3,2.7-2.3c1,0,2.5,0.5,2.5,1.5C309.5,549.9,309.2,550.3,308.7,550.3"/>
			<path class="st4" d="M312.5,546.1c0,0.6-0.5,1.2-1.1,1.2c-0.6,0-1.1-0.5-1.1-1.2c0-0.6,0.5-1.1,1.1-1.1
				C312,545,312.5,545.6,312.5,546.1 M310.4,549.2c0-0.7,0.4-1.1,1-1.1c0.6,0,1,0.4,1,1.1v5.3c0,0.7-0.4,1.1-1,1.1
				c-0.6,0-1-0.4-1-1.1V549.2z"/>
			<path class="st4" d="M320.4,555c0,2.4-1.6,3.6-3.9,3.6c-0.8,0-3.2-0.4-3.2-1.5c0-0.4,0.4-0.9,0.8-0.9c0.6,0,1.4,0.6,2.5,0.6
				c1,0,1.7-0.6,1.7-1.6v-0.5h0c-0.4,0.6-1.1,0.9-2,0.9c-2.1,0-3.1-1.8-3.1-3.8c0-2,1.3-3.9,3.3-3.9c0.7,0,1.5,0.3,1.8,0.9
				c0.1-0.5,0.4-0.8,1-0.8c0.6,0,1,0.4,1,1.1V555z M316.8,549.8c-1,0-1.6,1.1-1.6,2c0,1.1,0.5,2.1,1.6,2.1c1.1,0,1.6-1,1.6-2
				C318.4,550.9,317.9,549.8,316.8,549.8"/>
			<path class="st4" d="M321.5,549.2c0-0.7,0.4-1.1,1-1.1c0.5,0,0.9,0.3,0.9,0.7c0.4-0.5,1-0.8,1.9-0.8c1.6,0,2.7,1,2.7,2.7v3.8
				c0,0.7-0.4,1.1-1,1.1c-0.6,0-1-0.4-1-1.1V551c0-0.9-0.6-1.4-1.3-1.4c-0.8,0-1.3,0.6-1.3,1.4v3.5c0,0.7-0.4,1.1-1,1.1
				c-0.6,0-1-0.4-1-1.1V549.2z"/>
			<path class="st4" d="M330.9,552.5c0.1,1,1,1.4,1.9,1.4c1,0,1.7-0.8,2.3-0.8c0.4,0,0.8,0.4,0.8,0.9c0,0.9-1.8,1.7-3.3,1.7
				c-2.3,0-3.8-1.6-3.8-3.9c0-2,1.5-3.9,3.6-3.9c2.2,0,3.6,2,3.6,3.7c0,0.6-0.3,0.9-0.9,0.9H330.9z M334,551.2
				c-0.1-0.9-0.7-1.5-1.6-1.5c-0.9,0-1.5,0.7-1.6,1.5H334z"/>
			<path class="st4" d="M343.6,554.5c0,0.7-0.4,1.1-1,1.1c-0.6,0-0.9-0.3-1-0.8c-0.4,0.6-1.2,0.9-1.8,0.9c-2,0-3.3-1.9-3.3-3.8
				c0-2,1.1-4,3.2-4c0.7,0,1.4,0.2,1.9,0.7v-2.7c0-0.7,0.4-1.1,1-1.1c0.6,0,1,0.4,1,1.1V554.5z M340,549.8c-1,0-1.6,1.1-1.6,2
				c0,0.9,0.5,2,1.6,2c1.1,0,1.6-1.1,1.6-2.1C341.6,550.8,341.1,549.8,340,549.8"/>
			<path class="st4" d="M348.5,545.9c0-0.7,0.4-1.1,1-1.1c0.6,0,1,0.4,1,1.1v2.7c0.5-0.5,1.2-0.7,1.9-0.7c2.2,0,3.2,2,3.2,4
				c0,1.9-1.3,3.8-3.3,3.8c-0.7,0-1.5-0.3-1.8-0.9c-0.1,0.5-0.4,0.8-1,0.8c-0.6,0-1-0.4-1-1.1V545.9z M352.1,553.9
				c1,0,1.6-1.1,1.6-2c0-0.9-0.5-2-1.6-2c-1.1,0-1.6,1-1.6,2C350.5,552.8,351,553.9,352.1,553.9"/>
			<path class="st4" d="M356,549.4c-0.1-0.2-0.1-0.3-0.1-0.5c0-0.5,0.5-0.9,1-0.9c0.5,0,0.8,0.3,1,0.7l1.4,3.8l1.5-3.8
				c0.2-0.4,0.5-0.7,1-0.7c0.4,0,0.9,0.4,0.9,0.9c0,0.2,0,0.4-0.1,0.5l-3.4,8.4c-0.2,0.4-0.5,0.8-0.9,0.8c-0.7,0-1-0.4-1-0.9
				c0-0.2,0.1-0.4,0.1-0.6l0.9-2.2L356,549.4z"/>
		</g>
	</g>
</g>
<g id="objects">
	<g class="st0">
		<g class="st2">
			<g>
				<path class="st5" d="M500.2,273h-4c0,0-23.6-6.3-23.6-72c0-19.4-104-19.4-104,1.4c0,63.3-24.2,70.6-24.2,70.6h-3.3
					c-2.9,0-5.2,2.3-5.2,5.2v2.6c0,2.9,2.3,5.2,5.2,5.2h159c2.9,0,5.8-2.3,5.8-5.2v-2.6C506,275.3,503.1,273,500.2,273z"/>
				<path class="st5" d="M605.2-56H235.6c-7.1,0-13.6,3.7-13.6,10.9v223.6v34.3c0,7.1,6.5,16.3,13.6,16.3h369.6
					c7.1,0,10.8-9.2,10.8-16.3v-34.3V-45.1C616-52.3,612.3-56,605.2-56z"/>
				<rect x="241" y="-35" class="st6" width="356" height="204"/>
				<path class="st7" d="M436.5,199.7c0,8.9-7.2,16.1-16.1,16.1l0,0c-8.9,0-16.1-7.2-16.1-16.1l0,0c0-8.9,7.2-16.1,16.1-16.1l0,0
					C429.3,183.6,436.5,190.8,436.5,199.7L436.5,199.7z"/>
			</g>
		</g>
		<g class="st2">
			<path class="st4" d="M379-6.3c0,2.9-2.4,5.3-5.8,5.3h-66.4c-3.4,0-6.7-2.4-6.7-5.3v-10.4c0-2.9,3.3-5.3,6.7-5.3h66.4
				c3.4,0,5.8,2.4,5.8,5.3V-6.3z"/>
			<path class="st8" d="M537,60.7c0,2.9-2.6,5.3-6.1,5.3H306.7c-3.4,0-6.7-2.4-6.7-5.3V11.3c0-2.9,3.3-5.3,6.7-5.3h224.2
				c3.4,0,6.1,2.4,6.1,5.3V60.7z"/>
			<path class="st9" d="M373,102.7c0,2.9-2.3,5.3-5.7,5.3h-60.6c-3.4,0-6.7-2.4-6.7-5.3V76.3c0-2.9,3.3-5.3,6.7-5.3h60.6
				c3.4,0,5.7,2.4,5.7,5.3V102.7z"/>
			<path class="st9" d="M453,102.7c0,2.9-2.2,5.3-5.7,5.3h-60.6c-3.4,0-6.8-2.4-6.8-5.3V76.3c0-2.9,3.3-5.3,6.8-5.3h60.6
				c3.4,0,5.7,2.4,5.7,5.3V102.7z"/>
			<path class="st9" d="M537,102.7c0,2.9-2.6,5.3-6.1,5.3h-60.6c-3.4,0-6.4-2.4-6.4-5.3V76.3c0-2.9,2.9-5.3,6.4-5.3h60.6
				c3.4,0,6.1,2.4,6.1,5.3V102.7z"/>
			<g>
				<path class="st7" d="M453,118c0,1.2-0.7,2-2.1,2h-67.5c-1.4,0-3.4-0.8-3.4-2v-0.9c0-1.2,2.1-2.1,3.4-2.1h67.5
					c1.4,0,2.1,0.9,2.1,2.1V118z"/>
				<path class="st7" d="M453,126.8c0,1.2-0.7,2.2-2.1,2.2h-67.5c-1.4,0-3.4-1-3.4-2.2v-0.9c0-1.2,2.1-1.9,3.4-1.9h67.5
					c1.4,0,2.1,0.7,2.1,1.9V126.8z"/>
				<path class="st7" d="M453,135.6c0,1.2-0.7,2.4-2.1,2.4h-67.5c-1.4,0-3.4-1.2-3.4-2.4v-0.9c0-1.2,2.1-1.7,3.4-1.7h67.5
					c1.4,0,2.1,0.5,2.1,1.7V135.6z"/>
				<path class="st7" d="M453,144.4c0,1.2-0.7,2.6-2.1,2.6h-67.5c-1.4,0-3.4-1.4-3.4-2.6v-0.9c0-1.2,2.1-2.5,3.4-2.5h67.5
					c1.4,0,2.1,1.3,2.1,2.5V144.4z"/>
				<path class="st7" d="M420,153.2c0,1.2-0.8,1.8-2.2,1.8h-34.3c-1.4,0-3.4-0.6-3.4-1.8v-0.9c0-1.2,2.1-2.3,3.4-2.3h34.3
					c1.4,0,2.2,1.1,2.2,2.3V153.2z"/>
			</g>
			<g>
				<path class="st7" d="M535,118c0,1.2,0.2,2-1.2,2h-67.5c-1.4,0-2.3-0.8-2.3-2v-0.9c0-1.2,0.9-2.1,2.3-2.1h67.5
					c1.4,0,1.2,0.9,1.2,2.1V118z"/>
				<path class="st7" d="M535,126.8c0,1.2,0.2,2.2-1.2,2.2h-67.5c-1.4,0-2.3-1-2.3-2.2v-0.9c0-1.2,0.9-1.9,2.3-1.9h67.5
					c1.4,0,1.2,0.7,1.2,1.9V126.8z"/>
				<path class="st7" d="M535,135.6c0,1.2,0.2,2.4-1.2,2.4h-67.5c-1.4,0-2.3-1.2-2.3-2.4v-0.9c0-1.2,0.9-1.7,2.3-1.7h67.5
					c1.4,0,1.2,0.5,1.2,1.7V135.6z"/>
				<path class="st7" d="M535,144.4c0,1.2,0.2,2.6-1.2,2.6h-67.5c-1.4,0-2.3-1.4-2.3-2.6v-0.9c0-1.2,0.9-2.5,2.3-2.5h67.5
					c1.4,0,1.2,1.3,1.2,2.5V144.4z"/>
				<path class="st7" d="M502,153.2c0,1.2,0.1,1.8-1.3,1.8h-34.3c-1.4,0-2.3-0.6-2.3-1.8v-0.9c0-1.2,0.9-2.3,2.3-2.3h34.3
					c1.4,0,1.3,1.1,1.3,2.3V153.2z"/>
			</g>
			<g>
				<path class="st7" d="M372,118c0,1.2-0.5,2-1.9,2h-67.5c-1.4,0-2.6-0.8-2.6-2v-0.9c0-1.2,1.2-2.1,2.6-2.1h67.5
					c1.4,0,1.9,0.9,1.9,2.1V118z"/>
				<path class="st7" d="M372,126.8c0,1.2-0.5,2.2-1.9,2.2h-67.5c-1.4,0-2.6-1-2.6-2.2v-0.9c0-1.2,1.2-1.9,2.6-1.9h67.5
					c1.4,0,1.9,0.7,1.9,1.9V126.8z"/>
				<path class="st7" d="M372,135.6c0,1.2-0.5,2.4-1.9,2.4h-67.5c-1.4,0-2.6-1.2-2.6-2.4v-0.9c0-1.2,1.2-1.7,2.6-1.7h67.5
					c1.4,0,1.9,0.5,1.9,1.7V135.6z"/>
				<path class="st7" d="M372,144.4c0,1.2-0.5,2.6-1.9,2.6h-67.5c-1.4,0-2.6-1.4-2.6-2.6v-0.9c0-1.2,1.2-2.5,2.6-2.5h67.5
					c1.4,0,1.9,1.3,1.9,2.5V144.4z"/>
				<path class="st7" d="M339,153.2c0,1.2-0.6,1.8-2,1.8h-34.3c-1.4,0-2.6-0.6-2.6-1.8v-0.9c0-1.2,1.2-2.3,2.6-2.3H337
					c1.4,0,2,1.1,2,2.3V153.2z"/>
			</g>
		</g>
	</g>
	<g>
		<g>
			<g>
				<path class="st10" d="M720,424H79V13.3C79,4.8,86.8,0,95.4,0h611c8.5,0,13.7,4.8,13.7,13.3V424z"/>
				<path class="st10" d="M800,449v-18.8c0-4.3-1.4-6.2-5.7-6.2H9.3C5,424,1,426,1,430.2V449h0.6c0,0,19.3,14,30.9,14h738.6
					c11.6,0,30.9-14,30.9-14H800z"/>
				<path class="st11" d="M471.4,437H332.2c-11.6,0-11.6-13-11.6-13H483C483,424,483,437,471.4,437z"/>
			</g>
		</g>
		<g class="st0">
			<path class="st12" d="M340,88.4c0,5.2-3.1,9.6-8.2,9.6h-99.9c-5.2,0-9.9-4.4-9.9-9.6V69.7c0-5.2,4.7-9.7,9.9-9.7h99.9
				c5.2,0,8.2,4.5,8.2,9.7V88.4z"/>
			<path class="st13" d="M579,207.6c0,5.2-4.2,9.4-9.4,9.4H231.4c-5.2,0-9.4-4.2-9.4-9.4v-87.3c0-5.2,4.2-9.4,9.4-9.4h338.3
				c5.2,0,9.4,4.2,9.4,9.4V207.6z"/>
			<path class="st14" d="M332,282c0,5.2-4.4,9-9.6,9h-90.5c-5.2,0-9.9-3.9-9.9-9v-46.8c0-5.2,4.7-9.2,9.9-9.2h90.5
				c5.2,0,9.6,4,9.6,9.2V282z"/>
			<path class="st14" d="M452,282.6c0,5.2-4.2,9.4-9.4,9.4h-89.3c-5.2,0-9.4-4.2-9.4-9.4v-47.3c0-5.2,4.2-9.4,9.4-9.4h89.3
				c5.2,0,9.4,4.2,9.4,9.4V282.6z"/>
			<path class="st14" d="M577,281.8c0,5.2-5.3,9.2-10.5,9.2h-89.5c-5.2,0-9.1-4-9.1-9.2v-47c0-5.2,3.9-8.8,9.1-8.8h89.5
				c5.2,0,10.5,3.6,10.5,8.8V281.8z"/>
			<g class="st2">
				<path class="st7" d="M453,309.3c0,2.2-1.2,3.7-3.3,3.7H348c-2.1,0-4-1.6-4-3.7v-1.6c0-2.2,2-3.7,4-3.7h101.7
					c2.1,0,3.3,1.6,3.3,3.7V309.3z"/>
				<path class="st7" d="M453,324.9c0,2.2-1.2,4.1-3.3,4.1H348c-2.1,0-4-1.9-4-4.1v-1.6c0-2.2,2-4.3,4-4.3h101.7
					c2.1,0,3.3,2.2,3.3,4.3V324.9z"/>
				<path class="st7" d="M453,340.5c0,2.2-1.2,5.5-3.3,5.5H348c-2.1,0-4-3.3-4-5.5v-1.6c0-2.2,2-4.9,4-4.9h101.7
					c2.1,0,3.3,2.8,3.3,4.9V340.5z"/>
				<path class="st7" d="M453,356.1c0,2.2-1.2,5.9-3.3,5.9H348c-2.1,0-4-3.7-4-5.9v-1.6c0-2.2,2-3.6,4-3.6h101.7
					c2.1,0,3.3,1.4,3.3,3.6V356.1z"/>
				<path class="st7" d="M402,371.7c0,2.2-0.1,4.3-2.2,4.3H348c-2.1,0-4-2.1-4-4.3v-1.6c0-2.2,2-4.2,4-4.2h51.7c2.1,0,2.2,2,2.2,4.2
					V371.7z"/>
			</g>
			<g class="st2">
				<path class="st7" d="M579,309.3c0,2.2-2.3,3.7-4.4,3.7H472.9c-2.1,0-4.9-1.6-4.9-3.7v-1.6c0-2.2,2.8-3.7,4.9-3.7h101.7
					c2.1,0,4.4,1.6,4.4,3.7V309.3z"/>
				<path class="st7" d="M579,324.9c0,2.2-2.3,4.1-4.4,4.1H472.9c-2.1,0-4.9-1.9-4.9-4.1v-1.6c0-2.2,2.8-4.3,4.9-4.3h101.7
					c2.1,0,4.4,2.2,4.4,4.3V324.9z"/>
				<path class="st7" d="M579,340.5c0,2.2-2.3,5.5-4.4,5.5H472.9c-2.1,0-4.9-3.3-4.9-5.5v-1.6c0-2.2,2.8-4.9,4.9-4.9h101.7
					c2.1,0,4.4,2.8,4.4,4.9V340.5z"/>
				<path class="st7" d="M579,356.1c0,2.2-2.3,5.9-4.4,5.9H472.9c-2.1,0-4.9-3.7-4.9-5.9v-1.6c0-2.2,2.8-3.6,4.9-3.6h101.7
					c2.1,0,4.4,1.4,4.4,3.6V356.1z"/>
				<path class="st7" d="M528,371.7c0,2.2-1.3,4.3-3.4,4.3h-51.7c-2.1,0-4.9-2.1-4.9-4.3v-1.6c0-2.2,2.8-4.2,4.9-4.2h51.7
					c2.1,0,3.4,2,3.4,4.2V371.7z"/>
			</g>
			<g class="st2">
				<path class="st7" d="M332,309.3c0,2.2-1.9,3.7-4,3.7H226.3c-2.1,0-4.3-1.6-4.3-3.7v-1.6c0-2.2,2.2-3.7,4.3-3.7H328
					c2.1,0,4,1.6,4,3.7V309.3z"/>
				<path class="st7" d="M332,324.9c0,2.2-1.9,4.1-4,4.1H226.3c-2.1,0-4.3-1.9-4.3-4.1v-1.6c0-2.2,2.2-4.3,4.3-4.3H328
					c2.1,0,4,2.2,4,4.3V324.9z"/>
				<path class="st7" d="M332,340.5c0,2.2-1.9,5.5-4,5.5H226.3c-2.1,0-4.3-3.3-4.3-5.5v-1.6c0-2.2,2.2-4.9,4.3-4.9H328
					c2.1,0,4,2.8,4,4.9V340.5z"/>
				<path class="st7" d="M332,356.1c0,2.2-1.9,5.9-4,5.9H226.3c-2.1,0-4.3-3.7-4.3-5.9v-1.6c0-2.2,2.2-3.6,4.3-3.6H328
					c2.1,0,4,1.4,4,3.6V356.1z"/>
				<path class="st7" d="M281,371.7c0,2.2-0.9,4.3-3,4.3h-51.7c-2.1,0-4.3-2.1-4.3-4.3v-1.6c0-2.2,2.2-4.2,4.3-4.2H278
					c2.1,0,3,2,3,4.2V371.7z"/>
			</g>
		</g>
	</g>
	<g class="st0">
		<g class="st2">
			<g>
				<path class="st5" d="M740,347.5c0,7.7-6,14.5-13.7,14.5h-143c-7.7,0-14.3-6.9-14.3-14.5V149.5c0-7.7,6.7-14.5,14.3-14.5h143
					c7.7,0,13.7,6.9,13.7,14.5V347.5z"/>
				<rect x="583" y="152" class="st6" width="143" height="174"/>
				<path class="st7" d="M666.3,343.5c0,6.3-5.1,11.5-11.5,11.5c-6.3,0-11.5-5.1-11.5-11.5c0-6.3,5.1-11.5,11.5-11.5
					C661.2,332,666.3,337.2,666.3,343.5z"/>
			</g>
		</g>
		<g class="st2">
			<path class="st4" d="M656,179.1c0,2.4-1.8,3.9-4.2,3.9h-46.4c-2.4,0-4.4-1.5-4.4-3.9v-8.7c0-2.4,1.9-4.4,4.4-4.4h46.4
				c2.4,0,4.2,1.9,4.2,4.4V179.1z"/>
			<path class="st8" d="M708,234.2c0,2.4-1.6,4.8-4,4.8h-98.6c-2.4,0-4.4-2.4-4.4-4.8v-40.6c0-2.4,1.9-4.6,4.4-4.6H704
				c2.4,0,4,2.2,4,4.6V234.2z"/>
			<path class="st9" d="M652,269c0,2.4-2.2,4-4.6,4h-42.1c-2.4,0-4.4-1.6-4.4-4v-21.8c0-2.4,1.9-4.2,4.4-4.2h42.1
				c2.4,0,4.6,1.8,4.6,4.2V269z"/>
			<path class="st9" d="M708,269c0,2.4-1.6,4-4,4h-42.1c-2.4,0-3.9-1.6-3.9-4v-21.8c0-2.4,1.5-4.2,3.9-4.2H704c2.4,0,4,1.8,4,4.2
				V269z"/>
			<g>
				<path class="st7" d="M708,281.7c0,1-0.5,1.3-1.4,1.3h-47.2c-1,0-1.3-0.3-1.3-1.3V281c0-1,0.4-2,1.3-2h47.2c1,0,1.4,1,1.4,2
					V281.7z"/>
				<path class="st7" d="M708,288.9c0,1-0.5,2.1-1.4,2.1h-47.2c-1,0-1.3-1.1-1.3-2.1v-0.7c0-1,0.4-2.2,1.3-2.2h47.2
					c1,0,1.4,1.2,1.4,2.2V288.9z"/>
				<path class="st7" d="M708,296.2c0,1-0.5,1.8-1.4,1.8h-47.2c-1,0-1.3-0.8-1.3-1.8v-0.7c0-1,0.4-1.5,1.3-1.5h47.2
					c1,0,1.4,0.5,1.4,1.5V296.2z"/>
				<path class="st7" d="M708,303.4c0,1-0.5,1.6-1.4,1.6h-47.2c-1,0-1.3-0.6-1.3-1.6v-0.7c0-1,0.4-1.7,1.3-1.7h47.2
					c1,0,1.4,0.7,1.4,1.7V303.4z"/>
				<path class="st7" d="M685,310.7c0,1-0.7,2.3-1.6,2.3h-24c-1,0-1.3-1.3-1.3-2.3V310c0-1,0.4-2,1.3-2h24c1,0,1.6,1,1.6,2V310.7z"
					/>
			</g>
			<g>
				<path class="st7" d="M652,281.7c0,1-1,1.3-2,1.3h-47.2c-1,0-1.8-0.3-1.8-1.3V281c0-1,0.8-2,1.8-2H650c1,0,2,1,2,2V281.7z"/>
				<path class="st7" d="M652,288.9c0,1-1,2.1-2,2.1h-47.2c-1,0-1.8-1.1-1.8-2.1v-0.7c0-1,0.8-2.2,1.8-2.2H650c1,0,2,1.2,2,2.2
					V288.9z"/>
				<path class="st7" d="M652,296.2c0,1-1,1.8-2,1.8h-47.2c-1,0-1.8-0.8-1.8-1.8v-0.7c0-1,0.8-1.5,1.8-1.5H650c1,0,2,0.5,2,1.5
					V296.2z"/>
				<path class="st7" d="M652,303.4c0,1-1,1.6-2,1.6h-47.2c-1,0-1.8-0.6-1.8-1.6v-0.7c0-1,0.8-1.7,1.8-1.7H650c1,0,2,0.7,2,1.7
					V303.4z"/>
				<path class="st7" d="M629,310.7c0,1-1.2,2.3-2.2,2.3h-24c-1,0-1.8-1.3-1.8-2.3V310c0-1,0.8-2,1.8-2h24c1,0,2.2,1,2.2,2V310.7z"
					/>
			</g>
		</g>
	</g>
	<g class="st0">
		<g class="st2">
			<g>
				<path class="st5" d="M596,484.7c0,6.5-6.3,12.3-12.7,12.3h-74.3c-6.5,0-11.9-5.8-11.9-12.3V324.3c0-6.5,5.4-12.3,11.9-12.3h74.3
					c6.5,0,12.7,5.8,12.7,12.3V484.7z"/>
				<g>
					<path class="st5" d="M596,484.7c0,6.5-6.3,12.3-12.7,12.3h-74.3c-6.5,0-11.9-5.8-11.9-12.3V324.3c0-6.5,5.4-12.3,11.9-12.3
						h74.3c6.5,0,12.7,5.8,12.7,12.3V484.7z"/>
					<rect x="504" y="335" class="st6" width="85" height="135"/>
					<path class="st7" d="M553.2,483.2c0,3.9-3.2,7.1-7.1,7.1c-3.9,0-7.1-3.2-7.1-7.1c0-3.9,3.2-7.1,7.1-7.1
						C550,476.1,553.2,479.3,553.2,483.2z"/>
					<path class="st7" d="M563,326.1c0,1-0.8,1.9-1.9,1.9h-35.3c-1,0-1.9-0.8-1.9-1.9v-0.3c0-1,0.8-1.9,1.9-1.9h35.3
						c1,0,1.9,0.8,1.9,1.9V326.1z"/>
				</g>
			</g>
		</g>
		<g class="st2">
			<path class="st4" d="M580,355.5c0,1.9-1.6,3.5-3.5,3.5h-60c-1.9,0-3.5-1.6-3.5-3.5v-7c0-1.9,1.6-3.5,3.5-3.5h60
				c1.9,0,3.5,1.6,3.5,3.5V355.5z"/>
			<path class="st8" d="M580,399.5c0,1.9-1.6,3.5-3.5,3.5h-60c-1.9,0-3.5-1.6-3.5-3.5v-33c0-1.9,1.6-3.5,3.5-3.5h60
				c1.9,0,3.5,1.6,3.5,3.5V399.5z"/>
			<path class="st9" d="M580,427.6c0,1.9-1.2,3.4-3.2,3.4h-60.6c-2,0-3.2-1.5-3.2-3.4V410c0-1.9,1.2-3,3.2-3h60.6c2,0,3.2,1,3.2,3
				V427.6z"/>
			<path class="st9" d="M580,456.6c0,1.9-1.2,3.4-3.2,3.4h-60.6c-2,0-3.2-1.5-3.2-3.4V439c0-1.9,1.2-3,3.2-3h60.6c2,0,3.2,1,3.2,3
				V456.6z"/>
		</g>
	</g>
	<g class="st0">
		<polygon class="st13" points="709.5,-106 620.5,-106 635.5,-150 724.5,-150 		"/>
		<polygon class="st13" points="164.5,-106 75.5,-106 90.5,-150 179.5,-150 		"/>
		<polygon class="st15" points="660.5,-115 137.5,-115 152.5,-159 675.5,-159 		"/>
		<rect x="198" y="-151" style="display:inline;fill:none;" width="417.1" height="33"/>
		
			<text transform="matrix(1 0 0 1 197.9639 -123.6401)" class="st1" style="font-family:'OpenSans-SemiboldItalic'; font-size:36px;">RESPONSIVE WEB DESIGN</text>
	</g>
</g>
<g id="Layer_1">
	<g>
		<rect x="121.1" y="44.5" class="st16" width="556.4" height="50.2"/>
	</g>
	<g>
		<rect x="121.1" y="94.7" class="st17" width="556.4" height="329.3"/>
	</g>
	<circle class="st18" cx="668" cy="53.6" r="3.4"/>
	<circle class="st19" cx="646.8" cy="53.6" r="3.4"/>
	<circle class="st20" cx="657.6" cy="53.6" r="3.4"/>
	<path class="st17" d="M633.6,75.5H177.2c-0.8,0-1.4-0.6-1.4-1.4v-8c0-0.8,0.6-1.4,1.4-1.4h456.4c0.8,0,1.4,0.6,1.4,1.4v8
		C635,74.9,634.4,75.5,633.6,75.5z"/>
	<g>
		<g>
			<polygon class="st18" points="165.5,68.8 162.1,68.8 165.5,65.4 168.9,68.8 			"/>
			<rect x="162.7" y="68.8" class="st18" width="5.5" height="4.8"/>
			<rect x="164.6" y="70.8" class="st16" width="1.7" height="3.7"/>
			<rect x="167.1" y="65.6" class="st18" width="0.4" height="1.2"/>
		</g>
		<circle class="st21" cx="154" cy="69.8" r="3.9"/>
		<rect x="155.5" y="68" class="st16" width="4.8" height="3.5"/>
		<polygon class="st21" points="157.9,67.1 158.1,68.6 156.5,68.5 		"/>
		<rect x="138.1" y="69.5" class="st18" width="6" height="1.4"/>
		<path class="st18" d="M143.9,69.2l-1.2-1.8l4.1,2.7c0.1,0.1,0.1,0.2,0,0.2l-3.7,2.5l1-2"/>
		<rect x="129.5" y="69.5" class="st18" width="5.2" height="1.4"/>
		<path class="st18" d="M129.6,71.1l1.2,1.8l-4.1-2.7c-0.1-0.1-0.1-0.2,0-0.2l3.7-2.5l-1,2"/>
	</g>
</g>
</svg>
