<?xml version="1.0" encoding="utf-8"?>
<!-- Generator: Adobe Illustrator 19.1.0, SVG Export Plug-In . SVG Version: 6.00 Build 0)  -->
<svg version="1.1" id="Layer_1" xmlns="http://www.w3.org/2000/svg" xmlns:xlink="http://www.w3.org/1999/xlink" x="0px" y="0px"
	 viewBox="-96 146.3 417.9 501.7" style="enable-background:new -96 146.3 417.9 501.7;" xml:space="preserve">
<style type="text/css">
	.st0{fill:#D8D8D8;}
	.st1{opacity:0.26;}
	.st2{fill:none;}
	.st3{fill:#EF4438;}
	.st4{fill:#80C342;}
	.st5{fill:#F9ED28;}
	.st6{fill:#FFFFFF;}
	.st7{fill:none;stroke:#EF4438;stroke-width:0.7222;stroke-miterlimit:10;}
	.st8{fill:#8E8E8E;}
	.st9{fill:#8E8E8E;stroke:#454545;stroke-width:5;stroke-miterlimit:10;}
	.st10{fill:#707071;stroke:#1E1E1E;stroke-miterlimit:10;}
	.st11{fill:none;stroke:#8E8E8E;stroke-miterlimit:10;}
	.st12{fill:#353535;}
	.st13{fill:none;stroke:#606161;stroke-miterlimit:10;}
	.st14{enable-background:new    ;}
	.st15{fill:#262626;}
	.st16{fill:#757576;}
	.st17{fill:#3195AB;}
	.st18{fill:#E5E5E5;}
	.st19{fill:#A3A2A2;}
	.st20{fill:#BE384B;}
	.st21{fill:none;stroke:#FFFFFF;stroke-miterlimit:10;}
	.st22{fill:none;stroke:#BE384B;stroke-width:16;stroke-miterlimit:10;}
</style>
<g id="Layer_1_1_">
	<g>
		<rect x="-80.7" y="146.3" class="st0" width="402.2" height="36.3"/>
	</g>
	<g>
		<g class="st1">
			<line class="st2" x1="-69.6" y1="193.7" x2="333" y2="193.7"/>
		</g>
		<g>
			<line class="st2" x1="-80.7" y1="182.6" x2="321.9" y2="182.6"/>
		</g>
	</g>
	<circle class="st3" cx="315" cy="152.9" r="2.4"/>
	<circle class="st4" cx="299.7" cy="152.9" r="2.4"/>
	<circle class="st5" cx="307.5" cy="152.9" r="2.4"/>
	<path class="st6" d="M289.7,168.7H-39.7c-0.8,0-1.4-0.6-1.4-1.4v-5c0-0.8,0.6-1.4,1.4-1.4h329.5c0.8,0,1.4,0.6,1.4,1.4v5
		C291.1,168.1,290.5,168.7,289.7,168.7z"/>
	<g>
		<g>
			<polygon class="st3" points="-48.6,163.9 -51.1,163.9 -48.6,161.4 -46.1,163.9 			"/>
			<rect x="-50.6" y="163.9" class="st3" width="4" height="3.5"/>
			<rect x="-49.2" y="165.3" class="st0" width="1.2" height="2.7"/>
			<rect x="-47.5" y="161.6" class="st3" width="0.3" height="0.8"/>
		</g>
		<circle class="st7" cx="-56.9" cy="164.6" r="2.8"/>
		<rect x="-55.8" y="163.3" class="st0" width="3.5" height="2.5"/>
		<polygon class="st7" points="-54.1,162.6 -54,163.8 -55.1,163.7 		"/>
		<rect x="-68.4" y="164.4" class="st3" width="4.3" height="1"/>
		<path class="st3" d="M-64.2,164.2l-0.9-1.3l3,1.9c0.1,0,0.1,0.1,0,0.2l-2.7,1.8l0.7-1.5"/>
		<rect x="-74.6" y="164.4" class="st3" width="3.8" height="1"/>
		<path class="st3" d="M-74.5,165.6l0.9,1.3l-3-1.9c-0.1,0-0.1-0.1,0-0.2l2.7-1.8l-0.7,1.5"/>
	</g>
	<line class="st2" x1="-80.7" y1="182.6" x2="321.9" y2="182.6"/>
	<polygon class="st8" points="-80.7,635.9 -80.7,146.3 -96,172.7 -95.6,635.2 -95.6,642.7 -96,648 304.7,648 321.5,634.6 	"/>
	<path class="st9" d="M-80.7,626.4"/>
	<path class="st10" d="M-134.4,625.1"/>
	<line class="st11" x1="320.9" y1="146.3" x2="320.9" y2="634.6"/>
	<rect x="-80.7" y="182.6" class="st12" width="401.6" height="32.7"/>
	<polygon class="st13" points="-202.3,313.3 -200.3,313.3 -200.3,313.3 	"/>
	<g class="st14">
		<path class="st6" d="M-42.8,200.5c0.7,0.7,1.8,1.2,3,1.2c0.5,0,1-0.2,1-0.5s-0.4-0.5-1.3-0.7c-1.5-0.3-3.9-0.6-3.9-3
			c0-1.6,1.3-3,3.9-3c1.5,0,2.9,0.4,4,1.3l-1.5,2c-0.8-0.6-1.9-0.9-2.6-0.9c-0.7,0-0.9,0.3-0.9,0.5c0,0.4,0.4,0.5,1.4,0.7
			c1.5,0.3,3.8,0.7,3.8,2.9c0,2.1-1.5,3.3-4,3.3c-2,0-3.3-0.6-4.3-1.5L-42.8,200.5z"/>
		<path class="st6" d="M-34.9,194.6h7.1v2.4h-4.3v1.1h4.2v2.4h-4.2v1.2h4.3v2.4h-7.1V194.6z"/>
		<path class="st6" d="M-22,194.4c2.9,0,5.1,2,5.1,4.8c0,2.9-2.2,4.8-5.1,4.8c-2.9,0-5.1-2-5.1-4.8C-27.1,196.4-24.9,194.4-22,194.4
			z M-22,196.9c-1.4,0-2.2,1-2.2,2.3s0.9,2.3,2.2,2.3c1.4,0,2.2-1,2.2-2.3S-20.6,196.9-22,196.9z"/>
		<path class="st6" d="M-6.3,202.7h-3.6l-0.4,1.2h-3.1l3.4-9.3h3.6l3.4,9.3h-3.1L-6.3,202.7z M-9.1,200.4H-7l-1.1-3.3L-9.1,200.4z"
			/>
		<path class="st6" d="M1.9,203.2c-0.4,0.4-1.1,0.9-2.3,0.9c-1.6,0-2.2-0.9-2.2-2.1v-4.8h2.5v3.8c0,0.7,0.4,1,1,1
			c0.6,0,0.9-0.3,1.1-0.5v-4.2h2.5v6.8H1.9V203.2z"/>
		<path class="st6" d="M10.3,203.2c-0.6,0.6-1.2,0.9-1.9,0.9c-1.6,0-3-1.2-3-3.6c0-2.2,1.3-3.5,3-3.5c0.7,0,1.4,0.2,1.9,0.9v-3.3
			h2.5v9.3h-2.5V203.2z M10.3,199.7c-0.2-0.3-0.7-0.4-1.1-0.4c-0.7,0-1.3,0.5-1.3,1.3c0,0.8,0.6,1.3,1.3,1.3c0.3,0,0.8-0.2,1.1-0.5
			V199.7z"/>
		<path class="st6" d="M14,195c0-0.8,0.6-1.4,1.4-1.4c0.8,0,1.4,0.6,1.4,1.4s-0.6,1.4-1.4,1.4C14.7,196.5,14,195.8,14,195z
			 M14.2,197.2h2.5v6.8h-2.5V197.2z"/>
		<path class="st6" d="M18.6,202v-2.6h-1.1v-2.2h1.1v-1.8h2.5v1.8h1.4v2.2h-1.4v1.9c0,0.4,0.2,0.6,0.6,0.6c0.2,0,0.4-0.1,0.5-0.1
			l0.4,1.9c-0.3,0.2-0.9,0.4-1.7,0.4C19.5,204.1,18.6,203.4,18.6,202z"/>
		<path class="st6" d="M27.9,200.5c0.7,0.7,1.8,1.2,3,1.2c0.5,0,1-0.2,1-0.5s-0.4-0.5-1.3-0.7c-1.5-0.3-3.9-0.6-3.9-3
			c0-1.6,1.3-3,3.9-3c1.5,0,2.9,0.4,4,1.3l-1.5,2c-0.8-0.6-1.9-0.9-2.6-0.9c-0.7,0-0.9,0.3-0.9,0.5c0,0.4,0.4,0.5,1.4,0.7
			c1.5,0.3,3.8,0.7,3.8,2.9c0,2.1-1.5,3.3-4,3.3c-2,0-3.3-0.6-4.3-1.5L27.9,200.5z"/>
		<path class="st6" d="M35.2,200.5c0-1.9,1.4-3.5,3.8-3.5c2.4,0,3.8,1.7,3.8,3.5c0,1.9-1.4,3.6-3.8,3.6
			C36.6,204.1,35.2,202.4,35.2,200.5z M40.2,200.5c0-0.7-0.4-1.3-1.2-1.3c-0.8,0-1.2,0.6-1.2,1.3c0,0.8,0.4,1.3,1.2,1.3
			C39.7,201.9,40.2,201.3,40.2,200.5z"/>
		<path class="st6" d="M44.2,199.3h-1.1v-2.2h1.1v-0.3c0-1.4,1.1-2.4,2.6-2.4c0.6,0,1.2,0.1,1.6,0.3l-0.4,1.7
			c-0.2-0.1-0.4-0.2-0.5-0.2c-0.4,0-0.6,0.2-0.6,0.6v0.2h1.4v2.2h-1.4v4.6h-2.5V199.3z"/>
		<path class="st6" d="M49.4,202v-2.6h-1.1v-2.2h1.1v-1.8h2.5v1.8h1.4v2.2h-1.4v1.9c0,0.4,0.2,0.6,0.6,0.6c0.2,0,0.4-0.1,0.5-0.1
			l0.4,1.9c-0.3,0.2-0.9,0.4-1.7,0.4C50.2,204.1,49.4,203.4,49.4,202z"/>
		<path class="st6" d="M59.2,200.1l-1.1,3.8h-2.7l-2-6.8H56l0.9,3.7l1.2-3.7h2.3l1.2,3.7l0.9-3.7H65l-2,6.8h-2.7L59.2,200.1z"/>
		<path class="st6" d="M69.4,203.3c-0.4,0.5-1.2,0.8-2,0.8c-1,0-2.3-0.7-2.3-2.2c0-1.7,1.3-2.1,2.3-2.1c0.9,0,1.7,0.3,2,0.7v-0.8
			c0-0.5-0.4-0.8-1.3-0.8c-0.6,0-1.3,0.3-1.9,0.7l-0.9-1.6c0.9-0.7,2.2-1,3.2-1c1.7,0,3.3,0.6,3.3,2.8v4.1h-2.5V203.3z M69.4,201.7
			c-0.2-0.2-0.6-0.4-1-0.4c-0.4,0-0.9,0.1-0.9,0.6c0,0.4,0.5,0.5,0.9,0.5c0.4,0,0.8-0.1,1-0.4V201.7z"/>
		<path class="st6" d="M73.3,197.2h2.5v0.8c0.4-0.5,1.3-0.9,2.1-0.9v2.4c-0.1,0-0.3-0.1-0.6-0.1c-0.5,0-1.2,0.1-1.5,0.5v4.1h-2.5
			V197.2z"/>
		<path class="st6" d="M82,197c2,0,3.5,1.4,3.5,3.8v0.5h-4.6c0.1,0.4,0.6,0.9,1.5,0.9c0.6,0,1.2-0.2,1.5-0.5l1,1.6
			c-0.7,0.6-1.9,0.8-2.9,0.8c-2.1,0-3.8-1.3-3.8-3.6C78.3,198.6,79.8,197,82,197z M80.9,199.7h2.2c-0.1-0.3-0.3-0.8-1.1-0.8
			C81.2,198.9,81,199.4,80.9,199.7z"/>
	</g>
	<polygon class="st15" points="-95.9,242.5 -80.7,215.3 -80.7,182.6 -96,206.5 	"/>
	<path class="st6" d="M220.6,205.8H103.2c-2.6,0-4.8-2.2-4.8-4.8v-3.9c0-2.6,2.2-4.8,4.8-4.8h117.4c2.6,0,4.8,2.2,4.8,4.8v3.9
		C225.4,203.6,223.2,205.8,220.6,205.8z"/>
	<g class="st14">
		<path class="st16" d="M109.2,197.2l-1.6,5.7H107l-1.9-6.7h0.6l1.6,5.9l1.6-5.9h0.5l1.6,5.9l1.6-5.9h0.6l-1.9,6.7h-0.6L109.2,197.2
			z"/>
		<path class="st16" d="M116,198c1.5,0,2.3,1.2,2.3,2.6v0.1h-4c0,1,0.8,1.9,1.9,1.9c0.6,0,1.2-0.2,1.6-0.7l0.3,0.3
			c-0.5,0.5-1.1,0.8-1.9,0.8c-1.4,0-2.4-1-2.4-2.5C113.7,199.1,114.7,198,116,198z M114.3,200.3h3.5c0-0.8-0.5-1.8-1.8-1.8
			C114.9,198.4,114.3,199.4,114.3,200.3z"/>
		<path class="st16" d="M119.6,196.3h0.5v2.6c0.4-0.5,1-0.9,1.7-0.9c1.3,0,2.2,1,2.2,2.5c0,1.5-0.9,2.5-2.2,2.5
			c-0.7,0-1.3-0.4-1.7-0.9v0.8h-0.5V196.3z M121.7,202.6c1.1,0,1.7-0.9,1.7-2.1c0-1.2-0.6-2.1-1.7-2.1c-0.7,0-1.3,0.4-1.6,0.9v2.4
			C120.4,202.2,121.1,202.6,121.7,202.6z"/>
		<path class="st16" d="M125.2,201.9c0.3,0.4,0.9,0.7,1.6,0.7c0.8,0,1.3-0.4,1.3-1c0-0.6-0.7-0.8-1.3-1c-0.8-0.2-1.7-0.4-1.7-1.3
			c0-0.7,0.6-1.3,1.7-1.3c0.8,0,1.4,0.3,1.7,0.7l-0.3,0.4c-0.3-0.4-0.8-0.6-1.4-0.6c-0.7,0-1.2,0.4-1.2,0.9c0,0.5,0.6,0.7,1.3,0.9
			c0.8,0.2,1.8,0.4,1.8,1.5c0,0.8-0.6,1.4-1.8,1.4c-0.8,0-1.4-0.2-1.9-0.8L125.2,201.9z"/>
		<path class="st16" d="M129.8,196.9c0-0.2,0.2-0.4,0.4-0.4c0.2,0,0.4,0.2,0.4,0.4s-0.2,0.4-0.4,0.4
			C130,197.3,129.8,197.1,129.8,196.9z M129.9,198.1h0.5v4.8h-0.5V198.1z"/>
		<path class="st16" d="M132.2,202v-3.4h-0.8v-0.5h0.8v-1.3h0.5v1.3h1v0.5h-1v3.4c0,0.4,0.2,0.7,0.5,0.7c0.2,0,0.4-0.1,0.5-0.2
			l0.2,0.4c-0.2,0.2-0.4,0.3-0.8,0.3C132.5,203,132.2,202.7,132.2,202z"/>
		<path class="st16" d="M136.9,198c1.5,0,2.3,1.2,2.3,2.6v0.1h-4c0,1,0.7,1.9,1.9,1.9c0.6,0,1.2-0.2,1.6-0.7l0.3,0.3
			c-0.5,0.5-1.1,0.8-1.9,0.8c-1.4,0-2.4-1-2.4-2.5C134.5,199.1,135.5,198,136.9,198z M135.1,200.3h3.5c0-0.8-0.5-1.8-1.8-1.8
			C135.7,198.4,135.2,199.4,135.1,200.3z"/>
		<path class="st16" d="M143.1,196.3h0.6v4.1c0,1.3,0.7,2.2,2,2.2c1.3,0,2-0.8,2-2.2v-4.1h0.6v4.1c0,1.6-0.9,2.7-2.6,2.7
			c-1.7,0-2.6-1-2.6-2.7V196.3z"/>
		<path class="st16" d="M152,200.2h-1.5v2.8H150v-6.7h2.5c1.1,0,2,0.7,2,1.9c0,1.2-0.9,1.9-1.8,1.9l1.9,2.8h-0.7L152,200.2z
			 M152.4,196.8h-1.9v2.9h1.9c0.9,0,1.5-0.6,1.5-1.4C153.9,197.4,153.3,196.8,152.4,196.8z"/>
		<path class="st16" d="M155.9,196.3h0.6v6.1h3.2v0.5h-3.8V196.3z"/>
	</g>
	<path class="st17" d="M284.4,205.8h-43.2c-3.7,0-6.8-3-6.8-6.7l0,0c0-3.7,3-6.7,6.8-6.7h43.2c3.7,0,6.8,3,6.8,6.7l0,0
		C291.1,202.8,288.1,205.8,284.4,205.8z"/>
	<g class="st14">
		<path class="st18" d="M248.5,199.5c0.5,0.5,1.2,0.9,2.1,0.9c0.4,0,0.7-0.1,0.7-0.4s-0.3-0.4-0.9-0.5c-1.1-0.2-2.8-0.5-2.8-2.1
			c0-1.1,0.9-2.2,2.8-2.2c1.1,0,2.1,0.3,2.8,0.9l-1.1,1.4c-0.6-0.4-1.3-0.7-1.9-0.7c-0.5,0-0.6,0.2-0.6,0.3c0,0.3,0.3,0.4,1,0.5
			c1.1,0.2,2.7,0.5,2.7,2c0,1.5-1.1,2.3-2.9,2.3c-1.4,0-2.4-0.4-3.1-1.1L248.5,199.5z"/>
		<path class="st18" d="M256.3,197c1.4,0,2.5,1,2.5,2.7v0.4h-3.3c0.1,0.3,0.4,0.6,1.1,0.6c0.4,0,0.8-0.2,1.1-0.3l0.7,1.1
			c-0.5,0.4-1.3,0.6-2.1,0.6c-1.5,0-2.7-0.9-2.7-2.5C253.7,198.1,254.8,197,256.3,197z M255.5,198.9h1.6c-0.1-0.2-0.2-0.6-0.8-0.6
			C255.8,198.3,255.6,198.7,255.5,198.9z"/>
		<path class="st18" d="M262.2,201.5c-0.3,0.3-0.9,0.6-1.5,0.6c-0.7,0-1.7-0.5-1.7-1.6c0-1.2,0.9-1.5,1.7-1.5c0.6,0,1.2,0.2,1.5,0.5
			v-0.5c0-0.3-0.3-0.6-0.9-0.6c-0.5,0-1,0.2-1.3,0.5l-0.6-1.1c0.6-0.5,1.5-0.7,2.3-0.7c1.2,0,2.4,0.4,2.4,2v2.9h-1.8V201.5z
			 M262.2,200.3c-0.1-0.2-0.4-0.3-0.7-0.3c-0.3,0-0.6,0.1-0.6,0.4s0.3,0.4,0.6,0.4c0.3,0,0.6-0.1,0.7-0.3V200.3z"/>
		<path class="st18" d="M265,197.1h1.8v0.5c0.3-0.4,0.9-0.7,1.5-0.7v1.7c-0.1,0-0.2,0-0.4,0c-0.4,0-0.9,0.1-1.1,0.3v2.9H265V197.1z"
			/>
		<path class="st18" d="M271.3,197c1.1,0,1.8,0.5,2,0.9l-1.2,1.1c-0.2-0.2-0.4-0.4-0.8-0.4c-0.5,0-1,0.3-1,0.9c0,0.6,0.4,1,1,1
			c0.4,0,0.7-0.2,0.8-0.4l1.2,1.1c-0.3,0.4-0.9,0.9-2,0.9c-1.5,0-2.7-1-2.7-2.5C268.6,198,269.8,197,271.3,197z"/>
		<path class="st18" d="M277.2,199.2c0-0.5-0.3-0.7-0.7-0.7c-0.4,0-0.6,0.2-0.8,0.4v3H274v-6.7h1.8v2.4c0.3-0.3,0.8-0.7,1.7-0.7
			c1.1,0,1.6,0.7,1.6,1.5v3.4h-1.8V199.2z"/>
	</g>
	<g class="st14">
		<path class="st12" d="M86.1,242.1h5.7c1.9,0,2.8,1.3,2.8,2.4c0,1.2-0.7,1.9-1.6,2.1c1,0.2,1.8,1.1,1.8,2.3c0,1.3-0.9,2.5-2.8,2.5
			h-5.9V242.1z M91.2,245.6c0.3,0,0.6-0.3,0.6-0.6c0-0.3-0.3-0.6-0.6-0.6H89v1.2H91.2z M91.2,249.1c0.4,0,0.7-0.3,0.7-0.6
			c0-0.3-0.3-0.6-0.7-0.6H89v1.3H91.2z"/>
		<path class="st12" d="M99.8,250.8c-0.4,0.5-1.2,0.8-2,0.8c-1,0-2.3-0.7-2.3-2.2c0-1.7,1.3-2.1,2.3-2.1c0.9,0,1.7,0.3,2,0.7v-0.8
			c0-0.5-0.4-0.8-1.3-0.8c-0.6,0-1.3,0.3-1.9,0.7l-0.9-1.6c0.9-0.7,2.2-1,3.2-1c1.7,0,3.3,0.6,3.3,2.8v4.1h-2.5V250.8z M99.8,249.2
			c-0.2-0.2-0.6-0.4-1-0.4c-0.4,0-0.9,0.1-0.9,0.6c0,0.4,0.5,0.5,0.9,0.5c0.4,0,0.8-0.1,1-0.4V249.2z"/>
		<path class="st12" d="M107,244.5c1.5,0,2.5,0.7,2.9,1.3l-1.6,1.5c-0.2-0.3-0.6-0.6-1.1-0.6c-0.7,0-1.3,0.4-1.3,1.3
			s0.6,1.3,1.3,1.3c0.5,0,0.9-0.3,1.1-0.6l1.6,1.5c-0.4,0.6-1.3,1.3-2.9,1.3c-2.1,0-3.8-1.4-3.8-3.6
			C103.2,245.9,104.9,244.5,107,244.5z"/>
		<path class="st12" d="M113.7,249.2l-0.5,0.7v1.5h-2.5v-9.3h2.5v5l1.6-2.4h3l-2.3,3.1l2.5,3.7h-3.1L113.7,249.2z"/>
		<path class="st12" d="M118.5,242.1h2.5v9.3h-2.5V242.1z"/>
		<path class="st12" d="M122.3,242.5c0-0.8,0.6-1.4,1.4-1.4c0.8,0,1.4,0.6,1.4,1.4s-0.6,1.4-1.4,1.4
			C122.9,244,122.3,243.3,122.3,242.5z M122.4,244.7h2.5v6.8h-2.5V244.7z"/>
		<path class="st12" d="M130.9,247.7c0-0.7-0.4-1-1-1c-0.6,0-0.9,0.3-1.1,0.5v4.2h-2.5v-6.8h2.5v0.8c0.4-0.4,1.1-0.9,2.3-0.9
			c1.6,0,2.3,1,2.3,2.1v4.8h-2.5V247.7z"/>
		<path class="st12" d="M137.9,249.2l-0.5,0.7v1.5h-2.5v-9.3h2.5v5l1.6-2.4h3l-2.3,3.1l2.5,3.7H139L137.9,249.2z"/>
		<path class="st12" d="M146.3,242.1h5c2.2,0,3.4,1.5,3.4,3.2c0,1.7-1.2,3.1-3.4,3.1h-2.2v3h-2.8V242.1z M150.9,244.4h-1.8v1.6h1.8
			c0.5,0,0.9-0.3,0.9-0.8C151.7,244.8,151.4,244.4,150.9,244.4z"/>
		<path class="st12" d="M155.5,244.7h2.5v0.8c0.4-0.5,1.3-0.9,2.1-0.9v2.4c-0.1,0-0.3-0.1-0.6-0.1c-0.5,0-1.2,0.1-1.5,0.5v4.1h-2.5
			V244.7z"/>
		<path class="st12" d="M160.5,248c0-1.9,1.4-3.5,3.8-3.5c2.4,0,3.8,1.7,3.8,3.5c0,1.9-1.4,3.6-3.8,3.6
			C161.9,251.6,160.5,249.9,160.5,248z M165.5,248c0-0.7-0.4-1.3-1.2-1.3c-0.8,0-1.2,0.6-1.2,1.3c0,0.8,0.4,1.3,1.2,1.3
			C165.1,249.4,165.5,248.8,165.5,248z"/>
		<path class="st12" d="M169.5,246.8h-1.1v-2.2h1.1v-0.3c0-1.4,1.1-2.4,2.6-2.4c0.6,0,1.2,0.1,1.6,0.3l-0.5,1.7
			c-0.1-0.1-0.3-0.2-0.6-0.2c-0.3,0-0.6,0.2-0.6,0.5v0.3h1.4v2.2h-1.4v4.6h-2.5V246.8z M174.1,242.5c0-0.8,0.6-1.4,1.4-1.4
			c0.8,0,1.4,0.6,1.4,1.4s-0.6,1.4-1.4,1.4C174.7,244,174.1,243.3,174.1,242.5z M174.2,244.7h2.5v6.8h-2.5V244.7z"/>
		<path class="st12" d="M178.1,242.1h2.5v9.3h-2.5V242.1z"/>
		<path class="st12" d="M185.3,244.5c2,0,3.5,1.4,3.5,3.8v0.5h-4.6c0.1,0.4,0.6,0.9,1.5,0.9c0.6,0,1.2-0.2,1.5-0.5l1,1.6
			c-0.7,0.6-1.9,0.8-2.9,0.8c-2.1,0-3.8-1.3-3.8-3.6C181.6,246.1,183.1,244.5,185.3,244.5z M184.2,247.2h2.2
			c-0.1-0.3-0.3-0.8-1.1-0.8C184.5,246.4,184.2,246.9,184.2,247.2z"/>
	</g>
	<path class="st19" d="M117.4,268.8h-29c-1.6,0-3-1.3-3-3l0,0c0-1.7,1.3-3,3-3h29c1.6,0,3,1.3,3,3l0,0
		C120.4,267.5,119,268.8,117.4,268.8z"/>
	<path class="st19" d="M239.9,268.8h-109c-1.6,0-3-1.3-3-3l0,0c0-1.7,1.4-3,3-3h109c1.6,0,3,1.3,3,3l0,0
		C242.9,267.5,241.5,268.8,239.9,268.8z"/>
	<path class="st20" d="M288.1,268.8h-34.2c-1.6,0-3-1.3-3-3l0,0c0-1.7,1.4-3,3-3h34.2c1.6,0,3,1.3,3,3l0,0
		C291.1,267.5,289.8,268.8,288.1,268.8z"/>
	<path class="st19" d="M117.4,282.8h-29c-1.6,0-3-1.4-3-3l0,0c0-1.6,1.3-3,3-3h29c1.6,0,3,1.4,3,3l0,0
		C120.4,281.4,119,282.8,117.4,282.8z"/>
	<path class="st19" d="M239.9,282.8h-109c-1.6,0-3-1.4-3-3l0,0c0-1.7,1.4-3,3-3h109c1.6,0,3,1.3,3,3l0,0
		C242.9,281.4,241.5,282.8,239.9,282.8z"/>
	<path class="st19" d="M288.1,282.8h-34.2c-1.6,0-3-1.4-3-3l0,0c0-1.6,1.4-3,3-3h34.2c1.6,0,3,1.4,3,3l0,0
		C291.1,281.4,289.8,282.8,288.1,282.8z"/>
	<path class="st19" d="M117.4,297.3h-29c-1.6,0-3-1.4-3-3l0,0c0-1.6,1.3-3,3-3h29c1.6,0,3,1.4,3,3l0,0
		C120.4,295.9,119,297.3,117.4,297.3z"/>
	<path class="st19" d="M239.9,297.3h-109c-1.6,0-3-1.4-3-3l0,0c0-1.7,1.4-3,3-3h109c1.6,0,3,1.3,3,3l0,0
		C242.9,295.9,241.5,297.3,239.9,297.3z"/>
	<path class="st19" d="M288.1,297.3h-34.2c-1.6,0-3-1.4-3-3l0,0c0-1.6,1.4-3,3-3h34.2c1.6,0,3,1.4,3,3l0,0
		C291.1,295.9,289.8,297.3,288.1,297.3z"/>
	<path class="st19" d="M117.4,311.3h-29c-1.6,0-3-1.4-3-3l0,0c0-1.6,1.3-3,3-3h29c1.6,0,3,1.4,3,3l0,0
		C120.4,309.9,119,311.3,117.4,311.3z"/>
	<path class="st19" d="M239.9,311.3h-109c-1.6,0-3-1.4-3-3l0,0c0-1.7,1.4-3,3-3h109c1.6,0,3,1.3,3,3l0,0
		C242.9,309.9,241.5,311.3,239.9,311.3z"/>
	<path class="st19" d="M288.1,311.3h-34.2c-1.6,0-3-1.4-3-3l0,0c0-1.6,1.4-3,3-3h34.2c1.6,0,3,1.4,3,3l0,0
		C291.1,309.9,289.8,311.3,288.1,311.3z"/>
	<path class="st19" d="M117.5,324.6h-29c-1.7,0-3-1.4-3-3l0,0c0-1.6,1.3-3,3-3h29c1.7,0,3,1.4,3,3l0,0
		C120.5,323.2,119.2,324.6,117.5,324.6z"/>
	<path class="st19" d="M240,324.6H131c-1.6,0-3-1.4-3-3l0,0c0-1.7,1.4-3,3-3h109c1.6,0,3,1.3,3,3l0,0
		C243,323.2,241.7,324.6,240,324.6z"/>
	<path class="st19" d="M288.3,324.6H254c-1.6,0-3-1.4-3-3l0,0c0-1.6,1.4-3,3-3h34.2c1.6,0,3,1.4,3,3l0,0
		C291.3,323.2,289.9,324.6,288.3,324.6z"/>
	<path class="st20" d="M117.5,338.6h-29c-1.7,0-3-1.4-3-3l0,0c0-1.6,1.3-3,3-3h29c1.7,0,3,1.4,3,3l0,0
		C120.5,337.2,119.2,338.6,117.5,338.6z"/>
	<path class="st19" d="M240,338.6H131c-1.6,0-3-1.4-3-3l0,0c0-1.7,1.4-3,3-3h109c1.6,0,3,1.3,3,3l0,0
		C243,337.2,241.7,338.6,240,338.6z"/>
	<path class="st19" d="M288.3,338.6H254c-1.6,0-3-1.4-3-3l0,0c0-1.6,1.4-3,3-3h34.2c1.6,0,3,1.4,3,3l0,0
		C291.3,337.2,289.9,338.6,288.3,338.6z"/>
	<path class="st19" d="M117.5,353.1h-29c-1.7,0-3-1.4-3-3l0,0c0-1.6,1.3-3,3-3h29c1.7,0,3,1.4,3,3l0,0
		C120.5,351.7,119.2,353.1,117.5,353.1z"/>
	<path class="st19" d="M240,353.1H131c-1.6,0-3-1.4-3-3l0,0c0-1.7,1.4-3,3-3h109c1.6,0,3,1.3,3,3l0,0
		C243,351.7,241.7,353.1,240,353.1z"/>
	<path class="st19" d="M288.3,353.1H254c-1.6,0-3-1.4-3-3l0,0c0-1.6,1.4-3,3-3h34.2c1.6,0,3,1.4,3,3l0,0
		C291.3,351.7,289.9,353.1,288.3,353.1z"/>
	<path class="st19" d="M117.5,367.1h-29c-1.7,0-3-1.4-3-3l0,0c0-1.6,1.3-3,3-3h29c1.7,0,3,1.4,3,3l0,0
		C120.5,365.7,119.2,367.1,117.5,367.1z"/>
	<path class="st19" d="M240,367.1H131c-1.6,0-3-1.4-3-3l0,0c0-1.7,1.4-3,3-3h109c1.6,0,3,1.3,3,3l0,0
		C243,365.7,241.7,367.1,240,367.1z"/>
	<path class="st19" d="M288.3,367.1H254c-1.6,0-3-1.4-3-3l0,0c0-1.6,1.4-3,3-3h34.2c1.6,0,3,1.4,3,3l0,0
		C291.3,365.7,289.9,367.1,288.3,367.1z"/>
	<path class="st19" d="M117.5,382.1h-29c-1.7,0-3-1.4-3-3l0,0c0-1.6,1.3-3,3-3h29c1.6,0,3,1.4,3,3l0,0
		C120.5,380.7,119.2,382.1,117.5,382.1z"/>
	<path class="st20" d="M240,382.1H131c-1.6,0-3-1.4-3-3l0,0c0-1.7,1.4-3,3-3h109c1.6,0,3,1.3,3,3l0,0
		C243,380.7,241.7,382.1,240,382.1z"/>
	<path class="st19" d="M288.3,382.1H254c-1.6,0-3-1.4-3-3l0,0c0-1.6,1.4-3,3-3h34.2c1.6,0,3,1.4,3,3l0,0
		C291.3,380.7,289.9,382.1,288.3,382.1z"/>
	<path class="st19" d="M117.5,396.1h-29c-1.7,0-3-1.4-3-3l0,0c0-1.6,1.3-3,3-3h29c1.6,0,3,1.4,3,3l0,0
		C120.5,394.7,119.2,396.1,117.5,396.1z"/>
	<path class="st19" d="M240,396.1H131c-1.6,0-3-1.4-3-3l0,0c0-1.7,1.4-3,3-3h109c1.6,0,3,1.3,3,3l0,0
		C243,394.7,241.7,396.1,240,396.1z"/>
	<path class="st19" d="M288.3,396.1H254c-1.6,0-3-1.4-3-3l0,0c0-1.6,1.4-3,3-3h34.2c1.6,0,3,1.4,3,3l0,0
		C291.3,394.7,289.9,396.1,288.3,396.1z"/>
	<path class="st19" d="M117.5,410.6h-29c-1.7,0-3-1.4-3-3l0,0c0-1.6,1.3-3,3-3h29c1.6,0,3,1.4,3,3l0,0
		C120.5,409.2,119.2,410.6,117.5,410.6z"/>
	<path class="st19" d="M240,410.6H131c-1.6,0-3-1.4-3-3l0,0c0-1.6,1.4-3,3-3h109c1.6,0,3,1.4,3,3l0,0
		C243,409.2,241.7,410.6,240,410.6z"/>
	<path class="st19" d="M288.3,410.6H254c-1.6,0-3-1.4-3-3l0,0c0-1.6,1.4-3,3-3h34.2c1.6,0,3,1.4,3,3l0,0
		C291.3,409.2,289.9,410.6,288.3,410.6z"/>
	<path class="st19" d="M117.5,424.6h-29c-1.7,0-3-1.4-3-3l0,0c0-1.6,1.3-3,3-3h29c1.6,0,3,1.4,3,3l0,0
		C120.5,423.2,119.2,424.6,117.5,424.6z"/>
	<path class="st19" d="M240,424.6H131c-1.6,0-3-1.4-3-3l0,0c0-1.6,1.4-3,3-3h109c1.6,0,3,1.4,3,3l0,0
		C243,423.2,241.7,424.6,240,424.6z"/>
	<path class="st19" d="M288.3,424.6H254c-1.6,0-3-1.4-3-3l0,0c0-1.6,1.4-3,3-3h34.2c1.6,0,3,1.4,3,3l0,0
		C291.3,423.2,289.9,424.6,288.3,424.6z"/>
	<path class="st19" d="M117.7,437.8h-29c-1.6,0-3-1.4-3-3l0,0c0-1.6,1.4-3,3-3h29c1.7,0,3,1.4,3,3l0,0
		C120.7,436.4,119.3,437.8,117.7,437.8z"/>
	<path class="st19" d="M240.2,437.8h-109c-1.7,0-3-1.4-3-3l0,0c0-1.6,1.3-3,3-3h109c1.7,0,3,1.4,3,3l0,0
		C243.2,436.4,241.8,437.8,240.2,437.8z"/>
	<path class="st19" d="M288.4,437.8h-34.2c-1.6,0-3-1.4-3-3l0,0c0-1.6,1.3-3,3-3h34.2c1.6,0,3,1.4,3,3l0,0
		C291.4,436.4,290,437.8,288.4,437.8z"/>
	<path class="st19" d="M117.7,451.8h-29c-1.6,0-3-1.4-3-3l0,0c0-1.6,1.4-3,3-3h29c1.7,0,3,1.4,3,3l0,0
		C120.7,450.4,119.3,451.8,117.7,451.8z"/>
	<path class="st19" d="M240.2,451.8h-109c-1.7,0-3-1.4-3-3l0,0c0-1.6,1.3-3,3-3h109c1.7,0,3,1.4,3,3l0,0
		C243.2,450.4,241.8,451.8,240.2,451.8z"/>
	<path class="st19" d="M288.4,451.8h-34.2c-1.6,0-3-1.4-3-3l0,0c0-1.6,1.3-3,3-3h34.2c1.6,0,3,1.4,3,3l0,0
		C291.4,450.4,290,451.8,288.4,451.8z"/>
	<path class="st19" d="M117.7,466.3h-29c-1.6,0-3-1.4-3-3l0,0c0-1.6,1.4-3,3-3h29c1.7,0,3,1.4,3,3l0,0
		C120.7,464.9,119.3,466.3,117.7,466.3z"/>
	<path class="st19" d="M240.2,466.3h-109c-1.7,0-3-1.4-3-3l0,0c0-1.6,1.3-3,3-3h109c1.7,0,3,1.4,3,3l0,0
		C243.2,464.9,241.8,466.3,240.2,466.3z"/>
	<path class="st19" d="M288.4,466.3h-34.2c-1.6,0-3-1.4-3-3l0,0c0-1.6,1.3-3,3-3h34.2c1.6,0,3,1.4,3,3l0,0
		C291.4,464.9,290,466.3,288.4,466.3z"/>
	<path class="st19" d="M117.7,480.3h-29c-1.6,0-3-1.4-3-3l0,0c0-1.6,1.4-3,3-3h29c1.7,0,3,1.4,3,3l0,0
		C120.7,478.9,119.3,480.3,117.7,480.3z"/>
	<path class="st19" d="M240.2,480.3h-109c-1.7,0-3-1.4-3-3l0,0c0-1.6,1.3-3,3-3h109c1.7,0,3,1.4,3,3l0,0
		C243.2,478.9,241.8,480.3,240.2,480.3z"/>
	<path class="st19" d="M288.4,480.3h-34.2c-1.6,0-3-1.4-3-3l0,0c0-1.6,1.3-3,3-3h34.2c1.6,0,3,1.4,3,3l0,0
		C291.4,478.9,290,480.3,288.4,480.3z"/>
	<path class="st19" d="M118.9,491.8h-29c-1.6,0-3-1.4-3-3l0,0c0-1.6,1.3-3,3-3h29c1.6,0,3,1.4,3,3l0,0
		C121.9,490.4,120.5,491.8,118.9,491.8z"/>
	<path class="st19" d="M241.4,491.8h-109c-1.6,0-3-1.4-3-3l0,0c0-1.6,1.4-3,3-3h109c1.6,0,3,1.4,3,3l0,0
		C244.4,490.4,243,491.8,241.4,491.8z"/>
	<path class="st19" d="M289.6,491.8h-34.2c-1.6,0-3-1.4-3-3l0,0c0-1.6,1.4-3,3-3h34.2c1.6,0,3,1.4,3,3l0,0
		C292.6,490.4,291.3,491.8,289.6,491.8z"/>
	<path class="st19" d="M118.9,505.8h-29c-1.6,0-3-1.4-3-3l0,0c0-1.6,1.3-3,3-3h29c1.6,0,3,1.4,3,3l0,0
		C121.9,504.4,120.5,505.8,118.9,505.8z"/>
	<path class="st19" d="M241.4,505.8h-109c-1.6,0-3-1.4-3-3l0,0c0-1.6,1.4-3,3-3h109c1.6,0,3,1.4,3,3l0,0
		C244.4,504.4,243,505.8,241.4,505.8z"/>
	<path class="st19" d="M289.6,505.8h-34.2c-1.6,0-3-1.4-3-3l0,0c0-1.6,1.4-3,3-3h34.2c1.6,0,3,1.4,3,3l0,0
		C292.6,504.4,291.3,505.8,289.6,505.8z"/>
	<path class="st19" d="M118.9,520.3h-29c-1.6,0-3-1.4-3-3l0,0c0-1.6,1.3-3,3-3h29c1.6,0,3,1.4,3,3l0,0
		C121.9,518.9,120.5,520.3,118.9,520.3z"/>
	<path class="st20" d="M241.4,520.3h-109c-1.6,0-3-1.4-3-3l0,0c0-1.6,1.4-3,3-3h109c1.6,0,3,1.4,3,3l0,0
		C244.4,518.9,243,520.3,241.4,520.3z"/>
	<path class="st19" d="M289.6,520.3h-34.2c-1.6,0-3-1.4-3-3l0,0c0-1.6,1.4-3,3-3h34.2c1.6,0,3,1.4,3,3l0,0
		C292.6,518.9,291.3,520.3,289.6,520.3z"/>
	<path class="st19" d="M118.9,534.3h-29c-1.6,0-3-1.4-3-3l0,0c0-1.6,1.3-3,3-3h29c1.6,0,3,1.4,3,3l0,0
		C121.9,532.9,120.5,534.3,118.9,534.3z"/>
	<path class="st19" d="M241.4,534.3h-109c-1.6,0-3-1.4-3-3l0,0c0-1.6,1.4-3,3-3h109c1.6,0,3,1.4,3,3l0,0
		C244.4,532.9,243,534.3,241.4,534.3z"/>
	<path class="st19" d="M289.6,534.3h-34.2c-1.6,0-3-1.4-3-3l0,0c0-1.6,1.4-3,3-3h34.2c1.6,0,3,1.4,3,3l0,0
		C292.6,532.9,291.3,534.3,289.6,534.3z"/>
	<path class="st19" d="M119,547.6H90c-1.7,0-3-1.4-3-3l0,0c0-1.6,1.3-3,3-3h29c1.7,0,3,1.4,3,3l0,0C122,546.2,120.7,547.6,119,547.6
		z"/>
	<path class="st19" d="M241.5,547.6h-109c-1.6,0-3-1.4-3-3l0,0c0-1.6,1.4-3,3-3h109c1.6,0,3,1.4,3,3l0,0
		C244.5,546.2,243.2,547.6,241.5,547.6z"/>
	<path class="st19" d="M289.8,547.6h-34.2c-1.6,0-3-1.4-3-3l0,0c0-1.6,1.4-3,3-3h34.2c1.6,0,3,1.4,3,3l0,0
		C292.8,546.2,291.4,547.6,289.8,547.6z"/>
	<path class="st19" d="M119,561.6H90c-1.7,0-3-1.4-3-3l0,0c0-1.6,1.3-3,3-3h29c1.7,0,3,1.4,3,3l0,0C122,560.2,120.7,561.6,119,561.6
		z"/>
	<path class="st19" d="M241.5,561.6h-109c-1.6,0-3-1.4-3-3l0,0c0-1.6,1.4-3,3-3h109c1.6,0,3,1.4,3,3l0,0
		C244.5,560.2,243.2,561.6,241.5,561.6z"/>
	<path class="st19" d="M289.8,561.6h-34.2c-1.6,0-3-1.4-3-3l0,0c0-1.6,1.4-3,3-3h34.2c1.6,0,3,1.4,3,3l0,0
		C292.8,560.2,291.4,561.6,289.8,561.6z"/>
	<path class="st20" d="M119,576.1H90c-1.7,0-3-1.4-3-3l0,0c0-1.6,1.3-3,3-3h29c1.7,0,3,1.4,3,3l0,0C122,574.7,120.7,576.1,119,576.1
		z"/>
	<path class="st19" d="M241.5,576.1h-109c-1.6,0-3-1.4-3-3l0,0c0-1.6,1.4-3,3-3h109c1.6,0,3,1.4,3,3l0,0
		C244.5,574.7,243.2,576.1,241.5,576.1z"/>
	<path class="st19" d="M289.8,576.1h-34.2c-1.6,0-3-1.4-3-3l0,0c0-1.6,1.4-3,3-3h34.2c1.6,0,3,1.4,3,3l0,0
		C292.8,574.7,291.4,576.1,289.8,576.1z"/>
	<path class="st19" d="M119,590.1H90c-1.7,0-3-1.4-3-3l0,0c0-1.6,1.3-3,3-3h29c1.7,0,3,1.4,3,3l0,0C122,588.7,120.7,590.1,119,590.1
		z"/>
	<path class="st19" d="M241.5,590.1h-109c-1.6,0-3-1.4-3-3l0,0c0-1.6,1.4-3,3-3h109c1.6,0,3,1.4,3,3l0,0
		C244.5,588.7,243.2,590.1,241.5,590.1z"/>
	<path class="st19" d="M289.8,590.1h-34.2c-1.6,0-3-1.4-3-3l0,0c0-1.6,1.4-3,3-3h34.2c1.6,0,3,1.4,3,3l0,0
		C292.8,588.7,291.4,590.1,289.8,590.1z"/>
	<path class="st19" d="M119,605.1H90c-1.7,0-3-1.4-3-3l0,0c0-1.6,1.3-3,3-3h29c1.6,0,3,1.4,3,3l0,0C122,603.7,120.7,605.1,119,605.1
		z"/>
	<path class="st19" d="M241.5,605.1h-109c-1.6,0-3-1.4-3-3l0,0c0-1.6,1.4-3,3-3h109c1.6,0,3,1.4,3,3l0,0
		C244.5,603.7,243.2,605.1,241.5,605.1z"/>
	<path class="st20" d="M289.8,605.1h-34.2c-1.6,0-3-1.4-3-3l0,0c0-1.6,1.4-3,3-3h34.2c1.6,0,3,1.4,3,3l0,0
		C292.8,603.7,291.4,605.1,289.8,605.1z"/>
	<path class="st19" d="M119,619.1H90c-1.7,0-3-1.4-3-3l0,0c0-1.6,1.3-3,3-3h29c1.6,0,3,1.4,3,3l0,0C122,617.7,120.7,619.1,119,619.1
		z"/>
	<path class="st19" d="M241.5,619.1h-109c-1.6,0-3-1.4-3-3l0,0c0-1.6,1.4-3,3-3h109c1.6,0,3,1.4,3,3l0,0
		C244.5,617.7,243.2,619.1,241.5,619.1z"/>
	<path class="st19" d="M289.8,619.1h-34.2c-1.6,0-3-1.4-3-3l0,0c0-1.6,1.4-3,3-3h34.2c1.6,0,3,1.4,3,3l0,0
		C292.8,617.7,291.4,619.1,289.8,619.1z"/>
	<ellipse class="st17" cx="78.6" cy="265.8" rx="3.3" ry="3"/>
	<path class="st17" d="M81.9,279.8c0,1.7-1.5,3-3.3,3s-3.3-1.3-3.3-3s1.5-3,3.3-3S81.9,278.1,81.9,279.8"/>
	<path class="st17" d="M81.9,294.3c0,1.7-1.5,3-3.3,3s-3.3-1.3-3.3-3s1.5-3,3.3-3S81.9,292.6,81.9,294.3"/>
	<path class="st17" d="M81.9,307.3c0,1.7-1.5,3-3.3,3s-3.3-1.3-3.3-3s1.5-3,3.3-3S81.9,305.6,81.9,307.3"/>
	<path class="st17" d="M81.9,321.3c0,1.7-1.5,3-3.3,3s-3.3-1.3-3.3-3s1.5-3,3.3-3S81.9,319.6,81.9,321.3"/>
	<path class="st17" d="M81.9,335.8c0,1.7-1.5,3-3.3,3s-3.3-1.3-3.3-3s1.5-3,3.3-3S81.9,334.1,81.9,335.8"/>
	<ellipse class="st17" cx="78.6" cy="349.8" rx="3.3" ry="3"/>
	<path class="st17" d="M81.9,363.8c0,1.7-1.5,3-3.3,3s-3.3-1.3-3.3-3s1.5-3,3.3-3S81.9,362.1,81.9,363.8"/>
	<path class="st17" d="M81.9,378.3c0,1.7-1.5,3-3.3,3s-3.3-1.3-3.3-3s1.5-3,3.3-3S81.9,376.6,81.9,378.3"/>
	<path class="st17" d="M81.9,391.3c0,1.7-1.5,3-3.3,3s-3.3-1.3-3.3-3s1.5-3,3.3-3S81.9,389.6,81.9,391.3"/>
	<path class="st17" d="M81.9,405.3c0,1.7-1.5,3-3.3,3s-3.3-1.3-3.3-3s1.5-3,3.3-3S81.9,403.6,81.9,405.3"/>
	<path class="st17" d="M81.9,419.8c0,1.7-1.5,3-3.3,3s-3.3-1.3-3.3-3s1.5-3,3.3-3S81.9,418.1,81.9,419.8"/>
	<ellipse class="st17" cx="78.6" cy="434.8" rx="3.3" ry="3"/>
	<path class="st17" d="M81.9,448.8c0,1.7-1.5,3-3.3,3s-3.3-1.3-3.3-3s1.5-3,3.3-3S81.9,447.1,81.9,448.8"/>
	<path class="st17" d="M81.9,463.3c0,1.7-1.5,3-3.3,3s-3.3-1.3-3.3-3s1.5-3,3.3-3S81.9,461.6,81.9,463.3"/>
	<path class="st17" d="M81.9,476.3c0,1.7-1.5,3-3.3,3s-3.3-1.3-3.3-3s1.5-3,3.3-3S81.9,474.6,81.9,476.3"/>
	<path class="st17" d="M81.9,490.3c0,1.7-1.5,3-3.3,3s-3.3-1.3-3.3-3s1.5-3,3.3-3S81.9,488.6,81.9,490.3"/>
	<path class="st17" d="M81.9,504.8c0,1.7-1.5,3-3.3,3s-3.3-1.3-3.3-3s1.5-3,3.3-3S81.9,503.1,81.9,504.8"/>
	<ellipse class="st17" cx="78.6" cy="518.8" rx="3.3" ry="3"/>
	<path class="st17" d="M81.9,532.8c0,1.7-1.5,3-3.3,3s-3.3-1.3-3.3-3s1.5-3,3.3-3S81.9,531.1,81.9,532.8"/>
	<path class="st17" d="M81.9,547.3c0,1.7-1.5,3-3.3,3s-3.3-1.3-3.3-3s1.5-3,3.3-3S81.9,545.6,81.9,547.3"/>
	<path class="st17" d="M81.9,560.3c0,1.7-1.5,3-3.3,3s-3.3-1.3-3.3-3s1.5-3,3.3-3S81.9,558.6,81.9,560.3"/>
	<path class="st17" d="M81.9,574.3c0,1.7-1.5,3-3.3,3s-3.3-1.3-3.3-3s1.5-3,3.3-3S81.9,572.6,81.9,574.3"/>
	<path class="st17" d="M81.9,588.8c0,1.7-1.5,3-3.3,3s-3.3-1.3-3.3-3s1.5-3,3.3-3S81.9,587.1,81.9,588.8"/>
	<path class="st17" d="M81.9,602.1c0,1.7-1.5,3-3.3,3s-3.3-1.3-3.3-3s1.5-3,3.3-3S81.9,600.4,81.9,602.1"/>
	<path class="st17" d="M81.9,616.6c0,1.7-1.5,3-3.3,3s-3.3-1.3-3.3-3s1.5-3,3.3-3S81.9,614.9,81.9,616.6"/>
	<rect x="-44.3" y="263.3" class="st17" width="89.3" height="81.3"/>
	<rect x="-44.3" y="353.7" class="st12" width="89.3" height="81.3"/>
	<rect x="-44.3" y="444.7" class="st17" width="89.3" height="81.3"/>
	<rect x="-44.3" y="534.3" class="st12" width="89.3" height="81.3"/>
	<ellipse class="st21" cx="144.2" cy="408.5" rx="52.1" ry="52"/>
	<g>
		
			<image style="overflow:visible;opacity:0.78;" width="97" height="97" xlink:href="402E3C96.png"  transform="matrix(1 0 0 1 177 443)">
		</image>
		<g>
			<path class="st20" d="M267.2,532.1L267.2,532.1c-3.9,3.9-10.2,3.9-14,0l-69.6-69.6c-3.9-3.9-3.9-10.2,0-14l0,0
				c3.9-3.9,10.2-3.9,14,0l69.6,69.6C271.1,521.9,271.1,528.3,267.2,532.1z"/>
		</g>
	</g>
	<g>
		
			<image style="overflow:visible;opacity:0.78;" width="140" height="139" xlink:href="402E3C9A.png"  transform="matrix(1 0 0 1 74 340)">
		</image>
		<g>
			<ellipse class="st22" cx="144" cy="408.2" rx="58.4" ry="58.1"/>
		</g>
	</g>
</g>
<g id="objects">
</g>
</svg>
