<?xml version="1.0" encoding="utf-8"?>
<!-- Generator: Adobe Illustrator 19.1.0, SVG Export Plug-In . SVG Version: 6.00 Build 0)  -->
<svg version="1.1" xmlns="http://www.w3.org/2000/svg" xmlns:xlink="http://www.w3.org/1999/xlink" x="0px" y="0px"
	 viewBox="0 0 417.9 501.7" style="enable-background:new 0 0 417.9 501.7;" xml:space="preserve">
<style type="text/css">
	.st0{fill:#D8D8D8;}
	.st1{opacity:0.26;}
	.st2{fill:#2B2A2A;}
	.st3{fill:#3195AB;}
	.st4{fill:#EF4438;}
	.st5{fill:#80C342;}
	.st6{fill:#F9ED28;}
	.st7{fill:#FFFFFF;}
	.st8{fill:none;stroke:#EF4438;stroke-width:0.7222;stroke-miterlimit:10;}
	.st9{fill:#EAEAEA;}
	.st10{fill:#8E8E8E;}
	.st11{fill:#8E8E8E;stroke:#454545;stroke-width:5;stroke-miterlimit:10;}
	.st12{fill:#707071;stroke:#1E1E1E;stroke-miterlimit:10;}
	.st13{fill:none;stroke:#8E8E8E;stroke-miterlimit:10;}
	.st14{fill:none;stroke:#606161;stroke-miterlimit:10;}
	.st15{fill:none;stroke:#BF5F28;stroke-miterlimit:10;}
	.st16{fill:#DEDDDD;}
	.st17{fill:#353535;}
	.st18{opacity:0.45;enable-background:new    ;}
	.st19{fill:#BE3B4C;}
	.st20{opacity:0.45;fill:#BE3B4C;enable-background:new    ;}
	.st21{opacity:0.45;fill:#353535;enable-background:new    ;}
	.st22{fill:#3295AB;}
	.st23{opacity:0.45;fill:#3295AB;enable-background:new    ;}
</style>
<g id="Layer_1">
	<g>
		<rect x="15.3" class="st0" width="402.2" height="36.3"/>
	</g>
	<g>
		<g class="st1">
			<line class="st2" x1="26.4" y1="47.4" x2="429" y2="47.4"/>
		</g>
		<g>
			<line class="st3" x1="15.3" y1="36.3" x2="417.9" y2="36.3"/>
		</g>
	</g>
	<circle class="st4" cx="411" cy="6.6" r="2.4"/>
	<circle class="st5" cx="395.7" cy="6.6" r="2.4"/>
	<circle class="st6" cx="403.5" cy="6.6" r="2.4"/>
	<path class="st7" d="M385.7,22.4H56.3c-0.8,0-1.4-0.6-1.4-1.4v-5c0-0.8,0.6-1.4,1.4-1.4h329.5c0.8,0,1.4,0.6,1.4,1.4v5
		C387.1,21.8,386.5,22.4,385.7,22.4z"/>
	<g>
		<g>
			<polygon class="st4" points="47.4,17.6 44.9,17.6 47.4,15.1 49.9,17.6 			"/>
			<rect x="45.4" y="17.6" class="st4" width="4" height="3.5"/>
			<rect x="46.8" y="19" class="st0" width="1.2" height="2.7"/>
			<rect x="48.5" y="15.3" class="st4" width="0.3" height="0.8"/>
		</g>
		<circle class="st8" cx="39.1" cy="18.3" r="2.8"/>
		<rect x="40.2" y="17" class="st0" width="3.5" height="2.5"/>
		<polygon class="st8" points="41.9,16.3 42,17.5 40.9,17.4 		"/>
		<rect x="27.6" y="18.1" class="st4" width="4.3" height="1"/>
		<path class="st4" d="M31.8,17.9l-0.9-1.3l3,1.9c0.1,0,0.1,0.1,0,0.2l-2.7,1.8l0.7-1.5"/>
		<rect x="21.4" y="18.1" class="st4" width="3.8" height="1"/>
		<path class="st4" d="M21.5,19.3l0.9,1.3l-3-1.9c-0.1,0-0.1-0.1,0-0.2l2.7-1.8l-0.7,1.5"/>
	</g>
	<line class="st9" x1="15.3" y1="36.3" x2="417.9" y2="36.3"/>
	<polygon class="st10" points="15.3,489.6 15.3,0 0,26.4 0.4,488.9 0.4,496.4 0,501.7 400.7,501.7 417.5,488.3 	"/>
	<path class="st11" d="M15.3,480.1"/>
	<path class="st12" d="M-38.4,478.8"/>
	<line class="st13" x1="416.9" y1="0" x2="416.9" y2="488.3"/>
	<rect x="-106.3" y="167" class="st14" width="2" height="0"/>
	<path class="st15" d="M16.8,54"/>
	<path class="st15" d="M-0.7,83.5"/>
	<line class="st16" x1="389.7" y1="480.1" x2="137.7" y2="480.1"/>
	<g id="OBJECTS">
		<g>
			<g>
				<g>
					<g>
						
							<image style="overflow:visible;opacity:0.55;" width="411" height="452" xlink:href="9F42DEAE.png"  transform="matrix(0.24 0 0 0.24 309.6063 217.9672)">
						</image>
						<g>
							<path class="st17" d="M320.2,243l32-18.5c3.5-2,7.7-2,11.2,0l32,18.5c3.5,2,5.6,5.7,5.6,9.7v37c0,4-2.2,7.7-5.6,9.7l-32,18.5
								c-3.5,2-7.7,2-11.2,0l-32-18.5c-3.5-2-5.6-5.7-5.6-9.7v-37C314.6,248.6,316.8,244.9,320.2,243z"/>
						</g>
					</g>
					<g class="st18">
						
							<image style="overflow:visible;opacity:0.55;" width="230" height="452" xlink:href="9F42DEB2.png"  transform="matrix(0.24 0 0 0.24 352.9321 218.0008)">
						</image>
						<g>
							<path class="st17" d="M395.5,243l-32-18.5c-1.7-1-3.7-1.5-5.6-1.5v96.5c2,0,3.9-0.5,5.6-1.5l32-18.5c3.5-2,5.6-5.7,5.6-9.7
								v-37C401.1,248.6,399,244.9,395.5,243z"/>
						</g>
					</g>
				</g>
				<g>
					
						<image style="overflow:visible;opacity:0.55;" width="204" height="183" xlink:href="9F42DEB5.png"  transform="matrix(0.24 0 0 0.24 334.4311 250.2216)">
					</image>
					<g>
						<path class="st7" d="M368.8,277.4c-5,6.5-9.3,9.8-12.7,9.8c-2.2,0-4-2-5.4-6c-1-3.6-2-7.3-3-10.9c-1.1-4-2.3-6-3.6-6
							c-0.3,0-1.2,0.6-2.9,1.7l-1.7-2.2c1.8-1.6,3.6-3.2,5.4-4.8c2.4-2.1,4.2-3.2,5.4-3.3c2.9-0.3,4.6,1.7,5.3,5.9
							c0.7,4.5,1.2,7.3,1.5,8.5c0.8,3.8,1.7,5.7,2.8,5.7c0.7,0,2-1.2,3.5-3.6s2.4-4.3,2.5-5.6c0.2-2.1-0.6-3.2-2.5-3.2
							c-0.9,0-1.8,0.2-2.8,0.6c1.8-5.9,5.2-8.8,10.4-8.7c3.8,0.1,5.6,2.6,5.4,7.4C376.1,266.2,373.6,271.1,368.8,277.4z"/>
					</g>
				</g>
			</g>
			<g>
				<g>
					<g>
						
							<image style="overflow:visible;opacity:0.55;" width="411" height="452" xlink:href="9F42DEB6.png"  transform="matrix(0.24 0 0 0.24 309.6063 55.6974)">
						</image>
						<g>
							<path class="st19" d="M320.2,80.7l32-18.5c3.5-2,7.7-2,11.2,0l32,18.5c3.5,2,5.6,5.7,5.6,9.7v37c0,4-2.2,7.7-5.6,9.7
								l-32,18.5c-3.5,2-7.7,2-11.2,0l-32-18.5c-3.5-2-5.6-5.7-5.6-9.7v-37C314.6,86.4,316.8,82.7,320.2,80.7z"/>
						</g>
					</g>
					<g class="st18">
						
							<image style="overflow:visible;opacity:0.55;" width="230" height="452" xlink:href="9F42DEB4.png"  transform="matrix(0.24 0 0 0.24 352.8648 55.731)">
						</image>
						<g>
							<path class="st19" d="M395.5,80.7l-32.1-18.5c-1.7-1-3.7-1.5-5.6-1.5v96.5c2,0,3.9-0.5,5.6-1.5l32-18.5
								c3.5-2,5.6-5.7,5.6-9.7v-37C401.1,86.4,399,82.7,395.5,80.7z"/>
						</g>
					</g>
				</g>
				<g>
					
						<image style="overflow:visible;opacity:0.55;" width="235" height="228" xlink:href="9F42DEB3.png"  transform="matrix(0.24 0 0 0.24 330.7558 82.7087)">
					</image>
					<g>
						<path class="st7" d="M358.6,87.7c-15.3,0.3-25,15.5-19.6,29.5c-1,3-2,6-3.1,9c-0.5,1.5,1,2.6,2.4,2.4c3-0.5,6-1.1,9-1.5
							c12.2,7.5,28.1,1.1,32-12.6C382.9,100.9,372.1,88,358.6,87.7z M369.7,122.5c-2.7,2.4-6.3,3.6-9.7,4c-2.3,0.2-4.5-0.1-6.7-0.7
							c-1.1-0.3-2.2-0.9-3.3-1.4c-0.7-0.4-1.4-1.1-2.4-1.1c-1.6,0-3.4,0.5-5,0.9c-0.7,0.1-1.4,0.3-2.1,0.3c0.5-1.4,0.9-2.8,1.4-4.2
							c0.3-0.8,0.5-1.7,0.9-2.5c0.3-1.1-0.6-2.4-0.9-3.3c-0.5-1.5-0.7-3-0.8-4.5c-0.7-10,7.7-18.2,17.4-18.4
							c7.2,0.1,13.7,4.4,16.3,11.2C377.6,109.8,375.3,117.6,369.7,122.5z M362.2,112.7l5,4.6c-0.5,0.4-0.9,0.6-1.5,0.7
							c-0.5,0.1-5,1.3-10.8-4c-4.4-4-5.4-8-5.5-10c-0.1-0.5,0-0.8,0-0.9l0,0c0-0.1,0-0.1,0-0.1c0.1-0.6,0.3-1.1,0.6-1.7l5,4.6
							c-0.3,0.3-0.6,0.5-1,0.5c0.4,0.9,1.4,3,3.2,4.6c1.8,1.6,3.8,2.4,4.7,2.6C361.8,113.4,361.9,113.1,362.2,112.7z M356,105.6
							l-6-5.5c0-0.1,0.1-0.1,0.1-0.1l0.3-0.3c0.9-0.9,2.4-1,3.3-0.1l2.6,2.4c0.4,0.4,0.7,0.9,0.7,1.5c0.1,0.7-0.1,1.3-0.6,1.7
							l-0.3,0.3C356,105.5,356,105.6,356,105.6z M368.6,113.3c0.4,0.4,0.7,0.9,0.7,1.5c0.1,0.7-0.1,1.3-0.6,1.7l-0.3,0.3
							c-0.1,0.1-0.1,0.1-0.1,0.1l-6-5.5c0-0.1,0.1-0.1,0.1-0.1l0.3-0.3c0.4-0.5,1-0.7,1.6-0.7s1.2,0.2,1.7,0.6L368.6,113.3z"/>
					</g>
				</g>
			</g>
			<g>
				
					<image style="overflow:visible;opacity:0.55;" width="411" height="453" xlink:href="9F42DEBD.png"  transform="matrix(0.24 0 0 0.24 215.6217 217.9672)">
				</image>
				<g>
					<g>
						<g>
							<path class="st19" d="M226.2,243l32-18.5c3.5-2,7.7-2,11.2,0l32,18.5c3.5,2,5.6,5.7,5.6,9.7v37c0,4-2.2,7.7-5.6,9.7l-32,18.5
								c-3.5,2-7.7,2-11.2,0l-32-18.5c-3.5-2-5.6-5.7-5.6-9.7v-37C220.6,248.6,222.7,244.9,226.2,243z"/>
							<path class="st20" d="M301.5,243l-32-18.5c-1.7-1-3.7-1.5-5.6-1.5v96.5c2,0,3.9-0.5,5.6-1.5l32-18.5c3.5-2,5.6-5.7,5.6-9.7
								v-37C307.1,248.6,305,244.9,301.5,243z"/>
						</g>
						<path class="st7" d="M272.2,271.2h-5.4v19.4h-8.1v-19.4h-4v-6.7h4v-4c0-5.4,2.3-8.7,8.7-8.7h5.4v6.7h-3.4
							c-2.5,0-2.7,0.9-2.7,2.7v3.4h6.1L272.2,271.2z"/>
					</g>
				</g>
			</g>
			<g>
				<g>
					<g>
						
							<image style="overflow:visible;opacity:0.55;" width="411" height="452" xlink:href="9F42DEBE.png"  transform="matrix(0.24 0 0 0.24 27.6509 55.6974)">
						</image>
						<g>
							<path class="st19" d="M38.2,80.7l32.1-18.5c3.5-2,7.7-2,11.2,0l32,18.5c3.5,2,5.6,5.7,5.6,9.7v37c0,4-2.2,7.7-5.6,9.7
								l-32,18.5c-3.5,2-7.7,2-11.2,0l-32-18.5c-3.5-2-5.6-5.7-5.6-9.7v-37C32.6,86.4,34.7,82.7,38.2,80.7z"/>
						</g>
					</g>
					<g class="st18">
						
							<image style="overflow:visible;opacity:0.55;" width="230" height="452" xlink:href="9F42DEBC.png"  transform="matrix(0.24 0 0 0.24 70.8436 55.731)">
						</image>
						<g>
							<path class="st19" d="M113.5,80.7L81.4,62.2c-1.7-1-3.6-1.5-5.6-1.5v96.5c2,0,3.9-0.5,5.6-1.5l32-18.5c3.5-2,5.6-5.7,5.6-9.7
								v-37C119.1,86.4,116.9,82.7,113.5,80.7z"/>
						</g>
					</g>
				</g>
				<g>
					
						<image style="overflow:visible;opacity:0.55;" width="217" height="185" xlink:href="4AA2F71.png"  transform="matrix(0.24 0 0 0.24 50.8626 87.7544)">
					</image>
					<g>
						<path class="st7" d="M90.6,92.8H61.1c-2.9,0-5.2,3.1-5.2,6.8v18.7c0,3.8,2.4,6.9,5.2,6.9h29.4c2.9,0,5.2-3.1,5.2-6.9V99.6
							C95.8,95.8,93.4,92.8,90.6,92.8z M80.6,110.4l-8.1,5.3c-1.2,0.8-2.3,0.3-2.3-1.2v-2.9c0-1.5,0-3.9,0-5.4v-2.9
							c0-1.5,1-2,2.3-1.2l8.1,5.3C81.8,108.3,81.8,109.6,80.6,110.4z"/>
					</g>
				</g>
			</g>
			<g>
				<g>
					<g>
						
							<image style="overflow:visible;opacity:0.55;" width="411" height="452" xlink:href="4AA2F77.png"  transform="matrix(0.24 0 0 0.24 27.5851 217.9672)">
						</image>
						<g>
							<path class="st19" d="M38.2,243l32-18.5c3.5-2,7.7-2,11.2,0l32,18.5c3.5,2,5.6,5.7,5.6,9.7v37c0,4-2.2,7.7-5.6,9.7l-32,18.5
								c-3.5,2-7.7,2-11.2,0l-32-18.5c-3.5-2-5.6-5.7-5.6-9.7v-37C32.6,248.6,34.7,244.9,38.2,243z"/>
						</g>
					</g>
					<g class="st18">
						
							<image style="overflow:visible;opacity:0.55;" width="230" height="452" xlink:href="4AA2F70.png"  transform="matrix(0.24 0 0 0.24 70.9109 218.0008)">
						</image>
						<g>
							<path class="st19" d="M113.5,243l-32-18.5c-1.7-1-3.7-1.5-5.6-1.5v96.5c2,0,3.9-0.5,5.6-1.5l32-18.5c3.5-2,5.6-5.7,5.6-9.7
								v-37C119.1,248.6,116.9,244.9,113.5,243z"/>
						</g>
					</g>
				</g>
				<g>
					
						<image style="overflow:visible;opacity:0.55;" width="239" height="225" xlink:href="4AA2F73.png"  transform="matrix(0.24 0 0 0.24 48.4407 245.2477)">
					</image>
					<g>
						<path class="st7" d="M88,272.3c0.1-0.3,0.1-0.7,0.1-1c0.1,0,0.1,0,0.1-0.1l4.7-2.2c0.9-0.4,1.3-1.5,0.9-2.4
							c-0.4-0.9-1.5-1.3-2.4-0.9l-3.2,1.5v-5.7c0-6.2-5.1-11.3-11.3-11.3h-1.7c-6.2,0-11.3,5.1-11.3,11.3v5.7l-3.2-1.5
							c-0.9-0.4-2,0-2.4,0.9s0,2,0.9,2.4l4.7,2.2c0.1,0,0.1,0,0.1,0.1c0,0.3,0.1,0.6,0.1,0.9l0,0c0,0-2.4,9.1-10.6,9.9
							c0,0,0.6,3.6,5.7,4.4s6.6,0.7,8.9,2.4c2.3,1.7,3.9,3.1,8,3.1l0,0l0,0l0,0l0,0c4.1,0,5.7-1.5,8-3.1c2.3-1.7,3.8-1.6,8.9-2.4
							c5.1-0.8,5.7-4.4,5.7-4.4C90.7,281.5,88.2,273.1,88,272.3z"/>
					</g>
				</g>
			</g>
			<g>
				
					<image style="overflow:visible;opacity:0.55;" width="411" height="453" xlink:href="4AA2F6F.png"  transform="matrix(0.24 0 0 0.24 74.6111 136.8323)">
				</image>
				<g>
					<g>
						<g>
							<path class="st17" d="M85.2,161.8l32-18.5c3.5-2,7.7-2,11.2,0l32,18.5c3.5,2,5.6,5.7,5.6,9.7v37c0,4-2.2,7.7-5.6,9.7
								l-32,18.5c-3.5,2-7.7,2-11.2,0l-32-18.5c-3.5-2-5.6-5.7-5.6-9.7v-37C79.6,167.6,81.7,163.9,85.2,161.8z"/>
							<path class="st21" d="M160.5,161.8l-32-18.5c-1.7-1-3.7-1.5-5.6-1.5v96.5c2,0,3.9-0.5,5.6-1.5l32-18.5c3.5-2,5.6-5.7,5.6-9.7
								v-37C166.1,167.6,164,163.9,160.5,161.8z"/>
						</g>
						<path class="st7" d="M142.4,194.5c0.3-1.3,0.5-2.8,0.5-4.2c0-10.9-8.9-19.8-19.8-19.8c-1.1,0-2.3,0.1-3.4,0.3
							c-1.7-1.1-3.8-1.7-6.1-1.7c-6.3,0-11.4,5.1-11.4,11.4c0,2.1,0.6,4.1,1.5,5.8c-0.3,1.3-0.4,2.6-0.4,4
							c0,10.9,8.8,19.8,19.8,19.8c1.2,0,2.4-0.1,3.6-0.3c1.6,0.9,3.4,1.3,5.4,1.3c6.3,0,11.4-5.1,11.4-11.4
							C143.5,197.8,143.1,196,142.4,194.5z M133.2,199.7c-0.9,1.3-2.3,2.3-4,3c-1.7,0.7-3.8,1.1-6.2,1.1c-2.8,0-5.2-0.5-7.1-1.5
							c-1.3-0.7-2.4-1.7-3.2-2.9c-0.8-1.2-1.3-2.4-1.3-3.6c0-0.7,0.3-1.3,0.8-1.9s1.2-0.7,2.1-0.7c0.7,0,1.3,0.2,1.7,0.6
							c0.5,0.4,0.9,0.9,1.1,1.7c0.3,0.8,0.7,1.5,1.1,2c0.4,0.5,0.9,0.9,1.7,1.3c0.7,0.3,1.7,0.5,2.9,0.5c1.6,0,3-0.3,4-1
							s1.5-1.5,1.5-2.5c0-0.8-0.3-1.4-0.7-1.9c-0.5-0.5-1.3-0.9-2.1-1.1c-0.9-0.3-2.1-0.6-3.6-0.9c-2-0.5-3.8-0.9-5.2-1.5
							c-1.4-0.6-2.6-1.4-3.4-2.5c-0.9-1.1-1.3-2.4-1.3-4c0-1.5,0.5-2.8,1.3-4c0.9-1.1,2.2-2,3.8-2.7c1.6-0.6,3.6-0.9,5.8-0.9
							c1.7,0,3.3,0.2,4.6,0.6c1.3,0.4,2.4,0.9,3.2,1.6c0.9,0.7,1.5,1.4,2,2.2c0.4,0.7,0.6,1.5,0.6,2.2c0,0.7-0.3,1.3-0.8,1.9
							c-0.5,0.5-1.2,0.9-2,0.9c-0.7,0-1.3-0.2-1.7-0.5c-0.3-0.3-0.7-0.8-1.2-1.5c-0.5-0.9-1.1-1.7-1.7-2.2s-1.7-0.7-3.3-0.7
							c-1.4,0-2.6,0.3-3.4,0.9c-0.8,0.5-1.2,1.1-1.2,1.9c0,0.5,0.1,0.8,0.4,1.1s0.7,0.7,1.1,0.9c0.5,0.3,1.1,0.5,1.6,0.6
							c0.5,0.1,1.5,0.4,2.8,0.7c1.6,0.3,3.1,0.7,4.4,1.1c1.3,0.4,2.4,0.9,3.4,1.5c0.9,0.6,1.7,1.4,2.2,2.4c0.5,0.9,0.8,2.2,0.8,3.5
							C134.6,197,134.1,198.4,133.2,199.7z"/>
					</g>
				</g>
			</g>
			<g>
				
					<image style="overflow:visible;opacity:0.55;" width="414" height="458" xlink:href="4AA2F8F.png"  transform="matrix(0.24 0 0 0.24 121.5698 217.8663)">
				</image>
				<g>
					<g>
						<g>
							<path class="st22" d="M132.2,243.2l32.3-18.8c3.5-2,7.8-2,11.3,0l32.3,18.8c3.5,2,5.7,5.8,5.7,9.8v37.5c0,4-2.2,7.8-5.7,9.8
								l-32.3,18.8c-3.5,2-7.8,2-11.3,0l-32.3-18.8c-3.5-2-5.7-5.8-5.7-9.8V253C126.6,249,128.7,245.3,132.2,243.2z"/>
							<path class="st22" d="M208.2,243.2l-32.3-18.8c-1.7-1-3.7-1.5-5.7-1.5v97.7c2,0,3.9-0.5,5.7-1.5l32.3-18.8
								c3.5-2,5.7-5.8,5.7-9.8v-37.5C213.8,249,211.7,245.3,208.2,243.2z"/>
						</g>
						<path class="st7" d="M180.8,250.3h-21.2c-5.9,0-10.8,4.8-10.8,10.8v21.3c0,6,4.8,10.8,10.8,10.8h21.2
							c5.9,0,10.8-4.8,10.8-10.8v-21.3C191.6,255.2,186.7,250.3,180.8,250.3z M170.2,282.9c-6.1,0-11-5-11-11c0-6.1,4.9-11,11-11
							c6.1,0,11,5,11,11C181.2,277.9,176.3,282.9,170.2,282.9z M181.1,262.5c-1.4,0-2.6-1.1-2.6-2.6c0-1.4,1.1-2.6,2.6-2.6
							c1.4,0,2.6,1.1,2.6,2.6C183.7,261.3,182.5,262.5,181.1,262.5z M176.6,271.8c0,3.5-2.8,6.4-6.3,6.4s-6.3-2.9-6.3-6.4
							c0-3.5,2.8-6.4,6.3-6.4C173.7,265.5,176.6,268.3,176.6,271.8z"/>
					</g>
				</g>
			</g>
			<g>
				
					<image style="overflow:visible;opacity:0.55;" width="411" height="453" xlink:href="4AA2F91.png"  transform="matrix(0.24 0 0 0.24 262.6461 136.8323)">
				</image>
				<g>
					<g>
						<g>
							<path class="st17" d="M273.2,161.8l32-18.5c3.5-2,7.7-2,11.2,0l32,18.5c3.5,2,5.6,5.7,5.6,9.7v37c0,4-2.2,7.7-5.6,9.7
								l-32,18.5c-3.5,2-7.7,2-11.2,0l-32-18.5c-3.5-2-5.6-5.7-5.6-9.7v-37C267.6,167.6,269.7,163.9,273.2,161.8z"/>
							<path class="st21" d="M348.5,161.8l-32-18.5c-1.7-1-3.7-1.5-5.6-1.5v96.5c2,0,3.9-0.5,5.6-1.5l32-18.5c3.5-2,5.6-5.7,5.6-9.7
								v-37C354.1,167.6,352,163.9,348.5,161.8z"/>
						</g>
						<path class="st7" d="M301.5,205.4H295v-20.9h6.5V205.4z M302.1,178.3c-0.1-2.1-1.5-3.6-3.9-3.6c-2.4,0-4,1.5-4,3.6
							c0,2,1.5,3.6,3.9,3.6h0.1C300.5,182,302.1,180.3,302.1,178.3z M327.6,193.8c0-6.5-3.6-9.5-8.3-9.5c-3.7,0-6.1,2-6.5,3.5v-3.3
							h-7.3c0.1,1.7,0,20.9,0,20.9h7.3v-11.3c0-0.6,0-1.3,0.1-1.7c0.5-1.3,1.6-2.6,3.5-2.6c2.6,0,3.7,2,3.7,4.8v10.8h7.4
							L327.6,193.8L327.6,193.8z"/>
					</g>
				</g>
			</g>
			<g>
				
					<image style="overflow:visible;opacity:0.55;" width="411" height="453" xlink:href="4AA2F93.png"  transform="matrix(0.24 0 0 0.24 168.5957 136.8323)">
				</image>
				<g>
					<g>
						<g>
							<path class="st22" d="M179.2,161.8l32-18.5c3.5-2,7.7-2,11.2,0l32,18.5c3.5,2,5.6,5.7,5.6,9.7v37c0,4-2.2,7.7-5.6,9.7
								l-32,18.5c-3.5,2-7.7,2-11.2,0l-32-18.4c-3.5-2-5.6-5.7-5.6-9.7v-37C173.6,167.6,175.7,163.9,179.2,161.8z"/>
							<path class="st23" d="M254.5,161.8l-32-18.5c-1.7-1-3.7-1.5-5.6-1.5v96.5c2,0,3.9-0.5,5.6-1.5l32-18.5c3.5-2,5.6-5.7,5.6-9.7
								v-37C260.1,167.6,258,163.9,254.5,161.8z"/>
						</g>
						<path class="st7" d="M191.9,190.1c0-9.6,7.9-17.2,17.6-17.2c4,0,7.9,1.3,10.8,3.7c1.2,0.9,1.4,2.7,0.5,3.8
							c-0.9,1.1-2.7,1.3-3.8,0.4c-2-1.5-4.6-2.6-7.5-2.6c-3.4,0-6.4,1.3-8.5,3.5c-2.2,2.2-3.6,5-3.6,8.3c0,3.2,1.3,6.1,3.6,8.2
							c2.2,2.2,5.1,3.5,8.5,3.5c2.4,0,4.6-0.7,6.5-1.8v-6.5h-6.8c-1.5,0-2.7-1.2-2.7-2.7c0-1.5,1.2-2.7,2.7-2.7h9.4
							c0.1,0,0.1,0,0.1,0c0.1,0,0.1,0,0.1,0c1.5,0,2.8,1.1,2.8,2.7v10.5c0,0.3-0.1,0.5-0.1,0.8c-0.1,0.1-0.1,0.1-0.1,0.3v0.1
							c-0.1,0.4-0.4,0.8-0.9,1.1c-3,2.4-6.7,3.7-10.8,3.7C199.8,207.2,191.9,199.6,191.9,190.1z M230.6,192.1h-5.1c-1.1,0-2-0.9-2-2
							s0.9-2,2-2h5.1v-5c0-1.1,0.9-2.1,2.1-2.1c1.1,0,2.1,0.9,2.1,2.1v5h5.1c1.1,0,2,0.9,2,2c0,1.1-0.9,2-2,2h-5.1v5
							c0,1.1-0.9,2.1-2.1,2.1c-1.1,0-2.1-0.9-2.1-2.1V192.1z"/>
					</g>
				</g>
			</g>
			<g>
				
					<image style="overflow:visible;opacity:0.55;" width="411" height="453" xlink:href="4AA2F90.png"  transform="matrix(0.24 0 0 0.24 215.6217 55.6974)">
				</image>
				<g>
					<g>
						<g>
							<path class="st22" d="M226.2,80.7l32-18.5c3.5-2,7.7-2,11.2,0l32,18.5c3.5,2,5.6,5.7,5.6,9.7v37c0,4-2.2,7.7-5.6,9.7
								l-32,18.5c-3.5,2-7.7,2-11.2,0l-32-18.5c-3.5-2-5.6-5.7-5.6-9.7v-37C220.6,86.4,222.7,82.7,226.2,80.7z"/>
							<path class="st23" d="M301.5,80.7l-32-18.5c-1.7-1-3.7-1.5-5.6-1.5v96.5c2,0,3.9-0.5,5.6-1.5l32-18.5c3.5-2,5.6-5.7,5.6-9.7
								v-37C307.1,86.4,305,82.7,301.5,80.7z"/>
						</g>
						<path class="st7" d="M280.1,100.6c0,0.3,0,0.7,0,1.1c0,11.1-8.4,23.9-23.9,23.9c-4.7,0-9.1-1.4-12.8-3.8
							c0.7,0.1,1.3,0.1,2,0.1c3.9,0,7.5-1.3,10.4-3.6c-3.7-0.1-6.8-2.5-7.9-5.9c0.5,0.1,1,0.1,1.5,0.1c0.7,0,1.5-0.1,2.2-0.3
							c-3.8-0.7-6.7-4.2-6.7-8.2c0-0.1,0-0.1,0-0.1c1.1,0.6,2.4,1,3.8,1.1c-2.2-1.5-3.7-4.1-3.7-7c0-1.5,0.4-3,1.1-4.2
							c4.2,5,10.3,8.4,17.3,8.7c-0.1-0.6-0.2-1.3-0.2-1.9c0-4.6,3.8-8.4,8.4-8.4c2.4,0,4.6,1,6.1,2.6c1.9-0.4,3.7-1.1,5.3-2
							c-0.6,2-2,3.6-3.7,4.6c1.7-0.2,3.3-0.7,4.8-1.3C283.2,97.9,281.8,99.4,280.1,100.6z"/>
					</g>
				</g>
			</g>
			<g>
				
					<image style="overflow:visible;opacity:0.55;" width="411" height="453" xlink:href="4AA2F97.png"  transform="matrix(0.24 0 0 0.24 121.6355 55.6974)">
				</image>
				<g>
					<g>
						<g>
							<path class="st17" d="M132.2,80.7l32-18.5c3.5-2,7.7-2,11.2,0l32,18.5c3.5,2,5.6,5.7,5.6,9.7v37c0,4-2.2,7.7-5.6,9.7
								l-32,18.5c-3.5,2-7.7,2-11.2,0l-32-18.5c-3.5-2-5.6-5.7-5.6-9.7v-37C126.6,86.4,128.7,82.7,132.2,80.7z"/>
							<path class="st21" d="M207.5,80.7l-32-18.5c-1.7-1-3.7-1.5-5.7-1.5v96.5c2,0,3.9-0.5,5.6-1.5l32-18.5c3.5-2,5.6-5.7,5.6-9.7
								v-37C213.1,86.4,211,82.7,207.5,80.7z"/>
						</g>
						<path class="st7" d="M173.2,119.1c-2.7,0-5.2-1.4-6.1-3.1c0,0-1.4,5.7-1.7,6.8c-1.1,3.9-4.2,7.8-4.4,8.1
							c-0.2,0.2-0.5,0.1-0.6-0.1c-0.1-0.5-0.9-5.4,0.1-9.4c0.5-2,3.2-13.5,3.2-13.5s-0.8-1.5-0.8-3.9c0-3.7,2.2-6.4,4.8-6.4
							c2.2,0,3.4,1.7,3.4,3.7c0,2.3-1.4,5.7-2.2,8.7c-0.6,2.6,1.3,4.8,3.9,4.8c4.7,0,7.9-6,7.9-13.1c0-5.4-3.6-9.5-10.3-9.5
							c-7.5,0-12.2,5.6-12.2,11.8c0,2.2,0.6,3.7,1.6,4.8c0.5,0.5,0.5,0.7,0.3,1.4c-0.1,0.5-0.4,1.5-0.5,2c-0.1,0.6-0.7,0.9-1.2,0.6
							c-3.4-1.4-5-5.2-5-9.4c0-7,5.9-15.5,17.7-15.5c9.4,0,15.7,6.9,15.7,14.2C186.5,111.8,181.1,119.1,173.2,119.1z"/>
					</g>
				</g>
			</g>
		</g>
	</g>
</g>
<g id="objects">
	<path class="st17" d="M424.8,139"/>
	<g>
		<g>
			
				<image style="overflow:visible;opacity:0.55;" width="64" height="65" xlink:href="4AA2FB4.png"  transform="matrix(0.24 0 0 0.24 384.6875 48.2119)">
			</image>
			<g>
				<path class="st7" d="M392,54.6c0-0.5-0.2-0.6-0.6-0.6c-0.4,0-0.6,0.2-0.8,0.4v2.3h-0.9v-3.4h0.9v0.4c0.2-0.3,0.6-0.5,1.2-0.5
					c0.7,0,1.1,0.4,1.1,1.1v2.4H392V54.6z"/>
			</g>
		</g>
		<path class="st7" d="M396.1,56.2c-0.3,0.3-0.6,0.5-1,0.5c-0.9,0-1.5-0.6-1.5-1.8c0-1.1,0.6-1.8,1.5-1.8c0.4,0,0.8,0.2,1,0.5V52
			h0.9v4.7h-0.9V56.2z M396.1,54.4c-0.1-0.2-0.5-0.4-0.8-0.4c-0.5,0-0.9,0.4-0.9,1c0,0.6,0.4,1,0.9,1c0.3,0,0.6-0.2,0.8-0.4V54.4z"
			/>
		<path class="st7" d="M397.9,55.6c0.2,0.2,0.7,0.5,1.2,0.5c0.4,0,0.6-0.1,0.6-0.3c0-0.2-0.3-0.3-0.7-0.4c-0.6-0.1-1.3-0.3-1.3-1.1
			c0-0.6,0.5-1.1,1.4-1.1c0.6,0,1,0.2,1.4,0.5l-0.4,0.6c-0.2-0.2-0.6-0.4-1-0.4c-0.3,0-0.5,0.1-0.5,0.3c0,0.2,0.3,0.3,0.6,0.4
			c0.6,0.1,1.4,0.3,1.4,1.1c0,0.6-0.5,1.1-1.5,1.1c-0.6,0-1.2-0.2-1.5-0.5L397.9,55.6z"/>
	</g>
</g>
<g id="_x3C_Layer_x3E_">
</g>
</svg>
