<?xml version="1.0" encoding="utf-8"?>
<!-- Generator: Adobe Illustrator 19.1.0, SVG Export Plug-In . SVG Version: 6.00 Build 0)  -->
<svg version="1.1" xmlns="http://www.w3.org/2000/svg" xmlns:xlink="http://www.w3.org/1999/xlink" x="0px" y="0px"
	 viewBox="0 0 417.9 501.7" style="enable-background:new 0 0 417.9 501.7;" xml:space="preserve">
<style type="text/css">
	.st0{fill:#D8D8D8;}
	.st1{opacity:0.26;}
	.st2{fill:#2B2A2A;}
	.st3{fill:#3195AB;}
	.st4{fill:#EF4438;}
	.st5{fill:#80C342;}
	.st6{fill:#F9ED28;}
	.st7{fill:#FFFFFF;}
	.st8{fill:none;stroke:#EF4438;stroke-width:0.7222;stroke-miterlimit:10;}
	.st9{fill:#EAEAEA;}
	.st10{fill:#8E8E8E;}
	.st11{fill:#8E8E8E;stroke:#454545;stroke-width:5;stroke-miterlimit:10;}
	.st12{fill:#707071;stroke:#1E1E1E;stroke-miterlimit:10;}
	.st13{fill:none;stroke:#8E8E8E;stroke-miterlimit:10;}
	.st14{fill:none;stroke:#606161;stroke-miterlimit:10;}
	.st15{fill:none;stroke:#BF5F28;stroke-miterlimit:10;}
	.st16{fill:#1A345F;}
	.st17{fill:#60914A;}
	.st18{fill:#231F20;}
	.st19{fill:#515251;}
	.st20{fill:#253C7F;}
	.st21{fill:#353535;}
	.st22{fill:#213666;}
</style>
<g id="Layer_1">
	<g>
		<rect x="15.3" class="st0" width="402.2" height="36.3"/>
	</g>
	<g>
		<g class="st1">
			<line class="st2" x1="26.4" y1="47.4" x2="429" y2="47.4"/>
		</g>
		<g>
			<line class="st3" x1="15.3" y1="36.3" x2="417.9" y2="36.3"/>
		</g>
	</g>
	<circle class="st4" cx="411" cy="6.6" r="2.4"/>
	<circle class="st5" cx="395.7" cy="6.6" r="2.4"/>
	<circle class="st6" cx="403.5" cy="6.6" r="2.4"/>
	<path class="st7" d="M385.7,22.4H56.3c-0.8,0-1.4-0.6-1.4-1.4v-5c0-0.8,0.6-1.4,1.4-1.4h329.5c0.8,0,1.4,0.6,1.4,1.4v5
		C387.1,21.8,386.5,22.4,385.7,22.4z"/>
	<g>
		<g>
			<polygon class="st4" points="47.4,17.6 44.9,17.6 47.4,15.1 49.9,17.6 			"/>
			<rect x="45.4" y="17.6" class="st4" width="4" height="3.5"/>
			<rect x="46.8" y="19" class="st0" width="1.2" height="2.7"/>
			<rect x="48.5" y="15.3" class="st4" width="0.3" height="0.8"/>
		</g>
		<circle class="st8" cx="39.1" cy="18.3" r="2.8"/>
		<rect x="40.2" y="17" class="st0" width="3.5" height="2.5"/>
		<polygon class="st8" points="41.9,16.3 42,17.5 40.9,17.4 		"/>
		<rect x="27.6" y="18.1" class="st4" width="4.3" height="1"/>
		<path class="st4" d="M31.8,17.9l-0.9-1.3l3,1.9c0.1,0,0.1,0.1,0,0.2l-2.7,1.8l0.7-1.5"/>
		<rect x="21.4" y="18.1" class="st4" width="3.8" height="1"/>
		<path class="st4" d="M21.5,19.3l0.9,1.3l-3-1.9c-0.1,0-0.1-0.1,0-0.2l2.7-1.8l-0.7,1.5"/>
	</g>
	<line class="st9" x1="15.3" y1="36.3" x2="417.9" y2="36.3"/>
	<polygon class="st10" points="15.3,489.6 15.3,0 0,26.4 0.4,488.9 0.4,496.4 0,501.7 400.7,501.7 417.5,488.3 	"/>
	<path class="st11" d="M15.3,480.1"/>
	<path class="st12" d="M-38.4,478.8"/>
	<line class="st13" x1="416.9" y1="0" x2="416.9" y2="488.3"/>
	<rect x="-106.3" y="167" class="st14" width="2" height="0"/>
	<path class="st15" d="M16.8,54"/>
	<path class="st15" d="M-0.7,83.5"/>
	<polygon class="st16" points="0,96.5 15.3,67.8 15.2,36.7 0,60.5 	"/>
	<path class="st17" d="M299.2,365.9H132.8c-3.2,0-5.7-2.6-5.7-5.7V341c0-3.2,2.6-5.7,5.7-5.7h166.5c3.2,0,5.7,2.6,5.7,5.7v19.2
		C305,363.3,302.4,365.9,299.2,365.9z"/>
	<path class="st0" d="M204.9,245H94.1c-1.9,0-3.5-1.6-3.5-3.5v-14.6c0-1.9,1.6-3.5,3.5-3.5h110.7c1.9,0,3.5,1.6,3.5,3.5v14.6
		C208.4,243.4,206.8,245,204.9,245z"/>
	<path class="st0" d="M336.9,245H218.2c-1.9,0-3.5-1.6-3.5-3.5v-14.6c0-1.9,1.6-3.5,3.5-3.5h118.6c1.9,0,3.5,1.6,3.5,3.5v14.6
		C340.4,243.4,338.8,245,336.9,245z"/>
	<path class="st0" d="M336.9,274.3H94.1c-1.9,0-3.5-1.6-3.5-3.5v-14.6c0-1.9,1.6-3.5,3.5-3.5h242.7c1.9,0,3.5,1.6,3.5,3.5v14.6
		C340.4,272.8,338.8,274.3,336.9,274.3z"/>
	<path class="st0" d="M337.2,302H94.5c-1.9,0-3.5-1.6-3.5-3.5v-14.6c0-1.9,1.6-3.5,3.5-3.5h242.7c1.9,0,3.5,1.6,3.5,3.5v14.6
		C340.7,300.5,339.1,302,337.2,302z"/>
	<g>
		
			<image style="overflow:visible;opacity:0.55;" width="1090" height="590" xlink:href="FC242CFE.png"  transform="matrix(0.24 0 0 0.24 83.5269 162.7227)">
		</image>
		<g>
			<g>
				<path class="st18" d="M89.5,176c0-4.9,3.8-8.3,8.7-8.3c4.3,0,6.4,2.4,7.4,4.7l-4.2,1.9c-0.4-1.2-1.7-2.3-3.2-2.3
					c-2.2,0-3.8,1.8-3.8,4s1.6,4,3.8,4c1.6,0,2.8-1.1,3.2-2.3l4.2,1.9c-0.9,2.1-3.1,4.7-7.4,4.7C93.3,184.3,89.5,180.9,89.5,176z"/>
				<path class="st18" d="M107,172.4h4.3v1.3c0.7-0.8,2.2-1.6,3.6-1.6v4.1c-0.2-0.1-0.6-0.1-1-0.1c-0.9,0-2.1,0.2-2.6,0.8v7.1H107
					V172.4z"/>
				<path class="st18" d="M121.9,172.1c3.4,0,6,2.4,6,6.5v0.9h-7.9c0.2,0.7,1.1,1.5,2.5,1.5c1,0,2-0.4,2.6-0.8l1.8,2.7
					c-1.2,1-3.2,1.4-4.9,1.4c-3.6,0-6.5-2.3-6.5-6.1C115.6,174.8,118.2,172.1,121.9,172.1z M120,176.8h3.8c-0.1-0.5-0.5-1.4-1.9-1.4
					C120.6,175.4,120.2,176.3,120,176.8z"/>
				<path class="st18" d="M136.1,182.9c-0.6,0.8-2.1,1.4-3.5,1.4c-1.7,0-4-1.2-4-3.8c0-2.9,2.3-3.6,4-3.6c1.5,0,2.9,0.5,3.5,1.3
					v-1.3c0-0.8-0.7-1.4-2.2-1.4c-1.1,0-2.3,0.4-3.2,1.1l-1.5-2.7c1.6-1.2,3.7-1.8,5.5-1.8c2.9,0,5.7,1,5.7,4.9v7h-4.3V182.9z
					 M136.1,180.2c-0.3-0.4-1-0.6-1.7-0.6c-0.7,0-1.5,0.2-1.5,1c0,0.7,0.8,0.9,1.5,0.9c0.7,0,1.4-0.2,1.7-0.6V180.2z"/>
				<path class="st18" d="M143.7,180.6v-4.5h-1.9v-3.7h1.9v-3.2h4.3v3.2h2.4v3.7H148v3.2c0,0.6,0.4,1.1,1,1.1c0.4,0,0.8-0.1,0.9-0.2
					l0.8,3.3c-0.5,0.4-1.5,0.8-2.9,0.8C145.1,184.3,143.7,183.1,143.7,180.6z"/>
				<path class="st18" d="M157.5,172.1c3.4,0,6,2.4,6,6.5v0.9h-7.9c0.2,0.7,1.1,1.5,2.5,1.5c1,0,2-0.4,2.6-0.8l1.8,2.7
					c-1.2,1-3.2,1.4-4.9,1.4c-3.6,0-6.5-2.3-6.5-6.1C151.2,174.8,153.8,172.1,157.5,172.1z M155.6,176.8h3.8
					c-0.1-0.5-0.5-1.4-1.9-1.4C156.2,175.4,155.8,176.3,155.6,176.8z"/>
				<path class="st18" d="M177.8,182.9c-0.6,0.8-2.1,1.4-3.5,1.4c-1.7,0-4-1.2-4-3.8c0-2.9,2.3-3.6,4-3.6c1.5,0,2.9,0.5,3.5,1.3
					v-1.3c0-0.8-0.7-1.4-2.2-1.4c-1.1,0-2.3,0.4-3.2,1.1l-1.5-2.7c1.6-1.2,3.7-1.8,5.5-1.8c2.9,0,5.7,1,5.7,4.9v7h-4.3V182.9z
					 M177.8,180.2c-0.3-0.4-1-0.6-1.7-0.6c-0.7,0-1.5,0.2-1.5,1c0,0.7,0.8,0.9,1.5,0.9c0.7,0,1.4-0.2,1.7-0.6V180.2z"/>
				<path class="st18" d="M195.6,175.4v8.6h-4.8v-16h5l5.6,8.1V168h4.8v16h-4.7L195.6,175.4z"/>
				<path class="st18" d="M214.2,172.1c3.4,0,6,2.4,6,6.5v0.9h-7.9c0.2,0.7,1.1,1.5,2.5,1.5c1,0,2-0.4,2.6-0.8l1.8,2.7
					c-1.2,1-3.2,1.4-4.9,1.4c-3.6,0-6.5-2.3-6.5-6.1C207.9,174.8,210.5,172.1,214.2,172.1z M212.3,176.8h3.8
					c-0.1-0.5-0.5-1.4-1.9-1.4C212.9,175.4,212.5,176.3,212.3,176.8z"/>
				<path class="st18" d="M230.2,177.5l-1.9,6.5h-4.7l-3.4-11.6h4.4l1.5,6.4l2-6.4h3.9l2,6.4l1.5-6.4h4.5l-3.4,11.6h-4.7
					L230.2,177.5z"/>
				<path class="st18" d="M257.5,181.9h-6.1l-0.6,2.1h-5.3l5.9-16h6.1l5.9,16h-5.3L257.5,181.9z M252.7,177.9h3.6l-1.8-5.6
					L252.7,177.9z"/>
				<path class="st18" d="M269.9,172.1c2.6,0,4.3,1.2,4.9,2.2l-2.8,2.6c-0.4-0.6-1-1-1.9-1c-1.2,0-2.3,0.8-2.3,2.3
					c0,1.5,1.1,2.3,2.3,2.3c0.9,0,1.6-0.5,1.9-1l2.8,2.6c-0.6,1-2.3,2.2-4.9,2.2c-3.7,0-6.5-2.4-6.5-6.1
					C263.4,174.5,266.2,172.1,269.9,172.1z"/>
				<path class="st18" d="M282,172.1c2.6,0,4.3,1.2,4.9,2.2l-2.8,2.6c-0.4-0.6-1-1-1.9-1c-1.2,0-2.3,0.8-2.3,2.3
					c0,1.5,1.1,2.3,2.3,2.3c0.9,0,1.6-0.5,1.9-1l2.8,2.6c-0.6,1-2.3,2.2-4.9,2.2c-3.7,0-6.5-2.4-6.5-6.1
					C275.5,174.5,278.3,172.1,282,172.1z"/>
				<path class="st18" d="M287.5,178.2c0-3.2,2.4-6.1,6.5-6.1c4.1,0,6.5,2.8,6.5,6.1s-2.4,6.1-6.5,6.1
					C289.9,184.3,287.5,181.4,287.5,178.2z M296.1,178.2c0-1.3-0.7-2.3-2.1-2.3c-1.3,0-2.1,1-2.1,2.3c0,1.3,0.7,2.3,2.1,2.3
					C295.3,180.5,296.1,179.5,296.1,178.2z"/>
				<path class="st18" d="M310,182.7c-0.7,0.7-1.9,1.6-4,1.6c-2.7,0-3.8-1.6-3.8-3.6v-8.3h4.3v6.4c0,1.2,0.6,1.6,1.7,1.6
					c1,0,1.5-0.5,1.8-0.9v-7.2h4.3V184H310V182.7z"/>
				<path class="st18" d="M324.5,177.6c0-1.2-0.6-1.7-1.7-1.7c-1,0-1.5,0.5-1.8,0.9v7.2h-4.3v-11.6h4.3v1.3c0.7-0.8,1.9-1.6,4-1.6
					c2.7,0,3.9,1.6,3.9,3.6v8.2h-4.3V177.6z"/>
				<path class="st18" d="M332.1,180.6v-4.5h-1.9v-3.7h1.9v-3.2h4.3v3.2h2.4v3.7h-2.4v3.2c0,0.6,0.4,1.1,1,1.1
					c0.4,0,0.8-0.1,0.9-0.2l0.8,3.3c-0.5,0.4-1.5,0.8-2.9,0.8C333.6,184.3,332.1,183.1,332.1,180.6z"/>
				<path class="st19" d="M98.8,230.7h4.7v0.6h-4v2.7h3.9v0.6h-3.9v3.5h-0.6V230.7z"/>
				<path class="st19" d="M104.6,231.3c0-0.2,0.2-0.4,0.4-0.4c0.2,0,0.4,0.2,0.4,0.4s-0.2,0.4-0.4,0.4
					C104.8,231.8,104.6,231.6,104.6,231.3z M104.7,232.7h0.6v5.3h-0.6V232.7z"/>
				<path class="st19" d="M107.1,232.7h0.6v0.9c0.5-0.6,1.1-1,1.8-1v0.6c-0.1,0-0.2,0-0.3,0c-0.5,0-1.3,0.5-1.5,0.9v3.9h-0.6V232.7z
					"/>
				<path class="st19" d="M110.5,236.9c0.3,0.4,1,0.8,1.7,0.8c0.9,0,1.4-0.4,1.4-1.1c0-0.7-0.7-0.9-1.5-1.1
					c-0.9-0.2-1.9-0.5-1.9-1.5c0-0.8,0.7-1.5,1.9-1.5c0.9,0,1.5,0.4,1.9,0.8l-0.3,0.4c-0.3-0.4-0.9-0.7-1.6-0.7
					c-0.8,0-1.3,0.4-1.3,1c0,0.6,0.7,0.8,1.4,1c0.9,0.2,1.9,0.5,1.9,1.6c0,0.9-0.7,1.6-2,1.6c-0.9,0-1.5-0.3-2-0.8L110.5,236.9z"/>
				<path class="st19" d="M115.7,237v-3.8h-0.9v-0.5h0.9v-1.5h0.6v1.5h1.1v0.5h-1.1v3.7c0,0.4,0.2,0.7,0.5,0.7
					c0.3,0,0.5-0.1,0.6-0.3l0.2,0.4c-0.2,0.2-0.5,0.3-0.9,0.3C116.1,238.1,115.7,237.7,115.7,237z"/>
				<path class="st19" d="M125.1,234.4c0-1-0.5-1.3-1.3-1.3c-0.7,0-1.4,0.4-1.7,0.9v4h-0.6v-5.3h0.6v0.8c0.4-0.5,1.1-0.9,1.9-0.9
					c1.1,0,1.7,0.5,1.7,1.7v3.7h-0.6V234.4z"/>
				<path class="st19" d="M130.8,237.4c-0.5,0.5-1.1,0.8-1.8,0.8c-0.9,0-1.9-0.6-1.9-1.8c0-1.2,0.9-1.8,1.9-1.8
					c0.7,0,1.3,0.2,1.8,0.8v-1.1c0-0.8-0.6-1.2-1.4-1.2c-0.7,0-1.2,0.2-1.7,0.8l-0.3-0.4c0.6-0.6,1.2-0.9,2-0.9
					c1.1,0,1.9,0.5,1.9,1.7v3.7h-0.6V237.4z M130.8,235.8c-0.4-0.5-1-0.7-1.6-0.7c-0.9,0-1.5,0.6-1.5,1.3c0,0.7,0.6,1.3,1.5,1.3
					c0.6,0,1.2-0.2,1.6-0.7V235.8z"/>
				<path class="st19" d="M139.5,234.3c0-0.7-0.3-1.2-1.1-1.2c-0.6,0-1.2,0.4-1.5,0.9v4h-0.6v-3.7c0-0.7-0.3-1.2-1.1-1.2
					c-0.6,0-1.2,0.4-1.5,0.9v4h-0.6v-5.3h0.6v0.8c0.2-0.3,0.9-0.9,1.7-0.9c0.8,0,1.3,0.5,1.4,1c0.3-0.5,1-1,1.8-1
					c1,0,1.5,0.5,1.5,1.6v3.8h-0.6V234.3z"/>
				<path class="st19" d="M144.1,232.6c1.6,0,2.5,1.3,2.5,2.8v0.2h-4.4c0.1,1.2,0.8,2.1,2.1,2.1c0.7,0,1.3-0.3,1.7-0.7l0.3,0.4
					c-0.5,0.6-1.2,0.9-2.1,0.9c-1.6,0-2.7-1.2-2.7-2.8C141.5,233.8,142.6,232.6,144.1,232.6z M142.2,235.1h3.9c0-0.9-0.6-2-1.9-2
					C142.8,233,142.2,234.1,142.2,235.1z"/>
				<path class="st19" d="M222.2,230.7h0.6v6.8h3.6v0.6h-4.2V230.7z"/>
				<path class="st19" d="M230.9,237.4c-0.5,0.5-1.1,0.8-1.8,0.8c-0.9,0-1.9-0.6-1.9-1.8c0-1.2,0.9-1.8,1.9-1.8
					c0.7,0,1.3,0.2,1.8,0.8v-1.1c0-0.8-0.6-1.2-1.4-1.2c-0.7,0-1.2,0.2-1.7,0.8l-0.3-0.4c0.5-0.6,1.2-0.9,2-0.9
					c1.1,0,1.9,0.5,1.9,1.7v3.7h-0.6V237.4z M230.9,235.8c-0.4-0.5-1-0.7-1.6-0.7c-0.9,0-1.5,0.6-1.5,1.3c0,0.7,0.6,1.3,1.5,1.3
					c0.6,0,1.2-0.2,1.6-0.7V235.8z"/>
				<path class="st19" d="M233.1,236.9c0.3,0.4,1,0.8,1.7,0.8c0.9,0,1.4-0.4,1.4-1.1c0-0.7-0.7-0.9-1.5-1.1
					c-0.9-0.2-1.9-0.5-1.9-1.5c0-0.8,0.7-1.5,1.9-1.5c0.9,0,1.5,0.4,1.9,0.8l-0.3,0.4c-0.3-0.4-0.9-0.7-1.6-0.7
					c-0.8,0-1.3,0.4-1.3,1c0,0.6,0.7,0.8,1.4,1c0.9,0.2,1.9,0.5,1.9,1.6c0,0.9-0.7,1.6-2,1.6c-0.9,0-1.5-0.3-2-0.8L233.1,236.9z"/>
				<path class="st19" d="M238.4,237v-3.8h-0.9v-0.5h0.9v-1.5h0.6v1.5h1.1v0.5H239v3.7c0,0.4,0.2,0.7,0.6,0.7c0.3,0,0.5-0.1,0.6-0.3
					l0.2,0.4c-0.2,0.2-0.5,0.3-0.9,0.3C238.7,238.1,238.4,237.7,238.4,237z"/>
				<path class="st19" d="M247.8,234.4c0-1-0.5-1.3-1.3-1.3c-0.7,0-1.4,0.4-1.7,0.9v4h-0.6v-5.3h0.6v0.8c0.4-0.5,1.1-0.9,1.9-0.9
					c1.1,0,1.7,0.5,1.7,1.7v3.7h-0.6V234.4z"/>
				<path class="st19" d="M253.5,237.4c-0.5,0.5-1.1,0.8-1.8,0.8c-0.9,0-1.9-0.6-1.9-1.8c0-1.2,0.9-1.8,1.9-1.8
					c0.7,0,1.3,0.2,1.8,0.8v-1.1c0-0.8-0.6-1.2-1.4-1.2c-0.7,0-1.2,0.2-1.7,0.8l-0.3-0.4c0.5-0.6,1.2-0.9,2-0.9
					c1.1,0,1.9,0.5,1.9,1.7v3.7h-0.6V237.4z M253.5,235.8c-0.4-0.5-1-0.7-1.6-0.7c-0.9,0-1.5,0.6-1.5,1.3c0,0.7,0.6,1.3,1.5,1.3
					c0.6,0,1.2-0.2,1.6-0.7V235.8z"/>
				<path class="st19" d="M262.2,234.3c0-0.7-0.3-1.2-1.1-1.2c-0.6,0-1.2,0.4-1.5,0.9v4H259v-3.7c0-0.7-0.3-1.2-1.1-1.2
					c-0.6,0-1.2,0.4-1.5,0.9v4h-0.6v-5.3h0.6v0.8c0.2-0.3,0.9-0.9,1.7-0.9c0.8,0,1.3,0.5,1.4,1c0.3-0.5,1-1,1.8-1
					c1,0,1.5,0.5,1.5,1.6v3.8h-0.6V234.3z"/>
				<path class="st19" d="M266.8,232.6c1.6,0,2.5,1.3,2.5,2.8v0.2h-4.4c0.1,1.2,0.8,2.1,2.1,2.1c0.7,0,1.3-0.3,1.7-0.7l0.3,0.4
					c-0.5,0.6-1.2,0.9-2.1,0.9c-1.6,0-2.7-1.2-2.7-2.8C264.2,233.8,265.3,232.6,266.8,232.6z M264.8,235.1h3.9c0-0.9-0.6-2-1.9-2
					C265.5,233,264.9,234.1,264.8,235.1z"/>
				<path class="st19" d="M105,260.7l-2.7,6.5h-0.2l-2.7-6.5v6.5h-0.6v-7.3h0.9l2.5,6.1l2.5-6.1h0.9v7.3H105V260.7z"/>
				<path class="st19" d="M107.2,264.5c0-1.6,1-2.8,2.6-2.8c1.6,0,2.6,1.2,2.6,2.8c0,1.6-1,2.8-2.6,2.8
					C108.2,267.3,107.2,266.1,107.2,264.5z M111.7,264.5c0-1.2-0.7-2.3-1.9-2.3c-1.2,0-1.9,1.1-1.9,2.3c0,1.2,0.7,2.3,1.9,2.3
					C111,266.8,111.7,265.7,111.7,264.5z"/>
				<path class="st19" d="M113.7,259.9h0.6v2.9c0.4-0.6,1.1-1,1.8-1c1.4,0,2.4,1.1,2.4,2.8c0,1.7-1,2.8-2.4,2.8
					c-0.8,0-1.5-0.4-1.8-1v0.8h-0.6V259.9z M116.1,266.8c1.2,0,1.9-1,1.9-2.3s-0.7-2.3-1.9-2.3c-0.7,0-1.4,0.5-1.7,1v2.6
					C114.6,266.4,115.3,266.8,116.1,266.8z"/>
				<path class="st19" d="M119.9,260.5c0-0.2,0.2-0.4,0.4-0.4c0.2,0,0.4,0.2,0.4,0.4s-0.2,0.4-0.4,0.4
					C120.1,261,119.9,260.8,119.9,260.5z M120,261.9h0.6v5.3H120V261.9z"/>
				<path class="st19" d="M122.4,259.9h0.6v7.3h-0.6V259.9z"/>
				<path class="st19" d="M127,261.8c1.6,0,2.5,1.3,2.5,2.8v0.2h-4.4c0.1,1.2,0.8,2.1,2.1,2.1c0.7,0,1.3-0.3,1.7-0.7l0.3,0.4
					c-0.5,0.6-1.2,0.9-2.1,0.9c-1.6,0-2.7-1.2-2.7-2.8C124.4,263,125.5,261.8,127,261.8z M125.1,264.3h3.9c0-0.9-0.6-2-1.9-2
					C125.7,262.2,125.1,263.3,125.1,264.3z"/>
				<path class="st19" d="M137.4,263.6c0-1-0.5-1.3-1.3-1.3c-0.7,0-1.4,0.4-1.7,0.9v4h-0.6v-5.3h0.6v0.8c0.4-0.5,1.1-0.9,1.9-0.9
					c1.1,0,1.7,0.5,1.7,1.7v3.7h-0.6V263.6z"/>
				<path class="st19" d="M143.3,266.4c-0.4,0.5-1.1,0.9-1.9,0.9c-1.1,0-1.7-0.5-1.7-1.7v-3.7h0.6v3.6c0,1,0.5,1.3,1.3,1.3
					c0.7,0,1.4-0.4,1.7-0.9v-4h0.6v5.3h-0.6V266.4z"/>
				<path class="st19" d="M152,263.5c0-0.7-0.3-1.2-1.1-1.2c-0.6,0-1.2,0.4-1.5,0.9v4h-0.6v-3.7c0-0.7-0.3-1.2-1.1-1.2
					c-0.6,0-1.2,0.4-1.5,0.9v4h-0.6v-5.3h0.6v0.8c0.2-0.3,0.9-0.9,1.7-0.9c0.8,0,1.3,0.5,1.4,1c0.3-0.5,1-1,1.8-1
					c1,0,1.5,0.5,1.5,1.6v3.8H152V263.5z"/>
				<path class="st19" d="M154.4,259.9h0.6v2.9c0.4-0.6,1.1-1,1.8-1c1.4,0,2.4,1.1,2.4,2.8c0,1.7-1,2.8-2.4,2.8
					c-0.8,0-1.5-0.4-1.8-1v0.8h-0.6V259.9z M156.7,266.8c1.2,0,1.9-1,1.9-2.3s-0.7-2.3-1.9-2.3c-0.7,0-1.4,0.5-1.7,1v2.6
					C155.3,266.4,156,266.8,156.7,266.8z"/>
				<path class="st19" d="M162.9,261.8c1.6,0,2.5,1.3,2.5,2.8v0.2H161c0.1,1.2,0.8,2.1,2.1,2.1c0.7,0,1.3-0.3,1.7-0.7l0.3,0.4
					c-0.5,0.6-1.2,0.9-2.1,0.9c-1.6,0-2.7-1.2-2.7-2.8C160.4,263,161.4,261.8,162.9,261.8z M161,264.3h3.9c0-0.9-0.6-2-1.9-2
					C161.6,262.2,161,263.3,161,264.3z"/>
				<path class="st19" d="M166.9,261.9h0.6v0.9c0.5-0.6,1.1-1,1.8-1v0.6c-0.1,0-0.2,0-0.3,0c-0.5,0-1.3,0.5-1.5,0.9v3.9h-0.6V261.9z
					"/>
				<path class="st19" d="M172.9,264.5c0-1.6,1-2.8,2.6-2.8c1.6,0,2.6,1.2,2.6,2.8c0,1.6-1,2.8-2.6,2.8
					C173.9,267.3,172.9,266.1,172.9,264.5z M177.4,264.5c0-1.2-0.7-2.3-1.9-2.3c-1.2,0-1.9,1.1-1.9,2.3c0,1.2,0.7,2.3,1.9,2.3
					C176.7,266.8,177.4,265.7,177.4,264.5z"/>
				<path class="st19" d="M179.5,261.9h0.6v0.9c0.5-0.6,1.1-1,1.8-1v0.6c-0.1,0-0.2,0-0.3,0c-0.5,0-1.3,0.5-1.5,0.9v3.9h-0.6V261.9z
					"/>
				<path class="st19" d="M188.1,261.8c1.6,0,2.5,1.3,2.5,2.8v0.2h-4.4c0.1,1.2,0.8,2.1,2.1,2.1c0.7,0,1.3-0.3,1.7-0.7l0.3,0.4
					c-0.5,0.6-1.2,0.9-2.1,0.9c-1.6,0-2.7-1.2-2.7-2.8C185.5,263,186.6,261.8,188.1,261.8z M186.2,264.3h3.9c0-0.9-0.6-2-1.9-2
					C186.8,262.2,186.2,263.3,186.2,264.3z"/>
				<path class="st19" d="M198.4,263.5c0-0.7-0.3-1.2-1.1-1.2c-0.6,0-1.2,0.4-1.5,0.9v4h-0.6v-3.7c0-0.7-0.3-1.2-1.1-1.2
					c-0.6,0-1.2,0.4-1.5,0.9v4h-0.6v-5.3h0.6v0.8c0.2-0.3,0.9-0.9,1.7-0.9c0.8,0,1.3,0.5,1.4,1c0.3-0.5,1-1,1.8-1
					c1,0,1.5,0.5,1.5,1.6v3.8h-0.6V263.5z"/>
				<path class="st19" d="M204.1,266.6c-0.5,0.5-1.1,0.8-1.8,0.8c-0.9,0-1.9-0.6-1.9-1.8c0-1.2,0.9-1.8,1.9-1.8
					c0.7,0,1.3,0.2,1.8,0.8v-1.1c0-0.8-0.6-1.2-1.4-1.2c-0.7,0-1.2,0.2-1.7,0.8l-0.3-0.4c0.5-0.6,1.2-0.9,2-0.9
					c1.1,0,1.9,0.5,1.9,1.7v3.7h-0.6V266.6z M204.1,265c-0.4-0.5-1-0.7-1.6-0.7c-0.9,0-1.5,0.6-1.5,1.3c0,0.7,0.6,1.3,1.5,1.3
					c0.6,0,1.2-0.2,1.6-0.7V265z"/>
				<path class="st19" d="M206.3,260.5c0-0.2,0.2-0.4,0.4-0.4c0.2,0,0.4,0.2,0.4,0.4s-0.2,0.4-0.4,0.4
					C206.5,261,206.3,260.8,206.3,260.5z M206.5,261.9h0.6v5.3h-0.6V261.9z"/>
				<path class="st19" d="M208.8,259.9h0.6v7.3h-0.6V259.9z"/>
				<path class="st19" d="M99.4,288.9v6.3h-0.6v-7.3h0.6l4.6,6.2v-6.2h0.6v7.3H104L99.4,288.9z"/>
				<path class="st19" d="M108.7,289.8c1.6,0,2.5,1.3,2.5,2.8v0.2h-4.4c0.1,1.2,0.8,2.1,2.1,2.1c0.7,0,1.3-0.3,1.7-0.7l0.3,0.4
					c-0.5,0.6-1.2,0.9-2.1,0.9c-1.6,0-2.7-1.2-2.7-2.8C106.2,291,107.2,289.8,108.7,289.8z M106.8,292.3h3.9c0-0.9-0.6-2-1.9-2
					C107.5,290.2,106.8,291.3,106.8,292.3z"/>
				<path class="st19" d="M115.8,290.7l-1.5,4.5h-0.6l-1.7-5.3h0.6l1.4,4.5l1.5-4.5h0.5l1.5,4.5l1.4-4.5h0.6l-1.7,5.3h-0.6
					L115.8,290.7z"/>
				<path class="st19" d="M123.5,297.2v-7.3h0.6v0.8c0.4-0.5,1.1-1,1.8-1c1.4,0,2.4,1.1,2.4,2.8c0,1.7-1,2.8-2.4,2.8
					c-0.7,0-1.4-0.4-1.8-1v2.9H123.5z M125.8,290.3c-0.7,0-1.4,0.4-1.7,0.9v2.6c0.3,0.5,1,1,1.7,1c1.2,0,1.9-1,1.9-2.3
					S127,290.3,125.8,290.3z"/>
				<path class="st19" d="M133.1,294.6c-0.5,0.5-1.1,0.8-1.8,0.8c-0.9,0-1.9-0.6-1.9-1.8c0-1.2,0.9-1.8,1.9-1.8
					c0.7,0,1.3,0.2,1.8,0.8v-1.1c0-0.8-0.6-1.2-1.4-1.2c-0.7,0-1.2,0.2-1.7,0.8l-0.3-0.4c0.6-0.6,1.2-0.9,2-0.9
					c1.1,0,1.9,0.5,1.9,1.7v3.7h-0.6V294.6z M133.1,293c-0.4-0.5-1-0.7-1.6-0.7c-0.9,0-1.5,0.6-1.5,1.3c0,0.7,0.6,1.3,1.5,1.3
					c0.6,0,1.2-0.2,1.6-0.7V293z"/>
				<path class="st19" d="M135.3,294.1c0.3,0.4,1,0.8,1.7,0.8c0.9,0,1.4-0.4,1.4-1.1c0-0.7-0.7-0.9-1.5-1.1
					c-0.9-0.2-1.9-0.5-1.9-1.5c0-0.8,0.7-1.5,1.9-1.5c0.9,0,1.5,0.4,1.9,0.8l-0.3,0.4c-0.3-0.4-0.9-0.7-1.6-0.7
					c-0.8,0-1.3,0.4-1.3,1c0,0.6,0.7,0.8,1.4,1c0.9,0.2,1.9,0.5,1.9,1.6c0,0.9-0.7,1.6-2,1.6c-0.9,0-1.5-0.3-2-0.8L135.3,294.1z"/>
				<path class="st19" d="M140.4,294.1c0.3,0.4,1,0.8,1.7,0.8c0.9,0,1.4-0.4,1.4-1.1c0-0.7-0.7-0.9-1.5-1.1
					c-0.9-0.2-1.9-0.5-1.9-1.5c0-0.8,0.7-1.5,1.9-1.5c0.9,0,1.5,0.4,1.9,0.8l-0.3,0.4c-0.3-0.4-0.9-0.7-1.6-0.7
					c-0.8,0-1.3,0.4-1.3,1c0,0.6,0.7,0.8,1.4,1c0.9,0.2,1.9,0.5,1.9,1.6c0,0.9-0.7,1.6-2,1.6c-0.9,0-1.5-0.3-2-0.8L140.4,294.1z"/>
				<path class="st19" d="M148.6,290.7l-1.5,4.5h-0.6l-1.7-5.3h0.6l1.4,4.5l1.5-4.5h0.5l1.5,4.5l1.4-4.5h0.6l-1.7,5.3h-0.6
					L148.6,290.7z"/>
				<path class="st19" d="M153.2,292.5c0-1.6,1-2.8,2.6-2.8c1.6,0,2.6,1.2,2.6,2.8c0,1.6-1,2.8-2.6,2.8
					C154.2,295.3,153.2,294.1,153.2,292.5z M157.7,292.5c0-1.2-0.7-2.3-1.9-2.3c-1.2,0-1.9,1.1-1.9,2.3c0,1.2,0.7,2.3,1.9,2.3
					C157,294.8,157.7,293.7,157.7,292.5z"/>
				<path class="st19" d="M159.7,289.9h0.6v0.9c0.5-0.6,1.1-1,1.8-1v0.6c-0.1,0-0.2,0-0.3,0c-0.5,0-1.3,0.5-1.5,0.9v3.9h-0.6V289.9z
					"/>
				<path class="st19" d="M167.1,294.3c-0.4,0.5-1.1,1-1.8,1c-1.4,0-2.4-1.1-2.4-2.8c0-1.7,1-2.8,2.4-2.8c0.8,0,1.4,0.4,1.8,1v-2.9
					h0.6v7.3h-0.6V294.3z M167.1,291.2c-0.3-0.5-1-1-1.7-1c-1.2,0-1.9,1-1.9,2.3s0.7,2.3,1.9,2.3c0.7,0,1.4-0.4,1.7-0.9V291.2z"/>
			</g>
		</g>
	</g>
</g>
<g id="objects">
	<rect x="15.2" y="36.7" class="st20" width="402.3" height="31.5"/>
	<path class="st21" d="M22.2,139"/>
	<path class="st21" d="M424.8,139"/>
	<g>
		
			<image style="overflow:visible;opacity:0.55;" width="514" height="113" xlink:href="FC242CF9.png"  transform="matrix(0.24 0 0 0.24 26.0693 40.2402)">
		</image>
		<g>
			<g>
				<path class="st7" d="M32.1,45.2h11.1v3.7h-6.7v1.7H43v3.7h-6.5v5.6h-4.4V45.2z"/>
				<path class="st7" d="M50.1,49c3.1,0,5.5,2.2,5.5,6v0.8h-7.2c0.2,0.7,1,1.3,2.3,1.3c0.9,0,1.9-0.3,2.4-0.7l1.6,2.4
					c-1.1,0.9-2.9,1.3-4.5,1.3c-3.3,0-5.9-2.1-5.9-5.6C44.3,51.5,46.6,49,50.1,49z M48.3,53.3h3.5c-0.1-0.5-0.5-1.3-1.8-1.3
					C48.9,52,48.5,52.8,48.3,53.3z"/>
				<path class="st7" d="M64.1,54c0-1.1-0.6-1.5-1.5-1.5c-0.9,0-1.4,0.5-1.7,0.8v6.6h-4V49.3h4v1.2c0.6-0.7,1.8-1.5,3.7-1.5
					c2.5,0,3.5,1.5,3.5,3.3v7.5h-4V54z"/>
				<path class="st7" d="M75.5,49c2.4,0,3.9,1.1,4.5,2l-2.6,2.4c-0.3-0.5-0.9-0.9-1.8-0.9c-1.1,0-2.1,0.7-2.1,2.1s1,2.1,2.1,2.1
					c0.8,0,1.5-0.4,1.8-0.9l2.6,2.4c-0.6,0.9-2.1,2-4.5,2c-3.4,0-6-2.2-6-5.6C69.6,51.2,72.2,49,75.5,49z"/>
				<path class="st7" d="M86.4,49c3.1,0,5.5,2.2,5.5,6v0.8h-7.2c0.2,0.7,1,1.3,2.3,1.3c0.9,0,1.9-0.3,2.4-0.7l1.6,2.4
					c-1.1,0.9-2.9,1.3-4.5,1.3c-3.3,0-5.9-2.1-5.9-5.6C80.6,51.5,83,49,86.4,49z M84.7,53.3h3.5c-0.1-0.5-0.5-1.3-1.8-1.3
					C85.2,52,84.8,52.8,84.7,53.3z"/>
				<path class="st7" d="M93.3,45.2h4v5.2c0.8-1,1.9-1.4,3-1.4c2.6,0,4.7,2,4.7,5.6c0,3.7-2.1,5.6-4.7,5.6c-1.1,0-2.1-0.4-3-1.4v1.1
					h-4V45.2z M98.9,56.7c1.1,0,2-0.7,2-2.1c0-1.3-0.9-2.1-2-2.1c-0.5,0-1.3,0.3-1.7,0.7V56C97.6,56.4,98.4,56.7,98.9,56.7z"/>
				<path class="st7" d="M105.7,54.6c0-3,2.2-5.6,6-5.6c3.8,0,6,2.6,6,5.6c0,3-2.2,5.6-6,5.6C107.9,60.2,105.7,57.6,105.7,54.6z
					 M113.6,54.6c0-1.2-0.7-2.1-1.9-2.1c-1.2,0-1.9,0.9-1.9,2.1c0,1.2,0.7,2.1,1.9,2.1C112.9,56.7,113.6,55.8,113.6,54.6z"/>
				<path class="st7" d="M118.4,54.6c0-3,2.2-5.6,6-5.6c3.8,0,6,2.6,6,5.6c0,3-2.2,5.6-6,5.6C120.6,60.2,118.4,57.6,118.4,54.6z
					 M126.3,54.6c0-1.2-0.7-2.1-1.9-2.1c-1.2,0-1.9,0.9-1.9,2.1c0,1.2,0.7,2.1,1.9,2.1C125.6,56.7,126.3,55.8,126.3,54.6z"/>
				<path class="st7" d="M136.5,56.5l-0.8,1v2.4h-4V45.2h4v7.8l2.4-3.8h4.8l-3.7,4.8l3.9,5.8h-4.9L136.5,56.5z"/>
			</g>
		</g>
	</g>
	<g>
		
			<image style="overflow:visible;opacity:0.55;" width="593" height="102" xlink:href="FC242CFB.png"  transform="matrix(0.24 0 0 0.24 143.9575 338.625)">
		</image>
		<g>
			<g>
				<path class="st7" d="M150,349.8c0-3.7,2.8-6.2,6.5-6.2c3.2,0,4.8,1.8,5.5,3.5l-3.1,1.5c-0.3-0.9-1.2-1.7-2.4-1.7
					c-1.7,0-2.8,1.3-2.8,3c0,1.7,1.2,3,2.8,3c1.2,0,2.1-0.8,2.4-1.7l3.1,1.4c-0.7,1.6-2.3,3.5-5.5,3.5
					C152.8,356,150,353.5,150,349.8z"/>
				<path class="st7" d="M163.1,347.1h3.2v1c0.5-0.6,1.7-1.2,2.7-1.2v3.1c-0.2-0.1-0.4-0.1-0.7-0.1c-0.7,0-1.6,0.2-1.9,0.6v5.3h-3.2
					V347.1z"/>
				<path class="st7" d="M174.2,346.9c2.6,0,4.5,1.8,4.5,4.9v0.7h-5.9c0.2,0.6,0.8,1.1,1.9,1.1c0.7,0,1.5-0.3,2-0.6l1.3,2
					c-0.9,0.7-2.4,1.1-3.7,1.1c-2.7,0-4.8-1.7-4.8-4.6C169.5,349,171.4,346.9,174.2,346.9z M172.8,350.4h2.9c-0.1-0.4-0.4-1-1.4-1
					C173.3,349.4,172.9,350,172.8,350.4z"/>
				<path class="st7" d="M184.9,355c-0.5,0.6-1.5,1-2.6,1c-1.3,0-3-0.9-3-2.9c0-2.2,1.7-2.7,3-2.7c1.1,0,2.2,0.4,2.6,1v-1
					c0-0.6-0.6-1.1-1.6-1.1c-0.8,0-1.7,0.3-2.4,0.8l-1.1-2c1.2-0.9,2.8-1.3,4.1-1.3c2.2,0,4.3,0.8,4.3,3.7v5.3h-3.2V355z M184.9,353
					c-0.2-0.3-0.8-0.5-1.3-0.5c-0.5,0-1.1,0.2-1.1,0.7s0.6,0.7,1.1,0.7c0.5,0,1.1-0.2,1.3-0.5V353z"/>
				<path class="st7" d="M190.6,353.3v-3.4h-1.4v-2.8h1.4v-2.4h3.2v2.4h1.8v2.8h-1.8v2.4c0,0.5,0.3,0.8,0.7,0.8
					c0.3,0,0.6-0.1,0.6-0.2l0.6,2.4c-0.3,0.3-1.1,0.6-2.2,0.6C191.7,356,190.6,355.1,190.6,353.3z"/>
				<path class="st7" d="M201,346.9c2.6,0,4.5,1.8,4.5,4.9v0.7h-5.9c0.2,0.6,0.8,1.1,1.9,1.1c0.7,0,1.5-0.3,2-0.6l1.3,2
					c-0.9,0.7-2.4,1.1-3.7,1.1c-2.7,0-4.8-1.7-4.8-4.6C196.2,349,198.1,346.9,201,346.9z M199.5,350.4h2.9c-0.1-0.4-0.4-1-1.4-1
					C200,349.4,199.6,350,199.5,350.4z"/>
				<path class="st7" d="M219,354.3h-4.6l-0.5,1.5H210l4.4-12h4.6l4.4,12h-3.9L219,354.3z M215.3,351.3h2.7l-1.4-4.2L215.3,351.3z"
					/>
				<path class="st7" d="M228.2,346.9c2,0,3.2,0.9,3.7,1.6l-2.1,2c-0.3-0.4-0.8-0.7-1.5-0.7c-0.9,0-1.7,0.6-1.7,1.7
					c0,1.1,0.8,1.7,1.7,1.7c0.7,0,1.2-0.4,1.5-0.8l2.1,2c-0.5,0.7-1.7,1.6-3.7,1.6c-2.8,0-4.9-1.8-4.9-4.6
					C223.4,348.7,225.5,346.9,228.2,346.9z"/>
				<path class="st7" d="M237.3,346.9c2,0,3.2,0.9,3.7,1.6l-2.1,2c-0.3-0.4-0.8-0.7-1.5-0.7c-0.9,0-1.7,0.6-1.7,1.7
					c0,1.1,0.8,1.7,1.7,1.7c0.7,0,1.2-0.4,1.5-0.8l2.1,2c-0.5,0.7-1.7,1.6-3.7,1.6c-2.8,0-4.9-1.8-4.9-4.6
					C232.4,348.7,234.5,346.9,237.3,346.9z"/>
				<path class="st7" d="M241.4,351.5c0-2.4,1.8-4.6,4.9-4.6c3.1,0,4.9,2.1,4.9,4.6s-1.8,4.6-4.9,4.6
					C243.2,356,241.4,353.9,241.4,351.5z M247.9,351.5c0-1-0.6-1.7-1.6-1.7c-1,0-1.5,0.7-1.5,1.7c0,1,0.6,1.7,1.5,1.7
					C247.3,353.2,247.9,352.4,247.9,351.5z"/>
				<path class="st7" d="M258.3,354.9c-0.5,0.6-1.5,1.2-3,1.2c-2,0-2.9-1.2-2.9-2.7v-6.2h3.2v4.8c0,0.9,0.5,1.2,1.3,1.2
					c0.7,0,1.1-0.4,1.4-0.7v-5.4h3.2v8.7h-3.2V354.9z"/>
				<path class="st7" d="M269.2,351c0-0.9-0.5-1.2-1.3-1.2c-0.7,0-1.1,0.4-1.4,0.7v5.4h-3.2v-8.7h3.2v1c0.5-0.6,1.5-1.2,3-1.2
					c2,0,2.9,1.2,2.9,2.7v6.2h-3.2V351z"/>
				<path class="st7" d="M274.9,353.3v-3.4h-1.4v-2.8h1.4v-2.4h3.2v2.4h1.8v2.8h-1.8v2.4c0,0.5,0.3,0.8,0.7,0.8
					c0.3,0,0.6-0.1,0.6-0.2l0.6,2.4c-0.3,0.3-1.1,0.6-2.2,0.6C276,356,274.9,355.1,274.9,353.3z"/>
			</g>
		</g>
	</g>
	<rect x="223.7" y="49.9" class="st7" width="77.7" height="12.2"/>
	<rect x="309.4" y="49.9" class="st7" width="77.7" height="12.2"/>
	<g>
		<path class="st7" d="M224.1,41.3h3.3v0.9h-2.3v1h2.3v0.9h-2.3v1.1h2.3V46h-3.3V41.3z"/>
		<path class="st7" d="M232.4,43.9c0-0.3-0.1-0.5-0.5-0.5c-0.3,0-0.6,0.2-0.7,0.4V46h-0.9v-2.1c0-0.3-0.1-0.5-0.5-0.5
			c-0.3,0-0.6,0.2-0.7,0.4V46h-0.9v-3.4h0.9v0.4c0.1-0.2,0.6-0.5,1.1-0.5c0.5,0,0.8,0.2,0.9,0.6c0.2-0.3,0.6-0.6,1.2-0.6
			c0.6,0,1,0.3,1,1V46h-0.9V43.9z"/>
		<path class="st7" d="M236.2,45.7c-0.2,0.3-0.6,0.4-1.1,0.4c-0.5,0-1.2-0.4-1.2-1.1c0-0.8,0.6-1.1,1.2-1.1c0.4,0,0.8,0.1,1.1,0.4
			v-0.5c0-0.3-0.3-0.6-0.7-0.6c-0.4,0-0.7,0.1-1,0.4l-0.3-0.6c0.4-0.4,0.9-0.5,1.5-0.5c0.8,0,1.5,0.3,1.5,1.3V46h-0.9V45.7z
			 M236.2,44.8c-0.1-0.2-0.4-0.3-0.7-0.3c-0.3,0-0.6,0.2-0.6,0.5c0,0.3,0.3,0.5,0.6,0.5c0.3,0,0.6-0.1,0.7-0.3V44.8z"/>
		<path class="st7" d="M237.9,41.7c0-0.3,0.2-0.5,0.5-0.5c0.3,0,0.5,0.2,0.5,0.5c0,0.3-0.2,0.5-0.5,0.5
			C238.1,42.2,237.9,41.9,237.9,41.7z M237.9,42.6h0.9V46h-0.9V42.6z"/>
		<path class="st7" d="M239.7,41.3h0.9V46h-0.9V41.3z"/>
		<path class="st7" d="M243.1,44.3c0-1,0.7-1.8,1.8-1.8c1.1,0,1.8,0.8,1.8,1.8c0,1-0.7,1.8-1.8,1.8
			C243.7,46.1,243.1,45.3,243.1,44.3z M245.7,44.3c0-0.5-0.3-1-0.9-1c-0.6,0-0.9,0.5-0.9,1c0,0.5,0.3,1,0.9,1
			C245.4,45.3,245.7,44.8,245.7,44.3z"/>
		<path class="st7" d="M247.3,42.6h0.9v0.5c0.2-0.3,0.7-0.5,1.1-0.5v0.9c-0.1,0-0.1,0-0.2,0c-0.3,0-0.7,0.2-0.8,0.4V46h-0.9V42.6z"
			/>
		<path class="st7" d="M251.6,41.3h2.2c1,0,1.6,0.7,1.6,1.5c0,0.8-0.6,1.5-1.6,1.5h-1.2V46h-1V41.3z M253.7,42.2h-1.1v1.3h1.1
			c0.4,0,0.7-0.3,0.7-0.6C254.4,42.4,254.1,42.2,253.7,42.2z"/>
		<path class="st7" d="M258.3,43.9c0-0.5-0.2-0.6-0.6-0.6c-0.3,0-0.6,0.2-0.8,0.4V46H256v-4.7h0.9v1.7c0.2-0.3,0.6-0.5,1.2-0.5
			c0.7,0,1.1,0.4,1.1,1.1V46h-0.9V43.9z"/>
		<path class="st7" d="M259.8,44.3c0-1,0.7-1.8,1.8-1.8c1.1,0,1.8,0.8,1.8,1.8c0,1-0.7,1.8-1.8,1.8
			C260.5,46.1,259.8,45.3,259.8,44.3z M262.5,44.3c0-0.5-0.3-1-0.9-1c-0.6,0-0.9,0.5-0.9,1c0,0.5,0.3,1,0.9,1
			C262.2,45.3,262.5,44.8,262.5,44.3z"/>
		<path class="st7" d="M266.3,44c0-0.5-0.2-0.6-0.6-0.6c-0.4,0-0.6,0.2-0.8,0.4V46h-0.9v-3.4h0.9v0.4c0.2-0.3,0.6-0.5,1.2-0.5
			c0.7,0,1.1,0.4,1.1,1.1V46h-0.9V44z"/>
		<path class="st7" d="M269.6,42.5c1,0,1.7,0.8,1.7,1.9v0.2h-2.5c0.1,0.4,0.4,0.8,1,0.8c0.3,0,0.7-0.1,0.9-0.3l0.4,0.6
			c-0.3,0.3-0.9,0.5-1.4,0.5c-1,0-1.8-0.7-1.8-1.8C267.9,43.3,268.6,42.5,269.6,42.5z M268.8,44h1.7c0-0.3-0.2-0.7-0.8-0.7
			C269.1,43.2,268.8,43.7,268.8,44z"/>
		<path class="st7" d="M309.6,41.3h2.2c1,0,1.6,0.7,1.6,1.5c0,0.8-0.6,1.5-1.6,1.5h-1.2V46h-1V41.3z M311.7,42.2h-1.1v1.3h1.1
			c0.4,0,0.7-0.3,0.7-0.6C312.4,42.4,312.1,42.2,311.7,42.2z"/>
		<path class="st7" d="M315.9,45.7c-0.2,0.3-0.6,0.4-1.1,0.4c-0.5,0-1.2-0.4-1.2-1.1c0-0.8,0.6-1.1,1.2-1.1c0.4,0,0.8,0.1,1.1,0.4
			v-0.5c0-0.3-0.3-0.6-0.7-0.6c-0.4,0-0.7,0.1-1,0.4l-0.3-0.6c0.4-0.4,0.9-0.5,1.5-0.5c0.8,0,1.5,0.3,1.5,1.3V46h-0.9V45.7z
			 M315.9,44.8c-0.1-0.2-0.4-0.3-0.7-0.3c-0.3,0-0.6,0.2-0.6,0.5c0,0.3,0.3,0.5,0.6,0.5c0.3,0,0.6-0.1,0.7-0.3V44.8z"/>
		<path class="st7" d="M317.7,44.9c0.2,0.2,0.7,0.5,1.2,0.5c0.4,0,0.6-0.1,0.6-0.3c0-0.2-0.3-0.3-0.7-0.4c-0.6-0.1-1.3-0.3-1.3-1.1
			c0-0.6,0.5-1.1,1.4-1.1c0.6,0,1,0.2,1.4,0.5l-0.4,0.6c-0.2-0.2-0.6-0.4-1-0.4c-0.3,0-0.5,0.1-0.5,0.3c0,0.2,0.3,0.3,0.6,0.4
			c0.6,0.1,1.4,0.3,1.4,1.1c0,0.6-0.5,1.1-1.5,1.1c-0.6,0-1.2-0.2-1.5-0.5L317.7,44.9z"/>
		<path class="st7" d="M321.1,44.9c0.2,0.2,0.7,0.5,1.2,0.5c0.4,0,0.6-0.1,0.6-0.3c0-0.2-0.3-0.3-0.7-0.4c-0.6-0.1-1.3-0.3-1.3-1.1
			c0-0.6,0.5-1.1,1.4-1.1c0.6,0,1,0.2,1.4,0.5l-0.4,0.6c-0.2-0.2-0.6-0.4-1-0.4c-0.3,0-0.5,0.1-0.5,0.3c0,0.2,0.3,0.3,0.6,0.4
			c0.6,0.1,1.4,0.3,1.4,1.1c0,0.6-0.5,1.1-1.5,1.1c-0.6,0-1.2-0.2-1.5-0.5L321.1,44.9z"/>
		<path class="st7" d="M326.6,43.7l-0.7,2.3h-1l-1-3.4h0.9l0.6,2.3l0.7-2.3h0.8l0.7,2.3l0.6-2.3h0.9l-1,3.4h-0.9L326.6,43.7z"/>
		<path class="st7" d="M329.5,44.3c0-1,0.7-1.8,1.8-1.8c1.1,0,1.8,0.8,1.8,1.8c0,1-0.7,1.8-1.8,1.8
			C330.2,46.1,329.5,45.3,329.5,44.3z M332.1,44.3c0-0.5-0.3-1-0.9-1c-0.6,0-0.9,0.5-0.9,1c0,0.5,0.3,1,0.9,1
			C331.8,45.3,332.1,44.8,332.1,44.3z"/>
		<path class="st7" d="M333.7,42.6h0.9v0.5c0.2-0.3,0.7-0.5,1.1-0.5v0.9c-0.1,0-0.1,0-0.2,0c-0.3,0-0.7,0.2-0.8,0.4V46h-0.9V42.6z"
			/>
		<path class="st7" d="M338.6,45.6c-0.3,0.3-0.6,0.5-1,0.5c-0.9,0-1.5-0.6-1.5-1.8c0-1.1,0.6-1.8,1.5-1.8c0.4,0,0.8,0.2,1,0.5v-1.7
			h0.9V46h-0.9V45.6z M338.6,43.7c-0.1-0.2-0.5-0.4-0.8-0.4c-0.5,0-0.9,0.4-0.9,1c0,0.6,0.4,1,0.9,1c0.3,0,0.6-0.2,0.8-0.4V43.7z"/>
	</g>
	<rect x="392.9" y="49.9" class="st22" width="16.3" height="12.2"/>
</g>
<g id="_x3C_Layer_x3E_">
</g>
</svg>
