<?xml version="1.0" encoding="utf-8"?>
<!-- Generator: Adobe Illustrator 19.1.0, SVG Export Plug-In . SVG Version: 6.00 Build 0)  -->
<svg version="1.1" xmlns="http://www.w3.org/2000/svg" xmlns:xlink="http://www.w3.org/1999/xlink" x="0px" y="0px"
	 viewBox="0 0 612 458" style="enable-background:new 0 0 612 458;" xml:space="preserve">
<style type="text/css">
	.st0{fill:#BCBCBC;}
	.st1{opacity:0.45;fill:#BCBCBC;}
	.st2{fill:#FFFFFF;}
	.st3{fill:#BE394B;}
	.st4{opacity:0.45;fill:#BE394B;}
	.st5{fill:#3295AB;}
	.st6{opacity:0.45;fill:#FFFFFF;}
	.st7{opacity:0.45;fill:#3295AB;}
	.st8{fill:#E6E6E5;}
</style>
<g id="Layer_1">
</g>
<g id="OBJECTS">
	<g>
		<g>
			<g>
				<path class="st0" d="M459.6,270.9l47.6-27.5c5.2-3,11.5-3,16.7,0l47.6,27.5c5.2,3,8.3,8.5,8.3,14.4v55c0,6-3.2,11.5-8.3,14.4
					l-47.6,27.5c-5.2,3-11.5,3-16.7,0l-47.6-27.5c-5.2-3-8.3-8.5-8.3-14.4v-55C451.3,279.3,454.5,273.8,459.6,270.9z"/>
				<path class="st1" d="M571.6,270.9l-47.6-27.5c-2.6-1.5-5.5-2.2-8.3-2.2v143.4c2.9,0,5.8-0.7,8.3-2.2l47.6-27.5
					c5.2-3,8.3-8.5,8.3-14.4v-55C579.9,279.3,576.7,273.8,571.6,270.9z"/>
			</g>
			<path class="st2" d="M531.8,322c-7.5,9.7-13.8,14.5-18.9,14.5c-3.2,0-5.9-3-8.1-8.9c-1.5-5.4-3-10.8-4.4-16.2
				c-1.6-5.9-3.4-8.9-5.3-8.9c-0.4,0-1.8,0.9-4.3,2.6l-2.6-3.3c2.7-2.4,5.4-4.8,8-7.1c3.6-3.1,6.3-4.8,8.1-4.9
				c4.3-0.4,6.9,2.5,7.9,8.7c1.1,6.7,1.8,10.9,2.2,12.6c1.2,5.6,2.6,8.4,4.1,8.4c1.1,0,2.9-1.8,5.2-5.4c2.3-3.6,3.5-6.4,3.7-8.3
				c0.3-3.1-0.9-4.7-3.7-4.7c-1.3,0-2.7,0.3-4.1,0.9c2.7-8.8,7.8-13.1,15.4-12.9c5.6,0.2,8.3,3.8,8,11
				C542.7,305.4,539,312.7,531.8,322z"/>
		</g>
		<g>
			<g>
				<path class="st3" d="M459.6,29.7l47.6-27.5c5.2-3,11.5-3,16.7,0l47.6,27.5c5.2,3,8.3,8.5,8.3,14.4v55c0,6-3.2,11.5-8.3,14.4
					l-47.6,27.5c-5.2,3-11.5,3-16.7,0l-47.6-27.5c-5.2-3-8.3-8.5-8.3-14.4v-55C451.3,38.2,454.5,32.7,459.6,29.7z"/>
				<path class="st4" d="M571.6,29.7L523.9,2.2c-2.6-1.5-5.5-2.2-8.3-2.2v143.4c2.9,0,5.8-0.7,8.3-2.2l47.6-27.5
					c5.2-3,8.3-8.5,8.3-14.4v-55C579.9,38.2,576.7,32.7,571.6,29.7z"/>
			</g>
			<path class="st2" d="M516.7,40.1C494,40.6,479.5,63.2,487.5,84c-1.5,4.5-3,8.9-4.6,13.4c-0.8,2.2,1.5,3.8,3.5,3.5
				c4.5-0.8,8.9-1.6,13.4-2.3c18.1,11.1,41.8,1.7,47.5-18.8C552.8,59.7,536.7,40.5,516.7,40.1z M533.2,91.8c-4,3.5-9.3,5.4-14.4,5.9
				c-3.4,0.3-6.7-0.2-10-1.1c-1.7-0.5-3.3-1.3-4.9-2.1c-1.1-0.6-2.1-1.7-3.5-1.7c-2.4,0-5,0.8-7.4,1.3c-1,0.2-2.1,0.4-3.1,0.5
				c0.7-2.1,1.4-4.1,2.1-6.2c0.4-1.2,0.8-2.5,1.3-3.7c0.5-1.6-0.9-3.5-1.3-4.9c-0.7-2.2-1.1-4.4-1.2-6.7c-1-14.8,11.5-27,25.9-27.3
				c10.7,0.2,20.3,6.6,24.3,16.7C545,72.9,541.5,84.6,533.2,91.8z M522,77.3l7.4,6.8c-0.7,0.6-1.4,0.9-2.3,1.1
				c-0.8,0.2-7.5,1.9-16-5.9c-6.6-6-8-11.9-8.2-14.8c-0.1-0.7,0-1.2,0-1.4v0c0-0.1,0-0.1,0-0.1c0.1-0.9,0.4-1.7,0.9-2.5l7.4,6.8
				c-0.4,0.4-0.9,0.7-1.5,0.8c0.6,1.4,2.1,4.5,4.8,6.9c2.7,2.4,5.6,3.5,7,3.9C521.4,78.3,521.6,77.8,522,77.3z M512.8,66.7l-8.9-8.2
				c0-0.1,0.1-0.1,0.2-0.2l0.4-0.4c1.3-1.4,3.5-1.5,4.9-0.2l3.9,3.5c0.6,0.6,1,1.4,1.1,2.2c0.1,1-0.2,1.9-0.9,2.6l-0.4,0.4
				C512.9,66.6,512.8,66.7,512.8,66.7z M531.6,78.2c0.6,0.6,1,1.4,1.1,2.2c0.1,1-0.2,1.9-0.9,2.6l-0.4,0.4c-0.1,0.1-0.1,0.1-0.2,0.2
				l-8.9-8.2c0-0.1,0.1-0.1,0.2-0.2l0.4-0.4c0.6-0.7,1.5-1.1,2.4-1.1c0.9,0,1.8,0.3,2.5,0.9L531.6,78.2z"/>
		</g>
		<g>
			<g>
				<path class="st3" d="M319.9,270.9l47.6-27.5c5.2-3,11.5-3,16.7,0l47.6,27.5c5.2,3,8.3,8.5,8.3,14.4v55c0,6-3.2,11.5-8.3,14.4
					l-47.6,27.5c-5.2,3-11.5,3-16.7,0l-47.6-27.5c-5.2-3-8.3-8.5-8.3-14.4v-55C311.6,279.3,314.7,273.8,319.9,270.9z"/>
				<path class="st4" d="M431.8,270.9l-47.6-27.5c-2.6-1.5-5.5-2.2-8.3-2.2v143.4c2.9,0,5.8-0.7,8.3-2.2l47.6-27.5
					c5.2-3,8.3-8.5,8.3-14.4v-55C440.2,279.3,437,273.8,431.8,270.9z"/>
			</g>
			<path class="st2" d="M388.3,312.8h-8v28.9h-12v-28.9h-6v-10h6v-6c0-8.1,3.4-13,13-13h8v10h-5c-3.7,0-4,1.4-4,4l0,5h9L388.3,312.8
				z"/>
		</g>
		<g>
			<g>
				<path class="st3" d="M40.4,29.7L88.1,2.2c5.2-3,11.5-3,16.7,0l47.6,27.5c5.2,3,8.3,8.5,8.3,14.4v55c0,6-3.2,11.5-8.3,14.4
					l-47.6,27.5c-5.2,3-11.5,3-16.7,0l-47.6-27.5c-5.2-3-8.3-8.5-8.3-14.4v-55C32.1,38.2,35.3,32.7,40.4,29.7z"/>
				<path class="st4" d="M152.4,29.7L104.7,2.2C102.1,0.7,99.3,0,96.4,0v143.4c2.9,0,5.8-0.7,8.3-2.2l47.6-27.5
					c5.2-3,8.3-8.5,8.3-14.4v-55C160.7,38.2,157.5,32.7,152.4,29.7z"/>
			</g>
			<path class="st2" d="M118.3,47.6H74.5c-4.3,0-7.8,4.6-7.8,10.1v27.8c0,5.6,3.5,10.2,7.8,10.2h43.7c4.3,0,7.8-4.6,7.8-10.2V57.8
				C126,52.2,122.5,47.6,118.3,47.6z M103.4,73.9l-12.1,7.9c-1.8,1.2-3.4,0.4-3.4-1.8v-4.3c0-2.2,0-5.8,0-8v-4.3
				c0-2.2,1.5-3,3.4-1.8l12.1,7.9C105.3,70.7,105.3,72.7,103.4,73.9z"/>
		</g>
		<g>
			<g>
				<path class="st3" d="M40.4,270.9l47.6-27.5c5.2-3,11.5-3,16.7,0l47.6,27.5c5.2,3,8.3,8.5,8.3,14.4v55c0,6-3.2,11.5-8.3,14.4
					l-47.6,27.5c-5.2,3-11.5,3-16.7,0l-47.6-27.5c-5.2-3-8.3-8.5-8.3-14.4v-55C32.1,279.3,35.3,273.8,40.4,270.9z"/>
				<path class="st4" d="M152.4,270.9l-47.6-27.5c-2.6-1.5-5.5-2.2-8.3-2.2v143.4c2.9,0,5.8-0.7,8.3-2.2l47.6-27.5
					c5.2-3,8.3-8.5,8.3-14.4v-55C160.7,279.3,157.5,273.8,152.4,270.9z"/>
			</g>
			<path class="st2" d="M114.4,314.5c0.1-0.5,0.1-1,0.1-1.5c0.1,0,0.1,0,0.2-0.1l7-3.2c1.4-0.6,2-2.3,1.4-3.6
				c-0.6-1.4-2.3-2-3.6-1.4l-4.8,2.2v-8.4c0-9.2-7.6-16.8-16.8-16.8h-2.6c-9.2,0-16.8,7.6-16.8,16.8v8.4l-4.8-2.2
				c-1.4-0.6-3,0-3.6,1.4c-0.6,1.4,0,3,1.4,3.6l7,3.2c0.1,0,0.1,0,0.2,0.1c0,0.5,0.1,0.9,0.1,1.4h0c0,0-3.6,13.6-15.7,14.7
				c0,0,0.9,5.3,8.5,6.5c7.6,1.2,9.8,1.1,13.3,3.6c3.4,2.5,5.8,4.6,11.9,4.6v0c0,0,0,0,0,0c0,0,0,0,0,0v0c6.1,0,8.4-2.2,11.9-4.6
				c3.4-2.5,5.6-2.4,13.3-3.6c7.6-1.2,8.5-6.5,8.5-6.5C118.5,328.1,114.7,315.6,114.4,314.5z"/>
		</g>
		<g>
			<g>
				<path class="st0" d="M110.3,150.3l47.6-27.5c5.2-3,11.5-3,16.7,0l47.6,27.5c5.2,3,8.3,8.5,8.3,14.4v55c0,6-3.2,11.5-8.3,14.4
					l-47.6,27.5c-5.2,3-11.5,3-16.7,0l-47.6-27.5c-5.2-3-8.3-8.5-8.3-14.4v-55C102,158.8,105.1,153.3,110.3,150.3z"/>
				<path class="st1" d="M222.2,150.3l-47.6-27.5c-2.6-1.5-5.5-2.2-8.3-2.2v143.4c2.9,0,5.8-0.7,8.3-2.2l47.6-27.5
					c5.2-3,8.3-8.5,8.3-14.4v-55C230.6,158.8,227.4,153.3,222.2,150.3z"/>
			</g>
			<path class="st2" d="M195.3,198.9c0.4-2,0.7-4.1,0.7-6.3c0-16.2-13.2-29.4-29.4-29.4c-1.7,0-3.4,0.1-5,0.4
				c-2.6-1.7-5.7-2.6-9.1-2.6c-9.4,0-17,7.6-17,17c0,3.1,0.9,6.1,2.3,8.6c-0.4,1.9-0.6,3.9-0.6,5.9c0,16.2,13.1,29.4,29.4,29.4
				c1.8,0,3.6-0.2,5.4-0.5c2.4,1.3,5.1,2,8,2c9.4,0,17-7.6,17-17C197,203.7,196.4,201.1,195.3,198.9z M181.6,206.6
				c-1.4,1.9-3.4,3.4-6,4.5c-2.6,1.1-5.7,1.6-9.2,1.6c-4.2,0-7.8-0.7-10.5-2.2c-2-1.1-3.6-2.5-4.8-4.3c-1.2-1.8-1.9-3.6-1.9-5.3
				c0-1.1,0.4-2,1.2-2.8c0.8-0.8,1.8-1.1,3.1-1.1c1,0,1.9,0.3,2.6,0.9c0.7,0.6,1.3,1.4,1.7,2.5c0.5,1.2,1.1,2.2,1.7,3
				c0.6,0.8,1.4,1.4,2.5,1.9c1.1,0.5,2.5,0.8,4.3,0.8c2.4,0,4.4-0.5,5.9-1.5c1.5-1,2.2-2.2,2.2-3.7c0-1.2-0.4-2.1-1.1-2.8
				c-0.8-0.7-1.9-1.3-3.1-1.7c-1.3-0.4-3.1-0.9-5.4-1.3c-3-0.7-5.6-1.4-7.7-2.3c-2.1-0.9-3.8-2.1-5-3.7c-1.3-1.6-1.9-3.6-1.9-5.9
				c0-2.2,0.7-4.2,2-5.9c1.3-1.7,3.2-3,5.7-4c2.4-0.9,5.3-1.4,8.6-1.4c2.6,0,4.9,0.3,6.9,0.9c1.9,0.6,3.6,1.4,4.8,2.4
				c1.3,1,2.3,2.1,2.9,3.2c0.6,1.1,0.9,2.3,0.9,3.3c0,1.1-0.4,2-1.2,2.8c-0.8,0.8-1.8,1.3-3,1.3c-1.1,0-1.9-0.3-2.5-0.8
				c-0.5-0.5-1.1-1.2-1.8-2.3c-0.7-1.4-1.6-2.5-2.6-3.3c-1-0.8-2.6-1.1-4.9-1.1c-2.1,0-3.8,0.4-5.1,1.3c-1.2,0.8-1.8,1.7-1.8,2.8
				c0,0.7,0.2,1.2,0.6,1.7c0.4,0.5,1,1,1.7,1.3c0.8,0.4,1.6,0.7,2.4,0.9c0.8,0.2,2.2,0.6,4.1,1c2.4,0.5,4.6,1.1,6.5,1.7
				c2,0.6,3.6,1.4,5,2.3c1.4,0.9,2.5,2.1,3.3,3.5c0.8,1.4,1.2,3.2,1.2,5.2C183.7,202.5,183,204.7,181.6,206.6z"/>
		</g>
		<g>
			<g>
				<path class="st5" d="M180.2,271.2l48-27.9c5.2-3,11.6-3,16.8,0l48,27.9c5.2,3,8.4,8.6,8.4,14.6v55.7c0,6-3.2,11.6-8.4,14.6
					l-48,27.9c-5.2,3-11.6,3-16.8,0l-48-27.9c-5.2-3-8.4-8.6-8.4-14.6v-55.7C171.8,279.8,175,274.3,180.2,271.2z"/>
				<path class="st6" d="M293.1,271.2l-48-27.9c-2.6-1.5-5.5-2.3-8.4-2.3v145.2c2.9,0,5.8-0.8,8.4-2.3l48-27.9
					c5.2-3,8.4-8.6,8.4-14.6v-55.7C301.5,279.8,298.3,274.3,293.1,271.2z"/>
			</g>
			<path class="st2" d="M252.4,281.8h-31.5c-8.8,0-16,7.2-16,16.1v31.6c0,8.9,7.2,16.1,16,16.1h31.5c8.8,0,16-7.2,16-16.1v-31.6
				C268.4,289.1,261.2,281.8,252.4,281.8z M236.6,330.2c-9,0-16.4-7.4-16.4-16.4c0-9.1,7.3-16.4,16.4-16.4c9,0,16.4,7.4,16.4,16.4
				C253,322.8,245.7,330.2,236.6,330.2z M252.9,299.9c-2.1,0-3.8-1.7-3.8-3.8c0-2.1,1.7-3.8,3.8-3.8c2.1,0,3.8,1.7,3.8,3.8
				C256.7,298.2,255,299.9,252.9,299.9z M246.1,313.7c0,5.2-4.2,9.5-9.4,9.5c-5.2,0-9.4-4.3-9.4-9.5c0-5.2,4.2-9.5,9.4-9.5
				C241.9,304.3,246.1,308.5,246.1,313.7z"/>
		</g>
		<g>
			<g>
				<path class="st0" d="M389.8,150.3l47.6-27.5c5.2-3,11.5-3,16.7,0l47.6,27.5c5.2,3,8.3,8.5,8.3,14.4v55c0,6-3.2,11.5-8.3,14.4
					l-47.6,27.5c-5.2,3-11.5,3-16.7,0l-47.6-27.5c-5.2-3-8.3-8.5-8.3-14.4v-55C381.4,158.8,384.6,153.3,389.8,150.3z"/>
				<path class="st1" d="M501.7,150.3l-47.6-27.5c-2.6-1.5-5.5-2.2-8.3-2.2v143.4c2.9,0,5.8-0.7,8.3-2.2l47.6-27.5
					c5.2-3,8.3-8.5,8.3-14.4v-55C510,158.8,506.9,153.3,501.7,150.3z"/>
			</g>
			<path class="st2" d="M431.8,215h-9.7v-31h9.7V215z M432.7,174.8c-0.1-3.1-2.3-5.4-5.8-5.4c-3.6,0-5.9,2.3-5.9,5.4
				c0,3,2.3,5.4,5.8,5.4h0.1C430.4,180.2,432.7,177.8,432.7,174.8z M470.6,197.8c0-9.6-5.4-14.1-12.3-14.1c-5.5,0-9,3-9.7,5.2v-4.9
				h-10.9c0.1,2.6,0,31,0,31h10.9v-16.8c0-0.9,0-1.9,0.2-2.5c0.8-1.9,2.4-3.8,5.2-3.8c3.8,0,5.5,2.9,5.5,7.1v16h11V197.8z"/>
		</g>
		<g>
			<g>
				<path class="st5" d="M250,150.3l47.6-27.5c5.2-3,11.5-3,16.7,0l47.6,27.5c5.2,3,8.3,8.5,8.3,14.4v55c0,6-3.2,11.5-8.3,14.4
					l-47.6,27.5c-5.2,3-11.5,3-16.7,0L250,234.2c-5.2-3-8.3-8.5-8.3-14.4v-55C241.7,158.8,244.9,153.3,250,150.3z"/>
				<path class="st7" d="M362,150.3l-47.6-27.5c-2.6-1.5-5.5-2.2-8.3-2.2v143.4c2.9,0,5.8-0.7,8.3-2.2l47.6-27.5
					c5.2-3,8.3-8.5,8.3-14.4v-55C370.3,158.8,367.1,153.3,362,150.3z"/>
			</g>
			<path class="st2" d="M268.9,192.3c0-14.2,11.7-25.5,26.1-25.5c6,0,11.7,2,16.1,5.5c1.8,1.3,2.1,4,0.8,5.7c-1.3,1.7-4,2-5.7,0.6
				c-3-2.3-6.9-3.8-11.2-3.8c-5.1,0-9.5,1.9-12.7,5.2c-3.3,3.2-5.3,7.5-5.3,12.3c0,4.7,2,9,5.3,12.2c3.2,3.3,7.6,5.2,12.7,5.2
				c3.5,0,6.9-1.1,9.7-2.7v-9.7h-10.1c-2.2,0-4-1.8-4-4c0-2.3,1.8-4,4-4h13.9c0.1,0,0.1,0,0.1,0c0.1,0,0.1,0,0.1,0
				c2.3,0,4.1,1.7,4.1,4v15.6c0,0.5-0.1,0.8-0.2,1.2c-0.1,0.1-0.1,0.2-0.1,0.4v0.1c-0.2,0.6-0.6,1.2-1.3,1.7
				c-4.5,3.5-10,5.5-16.1,5.5C280.7,217.7,268.9,206.4,268.9,192.3z M326.4,195.2h-7.6c-1.6,0-2.9-1.3-2.9-2.9
				c0-1.6,1.3-2.9,2.9-2.9h7.6v-7.5c0-1.7,1.3-3.1,3.1-3.1c1.7,0,3.1,1.3,3.1,3.1v7.5h7.6c1.6,0,2.9,1.3,2.9,2.9
				c0,1.7-1.3,2.9-2.9,2.9h-7.6v7.5c0,1.7-1.4,3.1-3.1,3.1c-1.7,0-3.1-1.3-3.1-3.1V195.2z"/>
		</g>
		<g>
			<g>
				<path class="st5" d="M319.9,29.7l47.6-27.5c5.2-3,11.5-3,16.7,0l47.6,27.5c5.2,3,8.3,8.5,8.3,14.4v55c0,6-3.2,11.5-8.3,14.4
					l-47.6,27.5c-5.2,3-11.5,3-16.7,0l-47.6-27.5c-5.2-3-8.3-8.5-8.3-14.4v-55C311.6,38.2,314.7,32.7,319.9,29.7z"/>
				<path class="st7" d="M431.8,29.7L384.2,2.2c-2.6-1.5-5.5-2.2-8.3-2.2v143.4c2.9,0,5.8-0.7,8.3-2.2l47.6-27.5
					c5.2-3,8.3-8.5,8.3-14.4v-55C440.2,38.2,437,32.7,431.8,29.7z"/>
			</g>
			<path class="st2" d="M400,59.3c0,0.5,0,1.1,0,1.6c0,16.5-12.5,35.5-35.5,35.5c-7,0-13.6-2.1-19.1-5.6c1,0.1,2,0.2,3,0.2
				c5.8,0,11.2-2,15.5-5.3c-5.5-0.1-10.1-3.7-11.7-8.7c0.8,0.1,1.5,0.2,2.3,0.2c1.1,0,2.2-0.2,3.3-0.4c-5.7-1.1-10-6.2-10-12.2
				c0-0.1,0-0.1,0-0.2c1.7,0.9,3.6,1.5,5.6,1.6c-3.3-2.2-5.5-6.1-5.5-10.4c0-2.3,0.6-4.4,1.7-6.3c6.2,7.5,15.3,12.5,25.7,13
				c-0.2-0.9-0.3-1.9-0.3-2.8c0-6.9,5.6-12.5,12.5-12.5c3.6,0,6.8,1.5,9.1,3.9c2.8-0.6,5.5-1.6,7.9-3c-0.9,2.9-2.9,5.4-5.5,6.9
				c2.5-0.3,4.9-1,7.2-2C404.6,55.3,402.5,57.5,400,59.3z"/>
		</g>
		<g>
			<g>
				<path class="st0" d="M180.2,29.7l47.6-27.5c5.2-3,11.5-3,16.7,0l47.6,27.5c5.2,3,8.3,8.5,8.3,14.4v55c0,6-3.2,11.5-8.3,14.4
					l-47.6,27.5c-5.2,3-11.5,3-16.7,0l-47.6-27.5c-5.2-3-8.3-8.5-8.3-14.4v-55C171.8,38.2,175,32.7,180.2,29.7z"/>
				<path class="st1" d="M292.1,29.7L244.5,2.2C241.9,0.7,239,0,236.1,0v143.4c2.9,0,5.8-0.7,8.3-2.2l47.6-27.5
					c5.2-3,8.3-8.5,8.3-14.4v-55C300.4,38.2,297.3,32.7,292.1,29.7z"/>
			</g>
			<path class="st2" d="M241.1,86.7c-4,0-7.7-2.1-9-4.6c0,0-2.1,8.5-2.6,10.1c-1.6,5.8-6.3,11.6-6.6,12c-0.3,0.3-0.8,0.2-0.9-0.2
				c-0.1-0.7-1.3-8,0.1-14c0.7-3,4.7-20,4.7-20s-1.2-2.3-1.2-5.8c0-5.5,3.2-9.5,7.1-9.5c3.3,0,5,2.5,5,5.5c0,3.4-2.1,8.4-3.2,13
				c-0.9,3.9,2,7.1,5.8,7.1c7,0,11.7-8.9,11.7-19.5c0-8.1-5.4-14.1-15.3-14.1c-11.2,0-18.1,8.3-18.1,17.6c0,3.2,0.9,5.5,2.4,7.2
				c0.7,0.8,0.8,1.1,0.5,2.1c-0.2,0.7-0.6,2.3-0.7,3c-0.2,0.9-1,1.3-1.8,0.9c-5.1-2.1-7.5-7.7-7.5-14c0-10.4,8.8-23,26.3-23
				c14,0,23.3,10.2,23.3,21.1C260.9,75.9,252.9,86.7,241.1,86.7z"/>
		</g>
	</g>
</g>
<g id="objects">
	<path class="st8" d="M2.8,449c0,5,136.4,9,304.6,9s304.6-4,304.6-9"/>
	<path class="st8" d="M612,449c0-5-136.4-9-304.6-9s-304.6,4-304.6,9"/>
</g>
</svg>
