<?xml version="1.0" encoding="utf-8"?>
<!-- Generator: Adobe Illustrator 19.1.0, SVG Export Plug-In . SVG Version: 6.00 Build 0)  -->
<svg version="1.1" xmlns="http://www.w3.org/2000/svg" xmlns:xlink="http://www.w3.org/1999/xlink" x="0px" y="0px"
	 viewBox="0 0 417.9 501.7" style="enable-background:new 0 0 417.9 501.7;" xml:space="preserve">
<style type="text/css">
	.st0{fill:#D8D8D8;}
	.st1{opacity:0.26;}
	.st2{fill:#2B2A2A;}
	.st3{fill:#3195AB;}
	.st4{fill:#EF4438;}
	.st5{fill:#80C342;}
	.st6{fill:#F9ED28;}
	.st7{fill:#FFFFFF;}
	.st8{fill:none;stroke:#EF4438;stroke-width:0.7222;stroke-miterlimit:10;}
	.st9{fill:#EAEAEA;}
	.st10{fill:#8E8E8E;}
	.st11{fill:#8E8E8E;stroke:#454545;stroke-width:5;stroke-miterlimit:10;}
	.st12{fill:#707071;stroke:#1E1E1E;stroke-miterlimit:10;}
	.st13{fill:none;stroke:#8E8E8E;stroke-miterlimit:10;}
	.st14{fill:none;stroke:#606161;stroke-miterlimit:10;}
	.st15{fill:none;stroke:#BF5F28;stroke-miterlimit:10;}
	.st16{opacity:0.17;}
	.st17{fill:#010101;}
	.st18{fill:#353635;}
	.st19{fill:none;stroke:#D8D9D8;stroke-width:0.9717;stroke-miterlimit:10;}
	.st20{fill:#525352;}
	.st21{fill:#D8D9D8;}
	.st22{fill:#BE3A4C;}
	.st23{fill:#E8E8E8;}
</style>
<g id="Layer_1">
	<g>
		<rect x="15.3" class="st0" width="402.2" height="36.3"/>
	</g>
	<g>
		<g class="st1">
			<line class="st2" x1="26.4" y1="47.4" x2="429" y2="47.4"/>
		</g>
		<g>
			<line class="st3" x1="15.3" y1="36.3" x2="417.9" y2="36.3"/>
		</g>
	</g>
	<circle class="st4" cx="411" cy="6.6" r="2.4"/>
	<circle class="st5" cx="395.7" cy="6.6" r="2.4"/>
	<circle class="st6" cx="403.5" cy="6.6" r="2.4"/>
	<path class="st7" d="M385.7,22.4H56.3c-0.8,0-1.4-0.6-1.4-1.4v-5c0-0.8,0.6-1.4,1.4-1.4h329.5c0.8,0,1.4,0.6,1.4,1.4v5
		C387.1,21.8,386.5,22.4,385.7,22.4z"/>
	<g>
		<g>
			<polygon class="st4" points="47.4,17.6 44.9,17.6 47.4,15.1 49.9,17.6 			"/>
			<rect x="45.4" y="17.6" class="st4" width="4" height="3.5"/>
			<rect x="46.8" y="19" class="st0" width="1.2" height="2.7"/>
			<rect x="48.5" y="15.3" class="st4" width="0.3" height="0.8"/>
		</g>
		<circle class="st8" cx="39.1" cy="18.3" r="2.8"/>
		<rect x="40.2" y="17" class="st0" width="3.5" height="2.5"/>
		<polygon class="st8" points="41.9,16.3 42,17.5 40.9,17.4 		"/>
		<rect x="27.6" y="18.1" class="st4" width="4.3" height="1"/>
		<path class="st4" d="M31.8,17.9l-0.9-1.3l3,1.9c0.1,0,0.1,0.1,0,0.2l-2.7,1.8l0.7-1.5"/>
		<rect x="21.4" y="18.1" class="st4" width="3.8" height="1"/>
		<path class="st4" d="M21.5,19.3l0.9,1.3l-3-1.9c-0.1,0-0.1-0.1,0-0.2l2.7-1.8l-0.7,1.5"/>
	</g>
	<line class="st9" x1="15.3" y1="36.3" x2="417.9" y2="36.3"/>
	<polygon class="st10" points="15.3,489.6 15.3,0 0,26.4 0.4,488.9 0.4,496.4 0,501.7 400.7,501.7 417.5,488.3 	"/>
	<path class="st11" d="M15.3,480.1"/>
	<path class="st12" d="M-38.4,478.8"/>
	<line class="st13" x1="416.9" y1="0" x2="416.9" y2="488.3"/>
	<rect x="-106.3" y="167" class="st14" width="2" height="0"/>
	<path class="st15" d="M16.8,54"/>
	<path class="st15" d="M-0.7,83.5"/>
	<g id="objects_1_">
		<g>
			<g class="st16">
				<path class="st17" d="M51.6,65.7h4.2v14h-4.2V65.7z"/>
				<path class="st17" d="M64.9,74.1c0-1-0.6-1.4-1.5-1.4c-0.9,0-1.3,0.4-1.6,0.8v6.3H58V69.5h3.8v1.2c0.6-0.7,1.7-1.4,3.5-1.4
					c2.4,0,3.4,1.4,3.4,3.2v7.2h-3.8V74.1z"/>
				<path class="st17" d="M71.6,76.7v-3.9h-1.7v-3.3h1.7v-2.8h3.8v2.8h2.1v3.3h-2.1v2.8c0,0.5,0.3,0.9,0.8,0.9
					c0.3,0,0.7-0.1,0.8-0.2l0.7,2.9c-0.4,0.4-1.3,0.7-2.6,0.7C72.8,79.9,71.6,78.8,71.6,76.7z"/>
				<path class="st17" d="M83.7,69.3c3,0,5.3,2.1,5.3,5.7v0.8h-6.9c0.2,0.7,0.9,1.3,2.2,1.3c0.9,0,1.8-0.3,2.3-0.7l1.6,2.3
					c-1,0.9-2.8,1.3-4.3,1.3c-3.2,0-5.6-2-5.6-5.3C78.1,71.6,80.4,69.3,83.7,69.3z M82,73.4h3.3c-0.1-0.4-0.5-1.2-1.7-1.2
					C82.5,72.1,82.1,72.9,82,73.4z"/>
				<path class="st17" d="M90.2,69.5H94v1.2c0.6-0.7,2-1.4,3.1-1.4v3.6c-0.2-0.1-0.5-0.1-0.9-0.1c-0.8,0-1.8,0.2-2.2,0.7v6.2h-3.8
					V69.5z"/>
				<path class="st17" d="M105.3,74.1c0-1-0.6-1.4-1.5-1.4s-1.3,0.4-1.6,0.8v6.3h-3.8V69.5h3.8v1.2c0.6-0.7,1.7-1.4,3.5-1.4
					c2.4,0,3.4,1.4,3.4,3.2v7.2h-3.8V74.1z"/>
				<path class="st17" d="M116,69.3c3,0,5.3,2.1,5.3,5.7v0.8h-6.9c0.2,0.7,0.9,1.3,2.2,1.3c0.9,0,1.8-0.3,2.3-0.7l1.6,2.3
					c-1,0.9-2.8,1.3-4.3,1.3c-3.2,0-5.6-2-5.6-5.3C110.5,71.6,112.7,69.3,116,69.3z M114.3,73.4h3.3c-0.1-0.4-0.5-1.2-1.7-1.2
					C114.8,72.1,114.5,72.9,114.3,73.4z"/>
				<path class="st17" d="M123.4,76.7v-3.9h-1.7v-3.3h1.7v-2.8h3.8v2.8h2.1v3.3h-2.1v2.8c0,0.5,0.3,0.9,0.8,0.9
					c0.3,0,0.7-0.1,0.8-0.2l0.7,2.9c-0.4,0.4-1.3,0.7-2.6,0.7C124.6,79.9,123.4,78.8,123.4,76.7z"/>
				<path class="st17" d="M148.4,70.8l-3.1,8.8h-1.9l-3.1-8.8v8.8h-4.2v-14h5.9l2.5,7.1l2.5-7.1h5.9v14h-4.2v-8.8H148.4z"/>
				<path class="st17" d="M160.7,78.7c-0.6,0.7-1.8,1.2-3.1,1.2c-1.5,0-3.5-1-3.5-3.3c0-2.5,2-3.1,3.5-3.1c1.3,0,2.5,0.4,3.1,1.1
					v-1.2c0-0.7-0.7-1.3-1.9-1.3c-0.9,0-2,0.4-2.8,1l-1.3-2.3c1.4-1.1,3.3-1.5,4.8-1.5c2.5,0,5,0.9,5,4.3v6.1h-3.8V78.7z
					 M160.7,76.3c-0.3-0.4-0.9-0.5-1.5-0.5s-1.3,0.2-1.3,0.8s0.7,0.8,1.3,0.8s1.2-0.2,1.5-0.5V76.3z"/>
				<path class="st17" d="M166.6,69.5h3.8v1.2c0.6-0.7,2-1.4,3.1-1.4v3.6c-0.2-0.1-0.5-0.1-0.9-0.1c-0.8,0-1.8,0.2-2.2,0.7v6.2h-3.8
					L166.6,69.5L166.6,69.5z"/>
				<path class="st17" d="M179.3,76.4l-0.7,1v2.3h-3.8v-14h3.8v7.5l2.3-3.6h4.6l-3.5,4.6l3.7,5.5h-4.6L179.3,76.4z"/>
				<path class="st17" d="M191.1,69.3c3,0,5.3,2.1,5.3,5.7v0.8h-6.9c0.2,0.7,0.9,1.3,2.2,1.3c0.9,0,1.8-0.3,2.3-0.7l1.6,2.3
					c-1,0.9-2.8,1.3-4.3,1.3c-3.2,0-5.6-2-5.6-5.3C185.6,71.6,187.8,69.3,191.1,69.3z M189.4,73.4h3.3c-0.1-0.4-0.5-1.2-1.7-1.2
					C189.9,72.1,189.6,72.9,189.4,73.4z"/>
				<path class="st17" d="M198.4,76.7v-3.9h-1.7v-3.3h1.7v-2.8h3.8v2.8h2.1v3.3h-2.1v2.8c0,0.5,0.3,0.9,0.8,0.9
					c0.3,0,0.7-0.1,0.8-0.2l0.7,2.9c-0.4,0.4-1.3,0.7-2.6,0.7C199.7,79.9,198.4,78.8,198.4,76.7z"/>
				<path class="st17" d="M205.5,66.4c0-1.2,0.9-2.1,2.1-2.1s2.1,0.9,2.1,2.1s-0.9,2.1-2.1,2.1S205.5,67.5,205.5,66.4z M205.7,69.5
					h3.8v10.1h-3.8V69.5z"/>
				<path class="st17" d="M218.4,74.1c0-1-0.6-1.4-1.5-1.4s-1.3,0.4-1.6,0.8v6.3h-3.8V69.5h3.8v1.2c0.6-0.7,1.7-1.4,3.5-1.4
					c2.4,0,3.4,1.4,3.4,3.2v7.2h-3.8L218.4,74.1L218.4,74.1z"/>
				<path class="st17" d="M225.6,79.6c0.8,0.8,1.9,1.1,3,1.1c0.9,0,2.4-0.3,2.4-2.1V78c-0.9,1-1.8,1.4-2.9,1.4
					c-2.4,0-4.5-1.6-4.5-5.1c0-3.4,2-5.1,4.5-5.1c1,0,2,0.4,2.9,1.3v-1.1h3.8v9c0,4.4-3.6,5.2-6.1,5.2c-1.7,0-3.3-0.5-4.6-1.5
					L225.6,79.6z M230.9,73.3c-0.4-0.4-1.1-0.7-1.6-0.7c-1,0-1.9,0.5-1.9,1.7s0.9,1.7,1.9,1.7c0.5,0,1.2-0.2,1.6-0.7V73.3z"/>
				<path class="st17" d="M255.1,77.4l0.8,0.9l-2.9,2.4l-1-1.2c-0.8,0.3-1.8,0.4-2.8,0.4c-4.3,0-7.7-2.9-7.7-7.2s3.3-7.2,7.7-7.2
					c4.3,0,7.7,2.9,7.7,7.2C256.8,74.6,256.2,76.2,255.1,77.4z M249.3,76.2l-1.2-1.4l2.9-2.4l1.2,1.6c0.1-0.4,0.2-0.8,0.2-1.3
					c0-2-1.3-3.5-3.4-3.5c-2,0-3.4,1.6-3.4,3.5s1.3,3.5,3.4,3.5C249,76.2,249.3,76.2,249.3,76.2z"/>
				<path class="st17" d="M265.1,78.5c-0.6,0.7-1.7,1.4-3.5,1.4c-2.4,0-3.4-1.4-3.4-3.1v-7.2h3.8v5.6c0,1,0.5,1.4,1.5,1.4
					c0.8,0,1.3-0.4,1.6-0.8v-6.3h3.8v10.1h-3.8V78.5z"/>
				<path class="st17" d="M275.8,69.3c3,0,5.3,2.1,5.3,5.7v0.8h-6.9c0.2,0.7,0.9,1.3,2.2,1.3c0.9,0,1.8-0.3,2.3-0.7l1.6,2.3
					c-1,0.9-2.8,1.3-4.3,1.3c-3.2,0-5.6-2-5.6-5.3C270.3,71.6,272.5,69.3,275.8,69.3z M274.2,73.4h3.3c-0.1-0.4-0.5-1.2-1.7-1.2
					C274.7,72.1,274.3,72.9,274.2,73.4z"/>
				<path class="st17" d="M283,75.8c0.8,0.6,2.5,1.3,3.7,1.3c0.8,0,1-0.2,1-0.5s-0.5-0.5-1.4-0.6c-1.7-0.2-4.3-0.5-4.3-3.3
					c0-1.8,1.6-3.5,4.5-3.5c1.7,0,3.2,0.5,4.4,1.3l-1.4,2.5c-0.6-0.5-1.8-1-3-1c-0.5,0-0.9,0.1-0.9,0.4s0.3,0.4,1.3,0.6
					c1.7,0.3,4.5,0.6,4.5,3.4c0,2-1.8,3.5-4.8,3.5c-1.9,0-3.9-0.7-5-1.6L283,75.8z"/>
				<path class="st17" d="M293.5,76.7v-3.9h-1.7v-3.3h1.7v-2.8h3.8v2.8h2.1v3.3h-2.1v2.8c0,0.5,0.3,0.9,0.8,0.9
					c0.3,0,0.7-0.1,0.8-0.2l0.7,2.9c-0.4,0.4-1.3,0.7-2.6,0.7C294.7,79.9,293.5,78.8,293.5,76.7z"/>
				<path class="st17" d="M300.5,66.4c0-1.2,0.9-2.1,2.1-2.1s2.1,0.9,2.1,2.1s-0.9,2.1-2.1,2.1S300.5,67.5,300.5,66.4z M300.7,69.5
					h3.8v10.1h-3.8V69.5z"/>
				<path class="st17" d="M305.9,74.6c0-2.8,2.1-5.3,5.7-5.3s5.7,2.5,5.7,5.3s-2.1,5.3-5.7,5.3C308,79.9,305.9,77.4,305.9,74.6z
					 M313.4,74.6c0-1.1-0.7-2-1.8-2c-1.2,0-1.8,0.9-1.8,2s0.7,2,1.8,2S313.4,75.7,313.4,74.6z"/>
				<path class="st17" d="M325.6,74.1c0-1-0.6-1.4-1.5-1.4s-1.3,0.4-1.6,0.8v6.3h-3.8V69.5h3.8v1.2c0.6-0.7,1.7-1.4,3.5-1.4
					c2.4,0,3.4,1.4,3.4,3.2v7.2h-3.8V74.1z"/>
				<path class="st17" d="M338.3,74.1c0-1-0.6-1.4-1.5-1.4s-1.3,0.4-1.6,0.8v6.3h-3.8V69.5h3.8v1.2c0.6-0.7,1.7-1.4,3.5-1.4
					c2.4,0,3.4,1.4,3.4,3.2v7.2h-3.8V74.1z"/>
				<path class="st17" d="M350,78.7c-0.6,0.7-1.8,1.2-3.1,1.2c-1.5,0-3.5-1-3.5-3.3c0-2.5,2-3.1,3.5-3.1c1.3,0,2.5,0.4,3.1,1.1v-1.2
					c0-0.7-0.7-1.3-1.9-1.3c-0.9,0-2,0.4-2.8,1l-1.3-2.3c1.4-1.1,3.3-1.5,4.8-1.5c2.5,0,5,0.9,5,4.3v6.1H350L350,78.7L350,78.7z
					 M350,76.3c-0.3-0.4-0.9-0.5-1.5-0.5s-1.3,0.2-1.3,0.8s0.7,0.8,1.3,0.8c0.6,0,1.2-0.2,1.5-0.5V76.3z"/>
				<path class="st17" d="M355.7,66.4c0-1.2,0.9-2.1,2.1-2.1s2.1,0.9,2.1,2.1s-0.9,2.1-2.1,2.1S355.7,67.5,355.7,66.4z M355.9,69.5
					h3.8v10.1h-3.8V69.5z"/>
				<path class="st17" d="M361.8,69.5h3.8v1.2c0.6-0.7,2-1.4,3.1-1.4v3.6c-0.2-0.1-0.5-0.1-0.9-0.1c-0.8,0-1.8,0.2-2.2,0.7v6.2h-3.8
					V69.5z"/>
				<path class="st17" d="M374.8,69.3c3,0,5.3,2.1,5.3,5.7v0.8h-6.9c0.2,0.7,0.9,1.3,2.2,1.3c0.9,0,1.8-0.3,2.3-0.7l1.6,2.3
					c-1,0.9-2.8,1.3-4.3,1.3c-3.2,0-5.6-2-5.6-5.3C369.3,71.6,371.5,69.3,374.8,69.3z M373.2,73.4h3.3c-0.1-0.4-0.5-1.2-1.7-1.2
					C373.7,72.1,373.3,72.9,373.2,73.4z"/>
			</g>
			<g>
				<g>
					<path class="st18" d="M51.6,62.7h4.2v14h-4.2V62.7z"/>
					<path class="st18" d="M64.9,71.1c0-1-0.6-1.4-1.5-1.4c-0.9,0-1.3,0.4-1.6,0.8v6.3H58V66.5h3.8v1.2c0.6-0.7,1.7-1.4,3.5-1.4
						c2.4,0,3.4,1.4,3.4,3.2v7.2h-3.8V71.1z"/>
					<path class="st18" d="M71.6,73.7v-3.9h-1.7v-3.3h1.7v-2.8h3.8v2.8h2.1v3.3h-2.1v2.8c0,0.5,0.3,0.9,0.8,0.9
						c0.3,0,0.7-0.1,0.8-0.2l0.7,2.9c-0.4,0.4-1.3,0.7-2.6,0.7C72.8,76.9,71.6,75.8,71.6,73.7z"/>
					<path class="st18" d="M83.7,66.3c3,0,5.3,2.1,5.3,5.7v0.8h-6.9c0.2,0.7,0.9,1.3,2.2,1.3c0.9,0,1.8-0.3,2.3-0.7l1.6,2.3
						c-1,0.9-2.8,1.3-4.3,1.3c-3.2,0-5.6-2-5.6-5.3C78.1,68.6,80.4,66.3,83.7,66.3z M82,70.4h3.3c-0.1-0.4-0.5-1.2-1.7-1.2
						C82.5,69.1,82.1,69.9,82,70.4z"/>
					<path class="st18" d="M90.2,66.5H94v1.2c0.6-0.7,2-1.4,3.1-1.4v3.6c-0.2-0.1-0.5-0.1-0.9-0.1c-0.8,0-1.8,0.2-2.2,0.7v6.2h-3.8
						V66.5z"/>
					<path class="st18" d="M105.3,71.1c0-1-0.6-1.4-1.5-1.4s-1.3,0.4-1.6,0.8v6.3h-3.8V66.5h3.8v1.2c0.6-0.7,1.7-1.4,3.5-1.4
						c2.4,0,3.4,1.4,3.4,3.2v7.2h-3.8V71.1z"/>
					<path class="st18" d="M116,66.3c3,0,5.3,2.1,5.3,5.7v0.8h-6.9c0.2,0.7,0.9,1.3,2.2,1.3c0.9,0,1.8-0.3,2.3-0.7l1.6,2.3
						c-1,0.9-2.8,1.3-4.3,1.3c-3.2,0-5.6-2-5.6-5.3C110.5,68.6,112.7,66.3,116,66.3z M114.3,70.4h3.3c-0.1-0.4-0.5-1.2-1.7-1.2
						C114.8,69.1,114.5,69.9,114.3,70.4z"/>
					<path class="st18" d="M123.4,73.7v-3.9h-1.7v-3.3h1.7v-2.8h3.8v2.8h2.1v3.3h-2.1v2.8c0,0.5,0.3,0.9,0.8,0.9
						c0.3,0,0.7-0.1,0.8-0.2l0.7,2.9c-0.4,0.4-1.3,0.7-2.6,0.7C124.6,76.9,123.4,75.8,123.4,73.7z"/>
					<path class="st18" d="M148.4,67.8l-3.1,8.8h-1.9l-3.1-8.8v8.8h-4.2v-14h5.9l2.5,7.1l2.5-7.1h5.9v14h-4.2v-8.8H148.4z"/>
					<path class="st18" d="M160.7,75.7c-0.6,0.7-1.8,1.2-3.1,1.2c-1.5,0-3.5-1-3.5-3.3c0-2.5,2-3.1,3.5-3.1c1.3,0,2.5,0.4,3.1,1.1
						v-1.2c0-0.7-0.7-1.3-1.9-1.3c-0.9,0-2,0.4-2.8,1l-1.3-2.3c1.4-1.1,3.3-1.5,4.8-1.5c2.5,0,5,0.9,5,4.3v6.1h-3.8V75.7z
						 M160.7,73.3c-0.3-0.4-0.9-0.5-1.5-0.5s-1.3,0.2-1.3,0.8s0.7,0.8,1.3,0.8s1.2-0.2,1.5-0.5V73.3z"/>
					<path class="st18" d="M166.6,66.5h3.8v1.2c0.6-0.7,2-1.4,3.1-1.4v3.6c-0.2-0.1-0.5-0.1-0.9-0.1c-0.8,0-1.8,0.2-2.2,0.7v6.2
						h-3.8L166.6,66.5L166.6,66.5z"/>
					<path class="st18" d="M179.3,73.4l-0.7,1v2.3h-3.8v-14h3.8v7.5l2.3-3.6h4.6l-3.5,4.6l3.7,5.5h-4.6L179.3,73.4z"/>
					<path class="st18" d="M191.1,66.3c3,0,5.3,2.1,5.3,5.7v0.8h-6.9c0.2,0.7,0.9,1.3,2.2,1.3c0.9,0,1.8-0.3,2.3-0.7l1.6,2.3
						c-1,0.9-2.8,1.3-4.3,1.3c-3.2,0-5.6-2-5.6-5.3C185.6,68.6,187.8,66.3,191.1,66.3z M189.4,70.4h3.3c-0.1-0.4-0.5-1.2-1.7-1.2
						C189.9,69.1,189.6,69.9,189.4,70.4z"/>
					<path class="st18" d="M198.4,73.7v-3.9h-1.7v-3.3h1.7v-2.8h3.8v2.8h2.1v3.3h-2.1v2.8c0,0.5,0.3,0.9,0.8,0.9
						c0.3,0,0.7-0.1,0.8-0.2l0.7,2.9c-0.4,0.4-1.3,0.7-2.6,0.7C199.7,76.9,198.4,75.8,198.4,73.7z"/>
					<path class="st18" d="M205.5,63.4c0-1.2,0.9-2.1,2.1-2.1s2.1,0.9,2.1,2.1s-0.9,2.1-2.1,2.1S205.5,64.5,205.5,63.4z M205.7,66.5
						h3.8v10.1h-3.8V66.5z"/>
					<path class="st18" d="M218.4,71.1c0-1-0.6-1.4-1.5-1.4s-1.3,0.4-1.6,0.8v6.3h-3.8V66.5h3.8v1.2c0.6-0.7,1.7-1.4,3.5-1.4
						c2.4,0,3.4,1.4,3.4,3.2v7.2h-3.8L218.4,71.1L218.4,71.1z"/>
					<path class="st18" d="M225.6,76.6c0.8,0.8,1.9,1.1,3,1.1c0.9,0,2.4-0.3,2.4-2.1V75c-0.9,1-1.8,1.4-2.9,1.4
						c-2.4,0-4.5-1.6-4.5-5.1c0-3.4,2-5.1,4.5-5.1c1,0,2,0.4,2.9,1.3v-1.1h3.8v9c0,4.4-3.6,5.2-6.1,5.2c-1.7,0-3.3-0.5-4.6-1.5
						L225.6,76.6z M230.9,70.3c-0.4-0.4-1.1-0.7-1.6-0.7c-1,0-1.9,0.5-1.9,1.7s0.9,1.7,1.9,1.7c0.5,0,1.2-0.2,1.6-0.7V70.3z"/>
					<path class="st18" d="M255.1,74.4l0.8,0.9l-2.9,2.4l-1-1.2c-0.8,0.3-1.8,0.4-2.8,0.4c-4.3,0-7.7-2.9-7.7-7.2s3.3-7.2,7.7-7.2
						c4.3,0,7.7,2.9,7.7,7.2C256.8,71.6,256.2,73.2,255.1,74.4z M249.3,73.2l-1.2-1.4l2.9-2.4l1.2,1.6c0.1-0.4,0.2-0.8,0.2-1.3
						c0-2-1.3-3.5-3.4-3.5c-2,0-3.4,1.6-3.4,3.5s1.3,3.5,3.4,3.5C249,73.2,249.3,73.2,249.3,73.2z"/>
					<path class="st18" d="M265.1,75.5c-0.6,0.7-1.7,1.4-3.5,1.4c-2.4,0-3.4-1.4-3.4-3.1v-7.2h3.8v5.6c0,1,0.5,1.4,1.5,1.4
						c0.8,0,1.3-0.4,1.6-0.8v-6.3h3.8v10.1h-3.8V75.5z"/>
					<path class="st18" d="M275.8,66.3c3,0,5.3,2.1,5.3,5.7v0.8h-6.9c0.2,0.7,0.9,1.3,2.2,1.3c0.9,0,1.8-0.3,2.3-0.7l1.6,2.3
						c-1,0.9-2.8,1.3-4.3,1.3c-3.2,0-5.6-2-5.6-5.3C270.3,68.6,272.5,66.3,275.8,66.3z M274.2,70.4h3.3c-0.1-0.4-0.5-1.2-1.7-1.2
						C274.7,69.1,274.3,69.9,274.2,70.4z"/>
					<path class="st18" d="M283,72.8c0.8,0.6,2.5,1.3,3.7,1.3c0.8,0,1-0.2,1-0.5s-0.5-0.5-1.4-0.6c-1.7-0.2-4.3-0.5-4.3-3.3
						c0-1.8,1.6-3.5,4.5-3.5c1.7,0,3.2,0.5,4.4,1.3l-1.4,2.5c-0.6-0.5-1.8-1-3-1c-0.5,0-0.9,0.1-0.9,0.4s0.3,0.4,1.3,0.6
						c1.7,0.3,4.5,0.6,4.5,3.4c0,2-1.8,3.5-4.8,3.5c-1.9,0-3.9-0.7-5-1.6L283,72.8z"/>
					<path class="st18" d="M293.5,73.7v-3.9h-1.7v-3.3h1.7v-2.8h3.8v2.8h2.1v3.3h-2.1v2.8c0,0.5,0.3,0.9,0.8,0.9
						c0.3,0,0.7-0.1,0.8-0.2l0.7,2.9c-0.4,0.4-1.3,0.7-2.6,0.7C294.7,76.9,293.5,75.8,293.5,73.7z"/>
					<path class="st18" d="M300.5,63.4c0-1.2,0.9-2.1,2.1-2.1s2.1,0.9,2.1,2.1s-0.9,2.1-2.1,2.1S300.5,64.5,300.5,63.4z M300.7,66.5
						h3.8v10.1h-3.8V66.5z"/>
					<path class="st18" d="M305.9,71.6c0-2.8,2.1-5.3,5.7-5.3s5.7,2.5,5.7,5.3s-2.1,5.3-5.7,5.3C308,76.9,305.9,74.4,305.9,71.6z
						 M313.4,71.6c0-1.1-0.7-2-1.8-2c-1.2,0-1.8,0.9-1.8,2s0.7,2,1.8,2S313.4,72.7,313.4,71.6z"/>
					<path class="st18" d="M325.6,71.1c0-1-0.6-1.4-1.5-1.4s-1.3,0.4-1.6,0.8v6.3h-3.8V66.5h3.8v1.2c0.6-0.7,1.7-1.4,3.5-1.4
						c2.4,0,3.4,1.4,3.4,3.2v7.2h-3.8V71.1z"/>
					<path class="st18" d="M338.3,71.1c0-1-0.6-1.4-1.5-1.4s-1.3,0.4-1.6,0.8v6.3h-3.8V66.5h3.8v1.2c0.6-0.7,1.7-1.4,3.5-1.4
						c2.4,0,3.4,1.4,3.4,3.2v7.2h-3.8V71.1z"/>
					<path class="st18" d="M350,75.7c-0.6,0.7-1.8,1.2-3.1,1.2c-1.5,0-3.5-1-3.5-3.3c0-2.5,2-3.1,3.5-3.1c1.3,0,2.5,0.4,3.1,1.1
						v-1.2c0-0.7-0.7-1.3-1.9-1.3c-0.9,0-2,0.4-2.8,1l-1.3-2.3c1.4-1.1,3.3-1.5,4.8-1.5c2.5,0,5,0.9,5,4.3v6.1H350L350,75.7
						L350,75.7z M350,73.3c-0.3-0.4-0.9-0.5-1.5-0.5s-1.3,0.2-1.3,0.8s0.7,0.8,1.3,0.8c0.6,0,1.2-0.2,1.5-0.5V73.3z"/>
					<path class="st18" d="M355.7,63.4c0-1.2,0.9-2.1,2.1-2.1s2.1,0.9,2.1,2.1s-0.9,2.1-2.1,2.1S355.7,64.5,355.7,63.4z M355.9,66.5
						h3.8v10.1h-3.8V66.5z"/>
					<path class="st18" d="M361.8,66.5h3.8v1.2c0.6-0.7,2-1.4,3.1-1.4v3.6c-0.2-0.1-0.5-0.1-0.9-0.1c-0.8,0-1.8,0.2-2.2,0.7v6.2
						h-3.8V66.5z"/>
					<path class="st18" d="M374.8,66.3c3,0,5.3,2.1,5.3,5.7v0.8h-6.9c0.2,0.7,0.9,1.3,2.2,1.3c0.9,0,1.8-0.3,2.3-0.7l1.6,2.3
						c-1,0.9-2.8,1.3-4.3,1.3c-3.2,0-5.6-2-5.6-5.3C369.3,68.6,371.5,66.3,374.8,66.3z M373.2,70.4h3.3c-0.1-0.4-0.5-1.2-1.7-1.2
						C373.7,69.1,373.3,69.9,373.2,70.4z"/>
				</g>
			</g>
		</g>
		<rect x="48.5" y="99.7" class="st19" width="333.4" height="357.7"/>
		<g>
			<g>
				<path class="st20" d="M68.5,118.2l0.4,0.5l-1.5,1.2l-0.5-0.6c-0.4,0.2-0.9,0.2-1.4,0.2c-2.3,0-4-1.5-4-3.8s1.7-3.8,4-3.8
					c2.3,0,4,1.5,4,3.8C69.4,116.7,69.1,117.5,68.5,118.2z M65.5,117.5l-0.6-0.8l1.5-1.2l0.6,0.8c0.1-0.2,0.1-0.4,0.1-0.7
					c0-1-0.7-1.8-1.8-1.8s-1.8,0.8-1.8,1.8C63.7,116.7,64.3,117.5,65.5,117.5L65.5,117.5z"/>
				<path class="st20" d="M73.8,118.7c-0.3,0.3-0.9,0.7-1.8,0.7c-1.2,0-1.8-0.7-1.8-1.6V114h2v2.9c0,0.5,0.3,0.7,0.8,0.7
					c0.4,0,0.7-0.2,0.8-0.4V114h2v5.3h-2V118.7z"/>
				<path class="st20" d="M79.4,113.9c1.6,0,2.8,1.1,2.8,3v0.4h-3.6c0.1,0.3,0.5,0.7,1.2,0.7c0.5,0,0.9-0.2,1.2-0.4l0.8,1.2
					c-0.5,0.5-1.5,0.7-2.3,0.7c-1.7,0-3-1-3-2.8C76.5,115.1,77.7,113.9,79.4,113.9z M78.5,116h1.7c-0.1-0.2-0.2-0.6-0.9-0.6
					C78.8,115.4,78.6,115.8,78.5,116z"/>
				<path class="st20" d="M83.2,117.3c0.4,0.3,1.3,0.7,1.9,0.7c0.4,0,0.5-0.1,0.5-0.3c0-0.2-0.2-0.2-0.7-0.3
					c-0.9-0.1-2.3-0.3-2.3-1.7c0-1,0.8-1.8,2.4-1.8c0.9,0,1.7,0.3,2.3,0.7l-0.7,1.3c-0.3-0.3-0.9-0.5-1.6-0.5
					c-0.3,0-0.5,0.1-0.5,0.2c0,0.2,0.2,0.2,0.7,0.3c0.9,0.1,2.3,0.3,2.3,1.8c0,1.1-0.9,1.8-2.5,1.8c-1,0-2-0.3-2.6-0.8L83.2,117.3z"
					/>
				<path class="st20" d="M88.6,117.8v-2.1h-0.9V114h0.9v-1.5h2v1.5h1.1v1.7h-1.1v1.5c0,0.3,0.2,0.5,0.4,0.5c0.2,0,0.4-0.1,0.4-0.1
					l0.4,1.5c-0.2,0.2-0.7,0.4-1.3,0.4C89.3,119.5,88.6,118.9,88.6,117.8z"/>
				<path class="st20" d="M92.3,112.4c0-0.6,0.5-1.1,1.1-1.1s1.1,0.5,1.1,1.1s-0.5,1.1-1.1,1.1S92.3,113,92.3,112.4z M92.4,114h2
					v5.3h-2V114z"/>
				<path class="st20" d="M95.1,116.7c0-1.5,1.1-2.8,3-2.8s3,1.3,3,2.8s-1.1,2.8-3,2.8S95.1,118.2,95.1,116.7z M99.1,116.7
					c0-0.6-0.3-1-1-1c-0.6,0-0.9,0.5-0.9,1c0,0.6,0.3,1,0.9,1S99.1,117.3,99.1,116.7z"/>
				<path class="st20" d="M105.4,116.4c0-0.5-0.3-0.8-0.8-0.8s-0.7,0.2-0.8,0.4v3.3h-2V114h2v0.6c0.3-0.4,0.9-0.7,1.8-0.7
					c1.2,0,1.8,0.7,1.8,1.7v3.8h-2V116.4z"/>
			</g>
			<path class="st21" d="M359.5,150H72.2c-6.1,0-11-4.9-11-11l0,0c0-6.1,4.9-11,11-11h287.3c6.1,0,11,4.9,11,11l0,0
				C370.5,145.1,365.6,150,359.5,150z"/>
			<g>
				<path class="st20" d="M76.8,140.9h-3.4l-0.6,1.5h-0.9l2.7-6.7h1l2.7,6.7h-0.9L76.8,140.9z M73.7,140.1h2.9l-1.4-3.7L73.7,140.1z
					"/>
				<path class="st20" d="M82.5,139.2c0-0.8-0.4-1.1-1.1-1.1c-0.6,0-1.1,0.4-1.4,0.8v3.5h-0.7v-4.8H80v0.7c0.3-0.4,1-0.8,1.7-0.8
					c1,0,1.5,0.5,1.5,1.6v3.4h-0.7V139.2z"/>
				<path class="st20" d="M84.7,141.2c0.3,0.4,0.9,0.7,1.6,0.7s1.1-0.3,1.1-0.8s-0.6-0.7-1.2-0.9c-0.8-0.2-1.7-0.4-1.7-1.4
					c0-0.7,0.6-1.4,1.8-1.4c0.8,0,1.4,0.3,1.8,0.7l-0.4,0.5c-0.3-0.3-0.8-0.6-1.4-0.6c-0.7,0-1.1,0.3-1.1,0.7c0,0.5,0.5,0.6,1.2,0.8
					c0.8,0.2,1.8,0.4,1.8,1.5c0,0.8-0.6,1.5-1.9,1.5c-0.8,0-1.5-0.2-1.9-0.8L84.7,141.2z"/>
				<path class="st20" d="M92.3,138.5l-1.3,3.9h-0.7l-1.5-4.8h0.8l1.2,3.8l1.3-3.8h0.6l1.3,3.8l1.2-3.8H96l-1.5,4.8h-0.7L92.3,138.5
					z"/>
				<path class="st20" d="M98.8,137.4c1.5,0,2.3,1.1,2.3,2.6v0.2h-3.9c0.1,0.9,0.7,1.7,1.7,1.7c0.5,0,1.1-0.2,1.5-0.6l0.4,0.5
					c-0.5,0.5-1.1,0.7-1.9,0.7c-1.4,0-2.5-1-2.5-2.5C96.4,138.5,97.4,137.4,98.8,137.4z M97.2,139.6h3.2c0-0.7-0.5-1.6-1.6-1.6
					C97.8,138,97.2,138.9,97.2,139.6z"/>
				<path class="st20" d="M102.3,137.5h0.7v0.8c0.4-0.5,0.9-0.9,1.6-0.9v0.8c-0.1,0-0.2,0-0.3,0c-0.5,0-1.1,0.4-1.3,0.8v3.4h-0.7
					C102.3,142.4,102.3,137.5,102.3,137.5z"/>
			</g>
		</g>
		<g>
			<g>
				<path class="st20" d="M68.5,173l0.4,0.5l-1.5,1.2l-0.5-0.6c-0.4,0.2-0.9,0.2-1.4,0.2c-2.3,0-4-1.5-4-3.8s1.7-3.8,4-3.8
					c2.3,0,4,1.5,4,3.8C69.4,171.5,69.1,172.4,68.5,173z M65.5,172.4l-0.6-0.8l1.5-1.2l0.6,0.8c0.1-0.2,0.1-0.4,0.1-0.7
					c0-1-0.7-1.8-1.8-1.8s-1.8,0.8-1.8,1.8C63.7,171.6,64.3,172.4,65.5,172.4L65.5,172.4z"/>
				<path class="st20" d="M73.8,173.6c-0.3,0.3-0.9,0.7-1.8,0.7c-1.2,0-1.8-0.7-1.8-1.6v-3.8h2v2.9c0,0.5,0.3,0.7,0.8,0.7
					c0.4,0,0.7-0.2,0.8-0.4v-3.3h2v5.3h-2V173.6z"/>
				<path class="st20" d="M79.4,168.8c1.6,0,2.8,1.1,2.8,3v0.4h-3.6c0.1,0.3,0.5,0.7,1.2,0.7c0.5,0,0.9-0.2,1.2-0.4l0.8,1.2
					c-0.5,0.5-1.5,0.7-2.3,0.7c-1.7,0-3-1-3-2.8C76.5,170,77.7,168.8,79.4,168.8z M78.5,170.9h1.7c-0.1-0.2-0.2-0.6-0.9-0.6
					C78.8,170.3,78.6,170.7,78.5,170.9z"/>
				<path class="st20" d="M83.2,172.2c0.4,0.3,1.3,0.7,1.9,0.7c0.4,0,0.5-0.1,0.5-0.3s-0.2-0.2-0.7-0.3c-0.9-0.1-2.3-0.3-2.3-1.7
					c0-1,0.8-1.8,2.4-1.8c0.9,0,1.7,0.3,2.3,0.7l-0.7,1.3c-0.3-0.3-0.9-0.5-1.6-0.5c-0.3,0-0.5,0.1-0.5,0.2c0,0.2,0.2,0.2,0.7,0.3
					c0.9,0.1,2.3,0.3,2.3,1.8c0,1.1-0.9,1.8-2.5,1.8c-1,0-2-0.3-2.6-0.8L83.2,172.2z"/>
				<path class="st20" d="M88.6,172.7v-2.1h-0.9v-1.7h0.9v-1.5h2v1.5h1.1v1.7h-1.1v1.5c0,0.3,0.2,0.5,0.4,0.5c0.2,0,0.4-0.1,0.4-0.1
					l0.4,1.5c-0.2,0.2-0.7,0.4-1.3,0.4C89.3,174.3,88.6,173.8,88.6,172.7z"/>
				<path class="st20" d="M92.3,167.2c0-0.6,0.5-1.1,1.1-1.1s1.1,0.5,1.1,1.1s-0.5,1.1-1.1,1.1C92.8,168.4,92.3,167.9,92.3,167.2z
					 M92.4,168.9h2v5.3h-2V168.9z"/>
				<path class="st20" d="M95.1,171.6c0-1.5,1.1-2.8,3-2.8s3,1.3,3,2.8s-1.1,2.8-3,2.8C96.2,174.3,95.1,173,95.1,171.6z M99.1,171.6
					c0-0.6-0.3-1-1-1c-0.6,0-0.9,0.5-0.9,1c0,0.6,0.3,1,0.9,1S99.1,172.1,99.1,171.6z"/>
				<path class="st20" d="M105.4,171.3c0-0.5-0.3-0.8-0.8-0.8s-0.7,0.2-0.8,0.4v3.3h-2v-5.3h2v0.6c0.3-0.4,0.9-0.7,1.8-0.7
					c1.2,0,1.8,0.7,1.8,1.7v3.8h-2V171.3z"/>
			</g>
			<path class="st21" d="M359.5,204.9H72.2c-6.1,0-11-4.9-11-11l0,0c0-6.1,4.9-11,11-11h287.3c6.1,0,11,4.9,11,11l0,0
				C370.5,200,365.6,204.9,359.5,204.9z"/>
			<g>
				<path class="st20" d="M76.8,195.7h-3.4l-0.6,1.5h-0.9l2.7-6.7h1l2.7,6.7h-0.9L76.8,195.7z M73.7,195h2.9l-1.4-3.7L73.7,195z"/>
				<path class="st20" d="M82.5,194.1c0-0.8-0.4-1.1-1.1-1.1c-0.6,0-1.1,0.4-1.4,0.8v3.5h-0.7v-4.8H80v0.7c0.3-0.4,1-0.8,1.7-0.8
					c1,0,1.5,0.5,1.5,1.6v3.4h-0.7V194.1z"/>
				<path class="st20" d="M84.7,196c0.3,0.4,0.9,0.7,1.6,0.7s1.1-0.3,1.1-0.8s-0.6-0.7-1.2-0.9c-0.8-0.2-1.7-0.4-1.7-1.4
					c0-0.7,0.6-1.4,1.8-1.4c0.8,0,1.4,0.3,1.8,0.7l-0.4,0.5c-0.3-0.3-0.8-0.6-1.4-0.6c-0.7,0-1.1,0.3-1.1,0.7c0,0.5,0.5,0.6,1.2,0.8
					c0.8,0.2,1.8,0.4,1.8,1.5c0,0.8-0.6,1.5-1.9,1.5c-0.8,0-1.5-0.2-1.9-0.8L84.7,196z"/>
				<path class="st20" d="M92.3,193.3l-1.3,3.9h-0.7l-1.5-4.8h0.8l1.2,3.8l1.3-3.8h0.6l1.3,3.8l1.2-3.8H96l-1.5,4.8h-0.7L92.3,193.3
					z"/>
				<path class="st20" d="M98.8,192.3c1.5,0,2.3,1.1,2.3,2.6v0.2h-3.9c0.1,0.9,0.7,1.7,1.7,1.7c0.5,0,1.1-0.2,1.5-0.6l0.4,0.5
					c-0.5,0.5-1.1,0.7-1.9,0.7c-1.4,0-2.5-1-2.5-2.5S97.4,192.3,98.8,192.3z M97.2,194.5h3.2c0-0.7-0.5-1.6-1.6-1.6
					C97.8,192.9,97.2,193.8,97.2,194.5z"/>
				<path class="st20" d="M102.3,192.4h0.7v0.8c0.4-0.5,0.9-0.9,1.6-0.9v0.8c-0.1,0-0.2,0-0.3,0c-0.5,0-1.1,0.4-1.3,0.8v3.4h-0.7
					C102.3,197.3,102.3,192.4,102.3,192.4z"/>
			</g>
		</g>
		<g>
			<g>
				<path class="st20" d="M68.5,232l0.4,0.5l-1.5,1.2l-0.5-0.6c-0.4,0.2-0.9,0.2-1.4,0.2c-2.3,0-4-1.5-4-3.8s1.7-3.8,4-3.8
					c2.3,0,4,1.5,4,3.8C69.4,230.5,69.1,231.4,68.5,232z M65.5,231.4l-0.6-0.8l1.5-1.2l0.6,0.8c0.1-0.2,0.1-0.4,0.1-0.7
					c0-1-0.7-1.8-1.8-1.8s-1.8,0.8-1.8,1.8C63.7,230.6,64.3,231.4,65.5,231.4L65.5,231.4z"/>
				<path class="st20" d="M73.8,232.6c-0.3,0.3-0.9,0.7-1.8,0.7c-1.2,0-1.8-0.7-1.8-1.6v-3.8h2v2.9c0,0.5,0.3,0.7,0.8,0.7
					c0.4,0,0.7-0.2,0.8-0.4v-3.3h2v5.3h-2V232.6z"/>
				<path class="st20" d="M79.4,227.8c1.6,0,2.8,1.1,2.8,3v0.4h-3.6c0.1,0.3,0.5,0.7,1.2,0.7c0.5,0,0.9-0.2,1.2-0.4l0.8,1.2
					c-0.5,0.5-1.5,0.7-2.3,0.7c-1.7,0-3-1-3-2.8C76.5,229,77.7,227.8,79.4,227.8z M78.5,229.9h1.7c-0.1-0.2-0.2-0.6-0.9-0.6
					C78.8,229.3,78.6,229.7,78.5,229.9z"/>
				<path class="st20" d="M83.2,231.2c0.4,0.3,1.3,0.7,1.9,0.7c0.4,0,0.5-0.1,0.5-0.3s-0.2-0.2-0.7-0.3c-0.9-0.1-2.3-0.3-2.3-1.7
					c0-1,0.8-1.8,2.4-1.8c0.9,0,1.7,0.3,2.3,0.7l-0.7,1.3c-0.3-0.3-0.9-0.5-1.6-0.5c-0.3,0-0.5,0.1-0.5,0.2c0,0.2,0.2,0.2,0.7,0.3
					c0.9,0.1,2.3,0.3,2.3,1.8c0,1.1-0.9,1.8-2.5,1.8c-1,0-2-0.3-2.6-0.8L83.2,231.2z"/>
				<path class="st20" d="M88.6,231.7v-2.1h-0.9v-1.7h0.9v-1.5h2v1.5h1.1v1.7h-1.1v1.5c0,0.3,0.2,0.5,0.4,0.5c0.2,0,0.4-0.1,0.4-0.1
					l0.4,1.5c-0.2,0.2-0.7,0.4-1.3,0.4C89.3,233.3,88.6,232.8,88.6,231.7z"/>
				<path class="st20" d="M92.3,226.2c0-0.6,0.5-1.1,1.1-1.1s1.1,0.5,1.1,1.1s-0.5,1.1-1.1,1.1C92.8,227.4,92.3,226.9,92.3,226.2z
					 M92.4,227.9h2v5.3h-2V227.9z"/>
				<path class="st20" d="M95.1,230.6c0-1.5,1.1-2.8,3-2.8s3,1.3,3,2.8s-1.1,2.8-3,2.8C96.2,233.3,95.1,232,95.1,230.6z M99.1,230.6
					c0-0.6-0.3-1-1-1c-0.6,0-0.9,0.5-0.9,1c0,0.6,0.3,1,0.9,1S99.1,231.1,99.1,230.6z"/>
				<path class="st20" d="M105.4,230.3c0-0.5-0.3-0.8-0.8-0.8s-0.7,0.2-0.8,0.4v3.3h-2v-5.3h2v0.6c0.3-0.4,0.9-0.7,1.8-0.7
					c1.2,0,1.8,0.7,1.8,1.7v3.8h-2V230.3z"/>
			</g>
			<path class="st21" d="M359.5,263.9H72.2c-6.1,0-11-4.9-11-11l0,0c0-6.1,4.9-11,11-11h287.3c6.1,0,11,4.9,11,11l0,0
				C370.5,259,365.6,263.9,359.5,263.9z"/>
			<g>
				<path class="st20" d="M76.8,254.7h-3.4l-0.6,1.5h-0.9l2.7-6.7h1l2.7,6.7h-0.9L76.8,254.7z M73.7,254h2.9l-1.4-3.7L73.7,254z"/>
				<path class="st20" d="M82.5,253.1c0-0.8-0.4-1.1-1.1-1.1c-0.6,0-1.1,0.4-1.4,0.8v3.5h-0.7v-4.8H80v0.7c0.3-0.4,1-0.8,1.7-0.8
					c1,0,1.5,0.5,1.5,1.6v3.4h-0.7V253.1z"/>
				<path class="st20" d="M84.7,255c0.3,0.4,0.9,0.7,1.6,0.7s1.1-0.3,1.1-0.8s-0.6-0.7-1.2-0.9c-0.8-0.2-1.7-0.4-1.7-1.4
					c0-0.7,0.6-1.4,1.8-1.4c0.8,0,1.4,0.3,1.8,0.7l-0.4,0.5c-0.3-0.3-0.8-0.6-1.4-0.6c-0.7,0-1.1,0.3-1.1,0.7c0,0.5,0.5,0.6,1.2,0.8
					c0.8,0.2,1.8,0.4,1.8,1.5c0,0.8-0.6,1.5-1.9,1.5c-0.8,0-1.5-0.2-1.9-0.8L84.7,255z"/>
				<path class="st20" d="M92.3,252.3l-1.3,3.9h-0.7l-1.5-4.8h0.8l1.2,3.8l1.3-3.8h0.6l1.3,3.8l1.2-3.8H96l-1.5,4.8h-0.7L92.3,252.3
					z"/>
				<path class="st20" d="M98.8,251.3c1.5,0,2.3,1.1,2.3,2.6v0.2h-3.9c0.1,0.9,0.7,1.7,1.7,1.7c0.5,0,1.1-0.2,1.5-0.6l0.4,0.5
					c-0.5,0.5-1.1,0.7-1.9,0.7c-1.4,0-2.5-1-2.5-2.5S97.4,251.3,98.8,251.3z M97.2,253.5h3.2c0-0.7-0.5-1.6-1.6-1.6
					C97.8,251.9,97.2,252.8,97.2,253.5z"/>
				<path class="st20" d="M102.3,251.4h0.7v0.8c0.4-0.5,0.9-0.9,1.6-0.9v0.8c-0.1,0-0.2,0-0.3,0c-0.5,0-1.1,0.4-1.3,0.8v3.4h-0.7
					C102.3,256.3,102.3,251.4,102.3,251.4z"/>
			</g>
		</g>
		<g>
			<g>
				<path class="st20" d="M68.5,296l0.4,0.5l-1.5,1.2l-0.5-0.6c-0.4,0.2-0.9,0.2-1.4,0.2c-2.3,0-4-1.5-4-3.8s1.7-3.8,4-3.8
					c2.3,0,4,1.5,4,3.8C69.4,294.5,69.1,295.4,68.5,296z M65.5,295.3l-0.6-0.8l1.5-1.2l0.6,0.8c0.1-0.2,0.1-0.4,0.1-0.7
					c0-1-0.7-1.8-1.8-1.8s-1.8,0.8-1.8,1.8C63.7,294.5,64.3,295.3,65.5,295.3L65.5,295.3z"/>
				<path class="st20" d="M73.8,296.6c-0.3,0.3-0.9,0.7-1.8,0.7c-1.2,0-1.8-0.7-1.8-1.6v-3.8h2v2.9c0,0.5,0.3,0.7,0.8,0.7
					c0.4,0,0.7-0.2,0.8-0.4v-3.3h2v5.3h-2V296.6z"/>
				<path class="st20" d="M79.4,291.7c1.6,0,2.8,1.1,2.8,3v0.4h-3.6c0.1,0.3,0.5,0.7,1.2,0.7c0.5,0,0.9-0.2,1.2-0.4l0.8,1.2
					c-0.5,0.5-1.5,0.7-2.3,0.7c-1.7,0-3-1-3-2.8C76.5,293,77.7,291.7,79.4,291.7z M78.5,293.9h1.7c-0.1-0.2-0.2-0.6-0.9-0.6
					C78.8,293.2,78.6,293.6,78.5,293.9z"/>
				<path class="st20" d="M83.2,295.2c0.4,0.3,1.3,0.7,1.9,0.7c0.4,0,0.5-0.1,0.5-0.3c0-0.2-0.2-0.2-0.7-0.3
					c-0.9-0.1-2.3-0.3-2.3-1.7c0-1,0.8-1.8,2.4-1.8c0.9,0,1.7,0.3,2.3,0.7l-0.7,1.3c-0.3-0.3-0.9-0.5-1.6-0.5
					c-0.3,0-0.5,0.1-0.5,0.2c0,0.2,0.2,0.2,0.7,0.3c0.9,0.1,2.3,0.3,2.3,1.8c0,1.1-0.9,1.8-2.5,1.8c-1,0-2-0.3-2.6-0.8L83.2,295.2z"
					/>
				<path class="st20" d="M88.6,295.6v-2.1h-0.9v-1.7h0.9v-1.5h2v1.5h1.1v1.7h-1.1v1.5c0,0.3,0.2,0.5,0.4,0.5c0.2,0,0.4-0.1,0.4-0.1
					l0.4,1.5c-0.2,0.2-0.7,0.4-1.3,0.4C89.3,297.3,88.6,296.7,88.6,295.6z"/>
				<path class="st20" d="M92.3,290.2c0-0.6,0.5-1.1,1.1-1.1s1.1,0.5,1.1,1.1s-0.5,1.1-1.1,1.1C92.8,291.3,92.3,290.8,92.3,290.2z
					 M92.4,291.9h2v5.3h-2V291.9z"/>
				<path class="st20" d="M95.1,294.5c0-1.5,1.1-2.8,3-2.8s3,1.3,3,2.8s-1.1,2.8-3,2.8S95.1,296,95.1,294.5z M99.1,294.5
					c0-0.6-0.3-1-1-1c-0.6,0-0.9,0.5-0.9,1c0,0.6,0.3,1,0.9,1C98.7,295.6,99.1,295.1,99.1,294.5z"/>
				<path class="st20" d="M105.4,294.2c0-0.5-0.3-0.8-0.8-0.8s-0.7,0.2-0.8,0.4v3.3h-2v-5.3h2v0.6c0.3-0.4,0.9-0.7,1.8-0.7
					c1.2,0,1.8,0.7,1.8,1.7v3.8h-2V294.2z"/>
			</g>
			<path class="st21" d="M359.5,390.7H72.2c-6.1,0-11-4.9-11-11v-62.8c0-6.1,4.9-11,11-11h287.3c6.1,0,11,4.9,11,11v62.8
				C370.5,385.7,365.6,390.7,359.5,390.7z"/>
			<g>
				<path class="st20" d="M76.8,318.7h-3.4l-0.6,1.5h-0.9l2.7-6.7h1l2.7,6.7h-0.9L76.8,318.7z M73.7,318h2.9l-1.4-3.7L73.7,318z"/>
				<path class="st20" d="M82.5,317c0-0.8-0.4-1.1-1.1-1.1c-0.6,0-1.1,0.4-1.4,0.8v3.5h-0.7v-4.8H80v0.7c0.3-0.4,1-0.8,1.7-0.8
					c1,0,1.5,0.5,1.5,1.6v3.4h-0.7V317z"/>
				<path class="st20" d="M84.7,319c0.3,0.4,0.9,0.7,1.6,0.7s1.1-0.3,1.1-0.8s-0.6-0.7-1.2-0.9c-0.8-0.2-1.7-0.4-1.7-1.4
					c0-0.7,0.6-1.4,1.8-1.4c0.8,0,1.4,0.3,1.8,0.7l-0.4,0.5c-0.3-0.3-0.8-0.6-1.4-0.6c-0.7,0-1.1,0.3-1.1,0.7c0,0.5,0.5,0.6,1.2,0.8
					c0.8,0.2,1.8,0.4,1.8,1.5c0,0.8-0.6,1.5-1.9,1.5c-0.8,0-1.5-0.2-1.9-0.8L84.7,319z"/>
				<path class="st20" d="M92.3,316.3l-1.3,3.9h-0.7l-1.5-4.8h0.8l1.2,3.8l1.3-3.8h0.6l1.3,3.8l1.2-3.8H96l-1.5,4.8h-0.7L92.3,316.3
					z"/>
				<path class="st20" d="M98.8,315.2c1.5,0,2.3,1.1,2.3,2.6v0.2h-3.9c0.1,0.9,0.7,1.7,1.7,1.7c0.5,0,1.1-0.2,1.5-0.6l0.4,0.5
					c-0.5,0.5-1.1,0.7-1.9,0.7c-1.4,0-2.5-1-2.5-2.5C96.4,316.4,97.4,315.2,98.8,315.2z M97.2,317.5h3.2c0-0.7-0.5-1.6-1.6-1.6
					C97.8,315.8,97.2,316.7,97.2,317.5z"/>
				<path class="st20" d="M102.3,315.3h0.7v0.8c0.4-0.5,0.9-0.9,1.6-0.9v0.8c-0.1,0-0.2,0-0.3,0c-0.5,0-1.1,0.4-1.3,0.8v3.4h-0.7
					C102.3,320.2,102.3,315.3,102.3,315.3z"/>
			</g>
		</g>
		<path class="st22" d="M254.5,436.9h-84c-6.1,0-11-4.9-11-11l0,0c0-6.1,4.9-11,11-11h84c6.1,0,11,4.9,11,11l0,0
			C265.5,432,260.6,436.9,254.5,436.9z"/>
		<g>
			<path class="st7" d="M190,426.9c0.7,0.7,1.8,1.2,3,1.2c0.5,0,1-0.2,1-0.5s-0.4-0.5-1.3-0.7c-1.5-0.3-3.9-0.6-3.9-3
				c0-1.6,1.3-3,3.9-3c1.5,0,2.9,0.4,4,1.3l-1.5,2c-0.8-0.6-1.9-0.9-2.6-0.9c-0.7,0-0.9,0.3-0.9,0.5c0,0.4,0.4,0.5,1.4,0.7
				c1.5,0.3,3.8,0.7,3.8,2.9c0,2.1-1.5,3.3-4,3.3c-2,0-3.3-0.6-4.3-1.5L190,426.9z"/>
			<path class="st7" d="M202.4,429.6c-0.4,0.4-1.1,0.9-2.3,0.9c-1.6,0-2.2-0.9-2.2-2.1v-4.8h2.5v3.8c0,0.7,0.4,1,1,1
				s0.9-0.3,1.1-0.5v-4.2h2.5v6.8h-2.5v-0.9H202.4z"/>
			<path class="st7" d="M206.3,421h2.5v3.3c0.5-0.6,1.2-0.9,1.9-0.9c1.7,0,3,1.3,3,3.5c0,2.3-1.3,3.6-3,3.6c-0.7,0-1.3-0.2-1.9-0.9
				v0.7h-2.5V421z M209.9,428.3c0.7,0,1.3-0.5,1.3-1.3s-0.6-1.3-1.3-1.3c-0.3,0-0.8,0.2-1.1,0.5v1.7
				C209.1,428.1,209.5,428.3,209.9,428.3z"/>
			<path class="st7" d="M223.3,426.4c0-0.4-0.2-0.8-0.8-0.8s-0.9,0.3-1,0.5v4.2H219v-4c0-0.4-0.2-0.8-0.8-0.8c-0.5,0-0.9,0.3-1,0.5
				v4.2h-2.5v-6.8h2.5v0.8c0.3-0.4,1.1-0.9,2.2-0.9c1,0,1.6,0.3,1.9,1.2c0.4-0.6,1.3-1.2,2.4-1.2c1.2,0,2.1,0.6,2.1,2v4.9h-2.5
				L223.3,426.4L223.3,426.4z"/>
			<path class="st7" d="M227,421.5c0-0.8,0.6-1.4,1.4-1.4s1.4,0.6,1.4,1.4s-0.6,1.4-1.4,1.4S227,422.2,227,421.5z M227.2,423.6h2.5
				v6.8h-2.5V423.6z"/>
			<path class="st7" d="M231.6,428.4v-2.6h-1.1v-2.2h1.1v-1.8h2.5v1.8h1.4v2.2h-1.4v1.9c0,0.4,0.2,0.6,0.6,0.6
				c0.2,0,0.4-0.1,0.5-0.1l0.4,1.9c-0.3,0.2-0.9,0.4-1.7,0.4C232.5,430.5,231.6,429.8,231.6,428.4z"/>
		</g>
	</g>
</g>
<g id="objects">
	<line class="st23" x1="416.9" y1="75.5" x2="416.9" y2="157"/>
	<line class="st23" x1="15.3" y1="157" x2="15.3" y2="75.5"/>
</g>
<g id="_x3C_Layer_x3E_">
</g>
</svg>
