<?xml version="1.0" encoding="utf-8"?>
<!-- Generator: Adobe Illustrator 19.1.0, SVG Export Plug-In . SVG Version: 6.00 Build 0)  -->
<svg version="1.1" xmlns="http://www.w3.org/2000/svg" xmlns:xlink="http://www.w3.org/1999/xlink" x="0px" y="0px"
	 viewBox="0 0 233.8 148.5" style="enable-background:new 0 0 233.8 148.5;" xml:space="preserve">
<style type="text/css">
	.st0{fill:#353535;}
	.st1{fill:#FFFFFF;}
	.st2{fill:#3195AB;}
	.st3{fill:#BE384B;}
	.st4{fill:#BCBCBC;}
</style>
<g id="Layer_1">
	<g>
		<g>
			<path class="st0" d="M187,74.8c-0.3,29.3-19.3,55.9-47.1,65.6c-27.8,9.7-59.6,1-78.3-21.8c-18.4-22.5-20.6-55-5.4-79.8
				c15.4-25.1,45.7-38,74.5-32.3C163.1,12.9,186.6,41.8,187,74.8c0,2.7,5,2.7,4.9-0.2c-0.3-31.1-20.7-59.2-50.1-69.4
				C112.3-5,78.2,3.7,58,27.8c-19.9,23.9-22.6,58.5-6.2,85c16.5,26.7,48.7,40.2,79.4,34.4c34.8-6.6,60.4-37.2,60.7-72.6
				C191.9,72,187,72,187,74.8z"/>
		</g>
	</g>
	<polyline class="st1" points="0,105.5 0,67.4 82.9,67.4 82.9,105.5 	"/>
	<g>
		<rect x="38" class="st1" width="156.5" height="30"/>
	</g>
	<g>
		<path class="st2" d="M0.8,81h4.5c3.1,0,5.5,1.8,5.5,5s-2.3,5-5.5,5H0.8V81z M5.3,88.4c1.5,0,2.4-1.1,2.4-2.4
			c0-1.4-0.8-2.4-2.4-2.4H3.8v4.7H5.3z"/>
		<path class="st2" d="M11.6,81.5c0-0.8,0.7-1.5,1.5-1.5c0.8,0,1.5,0.7,1.5,1.5c0,0.8-0.7,1.5-1.5,1.5C12.3,83,11.6,82.3,11.6,81.5z
			 M11.8,83.8h2.7V91h-2.7V83.8z"/>
		<path class="st2" d="M16.5,88.3c0.6,0.5,1.8,0.9,2.6,0.9c0.6,0,0.7-0.1,0.7-0.3c0-0.2-0.3-0.3-1-0.4c-1.2-0.2-3.1-0.4-3.1-2.4
			c0-1.3,1.1-2.5,3.2-2.5c1.2,0,2.3,0.4,3.1,0.9l-1,1.8c-0.5-0.4-1.3-0.8-2.1-0.8c-0.4,0-0.7,0.1-0.7,0.3s0.2,0.3,0.9,0.4
			c1.2,0.2,3.2,0.4,3.2,2.5c0,1.4-1.3,2.5-3.4,2.5c-1.3,0-2.8-0.5-3.6-1.1L16.5,88.3z"/>
		<path class="st2" d="M23.9,88.9v-2.8h-1.2v-2.3h1.2v-2h2.7v2h1.5v2.3h-1.5v2c0,0.4,0.2,0.7,0.6,0.7c0.2,0,0.5-0.1,0.5-0.1l0.5,2
			c-0.3,0.3-0.9,0.5-1.8,0.5C24.8,91.2,23.9,90.4,23.9,88.9z"/>
		<path class="st2" d="M29.1,83.8h2.7v0.8c0.5-0.5,1.4-1,2.2-1v2.6c-0.1,0-0.4-0.1-0.6-0.1c-0.6,0-1.3,0.1-1.6,0.5V91h-2.7V83.8z"/>
		<path class="st2" d="M34.8,81.5c0-0.8,0.7-1.5,1.5-1.5c0.8,0,1.5,0.7,1.5,1.5c0,0.8-0.7,1.5-1.5,1.5C35.4,83,34.8,82.3,34.8,81.5z
			 M34.9,83.8h2.7V91h-2.7V83.8z"/>
		<path class="st2" d="M39.1,81h2.7v3.5c0.6-0.7,1.3-0.9,2-0.9c1.8,0,3.2,1.4,3.2,3.8c0,2.5-1.4,3.8-3.2,3.8c-0.7,0-1.4-0.3-2-0.9
			V91h-2.7V81z M42.9,88.8c0.7,0,1.4-0.5,1.4-1.4c0-0.9-0.6-1.4-1.4-1.4c-0.4,0-0.9,0.2-1.1,0.5v1.9C42.1,88.6,42.6,88.8,42.9,88.8z
			"/>
		<path class="st2" d="M52.9,90.2c-0.4,0.5-1.2,1-2.5,1c-1.7,0-2.4-1-2.4-2.3v-5.2h2.7v4c0,0.7,0.4,1,1.1,1c0.6,0,0.9-0.3,1.1-0.6
			v-4.5h2.7V91h-2.7V90.2z"/>
		<path class="st2" d="M57.7,88.9v-2.8h-1.2v-2.3h1.2v-2h2.7v2h1.5v2.3h-1.5v2c0,0.4,0.2,0.7,0.6,0.7c0.2,0,0.5-0.1,0.5-0.1l0.5,2
			c-0.3,0.3-0.9,0.5-1.8,0.5C58.6,91.2,57.7,90.4,57.7,88.9z"/>
		<path class="st2" d="M62.4,87.4c0-2,1.5-3.8,4.1-3.8c2.6,0,4.1,1.8,4.1,3.8s-1.5,3.8-4.1,3.8C63.9,91.2,62.4,89.4,62.4,87.4z
			 M67.8,87.4c0-0.8-0.5-1.4-1.3-1.4c-0.8,0-1.3,0.6-1.3,1.4c0,0.8,0.5,1.4,1.3,1.4C67.3,88.8,67.8,88.2,67.8,87.4z"/>
		<path class="st2" d="M71.5,83.8h2.7v0.8c0.5-0.5,1.4-1,2.2-1v2.6c-0.1,0-0.4-0.1-0.6-0.1c-0.6,0-1.3,0.1-1.6,0.5V91h-2.7V83.8z"/>
		<path class="st2" d="M77.8,88.3c0.6,0.5,1.8,0.9,2.6,0.9c0.6,0,0.7-0.1,0.7-0.3c0-0.2-0.3-0.3-1-0.4c-1.2-0.2-3.1-0.4-3.1-2.4
			c0-1.3,1.1-2.5,3.2-2.5c1.2,0,2.3,0.4,3.1,0.9l-1,1.8c-0.5-0.4-1.3-0.8-2.1-0.8c-0.4,0-0.7,0.1-0.7,0.3s0.2,0.3,0.9,0.4
			c1.2,0.2,3.2,0.4,3.2,2.5c0,1.4-1.3,2.5-3.4,2.5c-1.3,0-2.8-0.5-3.6-1.1L77.8,88.3z"/>
	</g>
	<polyline class="st1" points="151,105.5 151,67.4 233.8,67.4 233.8,105.5 	"/>
	<g>
		<path class="st3" d="M149.3,86c0-3.1,2.4-5.2,5.4-5.2c2.7,0,4,1.5,4.6,2.9l-2.6,1.2c-0.3-0.8-1-1.5-2-1.5c-1.4,0-2.4,1.1-2.4,2.5
			s1,2.5,2.4,2.5c1,0,1.8-0.7,2-1.5l2.6,1.2c-0.6,1.3-1.9,2.9-4.6,2.9C151.6,91.2,149.3,89.1,149.3,86z"/>
		<path class="st3" d="M159.7,87.4c0-2,1.5-3.8,4.1-3.8c2.6,0,4.1,1.8,4.1,3.8s-1.5,3.8-4.1,3.8C161.2,91.2,159.7,89.4,159.7,87.4z
			 M165.1,87.4c0-0.8-0.5-1.4-1.3-1.4c-0.8,0-1.3,0.6-1.3,1.4c0,0.8,0.5,1.4,1.3,1.4C164.6,88.8,165.1,88.2,165.1,87.4z"/>
		<path class="st3" d="M173.7,87c0-0.8-0.4-1-1-1c-0.6,0-0.9,0.3-1.2,0.6V91h-2.7v-7.2h2.7v0.8c0.4-0.5,1.2-1,2.5-1
			c1.7,0,2.4,1,2.4,2.3V91h-2.7V87z"/>
		<path class="st3" d="M178.5,88.9v-2.8h-1.2v-2.3h1.2v-2h2.7v2h1.5v2.3h-1.5v2c0,0.4,0.2,0.7,0.6,0.7c0.2,0,0.5-0.1,0.5-0.1l0.5,2
			c-0.3,0.3-0.9,0.5-1.8,0.5C179.4,91.2,178.5,90.4,178.5,88.9z"/>
		<path class="st3" d="M183.7,83.8h2.7v0.8c0.4-0.5,1.4-1,2.2-1v2.6c-0.1,0-0.4-0.1-0.6-0.1c-0.6,0-1.3,0.1-1.6,0.5V91h-2.7V83.8z"
			/>
		<path class="st3" d="M193.7,90.3c-0.4,0.5-1.3,0.9-2.2,0.9c-1.1,0-2.5-0.7-2.5-2.4c0-1.8,1.4-2.2,2.5-2.2c0.9,0,1.8,0.3,2.2,0.8
			v-0.8c0-0.5-0.5-0.9-1.3-0.9c-0.7,0-1.4,0.3-2,0.7l-0.9-1.7c1-0.8,2.3-1.1,3.4-1.1c1.8,0,3.6,0.6,3.6,3V91h-2.7V90.3z M193.7,88.6
			c-0.2-0.3-0.6-0.4-1.1-0.4c-0.4,0-0.9,0.1-0.9,0.6c0,0.5,0.5,0.6,0.9,0.6c0.4,0,0.9-0.1,1.1-0.4V88.6z"/>
		<path class="st3" d="M201.5,83.6c1.6,0,2.7,0.8,3.1,1.4l-1.7,1.6c-0.2-0.3-0.6-0.6-1.2-0.6c-0.8,0-1.4,0.5-1.4,1.4
			c0,0.9,0.7,1.4,1.4,1.4c0.6,0,1-0.3,1.2-0.6l1.7,1.6c-0.4,0.6-1.4,1.4-3.1,1.4c-2.3,0-4.1-1.5-4.1-3.8
			C197.4,85.1,199.2,83.6,201.5,83.6z"/>
		<path class="st3" d="M206,88.9v-2.8h-1.2v-2.3h1.2v-2h2.7v2h1.5v2.3h-1.5v2c0,0.4,0.2,0.7,0.6,0.7c0.2,0,0.5-0.1,0.5-0.1l0.5,2
			c-0.3,0.3-0.9,0.5-1.8,0.5C206.9,91.2,206,90.4,206,88.9z"/>
		<path class="st3" d="M210.7,87.4c0-2,1.5-3.8,4.1-3.8c2.6,0,4.1,1.8,4.1,3.8s-1.5,3.8-4.1,3.8C212.2,91.2,210.7,89.4,210.7,87.4z
			 M216,87.4c0-0.8-0.5-1.4-1.3-1.4c-0.8,0-1.3,0.6-1.3,1.4c0,0.8,0.5,1.4,1.3,1.4C215.6,88.8,216,88.2,216,87.4z"/>
		<path class="st3" d="M219.8,83.8h2.7v0.8c0.5-0.5,1.4-1,2.2-1v2.6c-0.1,0-0.4-0.1-0.6-0.1c-0.6,0-1.3,0.1-1.6,0.5V91h-2.7V83.8z"
			/>
		<path class="st3" d="M226.1,88.3c0.6,0.5,1.8,0.9,2.6,0.9c0.6,0,0.7-0.1,0.7-0.3c0-0.2-0.3-0.3-1-0.4c-1.2-0.2-3.1-0.4-3.1-2.4
			c0-1.3,1.1-2.5,3.2-2.5c1.2,0,2.3,0.4,3.1,0.9l-1,1.8c-0.4-0.4-1.3-0.8-2.1-0.8c-0.4,0-0.7,0.1-0.7,0.3s0.2,0.3,0.9,0.4
			c1.2,0.2,3.2,0.4,3.2,2.5c0,1.4-1.3,2.5-3.4,2.5c-1.3,0-2.8-0.5-3.6-1.1L226.1,88.3z"/>
	</g>
</g>
<g id="_x3C_Layer_x3E_">
	<g>
		<path class="st4" d="M73.7,12.7L71.4,19h-1.4l-2.2-6.3V19h-3V9H69l1.8,5.1L72.5,9h4.2v10h-3V12.7z"/>
		<path class="st4" d="M82.4,18.3c-0.4,0.5-1.3,0.9-2.2,0.9c-1.1,0-2.5-0.7-2.5-2.4c0-1.8,1.4-2.2,2.5-2.2c0.9,0,1.8,0.3,2.2,0.8
			v-0.8c0-0.5-0.5-0.9-1.3-0.9c-0.7,0-1.4,0.3-2,0.7l-0.9-1.7c1-0.8,2.3-1.1,3.4-1.1c1.8,0,3.6,0.6,3.6,3V19h-2.7V18.3z M82.4,16.6
			c-0.2-0.3-0.6-0.4-1.1-0.4c-0.4,0-0.9,0.1-0.9,0.6c0,0.5,0.5,0.6,0.9,0.6c0.4,0,0.9-0.1,1.1-0.4V16.6z"/>
		<path class="st4" d="M91.5,15c0-0.8-0.4-1-1-1c-0.6,0-0.9,0.3-1.2,0.6V19h-2.7v-7.2h2.7v0.8c0.4-0.5,1.2-1,2.5-1
			c1.7,0,2.4,1,2.4,2.3V19h-2.7V15z"/>
		<path class="st4" d="M100.6,18.2c-0.4,0.5-1.2,1-2.5,1c-1.7,0-2.4-1-2.4-2.3v-5.2h2.7v4c0,0.7,0.4,1,1.1,1c0.6,0,0.9-0.3,1.1-0.6
			v-4.5h2.7V19h-2.7V18.2z"/>
		<path class="st4" d="M105.4,14.1h-1.2v-2.3h1.2v-0.3c0-1.5,1.2-2.6,2.8-2.6c0.7,0,1.3,0.2,1.7,0.4l-0.5,1.8
			c-0.2-0.1-0.4-0.2-0.6-0.2c-0.4,0-0.7,0.3-0.7,0.7v0.2h1.5v2.3h-1.5V19h-2.7V14.1z"/>
		<path class="st4" d="M114.6,18.3c-0.4,0.5-1.3,0.9-2.2,0.9c-1.1,0-2.5-0.7-2.5-2.4c0-1.8,1.4-2.2,2.5-2.2c0.9,0,1.8,0.3,2.2,0.8
			v-0.8c0-0.5-0.5-0.9-1.3-0.9c-0.7,0-1.4,0.3-2,0.7l-0.9-1.7c1-0.8,2.3-1.1,3.4-1.1c1.8,0,3.6,0.6,3.6,3V19h-2.7V18.3z M114.6,16.6
			c-0.2-0.3-0.6-0.4-1.1-0.4c-0.4,0-0.9,0.1-0.9,0.6c0,0.5,0.5,0.6,0.9,0.6c0.4,0,0.9-0.1,1.1-0.4V16.6z"/>
		<path class="st4" d="M122.3,11.6c1.6,0,2.7,0.8,3.1,1.4l-1.7,1.6c-0.2-0.3-0.6-0.6-1.2-0.6c-0.8,0-1.4,0.5-1.4,1.4
			c0,0.9,0.7,1.4,1.4,1.4c0.6,0,1-0.3,1.2-0.6l1.7,1.6c-0.4,0.6-1.4,1.4-3.1,1.4c-2.3,0-4.1-1.5-4.1-3.8
			C118.3,13.1,120.1,11.6,122.3,11.6z"/>
		<path class="st4" d="M126.9,16.9v-2.8h-1.2v-2.3h1.2v-2h2.7v2h1.5v2.3h-1.5v2c0,0.4,0.2,0.7,0.6,0.7c0.2,0,0.5-0.1,0.5-0.1l0.5,2
			c-0.3,0.3-0.9,0.5-1.8,0.5C127.7,19.2,126.9,18.4,126.9,16.9z"/>
		<path class="st4" d="M136.9,18.2c-0.4,0.5-1.2,1-2.5,1c-1.7,0-2.4-1-2.4-2.3v-5.2h2.7v4c0,0.7,0.4,1,1.1,1c0.6,0,0.9-0.3,1.1-0.6
			v-4.5h2.7V19h-2.7V18.2z"/>
		<path class="st4" d="M141.1,11.8h2.7v0.8c0.5-0.5,1.4-1,2.2-1v2.6c-0.1,0-0.4-0.1-0.6-0.1c-0.6,0-1.3,0.1-1.6,0.5V19h-2.7V11.8z"
			/>
		<path class="st4" d="M150.4,11.6c2.1,0,3.8,1.5,3.8,4.1v0.6h-4.9c0.1,0.5,0.7,0.9,1.6,0.9c0.6,0,1.3-0.2,1.6-0.5l1.1,1.7
			c-0.7,0.6-2,0.9-3.1,0.9c-2.3,0-4-1.4-4-3.8C146.5,13.3,148.1,11.6,150.4,11.6z M149.2,14.5h2.4c-0.1-0.3-0.3-0.9-1.2-0.9
			C149.6,13.6,149.3,14.2,149.2,14.5z"/>
		<path class="st4" d="M155.1,11.8h2.7v0.8c0.5-0.5,1.4-1,2.2-1v2.6c-0.1,0-0.4-0.1-0.6-0.1c-0.6,0-1.3,0.1-1.6,0.5V19h-2.7V11.8z"
			/>
		<path class="st4" d="M161.4,16.3c0.6,0.5,1.8,0.9,2.6,0.9c0.6,0,0.7-0.1,0.7-0.3c0-0.2-0.3-0.3-1-0.4c-1.2-0.2-3.1-0.4-3.1-2.4
			c0-1.3,1.1-2.5,3.2-2.5c1.2,0,2.3,0.4,3.1,0.9l-1,1.8c-0.5-0.4-1.3-0.8-2.1-0.8c-0.4,0-0.7,0.1-0.7,0.3s0.2,0.3,0.9,0.4
			c1.2,0.2,3.2,0.4,3.2,2.5c0,1.4-1.3,2.5-3.4,2.5c-1.3,0-2.8-0.5-3.6-1.1L161.4,16.3z"/>
	</g>
</g>
</svg>
